<svg width="57" height="48" viewBox="0 0 57 48" fill="none" xmlns="http://www.w3.org/2000/svg">
<path d="M25.5541 9.52129C25.3833 9.20768 24.8109 7.65319 25.7591 4.94129C26.7073 2.22939 29.6158 0.329707 32.3963 0.275559C35.1767 0.221411 37.8119 0.681667 40.9127 3.186C44.0113 5.69033 45.2627 8.77225 45.3609 11.3082C45.457 13.8418 44.101 16.6237 43.4091 17.4562C43.4091 17.4562 42.9713 15.9513 41.6238 15.4527C40.2763 14.9541 38.5786 15.5881 38.5786 15.5881C36.0074 8.68651 31.8624 7.22001 28.8278 7.84722L27.7174 8.09991L25.5562 9.52129H25.5541Z" fill="white"/>
<path d="M5.60938 47.478L15.6078 30.5839C18.3156 26.5589 23.1333 24.7743 27.6286 26.1302L44.4073 31.1953C46.8524 31.9331 49.2292 33.8801 50.4337 35.7482C51.6381 37.6186 52.6845 45.4497 52.6845 45.4497V47.5141L5.60938 47.4757V47.478Z" fill="#61B7CC"/>
<path d="M52.7921 47.6291L5.41797 47.5907L15.5189 30.5229C18.2524 26.4596 23.1277 24.6546 27.6593 26.0219L44.438 31.087C46.7571 31.7864 49.2023 33.6342 50.5241 35.685C51.7286 37.5554 52.7493 45.1135 52.7921 45.4361V47.6291ZM5.80236 47.3651L52.5785 47.4035V45.4519C52.57 45.3887 51.5236 37.6388 50.3469 35.8136C49.0506 33.8034 46.6525 31.9917 44.3782 31.3058L27.5995 26.2407C23.1576 24.8983 18.372 26.6717 15.6962 30.6515L5.80236 47.3696V47.3651Z" fill="#61B7CC"/>
<path d="M2.7113 33.3537L4.91728 34.7164L4.3834 47.484H14.2195L12.5987 32.7265L11.3537 22.4226C11.3537 22.4226 10.8497 20.5703 10.8497 18.2577C10.8497 15.9452 10.9736 14.5666 10.9736 14.5666C10.9736 14.5666 10.9928 13.4927 10.1557 13.504C9.1285 13.5175 7.5589 15.354 7.53755 17.3395C7.51406 19.3362 7.44572 21.6984 7.44572 21.6984L6.04696 21.369L4.38768 28.988L2.62375 28.6766C2.32478 28.6248 1.07123 28.4759 0.832057 29.9942C0.80216 30.1838 0.817108 30.4116 0.859818 30.653C1.06269 31.7947 1.76314 32.7693 2.7113 33.3559V33.3537Z" fill="white"/>
<path d="M1.01247 29.2735C1.01247 29.2735 0.226602 28.7681 0.467915 27.2497C0.709227 25.7313 1.96063 25.8802 2.25961 25.9321L5.465 26.4984C5.88783 26.5729 6.1505 27.0309 6.01169 27.4595C5.77038 28.2041 5.24291 29.1494 4.13031 28.9508" fill="white"/>
<path d="M0.725267 26.4672C0.511716 26.1987 0.227693 25.6392 0.385721 24.6442C0.627033 23.1258 1.87844 23.2747 2.17741 23.3266L5.17353 23.8546C5.72022 23.9516 6.05549 24.5608 5.84194 25.1C5.65402 25.5738 5.34437 26.0701 4.8468 26.2732" fill="white"/>
<path d="M0.95149 23.5477C0.799869 23.2296 0.686687 22.74 0.799869 22.027C1.04118 20.5086 2.29259 20.6576 2.59156 20.7094L5.58768 21.2374C6.13437 21.3344 6.46964 21.9436 6.25609 22.4828C5.98274 23.1709 5.45527 23.9042 4.46226 23.7282" fill="white"/>
<path d="M6.96875 24.1973C6.96875 24.1973 7.3745 27.1461 10.3044 27.3378L6.96875 24.1973Z" fill="white"/>
<path d="M1.00818 29.6291C0.948385 29.6291 0.88859 29.6133 0.835203 29.5772C0.794628 29.5501 -0.14286 28.9274 0.132621 27.1902C0.358985 25.7598 1.40538 25.4191 2.31511 25.5793L6.20814 26.2629C6.50924 26.317 6.77191 26.5066 6.9278 26.7818C7.0837 27.0571 7.11573 27.3887 7.01749 27.691C6.5968 28.9883 5.79812 29.602 4.76026 29.4192C4.57661 29.3854 4.45062 29.2027 4.48265 29.0086C4.51468 28.8146 4.68766 28.6837 4.87131 28.7153C5.56322 28.8394 6.06719 28.4153 6.37684 27.4587C6.41101 27.3526 6.40033 27.2421 6.34481 27.145C6.28929 27.048 6.1996 26.9826 6.09282 26.9646L2.19979 26.2809C1.64883 26.1839 0.959062 26.2809 0.796764 27.3052C0.600297 28.5416 1.16407 28.9522 1.1897 28.968C1.34345 29.0763 1.39043 29.2952 1.29007 29.4599C1.226 29.5682 1.11709 29.6268 1.00604 29.6268L1.00818 29.6291Z" fill="#1D1D1B"/>
<path d="M0.723742 26.8247C0.627644 26.8247 0.531547 26.7818 0.465346 26.6983C0.232576 26.405 -0.132596 25.7417 0.0489219 24.5843C0.202678 23.6119 0.728013 23.2171 1.14017 23.0592C1.57367 22.8922 2.00932 22.9328 2.22927 22.9734L6.32731 23.7541C6.69676 23.8195 7.01281 24.0564 7.19219 24.4038C7.36944 24.7423 7.3908 25.1393 7.24985 25.4913C6.97224 26.1907 6.5729 26.651 6.06465 26.8608C5.89167 26.9307 5.6952 26.8427 5.62687 26.6577C5.55853 26.475 5.64609 26.2674 5.81906 26.1952C6.15007 26.0598 6.42128 25.7304 6.62628 25.216C6.68608 25.0626 6.67754 24.8979 6.60066 24.749C6.51951 24.5933 6.3807 24.4896 6.21627 24.4602L2.11609 23.6773C1.9602 23.6503 1.65696 23.6187 1.36867 23.7292C1.00776 23.8669 0.794214 24.185 0.713065 24.6994C0.574257 25.5725 0.81984 26.035 0.977868 26.2336C1.09746 26.3847 1.08037 26.6104 0.937293 26.7367C0.873228 26.7931 0.796349 26.8202 0.719471 26.8202L0.723742 26.8247Z" fill="#1D1D1B"/>
<path d="M4.74651 24.1131C4.63546 24.1131 4.52014 24.1018 4.40269 24.0815C4.21904 24.0477 4.09518 23.8649 4.12507 23.6709C4.15711 23.4769 4.33008 23.3483 4.51374 23.3776C4.74864 23.4182 5.4619 23.5446 5.94026 22.3465C6.00005 22.1931 5.99151 22.0284 5.91463 21.8795C5.83348 21.7238 5.69467 21.6201 5.53024 21.5907L2.53412 21.0605C1.98316 20.9635 1.29339 21.0605 1.13109 22.0848C1.04994 22.5992 1.09052 23.0505 1.25282 23.3866C1.3361 23.5626 1.2699 23.7769 1.10333 23.8672C0.936762 23.9552 0.733889 23.8852 0.648468 23.7093C0.419969 23.2287 0.35804 22.6421 0.464815 21.9675C0.691179 20.5371 1.73971 20.1964 2.6473 20.3566L5.64342 20.8868C6.01286 20.9522 6.32892 21.1891 6.5083 21.5366C6.68555 21.875 6.7069 22.2721 6.56596 22.6241C6.17943 23.5965 5.54305 24.1154 4.74864 24.1154L4.74651 24.1131Z" fill="#1D1D1B"/>
<path d="M6.96875 24.1973C6.96875 24.1973 7.3745 27.1461 10.3044 27.3378L6.96875 24.1973Z" fill="white"/>
<path d="M10.3036 27.6934C10.3036 27.6934 10.2887 27.6934 10.2823 27.6934C7.11531 27.4881 6.63696 24.2798 6.63269 24.2482C6.60492 24.0519 6.73306 23.8714 6.91884 23.8444C7.10463 23.8128 7.27547 23.9504 7.3011 24.1467C7.31818 24.2595 7.71325 26.8135 10.3228 26.9827C10.5086 26.994 10.6517 27.1632 10.6389 27.3617C10.6282 27.5512 10.4787 27.6979 10.3015 27.6979L10.3036 27.6934Z" fill="#1D1D1B"/>
<path d="M7.25344 12.5215C7.14667 12.5215 7.03989 12.4674 6.97369 12.3658L5.36352 9.88859C5.25888 9.72614 5.29732 9.50278 5.45107 9.39223C5.60483 9.28168 5.81625 9.32229 5.92089 9.48474L7.53106 11.962C7.6357 12.1244 7.59726 12.3478 7.4435 12.4584C7.38584 12.5012 7.31751 12.5215 7.25344 12.5215Z" fill="#1D1D1B"/>
<path d="M9.15479 11.425C8.99036 11.425 8.84728 11.2987 8.82165 11.1227L8.28564 7.54441C8.25574 7.35038 8.38174 7.16764 8.56753 7.13605C8.75118 7.10221 8.92415 7.23758 8.95405 7.43386L9.49006 11.0121C9.51996 11.2062 9.39397 11.3889 9.20818 11.4205C9.19109 11.4227 9.17187 11.425 9.15479 11.425Z" fill="#1D1D1B"/>
<path d="M11.2555 11.7574C11.2149 11.7574 11.1722 11.7484 11.1316 11.7326C10.9586 11.6604 10.8732 11.4528 10.9415 11.2701L11.9004 8.70709C11.9687 8.52434 12.1652 8.43184 12.3382 8.50629C12.5111 8.57849 12.5965 8.78606 12.5282 8.96881L11.5694 11.5318C11.516 11.6717 11.39 11.7574 11.2555 11.7574Z" fill="#1D1D1B"/>
<path d="M2.54415 33.6612L4.57288 34.9156L4.04755 47.4846H4.7245L5.25838 34.7351C5.26479 34.602 5.20072 34.4756 5.09181 34.408L2.88583 33.0452C1.99105 32.4925 1.37603 31.5945 1.19451 30.586C1.15607 30.3694 1.14753 30.1867 1.16888 30.0536C1.33118 29.0315 2.02095 28.9345 2.57191 29.0293L5.6022 29.573C5.64064 29.5798 5.65986 29.6046 5.67053 29.6181C5.68121 29.6339 5.68975 29.6588 5.68335 29.6926C5.46339 30.6537 5.19004 31.0508 4.15859 30.8681L3.51367 30.753C3.32788 30.7214 3.15491 30.8523 3.12501 31.0463C3.09511 31.2403 3.21897 31.4253 3.40262 31.4569L4.04755 31.572C5.65772 31.8563 6.11045 30.8658 6.34108 29.8596C6.3902 29.643 6.35176 29.4106 6.23431 29.2256C6.11685 29.0361 5.92679 28.9052 5.71538 28.8691L2.68509 28.3254C1.7775 28.1652 0.728969 28.5059 0.504741 29.9363C0.470573 30.1551 0.479115 30.4191 0.532503 30.7191C0.748189 31.933 1.4828 33.0069 2.54629 33.6634L2.54415 33.6612Z" fill="#1D1D1B"/>
<path d="M5.97179 21.716L7.37054 22.0454C7.46878 22.0679 7.57128 22.0454 7.65243 21.9777C7.73144 21.9123 7.78056 21.813 7.7827 21.7069C7.7827 21.6821 7.85103 19.3177 7.87452 17.3413C7.89588 15.5612 9.31599 13.8691 10.1595 13.86C10.3218 13.8578 10.4051 13.921 10.4499 13.9661C10.6037 14.1285 10.6357 14.4489 10.6379 14.5301C10.6336 14.5865 10.5119 15.9538 10.5119 18.255C10.5119 20.5563 10.9561 22.2417 11.0223 22.4898L12.263 32.7689L13.8774 47.4813H14.5587L12.9314 32.6786L11.6864 22.3748C11.6864 22.3567 11.68 22.3387 11.6757 22.3206C11.6715 22.3026 11.1846 20.4886 11.1846 18.255C11.1846 16.0214 11.3063 14.6113 11.3084 14.5707C11.3084 14.5008 11.3084 13.8691 10.9283 13.463C10.7318 13.2531 10.467 13.1426 10.1638 13.1426C10.1595 13.1426 10.1531 13.1426 10.1467 13.1426C8.87821 13.1584 7.21892 15.1934 7.1933 17.33C7.17621 18.7965 7.1335 20.4773 7.11428 21.2512L6.11487 21.0166C5.92908 20.9714 5.75183 21.0955 5.71126 21.2873C5.67068 21.4791 5.786 21.6709 5.96752 21.7137L5.97179 21.716Z" fill="#1D1D1B"/>
<path d="M25.4659 9.39701C25.0687 7.71392 25.1797 6.53395 25.7563 4.9411C27.185 0.986057 32.0454 -1.0332 37.429 1.13722C42.8105 3.30764 46.0479 9.02023 45.3133 13.8439C44.7453 17.5801 42.6717 20.1138 40.092 20.5785L25.4659 9.39701Z" fill="white"/>
<path d="M27.1283 24.6444C23.4894 22.95 22.206 17.5827 24.2603 12.6575C26.3147 7.73227 29.5115 6.76438 33.1505 8.45875C36.1871 9.87336 39.0017 12.1949 38.1838 16.335C38.9035 15.4731 40.0311 15.0377 41.1693 15.3084C42.7517 15.6852 43.8066 17.3593 43.5226 19.0469C43.213 20.8744 41.5345 22.0476 39.8346 21.6528C39.4694 21.5693 39.1384 21.4159 38.8416 21.2151L38.312 29.9983C39.2815 30.2713 25.9025 35.289 27.8053 27.8414L28.7556 25.1114C28.2003 25.0415 27.6537 24.8881 27.1283 24.6444Z" fill="white"/>
<path d="M41.6092 16.5303C41.5686 16.5236 40.5991 16.3634 39.7834 17.0064C39.2153 17.4531 38.8694 18.166 38.7562 19.1226C38.737 19.2761 38.8416 19.4159 38.9868 19.4363C38.9975 19.4363 39.0103 19.4363 39.021 19.4363C39.1534 19.4363 39.2666 19.3325 39.2837 19.1903C39.3798 18.3917 39.6531 17.8096 40.0973 17.4553C40.7251 16.9567 41.5067 17.0763 41.5259 17.0786C41.6712 17.1056 41.8057 16.9996 41.8292 16.8484C41.8527 16.695 41.7544 16.5506 41.6114 16.5258L41.6092 16.5303Z" fill="#0B0B16"/>
<path d="M35.0033 22.1332C33.233 24.0577 31.0291 25.0481 28.9534 24.8541C28.806 24.8428 28.6779 24.9534 28.6651 25.109C28.6523 25.2625 28.7591 25.4001 28.9064 25.4136C29.0943 25.4317 29.2844 25.4407 29.4723 25.4407C31.5331 25.4407 33.6579 24.4006 35.3834 22.5257C35.4859 22.4152 35.4838 22.237 35.3791 22.1287C35.2745 22.0204 35.1058 22.0226 35.0033 22.1332Z" fill="#0B0B16"/>
<path d="M25.3104 12.5277C25.9874 12.2998 26.4743 11.9072 26.3974 11.6478C26.3205 11.3883 25.7076 11.3635 25.0286 11.5914C24.3516 11.8192 23.8647 12.2118 23.9416 12.4713C24.0185 12.7307 24.6313 12.7555 25.3104 12.5277Z" fill="#0B0B16"/>
<path d="M29.6523 13.3096C29.8723 13.542 30.214 13.7857 30.6261 13.9819C31.4291 14.3677 32.1872 14.4309 32.3196 14.1263C32.4157 13.903 32.1509 13.542 31.6875 13.2148C31.0383 13.3818 30.3485 13.4179 29.6545 13.3096H29.6523Z" fill="#0B0B16"/>
<path d="M29.4063 12.7316C29.3423 12.8805 29.4384 13.0903 29.6476 13.3114C30.3438 13.4197 31.0315 13.3814 31.6806 13.2167C31.5098 13.0971 31.3133 12.9798 31.0977 12.876C30.2947 12.4902 29.5366 12.427 29.4042 12.7316H29.4063Z" fill="#0B0B16"/>
<path d="M26.3589 15.1331C26.171 15.5775 26.2201 16.101 26.4892 16.4958C26.5404 16.5725 26.6216 16.6131 26.7049 16.6131C26.7583 16.6131 26.8116 16.5973 26.8586 16.5612C26.9782 16.471 27.006 16.2972 26.9206 16.1709C26.7583 15.9317 26.7305 15.6294 26.8437 15.3609L27.0316 14.9142C26.9547 14.6096 26.8907 14.2983 26.8437 13.9824L26.3589 15.1308V15.1331Z" fill="#0B0B16"/>
<path d="M27.5591 12.9815C27.4246 12.9183 27.2687 12.9815 27.2089 13.1237L26.8438 13.9878C26.8907 14.3036 26.9527 14.6127 27.0317 14.9196L27.6937 13.3538C27.7535 13.2116 27.6937 13.0469 27.5591 12.9838V12.9815Z" fill="#0B0B16"/>
<path d="M29.4485 19.2305C28.9467 19.5193 28.1779 19.7923 27.1934 19.6276C27.0504 19.6027 26.9137 19.7088 26.8902 19.8599C26.8667 20.0134 26.9649 20.1555 27.1101 20.1803C27.3451 20.2187 27.5693 20.2367 27.7828 20.2367C28.6926 20.2367 29.3994 19.9186 29.865 19.6208C29.7219 19.4944 29.5831 19.3658 29.4485 19.2305Z" fill="#0B0B16"/>
<path d="M30.4978 19.1142C30.5981 19.0036 30.596 18.8254 30.4892 18.7194C30.3846 18.6111 30.2159 18.6156 30.1155 18.7261C30.0941 18.7487 29.8614 18.9946 29.4492 19.2338C29.5838 19.3691 29.7226 19.4977 29.8656 19.6241C30.2564 19.3736 30.4764 19.139 30.4978 19.1142Z" fill="#0B0B16"/>
<path d="M33.9559 8.95091C32.6917 8.09132 31.3955 7.73259 30.1953 7.7168C31.0068 9.00957 32.4397 9.78118 33.9602 9.65258C33.9346 9.41568 33.9346 9.18104 33.9559 8.95091Z" fill="#0B0B16"/>
<path d="M35.29 10.0781C35.0978 10.5203 34.8543 10.9287 34.5703 11.2942C34.8565 11.6935 35.2238 12.0184 35.6423 12.2463C35.7491 11.7996 35.905 11.3844 36.1271 11.0347C35.8538 10.685 35.574 10.3669 35.29 10.0781Z" fill="#0B0B16"/>
<path d="M34.6916 9.51758C34.5977 9.54465 34.5037 9.57173 34.4055 9.59203C34.256 9.62136 34.1065 9.64167 33.957 9.6552C33.9656 9.74319 33.9763 9.83344 33.9933 9.92143C34.0873 10.4381 34.2923 10.9029 34.5742 11.2954C34.8582 10.9277 35.1017 10.5216 35.2939 10.0794C35.0953 9.87856 34.8945 9.6913 34.6916 9.51983V9.51758Z" fill="#0B0B16"/>
<path d="M34.6906 9.51912C34.4472 9.31155 34.2016 9.12203 33.9539 8.95508C33.9304 9.18521 33.9325 9.41985 33.9581 9.65674C34.1076 9.64321 34.2571 9.62516 34.4066 9.59357C34.5048 9.57326 34.5988 9.54619 34.6927 9.51912H34.6906Z" fill="#0B0B16"/>
<path d="M35.6447 12.2461C35.256 13.866 35.5059 15.8582 35.5956 16.3523C35.7451 17.1713 36.4946 17.7105 37.2698 17.5526C38.045 17.3946 38.5554 16.6027 38.4059 15.7837C38.3845 15.6687 38.3952 15.4656 38.4209 15.2039C38.0386 14.2293 37.6222 13.3674 37.1823 12.6093C36.6356 12.6296 36.1081 12.4988 35.6426 12.2461H35.6447Z" fill="#0B0B16"/>
<path d="M37.1842 12.608C36.8447 12.0237 36.4923 11.5002 36.1293 11.0332C35.9072 11.3829 35.7513 11.8003 35.6445 12.2448C36.1101 12.4974 36.6375 12.6283 37.1842 12.608Z" fill="#0B0B16"/>
<path d="M30.2376 14.8934C29.9002 14.8709 29.6012 15.3018 29.5692 15.8568C29.5372 16.4096 29.7828 16.8766 30.1202 16.8991C30.4576 16.9217 30.7566 16.4908 30.7886 15.9358C30.8206 15.383 30.575 14.916 30.2376 14.8934Z" fill="#0B0B16"/>
<path d="M25.1361 14.1083C24.7987 14.0857 24.4997 14.5166 24.4677 15.0716C24.4356 15.6244 24.6812 16.0914 25.0186 16.114C25.356 16.1366 25.655 15.7056 25.687 15.1506C25.7191 14.5979 25.4735 14.1308 25.1361 14.1083Z" fill="#0B0B16"/>
<path d="M43.1365 7.80996C43.3287 7.77838 43.5358 7.80094 43.6148 7.81673C43.7109 7.83704 43.8113 7.81673 43.8924 7.75581C43.9757 7.69715 44.0313 7.60691 44.0505 7.50538C44.0697 7.4016 44.0505 7.29781 43.9928 7.20982C43.9373 7.12183 43.8519 7.06317 43.7558 7.04287C43.696 7.03159 43.4504 6.98872 43.1621 7.01354L43.2005 6.96842L43.1343 6.98646C43.2497 6.77439 43.3137 6.53975 43.3159 6.29157C43.3159 6.07498 43.1493 5.899 42.9443 5.899C42.7393 5.899 42.5727 6.07498 42.5727 6.29157C42.5727 6.47657 42.498 6.61646 42.4147 6.71573C41.1675 5.05745 39.4122 3.88876 37.4539 3.41722C36.6317 1.56492 34.7397 0.540624 32.8348 0.926427C32.0959 1.07533 31.4061 1.43632 30.8381 1.96652H30.836C28.741 1.80182 26.4795 3.09008 25.4459 5.06196C24.3077 8.02204 24.8672 10.0819 25.0808 10.4722L25.1448 10.5895L27.7651 8.20253L27.8014 8.19351L28.8457 7.95436C29.2813 7.86411 29.7298 7.82124 30.1932 7.82801C31.4916 7.8438 32.7387 8.25443 33.8983 9.04408C34.1396 9.20878 34.3852 9.39604 34.6243 9.5991H34.6265C34.8272 9.77056 35.0258 9.95782 35.2202 10.1564C35.5084 10.4519 35.7882 10.77 36.0487 11.1017C36.4139 11.5687 36.7663 12.0944 37.0951 12.663C37.5415 13.43 37.9557 14.2987 38.3252 15.2417L38.3764 15.3749C38.4085 15.4583 38.4426 15.5396 38.4747 15.6253L38.5131 15.7268L38.6113 15.6907C38.6284 15.684 40.2899 15.077 41.5861 15.5554C42.3912 15.8532 43.4867 17.3106 43.7195 17.7619L43.8134 17.9446L43.9074 17.7619C44.3623 16.8729 45.5774 11.4943 43.1386 7.80319L43.1365 7.80996Z" fill="#61B7CC"/>
<path d="M43.8345 18.3949C43.779 18.3949 43.7213 18.3769 43.6722 18.3363C43.5547 18.2415 43.5334 18.0655 43.6231 17.9415C44.2979 17.0097 44.7634 15.7011 45.0475 13.9435C45.8397 9.06122 42.3802 3.43436 37.3361 1.39931C31.8095 -0.829774 26.9426 1.59559 25.6037 5.12197C24.978 6.76896 24.8456 8.98902 25.2833 10.5232C25.3261 10.6721 25.2449 10.83 25.104 10.8752C24.963 10.9203 24.8135 10.8346 24.7708 10.6856C24.2946 9.01384 24.4291 6.69451 25.1082 4.91214C26.7526 0.587092 32.3241 -1.2246 37.5283 0.873624C42.7988 2.99892 46.4078 8.90554 45.5771 14.0383C45.276 15.8883 44.7763 17.2759 44.0502 18.2821C43.9968 18.3543 43.9178 18.3927 43.8388 18.3927L43.8345 18.3949Z" fill="#1D1D1B"/>
<path d="M26.0679 9.19531C25.2521 10.1384 24.5474 11.2642 24.0135 12.5434C21.9036 17.604 23.249 23.1474 27.0161 24.9004C27.4517 25.1035 27.9108 25.2501 28.3871 25.3381L27.5414 27.768C27.1228 29.406 27.377 30.6153 28.2974 31.3643C29.0341 31.9622 30.1254 32.1855 31.3234 32.1855C34.0931 32.1855 37.4373 30.992 38.2809 30.4776C38.409 30.3987 38.6503 30.252 38.6183 30.0016C38.6119 29.9565 38.599 29.9159 38.5777 29.8798L39.0731 21.6741C39.2974 21.7869 39.5323 21.8704 39.7714 21.9268C40.6684 22.1344 41.5823 21.9516 42.3447 21.4147C43.1071 20.8754 43.6153 20.0542 43.7776 19.0976C44.0873 17.2678 42.9405 15.4449 41.2236 15.0365C40.2925 14.8154 39.3337 15.0275 38.5713 15.5915C38.5884 15.4629 38.6033 15.3343 38.6161 15.2057L38.1207 14.7703C38.0865 15.2666 38.0225 15.7698 37.9221 16.2796C37.8965 16.4037 37.9541 16.5301 38.063 16.5865C38.1698 16.6429 38.3001 16.6158 38.3812 16.5211C39.0625 15.7043 40.1067 15.3433 41.1104 15.5825C42.5561 15.9277 43.5214 17.4596 43.2609 18.9983C43.1242 19.8038 42.6971 20.4964 42.0543 20.9476C41.4115 21.4011 40.6449 21.5545 39.8889 21.3786C39.5707 21.3041 39.2653 21.171 38.9813 20.9792C38.9023 20.9251 38.8019 20.9206 38.7186 20.9657C38.6354 21.0108 38.5798 21.0988 38.5734 21.1981L38.0438 29.9813C37.1448 30.5747 31.2678 32.5398 28.8846 31.1026C27.9279 30.525 27.6567 29.4827 28.0496 27.9395L28.9999 25.2095C29.0277 25.1283 29.0192 25.0403 28.9764 24.9658C28.9337 24.8937 28.8633 24.844 28.7821 24.835C28.2397 24.7651 27.7165 24.6161 27.2317 24.3905C23.7338 22.7616 22.508 17.5499 24.5004 12.7736C25.0194 11.5282 25.707 10.4362 26.5014 9.52697L26.0679 9.20208V9.19531Z" fill="#0B0B16"/>
<path d="M38.5746 15.87C38.4678 15.87 38.3674 15.8024 38.3269 15.6918C35.9436 9.30011 32.5888 7.94416 30.1927 7.93513C30.0454 7.93513 29.9258 7.80879 29.9258 7.65311C29.9258 7.49744 30.0454 7.37109 30.1927 7.37109C32.7532 7.38237 36.328 8.79924 38.8202 15.4865C38.8736 15.6309 38.8074 15.7956 38.6685 15.852C38.6365 15.8655 38.6023 15.8723 38.5703 15.8723L38.5746 15.87Z" fill="#1D1D1B"/>
<path d="M26.1465 9.80387C26.0803 9.80387 26.0141 9.77905 25.9629 9.72716C25.8561 9.62112 25.8497 9.44289 25.9522 9.32782C26.4562 8.76153 27.2335 7.97187 28.1475 7.65827C28.7326 7.45747 29.3839 7.36271 30.1954 7.36948C30.3428 7.36948 30.4624 7.49582 30.4624 7.6515C30.4624 7.80717 30.3428 7.93352 30.1954 7.93352C30.1805 7.93352 30.1655 7.93352 30.1527 7.93352C29.4181 7.93352 28.833 8.017 28.314 8.19523C27.5154 8.46823 26.8064 9.19245 26.343 9.71363C26.2896 9.77229 26.2191 9.80162 26.1486 9.80162L26.1465 9.80387Z" fill="#1D1D1B"/>
<path d="M27.1557 7.78225C27.1172 7.78225 27.0766 7.77323 27.0382 7.75292C26.7542 7.60627 26.515 7.38517 26.3506 7.11443C25.932 6.43533 26.1114 5.69982 26.1755 5.49C26.2203 5.34109 26.3719 5.25987 26.5129 5.30951C26.6538 5.35689 26.7286 5.51707 26.6837 5.66598C26.6517 5.77202 26.5022 6.32478 26.799 6.80759C26.9421 7.03998 27.1364 7.17309 27.2731 7.24529C27.4055 7.31297 27.461 7.48218 27.3948 7.62207C27.3479 7.72134 27.2539 7.78 27.1557 7.78V7.78225Z" fill="white"/>
<path d="M28.7308 7.11936C28.654 7.11936 28.5792 7.08552 28.5258 7.01783C28.3315 6.77417 28.182 6.49892 28.0795 6.20336C27.8617 5.57164 27.9151 4.99406 27.9984 4.6218C28.0325 4.47063 28.1756 4.37587 28.3187 4.41197C28.4618 4.44807 28.5515 4.59923 28.5173 4.7504C28.4511 5.04821 28.4084 5.51072 28.5814 6.01159C28.6625 6.24623 28.78 6.46282 28.9359 6.65685C29.0298 6.77643 29.0149 6.95466 28.9017 7.05393C28.8526 7.09906 28.7906 7.11936 28.7308 7.11936Z" fill="white"/>
<path d="M39.3645 14.2785C39.3453 14.2785 39.3282 14.2785 39.3111 14.2785H39.2705C39.1125 14.2785 38.9844 14.1431 38.9844 13.9762C38.9844 13.8092 39.1125 13.6738 39.2705 13.6738H39.3132C39.5161 13.6738 39.8941 13.6738 40.1845 13.5881C40.7761 13.4076 40.9234 12.9 40.9256 12.8955C40.9704 12.7353 41.1306 12.6428 41.2822 12.6901C41.4338 12.7375 41.5214 12.9067 41.4765 13.0669C41.3911 13.376 41.0558 13.9558 40.3447 14.1702C40.003 14.274 39.6079 14.2807 39.3666 14.2807L39.3645 14.2785Z" fill="white"/>
<path d="M38.4348 12.4973C38.3067 12.4973 38.1892 12.4071 38.1572 12.2695C38.1187 12.107 38.2106 11.9423 38.3643 11.8995C38.6462 11.8227 38.911 11.6987 39.1523 11.5272C39.6691 11.1617 39.9553 10.6721 40.1048 10.3269C40.171 10.1758 40.3418 10.1081 40.4849 10.178C40.6301 10.248 40.692 10.4284 40.6258 10.5796C40.4464 10.997 40.0984 11.5859 39.4705 12.0326C39.1758 12.2424 38.8512 12.3958 38.5053 12.4883C38.4818 12.4951 38.4583 12.4973 38.4348 12.4973Z" fill="white"/>
<path d="M51.6435 30.2303C51.5581 30.2303 51.4791 30.1874 51.4279 30.1152C51.2293 29.831 46.5781 23.0647 46.5781 16.637C46.5781 13.4445 48.8503 10.8477 51.6435 10.8477C54.4368 10.8477 56.709 13.4445 56.709 16.637C56.709 22.9339 52.0578 29.8242 51.8592 30.113C51.8101 30.1852 51.729 30.2303 51.6435 30.2303ZM51.6435 11.4117C49.145 11.4117 47.112 13.7558 47.112 16.637C47.112 22.0991 50.7125 28.017 51.6414 29.4542C52.5682 27.999 56.1751 21.9908 56.1751 16.637C56.1751 13.7558 54.1421 11.4117 51.6435 11.4117Z" fill="#1D1D1B"/>
<path d="M51.646 30.2303C51.537 30.2303 51.4367 30.1604 51.3982 30.0521C51.3726 29.9821 48.8164 23.0264 48.8164 16.637C48.8164 13.3903 50.0593 10.8477 51.646 10.8477C53.2326 10.8477 54.4755 13.3903 54.4755 16.637C54.4755 22.8955 51.9214 29.9799 51.8958 30.0498C51.8552 30.1581 51.757 30.2303 51.6481 30.2303H51.646ZM51.646 11.4117C50.401 11.4117 49.3503 13.8055 49.3503 16.637C49.3503 21.7246 51.0032 27.189 51.6438 29.1203C52.2823 27.1687 53.9416 21.6276 53.9416 16.637C53.9416 13.8055 52.891 11.4117 51.646 11.4117Z" fill="#1D1D1B"/>
<path d="M51.6458 30.0994C51.4985 30.0994 51.3789 29.9731 51.3789 29.8174V11.1297C51.3789 10.974 51.4985 10.8477 51.6458 10.8477C51.7932 10.8477 51.9128 10.974 51.9128 11.1297V29.8152C51.9128 29.9708 51.7932 30.0972 51.6458 30.0972V30.0994Z" fill="#1D1D1B"/>
<path d="M51.302 29.2969H51.9896C52.4509 29.2969 52.8267 29.694 52.8267 30.1813V40.6386C52.8267 41.2838 52.3313 41.8073 51.7205 41.8073C51.0286 41.8073 50.4648 41.2139 50.4648 40.4806V30.1813C50.4648 29.694 50.8407 29.2969 51.302 29.2969Z" fill="white"/>
<path d="M51.7165 42.0715C50.8858 42.0715 50.2109 41.3586 50.2109 40.4809V30.1816C50.2109 29.5476 50.7 29.0332 51.2979 29.0332H51.9855C52.5856 29.0332 53.0725 29.5499 53.0725 30.1816V40.6389C53.0725 41.4308 52.4639 42.0738 51.7143 42.0738L51.7165 42.0715ZM51.2979 29.5611C50.9754 29.5611 50.7128 29.8387 50.7128 30.1793V40.4787C50.7128 41.063 51.1634 41.5391 51.7165 41.5391C52.1884 41.5391 52.5728 41.133 52.5728 40.6366V30.1793C52.5728 29.8387 52.3101 29.5611 51.9877 29.5611H51.3H51.2979Z" fill="#1D1D1B"/>
<path d="M48.6929 43.1818L49.7158 43.5248C49.7158 43.5248 49.2289 46.8391 52.2591 47.4956C53.0002 47.6558 55.945 44.7544 56.1244 42.8412C56.4789 39.0937 55.9493 33.3202 52.9916 32.605C50.0318 31.8898 45.3401 31.707 45.3401 31.707C45.3401 31.707 44.9664 34.1076 46.615 34.3806C48.9235 34.7619 51.2448 35.7568 51.2448 35.7568L44.3791 36.8037C44.3791 36.8037 44.2617 38.1235 44.7635 39.2223C45.2654 40.3233 45.5579 42.2049 48.6929 43.1818Z" fill="white"/>
<path d="M45.5669 34.0931C44.8216 33.2606 44.907 31.8076 44.9113 31.7309C44.9198 31.5955 45.0266 31.4872 45.1547 31.485C45.3533 31.4805 50.0578 31.3857 53.0646 32.3491C54.5104 32.8116 56.8616 34.7925 56.3747 42.856C56.3661 43.0027 56.2465 43.1132 56.1099 43.1042C55.9732 43.0952 55.8664 42.9688 55.8771 42.8244C56.0372 40.1644 56.0714 33.8675 52.9215 32.8567C50.3717 32.04 46.4211 32.0062 45.4088 32.0107C45.4216 32.5409 45.5476 33.775 46.4488 34.0638C46.9464 34.224 47.6127 34.3593 48.3174 34.5037C49.7033 34.788 51.1363 35.0813 51.7128 35.6363C51.8132 35.7356 51.8218 35.9025 51.7299 36.0086C51.6381 36.1169 51.4779 36.1236 51.3776 36.0266C50.9056 35.5731 49.4812 35.2798 48.2234 35.0226C47.5059 34.876 46.8268 34.7361 46.3036 34.5691C45.9961 34.4699 45.7548 34.3007 45.569 34.0908L45.5669 34.0931Z" fill="#0B0B16"/>
<path d="M44.3887 38.7394C43.8356 38.1212 43.9722 37.1217 44.1644 36.5938C44.1986 36.5013 44.2798 36.4359 44.3737 36.4246L53.6119 35.468C53.7486 35.4544 53.8725 35.5605 53.8853 35.7049C53.8981 35.8493 53.7977 35.9801 53.661 35.9936L44.5851 36.9322C44.4848 37.3067 44.3139 38.2588 45.0656 38.5973C45.1916 38.6537 45.2514 38.8093 45.198 38.9447C45.1425 39.0801 44.9973 39.141 44.8692 39.0846C44.6706 38.9943 44.5125 38.8748 44.3887 38.7371V38.7394Z" fill="#0B0B16"/>
<path d="M45.0022 40.8371C44.4214 40.1895 44.2761 39.0908 44.2676 39.0299C44.2591 38.9577 44.2783 38.8832 44.3231 38.8268C44.368 38.7704 44.432 38.7366 44.5025 38.7321L53.9671 38.2425C54.1059 38.2357 54.2233 38.3485 54.2297 38.4929C54.2362 38.6396 54.1294 38.7636 53.9927 38.7704L44.8143 39.2442C44.936 39.7925 45.2499 40.6543 45.8457 40.7626C46.8729 40.9499 53.6809 41.074 53.7493 41.0762C53.8881 41.0785 53.997 41.198 53.9948 41.3447C53.9927 41.4913 53.8795 41.6064 53.7407 41.6041C53.4588 41.5996 46.8259 41.4778 45.7603 41.2838C45.4485 41.2274 45.1987 41.0582 45.0001 40.8371H45.0022Z" fill="#0B0B16"/>
<path d="M46.2173 42.2466C45.9355 41.9307 45.7369 41.5607 45.6536 41.1253C45.6258 40.9831 45.7134 40.8433 45.85 40.8139C45.9846 40.7846 46.117 40.8794 46.1447 41.0215C46.4053 42.4 48.2674 42.9956 49.7836 43.2528C51.4899 43.5416 53.1535 43.4739 53.1706 43.4717C53.3094 43.4672 53.4247 43.58 53.4311 43.7244C53.4375 43.871 53.3286 43.9929 53.1919 43.9996C52.9485 44.0109 47.9727 44.2027 46.2173 42.2466Z" fill="#0B0B16"/>
<path d="M53.6814 46.8045C53.6814 46.8045 53.6686 46.7909 53.6644 46.7819C53.5811 46.6646 53.6024 46.4999 53.7135 46.4119C55.0759 45.3222 55.8041 44.1151 55.8832 42.8246C56.0433 40.1646 56.0775 33.8677 52.9276 32.8569C52.7952 32.814 52.7205 32.6674 52.761 32.5275C52.8016 32.3876 52.9404 32.3086 53.0728 32.3515C54.5186 32.814 56.8698 34.7949 56.3829 42.8584C56.2953 44.3091 55.4988 45.647 54.0167 46.8338C53.9142 46.915 53.7711 46.9015 53.6836 46.8045H53.6814Z" fill="#0B0B16"/>
<path d="M39.1761 14.8544C39.0694 14.8544 38.969 14.7867 38.9284 14.6762C36.5452 8.28448 33.1903 6.92853 30.7943 6.91951C30.6469 6.91951 30.5273 6.79316 30.5273 6.63749C30.5273 6.48181 30.6469 6.35547 30.7943 6.35547C33.3548 6.36675 36.9296 7.78362 39.4217 14.4686C39.4751 14.613 39.4089 14.7777 39.2701 14.8341C39.2381 14.8476 39.2039 14.8544 39.1719 14.8544H39.1761Z" fill="white"/>
</svg>
