<svg width="68" height="56" viewBox="0 0 68 56" fill="none" xmlns="http://www.w3.org/2000/svg">
<g clip-path="url(#clip0_25883_43408)">
<path d="M30.2521 25.0034C36.0694 25.0034 40.7854 19.4062 40.7854 12.5017C40.7854 5.5972 36.0694 0 30.2521 0C24.4347 0 19.7188 5.5972 19.7188 12.5017C19.7188 19.4062 24.4347 25.0034 30.2521 25.0034Z" fill="#F1A131"/>
<path d="M37.0132 27.8415L32.0017 24.5082L26.9883 21.1749L31.9255 17.6901L36.8647 14.2031L36.9389 21.0212L37.0132 27.8415Z" fill="#F1A131"/>
<path d="M46.2002 48.0925C46.2002 48.0925 49.4238 48.1513 50.433 46.5445C51.444 44.9355 50.0122 43.0191 50.0845 41.9614C50.1569 40.9038 51.1851 39.6767 51.0651 38.9219C50.9451 38.1671 49.6428 37.4552 49.6351 36.2846C49.6275 35.114 50.1302 33.166 49.2943 31.6383C48.4584 30.1129 47.2722 28.9061 46.0041 28.6959C44.7341 28.4857 42.1236 28.1626 41.3029 30.2371C38.8353 36.4654 37.2549 33.8191 36.716 35.4891C35.2709 39.9682 38.8848 47.1049 46.2002 48.0925Z" fill="black"/>
<path d="M47.1518 49.0141C47.1518 49.0141 47.148 49.0141 47.1442 49.0141C40.8589 48.6367 36.5957 41.9407 36.5938 39.8028C36.5938 39.2492 36.8927 39.1701 37.0222 39.1633C38.0389 39.1 39.3128 35.9136 40.2419 33.5859C40.6132 32.6548 40.935 31.8525 41.2054 31.3147C41.9575 29.8164 43.5969 29.1362 45.9446 29.3486C47.1651 29.4593 48.4542 30.465 49.4824 32.1057C50.1945 33.2424 50.145 34.6616 50.1031 35.8006C50.0898 36.1689 50.0765 36.517 50.0936 36.8017C50.1298 37.4119 50.5753 37.8819 50.9695 38.2955C51.2836 38.6254 51.5788 38.9373 51.6568 39.2989C51.7501 39.7395 51.5255 40.2977 51.2855 40.8898C51.0704 41.4209 50.8495 41.9678 50.8419 42.4492C50.8362 42.7746 51.0114 43.222 51.196 43.6966C51.5788 44.6797 52.0567 45.9023 51.4093 47.0819C50.4592 48.8107 47.2927 49.0073 47.1575 49.0141C47.1556 49.0141 47.1537 49.0141 47.1518 49.0141ZM45.1354 29.6333C43.7321 29.6333 42.1765 30.0107 41.4396 31.4797C41.1768 32.0062 40.857 32.8017 40.4895 33.7237C39.4765 36.2571 38.216 39.4119 37.0374 39.4842C36.9822 39.4887 36.866 39.4955 36.866 39.8006C36.866 40.7271 37.9304 42.8898 39.6479 44.7678C41.1787 46.4424 43.7207 48.4785 47.1537 48.6887C47.3137 48.6774 50.3278 48.4582 51.1827 46.9034C51.7482 45.8751 51.3255 44.7881 50.9504 43.8299C50.7429 43.2989 50.5639 42.8401 50.5715 42.4401C50.5791 41.8887 50.8152 41.3102 51.0418 40.7475C51.2589 40.2096 51.4645 39.7011 51.3941 39.3757C51.337 39.109 51.0723 38.8311 50.7905 38.535C50.3583 38.0808 49.867 37.5633 49.8232 36.822C49.8061 36.517 49.8175 36.1621 49.8308 35.7847C49.8708 34.6955 49.9184 33.3418 49.2634 32.2977C48.2828 30.7316 47.0642 29.7734 45.9218 29.6695C45.6704 29.6469 45.4039 29.6333 45.1335 29.6333H45.1354Z" fill="#0B0B16"/>
<path d="M36.4771 37.6785C36.4238 37.6785 36.3724 37.64 36.3514 37.579C35.963 36.4559 35.9192 35.5835 36.222 34.9847C36.4885 34.4559 37.0236 34.1395 37.8081 34.0468C39.3237 33.866 40.1786 32.5779 40.1881 32.5666C40.2338 32.4965 40.3195 32.483 40.3785 32.5372C40.4376 32.5914 40.449 32.6931 40.4033 32.7632C40.3652 32.8197 39.4703 34.1734 37.8366 34.3677C37.1416 34.4513 36.677 34.7135 36.4562 35.1496C36.1991 35.6581 36.2486 36.4333 36.6047 37.4547C36.6332 37.5361 36.6009 37.631 36.5304 37.6649C36.5133 37.6739 36.4961 37.6762 36.479 37.6762L36.4771 37.6785Z" fill="#0B0B16"/>
<path d="M50.7266 55.9463H29.3516L35.932 43.6797C37.0059 41.6797 38.6967 40.5 40.4923 40.5H43.2056C46.7985 40.5 50.1135 42.952 51.8824 46.9181L53.3581 50.2266C54.4986 52.7825 53.042 55.9486 50.7266 55.9486V55.9463Z" fill="#F7A540"/>
<path d="M43.1403 43.7857L43.1974 43.7992C44.2123 44.0275 45.2081 43.3021 45.4975 42.1247L46.8265 36.7122L42.8051 35.8105L41.5846 40.7778C41.2533 42.1292 41.975 43.5235 43.1403 43.7857Z" fill="white"/>
<path d="M45.9968 30.3928L45.9873 30.438C45.5988 32.4448 45.9035 34.5532 46.8365 36.2911L44.7115 38.5713L42.1886 37.2674C41.8097 37.0707 41.4746 36.7702 41.2157 36.3883C40.3303 35.0866 40.4921 33.1815 41.5774 32.1171L43.0607 30.664C43.8928 29.8482 45.0676 29.7397 45.9968 30.395V30.3928Z" fill="white"/>
<path d="M47.9119 36.6442C47.5653 37.2137 46.8932 37.3425 46.4134 36.9312C45.9335 36.5199 45.825 35.7222 46.1716 35.1527C46.5181 34.5832 47.1902 34.4544 47.6701 34.8657C48.1499 35.277 48.2584 36.0747 47.9119 36.6442Z" fill="white"/>
<path d="M46.719 35.9414C46.679 35.9414 46.639 35.921 46.6124 35.8803C46.5648 35.8103 46.5743 35.7086 46.6333 35.6544C46.6562 35.6318 47.2121 35.112 47.6634 35.3786C47.73 35.4171 47.7586 35.5142 47.7243 35.5956C47.692 35.6747 47.6101 35.7086 47.5415 35.6679C47.2959 35.5233 46.9246 35.7922 46.8028 35.9075C46.778 35.9301 46.7475 35.9414 46.719 35.9414Z" fill="#0B0B16"/>
<path d="M43.2511 36.2798C43.1921 36.2798 43.1293 36.2708 43.0665 36.2482C42.4362 36.0313 42.4476 34.7092 42.4495 34.6527C42.4495 34.6007 42.4724 34.551 42.5105 34.5216C42.5466 34.4923 42.5942 34.4855 42.6361 34.5058L44.1613 35.2064C44.1994 35.2245 44.2279 35.2584 44.2413 35.3036C44.2546 35.3488 44.2489 35.3985 44.2298 35.4392C44.2108 35.4776 43.7957 36.2798 43.2531 36.2798H43.2511ZM42.7294 34.8945C42.7561 35.2742 42.8551 35.8392 43.1426 35.9386C43.4473 36.0426 43.75 35.6606 43.8985 35.4324L42.7275 34.8945H42.7294Z" fill="#0B0B16"/>
<path d="M42.8383 31.8618C42.8536 31.7691 42.7945 31.681 42.7184 31.6629C42.6156 31.6403 42.5032 31.6765 42.4213 31.7511C42.4137 31.7578 42.4099 31.7646 42.4023 31.7714C42.3737 31.7804 42.3471 31.7985 42.3242 31.8211C42.2919 31.855 42.2614 31.8957 42.2462 31.9477C42.229 32.0109 42.2233 32.0742 42.2424 32.1375C42.2633 32.2053 42.3071 32.2528 42.3585 32.2889C42.4004 32.3183 42.4499 32.3251 42.4956 32.3228C42.5851 32.3228 42.6727 32.2641 42.7279 32.185C42.7926 32.0923 42.8174 31.9725 42.8364 31.8595L42.8383 31.8618Z" fill="black"/>
<path d="M44.6068 33.1164C44.603 33.0621 44.5744 33.0169 44.5364 32.9876C44.5211 32.974 44.504 32.965 44.483 32.9627C44.4583 32.9582 44.4335 32.9627 44.4088 32.9717C44.325 32.9966 44.2469 33.0644 44.1955 33.1435C44.1746 33.1751 44.1555 33.2136 44.1422 33.252C44.1327 33.2701 44.1251 33.2881 44.1175 33.3085C44.0889 33.383 44.0775 33.4734 44.0927 33.5525C44.0946 33.5819 44.1041 33.609 44.1194 33.6339C44.1308 33.6542 44.146 33.6701 44.1632 33.6791C44.2031 33.7085 44.245 33.7107 44.2888 33.6927C44.4926 33.6158 44.6239 33.3605 44.6068 33.1119V33.1164Z" fill="black"/>
<path d="M42.721 33.5841C42.6601 33.5841 42.6049 33.5344 42.5896 33.4598C42.5725 33.3739 42.6163 33.2858 42.6906 33.2655C42.6906 33.2655 43.058 33.1276 43.3513 32.1513C43.376 32.0677 43.4541 32.0248 43.5245 32.0542C43.595 32.0835 43.6312 32.1762 43.6064 32.2598C43.2618 33.4033 42.8029 33.5638 42.7534 33.5796C42.742 33.5818 42.7324 33.5841 42.721 33.5841Z" fill="#0B0B16"/>
<path d="M42.0176 33.1295C41.7586 33.1295 41.5035 33.0391 41.2807 32.8673C40.9799 32.6323 40.7742 32.273 40.7 31.8549C40.6276 31.4368 40.6962 31.0097 40.8923 30.6526C41.0903 30.2956 41.3931 30.0515 41.7453 29.9634C42.0976 29.8775 42.4574 29.9566 42.7583 30.1916C43.0591 30.4267 43.2648 30.786 43.339 31.2041C43.4114 31.6221 43.3428 32.0493 43.1467 32.4063C42.9487 32.7634 42.6459 33.0074 42.2937 33.0956C42.2023 33.1182 42.109 33.1295 42.0176 33.1295ZM42.0214 30.2526C41.671 30.2526 41.3264 30.456 41.1208 30.8289C40.7952 31.4165 40.9342 32.2097 41.4292 32.5961C41.9262 32.9826 42.5945 32.8176 42.9182 32.23C43.2438 31.6425 43.1048 30.8493 42.6098 30.4628C42.4289 30.3204 42.2232 30.2549 42.0214 30.2549V30.2526Z" fill="#F1A131"/>
<path d="M44.8791 34.8985C44.6259 34.8985 44.3688 34.8149 44.1422 34.6364C43.5215 34.1528 43.3482 33.1584 43.7557 32.4217C44.1632 31.685 45.001 31.4793 45.6217 31.9629C46.2424 32.4466 46.4157 33.4409 46.0082 34.1776C45.7493 34.6454 45.319 34.8985 44.8791 34.8985ZM44.8829 32.0217C44.5326 32.0217 44.1879 32.2251 43.9823 32.598C43.6567 33.1878 43.7957 33.981 44.2908 34.3652C44.7858 34.7516 45.456 34.5867 45.7797 33.9991C46.1053 33.4093 45.9663 32.6161 45.4713 32.2319C45.2904 32.0895 45.0848 32.024 44.8829 32.024V32.0217Z" fill="#F1A131"/>
<path d="M43.1945 37.8149C42.9527 37.8149 42.6937 37.7878 42.4214 37.7222C42.3472 37.7042 42.3015 37.6183 42.3148 37.5324C42.33 37.4443 42.4005 37.39 42.4747 37.4058C43.6838 37.6996 44.6797 37.1324 44.6911 37.1256C44.7577 37.0872 44.8396 37.1188 44.872 37.2002C44.9043 37.2793 44.8777 37.3765 44.8091 37.4149C44.7749 37.4352 44.1103 37.8126 43.1926 37.8126L43.1945 37.8149Z" fill="#0B0B16"/>
<path d="M43.3177 50.9678L48.83 49.6797L50.1514 51.6797C50.934 52.8661 51.0197 54.5023 50.3666 55.7949H44.3097C43.0321 55.7949 41.3641 54.5271 41.6897 53.0605L43.3158 50.9678H43.3177Z" fill="white"/>
<path d="M50.3683 55.9586H44.3115C43.4166 55.9586 42.3903 55.38 41.8724 54.58C41.5525 54.0851 41.444 53.5473 41.562 53.0207C41.5677 52.9958 41.5792 52.971 41.5944 52.9529L43.2205 50.8603C43.2395 50.8354 43.2662 50.8173 43.2947 50.8105L48.807 49.5224C48.8565 49.5111 48.9079 49.5337 48.9403 49.5812L50.2617 51.5812C51.0748 52.8105 51.1642 54.5371 50.4864 55.8772C50.4616 55.9247 50.4178 55.9563 50.3702 55.9563L50.3683 55.9586ZM41.8153 53.1405C41.7124 53.6625 41.9048 54.1032 42.0875 54.3834C42.5502 55.0975 43.508 55.6354 44.3115 55.6354H50.2903C50.8672 54.4218 50.7739 52.8829 50.0466 51.7823L48.7765 49.8614L43.388 51.1201L41.8153 53.1427V53.1405Z" fill="#0B0B16"/>
<path d="M48.8302 49.8437C48.7635 49.8437 48.7064 49.7872 48.6969 49.7058C48.6855 49.6177 48.7369 49.5363 48.8111 49.5228L50.302 49.2538C50.3763 49.2403 50.4448 49.3013 50.4563 49.3894C50.4677 49.4776 50.4163 49.5589 50.342 49.5725L48.8511 49.8414C48.8511 49.8414 48.8378 49.8414 48.8302 49.8414V49.8437Z" fill="#0B0B16"/>
<path d="M42.5324 44.6385C44.4574 45.4159 46.4795 44.426 47.0527 42.4283C47.1345 42.1413 47.1821 41.8475 47.1974 41.5537C45.9597 40.8667 44.604 40.4961 43.2083 40.4961H40.495C40.3084 40.4961 40.1218 40.5119 39.9372 40.5368C39.8648 42.2611 40.9006 43.9786 42.5324 44.6362V44.6385Z" fill="white"/>
<path d="M43.4766 55.9986L48.6099 47.2619C50.0266 44.8958 52.5456 43.8472 54.8972 44.645L63.6749 47.6212C64.9545 48.0551 66.0683 48.9998 66.8281 50.2969L68.0048 55.9986V55.8337L43.4766 55.9986Z" fill="#0B0B16"/>
<path d="M60.0488 40.2336C60.0488 40.2336 61.1284 38.2087 61.4578 37.2686C61.7872 36.3285 61.355 35.4223 60.5972 34.2584C59.8394 33.0923 59.9155 33.3138 60.2735 33.2799C60.6315 33.246 59.9193 32.3556 58.6151 32.037C57.3108 31.7183 54.963 31.6889 54.9688 34.6584C54.9764 37.6279 58.6912 42.2765 60.0507 40.2336H60.0488Z" fill="#0B0B16"/>
<path d="M59.0578 37.1006C59.9717 36.016 59.9717 34.2574 59.0579 33.1728C58.144 32.0882 56.6623 32.0882 55.7484 33.1728C54.8346 34.2574 54.8346 36.016 55.7485 37.1006C56.6623 38.1853 58.144 38.1853 59.0578 37.1006Z" fill="#0B0B16"/>
<path d="M61.031 42.1211C62.9624 41.1716 63.8796 38.5436 63.0796 36.2512C62.2796 33.9589 60.0653 32.8703 58.1339 33.8198C56.2024 34.7693 55.2853 37.3974 56.0853 39.6897C56.8853 41.9821 59.0996 43.0707 61.031 42.1211Z" fill="#0B0B16"/>
<path d="M61.2115 46.7634C61.2115 46.7634 61.1373 42.5623 61.2344 42.0945L61.2515 42.0109C61.4096 42.1962 61.6133 42.3318 61.8475 42.3883C62.4949 42.5465 63.127 42.0516 63.2584 41.2832C63.3917 40.5149 62.9747 39.7646 62.3273 39.6086C62.1236 39.5589 61.9199 39.5747 61.7333 39.6425C62.076 37.5024 61.162 35.3397 59.4846 34.4041C57.4167 33.2493 54.9548 34.3522 54.0465 36.8403L53.5496 38.203C52.7537 40.3815 53.858 42.8764 55.8211 43.3352L56.1791 43.4188V46.7657C56.1791 46.7657 56.0782 48.1329 57.5348 48.1329C60.547 48.1329 61.2115 46.881 61.2115 46.881" fill="#F1A131"/>
<path d="M61.5232 41.3533C61.5232 41.3533 61.5099 41.3533 61.5041 41.3511C61.4508 41.3375 61.4166 41.2765 61.428 41.2132C61.5365 40.585 62.0563 40.1782 62.5856 40.307C62.639 40.3206 62.6732 40.3816 62.6618 40.4449C62.6504 40.5081 62.599 40.5488 62.5457 40.5353C62.1211 40.4313 61.706 40.7567 61.6184 41.2607C61.6089 41.3149 61.5689 41.3533 61.5232 41.3533Z" fill="#0B0B16"/>
<path d="M55.5654 38.1649C55.5444 38.1649 55.5235 38.1581 55.5064 38.14C55.4645 38.1016 55.4549 38.0293 55.4873 37.9773L56.07 37.0756C56.247 36.7999 56.327 36.4428 56.287 36.0926C56.2528 35.7965 56.1385 35.5479 55.9633 35.3897C55.9595 35.3875 55.9576 35.383 55.9538 35.3807C55.9424 35.3671 55.632 35.0349 55.017 35.4485C54.9694 35.4801 54.9104 35.4598 54.8837 35.4056C54.8571 35.3491 54.8742 35.279 54.9199 35.2474C55.6301 34.7683 56.03 35.1524 56.0833 35.2089C56.2985 35.4033 56.4393 35.7061 56.4793 36.0609C56.5269 36.4722 56.4336 36.8926 56.2242 37.218L55.6415 38.1197C55.6225 38.1491 55.5939 38.1649 55.5635 38.1649H55.5654Z" fill="#0B0B16"/>
<path d="M58.1831 37.3327C58.0345 37.5587 57.8213 37.6219 57.7051 37.4751C57.589 37.3282 57.6156 37.0276 57.7642 36.8016C57.9127 36.5756 58.1259 36.5123 58.2421 36.6592C58.3582 36.8061 58.3316 37.1067 58.1831 37.3327Z" fill="#0B0B16"/>
<path d="M55.6421 36.6921C55.4936 36.918 55.2785 36.9813 55.1623 36.8344C55.0462 36.6875 55.0728 36.3847 55.2194 36.161C55.368 35.935 55.5831 35.8717 55.6993 36.0186C55.8154 36.1655 55.7888 36.4683 55.6421 36.6921Z" fill="#0B0B16"/>
<path d="M55.1875 39.0078L57.4381 39.0214C57.4381 39.0214 56.2271 42.1129 55.1875 39.0078Z" fill="white"/>
<path d="M61.7603 39.4482C62.0135 37.4143 61.1472 35.3985 59.582 34.4629C59.483 36.3589 60.3322 38.2053 61.7603 39.4482Z" fill="#0B0B16"/>
<path d="M59.5108 37.2998C59.4689 37.2998 59.4308 37.2682 59.4174 37.2185C59.0366 35.8015 57.5953 35.6569 57.5819 35.6569C57.5286 35.6524 57.4886 35.5959 57.4924 35.5326C57.4962 35.4693 57.5419 35.4196 57.5972 35.4264C57.6124 35.4264 59.1833 35.5823 59.604 37.1484C59.6212 37.2095 59.5926 37.275 59.5412 37.2931C59.5317 37.2976 59.5222 37.2976 59.5108 37.2976V37.2998Z" fill="#0B0B16"/>
<path d="M56.5015 43.5499C56.3929 43.5499 56.2825 43.5431 56.1702 43.5296C56.1168 43.5228 56.0769 43.4663 56.0826 43.403C56.0883 43.3397 56.1359 43.2923 56.1892 43.2991C57.7144 43.4776 58.7863 42.2572 58.7978 42.2459C58.8359 42.2007 58.8987 42.203 58.9368 42.2459C58.9749 42.2911 58.9729 42.3657 58.9368 42.4109C58.8949 42.4606 57.939 43.5499 56.5053 43.5499H56.5015Z" fill="#0B0B16"/>
<path d="M28.227 40.0838L31.6353 49.9301C32.2808 51.7923 31.641 53.9324 30.1539 54.8996C28.9848 55.6589 27.5473 55.5188 26.5 54.5426L22.6576 50.9651L22.829 56.0002H10.0603L4.28906 44.1764L5.8961 41.5324C7.40793 39.0465 9.70423 37.3945 12.2614 36.9561L15.9743 36.3188L19.7273 36.1923C21.2619 36.1403 23.7715 36.4205 24.9711 41.8103L24.7997 37.6409L28.227 40.0815V40.0838Z" fill="#0B0B16"/>
<path d="M28.7442 41.7916L28.8832 39.6108L35.0886 35.2402C35.2752 35.1092 35.3323 34.8199 35.2143 34.6052C35.0239 34.2549 34.6468 34.1216 34.327 34.2866L30.8463 36.0854L27.796 35.2334L28.849 32.8583C29.0546 32.395 28.8547 31.8255 28.4339 31.6696C28.1597 31.5702 27.8626 31.6764 27.6818 31.9385L25.6311 34.9125C24.9152 35.9498 24.5686 37.2809 24.6695 38.6165L24.8904 41.5815L28.7442 41.7871V41.7916Z" fill="white"/>
<path d="M28.7452 41.9438C28.8119 41.9438 28.869 41.8827 28.8728 41.8014L29.0061 39.6997L35.1543 35.3697C35.2743 35.2839 35.358 35.1483 35.3904 34.9878C35.4228 34.8251 35.398 34.6601 35.3219 34.52C35.0953 34.1065 34.6554 33.9483 34.2746 34.1449L30.834 35.9234L27.9874 35.1279L28.9642 32.9268C29.0803 32.6647 29.0917 32.3596 28.9965 32.0861C28.9013 31.8127 28.7109 31.607 28.4729 31.5212C28.1473 31.4014 27.7989 31.5279 27.5818 31.8398L25.5311 34.8138C24.7886 35.8895 24.4382 37.2455 24.541 38.6285L24.7619 41.5935C24.7676 41.6771 24.8323 41.7404 24.9009 41.7313C24.9713 41.7246 25.0247 41.65 25.017 41.5664L24.7962 38.6014C24.6991 37.2974 25.0304 36.0206 25.7292 35.0059L27.7798 32.0319C27.9284 31.8172 28.1702 31.7291 28.3949 31.8127C28.5586 31.8737 28.69 32.0161 28.7566 32.2036C28.8233 32.3912 28.8138 32.6036 28.7338 32.7844L27.6808 35.1596C27.6618 35.2003 27.6618 35.2522 27.677 35.2952C27.6942 35.3381 27.7265 35.3697 27.7646 35.381L30.8149 36.233C30.8416 36.2398 30.8701 36.2375 30.8968 36.224L34.3774 34.4251C34.6421 34.2873 34.9487 34.398 35.1067 34.685C35.1448 34.7551 35.1562 34.8364 35.141 34.9155C35.1257 34.9946 35.0838 35.0624 35.0248 35.1053L28.8195 39.476C28.7833 39.5008 28.7604 39.546 28.7566 39.5957L28.6176 41.7765C28.6119 41.8601 28.6652 41.9347 28.7357 41.9415C28.7395 41.9415 28.7414 41.9415 28.7452 41.9415V41.9438Z" fill="#0B0B16"/>
<path d="M32.4574 36.1197L33.7331 33.2293C33.8512 32.9626 33.6646 32.6485 33.4132 32.6915C33.0934 32.7457 32.8058 32.9581 32.6231 33.2745L31.0312 35.8756L32.4574 36.1197Z" fill="white"/>
<path d="M32.4577 36.272C32.5034 36.272 32.5491 36.2427 32.572 36.1907L33.8477 33.3003C33.9257 33.1263 33.9124 32.9161 33.8172 32.7557C33.722 32.5952 33.5583 32.5116 33.3945 32.541C33.0385 32.602 32.7186 32.8393 32.5167 33.1896L30.9268 35.7862C30.885 35.854 30.8983 35.9511 30.9554 35.9986C31.0125 36.0483 31.0944 36.0325 31.1344 35.9647L32.7262 33.3636C32.8899 33.0788 33.147 32.889 33.4307 32.8415C33.4992 32.828 33.5659 32.8641 33.6059 32.9319C33.6459 32.9997 33.6516 33.0833 33.6192 33.1579L32.3435 36.0483C32.3111 36.1229 32.3339 36.2155 32.3987 36.254C32.4177 36.2653 32.4387 36.272 32.4577 36.272Z" fill="#0B0B16"/>
<path d="M27.7441 37.9235L29.7814 36.5291L30.8344 33.7111C30.9791 33.3269 31.2819 33.0602 31.6341 33.0105C31.8626 32.9789 32.0435 33.232 31.9806 33.4941L31.1124 37.1348L27.7422 37.9235H27.7441Z" fill="white"/>
<path d="M27.7429 38.0774C27.7639 38.0774 27.7867 38.0706 27.8076 38.0571L29.845 36.6627C29.8679 36.6469 29.8869 36.6221 29.8983 36.5927L30.9513 33.7746C31.075 33.4401 31.3435 33.2074 31.6482 33.1644C31.7129 33.1554 31.7757 33.1848 31.8176 33.2435C31.8595 33.3023 31.8747 33.3791 31.8557 33.4537L30.9874 37.0944C30.9684 37.1757 31.0084 37.2593 31.0769 37.2842C31.1455 37.3068 31.2159 37.2593 31.2369 37.178L32.1051 33.5373C32.147 33.3656 32.1127 33.1802 32.0137 33.0447C31.9166 32.9091 31.7681 32.839 31.6177 32.8616C31.2216 32.9181 30.877 33.2209 30.7152 33.6526L29.6793 36.4254L27.6782 37.7949C27.6172 37.8379 27.5944 37.9305 27.6306 38.0028C27.6534 38.0526 27.6972 38.0797 27.7429 38.0797V38.0774Z" fill="#0B0B16"/>
<path d="M18.727 29.4476C19.7914 27.3893 19.2484 24.6966 17.5142 23.4332C15.7799 22.1699 13.5112 22.8144 12.4468 24.8727C11.3824 26.931 11.9254 29.6237 13.6596 30.887C15.3939 32.1503 17.6626 31.5059 18.727 29.4476Z" fill="#0B0B16"/>
<path d="M20.1037 26.2687C20.4053 24.8684 19.6934 23.4431 18.5136 23.0851C17.3338 22.7272 16.1329 23.5721 15.8313 24.9724C15.5297 26.3727 16.2416 27.798 17.4214 28.156C18.6012 28.5139 19.8021 27.669 20.1037 26.2687Z" fill="#0B0B16"/>
<path d="M14.8193 31.3773C15.838 29.6764 15.5022 27.3174 14.0692 26.1083C12.6362 24.8991 10.6486 25.2977 9.62981 26.9985C8.61104 28.6993 8.94685 31.0583 10.3799 32.2675C11.8129 33.4767 13.8005 33.0781 14.8193 31.3773Z" fill="#0B0B16"/>
<path d="M12.809 32.6141C12.809 32.6141 12.8242 32.6141 12.8299 32.6141C13.1155 32.5577 13.3821 32.4108 13.603 32.1893C13.7058 32.0853 13.7991 31.9656 13.8771 31.8345C13.919 31.7667 13.9038 31.6695 13.8467 31.6221C13.7876 31.5723 13.7077 31.5904 13.6677 31.6582C13.601 31.769 13.5249 31.8684 13.4373 31.9565C13.2526 32.1418 13.0279 32.2661 12.788 32.3136C12.7176 32.3271 12.67 32.4062 12.6814 32.4899C12.6928 32.5644 12.7461 32.6164 12.809 32.6164V32.6141Z" fill="#0B0B16"/>
<path d="M18.8486 34.2862C20.6404 33.4703 21.3791 30.598 20.4975 27.8726C19.616 25.1472 17.4491 23.5991 15.6555 24.415C14.1589 25.0975 13.3973 27.2104 13.7 29.4771C13.3725 28.989 12.8375 28.7223 12.2834 28.8376C11.5122 28.998 10.9658 29.8749 11.0667 30.7969C11.1752 31.7958 11.9597 32.4782 12.788 32.311C12.9651 32.2749 13.1288 32.2025 13.2773 32.1031L13.3363 36.876C12.8641 36.9958 12.3995 37.1291 11.9502 37.2782C12.5823 39.4568 14.6235 40.815 16.7922 40.3811C18.7211 39.9946 20.1605 38.3088 20.4518 36.3223C19.7016 36.2319 18.9038 36.1958 18.0718 36.2138L18.0527 34.4986C18.3212 34.476 18.5878 34.4082 18.8467 34.2907L18.8486 34.2862Z" fill="white"/>
<path d="M11.8278 37.3254C11.8164 37.2848 11.8183 37.2418 11.8354 37.2034C11.8525 37.165 11.8811 37.1379 11.9154 37.1266C12.3209 36.9932 12.7551 36.8667 13.2044 36.7492L13.1492 32.3424C13.0388 32.3966 12.9245 32.435 12.8084 32.4599C12.3704 32.548 11.9344 32.4237 11.5783 32.1096C11.2223 31.7978 10.9957 31.3367 10.9386 30.8124C10.83 29.8113 11.4241 28.8554 12.2619 28.6814C12.7151 28.5887 13.174 28.7288 13.5281 29.0565C13.3625 26.8486 14.1869 24.9164 15.6112 24.2678C17.4676 23.4226 19.7144 25.0136 20.6189 27.8136C21.0549 29.1627 21.1196 30.5932 20.7997 31.8362C20.4761 33.0927 19.8001 34.0124 18.8957 34.426C18.6691 34.53 18.4311 34.5977 18.1855 34.6294L18.2007 36.0509C18.9871 36.0396 19.7487 36.0757 20.4684 36.1639C20.5046 36.1684 20.537 36.1887 20.5579 36.2226C20.5789 36.2565 20.5884 36.2994 20.5827 36.3401C20.2723 38.4531 18.7586 40.1345 16.8164 40.5232C16.5442 40.5774 16.2719 40.6045 16.0034 40.6045C14.1184 40.6045 12.4047 39.3028 11.8297 37.3209L11.8278 37.3254ZM18.075 36.3627C18.0427 36.3627 18.0084 36.3469 17.9836 36.3198C17.9589 36.2904 17.9455 36.252 17.9436 36.2113L17.9246 34.4961C17.9246 34.4147 17.976 34.3469 18.0446 34.3424C18.3073 34.3198 18.5625 34.2542 18.8024 34.1435C19.6306 33.7661 20.2533 32.9164 20.5522 31.7503C20.855 30.5706 20.794 29.2124 20.377 27.9266C19.5221 25.2825 17.4257 23.7729 15.7026 24.5571C14.2993 25.1966 13.53 27.2079 13.829 29.452C13.8385 29.5198 13.808 29.5876 13.7528 29.6147C13.6995 29.6418 13.6366 29.6237 13.6005 29.5695C13.2901 29.1085 12.795 28.8848 12.3057 28.9842C11.6012 29.1311 11.1023 29.9333 11.1937 30.774C11.2413 31.2147 11.4317 31.6011 11.7307 31.8633C12.0296 32.1254 12.3971 32.2316 12.7646 32.1571C12.9207 32.1254 13.0711 32.0622 13.2101 31.965C13.2501 31.9379 13.2977 31.9379 13.3377 31.965C13.3777 31.9921 13.4024 32.0418 13.4024 32.0961L13.4615 36.8689C13.4615 36.9413 13.4196 37.0045 13.3606 37.0203C12.9283 37.1311 12.5113 37.2509 12.1172 37.3752C12.7836 39.4068 14.7562 40.6271 16.7688 40.2226C18.5529 39.8655 19.9524 38.3582 20.2971 36.4509C19.5907 36.374 18.8424 36.3424 18.0712 36.3582L18.075 36.3627Z" fill="#0B0B16"/>
<path d="M13.2351 31.1352C13.2351 31.1352 13.2408 31.1352 13.2446 31.1352C13.3151 31.1284 13.3684 31.0561 13.3627 30.9702C13.3284 30.4482 13.178 30.0527 12.9133 29.7951C12.5344 29.4222 12.0622 29.4832 12.0432 29.4855C11.9727 29.4945 11.9213 29.5714 11.9308 29.655C11.9384 29.7386 12.0032 29.7974 12.0736 29.7906C12.0736 29.7906 12.4602 29.7454 12.7534 30.0346C12.959 30.238 13.079 30.5612 13.1075 30.9974C13.1133 31.0765 13.1685 31.1375 13.2351 31.1375V31.1352Z" fill="#0B0B16"/>
<path d="M13.5756 29.4178C13.6099 29.4224 13.6461 29.4291 13.6803 29.4314C15.6415 29.6235 17.4047 27.3726 17.6179 24.4077C17.6198 24.3738 17.6218 24.3399 17.6237 24.3082C16.9496 24.0506 16.2489 24.0416 15.5958 24.3376C14.0783 25.0269 13.2957 27.1399 13.5756 29.4178Z" fill="#0B0B16"/>
<path d="M17.8416 34.8304C17.8835 34.8304 17.9234 34.8304 17.9653 34.8282C18.0358 34.8236 18.091 34.7536 18.0891 34.67C18.0853 34.5864 18.0244 34.5163 17.9558 34.5231C16.9486 34.5705 15.9108 33.9717 15.0997 32.8801C15.0521 32.8169 14.9702 32.8101 14.9188 32.8666C14.8655 32.9231 14.8598 33.018 14.9074 33.0813C15.7376 34.1999 16.802 34.8304 17.8435 34.8304H17.8416Z" fill="#0B0B16"/>
<path d="M19.4898 27.2658C19.446 27.4036 19.6726 27.6319 19.9944 27.772C20.3162 27.9144 20.6113 27.9166 20.6551 27.7788C20.6989 27.6409 20.4723 27.4127 20.1505 27.2726C19.8287 27.1302 19.5336 27.1279 19.4898 27.2658Z" fill="#0B0B16"/>
<path d="M16.5778 28.4447C16.635 28.6142 17.0024 28.6006 17.3966 28.4131C17.7926 28.2255 18.0668 27.9385 18.0097 27.769C17.9526 27.5995 17.5851 27.6131 17.1909 27.8006C16.7949 27.9882 16.5207 28.2752 16.5778 28.4447Z" fill="#0B0B16"/>
<path d="M19.2379 29.9509C19.276 29.9509 19.314 29.9306 19.3388 29.8922C19.4759 29.6843 19.5121 29.4018 19.4321 29.1555L19.0665 28.0413C19.0399 27.9622 18.9656 27.9238 18.899 27.9532C18.8323 27.9848 18.7999 28.073 18.8247 28.1521L19.1903 29.2662C19.2379 29.4131 19.2188 29.5781 19.1351 29.7024C19.0913 29.7679 19.1008 29.8651 19.156 29.917C19.1789 29.9396 19.2074 29.9509 19.236 29.9509H19.2379Z" fill="#0B0B16"/>
<path d="M17.426 29.4308C17.4755 29.4308 17.5231 29.3969 17.544 29.3404C17.7249 28.8568 17.9763 28.9675 17.9877 28.972C18.0543 29.0014 18.1286 28.963 18.1552 28.8839C18.18 28.8048 18.1476 28.7167 18.081 28.685C17.9115 28.6059 17.5326 28.6172 17.3079 29.2161C17.2794 29.2929 17.3079 29.3833 17.3727 29.4172C17.3898 29.4263 17.4069 29.4308 17.4241 29.4308H17.426Z" fill="#0B0B16"/>
<path d="M20.3437 28.6245C20.3684 28.6245 20.3932 28.6155 20.4141 28.5997C20.4731 28.5545 20.4903 28.4618 20.4522 28.3918C20.3532 28.211 20.0428 27.9533 19.5649 28.2788C19.504 28.3217 19.4811 28.4144 19.5173 28.4867C19.5535 28.559 19.6315 28.5839 19.6925 28.5432C20.0657 28.2901 20.2199 28.5296 20.2351 28.559C20.2599 28.6019 20.3018 28.6268 20.3417 28.6268L20.3437 28.6245Z" fill="#0B0B16"/>
<path d="M18.8147 30.9477C18.9613 30.9477 19.1346 30.8822 19.325 30.6923C19.3802 30.6381 19.3878 30.5409 19.3421 30.4776C19.2964 30.4121 19.2146 30.4031 19.1612 30.4573C18.8318 30.785 18.6452 30.5793 18.6243 30.5545C18.5748 30.4957 18.4929 30.4912 18.4434 30.5499C18.392 30.6064 18.3882 30.7014 18.4358 30.7624C18.5024 30.8505 18.6376 30.9454 18.8147 30.9454V30.9477Z" fill="#0B0B16"/>
<path d="M25.2285 50.8014C25.2285 50.8014 25.2323 50.8014 25.2342 50.8014C25.2989 50.7969 25.3484 50.7336 25.3465 50.6568L25.0038 41.8093C25 41.7325 24.9467 41.6715 24.8819 41.676C24.8172 41.6805 24.7677 41.7438 24.7696 41.8206L25.1123 50.6681C25.1161 50.7427 25.1675 50.8014 25.2285 50.8014Z" fill="white"/>
<path d="M6.99666 50.2546H10.5097C10.5801 50.2546 10.6391 50.1868 10.6391 50.1009C10.6391 50.0173 10.582 49.9473 10.5097 49.9473H6.99666C6.92621 49.9473 6.86719 50.0151 6.86719 50.1009C6.86719 50.1846 6.92431 50.2546 6.99666 50.2546Z" fill="#0B0B16"/>
<path d="M8.82558 50.3222C8.87509 50.3222 8.92079 50.2906 8.94173 50.2341L10.484 46.3019C10.5145 46.225 10.4859 46.1346 10.4212 46.0985C10.3565 46.0623 10.2803 46.0962 10.2498 46.1731L8.70753 50.1053C8.67707 50.1821 8.70563 50.2725 8.77036 50.3087C8.7875 50.3177 8.80654 50.3222 8.82368 50.3222H8.82558Z" fill="#0B0B16"/>
<path d="M12.2779 43.2831L3.71528 38.7678C3.48869 38.648 3.26401 38.9418 3.38587 39.1972L5.86307 44.3882L11.3506 48.2955L12.276 43.2808L12.2779 43.2831Z" fill="white"/>
<path d="M11.2887 48.4274L5.80118 44.52C5.78214 44.5065 5.76691 44.4861 5.75548 44.4635L3.27829 39.2726C3.19451 39.0963 3.21355 38.8884 3.32779 38.7392C3.44204 38.5901 3.61531 38.5471 3.77144 38.6285L12.334 43.1437C12.3893 43.1731 12.4197 43.2454 12.4083 43.3155L11.4829 48.3302C11.4734 48.3776 11.4467 48.4183 11.4087 48.4387C11.3915 48.4477 11.3744 48.4522 11.3573 48.4522C11.3344 48.4522 11.3116 48.4454 11.2906 48.4296L11.2887 48.4274ZM3.66672 38.9065C3.58865 38.8658 3.53343 38.9245 3.5182 38.9426C3.50297 38.9607 3.45917 39.0307 3.50106 39.1211L5.96112 44.2782L11.2659 48.0567L12.1303 43.372L3.66481 38.9087L3.66672 38.9065Z" fill="black"/>
<path d="M3.84751 39.4648L2.62891 41.1236L10.3728 45.8016L10.5651 45.4716L12.5872 45.6456L11.9969 43.6366L3.84751 39.4648Z" fill="white"/>
<path d="M10.3128 45.9382L2.57088 41.2602C2.5347 41.2376 2.50995 41.1992 2.50233 41.154C2.49472 41.1088 2.50614 41.0591 2.53089 41.0252L3.7495 39.3687C3.78567 39.319 3.8466 39.3031 3.89801 39.328L12.0474 43.4975C12.0798 43.5133 12.1065 43.5472 12.1179 43.5879L12.7081 45.5992C12.7215 45.6489 12.7158 45.7009 12.6891 45.7416C12.6624 45.7822 12.6206 45.8048 12.5768 45.8003L10.627 45.6331L10.4766 45.8907C10.4518 45.9337 10.4118 45.9563 10.3699 45.9563C10.3509 45.9563 10.33 45.9517 10.3109 45.9404L10.3128 45.9382ZM10.5737 45.319L12.4016 45.4772L11.8951 43.7506L3.88469 39.6512L2.83745 41.0772L10.3319 45.606L10.4613 45.3868C10.4861 45.3461 10.5261 45.3212 10.568 45.3212C10.5718 45.3212 10.5737 45.3212 10.5775 45.3212L10.5737 45.319Z" fill="black"/>
<path d="M10.7911 45.2943C10.8254 45.2943 10.8597 45.2785 10.8844 45.2469L12.0878 43.7418C12.1373 43.6808 12.1354 43.5836 12.0821 43.5249C12.0307 43.4661 11.9488 43.4684 11.8993 43.5316L10.6959 45.0367C10.6464 45.0977 10.6483 45.1949 10.7016 45.2537C10.7264 45.2808 10.7587 45.2966 10.7911 45.2966V45.2943Z" fill="black"/>
<path d="M2.26225 41.2044L6.30269 49.3242C6.37504 49.4711 6.48738 49.5863 6.61876 49.6541L13.0774 52.2575C13.8504 51.8711 14.4045 51.0417 14.5473 50.0609L14.5549 50.0112L12.2777 43.2835L12.232 43.5796C12.0911 44.47 11.4456 45.1231 10.6839 45.1479L2.59166 40.775C2.36317 40.6507 2.13468 40.9513 2.26416 41.2089L2.26225 41.2044Z" fill="white"/>
<path d="M13.0367 52.4034L6.57046 49.7978C6.41433 49.7187 6.27914 49.5785 6.19346 49.4045L2.15302 41.2848C2.06544 41.1085 2.08257 40.8983 2.19872 40.7446C2.31296 40.5932 2.49004 40.5503 2.64618 40.6339L10.7099 44.991C11.3954 44.9526 11.9799 44.3514 12.1075 43.5492L12.1532 43.2531C12.1646 43.1853 12.2103 43.1356 12.2674 43.1288C12.3246 43.122 12.3779 43.1605 12.3988 43.2237L14.6761 49.9514C14.6856 49.9785 14.6875 50.0057 14.6837 50.035L14.6761 50.0848C14.5257 51.122 13.9468 51.9876 13.1281 52.3966C13.1128 52.4057 13.0957 52.4079 13.0786 52.4079C13.0652 52.4079 13.05 52.4057 13.0367 52.3989V52.4034ZM12.3169 43.8091C12.1056 44.661 11.4449 45.2757 10.6852 45.2983C10.6661 45.2983 10.6471 45.2938 10.628 45.2848L2.53574 40.9119C2.45577 40.8689 2.40246 40.93 2.38722 40.948C2.37199 40.9684 2.3282 41.0384 2.37199 41.1266L6.41242 49.2463C6.47145 49.3639 6.56285 49.4588 6.65995 49.5085L13.071 52.0915C13.7831 51.7141 14.2877 50.948 14.419 50.0328V50.0237L12.315 43.8045L12.3169 43.8091Z" fill="black"/>
<path d="M10.9497 46.3592L2.38715 41.844C2.16057 41.7242 1.93589 42.018 2.05775 42.2734L4.53494 47.4643L10.0225 51.3717L10.9478 46.357L10.9497 46.3592Z" fill="#F1A131"/>
<path d="M2.51548 42.5449L1.29688 44.2014L9.04072 48.8816L9.23303 48.5517L11.2552 48.7257L10.6649 46.7144L2.51548 42.5449Z" fill="white"/>
<path d="M0.934128 44.2865L4.97456 52.4062C5.04692 52.5531 5.15926 52.6684 5.29064 52.7362L11.7492 55.3396C12.5223 54.9531 13.0764 54.1237 13.2192 53.1429L13.2268 53.0932L10.9495 46.3655L10.9038 46.6616C10.7629 47.552 10.1174 48.2051 9.35582 48.23L1.26353 43.8571C1.03504 43.7328 0.806556 44.0333 0.936032 44.291L0.934128 44.2865Z" fill="#F1A131"/>
<path d="M9.46299 48.3744C9.49726 48.3744 9.53153 48.3586 9.55629 48.327L10.7597 46.8219C10.8092 46.7609 10.8073 46.6637 10.7539 46.6049C10.7025 46.5462 10.6207 46.5484 10.5712 46.6117L9.36779 48.1168C9.31828 48.1778 9.32018 48.275 9.3735 48.3337C9.39825 48.3609 9.43062 48.3767 9.46299 48.3767V48.3744Z" fill="black"/>
<path d="M1.11953 45.3969L1.30613 45.25L3.3492 49.2229L3.49581 49.0647C3.88995 48.6376 4.39834 48.389 4.93148 48.3573L6.86411 48.2444C7.05452 48.2331 7.09069 48.6421 7.01263 48.8477C6.83936 49.2997 5.43035 49.3946 5.43035 49.3946L9.26514 50.7619C9.45364 50.8297 9.73544 50.9585 9.83826 51.2116C9.90871 51.3856 9.86492 51.5822 9.70117 51.5732L7.66572 51.4602C7.66572 51.4602 9.85921 52.2398 10.3105 52.4523C10.617 52.5969 10.6989 52.8138 10.7484 52.9201C10.8227 53.076 10.7084 53.2658 10.5599 53.2319L7.34965 52.5178L9.63834 53.6658C9.80018 53.7472 9.93156 53.8963 10.0058 54.0839L10.0534 54.2014C10.1182 54.3664 9.99249 54.5449 9.84398 54.4975L6.87744 53.5438L8.60443 54.4816C8.7339 54.5585 8.94716 54.728 8.95478 54.9381C8.95478 54.9381 8.94335 55.2816 8.89194 55.2794C8.56444 55.2545 6.37095 54.2511 6.37095 54.2511L4.53353 53.641C4.10702 53.5393 3.71668 53.2884 3.41013 52.9223L1.07574 50.5969C-0.209505 49.3178 -0.186657 46.4161 1.11382 45.3946L1.11953 45.3969Z" fill="white"/>
<path d="M8.88623 55.4336C8.54921 55.4088 6.55375 54.498 6.33859 54.4009L4.51068 53.793C4.05751 53.6845 3.64623 53.4223 3.33016 53.0427L0.99577 50.7172C0.327442 50.0506 -0.0514677 48.8958 0.00565433 47.7026C0.0570642 46.6359 0.435974 45.75 1.04718 45.2687L1.23378 45.1218C1.26234 45.0992 1.29852 45.0901 1.33279 45.0992C1.36706 45.1082 1.39562 45.1331 1.41466 45.1692L3.37586 48.9839L3.40822 48.95C3.82331 48.5003 4.36216 48.2359 4.92386 48.202L6.85649 48.089C6.9555 48.0822 7.03928 48.1365 7.09831 48.2382C7.20494 48.4235 7.19732 48.7308 7.12877 48.9071C7.01072 49.2167 6.50805 49.3771 6.07392 49.4607L9.30132 50.611C9.64595 50.7331 9.85921 50.9071 9.95251 51.1421C10.0134 51.2958 10.0115 51.463 9.9468 51.5783C9.89348 51.6754 9.80209 51.7274 9.69355 51.7229L8.69011 51.6664C9.33559 51.9014 10.1048 52.1884 10.3562 52.3082C10.6837 52.4641 10.7903 52.6969 10.8474 52.8212L10.8588 52.8438C10.9179 52.9681 10.9122 53.1172 10.8417 53.2348C10.7713 53.3523 10.6532 53.4065 10.5352 53.3817L8.50161 52.9297L9.68784 53.524C9.87825 53.6189 10.0325 53.7952 10.122 54.0167L10.1696 54.1342C10.221 54.2653 10.2057 54.4144 10.1277 54.5252C10.0496 54.6359 9.92776 54.6811 9.81161 54.6427L8.35309 54.1726L8.66345 54.3421C8.75866 54.3986 9.07473 54.6088 9.08616 54.9432C9.07283 55.298 9.01952 55.3568 8.99286 55.3862C8.96811 55.411 8.92622 55.4314 8.89385 55.4314C8.89194 55.4314 8.89004 55.4314 8.88813 55.4314L8.88623 55.4336ZM6.91361 53.3975L9.88015 54.3511C9.90681 54.3602 9.92395 54.3421 9.93156 54.3308C9.93918 54.3195 9.9506 54.2969 9.93918 54.2675L9.89158 54.15C9.83065 53.9963 9.72212 53.8743 9.59074 53.8065L7.30204 52.6585C7.24111 52.6291 7.21065 52.5478 7.22969 52.4732C7.24873 52.3986 7.31347 52.3534 7.3763 52.367L10.5866 53.0811C10.6132 53.0879 10.6285 53.0698 10.6361 53.0562C10.6437 53.0449 10.6532 53.0223 10.638 52.993L10.6265 52.9658C10.5789 52.8619 10.5066 52.7059 10.2648 52.5907C9.82494 52.3828 7.65239 51.6099 7.63145 51.6009C7.56861 51.5783 7.53053 51.5059 7.54196 51.4291C7.55338 51.3523 7.6086 51.2958 7.67524 51.3026L9.71069 51.4156C9.72021 51.4156 9.73354 51.4156 9.73735 51.4088C9.74687 51.3907 9.75068 51.3365 9.72592 51.2732C9.66499 51.124 9.49934 50.9997 9.23277 50.9048L5.39798 49.5376C5.33705 49.5172 5.29896 49.4472 5.30658 49.3726C5.3142 49.298 5.36561 49.2415 5.42654 49.237C6.0663 49.1941 6.8108 49.0065 6.89838 48.7783C6.93837 48.6743 6.93456 48.4822 6.89077 48.4076C6.88125 48.3918 6.87744 48.3918 6.87553 48.3918L4.9429 48.5048C4.44023 48.5342 3.9604 48.7715 3.58721 49.1737L3.44059 49.3319C3.41203 49.3636 3.37395 49.3771 3.33587 49.3704C3.29779 49.3636 3.26352 49.3365 3.24448 49.298L1.27186 45.4608L1.1957 45.5195C0.653038 45.9466 0.316017 46.7466 0.268416 47.7161C0.215102 48.8144 0.559738 49.8743 1.16714 50.48L3.50914 52.8144C3.79856 53.1602 4.16224 53.3952 4.57542 53.4924L6.42427 54.1071C7.22017 54.4709 8.43687 55.002 8.81959 55.1082C8.8253 55.0585 8.83101 54.9975 8.83292 54.9455C8.82911 54.8302 8.6844 54.6969 8.55683 54.6201L6.82984 53.6822C6.76891 53.6483 6.74034 53.567 6.76319 53.4901C6.78223 53.4291 6.83174 53.3884 6.88505 53.3884C6.89648 53.3884 6.9079 53.3884 6.91933 53.393L6.91361 53.3975Z" fill="#0B0B16"/>
<path d="M22.6577 43.1348L22.1436 45.2704L23.1299 47.0263C23.7887 48.1992 23.8458 49.7065 23.2803 50.9449C22.831 51.9257 22.0427 52.624 21.1211 52.85L20.5156 52.9992L22.6577 43.1348Z" fill="#0B0B16"/>
<path d="M20.5133 53.1406C20.5133 53.1406 20.5285 53.1406 20.538 53.1384L21.1435 52.9892C22.0993 52.7519 22.9162 52.0333 23.3827 51.0141C23.971 49.7282 23.912 48.1712 23.2266 46.9531L22.2707 45.2514L22.7696 43.1768C22.7867 43.1022 22.7505 43.0254 22.6896 43.0051C22.6268 42.9847 22.562 43.0277 22.5449 43.1L22.0308 45.2356C22.0213 45.274 22.027 45.3169 22.046 45.3508L23.0323 47.1068C23.6683 48.239 23.7235 49.6853 23.177 50.8808C22.7448 51.8277 21.9851 52.4966 21.0978 52.7158L20.4923 52.8649C20.4295 52.8808 20.3876 52.9553 20.4009 53.0299C20.4123 53.0954 20.4618 53.1406 20.5152 53.1406H20.5133Z" fill="white"/>
<path d="M33.6296 14.889C33.483 14.889 33.3287 14.8823 33.1669 14.8642C32.5519 14.8009 32.112 14.4551 31.8969 13.8902C31.8055 13.9693 31.7103 14.0461 31.6093 14.1229C30.6668 14.8461 30.0118 14.6178 29.6291 14.2992C29.3606 14.0755 29.1512 13.7455 29.0008 13.3839C28.7932 13.5851 28.5819 13.7636 28.3705 13.906C27.5727 14.4484 26.8815 14.4687 26.3674 13.9602C26.1485 13.7433 25.9942 13.4698 25.9105 13.1602C25.3716 13.2325 24.928 13.1964 24.8899 13.1941C24.7718 13.1851 24.6843 13.063 24.6919 12.9229C24.6995 12.7828 24.8042 12.6789 24.9204 12.6879C24.928 12.6879 25.3412 12.7195 25.8362 12.6585C25.821 12.2834 25.8895 11.8743 26.0438 11.4517C26.316 10.7082 26.8606 9.99412 27.3671 10.071C27.5461 10.0981 27.8602 10.2517 27.9573 10.9749C28.0297 11.5128 27.9269 11.9715 27.647 12.3331C27.3309 12.7421 26.8301 12.9636 26.3427 13.0789C26.3998 13.2551 26.495 13.4224 26.6416 13.567C27.011 13.9308 27.5213 13.8969 28.1573 13.4608C28.3934 13.3003 28.6219 13.1015 28.8351 12.8845C28.7171 12.4303 28.6866 11.9851 28.7418 11.6913C28.877 10.9817 29.7491 9.67773 30.3051 9.67773C30.3089 9.67773 30.3127 9.67773 30.3165 9.67773C30.425 9.68225 30.6859 9.74101 30.7525 10.2133C30.842 10.8438 30.1737 12.0823 29.3359 13.0269C29.4539 13.3591 29.6291 13.6755 29.8728 13.8766C30.2746 14.2088 30.7792 14.1455 31.3751 13.689C31.516 13.5806 31.6474 13.4721 31.7674 13.3613C31.7579 13.2868 31.7522 13.2099 31.7483 13.1308C31.6969 12.0303 32.2339 10.6811 32.7708 10.5546C33.0412 10.4913 33.2735 10.6337 33.3744 10.9297C33.5762 11.5195 33.2297 12.5704 32.2434 13.558C32.3767 14.0325 32.6985 14.2992 33.2011 14.3512C35.0824 14.5455 35.6574 13.4246 35.6802 13.3772C35.7393 13.2574 35.8707 13.2145 35.9716 13.2845C36.0725 13.3546 36.1087 13.506 36.0515 13.628C36.0249 13.6823 35.4346 14.8823 33.6258 14.8823L33.6296 14.889ZM32.8984 11.054C32.887 11.054 32.8717 11.054 32.8565 11.0585C32.6299 11.1128 32.1806 12.0416 32.173 12.9613C32.8965 12.1501 33.0774 11.4111 32.9803 11.1241C32.9669 11.0834 32.9498 11.0517 32.8984 11.0517V11.054ZM27.2909 10.5794C27.0681 10.5794 26.6683 11.0246 26.436 11.6597C26.377 11.8201 26.2627 12.1862 26.2665 12.5885C26.6797 12.4913 27.0872 12.315 27.3328 11.9964C27.5213 11.7523 27.588 11.445 27.5365 11.063C27.5175 10.9252 27.4585 10.602 27.3138 10.5817C27.3062 10.5817 27.2985 10.5817 27.2909 10.5817V10.5794ZM30.286 10.1862C30.0651 10.1862 29.2845 11.1602 29.1607 11.8133C29.1341 11.958 29.1417 12.2088 29.1931 12.4958C29.9033 11.6371 30.3793 10.6404 30.3317 10.306C30.3184 10.2156 30.2993 10.1907 30.2993 10.1885C30.2955 10.1885 30.2898 10.1885 30.286 10.1885V10.1862Z" fill="white"/>
<path d="M31.3472 42.8178L31.1562 43.0254L33.2706 45.765L33.4616 45.5574L31.3472 42.8178Z" fill="#F1A131"/>
<path d="M31.6011 42.5424L31.4102 42.75L33.5245 45.4896L33.7155 45.282L31.6011 42.5424Z" fill="#F1A131"/>
<path d="M31.8511 42.2749L31.6602 42.4824L33.7741 45.2225L33.9651 45.0149L31.8511 42.2749Z" fill="#F1A131"/>
<path d="M32.105 41.9936L31.9141 42.2012L34.0297 44.9424L34.2207 44.7348L32.105 41.9936Z" fill="#F1A131"/>
<path d="M32.355 41.7201L32.1641 41.9277L34.2785 44.6673L34.4694 44.4597L32.355 41.7201Z" fill="#F1A131"/>
<path d="M32.6089 41.4467L32.418 41.6543L34.5324 44.3939L34.7233 44.1863L32.6089 41.4467Z" fill="#F1A131"/>
<path d="M32.8589 41.1733L32.668 41.3809L34.7824 44.1205L34.9733 43.9129L32.8589 41.1733Z" fill="#F1A131"/>
<path d="M33.1128 40.894L32.9219 41.1016L35.0376 43.8428L35.2285 43.6352L33.1128 40.894Z" fill="#F1A131"/>
<path d="M33.3667 40.6225L33.1758 40.8301L35.2915 43.5714L35.4824 43.3638L33.3667 40.6225Z" fill="#F1A131"/>
<path d="M33.6167 40.349L33.4258 40.5566L35.5415 43.2979L35.7324 43.0903L33.6167 40.349Z" fill="#F1A131"/>
<path d="M33.8707 40.0835L33.6797 40.291L35.7937 43.0311L35.9847 42.8235L33.8707 40.0835Z" fill="#F1A131"/>
<path d="M34.1206 39.8002L33.9297 40.0078L36.0441 42.7474L36.235 42.5398L34.1206 39.8002Z" fill="#F1A131"/>
<path d="M34.3745 39.5268L34.1836 39.7344L36.298 42.474L36.4889 42.2664L34.3745 39.5268Z" fill="#F1A131"/>
<path d="M33.1145 45.9458C33.0973 45.9254 31.3742 43.8712 30.8867 43.4238L31.0448 43.1797C31.5474 43.6384 33.2287 45.643 33.2992 45.7288L33.1145 45.9458Z" fill="#F1A131"/>
<path d="M36.4523 42.3117C36.3857 42.2213 34.8034 40.106 34.4492 39.4823L34.6644 39.3105C35.009 39.9185 36.6294 42.0857 36.6446 42.1083L36.4504 42.3117H36.4523Z" fill="#F1A131"/>
<path d="M37.9699 43.9023L38.4745 44.6865C38.4745 44.6865 38.0632 46.7159 39.2133 48.3837C40.3633 50.0515 42.5835 52.3679 43.1794 53.3351C43.7754 54.3023 43.1642 54.8131 43.1642 54.8131L43.248 54.7204C43.248 54.7204 42.7662 55.3984 42.0065 54.6097C41.2468 53.821 39.4741 51.0187 38.1755 49.5136C36.8751 48.0086 35.1366 48.3159 35.1366 48.3159L34.5273 47.6447L37.9699 43.9023Z" fill="#1D1D1B"/>
<path d="M36.6107 42.1341L33.168 45.877L34.5287 47.64L37.9714 43.8971L36.6107 42.1341Z" fill="white"/>
<path d="M42.7222 55.1487C42.4594 55.1487 42.191 55.0086 41.9225 54.7284C41.5493 54.3397 40.9571 53.5058 40.2717 52.5408C39.5595 51.5374 38.7541 50.4007 38.0858 49.6256C36.8501 48.1928 35.1745 48.4662 35.1573 48.4707L35.0964 48.482L34.4414 47.7611L34.6185 47.5352L35.184 48.1589C35.5172 48.1159 37.0633 48.012 38.2686 49.4086C38.9464 50.195 39.7576 51.3363 40.4716 52.3465C41.1209 53.264 41.7359 54.1295 42.0939 54.5001C42.33 54.7442 42.5546 54.8594 42.766 54.8436C43.0078 54.8233 43.1525 54.6312 43.1525 54.6289L43.3505 54.8278C43.3429 54.8391 43.1392 55.1193 42.7888 55.151C42.7679 55.151 42.745 55.1532 42.7241 55.1532L42.7222 55.1487Z" fill="#1D1D1B"/>
<path d="M43.2386 54.9408L43.09 54.6899C43.09 54.6899 43.2671 54.534 43.3033 54.2515C43.3357 54.0052 43.2595 53.7272 43.0748 53.4289C42.7949 52.9747 42.1228 52.186 41.4126 51.3498C40.6186 50.4165 39.7179 49.3589 39.1144 48.482C38.0462 46.934 38.2728 45.1148 38.3356 44.7238L37.8672 43.9962L38.0728 43.8086L38.6155 44.6515L38.6003 44.7238C38.5964 44.7442 38.2194 46.7012 39.3143 48.2877C39.9103 49.151 40.8052 50.2041 41.5954 51.1306C42.3456 52.012 42.9929 52.7736 43.2843 53.2459C43.5128 53.6165 43.6041 53.9736 43.5584 54.3058C43.5013 54.7171 43.25 54.9318 43.2386 54.9408Z" fill="#1D1D1B"/>
<path d="M34.521 47.8628L32.9844 45.8741L36.6192 41.9238L38.1558 43.9125L34.521 47.8628ZM33.3519 45.8922L34.5362 47.4267L37.7883 43.8922L36.604 42.3555L33.3519 45.8899V45.8922Z" fill="#1D1D1B"/>
<path d="M33.6694 46.536L33.4961 46.3078C33.6122 46.1835 36.337 43.2795 37.1291 42.7598L37.2547 43.0287C36.4874 43.5304 33.6979 46.5044 33.6694 46.5338V46.536Z" fill="#1D1D1B"/>
<path d="M36.5894 42.6772L36.3984 42.8848L37.2741 44.0198L37.4651 43.8122L36.5894 42.6772Z" fill="#1D1D1B"/>
<path d="M42.5621 54.0795C42.524 54.0795 42.4859 54.0614 42.4573 54.0253L42.3355 53.8694C42.2822 53.8016 42.2841 53.6931 42.3412 53.6298C42.3983 53.5665 42.4897 53.5688 42.543 53.6366L42.6649 53.7925C42.7182 53.8603 42.7163 53.9688 42.6592 54.0321C42.6325 54.0637 42.5963 54.0773 42.5621 54.0773V54.0795Z" fill="white"/>
<path d="M41.4917 54.4198L41.962 54.1124C41.962 54.1124 44.5268 51.9022 43.9327 51.0864C42.7674 49.4842 40.6006 47.4796 39.3363 48.4785C38.072 49.4774 36.3945 51.4277 36.3945 51.4277C36.3945 51.4277 37.0914 52.5169 37.7521 51.9113C38.6775 51.0638 39.818 50.4491 39.818 50.4491L37.815 53.8141C37.815 53.8141 38.2282 54.3746 38.7784 54.5847C39.3287 54.7949 40.077 55.396 41.4917 54.422V54.4198Z" fill="white"/>
<path d="M37.2932 52.254C36.7506 52.254 36.2803 51.6551 36.2555 51.6235C36.2117 51.567 36.2117 51.4811 36.2555 51.4224C36.3221 51.3342 37.9082 49.271 39.2754 48.3489C39.9323 47.906 41.4231 47.6574 44.026 50.984C44.0736 51.045 44.0698 51.1376 44.0203 51.1941C43.9689 51.2506 43.8908 51.2461 43.8432 51.1874C42.9845 50.089 40.831 47.6416 39.401 48.6088C38.2433 49.393 36.8724 51.0811 36.5259 51.5196C36.7125 51.7184 37.1809 52.141 37.5883 51.8653C37.8149 51.7116 38.091 51.4789 38.3823 51.2303C38.9574 50.7422 39.5514 50.2382 39.9399 50.2043C40.0084 50.1998 40.0694 50.2585 40.0732 50.3422C40.0789 50.4235 40.0275 50.4958 39.957 50.5004C39.639 50.5297 39.0488 51.0292 38.5271 51.4721C38.23 51.7252 37.9482 51.9625 37.7102 52.1229C37.5712 52.2179 37.4303 52.2563 37.2932 52.2563V52.254Z" fill="#0B0B16"/>
<path d="M38.4838 54.5577C38.0801 54.5577 37.785 54.1125 37.6688 53.8255C37.6479 53.7758 37.6536 53.7147 37.6822 53.6695L40.5326 49.3193C40.5744 49.2537 40.6544 49.2424 40.7077 49.2944C40.7629 49.3441 40.7725 49.439 40.7287 49.5023L37.9278 53.7758C38.0211 53.9633 38.2896 54.4063 38.6647 54.2119C38.7275 54.1803 38.8018 54.2119 38.8284 54.2887C38.8551 54.3633 38.8284 54.4515 38.7637 54.4831C38.6647 54.5351 38.5695 54.5554 38.48 54.5554L38.4838 54.5577Z" fill="#0B0B16"/>
<path d="M39.4145 55.1054C38.9918 55.1054 38.5653 54.7438 38.5405 54.7235C38.5119 54.6986 38.4929 54.6625 38.4891 54.6195C38.4853 54.5789 38.4948 54.5359 38.5177 54.5066L41.6061 50.2399C41.6518 50.1766 41.7298 50.1698 41.7831 50.2241C41.8365 50.2783 41.8422 50.371 41.7965 50.4342L38.8014 54.5721C39.0318 54.7325 39.4354 54.9291 39.6791 54.7145C40.0961 54.3438 42.4819 51.458 42.5067 51.4286C42.5543 51.3698 42.6343 51.3698 42.6838 51.4286C42.7333 51.4851 42.7333 51.58 42.6838 51.6388C42.5847 51.7585 40.2599 54.5698 39.8277 54.954C39.7001 55.067 39.5573 55.1099 39.4126 55.1099L39.4145 55.1054Z" fill="#0B0B16"/>
<path d="M40.3174 55.1232C40.1118 55.1232 39.9156 55.0667 39.7386 54.9333C39.6795 54.8904 39.6624 54.7977 39.6986 54.7277C39.7347 54.6576 39.8128 54.6373 39.8718 54.6802C40.4354 55.1006 41.2809 54.5288 41.8902 53.9751C42.5756 53.3514 43.1259 52.6079 43.1316 52.6011C43.1773 52.5401 43.2573 52.5333 43.3087 52.5876C43.3601 52.6418 43.3658 52.7345 43.3201 52.7977C43.2401 52.9062 41.5931 55.1254 40.3174 55.1254V55.1232Z" fill="#0B0B16"/>
<path d="M44.4521 53.6732C44.4521 53.6732 44.4426 53.6732 44.4388 53.6732C44.3703 53.6642 44.3208 53.5919 44.3284 53.5083C44.4217 52.5003 44.2579 51.7184 43.8409 51.1874C42.9822 50.089 40.8287 47.6416 39.3987 48.6088C39.3378 48.6495 39.2617 48.6246 39.2274 48.5523C39.1931 48.48 39.2141 48.3896 39.275 48.3489C39.9319 47.906 41.4228 47.6574 44.0256 50.984C44.494 51.5828 44.6806 52.4439 44.5778 53.5399C44.5702 53.6167 44.5169 53.6732 44.454 53.6732H44.4521Z" fill="#0B0B16"/>
</g>
<defs>
<clipPath id="clip0_25883_43408">
<rect width="68" height="56" fill="white"/>
</clipPath>
</defs>
</svg>
