<svg width="67" height="51" viewBox="0 0 67 51" fill="none" xmlns="http://www.w3.org/2000/svg">
<g clip-path="url(#clip0_25883_43343)">
<path d="M51.5628 9.20769C50.7375 9.20769 49.9812 9.35387 49.3383 9.64847C47.2785 10.5908 44.8138 12.2144 44.7738 14.596C44.7627 15.3156 44.8472 16.3501 44.9451 17.5488C45.2142 20.8524 45.5501 24.9656 44.0842 25.8764C44.0175 25.9191 43.9152 25.9821 44.0486 26.2272C44.4713 27.0075 46.8269 28.5435 50.544 29.3621C52.9909 29.8996 57.8023 30.4551 62.5537 28.1387C62.7584 28.0128 66.4264 25.6919 66.5555 23.5285C66.64 22.1072 65.4455 21.2999 64.3911 20.587C63.7994 20.189 63.29 19.8449 63.0475 19.4243C62.7161 18.8486 62.656 18.0863 62.6004 17.3509C62.547 16.6582 62.4959 16.0038 62.2178 15.7294C61.9887 15.5023 61.4815 15.4033 60.9454 15.2976C60.1135 15.1335 59.1703 14.9491 58.6543 14.2159C58.4429 13.9168 58.2405 13.5435 58.027 13.1477C57.4108 12.0143 56.6456 10.6042 55.1797 9.99705C53.9162 9.47306 52.675 9.20994 51.5628 9.20994M54.8838 30.2887C53.4202 30.2887 51.932 30.1267 50.4483 29.8006C46.9137 29.0248 44.2177 27.4843 43.6571 26.4431C43.448 26.054 43.5192 25.6987 43.8506 25.494C45.0852 24.7294 44.7471 20.6005 44.5002 17.587C44.4023 16.3771 44.3156 15.3314 44.3289 14.5915C44.3645 12.5203 46.0328 10.6695 49.1537 9.24143C50.7731 8.50155 53.0309 8.62523 55.3465 9.58326C56.957 10.2489 57.7645 11.7377 58.414 12.9341C58.6231 13.3186 58.8189 13.6807 59.0146 13.9596C59.4284 14.5488 60.2781 14.7152 61.03 14.8614C61.6328 14.9783 62.2022 15.0908 62.527 15.4123C62.9252 15.8059 62.983 16.5413 63.0431 17.3216C63.0965 18.0075 63.1499 18.7182 63.4301 19.2039C63.6192 19.5345 64.113 19.8674 64.6358 20.2182C65.7324 20.9581 67.0982 21.8801 66.9981 23.56C66.8513 26.009 62.9408 28.4311 62.7739 28.5323C62.7672 28.5368 62.7628 28.539 62.7561 28.5435C60.3826 29.7017 57.6822 30.2932 54.8838 30.2932" fill="#1D1D1B"/>
<path d="M61.0034 29.344C61.0034 29.344 65.1276 27.0299 65.4212 24.5471C65.7126 22.0644 62.7207 21.0479 62.1624 19.8537C61.604 18.6596 62.1535 16.5749 61.5373 15.8462C60.9211 15.1176 58.8302 15.311 58.1028 14.0539C57.3754 12.7967 56.8126 10.3185 54.8151 9.28625C52.8153 8.25401 50.5708 7.82673 48.8313 8.53512C47.0918 9.24352 43.5839 10.82 43.8152 13.6671C44.5137 22.215 40.8834 20.5239 41.226 22.7233C42.1469 28.6288 51.1181 33.6731 61.0034 29.344Z" fill="#1D1D1B"/>
<path d="M42.1739 25.3162C42.1272 25.3162 42.0783 25.3005 42.0383 25.269C40.8504 24.338 40.2543 23.4204 40.2698 22.5434C40.2832 21.7675 40.7703 21.0254 41.7135 20.3417C43.5153 19.0351 43.8089 17.0224 43.8111 17.0021C43.8289 16.8785 43.9379 16.793 44.0603 16.811C44.1826 16.8267 44.2671 16.9414 44.2516 17.0629C44.2382 17.1528 43.9357 19.2847 41.9715 20.706C41.1463 21.3042 40.7236 21.9249 40.7125 22.5524C40.6991 23.281 41.2375 24.0771 42.3096 24.9159C42.4053 24.9924 42.4231 25.1318 42.3497 25.2308C42.3052 25.287 42.2407 25.3185 42.1739 25.3185" fill="#1D1D1B"/>
<path d="M51.3106 32.4006L43.8076 29.3444L43.6719 21.7005L50.69 21.5723L51.3106 32.4006Z" fill="#D077B4"/>
<path d="M44.0276 29.1918L51.0702 32.0591L50.4807 21.802L43.8986 21.9212L44.0276 29.1918ZM51.3104 32.6258C51.2815 32.6258 51.2548 32.6213 51.2281 32.6101L43.7251 29.5538C43.6428 29.5201 43.5872 29.4391 43.5849 29.3492L43.4493 21.7053C43.447 21.5816 43.5449 21.4781 43.6672 21.4759L50.6853 21.3477C50.7943 21.3454 50.9033 21.4399 50.91 21.5591L51.5306 32.3874C51.5351 32.4639 51.4995 32.5381 51.4394 32.5831C51.4016 32.6101 51.3549 32.6258 51.3104 32.6258Z" fill="#1D1D1B"/>
<path d="M22.0086 49.5234H13.3177C12.2834 49.5234 11.9586 48.1089 12.8884 47.6479L28.7865 39.7633C28.9199 39.6958 29.069 39.6621 29.2158 39.6621H37.9067C38.941 39.6621 39.2658 41.0767 38.336 41.5354L22.4379 49.42C22.3045 49.4874 22.1577 49.5212 22.0086 49.5212" fill="#1D1D1B"/>
<path d="M42.6284 44.106C41.8943 43.8946 38.8869 42.9051 36.9984 41.7739C35.5592 40.9103 34.9341 39.5183 34.6405 38.6367L33.2168 42.6824L27.3799 40.0827C26.8282 39.8354 26.1898 39.8803 25.676 40.1997L21.4874 42.7971L17.8438 46.7102L18.0595 46.8699C18.9493 47.5288 20.1572 47.5288 21.0469 46.8721L22.5128 45.7881L23.7652 46.8766C25.0109 47.9606 26.6525 48.4598 28.283 48.2529L28.6634 48.2057L36.4022 50.7874C38.5844 51.516 40.9289 50.2724 41.5763 48.0415L42.704 44.1555C42.6796 44.1375 42.6573 44.1127 42.6284 44.1037" fill="#D077B4"/>
<path d="M62.1065 34.5297L57.4775 25.3633H43.9729C41.1457 25.3633 38.6232 27.1624 37.6756 29.8565L34.7148 38.481C35.0085 39.3625 35.6335 40.7546 37.0727 41.6182C38.9613 42.7493 41.9665 43.7388 42.7028 43.9525C42.7072 43.9525 42.7117 43.9592 42.7161 43.9615L43.468 41.3685L44.5758 43.1721C45.9994 45.4885 48.5086 46.8985 51.2068 46.8985L59.9088 41.915C62.478 40.4442 63.4434 37.1879 62.1021 34.5297" fill="white"/>
<path d="M21.312 37.5732L14.0781 41.7539L19.0987 28.7666L26.3325 24.5859L21.312 37.5732Z" fill="#1D1D1B"/>
<path d="M21.3103 37.5742L14.0742 41.7549L20.1202 42.1912C20.2226 42.1979 20.3249 42.1754 20.4139 42.1237L26.0395 38.8741C26.4821 38.6177 26.3286 37.9363 25.8192 37.9003L21.3103 37.5742Z" fill="#1D1D1B"/>
<path d="M62.2259 34.5264L57.5969 25.36C57.559 25.2858 57.4834 25.2363 57.3989 25.2363H43.8943C40.9803 25.2363 38.3666 27.1029 37.3879 29.878L34.3359 38.5519C34.3359 38.5519 34.4894 39.1321 34.743 39.5279C34.9944 39.9237 36.2534 41.7903 38.2109 42.6111C39.6167 43.2003 41.3184 43.9312 42.2082 44.1988C41.5476 43.9492 38.9027 42.9327 37.5636 42.2176C36.0243 41.399 34.5917 39.2153 34.5917 39.2153L37.8038 30.0872C38.7181 27.4897 41.1627 25.7446 43.8921 25.7446H57.2587L61.8255 34.7873C63.1179 37.3465 62.1925 40.3848 59.7212 41.8015L51.0704 46.7558C48.4522 46.7356 46.0698 45.3862 44.6862 43.1351L43.5785 41.3315C43.5318 41.2573 43.4472 41.2888 43.3605 41.3023C43.2737 41.3158 43.2025 41.3765 43.1781 41.462L42.3706 44.2461C42.6286 44.3135 42.7932 44.3293 42.8155 44.2641L43.4695 42.0107L44.317 43.387C45.7918 45.7865 48.341 47.2213 51.1371 47.2213C51.1749 47.2213 51.2127 47.2123 51.2461 47.1921L59.9503 42.2086C62.6308 40.6749 63.6318 37.2993 62.2326 34.5264" fill="#1D1D1B"/>
<path d="M49.0898 24.0535C50.7737 23.8713 52.4109 23.046 53.6098 21.6135C56.0323 18.7192 55.6964 14.5138 52.9781 12.0805C48.5203 8.08423 44.3829 11.606 43.8112 12.564C43.6777 12.7889 43.5465 13.0048 43.4197 13.2139C43.1661 13.54 42.9437 13.8818 42.7546 14.2327C42.2474 14.9366 41.7492 15.4133 41.1752 15.4875C40.2988 15.6022 39.4424 22.115 44.2895 22.6255L49.0898 24.0512V24.0535Z" fill="#D077B4"/>
<path d="M54.3569 11.1911C52.5039 9.60565 50.0615 9.17387 47.8438 9.80805C48.4377 10.0869 49.0027 10.4445 49.521 10.8875C53.0378 13.8965 53.1713 19.5817 49.8213 23.5824C49.6344 23.8051 49.4409 24.0164 49.2429 24.2188C51.3739 24.2571 53.5316 23.3418 55.0442 21.5337C57.6713 18.3943 57.3666 13.7638 54.3591 11.1911" fill="#1D1D1B"/>
<path d="M48.9573 9.27566C47.7405 9.3971 46.7751 10.3439 46.8797 11.5763L46.3324 13.4968C45.8075 15.3341 45.8653 17.2929 46.4926 19.0965L47.8384 22.9601C47.8473 23.6325 48.2877 24.2217 48.9261 24.4128L50.848 24.9886L51.829 23.3019L52.81 10.6295C52.81 10.6295 53.1014 8.86186 48.9573 9.27566Z" fill="#1D1D1B"/>
<path d="M41.6684 18.9708C41.6306 18.9708 41.5927 18.9708 41.5527 18.9663C41.4304 18.955 41.3414 18.8448 41.3525 18.7211C41.3636 18.5974 41.4726 18.5075 41.595 18.5187C42.0621 18.5615 42.4113 18.1634 42.4158 18.1589C42.4959 18.0645 42.636 18.0532 42.7294 18.1342C42.8229 18.2129 42.834 18.3546 42.7561 18.449C42.7383 18.4715 42.3112 18.9685 41.6728 18.9685" fill="#1D1D1B"/>
<path d="M45.4575 14.4416C45.433 14.4416 45.4085 14.4371 45.3841 14.4281C45.2684 14.3876 45.2083 14.2594 45.2484 14.1425C45.3018 13.9895 45.2306 13.6567 45.0259 13.3846C44.9036 13.2227 44.6367 12.9573 44.2051 12.9843C44.085 12.9933 43.976 12.8988 43.9693 12.7751C43.9604 12.6515 44.0539 12.5435 44.1762 12.5368C44.6478 12.503 45.0771 12.7099 45.3796 13.1125C45.6599 13.4858 45.78 13.9693 45.6688 14.2909C45.6377 14.3831 45.5509 14.4416 45.4597 14.4416" fill="#1D1D1B"/>
<path d="M43.8288 14.9926C43.6798 15.1343 43.4796 15.159 43.3795 15.0511C43.2794 14.9431 43.3194 14.7407 43.4662 14.6013C43.613 14.4619 43.8155 14.4349 43.9156 14.5428C44.0157 14.6508 43.9756 14.8532 43.8288 14.9926Z" fill="#1D1D1B"/>
<path d="M61.2528 22.6612C59.7557 20.0142 56.2278 19.0832 53.3738 20.5855C52.3728 21.1117 51.5898 21.8673 51.056 22.7399C50.0149 22.2586 47.7282 21.575 47.6148 22.8456C47.1721 27.7639 45.1056 25.9333 46.0554 27.6154C47.0075 29.2954 53.9633 33.1387 60.7567 29.4573C63.5907 27.9213 62.7498 25.3104 61.2506 22.6634" fill="#1D1D1B"/>
<path d="M46.5555 19.5197C46.3398 20.5857 47.0204 21.6291 48.0748 21.8473C49.1314 22.0654 50.1614 21.3773 50.3771 20.3113C50.5929 19.2453 49.9122 18.2019 48.8578 17.9837C47.8034 17.7656 46.7713 18.4537 46.5555 19.5197Z" fill="#D077B4"/>
<path d="M47.5155 20.4274C47.4999 20.4274 47.4865 20.4274 47.471 20.4229C47.3509 20.3982 47.273 20.279 47.2975 20.1576C47.4888 19.2063 48.9903 19.0579 49.0548 19.0534C49.1749 19.0444 49.2839 19.1321 49.295 19.2558C49.3061 19.3795 49.2172 19.4874 49.0948 19.5009C48.7522 19.5324 47.8358 19.7303 47.7312 20.2498C47.709 20.3555 47.6178 20.4297 47.5132 20.4297" fill="#1D1D1B"/>
<path d="M25.0613 43.7046C25.048 43.7046 25.0346 43.7046 25.0191 43.7001L21.3754 43.0097C21.2553 42.9872 21.1752 42.8703 21.1997 42.7466C21.222 42.6251 21.3376 42.5442 21.46 42.5689L25.1036 43.2593C25.2237 43.2818 25.3038 43.3987 25.2816 43.5224C25.2615 43.6304 25.1681 43.7046 25.0636 43.7046" fill="#1D1D1B"/>
<path d="M25.7446 42.5251C25.7246 42.5251 25.7024 42.5229 25.6824 42.5161L23.32 41.8257C23.2021 41.792 23.1354 41.6683 23.1687 41.5491C23.2021 41.4299 23.3267 41.3602 23.4446 41.3962L25.8069 42.0866C25.9248 42.1203 25.9915 42.244 25.9582 42.3632C25.9293 42.4622 25.8425 42.5251 25.7446 42.5251Z" fill="#1D1D1B"/>
<path d="M26.7412 41.4305C26.7167 41.4305 26.6922 41.426 26.6678 41.4193L25.0172 40.8436C24.9016 40.8031 24.8393 40.6749 24.8793 40.558C24.9194 40.441 25.0462 40.378 25.1618 40.4185L26.8124 40.9942C26.928 41.0347 26.9903 41.1629 26.9503 41.2798C26.9191 41.3721 26.8324 41.4305 26.7412 41.4305Z" fill="#1D1D1B"/>
<path d="M32.0084 46.3538C31.9839 46.3538 31.9617 46.3493 31.9372 46.3425C31.8215 46.3043 31.757 46.1761 31.7971 46.0592L32.936 42.6049C32.9738 42.4879 33.1006 42.4227 33.2163 42.4632C33.3319 42.5014 33.3964 42.6296 33.3564 42.7466L32.2175 46.2008C32.1863 46.2953 32.0996 46.3538 32.0062 46.3538" fill="#1D1D1B"/>
<path d="M43.3944 41.7475C43.3788 41.7475 43.3654 41.7475 43.3499 41.743C43.2298 41.7182 43.1519 41.599 43.1764 41.4776L44.0862 36.9866C44.1106 36.8652 44.2263 36.7864 44.3486 36.8112C44.4688 36.8359 44.5466 36.9551 44.5222 37.0766L43.6124 41.5676C43.5901 41.6733 43.4989 41.7475 43.3944 41.7475Z" fill="#1D1D1B"/>
<path d="M42.369 44.2803C42.3512 44.2803 42.3356 44.2803 42.3178 44.2736C35.0818 42.533 34.4856 39.0562 34.4634 38.9078C34.4456 38.7841 34.5279 38.6716 34.6502 38.6514C34.7748 38.6312 34.8838 38.7166 34.9016 38.8381C34.9082 38.8763 35.5155 42.1731 42.4202 43.8351C42.5403 43.8643 42.6137 43.9857 42.5848 44.1049C42.5603 44.2084 42.4691 44.2781 42.369 44.2781" fill="#1D1D1B"/>
<path d="M3.44048 9.89467L29.2995 6.17053C30.5563 5.99062 31.7309 6.83845 31.9689 8.10007L35.3144 25.8055C35.5213 26.9052 34.9518 28.0026 33.9397 28.4546L8.78357 39.6855C7.35993 40.3197 5.7272 39.4247 5.47806 37.8729L1.42959 12.6585C1.21604 11.3295 2.12361 10.0836 3.44048 9.89467Z" fill="#1D1D1B"/>
<path d="M2.04102 10.4396L28.1959 6.39384C29.4661 6.19819 30.6695 7.02578 30.9253 8.2739L34.5422 25.8174C34.7669 26.9058 34.2041 28.0055 33.1831 28.4688L7.83567 39.9606C6.40091 40.6105 4.73481 39.7424 4.4612 38.2042L0.0368012 13.2124C-0.196765 11.8968 0.706356 10.6442 2.03879 10.4396" fill="#1D1D1B"/>
<path d="M3.08594 11.758L7.35463 38.3555L33.6608 26.6141L30.1195 7.86523L3.08594 11.758Z" fill="white"/>
<path d="M15.4035 19.3746C15.4035 19.3746 14.1823 17.1168 13.8309 16.0823C13.4794 15.0478 14.0845 14.1123 15.1188 12.9226C16.151 11.7352 16.0397 11.9668 15.5926 11.8994C15.1455 11.8319 16.102 10.9369 17.7659 10.7007C19.4298 10.4646 22.386 10.6243 22.177 13.8087C21.9679 16.9931 16.9762 21.6752 15.4035 19.3746Z" fill="#1D1D1B"/>
<path d="M15.6952 26.1932C15.6952 26.1932 16.6851 25.568 16.8942 24.3693C17.1033 23.1707 17.021 21.8933 16.4471 21.3221C15.871 20.7509 14.3205 18.9675 15.1102 18.2681C15.6352 17.8049 16.1868 18.7426 16.6206 19.0665C17.0521 19.3903 16.9365 19.0462 16.8342 18.4435C16.7318 17.8408 16.8431 16.6175 17.2612 16.2059C17.6794 15.7944 16.7163 14.1279 16.198 13.9368C15.6797 13.7456 17.7551 13.514 19.023 13.017C20.2909 12.5178 20.7425 12.1669 21.8369 12.9293C22.9313 13.6917 23.5119 14.8386 23.8478 16.1294C24.1837 17.4203 24.2282 20.6205 24.3661 21.2839C24.504 21.9473 24.4128 22.3993 23.4096 22.9255C23.196 23.038 22.9358 23.4608 23.0626 24.3109C23.4118 26.6205 22.8579 27.3468 20.1486 27.8843C18.5692 28.1969 17.2612 27.6392 15.6952 26.1887" fill="white"/>
<path d="M16.0459 26.209C17.5229 27.5224 18.713 27.9451 20.1077 27.6685C22.6925 27.1558 23.1797 26.5666 22.8438 24.3492C22.7014 23.4092 23.004 22.8897 23.3065 22.73C24.2563 22.2308 24.2585 21.8687 24.1473 21.3312C24.0917 21.0636 24.0539 20.4586 24.005 19.6918C23.9293 18.4774 23.8337 16.9684 23.6312 16.188C23.2553 14.742 22.6458 13.766 21.7093 13.1161C20.844 12.5134 20.4859 12.6618 19.5249 13.0576C19.3937 13.1116 19.2536 13.1678 19.1023 13.2285C18.5195 13.4579 17.7832 13.6288 17.1893 13.766C16.9824 13.8155 16.7466 13.8694 16.5642 13.9189C16.9935 14.2967 17.434 15.0726 17.5496 15.6146C17.623 15.9564 17.5763 16.2083 17.4139 16.3702C17.0669 16.712 16.9535 17.8432 17.0491 18.4099C17.0625 18.4841 17.0758 18.5561 17.087 18.6213C17.1581 19.0149 17.2026 19.251 17.0047 19.3747C16.8134 19.4961 16.5976 19.3365 16.4841 19.2487C16.3551 19.152 16.2283 19.0194 16.0926 18.8777C15.6611 18.4257 15.4475 18.2637 15.2518 18.4369C15.1584 18.5201 15.1117 18.6236 15.1094 18.7652C15.0894 19.4691 16.0748 20.6408 16.5976 21.1603C17.1715 21.7293 17.3628 22.9436 17.107 24.4054C16.9468 25.3275 16.3685 25.9302 16.0392 26.2045M19.3247 28.1925C18.0746 28.1925 16.9001 27.6123 15.541 26.3552C15.4898 26.308 15.4631 26.2382 15.4698 26.1685C15.4765 26.0988 15.5143 26.0359 15.5721 25.9999C15.5832 25.9909 16.4819 25.4062 16.671 24.3267C16.8934 23.0493 16.7422 21.9317 16.2862 21.4796C16.1171 21.311 14.6334 19.8065 14.6645 18.7517C14.6712 18.4841 14.7713 18.2637 14.9582 18.0973C15.5032 17.6161 16.0504 18.185 16.4107 18.5628C16.5019 18.6595 16.5909 18.7495 16.671 18.8215C16.6643 18.7787 16.6554 18.7383 16.6487 18.6978C16.6354 18.6303 16.622 18.5561 16.6109 18.4796C16.5131 17.8949 16.5931 16.5456 17.1025 16.0441C17.1337 16.0126 17.1581 15.9047 17.1136 15.7045C16.9846 15.1041 16.4018 14.2495 16.1171 14.146C15.908 14.0696 15.8858 13.9324 15.8902 13.8559C15.9058 13.5996 16.1794 13.5366 17.087 13.3252C17.6653 13.1903 18.386 13.0216 18.9377 12.8057C19.0867 12.7472 19.2246 12.691 19.3559 12.6371C20.3502 12.2278 20.8974 12.0029 21.9607 12.7427C22.975 13.4489 23.6602 14.5374 24.0583 16.0711C24.2719 16.8942 24.3698 18.4279 24.4454 19.6603C24.4921 20.3799 24.5299 21.0006 24.5789 21.2368C24.7346 21.9924 24.61 22.5433 23.5089 23.1236C23.4044 23.1775 23.1619 23.4924 23.2798 24.2772C23.649 26.7285 22.9862 27.5493 20.19 28.1048C19.8964 28.1633 19.6117 28.1925 19.3292 28.1925" fill="#1D1D1B"/>
<path d="M17.6172 21.793C17.6172 21.793 19.1543 23.0388 19.9262 23.2435C20.7003 23.4481 22.9403 22.7915 23.7188 22.5801C24.4974 22.3687 23.4296 22.5036 22.1261 23.9339C20.8226 25.3642 19.3522 27.6378 18.9252 26.8979C18.4981 26.158 17.744 24.7817 17.7039 24.143C17.6639 23.5044 17.6172 21.7952 17.6172 21.7952" fill="#1D1D1B"/>
<path d="M22.3733 18.7184C22.2843 18.7184 22.202 18.6645 22.1664 18.5767C22.1197 18.4621 22.1753 18.3316 22.291 18.2844C22.6135 18.154 22.8359 17.8459 22.9383 17.6772L21.5013 15.7522C21.4279 15.6532 21.4479 15.5115 21.5458 15.4373C21.6436 15.3631 21.7838 15.3833 21.8572 15.4823L23.3809 17.5243C23.4299 17.5917 23.4388 17.6794 23.4054 17.7559C23.3921 17.7851 23.0762 18.4531 22.4578 18.7049C22.4311 18.7162 22.4022 18.7207 22.3755 18.7207" fill="#1D1D1B"/>
<path d="M18.6519 16.0538C18.6052 16.0538 18.5585 16.0403 18.5184 16.0088C18.4206 15.9346 18.4005 15.7929 18.4739 15.694C19.0434 14.9294 19.5639 14.9744 20.0666 15.0148C20.1423 15.0216 20.2179 15.0283 20.2958 15.0306C20.4181 15.0373 20.5137 15.1408 20.5071 15.2645C20.5004 15.3881 20.3914 15.4804 20.2757 15.4781C20.1912 15.4736 20.1111 15.4669 20.031 15.4601C19.5617 15.4219 19.2503 15.3949 18.8276 15.9616C18.7831 16.0201 18.7186 16.0516 18.6497 16.0516" fill="#1D1D1B"/>
<path d="M22.1291 15.2096C22.0424 15.2096 21.9623 15.1579 21.9245 15.0747C21.8755 14.96 21.9289 14.8296 22.0401 14.7801C22.1358 14.7374 22.227 14.6541 22.3226 14.5664C22.4361 14.463 22.5629 14.3438 22.7297 14.2718C23.0411 14.1369 23.5372 14.2516 23.7507 14.5102C23.8286 14.6047 23.8175 14.7463 23.7218 14.8273C23.6284 14.906 23.4882 14.8925 23.4082 14.7981C23.3192 14.6901 23.0367 14.6272 22.9032 14.6856C22.8076 14.7284 22.7164 14.8116 22.6207 14.8993C22.5073 15.005 22.3782 15.1219 22.2136 15.1939C22.1847 15.2074 22.1558 15.2119 22.1269 15.2119" fill="#1D1D1B"/>
<path d="M20.5866 16.7188C20.6534 16.9391 20.5822 17.1573 20.4243 17.2068C20.2663 17.2562 20.0839 17.1168 20.0172 16.8964C19.9505 16.676 20.0216 16.4579 20.1796 16.4084C20.3353 16.3589 20.5199 16.4984 20.5866 16.7188Z" fill="#1D1D1B"/>
<path d="M23.4382 15.832C23.5049 16.0524 23.4338 16.2706 23.2758 16.32C23.1179 16.3695 22.9355 16.2301 22.8687 16.0097C22.802 15.7893 22.8732 15.5712 23.0311 15.5217C23.1868 15.4722 23.3715 15.6117 23.4382 15.832Z" fill="#1D1D1B"/>
<path d="M21.6468 20.1193C21.6668 20.2182 21.7736 20.4274 21.9449 20.5826C22.0383 20.668 22.1339 20.7107 22.1895 20.6995C22.6634 20.6028 22.8991 20.2812 22.8902 19.7482C22.3608 19.8742 21.8158 20.0293 21.6468 20.1193ZM22.1695 21.1493C21.8403 21.1493 21.5222 20.8502 21.3398 20.5263C21.173 20.2295 21.153 19.9844 21.2887 19.8337C21.4666 19.6335 22.3408 19.4064 23.0437 19.2512C23.1038 19.2377 23.1683 19.2512 23.2195 19.2872C23.2706 19.3232 23.304 19.3794 23.3129 19.4401C23.4886 20.7445 22.6478 21.0616 22.2785 21.138C22.2429 21.1448 22.2073 21.1493 22.1718 21.1493" fill="#1D1D1B"/>
<path d="M30.1353 28.3932C30.0686 28.3932 30.0019 28.3618 29.9574 28.3033L28.1578 25.8925C27.2725 24.6534 25.7443 24.0372 24.265 24.3183L23.1039 24.5387C22.9815 24.5612 22.8681 24.4802 22.8436 24.3588C22.8214 24.2373 22.8992 24.1204 23.0216 24.0956L24.1827 23.8753C25.8333 23.5627 27.5327 24.2508 28.5137 25.6249L30.3088 28.0312C30.3822 28.1301 30.3622 28.2696 30.2643 28.346C30.2243 28.3753 30.1776 28.391 30.1309 28.391" fill="#1D1D1B"/>
<path d="M11.1229 37.203C11.0073 37.203 10.9094 37.113 10.9005 36.9938L10.5312 31.6573C10.5312 31.6573 10.5312 31.637 10.5312 31.6258L10.6336 30.0673C10.7448 29.3522 10.9828 28.736 11.3432 28.2165C11.7035 27.697 12.0973 27.3664 12.5889 27.1753L15.6163 25.9878C15.7298 25.9429 15.8588 26.0013 15.9033 26.116C15.9478 26.2307 15.8899 26.3612 15.7765 26.4061L12.749 27.5935C12.3442 27.751 12.0127 28.0321 11.708 28.4751C11.3877 28.9384 11.1741 29.4916 11.0762 30.119L10.9784 31.6438L11.3476 36.9646C11.3565 37.0883 11.2631 37.1962 11.1407 37.203C11.1363 37.203 11.1296 37.203 11.1252 37.203" fill="#1D1D1B"/>
<path d="M29.8069 11.687C29.8069 12.4966 29.1574 13.1532 28.3566 13.1532C27.5558 13.1532 26.9062 12.4966 26.9062 11.687C26.9062 10.8774 27.5558 10.2207 28.3566 10.2207C29.1574 10.2207 29.8069 10.8774 29.8069 11.687Z" fill="#D077B4"/>
<path d="M30.4436 14.9819C30.4436 15.7915 29.7941 16.4482 28.9933 16.4482C28.1925 16.4482 27.543 15.7915 27.543 14.9819C27.543 14.1723 28.1925 13.5156 28.9933 13.5156C29.7941 13.5156 30.4436 14.1723 30.4436 14.9819Z" fill="#1D1D1B"/>
<path d="M29.5599 19.5335C28.8837 19.5335 28.332 18.9781 28.332 18.2922C28.332 17.6063 28.8837 17.0508 29.5599 17.0508C30.2361 17.0508 30.7878 17.6063 30.7878 18.2922C30.7878 18.9781 30.2384 19.5335 29.5599 19.5335Z" fill="white"/>
<path d="M29.5597 16.8281C28.7589 16.8281 28.1094 17.4848 28.1094 18.2944C28.1094 19.104 28.7589 19.7607 29.5597 19.7607C30.3605 19.7607 31.01 19.104 31.01 18.2944C31.01 17.4848 30.3605 16.8281 29.5597 16.8281ZM29.5597 17.2779C30.1136 17.2779 30.5652 17.7344 30.5652 18.2944C30.5652 18.8544 30.1136 19.3109 29.5597 19.3109C29.0058 19.3109 28.5543 18.8544 28.5543 18.2944C28.5543 17.7344 29.0058 17.2779 29.5597 17.2779Z" fill="#1D1D1B"/>
<path d="M36.9703 7.7329L36.0516 11.2097L39.2993 8.02975C39.4261 7.94204 39.5729 7.89257 39.7264 7.88582L46.4909 7.57323C46.7734 7.55973 47.0114 7.34609 47.0537 7.06273L47.9679 1.15044C47.9969 0.970529 47.9435 0.78837 47.8234 0.653437C47.7032 0.518505 47.5386 0.444292 47.3518 0.451038L36.1362 0.916556C35.8559 0.9278 35.6179 1.13919 35.5712 1.41805L34.6213 7.03575C34.5902 7.2224 34.6436 7.41131 34.7704 7.55074C34.8972 7.69017 35.0796 7.75988 35.2642 7.74414L36.9659 7.73515L36.9703 7.7329ZM35.2108 12.6602L36.392 8.18267L35.2909 8.18717C34.9839 8.21641 34.6703 8.09497 34.4478 7.85209C34.2254 7.60921 34.132 7.28312 34.1876 6.95704L35.1374 1.33934C35.2197 0.853587 35.6335 0.48702 36.1206 0.46678L47.3362 -0.000985647C47.6543 -0.0144789 47.9479 0.113707 48.157 0.349839C48.3661 0.585971 48.4573 0.900814 48.4084 1.21566L47.4941 7.12795C47.4185 7.62045 47.0048 7.99602 46.5109 8.01851L39.7464 8.3311C39.6797 8.33335 39.6174 8.35359 39.5618 8.38732L35.2086 12.6579L35.2108 12.6602Z" fill="#D077B4"/>
<path d="M44.3966 3.65163C44.3121 3.65163 44.2165 3.68986 44.1542 3.71909C44.1164 3.73708 44.0941 3.78656 44.0874 3.86752C44.0674 4.1059 44.2053 4.4972 44.4256 4.84353C44.519 4.65238 44.5813 4.45672 44.6102 4.27232C44.6591 3.95522 44.5946 3.74833 44.5079 3.68311C44.4767 3.66062 44.4389 3.65163 44.3966 3.65163ZM38.5508 4.16662C38.4796 4.17786 38.2616 4.46122 38.2127 4.84803C38.2038 4.91999 38.1994 4.98746 38.1971 5.05492C38.5886 4.89525 38.7599 4.68386 38.7755 4.49271C38.7888 4.31954 38.6687 4.18911 38.5486 4.16662M41.1601 3.29405C41.1378 3.29405 41.1156 3.29405 41.0911 3.3008C40.8309 3.34803 40.5884 3.64713 40.5395 3.97996C40.5105 4.18911 40.7352 4.7086 41.1467 5.16512C41.1556 5.15387 41.1623 5.14263 41.1712 5.13139C41.6027 4.53993 41.7651 3.94848 41.5872 3.62014C41.5026 3.46497 41.3625 3.29181 41.1579 3.29181M39.4584 6.7101C39.3672 6.7101 39.276 6.7011 39.1848 6.68086C38.4707 6.53019 38.0103 6.16362 37.8323 5.62614C37.5142 5.69585 37.1205 5.74308 36.6378 5.75208L36.6289 5.3023C37.0827 5.29331 37.4542 5.25058 37.75 5.18536C37.7433 5.05942 37.75 4.92899 37.7656 4.78956C37.8145 4.396 38.0147 3.99795 38.2505 3.82254C38.3996 3.7101 38.5352 3.7056 38.622 3.72134C38.9846 3.78656 39.2426 4.13963 39.2115 4.52419C39.1959 4.71534 39.0736 5.2011 38.255 5.5002C38.3884 5.88026 38.7265 6.12314 39.2715 6.24008C39.7832 6.34803 40.3904 5.97921 40.8487 5.5047C40.3593 4.97846 40.0345 4.32179 40.0946 3.9125C40.1702 3.38401 40.5528 2.93873 41.0044 2.85552C41.3892 2.78581 41.7407 2.98371 41.9698 3.402C42.2412 3.89675 42.0743 4.64338 41.5227 5.39675C41.5049 5.42374 41.4848 5.44848 41.4648 5.47322C41.8741 5.80605 42.5081 6.13663 43.2688 5.87352C43.6403 5.74533 43.9362 5.51594 44.1542 5.24833C43.825 4.79855 43.6047 4.23184 43.6359 3.82929C43.6559 3.58641 43.7693 3.402 43.954 3.31429C44.3566 3.12089 44.6169 3.2131 44.7637 3.32329C45.0106 3.50995 45.1107 3.88101 45.0395 4.34203C44.995 4.62539 44.886 4.93349 44.7125 5.22359C44.7815 5.29555 44.8549 5.35852 44.9305 5.4125C45.4354 5.76782 45.6156 5.6104 45.6156 5.60815L45.9471 5.905C45.9315 5.92524 45.5355 6.38401 44.6769 5.77906C44.5991 5.72509 44.5234 5.65987 44.4478 5.58791C44.1853 5.89151 43.8405 6.15013 43.4112 6.2963C42.6593 6.55492 41.8652 6.38401 41.1712 5.81055C40.6863 6.31429 40.0568 6.70785 39.4517 6.70785" fill="#D077B4"/>
</g>
<defs>
<clipPath id="clip0_25883_43343">
<rect width="67" height="51" fill="white"/>
</clipPath>
</defs>
</svg>
