<svg width="62" height="40" viewBox="0 0 62 40" fill="none" xmlns="http://www.w3.org/2000/svg">
<g clip-path="url(#clip0_25883_43283)">
<path d="M3.19071 9.7793L12.6811 9.7793C14.1517 9.7793 15.3438 8.53838 15.3438 7.00764V2.7713C15.3437 1.24056 14.1517 -0.000352859 12.6811 -0.000352859L3.19071 -0.000352859C1.72019 -0.000352859 0.528086 1.24056 0.528086 2.7713V7.00764C0.528086 8.53838 1.72019 9.7793 3.19071 9.7793Z" fill="#D79F5C"/>
<path d="M11.0079 7.44531V12.5285L6.52734 8.19925L11.0079 7.44531Z" fill="#D79F5C"/>
<path d="M7.7166 6.80859H6.82422V7.24065H7.7166V6.80859Z" fill="white"/>
<path d="M8.16418 4.91648V4.48443C8.54188 4.48443 8.84903 4.1647 8.84903 3.77153V3.30707C8.84903 2.91389 8.54188 2.59417 8.16418 2.59417H7.27179C6.89408 2.59417 6.58694 2.91389 6.58694 3.30707H6.17188C6.17188 2.67626 6.6658 2.16211 7.27179 2.16211H8.16418C8.77017 2.16211 9.26409 2.67626 9.26409 3.30707V3.77153C9.26409 4.40233 8.77017 4.91648 8.16418 4.91648Z" fill="white"/>
<path d="M7.47756 6.09575H7.0625V5.63128C7.0625 5.00048 7.55643 4.48633 8.16242 4.48633V4.91839C7.78471 4.91839 7.47756 5.23811 7.47756 5.63128V6.09575Z" fill="white"/>
<path d="M40.5468 33.9033C40.3331 33.9033 40.1401 33.8925 39.9616 33.8773C38.5525 33.7456 36.2904 30.8464 33.2376 25.2599C31.1477 21.434 29.3754 17.5952 29.1181 17.0335C28.4913 16.7203 24.1954 14.4498 25.258 11.8812C25.8702 10.4014 28.2942 7.60384 31.5483 6.30118C33.937 5.34633 36.336 5.38306 38.484 6.4092C42.3959 8.28001 43.8694 10.76 44.9465 12.5725C45.5421 13.5727 46.0111 14.3634 46.7043 14.8063C47.8748 15.5537 49.4396 15.3679 50.8196 15.2059C51.7888 15.0914 52.704 14.9834 53.3557 15.2254C54.19 15.5343 54.5095 16.3617 54.8188 17.161C55.1031 17.8955 55.3708 18.5889 56.0121 18.8028C56.5392 18.9799 57.1722 19.0102 57.8425 19.0426C58.9777 19.0988 60.1503 19.1549 60.9036 19.9629C61.4162 20.5116 61.6133 21.447 61.4349 22.4623C61.2045 23.7693 60.1544 26.2817 55.7278 28.4312C46.1917 33.0607 42.4852 33.9033 40.5448 33.9033H40.5468ZM34.985 6.03331C33.9162 6.03331 32.8184 6.25582 31.6998 6.703C28.5557 7.96029 26.2251 10.6369 25.6399 12.0497C24.6769 14.3742 29.3152 16.649 29.3609 16.6728C29.4045 16.6944 29.4398 16.7311 29.4605 16.7764C31.5275 21.3325 37.4505 33.2076 39.9969 33.4453C43.2821 33.7542 50.0352 30.719 55.5514 28.0402C57.0228 27.3252 60.5031 25.3442 61.026 22.3846C61.2087 21.3498 60.9285 20.611 60.6047 20.2653C59.9655 19.5805 58.876 19.5265 57.8218 19.4768C57.1556 19.4444 56.4645 19.4098 55.8855 19.2176C55.0574 18.9411 54.7399 18.1201 54.4328 17.3252C54.1464 16.582 53.8745 15.8799 53.2166 15.6358C52.6563 15.4284 51.7867 15.53 50.8674 15.6401C49.4209 15.8108 47.7814 16.0052 46.4885 15.18C45.7123 14.6853 45.1935 13.8147 44.5958 12.8058C43.4896 10.9437 42.1116 8.6235 38.3138 6.80885C37.2409 6.29686 36.1285 6.03979 34.9829 6.03979L34.985 6.03331Z" fill="#0B0B16"/>
<path d="M28.8164 17.0115C28.8164 17.0115 23.7029 14.1902 24.699 11.3883C25.6931 8.58639 31.5994 2.49436 37.8565 5.91195C44.1136 9.32953 44.4228 14.0325 46.6081 15.5879C48.7934 17.1433 51.9645 15.6592 53.521 16.3354C55.0775 17.0115 54.8616 19.8307 56.3932 20.4356C57.9248 21.0405 60.191 20.4745 61.3864 21.8549C62.5818 23.2353 62.561 27.6661 56.4057 30.7208C50.2503 33.7754 43.7898 36.6292 40.4569 36.1669C37.1239 35.7046 28.8185 17.0094 28.8185 17.0094L28.8164 17.0115Z" fill="black"/>
<path d="M35.6104 21.2616C37.337 21.0498 40.7426 20.7409 42.5399 20.5811C43.3077 20.5141 44.0818 20.6286 44.7999 20.9202L47.5372 22.0285C48.0166 22.2229 48.4628 22.4908 48.8654 22.8256L57.9117 30.365C59.8563 31.9853 60.3772 34.839 59.1403 37.09C58.2396 38.7297 56.5648 39.7407 54.751 39.7407H18.0117L24.7357 26.5132C25.9145 24.1931 28.3883 22.5037 31.3498 21.9939L35.6104 21.2616Z" fill="#D79F5C"/>
<path d="M36.1564 27.3083L37.1962 26.6429C39.1926 25.3662 39.9335 22.7177 38.9042 20.525L36.2042 14.7656L30.7461 18.2567L34.795 26.8935C35.042 27.4228 35.675 27.6129 36.1564 27.3061V27.3083Z" fill="white"/>
<path d="M35.6552 27.6703C35.5473 27.6703 35.4373 27.6552 35.3315 27.6228C35.016 27.5277 34.7525 27.2966 34.6093 26.9898L30.5603 18.353C30.5126 18.2536 30.5479 18.1326 30.6392 18.0743L36.0973 14.5833C36.1471 14.5509 36.2073 14.5422 36.2633 14.5595C36.3193 14.5768 36.3671 14.6178 36.392 14.6718L39.092 20.4312C40.1711 22.7362 39.4032 25.4863 37.3051 26.8278L36.2654 27.4932C36.0807 27.612 35.869 27.6725 35.6552 27.6725V27.6703ZM31.0148 18.34L34.9808 26.8019C35.0741 27.0028 35.2402 27.1475 35.4456 27.2102C35.6511 27.2728 35.8648 27.2426 36.0475 27.1259L37.0872 26.4606C39.0027 25.2357 39.7042 22.7254 38.7184 20.6213L36.1201 15.0758L31.0169 18.34H31.0148Z" fill="#0B0B16"/>
<path d="M35.1578 19.0827C31.802 20.1953 28.9713 18.8386 28.9713 18.8386C28.2428 18.5081 27.6016 18.0004 27.1014 17.3566C25.3997 15.1639 25.711 11.9559 27.7987 10.1607L30.6461 7.71308C32.2461 6.33697 34.502 6.15551 36.2868 7.25942L36.2702 7.33503C35.523 10.7159 36.1104 14.2674 37.8993 17.1946L35.1578 19.0849V19.0827Z" fill="white"/>
<path d="M32.4051 19.7421C30.3879 19.7421 28.9663 19.0768 28.8833 19.0379C28.132 18.6965 27.4575 18.1629 26.9387 17.4954C25.1726 15.2228 25.4984 11.8592 27.665 9.99704L30.5124 7.54943C32.1747 6.12147 34.5364 5.93137 36.3897 7.07632C36.4665 7.12385 36.5059 7.2189 36.4851 7.30963L36.4685 7.38524C35.7401 10.6883 36.3233 14.2226 38.0707 17.0806C38.1329 17.1822 38.1039 17.314 38.0063 17.3788C37.9088 17.4436 37.7822 17.4133 37.7199 17.3118C35.9269 14.3803 35.3188 10.7596 36.0452 7.36796C34.3621 6.40231 32.2619 6.60106 30.7739 7.87995L27.9265 10.3276C25.9363 12.0385 25.6375 15.1321 27.2604 17.2211C27.7377 17.8346 28.3561 18.325 29.0514 18.6404C29.0825 18.6555 31.8572 19.9473 35.0926 18.8758C35.2026 18.8391 35.3188 18.9018 35.3541 19.0163C35.3894 19.1308 35.3292 19.2517 35.2192 19.2885C34.2127 19.6211 33.2559 19.74 32.4051 19.74V19.7421Z" fill="#0B0B16"/>
<path d="M38.2933 18.6794C39.4326 18.6794 40.3562 17.718 40.3562 16.5321C40.3562 15.3462 39.4326 14.3848 38.2933 14.3848C37.154 14.3848 36.2305 15.3462 36.2305 16.5321C36.2305 17.718 37.154 18.6794 38.2933 18.6794Z" fill="white"/>
<path d="M37.6714 16.5516C37.6112 16.5516 37.551 16.5235 37.5095 16.4695C37.4389 16.3766 37.4535 16.2405 37.5427 16.1649C37.5863 16.1282 38.6281 15.2748 39.4624 15.7047C39.5641 15.7587 39.6076 15.8884 39.5558 15.9942C39.5059 16.1001 39.3794 16.1454 39.2777 16.0914C38.6862 15.7868 37.8104 16.4932 37.8 16.5019C37.7627 16.5343 37.715 16.5494 37.6714 16.5494V16.5516Z" fill="#0B0B16"/>
<path d="M31.0136 17.1191C30.9036 17.1191 30.7895 17.104 30.6753 17.0694C29.5028 16.7151 29.5256 14.5289 29.5277 14.436C29.5277 14.3647 29.563 14.2999 29.619 14.261C29.675 14.2221 29.7456 14.2135 29.8099 14.2394L32.7403 15.4189C32.7984 15.4427 32.842 15.4902 32.8627 15.5507C32.8835 15.6112 32.8752 15.6782 32.844 15.7322C32.8087 15.7948 32.0284 17.1213 31.0136 17.1213V17.1191ZM29.951 14.7579C29.9905 15.4103 30.1835 16.471 30.7895 16.6546C31.4453 16.8512 32.072 16.1059 32.346 15.7236L29.951 14.7601V14.7579Z" fill="#0B0B16"/>
<path d="M29.7289 10.4615C29.7579 10.3038 29.6438 10.1569 29.4985 10.1288C29.3014 10.09 29.0855 10.1504 28.9299 10.2801C28.9153 10.2909 28.907 10.3038 28.8946 10.3168C28.8406 10.3341 28.7888 10.36 28.7431 10.401C28.6788 10.4594 28.6227 10.5285 28.5937 10.6127C28.5605 10.7186 28.548 10.8266 28.5854 10.9325C28.6248 11.047 28.7078 11.1291 28.8074 11.1874C28.8884 11.2349 28.9818 11.2457 29.0731 11.2457C29.2453 11.2457 29.4113 11.1485 29.5193 11.0124C29.6438 10.8569 29.6915 10.6559 29.7268 10.4615H29.7289Z" fill="black"/>
<path d="M32.8248 11.9451C32.8165 11.8522 32.7646 11.7766 32.6899 11.7291C32.6608 11.7053 32.6255 11.6924 32.5882 11.688C32.5405 11.6816 32.4927 11.688 32.4471 11.7032C32.2873 11.7442 32.1378 11.8587 32.0361 11.9927C31.9946 12.0467 31.9594 12.1093 31.9324 12.1741C31.9137 12.2044 31.8992 12.2368 31.8847 12.2692C31.8307 12.3923 31.8079 12.5478 31.8369 12.6818C31.8431 12.7336 31.8597 12.779 31.8888 12.82C31.9096 12.8546 31.9386 12.8784 31.9718 12.8957C32.0486 12.9432 32.1295 12.9497 32.2146 12.9194C32.6048 12.7898 32.86 12.3599 32.8248 11.943V11.9451Z" fill="black"/>
<path d="M29.9923 12.5761C29.8989 12.5761 29.8139 12.5091 29.791 12.4098C29.7641 12.2931 29.8325 12.1765 29.9446 12.1484C29.9488 12.1484 30.6751 11.9172 31.252 10.2365C31.2915 10.1242 31.4098 10.0659 31.5177 10.1069C31.6256 10.1479 31.6816 10.2711 31.6422 10.3834C30.9781 12.3169 30.0774 12.561 30.0401 12.5696C30.0235 12.574 30.0069 12.5761 29.9923 12.5761Z" fill="#0B0B16"/>
<path d="M34.1973 11.3944C34.0998 11.3944 34.0147 11.3231 33.9939 11.2216C33.8092 10.2646 32.7384 9.85629 32.728 9.85197C32.6201 9.81093 32.5641 9.68779 32.6014 9.57546C32.6388 9.46312 32.7571 9.40479 32.865 9.44368C32.9189 9.46312 34.1703 9.93622 34.4007 11.1352C34.4235 11.2518 34.3509 11.3663 34.2388 11.3901C34.2243 11.3923 34.2119 11.3944 34.1973 11.3944Z" fill="#0B0B16"/>
<path d="M30.6984 8.98773C30.6984 8.98773 30.688 8.98773 30.6839 8.98773C30.5718 8.97909 30.4847 8.87756 30.4909 8.7609C30.4909 8.74794 30.4909 8.58159 30.3311 8.42389C30.1505 8.24459 29.7438 8.04368 28.8203 8.11281C28.704 8.12145 28.6065 8.03072 28.5982 7.9119C28.5899 7.79309 28.6771 7.68939 28.7912 7.68075C29.6691 7.61594 30.2875 7.765 30.6341 8.12577C30.9205 8.42389 30.908 8.7501 30.9039 8.78682C30.8956 8.90132 30.8043 8.98773 30.6963 8.98773H30.6984Z" fill="#0B0B16"/>
<path d="M49.9394 33.9151C49.9104 33.9151 49.8793 33.9086 49.8523 33.8957L42.9519 30.5429C42.8481 30.4932 42.8024 30.3636 42.8522 30.2556C42.9 30.1476 43.0245 30.1 43.1283 30.1519L50.0287 33.5047C50.1324 33.5544 50.1781 33.684 50.1283 33.792C50.093 33.8698 50.0183 33.9173 49.9394 33.9173V33.9151Z" fill="white"/>
<path d="M32.7774 22.3123C32.7047 21.5951 32.3499 20.9664 31.7252 20.4458C29.9736 18.9876 28.2345 17.9701 27.7655 17.6568L28.4088 15.071C28.5002 14.9046 28.9609 13.3471 28.8239 13.3946C28.7367 13.4248 28.359 12.5996 28.2719 12.5801C27.8485 12.5002 27.1678 14.7361 26.7071 16.028C26.6822 14.9457 27.1201 12.1978 27.1989 11.3812C27.3172 10.1477 25.7628 9.67023 25.6985 9.65079C25.6507 9.63567 25.603 9.64647 25.5636 9.67455C25.5242 9.70264 25.4992 9.748 25.4951 9.79769L25.4328 10.5495C24.6235 9.15824 23.4717 9.65295 23.4592 9.65727C23.3887 9.68968 23.3492 9.76961 23.3679 9.84954L24.7542 15.8444C24.7729 15.92 24.8372 15.9718 24.9099 15.9718C24.9223 15.9718 24.9348 15.9718 24.9472 15.9675C24.9597 15.9653 24.97 15.9567 24.9825 15.9502L24.8559 17.4559C24.8518 17.497 24.8642 17.5402 24.8891 17.5726L28.2615 22.0682L28.056 23.8871C28.0457 23.9714 28.0996 24.0491 28.1785 24.0686L31.8041 24.9565C31.8165 24.9608 31.829 24.9608 31.8414 24.9608C31.8891 24.9608 31.9348 24.9392 31.9659 24.9003C32.0054 24.8506 32.9185 23.6711 32.7815 22.3144L32.7774 22.3123Z" fill="white"/>
<path d="M21.7413 34.5596C21.7745 34.0498 28.2557 22.0645 28.2557 22.0645L32.1365 23.9029L27.4442 38.1111C27.4442 38.1111 21.3656 40.1656 21.7392 34.5596H21.7413Z" fill="white"/>
<path d="M27.8552 36.8476C27.8323 36.8476 27.8095 36.8433 27.7867 36.8347C27.6788 36.7958 27.6207 36.6727 27.6601 36.5603L31.6405 24.7197C31.6488 24.696 31.6613 24.6744 31.6758 24.6549C31.6841 24.6441 32.5329 23.5445 32.4105 22.3477C32.3482 21.7364 32.039 21.1963 31.4932 20.7426C29.3951 18.995 27.6912 17.8824 27.6746 17.8716C27.5978 17.8219 27.5605 17.7247 27.5833 17.634L28.4591 14.1235C28.5463 13.7735 28.5421 13.4301 28.4466 13.1276C28.3885 12.9461 28.3055 12.81 28.1955 12.7236C27.9403 13.3156 27.1745 15.3376 26.693 16.6316C26.6515 16.7418 26.5311 16.798 26.4253 16.7547C26.3194 16.7115 26.2655 16.5862 26.307 16.4761C27.9195 12.1425 27.9278 12.1447 28.1768 12.2311C28.4881 12.3391 28.7185 12.6027 28.843 12.9937C28.9634 13.376 28.9696 13.8038 28.8617 14.2337L28.0253 17.5929C28.4632 17.8867 29.9699 18.9215 31.7547 20.4078C32.3897 20.9371 32.7508 21.5765 32.8255 22.3089C32.9542 23.5813 32.1739 24.6981 32.0224 24.9012L28.0523 36.7072C28.0233 36.7958 27.9423 36.852 27.8572 36.852L27.8552 36.8476Z" fill="black"/>
<path d="M21.8845 34.7759C21.8513 34.7759 21.8181 34.7673 21.7849 34.75C21.6832 34.6938 21.6458 34.562 21.7018 34.4562L28.1768 22.0388L24.848 17.5994C24.8148 17.5562 24.8003 17.5022 24.8044 17.4482L25.4436 9.78994C25.4499 9.72513 25.481 9.66681 25.5329 9.63008C25.5848 9.59336 25.6491 9.58255 25.7072 9.59984C25.7757 9.61928 27.3654 10.1075 27.2429 11.3821C27.1392 12.4665 27.1641 15.2058 27.1661 15.2317C27.1661 15.3505 27.0748 15.4478 26.9607 15.4499H26.9586C26.8445 15.4499 26.7532 15.3549 26.7511 15.236C26.7511 15.1237 26.7241 12.4471 26.8299 11.3389C26.8943 10.667 26.2115 10.2717 25.8338 10.1053L25.2236 17.3985L28.5857 21.8833C28.6375 21.9502 28.6438 22.0431 28.6043 22.1187L22.065 34.6614C22.0277 34.7327 21.955 34.7737 21.8824 34.7737L21.8845 34.7759Z" fill="black"/>
<path d="M25.0477 16.4255C24.9543 16.4255 24.8692 16.3607 24.8464 16.2613L23.3189 9.86036C23.292 9.75019 23.3521 9.64002 23.4538 9.60329C23.4808 9.59465 24.1013 9.38294 24.7115 9.72859C25.168 9.98566 25.4897 10.476 25.6661 11.1825C25.6952 11.297 25.6288 11.4158 25.5167 11.446C25.4067 11.4763 25.2926 11.4071 25.2635 11.2905C25.1182 10.7072 24.8671 10.3097 24.5185 10.111C24.2425 9.95326 23.9561 9.9511 23.7734 9.97486L25.249 16.1576C25.276 16.2743 25.2096 16.3909 25.0975 16.419C25.0809 16.4233 25.0643 16.4255 25.0477 16.4255Z" fill="black"/>
<path d="M48.6678 33.9511C48.6636 33.9058 48.6429 33.8647 48.6076 33.8366C48.5744 33.8085 48.5287 33.7956 48.4872 33.8021L37.6582 35.2387C37.1809 34.5582 36.3591 33.4499 34.9458 31.6202C34.7362 31.348 34.4228 31.1924 34.0887 31.1924H33.9227L33.794 31.0218C33.5263 30.6675 33.0822 30.5098 32.6567 30.62L32.3475 30.3521C31.949 30.0064 31.368 30 30.9591 30.3326L30.8512 30.4234C30.8512 30.4234 30.8429 30.4234 30.8388 30.4255L27.7113 31.6461C27.6781 31.6591 27.6511 31.6828 27.6324 31.7131L25.4471 35.2646C25.4097 35.3251 25.4139 35.405 25.4595 35.4612C25.6069 35.647 25.9389 35.8954 26.3706 35.8954C26.5615 35.8954 26.7691 35.8479 26.9911 35.7247C27.2194 35.5973 27.4083 35.4633 27.566 35.3316L26.9268 37.0144C26.8957 37.0965 26.9309 37.1916 27.0098 37.2283C27.0949 37.2672 27.6594 37.5221 28.1512 37.5221C28.3318 37.5221 28.502 37.4854 28.6348 37.3946C28.8174 37.5199 29.0623 37.6301 29.3238 37.6301C29.5334 37.6301 29.7534 37.5588 29.9567 37.3666C30.1145 37.2175 30.2597 37.0425 30.3884 36.8654C30.3926 36.9129 30.4071 36.9561 30.4444 36.9863C30.5856 37.0987 30.7952 37.224 31.0152 37.278C31.0193 37.2823 31.0193 37.2888 31.0235 37.2931C31.0816 37.3666 32.4637 39.1013 33.657 39.3497C34.9894 39.6262 36.9132 39.6305 36.9941 39.6305H49.0434C49.0891 39.6305 49.1327 39.6111 49.1617 39.5744C49.1928 39.5398 49.2074 39.4923 49.2011 39.4469L48.6678 33.9533V33.9511Z" fill="white"/>
<path d="M37.6329 35.6267C37.5292 35.6267 37.4399 35.5468 37.4275 35.4387C37.4129 35.3199 37.4939 35.2119 37.608 35.1968L48.4847 33.7537C48.5968 33.7386 48.7026 33.8228 48.7172 33.9417C48.7317 34.0605 48.6508 34.1685 48.5366 34.1836L37.6599 35.6267C37.6599 35.6267 37.6412 35.6267 37.6329 35.6267Z" fill="black"/>
<path d="M28.1522 37.571C27.6479 37.571 27.0772 37.314 26.9901 37.2729C26.8884 37.2254 26.8406 37.1044 26.8821 36.9964L28.4469 32.8767C28.6213 32.4144 28.9097 32.0061 29.2791 31.6929L30.929 30.2952C31.3544 29.9452 31.9625 29.956 32.3776 30.3146L32.6681 30.5674C33.106 30.4658 33.5564 30.6279 33.8303 30.993L33.9444 31.1463H34.0856C34.4363 31.1463 34.7621 31.3084 34.98 31.5914C38.369 35.9811 38.369 36.2338 38.369 36.357C38.369 36.4801 38.2756 36.573 38.1615 36.573C38.0556 36.573 37.9705 36.4909 37.956 36.385C37.8543 36.102 36.5656 34.3328 34.6563 31.8614C34.5172 31.6799 34.3097 31.5762 34.0856 31.5762H33.8427C33.7784 31.5762 33.7182 31.546 33.6788 31.4941L33.5024 31.2587C33.3115 31.0059 32.9877 30.9044 32.693 31.0059C32.6245 31.0297 32.5374 31.0189 32.4834 30.9713L32.1099 30.6473C31.8463 30.4183 31.4582 30.4118 31.1863 30.6343L29.5385 32.0299C29.2252 32.2956 28.9782 32.6434 28.8309 33.0366L27.3408 36.9575C27.733 37.1087 28.2477 37.2211 28.4407 37.0699C28.532 36.9986 28.6628 37.018 28.7312 37.1131C28.7997 37.2081 28.7811 37.3442 28.6897 37.4155C28.5445 37.53 28.3515 37.571 28.1481 37.571H28.1522Z" fill="black"/>
<path d="M29.3228 37.6797C28.9492 37.6797 28.6068 37.4659 28.4263 37.2909C28.364 37.2325 28.3432 37.1397 28.3723 37.0576L29.3539 34.2881C29.5615 33.7048 29.8748 33.1777 30.2857 32.7262L31.5081 31.3781C31.587 31.2917 31.7177 31.2874 31.8007 31.3695C31.8837 31.4516 31.8879 31.5877 31.809 31.6741L30.5867 33.0221C30.2152 33.4326 29.9309 33.9079 29.7441 34.4371L28.8143 37.0576C28.997 37.1893 29.3809 37.3902 29.7067 37.0813C30.2567 36.5607 30.6676 35.6599 30.6717 35.6512C30.7216 35.5432 30.844 35.4978 30.9478 35.5475C31.0515 35.5972 31.0951 35.7268 31.0474 35.8348C31.0287 35.8759 30.597 36.8243 29.9869 37.401C29.7731 37.6041 29.5428 37.6776 29.3228 37.6776V37.6797Z" fill="black"/>
<path d="M31.2332 37.3547C30.9261 37.3547 30.6086 37.1797 30.4135 37.0242C30.345 36.9702 30.3159 36.8773 30.3408 36.7909L30.8099 35.1512C31.0029 34.4729 31.3743 33.8659 31.8828 33.3971C32.9454 32.4163 33.0616 32.3558 33.1135 32.3299C33.2151 32.2759 33.3397 32.3191 33.3916 32.4271C33.4434 32.533 33.4019 32.6626 33.3002 32.7166C33.267 32.736 33.0865 32.8656 32.1588 33.7211C31.7085 34.1359 31.3806 34.6738 31.2083 35.2744L30.7829 36.7607C30.9572 36.8665 31.281 37.022 31.4491 36.8211C31.8122 36.3891 32.7088 35.1275 32.7191 35.1145C32.7316 35.0972 32.7482 35.0799 32.7648 35.067L33.8834 34.2353C33.9768 34.1661 34.1055 34.1877 34.1719 34.285C34.2383 34.3822 34.2175 34.5161 34.1241 34.5852L33.0304 35.3975C32.8935 35.5919 32.109 36.6894 31.7604 37.1041C31.6089 37.2856 31.4221 37.3526 31.2311 37.3526L31.2332 37.3547Z" fill="black"/>
<path d="M49.0417 39.6803H36.9924C36.9115 39.6803 34.9835 39.6782 33.647 39.3995C32.4392 39.1489 30.9803 37.4056 30.918 37.3321C30.8433 37.2414 30.8516 37.1053 30.9388 37.0275C31.0259 36.9497 31.1567 36.9584 31.2314 37.0491C31.2459 37.0664 32.6592 38.7536 33.728 38.9761C35.025 39.2461 36.9738 39.2504 36.9924 39.2504H49.0417C49.1559 39.2504 49.2492 39.3477 49.2492 39.4665C49.2492 39.5853 49.1559 39.6825 49.0417 39.6825V39.6803Z" fill="black"/>
<path d="M26.3715 35.9451C25.9233 35.9451 25.5788 35.6859 25.4231 35.4936C25.365 35.4223 25.3588 35.3186 25.4086 35.2387L27.5939 31.6872C27.6167 31.6483 27.652 31.6202 27.6914 31.6029L30.6238 30.3824C30.7297 30.3391 30.8501 30.391 30.8936 30.5033C30.9351 30.6135 30.8833 30.7388 30.7774 30.7842L27.9073 31.9788L25.8506 35.3229C26.0166 35.459 26.3591 35.6427 26.8177 35.3877C27.5586 34.9773 27.8554 34.4739 27.8574 34.4675C27.9156 34.3659 28.0442 34.3314 28.1418 34.394C28.2393 34.4545 28.2725 34.5884 28.2123 34.69C28.1978 34.7137 27.8533 35.3013 27.0128 35.768C26.7845 35.8954 26.5666 35.9451 26.3715 35.9451Z" fill="black"/>
<path d="M33.8733 36.0711C33.8028 36.0711 33.7343 36.0344 33.6949 35.9674C33.3877 35.4403 33.257 35.302 33.2258 35.2739C33.1553 35.2394 33.1055 35.1638 33.1055 35.0774C33.1055 34.9585 33.1989 34.8613 33.313 34.8613C33.4085 34.8613 33.5371 34.8613 34.0497 35.7427C34.1099 35.8443 34.0788 35.9782 33.9792 36.0387C33.946 36.0603 33.9086 36.0711 33.8713 36.0711H33.8733Z" fill="black"/>
<path d="M48.9037 34.1046C48.7979 34.1046 48.7065 34.0182 48.6962 33.9058C48.6858 33.787 48.7709 33.6833 48.885 33.6725L52.853 33.329C52.9713 33.3182 53.0668 33.4068 53.0772 33.5256C53.0875 33.6444 53.0024 33.7481 52.8883 33.7589L48.9203 34.1024C48.9203 34.1024 48.9079 34.1024 48.9037 34.1024V34.1046Z" fill="white"/>
<path d="M4.74458 40.0001H25.8567L20.4506 18.9999C20.1393 17.7922 18.865 16.8676 17.7672 17.0556L1.16466 19.8813C0.282655 20.0303 -0.182215 20.8555 0.0668223 21.8255L4.74458 40.0001Z" fill="#0B0B16"/>
<path d="M40.707 40H13.2361V37.6172H38.8434C39.8728 37.6172 40.707 38.4856 40.707 39.5571V40Z" fill="#0B0B16"/>
<path d="M9.72506 30.1322C10.109 31.3139 11.0346 32.0549 11.79 31.787C12.5454 31.5213 12.8484 30.3461 12.4645 29.1666C12.0805 27.9849 11.1549 27.2439 10.3995 27.5118C9.64412 27.7775 9.34112 28.9527 9.72506 30.1322Z" fill="white"/>
<path d="M19.0647 7.45333H14.9556C13.4863 7.45333 12.293 8.69334 12.293 10.225V10.9098C12.293 12.1714 13.1044 13.2343 14.2126 13.5691V15.4313L16.1427 13.6793H19.0647C20.534 13.6793 21.7273 12.4393 21.7273 10.9076V10.2228C21.7273 8.69334 20.5361 7.45117 19.0647 7.45117V7.45333Z" fill="white"/>
<path d="M14.2131 15.6444C14.1841 15.6444 14.155 15.6379 14.128 15.625C14.0533 15.5904 14.0056 15.5126 14.0056 15.4284V13.7239C12.8683 13.307 12.0859 12.1728 12.0859 10.9069V10.2221C12.0859 8.57592 13.3726 7.23438 14.9561 7.23438H19.0652C20.6466 7.23438 21.9354 8.57376 21.9354 10.2221V10.9069C21.9354 12.553 20.6487 13.8946 19.0652 13.8946H16.222L14.3501 15.5926C14.3107 15.6271 14.2629 15.6466 14.2131 15.6466V15.6444ZM14.9561 7.66643C13.603 7.66643 12.501 8.81139 12.501 10.2221V10.9069C12.501 12.0345 13.2294 13.0434 14.2712 13.3588C14.3605 13.3847 14.4207 13.4711 14.4207 13.5662V14.9531L16.0062 13.5143C16.0436 13.4798 16.0934 13.4603 16.1432 13.4603H19.0652C20.4183 13.4603 21.5203 12.3154 21.5203 10.9047V10.2199C21.5203 8.81139 20.4204 7.66427 19.0652 7.66427H14.9561V7.66643Z" fill="#0B0B16"/>
<path d="M19.333 9.96721H14.5474C14.4332 9.96721 14.3398 9.87 14.3398 9.75119C14.3398 9.63237 14.4332 9.53516 14.5474 9.53516H19.333C19.4472 9.53516 19.5406 9.63237 19.5406 9.75119C19.5406 9.87 19.4472 9.96721 19.333 9.96721Z" fill="#0B0B16"/>
<path d="M19.333 11.3559H14.5474C14.4332 11.3559 14.3398 11.2587 14.3398 11.1399C14.3398 11.021 14.4332 10.9238 14.5474 10.9238H19.333C19.4472 10.9238 19.5406 11.021 19.5406 11.1399C19.5406 11.2587 19.4472 11.3559 19.333 11.3559Z" fill="#0B0B16"/>
</g>
<defs>
<clipPath id="clip0_25883_43283">
<rect width="62" height="40" fill="white"/>
</clipPath>
</defs>
</svg>
