<svg width="59" height="49" viewBox="0 0 59 49" fill="none" xmlns="http://www.w3.org/2000/svg">
<g clip-path="url(#clip0_25883_43125)">
<path d="M57.435 23.3431C56.3622 21.8465 54.7695 20.9161 53.0658 20.7889L50.7099 20.6133L43.6422 20.813L41.5472 20.2995C38.3152 19.5073 35.0013 21.2694 33.4865 24.5829L30.3927 31.3526C30.3654 31.4118 30.3635 31.4798 30.3868 31.5413C30.4102 31.6027 30.4569 31.6466 30.5134 31.6642L32.1197 32.1601L31.2747 34.7582C31.265 34.7911 31.263 34.824 31.265 34.8548C30.7101 34.8504 30.1493 34.9118 29.5944 35.0435L27.8771 35.4494C27.8401 35.4582 27.807 35.478 27.7798 35.5087L22.9979 40.8981C22.9609 40.9398 22.9414 40.9946 22.9414 41.0539C22.9414 41.1131 22.9628 41.168 22.9979 41.2097L23.2997 41.5498C23.9266 42.2564 24.9449 42.2564 25.5699 41.5498L27.7992 39.0372L31.0878 42.7435C32.0379 43.8144 33.2996 44.4025 34.6431 44.4025H38.2217L48.4241 47.9113C49.0686 48.1329 49.7325 48.2426 50.3926 48.2426C51.6562 48.2426 52.9081 47.8411 54.0004 47.0599C55.6612 45.8727 56.7769 43.9329 57.0592 41.7363L58.7375 28.693C58.9829 26.7883 58.5078 24.8397 57.433 23.3431H57.435Z" fill="white"/>
<path d="M17.3516 36.877V41.4017H17.7449C18.4633 41.4017 19.0455 40.7456 19.0455 39.9359V37.2697L17.3516 36.877Z" fill="white"/>
<path d="M17.7443 41.6221H17.351C17.2439 41.6221 17.1562 41.5233 17.1562 41.4026V36.8778C17.1562 36.812 17.1835 36.7484 17.2283 36.7067C17.2731 36.665 17.3334 36.6496 17.3899 36.6628L19.0838 37.0556C19.1734 37.0775 19.2396 37.1653 19.2396 37.2706V39.9368C19.2396 40.8672 18.5678 41.6221 17.7443 41.6221ZM17.5457 41.1832H17.7443C18.3537 41.1832 18.8502 40.6236 18.8502 39.9368V37.4506L17.5457 37.1477V41.1832Z" fill="#0B0B16"/>
<path d="M25.648 41.9199H22.0421C20.761 41.9199 19.5304 41.345 18.6251 40.3246L15.2002 36.4647L12.8327 39.133C12.2816 39.754 11.388 39.754 10.8369 39.133L10.5352 38.7929L15.3171 33.4035L20.099 32.2734L26.0024 36.5327H31.5378V41.9221H25.648V41.9199Z" fill="white"/>
<path d="M31.5396 42.139H22.042C20.6985 42.139 19.4369 41.5487 18.4867 40.4801L15.1982 36.7738L12.9688 39.2863C12.6651 39.6286 12.262 39.8174 11.8337 39.8174C11.4054 39.8174 11.0023 39.6286 10.6986 39.2863L10.3968 38.9462C10.3209 38.8606 10.3209 38.7224 10.3968 38.6368L15.1787 33.2474C15.206 33.2167 15.2391 33.1969 15.2761 33.1882L20.058 32.0559C20.1066 32.0427 20.1592 32.0559 20.202 32.0866L26.0587 36.3108H31.5376C31.6447 36.3108 31.7323 36.4095 31.7323 36.5302V41.9196C31.7323 42.0403 31.6447 42.139 31.5376 42.139H31.5396ZM15.1982 36.2427C15.2507 36.2427 15.2994 36.2669 15.3364 36.3064L18.7612 40.1663C19.6374 41.1537 20.8017 41.6979 22.042 41.6979H31.3449V36.7474H26.0042C25.9672 36.7474 25.9302 36.7365 25.899 36.7123L20.0618 32.5013L15.4143 33.6007L10.8115 38.7882L10.9751 38.9725C11.2048 39.2315 11.5105 39.3741 11.8356 39.3741C12.1608 39.3741 12.4665 39.2315 12.6962 38.9725L15.0638 36.3042C15.1008 36.2625 15.1495 36.2405 15.2021 36.2405L15.1982 36.2427Z" fill="#0B0B16"/>
<path d="M16.3271 36.9883L13.4883 40.1877L13.7667 40.5015C14.2749 41.0742 15.0985 41.0742 15.6067 40.5015L17.2791 38.6165L16.329 36.9883H16.3271Z" fill="white"/>
<path d="M14.6856 41.1486C14.302 41.1486 13.9204 40.984 13.6283 40.6549L13.3499 40.3411C13.274 40.2555 13.274 40.1173 13.3499 40.0317L16.1887 36.8323C16.2296 36.7862 16.288 36.7621 16.3464 36.7686C16.4048 36.7752 16.4574 36.8103 16.4885 36.8652L17.4387 38.4934C17.4893 38.5812 17.4796 38.6953 17.4134 38.7699L15.7409 40.6549C15.4488 40.984 15.0653 41.1486 14.6836 41.1486H14.6856ZM13.7627 40.1875L13.9029 40.3455C14.3332 40.8304 15.036 40.8304 15.4683 40.3455L17.0279 38.5878L16.2958 37.3348L13.7627 40.1897V40.1875Z" fill="#0B0B16"/>
<path d="M17.0276 37.1191L15.2422 41.1721L15.5946 41.3696C16.2391 41.7295 17.0198 41.4333 17.3391 40.7091L18.3905 38.3217L17.0296 37.1213L17.0276 37.1191Z" fill="white"/>
<path d="M16.1695 41.7407C15.9456 41.7407 15.7198 41.6836 15.5075 41.5651L15.1551 41.3676C15.1084 41.3413 15.0733 41.2952 15.0578 41.2403C15.0402 41.1855 15.0441 41.124 15.0675 41.0736L16.8529 37.0206C16.8782 36.9613 16.9269 36.9196 16.9834 36.9043C17.0398 36.8889 17.1002 36.9043 17.1469 36.946L18.5079 38.1463C18.5799 38.2099 18.6033 38.324 18.5624 38.4162L17.511 40.8037C17.2501 41.3961 16.7186 41.7407 16.1695 41.7407ZM15.5036 41.0736L15.6808 41.1723C16.2279 41.4773 16.8919 41.225 17.1645 40.6106L18.1458 38.3833L17.0963 37.4573L15.5036 41.0736Z" fill="#0B0B16"/>
<path d="M22.6483 27.7971L12.8236 39.3658L11.9883 42.0364L14.2352 41.0796L24.0599 29.5109L24.0209 29.3441C23.8496 28.6266 23.3667 28.0539 22.7378 27.8278L22.6483 27.7949V27.7971Z" fill="#F05757"/>
<path d="M23.6314 30.3254C23.5807 30.3254 23.5301 30.3035 23.4931 30.2596L22.1263 28.6928C22.0504 28.6072 22.0523 28.4668 22.1282 28.3834C22.2042 28.2978 22.3288 28.3 22.4028 28.3856L23.7696 29.9524C23.8455 30.038 23.8436 30.1784 23.7676 30.2618C23.7287 30.3035 23.68 30.3254 23.6314 30.3254Z" fill="#0B0B16"/>
<path d="M19.4489 37.0627H13.7227V37.0957C13.7927 38.1599 14.5151 39.0223 15.4555 39.1584L18.1171 39.7223L19.4489 37.0605V37.0627Z" fill="white"/>
<path d="M18.1156 39.9444C18.1039 39.9444 18.0922 39.9444 18.0786 39.94L15.417 39.3761C14.4006 39.229 13.6024 38.2767 13.5284 37.1115V37.0785C13.5225 37.0171 13.542 36.9579 13.577 36.914C13.614 36.8701 13.6647 36.8438 13.7192 36.8438H19.4454C19.5525 36.8438 19.6401 36.9425 19.6401 37.0632C19.6401 37.1839 19.5525 37.2826 19.4454 37.2826H13.9372C14.0696 38.145 14.6927 38.8297 15.4773 38.9416L18.1506 39.5077C18.2558 39.5297 18.3259 39.6438 18.3064 39.7645C18.2889 39.8698 18.2071 39.9422 18.1156 39.9422V39.9444Z" fill="#0B0B16"/>
<path d="M8.58896 39.9749C8.58896 38.9523 9.32493 38.125 10.2303 38.125H1.83666C0.929343 38.125 0.195312 38.9545 0.195312 39.9749C0.195312 40.9952 0.93129 41.8247 1.83666 41.8247H10.2303C9.32299 41.8247 8.58896 40.9952 8.58896 39.9749Z" fill="white"/>
<path d="M10.2297 42.047H1.83605C0.823593 42.047 0 41.1188 0 39.9777C0 38.8367 0.823593 37.9062 1.83605 37.9062H10.2297C10.3368 37.9062 10.4244 38.005 10.4244 38.1257C10.4244 38.2464 10.3368 38.3451 10.2297 38.3451C9.43141 38.3451 8.78305 39.078 8.78305 39.9777C8.78305 40.8774 9.43141 41.6082 10.2297 41.6082C10.3368 41.6082 10.4244 41.7069 10.4244 41.8276C10.4244 41.9483 10.3368 42.047 10.2297 42.047ZM1.83605 38.3451C1.03777 38.3451 0.389406 39.078 0.389406 39.9777C0.389406 40.8774 1.03971 41.6082 1.83605 41.6082H9.10042C8.67012 41.2285 8.39364 40.6382 8.39364 39.9777C8.39364 39.3172 8.67012 38.7248 9.10042 38.3451H1.83605Z" fill="#0B0B16"/>
<path d="M24.6462 42.183H1.65564C1.54855 42.183 1.46094 42.0843 1.46094 41.9636C1.46094 41.8429 1.54855 41.7441 1.65564 41.7441H24.6481C24.7552 41.7441 24.8428 41.8429 24.8428 41.9636C24.8428 42.0843 24.7552 42.183 24.6481 42.183H24.6462Z" fill="#0B0B16"/>
<path d="M28.2291 41.3952L30.5831 38.7422H27.9858L25.9336 41.0551L26.2354 41.3952C26.7864 42.0162 27.6801 42.0162 28.2311 41.3952H28.2291Z" fill="#0B0B16"/>
<path d="M27.2321 42.0805C26.8038 42.0805 26.4008 41.8918 26.097 41.5495L25.7952 41.2093C25.7193 41.1238 25.7193 40.9855 25.7952 40.8999L27.8474 38.5871C27.8844 38.5454 27.9331 38.5234 27.9856 38.5234H30.583C30.6609 38.5234 30.7329 38.5761 30.7621 38.6595C30.7933 38.7407 30.7757 38.835 30.7193 38.8987L28.3653 41.5517C28.0616 41.894 27.6585 42.0827 27.2302 42.0827L27.2321 42.0805ZM26.208 41.0557L26.3716 41.2401C26.6013 41.499 26.907 41.6416 27.2321 41.6416C27.5573 41.6416 27.863 41.499 28.0927 41.2401L30.1137 38.9623H28.0674L26.2099 41.0557H26.208Z" fill="#0B0B16"/>
<path d="M30.9674 41.3952L33.3214 38.7422H30.724L28.6719 41.0551L28.9737 41.3952C29.5247 42.0162 30.4184 42.0162 30.9694 41.3952H30.9674Z" fill="#0B0B16"/>
<path d="M29.9704 42.0805C29.5421 42.0805 29.139 41.8918 28.8353 41.5495L28.5335 41.2093C28.4576 41.1238 28.4576 40.9855 28.5335 40.8999L30.5857 38.5871C30.6227 38.5454 30.6714 38.5234 30.7239 38.5234H33.3213C33.3991 38.5234 33.4712 38.5761 33.5004 38.6595C33.5315 38.7407 33.514 38.835 33.4575 38.8987L31.1036 41.5517C30.7999 41.894 30.3968 42.0827 29.9685 42.0827L29.9704 42.0805ZM28.9463 41.0557L29.1098 41.2401C29.3396 41.499 29.6453 41.6416 29.9704 41.6416C30.2956 41.6416 30.6013 41.499 30.831 41.2401L32.852 38.9623H30.8057L28.9482 41.0557H28.9463Z" fill="#0B0B16"/>
<path d="M37.381 38.15C37.2739 38.15 37.1863 38.0512 37.1863 37.9305V33.7217L30.5177 31.6634C30.4613 31.6459 30.4145 31.5998 30.3912 31.5405C30.3678 31.4791 30.3698 31.4111 30.397 31.3518L33.4889 24.5822C35.0037 21.2687 38.3156 19.5088 41.5496 20.2988L43.668 20.8188C43.7731 20.8452 43.8393 20.9615 43.8159 21.08C43.7926 21.1985 43.6894 21.2731 43.5842 21.2467L41.4659 20.7267C38.4071 19.9762 35.2685 21.6439 33.8355 24.7819L30.8526 31.3101L37.4336 33.3399C37.5173 33.3662 37.5777 33.4518 37.5777 33.5506V37.9261C37.5777 38.0468 37.49 38.1456 37.383 38.1456L37.381 38.15Z" fill="#0B0B16"/>
<path d="M50.7125 20.834L53.0509 21.0095C56.5108 21.2685 59.0419 24.7948 58.5435 28.6635L56.8651 41.7068C56.2888 46.179 52.3149 49.0207 48.4793 47.7019L38.2496 44.1843H34.6437C33.3625 44.1843 32.132 43.6094 31.2266 42.589L27.8018 38.7291L25.4342 41.3974C24.8832 42.0184 23.9895 42.0184 23.4385 41.3974L23.1367 41.0573L27.9186 35.6679L29.6359 35.262C31.6005 34.7968 33.6487 35.2203 35.3407 36.4403L38.6059 38.7949L47.4084 39.2491L48.3819 30.0416L50.7164 20.834H50.7125Z" fill="white"/>
<path d="M50.3892 48.2429C49.7291 48.2429 49.0671 48.1332 48.4207 47.9116L38.2183 44.4028H34.6396C33.2962 44.4028 32.0345 43.8125 31.0844 42.7438L27.7958 39.0376L25.5665 41.5501C25.2627 41.8924 24.8597 42.0812 24.4314 42.0812C24.003 42.0812 23.6 41.8924 23.2962 41.5501L22.9945 41.21C22.9185 41.1244 22.9185 40.9862 22.9945 40.9006L27.7764 35.5112C27.8036 35.4805 27.8367 35.4607 27.8737 35.452L29.591 35.046C31.6178 34.5654 33.6953 34.9955 35.4399 36.2529L38.6622 38.5767L47.2311 39.0178L48.1812 30.0121C48.1949 29.8914 48.2903 29.8058 48.3973 29.819C48.5044 29.8344 48.5804 29.9419 48.5687 30.0626L47.5952 39.2702C47.5835 39.3843 47.49 39.4655 47.3927 39.4633L38.5902 39.0112C38.5571 39.0112 38.522 38.9981 38.4948 38.9761L35.2296 36.6216C33.5707 35.4256 31.5984 35.0175 29.6708 35.4739L28.0119 35.8667L23.4092 41.0542L23.5727 41.2385C23.8025 41.4974 24.1082 41.6401 24.4333 41.6401C24.7585 41.6401 25.0641 41.4974 25.2939 41.2385L27.6615 38.5702C27.7374 38.4846 27.8601 38.4846 27.936 38.5702L31.3608 42.4301C32.237 43.4175 33.4013 43.9617 34.6416 43.9617H38.2475C38.267 43.9617 38.2864 43.9639 38.3039 43.9705L48.5336 47.4881C50.3074 48.0981 52.2233 47.8063 53.7887 46.6871C55.3541 45.568 56.4055 43.7401 56.6703 41.673L58.3486 28.6297C58.5823 26.8193 58.1481 25.0419 57.1278 23.6199C56.1076 22.198 54.6551 21.3487 53.0352 21.228L50.6968 21.0525C50.5897 21.0437 50.5079 20.9406 50.5157 20.8199C50.5235 20.6992 50.6189 20.607 50.7221 20.6158L53.0605 20.7914C54.7641 20.9186 56.3568 21.8512 57.4296 23.3456C58.5024 24.8422 58.9775 26.7908 58.7341 28.6955L57.0558 41.7388C56.7735 43.9332 55.6578 45.873 53.997 47.0624C52.9047 47.8436 51.6528 48.2451 50.3892 48.2451V48.2429Z" fill="#0B0B16"/>
<path d="M37.3783 38.1622C37.2712 38.1622 37.1836 38.0634 37.1836 37.9427V28.2546C37.1836 28.1339 37.2712 28.0352 37.3783 28.0352C37.4854 28.0352 37.573 28.1339 37.573 28.2546V37.9427C37.573 38.0634 37.4854 38.1622 37.3783 38.1622Z" fill="#0B0B16"/>
<path d="M31.4588 35.0551C31.4374 35.0551 31.414 35.0507 31.3926 35.0419C31.2913 35.0002 31.2407 34.8752 31.2777 34.7611L32.1695 32.0181C32.2064 31.904 32.3174 31.8469 32.4187 31.8886C32.5199 31.9303 32.5705 32.0554 32.5335 32.1695L31.6418 34.9125C31.6126 35.0002 31.5386 35.0573 31.4588 35.0573V35.0551Z" fill="#0B0B16"/>
<path d="M49.744 39.4682H47.4095C47.3025 39.4682 47.2148 39.3694 47.2148 39.2487C47.2148 39.128 47.3025 39.0293 47.4095 39.0293H49.744C49.8511 39.0293 49.9387 39.128 49.9387 39.2487C49.9387 39.3694 49.8511 39.4682 49.744 39.4682Z" fill="#0B0B16"/>
<path d="M43.5705 16.093L45.5818 15.7551C47.8949 15.3667 49.5031 12.9177 49.1585 10.3108L49.0397 9.41333C48.6075 6.1503 45.8875 3.87913 42.9922 4.36408L42.891 5.29888C41.0764 5.6039 39.8127 7.52617 40.0834 9.57132L40.6188 13.6287C40.8291 15.2218 42.157 16.33 43.5705 16.093Z" fill="#0B0B16"/>
<path d="M45.7857 15.4112C48.1835 14.178 49.2941 11.1208 48.2664 8.58274C47.2387 6.04471 44.4618 4.98695 42.0641 6.22017C39.6664 7.4534 38.5558 10.5106 39.5835 13.0486C40.6112 15.5867 43.388 16.6444 45.7857 15.4112Z" fill="#0B0B16"/>
<path d="M43.1785 20.6703C44.3311 19.6763 45.0146 18.0525 44.8588 16.3057L44.7167 14.6973L40.9297 15.1186L43.1785 20.6703Z" fill="#0B0B16"/>
<path d="M45.286 10.9145C44.9355 9.23583 43.703 7.89288 42.2369 7.73927C41.3237 7.64272 40.5002 8.02893 39.9258 8.72235C40.323 8.56874 41.4581 8.21106 41.9857 8.89351C42.6322 9.72737 43.409 11.5553 45.286 10.9167V10.9145Z" fill="#0B0B16"/>
<path d="M37.6485 9.42863C37.8218 10.7431 38.9082 11.6493 40.0745 11.454C41.2408 11.2587 42.0449 10.0343 41.8716 8.71985C41.6983 7.40542 40.6119 6.49914 39.4456 6.69444C38.2793 6.88974 37.4752 8.1142 37.6485 9.42863Z" fill="#0B0B16"/>
<path d="M43.9309 4.95831C46.2576 4.90126 48.3175 6.7555 48.7517 9.37997C48.2883 9.85176 47.6925 10.1831 47.0169 10.2972C45.2607 10.5913 43.6369 9.30536 43.3877 7.42259C43.2689 6.52509 43.485 5.65612 43.9328 4.95831H43.9309Z" fill="#0B0B16"/>
<path d="M44.3642 8.77376C45.3494 8.0449 45.6239 6.55386 44.9772 5.44344C44.3305 4.33301 43.0075 4.02369 42.0223 4.75255C41.037 5.48141 40.7625 6.97244 41.4092 8.08287C42.0559 9.19329 43.3789 9.50262 44.3642 8.77376Z" fill="#0B0B16"/>
<path d="M38.6377 7.64901C38.8168 9.00074 39.9324 9.93335 41.1318 9.73146C42.3312 9.52958 43.1587 8.27221 42.9795 6.92048C42.8004 5.56874 41.6848 4.63613 40.4854 4.83802C39.286 5.0399 38.4585 6.29727 38.6377 7.64901Z" fill="#0B0B16"/>
<path d="M46.4522 6.51356C46.4522 6.51356 46.4366 6.51356 46.4288 6.51356C46.3217 6.4982 46.2458 6.38848 46.2594 6.26779C46.3587 5.36371 47.194 5.0148 47.229 5.00163C47.3303 4.95994 47.4412 5.01919 47.4782 5.1333C47.5152 5.2474 47.4627 5.37248 47.3614 5.41418C47.3497 5.41857 46.715 5.69067 46.6449 6.32265C46.6332 6.43456 46.5495 6.51575 46.4522 6.51575V6.51356Z" fill="#0B0B16"/>
<path d="M46.3578 6.46951C46.3032 6.46951 46.2487 6.44318 46.2117 6.3949C46.1416 6.30274 46.1494 6.16449 46.2312 6.08549C46.6596 5.66417 46.4999 4.91589 46.498 4.90931C46.4726 4.79301 46.5349 4.67232 46.6401 4.64379C46.7433 4.61307 46.8504 4.68548 46.8757 4.80179C46.8854 4.84348 47.0957 5.81778 46.4863 6.41684C46.4493 6.45415 46.4045 6.4717 46.3578 6.4717V6.46951Z" fill="#0B0B16"/>
<path d="M42.8715 21.5226L43.4323 21.2966L42.4549 18.8828C42.1745 18.953 41.8824 18.9881 41.5806 18.9728C39.7504 18.8806 38.3349 17.1339 38.4167 15.0712L38.4732 13.6339C38.1149 13.5724 37.8462 13.2191 37.8599 12.8022C37.8735 12.3809 38.1714 12.0495 38.5374 12.0232L38.553 11.6107C38.6348 9.54796 40.1846 7.95265 42.0148 8.04482C43.5588 8.12381 44.8069 9.3768 45.1106 11.0072C45.7317 10.9085 46.3489 11.3144 46.5592 12.0079C46.7442 12.6113 46.567 13.2564 46.1581 13.647L48.8898 20.3903L50.4221 20.8599C50.5428 22.2709 50.0288 23.9386 48.9248 25.3013C47.1725 27.465 44.6044 28.0377 43.1869 26.5807C42.0791 25.4418 42.009 23.3988 42.8676 21.527L42.8715 21.5226Z" fill="white"/>
<path d="M45.155 27.6023C44.3392 27.6023 43.6129 27.306 43.06 26.7377C41.9229 25.5681 41.7769 23.4308 42.6978 21.4207C42.7212 21.3703 42.7582 21.333 42.8049 21.3154L43.1671 21.1706L42.3415 19.132C42.0826 19.1847 41.8256 19.2044 41.5724 19.1913C40.6359 19.143 39.7714 18.6887 39.1387 17.9076C38.5059 17.1286 38.1807 16.1169 38.2236 15.0615L38.2742 13.7997C37.9042 13.6505 37.6531 13.2467 37.6687 12.7925C37.6842 12.3295 37.9665 11.9476 38.3521 11.8335L38.3618 11.5987C38.4494 9.41973 40.0869 7.72567 42.0261 7.82442C43.5682 7.90342 44.8766 9.10374 45.264 10.7715C45.9143 10.7517 46.5276 11.2191 46.7477 11.9345C46.9385 12.5577 46.8002 13.2335 46.3972 13.6988L49.0315 20.2051L50.4762 20.6461C50.5541 20.6703 50.6106 20.7449 50.6183 20.837C50.7507 22.3643 50.1725 24.0891 49.0724 25.4474C48.1962 26.5292 47.0962 27.2622 45.9727 27.5123C45.6924 27.5738 45.4198 27.6045 45.155 27.6045V27.6023ZM43.0094 21.6994C42.2072 23.5076 42.3298 25.3947 43.3209 26.4151C43.9595 27.0712 44.8727 27.3082 45.8949 27.08C46.9385 26.8474 47.9645 26.1628 48.7842 25.149C49.7753 23.9267 50.3127 22.3972 50.2406 21.0279L48.8407 20.6C48.7842 20.5825 48.7395 20.5386 48.7142 20.4794L45.9825 13.7361C45.9455 13.6461 45.9669 13.5408 46.0331 13.4771C46.3952 13.1304 46.5296 12.5818 46.3758 12.0771C46.1986 11.4956 45.6748 11.1379 45.1375 11.2235C45.0362 11.2389 44.9408 11.1643 44.9194 11.0523C44.6273 9.48336 43.428 8.3379 42.0047 8.26549C40.2874 8.1821 38.8232 9.68525 38.7473 11.6229L38.7317 12.0354C38.7278 12.1473 38.648 12.2373 38.5487 12.2439C38.2761 12.2636 38.0639 12.5072 38.0542 12.8122C38.0444 13.1129 38.2372 13.374 38.502 13.4201C38.5993 13.4376 38.6714 13.5342 38.6675 13.6461L38.611 15.0834C38.574 16.0226 38.8622 16.9201 39.4249 17.6135C39.9876 18.3069 40.7566 18.7129 41.588 18.7546C41.8548 18.7677 42.1332 18.7392 42.4097 18.669C42.4992 18.6471 42.5907 18.6975 42.6297 18.7919L43.6071 21.2057C43.6305 21.2606 43.6305 21.3264 43.609 21.3812C43.5876 21.4383 43.5467 21.4822 43.4961 21.5019L43.0074 21.6994H43.0094Z" fill="#0B0B16"/>
<path d="M45.2225 13.1779C45.133 13.1779 45.0512 13.1077 45.0317 13.0045C44.8896 12.2453 45.427 11.8349 45.4503 11.8174C45.5399 11.7515 45.6606 11.7779 45.721 11.8788C45.7794 11.9797 45.756 12.1158 45.6664 12.1816C45.6528 12.1926 45.3257 12.4493 45.4133 12.9124C45.4347 13.0308 45.3685 13.1471 45.2634 13.1735C45.2498 13.1757 45.2361 13.1779 45.2225 13.1779Z" fill="#0B0B16"/>
<path d="M39.5097 14.3317C39.3967 14.3317 39.2955 14.3053 39.2215 14.2724C39.1222 14.2263 39.0755 14.0969 39.1164 13.985C39.1572 13.873 39.2702 13.8204 39.3675 13.8643C39.4123 13.884 39.8017 14.0266 40.0821 13.3749C40.1288 13.2652 40.2456 13.2191 40.341 13.2718C40.4384 13.3244 40.4793 13.4561 40.4325 13.5658C40.1755 14.1671 39.7978 14.3317 39.5097 14.3317Z" fill="#0B0B16"/>
<path d="M39.3851 11.9784C39.4065 12.1868 39.5467 12.3405 39.6986 12.3207C39.8504 12.301 39.9575 12.1166 39.9381 11.9082C39.9186 11.6997 39.7764 11.5483 39.6246 11.5658C39.4727 11.5856 39.3656 11.7699 39.3851 11.9784Z" fill="#0B0B16"/>
<path d="M39.5949 10.653C39.554 10.7759 39.7662 10.9778 40.068 11.1051C40.3698 11.2324 40.6482 11.2346 40.6891 11.1117C40.73 10.9888 40.5178 10.7869 40.216 10.6596C39.9142 10.5324 39.6358 10.5302 39.5949 10.653Z" fill="#0B0B16"/>
<path d="M43.1355 8.12165C44.5724 7.93512 45.9431 8.94892 46.3442 10.5464C46.0813 10.869 45.7289 11.1126 45.3162 11.2267C44.2453 11.5229 43.1744 10.8317 42.9233 9.68184C42.8045 9.13545 42.8941 8.58246 43.1355 8.12165Z" fill="#0B0B16"/>
<path d="M42.4523 19.0634C42.3647 19.0634 42.2849 18.9975 42.2634 18.8966C42.2381 18.7781 42.3004 18.6596 42.4056 18.6311C43.7354 18.258 44.7089 16.9195 44.7712 15.3746C44.7751 15.2539 44.8666 15.1618 44.9737 15.1662C45.0808 15.1706 45.1645 15.2737 45.1587 15.3944C45.0886 17.1323 43.9963 18.6399 42.499 19.0568C42.4835 19.0612 42.4679 19.0634 42.4523 19.0634Z" fill="#0B0B16"/>
<path d="M57.4002 36.3271C57.3691 36.3271 57.336 36.3183 57.3068 36.3007C55.1962 34.9863 52.813 34.4465 50.4163 34.7427L47.8403 35.0609C47.7313 35.0741 47.6378 34.9863 47.6262 34.8656C47.6145 34.7449 47.6924 34.6374 47.7975 34.6242L50.3734 34.306C52.852 34.001 55.313 34.5562 57.4957 35.9145C57.5891 35.9738 57.6242 36.1076 57.5716 36.213C57.5365 36.2854 57.4703 36.3271 57.4002 36.3271Z" fill="#0B0B16"/>
<path d="M12.4414 6.19761V18.4883C12.4414 19.9804 13.5162 21.1917 14.8401 21.1917H28.9094C30.2334 21.1917 31.3081 19.9804 31.3081 18.4883V17.1365H35.5059L31.3081 12.4055V6.19761C31.3081 4.70543 30.2334 3.49414 28.9094 3.49414H14.8401C13.5162 3.49414 12.4414 4.70543 12.4414 6.19761Z" fill="#F05757"/>
<path d="M21.7421 14.131C21.6857 14.131 21.6272 14.1024 21.5903 14.0476C20.8523 13.003 19.9684 12.1143 18.9657 11.4077L18.29 10.9316C16.4131 9.61055 15.5934 7.03436 16.2963 4.66883C17.1316 1.86003 19.8399 0.341528 22.3301 1.28291C24.429 2.07508 25.7588 4.366 25.5622 6.85003L25.4921 7.74314C25.387 9.08171 25.4843 10.4225 25.7842 11.7237C25.8114 11.84 25.7491 11.9607 25.644 11.9914C25.5408 12.0222 25.4337 11.9519 25.4064 11.8334C25.0949 10.4839 24.9937 9.09487 25.1027 7.70584L25.1728 6.81273C25.3519 4.53058 24.1311 2.42838 22.2036 1.69984C19.9158 0.835262 17.4295 2.23088 16.6623 4.80927C16.0159 6.98169 16.7694 9.34723 18.4925 10.5607L19.1681 11.0369C20.2098 11.7698 21.1269 12.6914 21.892 13.7755C21.9582 13.8698 21.9446 14.0081 21.8609 14.0849C21.8258 14.1178 21.783 14.1332 21.7402 14.1332L21.7421 14.131Z" fill="black"/>
<path d="M25.1859 16.4103C24.0528 17.0467 22.6782 16.5266 22.1135 15.2495L21.5703 14.0206L25.6727 11.7188L26.2159 12.9476C26.7806 14.2247 26.3191 15.7761 25.1859 16.4103Z" fill="#0B0B16"/>
<path d="M22.9779 13.2811C22.9059 13.2811 22.8377 13.2372 22.8027 13.1604L21.2606 9.66918C21.1243 9.72843 20.9861 9.7767 20.8498 9.81181C19.9522 10.0378 19.2649 9.6209 19.1442 9.10742C19.0722 8.8024 19.189 8.40961 19.7303 8.2209C20.5772 7.92246 21.395 9.03501 21.43 9.08109C21.4339 9.08548 21.4378 9.09206 21.4398 9.09645C21.6695 8.9604 21.8895 8.78924 22.0901 8.59174C22.0394 8.48861 21.9966 8.40083 21.9616 8.335C21.5468 7.5582 21.3813 7.07543 21.5605 6.41932C21.7474 5.74345 22.129 5.36163 22.5846 5.39454C22.9915 5.42307 23.3381 5.78514 23.4121 6.25254C23.5445 7.10835 23.1668 7.99707 22.571 8.67952C23.1454 9.91934 24.1617 12.331 24.2143 12.4516C24.261 12.5614 24.2182 12.693 24.1228 12.7435C24.0254 12.7962 23.9086 12.7479 23.8638 12.6404C23.8521 12.6118 22.8591 10.2573 22.277 8.98673C22.0706 9.17983 21.8467 9.3488 21.615 9.48485L23.1512 12.9629C23.1999 13.0705 23.159 13.2021 23.0636 13.257C23.0363 13.2723 23.0071 13.2811 22.9779 13.2811ZM20.0243 8.6071C19.9639 8.6071 19.9055 8.61588 19.8471 8.63783C19.7575 8.66855 19.4733 8.78704 19.5219 8.99331C19.5784 9.2325 20.0418 9.56604 20.7661 9.38391C20.8673 9.35758 20.9686 9.32466 21.0698 9.28297C20.8654 9.03281 20.4312 8.6093 20.0243 8.6093V8.6071ZM22.5359 5.82903C22.2789 5.82903 22.0609 6.08797 21.9363 6.54878C21.8097 7.00521 21.8876 7.34095 22.2984 8.10679C22.3237 8.15287 22.351 8.20773 22.3821 8.27137C22.8475 7.69644 23.1356 6.98766 23.0324 6.32496C22.9915 6.05724 22.7891 5.84439 22.5651 5.82903C22.5554 5.82903 22.5476 5.82903 22.5379 5.82903H22.5359Z" fill="black"/>
<path d="M26.3663 4.31055C26.2885 4.31055 26.2145 4.25788 26.1853 4.1723C26.1463 4.06039 26.195 3.93312 26.2962 3.88703L28.2413 3.02684C28.3406 2.98295 28.4536 3.03781 28.4944 3.14973C28.5334 3.26164 28.4847 3.38891 28.3835 3.43499L26.4384 4.29519C26.415 4.30616 26.3917 4.31055 26.3663 4.31055Z" fill="#0B0B16"/>
<path d="M24.9952 1.94393C24.9427 1.94393 24.8901 1.91979 24.8512 1.87151C24.7791 1.78154 24.785 1.6433 24.8648 1.56211L26.3445 0.0567686C26.4244 -0.0244231 26.547 -0.0178399 26.6191 0.0721292C26.6911 0.162098 26.6853 0.300344 26.6054 0.381536L25.1257 1.88687C25.0887 1.92418 25.042 1.94393 24.9952 1.94393Z" fill="#0B0B16"/>
<path d="M28.622 7.48526C28.6025 7.48526 28.5811 7.48087 28.5616 7.47429L26.6302 6.7655C26.5289 6.7282 26.4725 6.60531 26.5056 6.48901C26.5387 6.37491 26.6477 6.31127 26.7509 6.34857L28.6824 7.05735C28.7836 7.09466 28.8401 7.21754 28.807 7.33385C28.7797 7.42601 28.7038 7.48526 28.622 7.48526Z" fill="#0B0B16"/>
</g>
<defs>
<clipPath id="clip0_25883_43125">
<rect width="58.8003" height="48.2432" fill="white"/>
</clipPath>
</defs>
</svg>
