<svg width="59" height="47" viewBox="0 0 59 47" fill="none" xmlns="http://www.w3.org/2000/svg">
<g clip-path="url(#clip0_25883_43201)">
<path d="M17.9804 25.3637L19.4786 26.3164C20.403 26.9043 21.5976 26.5789 22.1469 25.5896L26.5188 17.7158C27.0681 16.7265 26.7641 15.4479 25.8397 14.86L24.3415 13.9073C23.4171 13.3194 22.2224 13.6448 21.6731 14.6341L17.3013 22.5079C16.752 23.4972 17.056 24.7758 17.9804 25.3637Z" fill="white"/>
<path d="M20.4685 26.8254C20.0946 26.8254 19.7166 26.7204 19.3734 26.5018L17.8759 25.5507C16.8564 24.9013 16.5193 23.4867 17.1261 22.3934L21.4981 14.52C22.1049 13.429 23.4267 13.0682 24.4482 13.7176L25.9458 14.6687C26.9652 15.3181 27.3023 16.7327 26.6955 17.8259L22.3235 25.6994C21.921 26.4231 21.2039 26.8254 20.4705 26.8254H20.4685ZM18.0843 25.1746L19.5818 26.1257C20.4072 26.6505 21.4797 26.3597 21.9721 25.4742L26.3441 17.6007C26.8345 16.7174 26.5627 15.5695 25.7353 15.0448L24.2378 14.0937C23.4124 13.5689 22.3398 13.8597 21.8475 14.7452L17.4754 22.6186C16.9851 23.502 17.2568 24.6499 18.0843 25.1746Z" fill="black"/>
<path d="M33.0893 10.7569C33.2251 8.24341 30.2643 6.01571 26.4761 5.78124C22.6878 5.54676 19.5068 7.3943 19.3709 9.90783C19.2351 12.4214 22.196 14.6491 25.9842 14.8835C29.7724 15.118 32.9535 13.2705 33.0893 10.7569Z" fill="#0B0B16"/>
<path d="M15.8882 14.0288C16.256 13.3248 17.257 13.1761 18.1253 13.6943C18.2336 13.7577 18.3337 13.8298 18.4256 13.9064C18.7484 9.76305 21.8354 6.61237 25.4107 6.8332C29.0472 7.0584 31.8094 10.6879 31.5785 14.9406C31.3477 19.1932 28.2137 22.4576 24.5771 22.2324C21.6046 22.0487 19.2183 19.589 18.5707 16.3749C18.0947 16.6394 17.4123 16.6088 16.7974 16.2415C15.9291 15.7233 15.5225 14.7329 15.8882 14.0288Z" fill="white"/>
<path d="M24.9302 22.4619C24.8097 22.4619 24.6871 22.4575 24.5645 22.4509C21.6696 22.2717 19.1771 19.9125 18.4253 16.6765C17.9043 16.858 17.2649 16.7727 16.6969 16.4338C15.7306 15.8566 15.2893 14.7306 15.7102 13.9238C15.9185 13.5215 16.3026 13.2613 16.7909 13.1891C17.2567 13.1192 17.7675 13.2307 18.2251 13.5062C18.2353 13.5127 18.2476 13.5193 18.2578 13.5258C18.7399 9.40438 21.831 6.39801 25.4226 6.61884C29.1654 6.85061 32.0195 10.5916 31.7825 14.9558C31.5537 19.1778 28.5178 22.4641 24.9302 22.4641V22.4619ZM18.5704 16.1561C18.601 16.1561 18.6296 16.1627 18.6582 16.178C18.7154 16.2064 18.7583 16.2633 18.7706 16.3289C19.4203 19.5539 21.7595 21.8387 24.5891 22.0137C28.1092 22.2345 31.1512 19.0532 31.3739 14.9296C31.5966 10.8059 28.9162 7.27259 25.3981 7.05395C21.9209 6.83749 18.9463 9.85698 18.6296 13.926C18.6235 14.0069 18.5765 14.0768 18.5091 14.1074C18.4396 14.1402 18.3599 14.1293 18.3007 14.079C18.2149 14.0069 18.1209 13.9413 18.0269 13.8844C17.6449 13.657 17.2281 13.563 16.8481 13.6199C16.4906 13.6723 16.2127 13.856 16.0677 14.1359C15.7571 14.7328 16.129 15.592 16.8971 16.0512C17.4283 16.3682 18.0494 16.4185 18.4784 16.1824C18.507 16.1671 18.5397 16.1583 18.5724 16.1583L18.5704 16.1561Z" fill="black"/>
<path d="M25.5335 4.62472C28.0239 4.13932 30.3468 4.60722 31.7197 5.70264C32.0977 6.00437 31.7667 6.63407 31.3234 6.46134C29.9954 5.94315 28.2895 5.79884 26.4978 6.14867C22.8081 6.86802 20.1502 9.4043 20.5608 11.816C20.5772 11.9122 20.5996 12.0062 20.6242 12.098C20.0787 11.5995 19.715 10.9895 19.5965 10.292C19.1859 7.88035 21.8438 5.34406 25.5335 4.62472Z" fill="#0B0B16"/>
<path d="M14.3047 9.72326C15.2159 6.79779 17.927 4.96336 20.7872 5.33724L25.862 6.00192L25.2409 6.83059C25.7864 5.91228 27.7988 10.4251 22.4379 10.5279C21.3122 10.5497 20.8914 11.8157 20.5604 13.0467C20.3398 13.8688 20.1559 14.68 20.0006 15.4168C19.9209 15.795 18.3744 15.7032 18.4234 13.9081C18.3315 13.8316 18.2293 13.7595 18.1231 13.696C17.2548 13.1779 16.2537 13.3265 15.886 14.0306C15.5183 14.7346 15.9269 15.7251 16.7951 16.2433C17.4121 16.6106 18.0925 16.6412 18.5685 16.3766C18.8279 17.6623 19.3652 18.8277 20.1069 19.7744L18.7197 19.6891C17.9597 19.641 17.2895 19.1381 16.9872 18.3904L16.4131 16.9626L16.3314 16.8948C14.3047 15.2069 13.4916 12.3339 14.3027 9.72764L14.3047 9.72326Z" fill="#0B0B16"/>
<path d="M29.5487 15.1052C29.5099 15.4659 29.6733 15.783 29.9164 15.8136C30.1595 15.8442 30.3863 15.5774 30.4272 15.2167C30.466 14.8559 30.3025 14.5389 30.0594 14.5083C29.8163 14.4776 29.5895 14.7444 29.5487 15.1052Z" fill="black"/>
<path d="M25.0955 14.6579C25.0567 15.0187 25.2202 15.3357 25.4633 15.3663C25.7064 15.3969 25.9332 15.1302 25.974 14.7694C26.0149 14.4086 25.8494 14.0916 25.6063 14.061C25.3632 14.0304 25.1364 14.2971 25.0955 14.6579Z" fill="black"/>
<path d="M25.7114 19.1882C25.6971 19.1882 25.6828 19.1882 25.6685 19.1838C25.1639 19.0767 24.7144 18.7268 24.4652 18.2458C24.4059 18.1299 24.4448 17.9856 24.553 17.9222C24.6593 17.8588 24.7962 17.9004 24.8554 18.0162C25.0413 18.377 25.3784 18.6394 25.7543 18.7181C25.8749 18.7443 25.9525 18.8689 25.93 18.9979C25.9096 19.1116 25.8156 19.1904 25.7114 19.1904V19.1882Z" fill="black"/>
<path d="M27.7178 17.0557C27.6116 17.0557 27.5176 16.9726 27.4992 16.8567C27.4788 16.7277 27.5605 16.6031 27.6811 16.5812C28.0222 16.52 28.2735 16.1942 28.2654 15.8247L28.2408 14.6549C28.2388 14.5237 28.3348 14.4144 28.4574 14.4122C28.5779 14.4079 28.6821 14.5128 28.6842 14.644L28.7087 15.8138C28.723 16.4194 28.3123 16.9507 27.7546 17.0513C27.7423 17.0535 27.7301 17.0557 27.7178 17.0557Z" fill="black"/>
<path d="M24.8478 13.4686C24.7988 13.4686 24.7497 13.4511 24.7089 13.4162C24.6129 13.3331 24.5965 13.1844 24.6742 13.0816C24.9847 12.6662 25.5588 12.5153 26.0123 12.7362C26.1247 12.7908 26.1737 12.9308 26.1226 13.051C26.0716 13.1713 25.9408 13.2238 25.8285 13.1691C25.5588 13.0401 25.2053 13.1297 25.0215 13.3768C24.9786 13.4358 24.9132 13.4664 24.8478 13.4664V13.4686Z" fill="black"/>
<path d="M30.738 14.0722C30.689 14.0722 30.6379 14.0547 30.597 14.0175C30.3723 13.8185 30.1026 13.6742 29.8207 13.5977C29.7022 13.5649 29.6287 13.4359 29.6593 13.3091C29.69 13.1823 29.8105 13.1036 29.929 13.1364C30.2743 13.2304 30.6032 13.4075 30.879 13.6502C30.975 13.7333 30.9873 13.8841 30.9096 13.9847C30.8647 14.0415 30.8013 14.0722 30.738 14.0722Z" fill="black"/>
<path d="M18.5898 24.606L23.9303 23.5806C25.4932 23.281 27.0642 24.0682 27.8488 25.5462L38.36 45.3292H21.5216L18.5898 24.6082V24.606Z" fill="#7EAB42"/>
<path d="M21.3146 45.3279H38.1531L30.9678 31.8047H19.4023L21.3146 45.3279Z" fill="white"/>
<path d="M38.1542 45.5464H21.3158C21.2157 45.5464 21.1278 45.4677 21.1135 45.3606L19.2013 31.8374C19.1931 31.774 19.2094 31.7106 19.2483 31.6625C19.2871 31.6144 19.3443 31.5859 19.4035 31.5859H30.971C31.0446 31.5859 31.112 31.6275 31.1488 31.6974L38.334 45.2207C38.3708 45.2884 38.3688 45.3715 38.334 45.4393C38.2973 45.5071 38.2298 45.5486 38.1583 45.5486L38.1542 45.5464ZM21.4915 45.1091H37.8028L30.8505 32.0232H19.6405L21.4915 45.1091Z" fill="#0B0B16"/>
<path d="M6.67436 30.6407L12.2109 22.8482C13.5634 20.946 16.111 20.6027 17.8619 22.0873L20.4483 24.2825L21.5761 23.0012H21.6271C23.7682 23.0012 25.611 24.6192 26.0319 26.8647L26.9941 46.5187H4.53125L6.67232 30.6385L6.67436 30.6407Z" fill="#7EAB42"/>
<path d="M28.2196 38.3494H28.8182C29.5108 38.3494 30.1319 37.8859 30.3689 37.1884C30.5425 36.6768 30.1891 36.1367 29.6804 36.1367H24.6484L28.2196 38.3494Z" fill="white"/>
<path d="M28.8213 38.5679H28.2227C28.1103 38.5679 28.0184 38.4696 28.0184 38.3493C28.0184 38.229 28.1103 38.1307 28.2227 38.1307H28.8213C29.426 38.1307 29.9715 37.7218 30.1799 37.1118C30.2391 36.9369 30.2166 36.7488 30.1165 36.5958C30.0164 36.4427 29.8591 36.3553 29.6854 36.3553H24.6535C24.5412 36.3553 24.4492 36.2569 24.4492 36.1366C24.4492 36.0164 24.5412 35.918 24.6535 35.918H29.6854C29.9899 35.918 30.2779 36.0776 30.4516 36.3443C30.6273 36.6111 30.6681 36.9543 30.5639 37.2605C30.2983 38.041 29.5976 38.5658 28.8213 38.5658V38.5679Z" fill="#0B0B16"/>
<path d="M6.67249 30.6406L1.22992 38.3151C-1.52405 42.1982 1.70186 47.6578 6.16174 46.6608L23.2127 42.8432L25.27 44.3847C25.936 44.8832 26.8002 44.9663 27.5377 44.5989L28.1016 44.3191C28.788 44.8088 29.6808 44.8263 30.3836 44.3628L30.8576 44.0501L26.4263 39.6116C26.9779 39.9374 29.6359 41.1006 31.2519 41.234C31.7014 41.2712 32.1365 41.0591 32.4164 40.683L32.5635 40.484L27.4887 37.3618C25.8829 36.461 25.3721 35.9756 24.1422 36.1549L11.8127 37.9499L15.0713 34.128C15.0713 34.128 13.0038 30.6406 6.67658 30.6406H6.67249Z" fill="white"/>
<path d="M5.09354 46.9993C3.36312 46.9993 1.78592 46.0766 0.817532 44.4368C-0.355154 42.4515 -0.261176 40.0552 1.06678 38.1857L6.50935 30.5113C6.54817 30.4566 6.60741 30.4238 6.67279 30.4238C13.0388 30.4238 15.1533 33.8653 15.2412 34.0118C15.2902 34.0949 15.282 34.2042 15.2187 34.2764L12.3401 37.6522L24.1119 35.9403C25.1967 35.7828 25.781 36.1239 26.8434 36.7449C27.064 36.8739 27.3072 37.016 27.583 37.1712L32.6639 40.2979C32.715 40.3306 32.7518 40.3831 32.762 40.4465C32.7722 40.5099 32.7579 40.5733 32.7211 40.6236L32.574 40.8226C32.2472 41.2621 31.7446 41.5004 31.2338 41.4567C30.0999 41.3605 28.5166 40.7898 27.44 40.3328L30.9948 43.8946C31.0418 43.9405 31.0642 44.0083 31.0581 44.076C31.052 44.1438 31.0152 44.205 30.9621 44.24L30.4881 44.5527C29.7526 45.0381 28.821 45.0403 28.0835 44.5702L27.6218 44.7998C26.8209 45.1977 25.875 45.108 25.1518 44.5658L23.168 43.079L6.20494 46.8769C5.83107 46.96 5.46129 47.0015 5.09763 47.0015L5.09354 46.9993ZM6.7729 30.8589L1.39162 38.4481C0.169899 40.171 0.0820495 42.375 1.1628 44.2029C2.24355 46.0307 4.14355 46.89 6.11913 46.4483L23.1701 42.6308C23.2252 42.6177 23.2824 42.6308 23.3294 42.6658L25.3867 44.2072C25.9915 44.6598 26.7821 44.7342 27.4502 44.4018L28.012 44.122C28.0753 44.0892 28.1509 44.0957 28.2122 44.1373C28.8312 44.5789 29.6403 44.5942 30.2736 44.1766L30.5208 44.0148L26.2857 39.7731C26.2101 39.6988 26.1998 39.5741 26.2591 39.4845C26.3204 39.3948 26.4328 39.3686 26.5226 39.4211C27.111 39.7687 29.7322 40.8904 31.2645 41.0172C31.6424 41.05 32.0102 40.8729 32.2533 40.5471L27.3848 37.5517C27.1131 37.4008 26.8679 37.2565 26.6473 37.1275C25.5992 36.5131 25.1191 36.2332 24.1671 36.3732L11.8375 38.1682C11.7517 38.1814 11.67 38.1354 11.6291 38.0524C11.5883 37.9715 11.6005 37.8709 11.6598 37.8031L14.806 34.1124C14.6099 33.8413 14.0807 33.1941 13.1123 32.5556C11.956 31.7904 9.92117 30.8808 6.77494 30.8611L6.7729 30.8589Z" fill="#0B0B16"/>
<path d="M28.0986 44.5357C28.0496 44.5357 28.0026 44.5182 27.9638 44.4811L24.7685 41.4637C24.6827 41.3828 24.6766 41.2451 24.7501 41.1555C24.8257 41.0658 24.9544 41.0571 25.0382 41.1358L28.2335 44.1531C28.3193 44.234 28.3254 44.3717 28.2519 44.4614C28.211 44.5095 28.1558 44.5357 28.0986 44.5357Z" fill="#0B0B16"/>
<path d="M26.5155 39.9269C26.4705 39.9269 26.4256 39.9116 26.3868 39.8788L25.3224 38.9583C25.2345 38.8817 25.2202 38.744 25.2917 38.65C25.3632 38.556 25.4899 38.5407 25.5798 38.6172L26.6442 39.5377C26.732 39.6142 26.7463 39.752 26.6748 39.846C26.634 39.8984 26.5747 39.9269 26.5155 39.9269Z" fill="#0B0B16"/>
<path d="M15.0671 34.3455C15.016 34.3455 14.965 34.3259 14.9261 34.2843C14.8444 34.2012 14.8424 34.0635 14.92 33.976L18.2583 30.2372C18.3359 30.1497 18.4646 30.1476 18.5464 30.2306C18.6281 30.3137 18.6301 30.4515 18.5525 30.5389L15.2142 34.2778C15.1733 34.3237 15.1202 34.3455 15.0671 34.3455Z" fill="white"/>
<path d="M41.4805 46.5195H17.3403V46.0451C17.3403 45.1814 17.9961 44.4818 18.801 44.4818H41.4805V46.5195Z" fill="#0B0B16"/>
<path d="M32.1133 46.521H54.0633L58.8869 30.9185C59.3527 29.412 58.3046 27.8574 56.8214 27.8574H39.4558C38.5181 27.8574 37.6846 28.5024 37.3904 29.4557L32.1153 46.521H32.1133Z" fill="#0B0B16"/>
<path d="M48.3948 38.1849C48.7217 37.3404 48.347 36.3722 47.5578 36.0224C46.7687 35.6725 45.864 36.0736 45.5372 36.9181C45.2103 37.7626 45.585 38.7308 46.3741 39.0807C47.1633 39.4305 48.068 39.0294 48.3948 38.1849Z" fill="white"/>
<path d="M46.9657 39.4253C46.0014 39.4253 45.2148 38.5857 45.2148 37.5515C45.2148 36.5173 45.9994 35.6777 46.9657 35.6777C47.932 35.6777 48.7166 36.5173 48.7166 37.5515C48.7166 38.5857 47.932 39.4253 46.9657 39.4253ZM46.9657 36.1172C46.2261 36.1172 45.6234 36.7622 45.6234 37.5537C45.6234 38.3452 46.2261 38.9902 46.9657 38.9902C47.7053 38.9902 48.308 38.3452 48.308 37.5537C48.308 36.7622 47.7053 36.1172 46.9657 36.1172Z" fill="#0B0B16"/>
<path d="M6.92323 38.9711C6.82312 38.9711 6.73731 38.8946 6.72097 38.7853C6.70463 38.665 6.78022 38.5535 6.89258 38.536L11.7795 37.7314C11.8918 37.7117 11.996 37.7948 12.0124 37.9151C12.0287 38.0353 11.9531 38.1468 11.8407 38.1643L6.95387 38.9689C6.94366 38.9689 6.93344 38.9711 6.92323 38.9711Z" fill="#0B0B16"/>
<path d="M18.2266 22.2578L25.3832 23.6637L25.2565 24.2344C24.6784 26.8209 21.9346 27.6256 20.4167 25.6534L18.2286 22.2578H18.2266Z" fill="white"/>
<path d="M25.4273 23.7868C25.4089 23.7868 25.3906 23.7846 25.3722 23.778L23.56 23.2445C23.4517 23.2117 23.3884 23.0915 23.417 22.9756C23.4477 22.8597 23.558 22.7898 23.6683 22.8226L25.4805 23.356C25.5887 23.3888 25.6521 23.5091 25.6235 23.625C25.5989 23.7212 25.5172 23.7868 25.4273 23.7868Z" fill="black"/>
<path d="M22.8011 24.7559C22.7684 24.7559 22.7337 24.7472 22.7031 24.7297C22.605 24.6706 22.5682 24.5373 22.6234 24.4323L23.5754 22.5913C23.6306 22.4864 23.7532 22.447 23.8533 22.506C23.9513 22.5651 23.9881 22.6984 23.9329 22.8034L22.9809 24.6444C22.9441 24.7165 22.8747 24.7581 22.8011 24.7581V24.7559Z" fill="black"/>
<path d="M55.8889 2.86112H46.9426C46.8302 2.86112 46.7383 2.76273 46.7383 2.64247C46.7383 2.52222 46.8302 2.42383 46.9426 2.42383H55.8889C56.0013 2.42383 56.0932 2.52222 56.0932 2.64247C56.0932 2.76273 56.0013 2.86112 55.8889 2.86112Z" fill="#0B0B16"/>
<path d="M55.1882 4.68143H46.9426C46.8302 4.68143 46.7383 4.58304 46.7383 4.46279C46.7383 4.34253 46.8302 4.24414 46.9426 4.24414H55.1882C55.3005 4.24414 55.3925 4.34253 55.3925 4.46279C55.3925 4.58304 55.3005 4.68143 55.1882 4.68143Z" fill="#0B0B16"/>
<path d="M45.6202 0.21875H39.957V6.2796H45.6202V0.21875Z" fill="white"/>
<path d="M45.6214 6.49814H39.9582C39.8458 6.49814 39.7539 6.39975 39.7539 6.27949V0.218645C39.7539 0.0983904 39.8458 0 39.9582 0H45.6214C45.7338 0 45.8257 0.0983904 45.8257 0.218645V6.27949C45.8257 6.39975 45.7338 6.49814 45.6214 6.49814ZM40.1625 6.06085H45.4171V0.437291H40.1625V6.06085Z" fill="#0B0B16"/>
<path d="M42.185 4.50569C42.1319 4.50569 42.0808 4.48382 42.0399 4.44228L41.1144 3.45181C41.0348 3.36654 41.0348 3.2288 41.1144 3.14352C41.1941 3.05825 41.3228 3.05825 41.4025 3.14352L42.185 3.98094L44.2627 1.75731C44.3424 1.67204 44.4711 1.67204 44.5508 1.75731C44.6305 1.84258 44.6305 1.98033 44.5508 2.0656L42.328 4.44446C42.2871 4.48819 42.2361 4.50787 42.1829 4.50787L42.185 4.50569Z" fill="#0B0B16"/>
<path d="M55.8889 11.7322H46.9426C46.8302 11.7322 46.7383 11.6338 46.7383 11.5136C46.7383 11.3933 46.8302 11.2949 46.9426 11.2949H55.8889C56.0013 11.2949 56.0932 11.3933 56.0932 11.5136C56.0932 11.6338 56.0013 11.7322 55.8889 11.7322Z" fill="#0B0B16"/>
<path d="M55.1882 13.5525H46.9426C46.8302 13.5525 46.7383 13.4541 46.7383 13.3339C46.7383 13.2136 46.8302 13.1152 46.9426 13.1152H55.1882C55.3005 13.1152 55.3925 13.2136 55.3925 13.3339C55.3925 13.4541 55.3005 13.5525 55.1882 13.5525Z" fill="#0B0B16"/>
<path d="M45.6202 9.08984H39.957V15.1507H45.6202V9.08984Z" fill="white"/>
<path d="M45.6214 15.3692H39.9582C39.8458 15.3692 39.7539 15.2708 39.7539 15.1506V9.08974C39.7539 8.96948 39.8458 8.87109 39.9582 8.87109H45.6214C45.7338 8.87109 45.8257 8.96948 45.8257 9.08974V15.1506C45.8257 15.2708 45.7338 15.3692 45.6214 15.3692ZM40.1625 14.9319H45.4171V9.30838H40.1625V14.9319Z" fill="#0B0B16"/>
<path d="M42.185 13.3768C42.1298 13.3768 42.0787 13.3527 42.0399 13.3134L41.1144 12.3229C41.0348 12.2376 41.0348 12.0999 41.1144 12.0146C41.1941 11.9293 41.3228 11.9293 41.4025 12.0146L42.185 12.852L44.2627 10.6284C44.3424 10.5431 44.4711 10.5431 44.5508 10.6284C44.6305 10.7137 44.6305 10.8514 44.5508 10.9367L42.328 13.3156C42.2892 13.3571 42.2381 13.379 42.1829 13.379L42.185 13.3768Z" fill="#0B0B16"/>
<path d="M55.8889 20.6014H46.9426C46.8302 20.6014 46.7383 20.503 46.7383 20.3827C46.7383 20.2625 46.8302 20.1641 46.9426 20.1641H55.8889C56.0013 20.1641 56.0932 20.2625 56.0932 20.3827C56.0932 20.503 56.0013 20.6014 55.8889 20.6014Z" fill="#0B0B16"/>
<path d="M55.1882 22.4217H46.9426C46.8302 22.4217 46.7383 22.3233 46.7383 22.203C46.7383 22.0828 46.8302 21.9844 46.9426 21.9844H55.1882C55.3005 21.9844 55.3925 22.0828 55.3925 22.203C55.3925 22.3233 55.3005 22.4217 55.1882 22.4217Z" fill="#0B0B16"/>
<path d="M45.6202 17.959H39.957V24.0198H45.6202V17.959Z" fill="white"/>
<path d="M45.6214 24.2384H39.9582C39.8458 24.2384 39.7539 24.14 39.7539 24.0197V17.9589C39.7539 17.8386 39.8458 17.7402 39.9582 17.7402H45.6214C45.7338 17.7402 45.8257 17.8386 45.8257 17.9589V24.0197C45.8257 24.14 45.7338 24.2384 45.6214 24.2384ZM40.1625 23.8011H45.4171V18.1775H40.1625V23.8011Z" fill="#0B0B16"/>
<path d="M42.185 22.2459C42.1298 22.2459 42.0787 22.2219 42.0399 22.1825L41.1144 21.192C41.0348 21.1068 41.0348 20.969 41.1144 20.8838C41.1941 20.7985 41.3228 20.7985 41.4025 20.8838L42.185 21.7212L44.2627 19.4975C44.3424 19.4123 44.4711 19.4123 44.5508 19.4975C44.6305 19.5828 44.6305 19.7206 44.5508 19.8058L42.328 22.1847C42.2892 22.2262 42.2381 22.2481 42.1829 22.2481L42.185 22.2459Z" fill="#0B0B16"/>
</g>
<defs>
<clipPath id="clip0_25883_43201">
<rect width="59" height="47" fill="white"/>
</clipPath>
</defs>
</svg>
