<svg width="66" height="51" viewBox="0 0 66 51" fill="none" xmlns="http://www.w3.org/2000/svg">
<g clip-path="url(#clip0_25883_43037)">
<path d="M24.2539 50.7198H58.4328C64.0145 50.7198 67.6691 44.9819 65.2305 40.0527L57.3089 24.0442C55.9157 21.2282 52.8825 19.5645 49.7126 19.8774L39.727 20.858C36.3057 21.1929 33.4072 23.4757 32.3303 26.6818L24.2539 50.7198Z" fill="#F79676"/>
<path d="M36.8506 42.7526C36.7272 42.7526 36.6285 42.6556 36.6262 42.5344L36.4961 32.828C36.4961 32.7068 36.5926 32.6055 36.7182 32.6055H36.7204C36.8438 32.6055 36.9425 32.7024 36.9448 32.8236L37.0749 42.53C37.0749 42.6512 36.9784 42.7526 36.8528 42.7526H36.8506Z" fill="black"/>
<path d="M40.6962 48.2809L41.5375 47.8247C41.5375 47.8247 43.2784 50.0349 45.551 48.4748C46.1074 48.0936 46.1343 44.5481 45.0686 43.334C42.98 40.9586 39.0966 37.9861 36.8307 39.4669C34.5648 40.9476 31.5586 43.8408 31.5586 43.8408C31.5586 43.8408 32.806 45.456 33.9927 44.5592C35.6529 43.3032 37.6967 42.3909 37.6967 42.3909L34.1072 47.3796C34.1072 47.3796 34.8475 48.2104 35.8346 48.5211C36.8217 48.8317 38.1611 49.7242 40.6962 48.2787V48.2809Z" fill="white"/>
<path d="M33.1687 45.069C32.1973 45.069 31.3538 44.181 31.3089 44.1325C31.2304 44.0488 31.2304 43.9188 31.3089 43.8351C31.4278 43.7051 34.2725 40.6444 36.7201 39.276C37.8979 38.6172 40.5676 38.2492 45.234 43.185C45.3192 43.2732 45.3125 43.4142 45.2228 43.4957C45.133 43.5795 44.9894 43.5728 44.9064 43.4847C43.3674 41.8563 39.5087 38.2249 36.9444 39.6594C34.867 40.8207 32.4127 43.3261 31.7912 43.9761C32.1255 44.2714 32.9646 44.8993 33.6959 44.4895C34.102 44.2625 34.5955 43.9144 35.1205 43.5464C36.1503 42.8237 37.2136 42.0767 37.9114 42.026C38.0347 42.0194 38.1424 42.1075 38.1514 42.2287C38.1604 42.3499 38.0684 42.4557 37.945 42.4645C37.3752 42.5064 36.3163 43.2489 35.383 43.9056C34.8491 44.2802 34.3443 44.6349 33.9203 44.8729C33.669 45.0139 33.4177 45.069 33.1732 45.069H33.1687Z" fill="#0B0B16"/>
<path d="M35.3064 48.4836C34.584 48.4836 34.0545 47.8225 33.8459 47.3973C33.81 47.3223 33.819 47.232 33.8706 47.1681L38.9812 40.714C39.0574 40.6171 39.1988 40.6017 39.2952 40.6744C39.3939 40.7493 39.4097 40.8881 39.3334 40.9829L34.3148 47.3223C34.483 47.6022 34.9654 48.2544 35.6362 47.9702C35.7506 47.9217 35.883 47.9724 35.9301 48.0847C35.9794 48.1971 35.9278 48.3271 35.8134 48.3734C35.6339 48.4483 35.4634 48.4814 35.3041 48.4814L35.3064 48.4836Z" fill="#0B0B16"/>
<path d="M36.9757 49.297C36.2174 49.297 35.4524 48.7593 35.4098 48.7285C35.3582 48.6932 35.3268 48.6359 35.3178 48.5764C35.3111 48.5147 35.329 48.453 35.3694 48.4068L40.9062 42.0783C40.987 41.9858 41.1283 41.9769 41.2225 42.0541C41.3168 42.1334 41.328 42.2722 41.2472 42.3648L35.8787 48.5015C36.2914 48.7395 37.0161 49.0325 37.4513 48.713C38.2006 48.1644 42.4744 43.883 42.5193 43.8411C42.6068 43.753 42.7481 43.753 42.8356 43.8389C42.9231 43.9248 42.9253 44.0637 42.8378 44.1496C42.6606 44.3259 38.4945 48.4971 37.7183 49.0656C37.4917 49.2331 37.2337 49.2948 36.9757 49.2948V49.297Z" fill="#0B0B16"/>
<path d="M38.5929 49.3253C38.225 49.3253 37.8728 49.2394 37.5542 49.0433C37.4488 48.9794 37.4174 48.8428 37.4847 48.7392C37.552 48.6356 37.6888 48.6048 37.7943 48.6709C38.8061 49.2945 40.3226 48.4439 41.4174 47.6198C42.6469 46.6944 43.6272 45.5948 43.6362 45.5838C43.7192 45.4913 43.8606 45.4824 43.9525 45.5618C44.0468 45.6411 44.0557 45.7799 43.975 45.8725C43.8314 46.0355 40.8813 49.3231 38.5929 49.3231V49.3253Z" fill="#0B0B16"/>
<path d="M44.0174 49.2113C43.2322 49.2113 42.3371 48.9249 41.5115 48.0457C41.4262 47.9554 41.433 47.8165 41.5249 47.735C41.6147 47.6513 41.7583 47.6579 41.8413 47.7482C43.4431 49.4515 45.1436 48.5701 45.5003 48.3542C45.9109 46.8294 46.1285 44.7757 44.9058 43.4845C43.3668 41.8561 39.5081 38.2247 36.9438 39.6592C36.8361 39.7187 36.6993 39.6834 36.6387 39.5776C36.5781 39.4719 36.614 39.3375 36.7217 39.278C37.8995 38.6191 40.5692 38.2511 45.2356 43.187C46.6198 44.6501 46.3663 46.9131 45.9109 48.5547C45.8974 48.6032 45.866 48.6473 45.8234 48.6759C45.4398 48.9425 44.7802 49.2136 44.0174 49.2136V49.2113Z" fill="#0B0B16"/>
<path d="M44.8456 43.028C44.7424 43.028 44.6482 42.9574 44.6257 42.8539C44.601 42.7349 44.6773 42.6181 44.7985 42.5939L56.1391 40.2493C56.2602 40.2229 56.3792 40.3 56.4038 40.419C56.4285 40.538 56.3522 40.6548 56.2311 40.679L44.8905 43.0235C44.8747 43.0257 44.859 43.028 44.8433 43.028H44.8456Z" fill="black"/>
<path d="M44.4124 22.1898L43.6613 22.2148C41.8721 22.2743 40.3699 20.8956 40.3093 19.1382L40.1655 14.9694L47.3988 14.7288L47.5425 18.8976C47.6031 20.655 46.1994 22.1304 44.4102 22.1899L44.4124 22.1898Z" fill="white"/>
<path d="M43.5466 22.4344C42.665 22.4344 41.8304 22.1105 41.182 21.5177C40.5045 20.8963 40.1164 20.0546 40.085 19.1445L39.9414 14.9755C39.9414 14.916 39.9616 14.8609 40.002 14.8169C40.0424 14.775 40.0984 14.7486 40.159 14.7464L47.3919 14.5062C47.5175 14.4996 47.6207 14.5965 47.623 14.7199L47.7666 18.8889C47.8316 20.7663 46.3285 22.344 44.4193 22.4079L43.6678 22.4322C43.6274 22.4322 43.587 22.4322 43.5466 22.4322V22.4344ZM40.3968 15.1804L40.5337 19.1291C40.5606 19.9202 40.8994 20.6539 41.4894 21.196C42.0794 21.7359 42.8512 22.0223 43.6521 21.9937L44.4036 21.9694C46.0683 21.9143 47.374 20.5394 47.3179 18.9066L47.181 14.9579L40.3946 15.1827L40.3968 15.1804Z" fill="black"/>
<path d="M40.3346 19.9219L40.1641 14.9684L44.7586 14.8164L46.2842 16.4624C45.2073 18.3971 43.1097 19.6729 40.3346 19.9241V19.9219Z" fill="black"/>
<path d="M45.4298 1.27139L43.9356 0.918767C40.3684 0.0769551 36.7818 2.23485 35.9247 5.73855L35.4734 7.58327C34.6164 11.087 36.8134 14.6097 40.3806 15.4515L41.8748 15.8041C45.4421 16.646 49.0287 14.4881 49.8857 10.9844L50.337 9.13964C51.1941 5.63594 48.9971 2.1132 45.4298 1.27139Z" fill="black"/>
<path d="M45.98 0.732936L47.2299 1.0279C50.2053 1.73005 52.0399 4.67168 51.325 7.59408L50.7291 10.0301C50.0143 12.9525 47.0193 14.7545 44.0439 14.0523L42.794 13.7574C39.8186 13.0552 37.984 10.1136 38.6989 7.19117L39.2948 4.75512C40.0097 1.83271 43.0046 0.0307891 45.98 0.732936Z" fill="black"/>
<path d="M51.9175 7.70514C51.9175 7.70514 51.913 7.70514 51.9107 7.70514C51.7873 7.70293 51.6886 7.60157 51.6931 7.47818C51.7425 5.68232 51.2197 4.21259 50.1406 3.10423C49.001 1.93417 47.2219 1.21583 45.3801 1.18498C45.2567 1.18498 45.158 1.08142 45.1602 0.960225C45.1602 0.839033 45.2724 0.739875 45.389 0.744282C47.3476 0.777335 49.2455 1.54636 50.4659 2.80015C51.6303 3.99665 52.1956 5.57435 52.1418 7.4914C52.1396 7.61039 52.0386 7.70514 51.9175 7.70514Z" fill="black"/>
<path d="M35.9601 10.8028L37.6212 11.2266C38.3611 11.4153 39.1167 10.9792 39.3089 10.2525L39.389 9.94961C39.5812 9.22286 39.1372 8.4807 38.3972 8.29193L36.7361 7.86816C35.9962 7.6794 35.2406 8.11553 35.0484 8.84228L34.9683 9.14512C34.7761 9.87187 35.2201 10.614 35.9601 10.8028Z" fill="white"/>
<path d="M37.9729 11.4909C37.8383 11.4909 37.7014 11.4733 37.5668 11.4403L35.9044 11.0172C35.4894 10.9114 35.1394 10.6536 34.9218 10.2878C34.7042 9.92205 34.6436 9.49898 34.7513 9.09133L34.832 8.78725C35.0541 7.94551 35.9336 7.43651 36.7928 7.65686L38.4552 8.07993C39.3122 8.29807 39.8304 9.16185 39.6061 10.0058L39.5253 10.3099C39.4177 10.7175 39.1529 11.0613 38.7828 11.275C38.5315 11.4182 38.2533 11.4931 37.9706 11.4931L37.9729 11.4909ZM36.389 8.04467C35.873 8.04467 35.4019 8.38401 35.2673 8.89743L35.1865 9.20151C35.108 9.49678 35.1529 9.80306 35.3099 10.0653C35.4669 10.3275 35.7182 10.5148 36.0166 10.5897L37.679 11.0128C37.9774 11.0899 38.2914 11.0458 38.5584 10.8916C38.8254 10.7373 39.0161 10.4906 39.0924 10.1975L39.1731 9.89341C39.3346 9.28524 38.96 8.66385 38.343 8.5052L36.6806 8.08213C36.5842 8.05789 36.4855 8.04467 36.389 8.04467Z" fill="black"/>
<path d="M45.2826 3.54628L45.6259 3.62781C47.8985 4.16326 49.5788 5.85776 50.1756 7.92023L50.5951 7.8982C51.4454 7.85413 52.1723 8.49535 52.2194 9.33268C52.2643 10.1678 51.6114 10.8817 50.7589 10.928L50.2564 10.9545C50.2496 10.9809 50.2452 11.0051 50.2407 11.0316L49.682 13.3166C48.8766 16.613 45.5025 18.6425 42.1485 17.8492L41.8053 17.7677C38.4491 16.9766 36.3829 13.6626 37.1905 10.3683L37.7491 8.08329C38.5545 4.78685 41.9287 2.75743 45.2826 3.55069V3.54628Z" fill="white"/>
<path d="M43.6053 18.2377C43.1073 18.2377 42.6003 18.1804 42.0933 18.0614L41.75 17.9799C38.2794 17.1602 36.1347 13.7227 36.9692 10.3139L37.5278 8.02886C38.3624 4.62005 41.8622 2.5135 45.3328 3.33321L45.6761 3.41474C47.8858 3.93696 49.6582 5.56755 50.3379 7.69173L50.5802 7.67851C51.5472 7.62562 52.3884 8.36379 52.44 9.32011C52.4916 10.2764 51.7423 11.0961 50.7687 11.1468L50.4366 11.1644L49.8982 13.3657C49.187 16.2766 46.5286 18.2377 43.6053 18.2377ZM43.8207 3.59763C41.1017 3.59763 38.6271 5.42212 37.9631 8.13243L37.4045 10.4175C36.6282 13.5905 38.6249 16.79 41.8532 17.5524L42.1965 17.6339C45.4248 18.3963 48.6845 16.4352 49.4607 13.2644L50.0351 10.9066C50.0575 10.8097 50.1405 10.7392 50.2415 10.7348L50.744 10.7083C51.4709 10.6709 52.0295 10.0583 51.9914 9.34656C51.9532 8.63262 51.3363 8.08395 50.6027 8.12141L50.1831 8.14345C50.0799 8.14785 49.9835 8.08175 49.9565 7.98479C49.3598 5.93113 47.6794 4.34461 45.5684 3.84662L45.2251 3.76509C44.754 3.65492 44.2829 3.59983 43.8185 3.59983L43.8207 3.59763Z" fill="black"/>
<path d="M37.4453 7.98641V7.99743C38.6927 7.5369 40.0948 5.23424 40.8195 2.27274V2.26172C39.5721 2.72225 38.1699 5.02491 37.4453 7.98641Z" fill="black"/>
<path d="M37.0636 10.2051C37.0636 10.2051 37.0435 10.2051 37.0345 10.2051C36.9111 10.1897 36.8258 10.0795 36.8415 9.95834C36.9358 9.25322 36.3457 8.91388 36.3211 8.90066C36.2134 8.84116 36.1752 8.70675 36.2358 8.60098C36.2964 8.49521 36.431 8.45775 36.5387 8.51504C36.5746 8.53487 37.4204 9.00642 37.2857 10.0156C37.27 10.1258 37.1736 10.2073 37.0636 10.2073V10.2051Z" fill="black"/>
<path d="M42.4279 7.83C42.4615 8.0812 41.9164 8.35663 41.2119 8.44918C40.5052 8.54173 39.9062 8.41172 39.8726 8.16273C39.8389 7.91153 40.3841 7.63609 41.0885 7.54354C41.7952 7.45099 42.3942 7.581 42.4279 7.83Z" fill="black"/>
<path d="M47.1503 8.59535C47.074 8.83553 46.4593 8.86197 45.7818 8.65264C45.102 8.44331 44.6152 8.07753 44.6915 7.83734C44.7677 7.59716 45.3824 7.57072 46.06 7.78005C46.7397 7.98939 47.2266 8.35517 47.1503 8.59535Z" fill="black"/>
<path d="M43.4023 12.096C43.3777 12.096 43.353 12.0916 43.3283 12.0828C43.0456 11.9858 42.8168 11.7721 42.7001 11.501C42.5835 11.23 42.5902 10.9193 42.7181 10.6527L43.4338 9.15652C43.4876 9.04635 43.62 8.99787 43.7321 9.05075C43.8443 9.10144 43.8914 9.23365 43.8398 9.34382L43.1242 10.84C43.0501 10.9964 43.0456 11.1705 43.1129 11.3314C43.1802 11.49 43.3104 11.6112 43.4764 11.6685C43.593 11.7082 43.6559 11.8338 43.6132 11.9506C43.5818 12.0409 43.4943 12.0982 43.4023 12.0982V12.096Z" fill="black"/>
<path d="M43.8941 15.1983C43.6226 15.1983 43.3534 15.1079 43.0887 14.9272C42.9878 14.8567 42.9608 14.7201 43.0326 14.621C43.1044 14.5218 43.2435 14.4954 43.3445 14.5659C43.6002 14.7399 43.8425 14.795 44.087 14.7333C44.6883 14.5835 45.0966 13.7902 45.1011 13.7836C45.1572 13.6757 45.2918 13.6316 45.4017 13.6845C45.5116 13.7396 45.5565 13.8718 45.5027 13.9797C45.4825 14.0194 45.0001 14.9581 44.1992 15.1608C44.096 15.1873 43.9951 15.1983 43.8941 15.1983Z" fill="black"/>
<path d="M47.7743 2.81213C48.9005 3.50624 49.8406 4.29289 50.4912 5.03987C50.4104 5.25361 50.3072 5.46074 50.1816 5.65685C49.5826 6.59334 48.5775 7.16405 47.4131 7.34473C46.7984 7.08913 46.1523 6.7608 45.5085 6.36417C42.9083 4.76443 41.3065 2.67111 41.9324 1.69055C42.5583 0.709995 45.1742 1.21239 47.7743 2.81434V2.81213Z" fill="black"/>
<path d="M38.204 3.98989C37.1878 4.83383 36.7099 5.91795 36.7189 6.90291C36.923 7.01089 37.1384 7.10123 37.365 7.16954C38.4418 7.49125 39.5815 7.2731 40.5821 6.65833C40.4632 5.90032 41.2147 4.63111 42.4419 3.83564C45.0017 2.1742 41.2551 1.45807 38.2063 3.99429L38.204 3.98989Z" fill="black"/>
<path d="M45.6068 10.1186C45.5238 10.5372 45.2366 10.8369 44.9652 10.784C44.6937 10.7311 44.5412 10.3499 44.6242 9.93127C44.7072 9.51261 44.9944 9.21293 45.2658 9.26582C45.5373 9.3187 45.6898 9.69991 45.6068 10.1186Z" fill="black"/>
<path d="M41.431 10.1186C41.348 10.5372 41.0609 10.8369 40.7894 10.784C40.518 10.7311 40.3654 10.3499 40.4484 9.93127C40.5314 9.51261 40.8186 9.21293 41.09 9.26582C41.3615 9.3187 41.514 9.69991 41.431 10.1186Z" fill="black"/>
<path d="M43.1415 1.68157C43.128 1.68157 43.1146 1.68157 43.1034 1.67716C42.9822 1.65513 42.8992 1.54275 42.9216 1.42156C43.1213 0.302177 44.5033 0.0157224 44.5616 0.00250145C44.685 -0.021737 44.8016 0.0553854 44.8263 0.174374C44.851 0.293363 44.7725 0.410149 44.6513 0.434387C44.6401 0.436591 43.5094 0.674569 43.3636 1.49647C43.3434 1.60445 43.2492 1.67936 43.1437 1.67936L43.1415 1.68157Z" fill="black"/>
<path d="M43.1813 1.18537C43.1813 1.18537 43.1701 1.18537 43.1656 1.18537C43.0423 1.17656 42.9503 1.07079 42.9592 0.949597C42.9884 0.563985 42.7214 0.462624 42.6676 0.447199C42.5509 0.411943 42.4814 0.290751 42.5173 0.173965C42.5532 0.05718 42.6743 -0.00892499 42.791 0.0241275C43.0243 0.088029 43.4528 0.370077 43.4079 0.98265C43.399 1.09944 43.3003 1.18758 43.1836 1.18758L43.1813 1.18537Z" fill="black"/>
<path d="M45.7374 7.26874C45.7038 7.26874 45.6701 7.26213 45.6387 7.24671C43.9494 6.43362 42.8075 5.26797 42.2444 3.7784C42.2018 3.66382 42.2601 3.53822 42.3768 3.49415C42.4934 3.45228 42.6213 3.50957 42.6662 3.62416C43.1889 5.00355 44.2545 6.08987 45.8384 6.85008C45.9506 6.90296 45.9954 7.03517 45.9416 7.14535C45.9035 7.22247 45.8227 7.26874 45.7397 7.26874H45.7374Z" fill="black"/>
<path d="M50.5632 6.35055L49.7534 10.3653L49.0556 10.383L48.5352 5.41406L50.5632 6.35055Z" fill="black"/>
<path d="M39.3477 20.7866L40.2361 26.0199L42.9013 23.1862L45.7864 26.2381L48.2833 20.2269L47.3388 17.9375L42.9013 21.8774L40.1261 19.3698L39.3477 20.7866Z" fill="white"/>
<path d="M45.787 26.4576C45.7241 26.4576 45.6658 26.4333 45.6232 26.387L42.9019 23.5093L40.4027 26.1689C40.3443 26.2306 40.2546 26.2548 40.1738 26.2306C40.0908 26.2064 40.0303 26.1381 40.0168 26.0565L39.1284 20.8232C39.1194 20.7747 39.1284 20.7263 39.1531 20.6822L39.9293 19.2653C39.963 19.2058 40.0213 19.164 40.0886 19.153C40.1581 19.1419 40.2277 19.1618 40.277 19.208L42.9019 21.579L47.1891 17.7758C47.243 17.7273 47.3192 17.7075 47.3888 17.7251C47.4606 17.7405 47.5189 17.7912 47.5458 17.8573L48.4903 20.1467C48.5127 20.1996 48.5127 20.2591 48.4903 20.312L45.9934 26.3231C45.9642 26.3937 45.9014 26.4421 45.8251 26.4576C45.8116 26.4598 45.7982 26.462 45.7847 26.462L45.787 26.4576ZM42.9019 22.965C42.9647 22.965 43.023 22.9915 43.0657 23.0355L45.7129 25.8362L48.0416 20.2283L47.2519 18.3134L43.0499 22.0417C42.9647 22.1189 42.8323 22.1167 42.7471 22.0417L40.1851 19.7259L39.5816 20.8276L40.3825 25.5431L42.7359 23.0399C42.7785 22.9959 42.8368 22.9694 42.8996 22.9694L42.9019 22.965Z" fill="#0B0B16"/>
<path d="M21.2305 49.0195H45.2556C46.1103 49.0195 46.8035 49.7004 46.8035 50.5399V51.0005H21.2305V49.0195Z" fill="black"/>
<path d="M31.1559 51.001H7.90255L2.79422 35.8321C2.30066 34.3668 3.41117 32.8574 4.98383 32.8574H23.3801C24.374 32.8574 25.2556 33.4832 25.5697 34.4109L31.1581 51.0032L31.1559 51.001Z" fill="black"/>
<path d="M17.0133 42.65C17.221 41.7854 16.6758 40.9191 15.7955 40.715C14.9152 40.5109 14.0332 41.0464 13.8254 41.911C13.6176 42.7756 14.1628 43.642 15.0431 43.8461C15.9234 44.0501 16.8055 43.5146 17.0133 42.65Z" fill="white"/>
<path d="M15.4207 44.1129C14.3932 44.1129 13.5586 43.2932 13.5586 42.284C13.5586 41.2748 14.3932 40.4551 15.4207 40.4551C16.4482 40.4551 17.2827 41.2748 17.2827 42.284C17.2827 43.2932 16.4482 44.1129 15.4207 44.1129ZM15.4207 40.8958C14.6422 40.8958 14.0073 41.5194 14.0073 42.284C14.0073 43.0486 14.6422 43.6722 15.4207 43.6722C16.1991 43.6722 16.834 43.0486 16.834 42.284C16.834 41.5194 16.1991 40.8958 15.4207 40.8958Z" fill="black"/>
<path d="M53.1989 40.9761C53.1204 40.9761 53.0441 40.9342 53.0015 40.8615L48.2275 32.3626C48.1669 32.2568 48.2073 32.1224 48.315 32.0629C48.4226 32.0034 48.5595 32.0431 48.6201 32.1488L53.3941 40.6477C53.4547 40.7535 53.4143 40.8879 53.3066 40.9474C53.273 40.965 53.2348 40.9738 53.1989 40.9738V40.9761Z" fill="black"/>
<path d="M25.2438 25.0995C17.5623 26.7367 9.8807 28.3761 2.20138 30.0133C1.10882 30.2535 0.222656 29.3412 0.222656 27.975V5.45747C0.222656 4.0913 1.10882 3.17905 2.20138 3.41923C9.88294 5.05643 17.5645 6.69584 25.2438 8.33304C26.3364 8.57322 27.2226 9.40173 27.2226 10.1818C27.2226 14.5381 27.2226 18.8944 27.2226 23.2485C27.2226 24.0286 26.3364 24.8571 25.2438 25.0973V25.0995Z" fill="white"/>
<path d="M1.85982 30.2726C1.48292 30.2726 1.12397 30.1492 0.821102 29.9134C0.298379 29.5014 0 28.7963 0 27.9788V5.45679C0 4.63709 0.300622 3.93197 0.823345 3.51992C1.22717 3.20261 1.73419 3.09023 2.25242 3.20261L25.2949 8.11642C26.5041 8.38304 27.4486 9.28868 27.4508 10.1811V23.2501C27.4508 24.1403 26.5063 25.0481 25.2971 25.3147L2.25467 30.2285C2.12455 30.2572 1.99218 30.2726 1.86431 30.2726H1.85982ZM1.85533 3.60145C1.57939 3.60145 1.32363 3.68959 1.10153 3.86366C0.686495 4.18978 0.446446 4.77151 0.446446 5.45679V27.9766C0.446446 28.6618 0.684252 29.2414 1.09929 29.5675C1.39991 29.8033 1.76335 29.8826 2.15147 29.7989L25.1962 24.885C26.1743 24.6691 26.9977 23.9221 26.9977 23.2523V10.1833C26.9977 9.51344 26.1721 8.76425 25.1939 8.55051L2.15595 3.6345C2.055 3.61246 1.95404 3.60145 1.85757 3.60145H1.85533Z" fill="#0B0B16"/>
<path d="M25.2438 25.0995C17.5623 26.7367 9.8807 28.3761 2.20138 30.0133C1.10882 30.2535 0.222656 29.3412 0.222656 27.975V5.45747C0.222656 4.0913 1.10882 3.17905 2.20138 3.41923C9.88294 5.05643 17.5645 6.69584 25.2438 8.33304C26.3364 8.57322 27.2226 9.40173 27.2226 10.1818C27.2226 14.5381 27.2226 18.8944 27.2226 23.2485C27.2226 24.0286 26.3364 24.8571 25.2438 25.0973V25.0995Z" fill="white"/>
<path d="M1.85982 30.2726C1.48292 30.2726 1.12397 30.1492 0.821102 29.9134C0.298379 29.5014 0 28.7963 0 27.9788V5.45679C0 4.63709 0.300622 3.93197 0.823345 3.51992C1.22717 3.20261 1.73419 3.09023 2.25242 3.20261L25.2949 8.11642C26.5041 8.38304 27.4486 9.28868 27.4508 10.1811V23.2501C27.4508 24.1403 26.5063 25.0481 25.2971 25.3147L2.25467 30.2285C2.12455 30.2572 1.99218 30.2726 1.86431 30.2726H1.85982ZM1.85533 3.60145C1.57939 3.60145 1.32363 3.68959 1.10153 3.86366C0.686495 4.18978 0.446446 4.77151 0.446446 5.45679V27.9766C0.446446 28.6618 0.684252 29.2414 1.09929 29.5675C1.39991 29.8033 1.76335 29.8826 2.15147 29.7989L25.1962 24.885C26.1743 24.6691 26.9977 23.9221 26.9977 23.2523V10.1833C26.9977 9.51344 26.1721 8.76425 25.1939 8.55051L2.15595 3.6345C2.055 3.61246 1.95404 3.60145 1.85757 3.60145H1.85533Z" fill="#0B0B16"/>
<path d="M2.11067 6.08763C2.07253 6.08763 2.03439 6.08542 1.99849 6.07881C1.60813 6.0105 1.30078 5.60286 1.30078 5.14894C1.30078 4.89553 1.39949 4.67078 1.56999 4.53196C1.71358 4.41517 1.89529 4.3711 2.0815 4.40636C2.46962 4.48128 2.77473 4.88892 2.77473 5.33623C2.77473 5.58523 2.67826 5.80558 2.51 5.9444C2.39558 6.03915 2.25873 6.08763 2.11291 6.08763H2.11067ZM1.95362 4.83604C1.91549 4.83604 1.88183 4.84926 1.85267 4.8735C1.78761 4.92638 1.74723 5.02995 1.74723 5.14894C1.74723 5.40895 1.91997 5.61828 2.07477 5.64472C2.12861 5.65354 2.17797 5.64252 2.21835 5.60726C2.28341 5.55218 2.32379 5.45302 2.32379 5.33623C2.32379 5.10487 2.169 4.8735 1.99176 4.84045C1.9783 4.83824 1.96484 4.83604 1.95362 4.83604Z" fill="#0B0B16"/>
<path d="M3.83557 6.38636C3.79743 6.38636 3.75929 6.38415 3.72115 6.37754C3.32855 6.30923 3.02344 5.9082 3.02344 5.46529C3.02344 5.2207 3.11991 5.00035 3.28816 4.86594C3.43399 4.74916 3.61795 4.70509 3.80416 4.74034C4.19227 4.81746 4.49738 5.2185 4.49738 5.65259C4.49738 5.89277 4.40316 6.10651 4.23714 6.24313C4.12273 6.33788 3.98363 6.38856 3.83557 6.38856V6.38636ZM3.67628 5.16782C3.63814 5.16782 3.60225 5.18104 3.57084 5.20528C3.50802 5.25596 3.46988 5.35291 3.46988 5.46309C3.46988 5.68785 3.62244 5.9126 3.79743 5.94125C3.85351 5.95006 3.90511 5.93905 3.94774 5.90379C4.01055 5.85091 4.04645 5.75836 4.04645 5.65039C4.04645 5.43004 3.89165 5.20528 3.71442 5.17002C3.70096 5.16782 3.6875 5.16562 3.67628 5.16562V5.16782Z" fill="#0B0B16"/>
<path d="M5.56437 6.68558C5.52623 6.68558 5.48585 6.68118 5.44771 6.67457C5.05735 6.60846 4.75 6.21404 4.75 5.77774C4.75 5.53976 4.84422 5.32823 5.008 5.19602C5.15382 5.07923 5.34003 5.03516 5.53072 5.07042C5.91884 5.14754 6.22395 5.53976 6.22395 5.96504C6.22395 6.19641 6.13196 6.40574 5.97044 6.53795C5.85602 6.6327 5.71468 6.68338 5.56661 6.68338L5.56437 6.68558ZM5.4006 5.5001C5.36022 5.5001 5.32432 5.51332 5.29291 5.53756C5.23234 5.58604 5.19869 5.67418 5.19869 5.77995C5.19869 5.99589 5.35124 6.21183 5.52399 6.24268C5.58456 6.2537 5.63616 6.24048 5.68103 6.20522C5.73936 6.15674 5.77526 6.07081 5.77526 5.96945C5.77526 5.75791 5.62046 5.54197 5.44323 5.50671C5.42976 5.50451 5.41406 5.50231 5.4006 5.50231V5.5001Z" fill="#0B0B16"/>
<path d="M12.0173 8.78185C12.9932 8.54387 13.5047 8.95152 13.7649 9.33493C13.8008 9.38781 13.8344 9.4429 13.8636 9.50019C13.9421 7.56111 14.5479 6.21477 15.6673 5.48982C16.641 4.85962 18.0275 4.70758 19.6764 5.05573C20.9148 5.31574 21.8772 5.76746 21.8862 5.77187C21.9153 5.78509 21.9355 5.81153 21.9423 5.84238C21.9939 6.07375 23.1784 11.5627 22.3999 14.1143C21.6215 16.6704 21.3792 17.4791 21.3792 17.4791C21.3702 17.5077 21.35 17.5319 21.3231 17.543C21.3051 17.5518 20.1744 18.0432 18.4313 17.6928L18.1845 19.9734C18.18 20.0043 18.1643 20.0329 18.1374 20.0483C18.1015 20.0704 17.5855 20.3745 16.1497 20.0417C15.1379 19.8082 13.6707 19.2595 11.5955 18.0718C11.5573 18.0498 11.5372 18.0079 11.5461 17.9638L12.4996 12.9002C11.7884 12.7944 11.1289 12.1135 10.9112 11.1837C10.6488 10.0489 11.1311 8.99118 12.0128 8.77744L12.0173 8.78185Z" fill="white"/>
<path d="M14.6821 2.99165C15.5637 3.19658 16.2996 3.69016 16.8089 4.34681C14.2513 4.45037 11.9518 6.26605 11.3191 8.91246C11.2922 9.02924 11.2675 9.14603 11.2474 9.26281C10.3073 8.39023 9.84969 7.06372 10.166 5.73721C10.6416 3.75406 12.663 2.52451 14.6821 2.99165Z" fill="#0B0B16"/>
<path d="M13.2981 11.6302L11.0905 11.0022L10.4108 8.28529C10.0743 6.94336 10.523 5.52651 11.5774 4.61205C12.7507 3.59183 14.1529 2.44822 14.4557 2.51873C14.799 2.59806 18.9673 2.95943 21.5158 3.41115C22.9494 3.66455 23.9006 5.01089 23.6426 6.41892L22.5591 9.25483L21.8793 5.72923C21.8793 5.72923 19.0503 7.6022 15.3239 6.45859L13.3003 11.628L13.2981 11.6302Z" fill="#0B0B16"/>
<path d="M18.3956 11.3858C18.2655 11.3858 18.1309 11.3703 17.9985 11.3395C17.5476 11.2359 17.1662 10.9649 16.9239 10.5793C16.6793 10.1937 16.6053 9.73754 16.7108 9.29464C16.8162 8.85173 17.0921 8.47714 17.4847 8.23916C17.8773 8.00118 18.3417 7.92626 18.7927 8.02983C19.7215 8.24357 20.3003 9.16243 20.0804 10.0747C19.892 10.8569 19.1808 11.3858 18.3956 11.3858ZM18.3933 8.42646C18.1578 8.42646 17.9267 8.49036 17.7203 8.61596C17.4287 8.79224 17.2245 9.06988 17.1482 9.3982C17.0697 9.72652 17.1258 10.0637 17.3053 10.3501C17.4847 10.6366 17.7674 10.8371 18.1017 10.912C18.7904 11.0707 19.4814 10.6498 19.6429 9.97552C19.8045 9.29904 19.376 8.62037 18.6895 8.46172C18.5908 8.43968 18.4921 8.42866 18.3933 8.42866V8.42646Z" fill="#F79676"/>
<path d="M19.6445 14.1629C19.2273 14.1629 18.6215 14.0572 18.3703 13.4887C18.3209 13.3763 18.3725 13.2463 18.4869 13.2C18.6013 13.1515 18.7337 13.2022 18.7831 13.3146C19.0298 13.8743 19.9721 13.698 19.9833 13.6958C20.1044 13.6716 20.2233 13.7487 20.2458 13.8699C20.2705 13.9889 20.1919 14.1056 20.0708 14.1299C20.0528 14.1343 19.8779 14.1673 19.6468 14.1673L19.6445 14.1629Z" fill="#0B0B16"/>
<path d="M12.9504 12.7887C12.1337 12.9716 11.27 12.2445 11.021 11.1648C10.772 10.085 11.2296 9.06261 12.044 8.87972C12.8584 8.69683 13.7243 9.42399 13.9734 10.5037L12.9504 12.7887Z" fill="white"/>
<path d="M12.6963 13.038C12.3284 13.038 11.9582 12.8947 11.6307 12.6171C11.2291 12.2799 10.9374 11.782 10.8051 11.2135C10.6727 10.645 10.7176 10.072 10.9307 9.59608C11.1528 9.1003 11.532 8.76757 11.9986 8.664C12.9341 8.45467 13.919 9.25895 14.1972 10.4532C14.2241 10.5722 14.1501 10.689 14.0289 10.7177C13.9078 10.7441 13.7889 10.6692 13.7597 10.5524C13.5376 9.59388 12.7928 8.93944 12.0996 9.09369C11.7765 9.1664 11.5073 9.40658 11.3435 9.77236C11.1685 10.1602 11.1349 10.6361 11.2448 11.1143C11.3547 11.5903 11.597 12.0045 11.9246 12.2822C12.2342 12.5422 12.5819 12.6457 12.9049 12.573C13.0261 12.5466 13.145 12.6193 13.1742 12.7383C13.2011 12.8573 13.1271 12.974 13.0059 13.0027C12.9049 13.0247 12.8018 13.0357 12.6986 13.0357L12.6963 13.038Z" fill="#0B0B16"/>
<path d="M21.1412 9.91999C21.1232 9.91999 21.1075 9.91999 21.0896 9.91338L20.08 9.67981C19.9589 9.65116 19.8848 9.53438 19.9118 9.41539C19.9409 9.2964 20.0621 9.22369 20.181 9.25233L21.1905 9.4859C21.3117 9.51455 21.3857 9.63354 21.3588 9.75032C21.3341 9.85168 21.2421 9.91999 21.1412 9.91999Z" fill="#F79676"/>
<path d="M18.7811 9.51785C18.7116 9.80651 18.5299 10.0092 18.3751 9.97397C18.2203 9.93871 18.1485 9.6765 18.218 9.38784C18.2876 9.09918 18.4693 8.89646 18.6241 8.93172C18.7789 8.96697 18.8507 9.22919 18.7811 9.51785Z" fill="#0B0B16"/>
<path d="M22.1249 9.86941C22.0553 10.1581 21.8736 10.3608 21.7188 10.3255C21.564 10.2903 21.4922 10.0281 21.5618 9.7394C21.6313 9.45074 21.813 9.24802 21.9678 9.28328C22.1226 9.31853 22.1944 9.58075 22.1249 9.86941Z" fill="#0B0B16"/>
<path d="M13.7044 9.95531C13.5922 9.95531 13.4958 9.87378 13.4823 9.7614C13.4666 9.64021 13.5541 9.53003 13.6775 9.51681L16.9013 9.12679C17.0247 9.11137 17.1369 9.1973 17.1503 9.3185C17.166 9.43969 17.0785 9.54986 16.9551 9.56308L13.7313 9.9531C13.7313 9.9531 13.7134 9.9531 13.7044 9.9531V9.95531Z" fill="#F79676"/>
<path d="M19.653 17.9537C18.4192 17.9537 16.6199 17.557 14.5604 15.8648C14.4662 15.7876 14.4527 15.6466 14.5335 15.5541C14.612 15.4615 14.7534 15.4483 14.8498 15.5254C16.7119 17.0546 18.3361 17.4425 19.3726 17.4975C20.261 17.5438 20.878 17.3631 21.1023 17.2838C21.1876 16.9952 21.468 16.0697 22.0917 14.0204C22.8455 11.5481 21.6407 5.96443 21.6273 5.90934C21.6004 5.79036 21.6789 5.67357 21.8 5.64713C21.9212 5.62289 22.0401 5.69781 22.067 5.8168C22.1186 6.05037 23.3076 11.5679 22.5224 14.1482C21.7439 16.7021 21.5016 17.513 21.5016 17.513C21.4837 17.5747 21.4388 17.6231 21.3805 17.6518C21.3244 17.676 20.6895 17.9559 19.6553 17.9559L19.653 17.9537Z" fill="#0B0B16"/>
<path d="M11.6572 18.2064C11.6437 18.2064 11.6303 18.2064 11.6168 18.202C11.4957 18.1799 11.4149 18.0654 11.4373 17.9442L12.3998 12.8343C12.4222 12.7153 12.5389 12.6359 12.6623 12.658C12.7834 12.68 12.8642 12.7946 12.8417 12.9158L11.8793 18.0257C11.8591 18.1315 11.7649 18.2064 11.6594 18.2064H11.6572Z" fill="#0B0B16"/>
<path d="M18.089 20.1851C18.089 20.1851 18.0733 20.1851 18.0643 20.1851C17.9409 20.1719 17.8512 20.0639 17.8646 19.9427L18.1181 17.5916C18.1316 17.4704 18.2393 17.3845 18.3649 17.3955C18.4883 17.4087 18.578 17.5167 18.5646 17.6379L18.3111 19.989C18.2998 20.1014 18.2011 20.1851 18.089 20.1851Z" fill="#0B0B16"/>
<path d="M22.4257 11.8242C22.2934 11.8242 22.1588 11.8088 22.0264 11.778C21.7998 11.7251 21.5889 11.6303 21.4005 11.4959C21.2995 11.4232 21.2793 11.2866 21.3511 11.1874C21.4252 11.0883 21.5643 11.0684 21.6652 11.1389C21.8043 11.2381 21.9591 11.3086 22.1274 11.3483C22.4616 11.4254 22.8049 11.3703 23.0965 11.194C23.3882 11.0177 23.5923 10.7401 23.6686 10.4118C23.7471 10.0835 23.691 9.74633 23.5116 9.45987C23.3321 9.17342 23.0494 8.9729 22.7151 8.89798C22.1229 8.76136 21.5127 9.05443 21.2569 9.59429C21.2053 9.70446 21.0729 9.75294 20.9585 9.70226C20.8463 9.65158 20.797 9.51937 20.8486 9.40919C21.1918 8.67983 22.0197 8.28541 22.8161 8.4683C23.267 8.57186 23.6484 8.84289 23.8907 9.2285C24.133 9.61412 24.2093 10.0702 24.1038 10.5131C23.9984 10.956 23.7225 11.3306 23.3298 11.5686C23.0517 11.7383 22.7398 11.8242 22.4212 11.8242H22.4257Z" fill="#F79676"/>
<path d="M20.299 13.139C20.2071 13.139 20.1218 13.0839 20.0881 12.9958C20.0455 12.8812 20.1039 12.7556 20.2205 12.7115C20.7365 12.522 21.239 12.2598 21.3445 12.1276C21.1807 11.6428 20.7186 9.11322 20.6243 8.59319C20.6019 8.4742 20.6827 8.35962 20.8061 8.33758C20.9294 8.31555 21.0439 8.39708 21.0663 8.51607C21.3467 10.0651 21.6922 11.8147 21.7752 12.002C21.8021 12.0637 21.8246 12.1607 21.7752 12.2796C21.6204 12.6388 20.7477 12.9914 20.3798 13.1258C20.3529 13.1346 20.3282 13.139 20.3013 13.139H20.299Z" fill="#0B0B16"/>
<path d="M11.0613 22.4721L16.7545 23.7878C17.4251 23.9427 18.0967 23.5344 18.2544 22.8758L18.8762 20.2804C19.0339 19.6218 18.6182 18.9622 17.9476 18.8072L12.2544 17.4916C11.5838 17.3366 10.9123 17.7449 10.7545 18.4036L10.1328 20.9989C9.97504 21.6576 10.3908 22.3171 11.0613 22.4721Z" fill="#0B0B16"/>
<path d="M2.20434 30.0138C9.8859 28.3766 17.5675 26.7372 25.2468 25.1C25.5945 25.0229 25.9221 24.8863 26.2047 24.7122C25.4711 23.302 23.544 22.1892 21.0605 21.7904L16.0487 20.9883L9.62566 21.6648C6.15505 22.0305 3.37093 23.5443 2.49598 25.5363L0.746094 29.529C1.10729 29.9433 1.62553 30.1394 2.20209 30.0116L2.20434 30.0138Z" fill="#0B0B16"/>
<path d="M18.5491 25.4288V29.1197C18.5491 29.6441 19.2132 29.8843 19.5587 29.4877L23.1549 25.3715C23.4959 24.9815 23.1706 24.3822 22.6501 24.4439L19.0517 24.8691C18.7622 24.9044 18.5469 25.1446 18.5469 25.4288H18.5491Z" fill="#0B0B16"/>
</g>
<defs>
<clipPath id="clip0_25883_43037">
<rect width="66" height="51" fill="white"/>
</clipPath>
</defs>
</svg>
