<svg width="68" height="52" viewBox="0 0 68 52" fill="none" xmlns="http://www.w3.org/2000/svg">
<g clip-path="url(#clip0_25883_42939)">
<path d="M60.5394 49.2538L50.9569 22.1963C50.9569 21.9452 45.3625 21.4517 41.3677 21.1323C38.9013 20.934 36.4907 21.9319 34.9021 23.8089C33.9062 24.9853 33.298 26.4349 33.1576 27.9638L31.1992 49.2538H60.5394Z" fill="white"/>
<path d="M60.3279 49.3264L50.7699 22.3351C50.4981 22.2447 49.0321 21.9672 41.35 21.3503C38.9594 21.1587 36.6133 22.1302 35.0738 23.9477C34.1024 25.0955 33.5165 26.49 33.3783 27.9814L31.4199 49.2714L30.9766 49.2317L32.935 27.9418C33.0798 26.3622 33.7014 24.8818 34.7307 23.6657C36.3616 21.7381 38.8502 20.7092 41.3834 20.9119C50.7186 21.661 51.1553 21.8857 51.1754 22.1566L60.7468 49.181L60.3257 49.3264H60.3279Z" fill="#0B0B16"/>
<path d="M39.3945 15.5664L47.045 13.8116L49.2446 23.1876C49.5643 24.5503 48.7042 25.9146 47.326 26.2307L44.0597 26.9799C43.0179 27.2189 41.9773 26.5756 41.7361 25.5476L39.3945 15.5664Z" fill="white"/>
<path d="M43.6222 27.2493C42.6396 27.2493 41.7484 26.5818 41.519 25.597L39.1774 15.6152C39.1506 15.4962 39.2241 15.3773 39.3445 15.3508L46.9953 13.5972C47.1134 13.5708 47.2359 13.6435 47.2627 13.7624L49.4617 23.1385C49.6288 23.8545 49.5062 24.5947 49.1119 25.2181C48.7175 25.8416 48.1026 26.2778 47.3763 26.4452L44.1101 27.1942C43.9474 27.2317 43.7826 27.2493 43.6222 27.2493ZM39.6608 15.7297L41.9512 25.4957C42.1651 26.4056 43.0874 26.9761 44.0076 26.7646L47.2738 26.0156C47.882 25.8768 48.4012 25.5089 48.7309 24.9846C49.0629 24.4603 49.1654 23.839 49.025 23.2376L46.875 14.0753L39.6586 15.7297H39.6608Z" fill="#0B0B16"/>
<path d="M41.1056 22.1272L39.7109 17.1329L44.3117 15.875L46.259 17.1814C45.6485 19.4064 43.8483 21.2063 41.1056 22.1272Z" fill="#0B0B16"/>
<path d="M51.0588 9.48422C51.0588 5.28176 47.6135 1.875 43.3634 1.875C39.1133 1.875 35.668 5.28176 35.668 9.48422V9.88957C35.668 14.092 39.1133 17.4988 43.3634 17.4988C47.6135 17.4988 51.0588 14.092 51.0588 9.88957V9.48422Z" fill="#0B0B16"/>
<path d="M41.2475 16.8793C37.7005 16.8793 34.8242 14.0352 34.8242 10.528V9.22825C34.8242 5.72105 37.7005 2.87695 41.2475 2.87695C44.7944 2.87695 47.6707 5.72105 47.6707 9.22825V10.528C47.6707 14.0352 44.7944 16.8793 41.2475 16.8793Z" fill="#0B0B16"/>
<path d="M35.5647 10.7581V10.714C35.5647 7.17156 38.47 4.29883 42.0526 4.29883H42.418C44.8442 4.29883 46.9608 5.61844 48.0726 7.57031L48.4892 7.44694C49.3381 7.198 50.2293 7.67605 50.4832 8.5154C50.735 9.35475 50.2515 10.236 49.4027 10.4871L48.9036 10.6347C48.9036 10.6611 48.9036 10.6898 48.9036 10.7162V13.1726C48.9036 16.715 45.9983 19.5878 42.4157 19.5878H42.0504C38.7285 19.5878 35.9903 17.1182 35.6093 13.9326L35.5625 10.7625L35.5647 10.7581Z" fill="white"/>
<path d="M42.4176 19.8033H42.0522C38.6523 19.8033 35.7893 17.2896 35.3905 13.9542C35.3905 13.9476 35.3905 13.9388 35.3905 13.9322L35.3438 10.7621V10.7136C35.3438 7.0544 38.3537 4.07812 42.0544 4.07812H42.4198C44.7792 4.07812 46.9693 5.31181 48.1791 7.30775L48.4286 7.23505C49.3934 6.95086 50.4115 7.49721 50.6989 8.45111C50.9864 9.40502 50.4338 10.4118 49.4691 10.696L49.1305 10.7951V13.17C49.1305 16.8292 46.1205 19.8055 42.4198 19.8055L42.4176 19.8033ZM35.8339 13.9124C36.2104 17.0208 38.8818 19.3627 42.0522 19.3627H42.4176C45.8709 19.3627 48.6826 16.5847 48.6826 13.1678V10.6321C48.6804 10.533 48.745 10.447 48.8408 10.4184L49.3399 10.2708C50.0684 10.0571 50.4873 9.29487 50.2689 8.57448C50.0528 7.85409 49.282 7.43993 48.5534 7.65582L48.1368 7.77919C48.0365 7.80783 47.9296 7.76597 47.8783 7.67565C46.7688 5.72818 44.6767 4.51653 42.4176 4.51653H42.0522C38.5988 4.51653 35.7871 7.29453 35.7871 10.7114V10.7555L35.8339 13.9124Z" fill="#0B0B16"/>
<path d="M48.76 9.76684C48.6531 9.76684 48.5595 9.68973 48.5395 9.58178C48.3634 8.53976 49.219 8.01985 49.2546 7.99782C49.3593 7.93613 49.4975 7.96918 49.5599 8.07272C49.6223 8.17626 49.5888 8.31064 49.4841 8.37453C49.4574 8.39215 48.8536 8.76887 48.9784 9.50908C48.9984 9.62805 48.916 9.7426 48.7957 9.76243C48.7823 9.76243 48.7712 9.76463 48.76 9.76463V9.76684Z" fill="#0B0B16"/>
<path d="M38.4533 10.8722C38.5491 11.1189 38.0679 11.5309 37.3772 11.793C36.6866 12.0552 36.0494 12.0684 35.9536 11.8217C35.8578 11.5749 36.339 11.163 37.0297 10.9008C37.7203 10.6386 38.3575 10.6254 38.4533 10.8722Z" fill="#0B0B16"/>
<path d="M43.4079 10.5186C43.3901 10.783 42.7774 10.9548 42.0399 10.9042C41.3025 10.8535 40.7187 10.6002 40.7388 10.3358C40.7566 10.0714 41.3693 9.89959 42.1068 9.95026C42.8442 10.0009 43.428 10.2543 43.4079 10.5186Z" fill="#0B0B16"/>
<path d="M40.4347 14.9722C40.4347 14.9722 40.4191 14.9722 40.4124 14.9722C40.1049 14.9413 39.8242 14.7805 39.6415 14.536C39.4588 14.2892 39.3898 13.9764 39.4521 13.6768L39.8064 11.9849C39.8309 11.8659 39.949 11.7888 40.0693 11.813C40.1896 11.8373 40.2676 11.954 40.2431 12.073L39.8888 13.7649C39.8509 13.9456 39.8888 14.1262 40.0002 14.2738C40.1094 14.4214 40.272 14.5139 40.457 14.5338C40.5795 14.547 40.6686 14.6549 40.6552 14.7761C40.6441 14.8885 40.5461 14.9744 40.4347 14.9744V14.9722Z" fill="#0B0B16"/>
<path d="M41.7369 16.8146C41.552 16.8146 41.3582 16.775 41.1577 16.6979C41.044 16.6538 40.9861 16.526 41.0307 16.4137C41.0752 16.2991 41.2045 16.244 41.3181 16.2881C41.6211 16.4049 41.884 16.4027 42.1179 16.2793C42.6927 15.9797 42.9111 15.072 42.9133 15.0632C42.94 14.9443 43.0604 14.8716 43.1807 14.898C43.301 14.9244 43.3745 15.0434 43.3478 15.1624C43.3366 15.2086 43.0826 16.2727 42.3274 16.667C42.1424 16.764 41.9441 16.8124 41.7369 16.8124V16.8146Z" fill="#0B0B16"/>
<path d="M43.7219 4.41681C45.032 4.8508 46.1727 5.42579 47.0149 6.02942C46.9859 6.26514 46.9324 6.50086 46.8545 6.72998C46.4824 7.82488 45.609 8.6466 44.475 9.10923C43.791 8.99688 43.058 8.81623 42.3094 8.5695C39.2883 7.56712 37.1561 5.82233 37.546 4.67677C37.9359 3.52899 40.7008 3.41444 43.7197 4.41681H43.7219Z" fill="#0B0B16"/>
<path d="M42.2309 12.4353C42.251 12.8825 42.0349 13.2526 41.7475 13.2658C41.4601 13.279 41.2105 12.9265 41.1927 12.4793C41.1726 12.0321 41.3888 11.662 41.6762 11.6488C41.9636 11.6356 42.2131 11.9881 42.2309 12.4353Z" fill="#0B0B16"/>
<path d="M38.0119 13.4372C38.032 13.8844 37.8159 14.2545 37.5285 14.2678C37.241 14.281 36.9915 13.9285 36.9737 13.4813C36.9559 13.0341 37.1698 12.664 37.4572 12.6508C37.7446 12.6375 37.9941 12.99 38.0119 13.4372Z" fill="#0B0B16"/>
<path d="M45.0342 2.93279C45.003 2.93279 44.9718 2.92618 44.9429 2.91296C44.8315 2.86229 44.7825 2.73231 44.8315 2.62216C45.3261 1.54709 46.7854 1.61098 46.8456 1.61538C46.9681 1.62199 47.0617 1.72553 47.055 1.8467C47.0483 1.96787 46.9436 2.0648 46.8211 2.05599C46.8077 2.05599 45.6024 2.00532 45.2347 2.80501C45.1969 2.88652 45.1167 2.93499 45.032 2.93499L45.0342 2.93279Z" fill="#0B0B16"/>
<path d="M45.2046 2.43837C45.1801 2.43837 45.1578 2.43397 45.1333 2.42736C45.0175 2.3877 44.9551 2.26213 44.993 2.14758C45.1356 1.73341 44.8437 1.55937 44.8303 1.55276C44.7234 1.49108 44.6877 1.35669 44.7479 1.25095C44.8103 1.1452 44.9462 1.10995 45.0531 1.16944C45.2692 1.2928 45.6213 1.68494 45.4141 2.28637C45.3829 2.37889 45.296 2.43617 45.2024 2.43617L45.2046 2.43837Z" fill="#0B0B16"/>
<path d="M41.7518 9.06581C41.7362 9.06581 41.7184 9.06581 41.7028 9.0614C39.8001 8.64063 38.3608 7.73078 37.4251 6.3539C37.356 6.25256 37.3827 6.11597 37.4852 6.04768C37.5877 5.97938 37.7258 6.00582 37.7949 6.10716C38.6638 7.38711 40.0117 8.23527 41.7986 8.62961C41.9189 8.65605 41.9946 8.77281 41.9679 8.89177C41.9456 8.99531 41.852 9.06361 41.7518 9.06361V9.06581Z" fill="#0B0B16"/>
<path d="M48.2949 6.42222L48.1613 11.4121C48.1546 11.6588 47.9229 11.8593 47.6043 11.8989C47.2478 11.943 46.8958 11.7689 46.7955 11.5002L44.5742 5.54102L48.2949 6.42443V6.42222Z" fill="#0B0B16"/>
<path d="M28.8198 39.6386C29.2588 37.6625 29.5172 34.9704 29.5061 31.2935L29.408 30.5049C29.1295 28.249 27.4697 26.4006 25.2373 25.8609L13.4156 23.0058C11.4171 22.5233 9.31393 23.1776 7.95709 24.7065L0.832031 39.6386H28.8198Z" fill="#0B0B16"/>
<path d="M17.9905 23.9736L20.9047 28.5361C21.6778 29.7455 23.5315 29.4988 23.9526 28.1307L27.2567 17.4152L20.7487 15.373L17.9883 23.9736H17.9905Z" fill="white"/>
<path d="M22.3257 29.5371C21.6729 29.5371 21.0735 29.2133 20.7148 28.6537L17.8006 24.0913C17.765 24.0362 17.7561 23.9679 17.7761 23.9062L20.5366 15.3056C20.5544 15.2506 20.5945 15.2043 20.6458 15.1756C20.6992 15.1492 20.7594 15.1426 20.8151 15.1602L27.323 17.2024C27.4389 17.2399 27.5035 17.361 27.4678 17.4756L24.1637 28.1911C23.9432 28.9071 23.3394 29.4159 22.5863 29.5151C22.4972 29.5261 22.4103 29.5327 22.3234 29.5327L22.3257 29.5371ZM18.2329 23.9415L21.0914 28.418C21.401 28.9048 21.9514 29.1582 22.5284 29.0811C23.1054 29.004 23.5689 28.6163 23.7382 28.0655L26.9777 17.5571L20.8931 15.6471L18.2329 23.9392V23.9415Z" fill="#0B0B16"/>
<path d="M19.5078 20.4596L21.1387 15.375L27.2567 17.2938L25.51 22.7375C23.3332 22.9093 21.1075 22.1361 19.5078 20.4596Z" fill="#0B0B16"/>
<path d="M22.1211 5.10938L23.7653 5.30765C27.593 5.77028 30.5941 8.60336 31.0397 12.1789L31.5788 16.4968C31.7794 18.1116 30.5562 19.5766 28.8273 19.7903L22.1968 20.6054L22.1211 5.10938Z" fill="#0B0B16"/>
<path d="M25.1956 5.25768L23.284 5.1255C18.8303 4.81487 14.8689 7.13024 13.6747 10.7432L12.2332 15.103C11.6941 16.7332 12.8103 18.5044 14.7397 19.0794L22.1411 21.2912L25.1956 5.25768Z" fill="#0B0B16"/>
<path d="M24.537 7.1063C24.5102 7.1063 24.4835 7.1019 24.4567 7.09088C24.3409 7.04682 24.283 6.92125 24.3275 6.80669L25.8581 2.83025C26.0609 2.30152 25.9695 1.73975 25.5975 1.25068C25.5239 1.15375 25.544 1.01496 25.642 0.942263C25.7401 0.869563 25.8804 0.88939 25.9539 0.986323C26.4151 1.59215 26.531 2.32135 26.2748 2.98666L24.7442 6.96311C24.7107 7.05123 24.6261 7.1063 24.537 7.1063Z" fill="#0B0B16"/>
<path d="M24.4625 6.94097L25.5075 2.86319C25.835 1.58544 24.8903 0.329718 23.4911 0.179913L21.9427 0.0146869C20.3987 -0.150539 19.1132 1.10298 19.3582 2.53273L20.1581 7.22296L24.4648 6.94097H24.4625Z" fill="#0B0B16"/>
<path d="M13.8362 12.2195C14.1548 11.162 15.2799 10.5584 16.3493 10.8734L16.385 10.8845C17.2717 7.83989 19.5866 5.66992 22.3025 5.66992C25.3058 5.66992 27.8167 8.32676 28.4517 11.8824C29.3852 11.9221 30.1962 12.6028 30.3566 13.5523C30.5393 14.6406 29.7951 15.6716 28.6945 15.8523L28.347 15.9095C27.5738 19.2053 25.161 21.6087 22.3047 21.6087C19.1811 21.6087 16.5899 18.736 16.0886 14.9689L15.1997 14.7067C14.1303 14.3917 13.5198 13.2791 13.8384 12.2217L13.8362 12.2195Z" fill="white"/>
<path d="M22.3018 21.8267C19.1358 21.8267 16.4578 19.0223 15.8852 15.1361L15.1344 14.9158C14.5595 14.7462 14.085 14.3673 13.7998 13.8452C13.5146 13.323 13.45 12.7238 13.6216 12.1555C13.7931 11.5871 14.1763 11.1178 14.7044 10.8358C15.1767 10.5825 15.7114 10.5054 16.2328 10.6155C17.2131 7.5159 19.6304 5.44727 22.3018 5.44727C25.334 5.44727 27.9207 7.99836 28.6381 11.6752C29.6117 11.7964 30.4116 12.5432 30.5742 13.5125C30.777 14.7198 29.9482 15.8653 28.7272 16.0658L28.5267 16.0989C27.6779 19.4783 25.1357 21.8267 22.3018 21.8267ZM15.7716 11.0077C15.4752 11.0077 15.1834 11.0804 14.9183 11.2236C14.4949 11.4505 14.1875 11.825 14.0516 12.281C13.9134 12.737 13.9647 13.2173 14.1942 13.6359C14.4236 14.0545 14.8024 14.3585 15.2636 14.4929L16.1525 14.755C16.2372 14.7792 16.2996 14.8519 16.3107 14.9379C16.8076 18.6742 19.3274 21.3861 22.304 21.3861C24.9709 21.3861 27.3659 19.1126 28.1301 15.8565C28.1502 15.7706 28.2215 15.7045 28.3106 15.6891L28.6582 15.6318C29.6362 15.471 30.3002 14.5523 30.1375 13.5852C29.9994 12.7613 29.2865 12.1356 28.4443 12.1004C28.3396 12.096 28.2527 12.0211 28.2349 11.9175C27.6132 8.42354 25.1201 5.88787 22.3062 5.88787C19.7752 5.88787 17.4849 7.91905 16.6026 10.9438C16.587 11.0011 16.5469 11.0473 16.4957 11.076C16.4444 11.1046 16.382 11.1112 16.3263 11.0936L16.2907 11.0826C16.1214 11.0319 15.9476 11.0077 15.776 11.0077H15.7716Z" fill="#0B0B16"/>
<path d="M19.5273 6.12535C20.3896 5.56138 21.3565 5.24414 22.3814 5.24414C25.4738 5.24414 28.0605 8.13009 28.7111 11.9942C28.916 12.003 29.1143 12.0449 29.3015 12.1131C25.6654 12.2938 21.9558 9.98063 19.5273 6.12535Z" fill="#0B0B16"/>
<path d="M26.8895 12.8773C26.8895 12.8773 26.874 12.8773 26.8673 12.8773C23.9263 12.5909 21.1703 10.2888 19.6709 6.8675C19.6219 6.75515 19.6731 6.62517 19.7868 6.57891C19.9004 6.53044 20.0296 6.58111 20.0809 6.69346C21.5157 9.96715 24.1313 12.1702 26.9118 12.4411C27.0344 12.4521 27.1235 12.5601 27.1123 12.6813C27.1012 12.7958 27.0032 12.8795 26.8918 12.8795L26.8895 12.8773Z" fill="#0B0B16"/>
<path d="M20.775 9.94276C20.7037 9.94276 20.6346 9.90971 20.5923 9.84803C19.8727 8.83023 19.4471 7.61857 19.329 6.2483C19.3179 6.12713 19.4093 6.02139 19.5318 6.01037C19.6521 6.00156 19.7613 6.08968 19.7724 6.21085C19.8838 7.50181 20.2804 8.64077 20.9555 9.59468C21.0268 9.69382 21.0023 9.83261 20.8998 9.9009C20.8619 9.92734 20.8173 9.94055 20.7728 9.94055L20.775 9.94276Z" fill="#0B0B16"/>
<path d="M16.1677 13.6234C16.1566 13.6234 16.1432 13.6234 16.1299 13.6212C16.0095 13.6014 15.9271 13.4869 15.9472 13.3679C16.0586 12.7092 15.5194 12.3721 15.4971 12.3589C15.3924 12.295 15.359 12.1606 15.4236 12.0571C15.4882 11.9536 15.6241 11.9205 15.7288 11.9822C15.7622 12.002 16.5509 12.4823 16.3883 13.4406C16.3705 13.5485 16.2769 13.6256 16.1677 13.6256V13.6234Z" fill="#0B0B16"/>
<path d="M28.6768 14.5131C28.5654 14.5131 28.4718 14.4338 28.4562 14.3215C28.4517 14.284 28.3403 13.3742 29.2026 12.9027C29.3095 12.8433 29.4454 12.8829 29.5056 12.9887C29.5657 13.0944 29.5256 13.2288 29.4187 13.2883C28.8283 13.6121 28.8951 14.2378 28.8996 14.2642C28.9151 14.3854 28.8283 14.4955 28.7057 14.5087C28.6968 14.5087 28.6857 14.5087 28.6768 14.5087V14.5131Z" fill="#0B0B16"/>
<path d="M24.5001 13.6109C24.4711 14.0162 24.2372 14.329 23.9765 14.3114C23.7158 14.2938 23.5287 13.9501 23.5576 13.547C23.5866 13.1416 23.8205 12.8288 24.0812 12.8464C24.3419 12.864 24.529 13.2077 24.5001 13.6109Z" fill="#0B0B16"/>
<path d="M20.3197 13.5617C20.3197 13.9671 20.108 14.2953 19.8473 14.2953C19.5867 14.2953 19.375 13.9671 19.375 13.5617C19.375 13.1564 19.5867 12.8281 19.8473 12.8281C20.108 12.8281 20.3197 13.1564 20.3197 13.5617Z" fill="#0B0B16"/>
<path d="M22.4104 19.1546C22.308 19.1546 22.2144 19.0841 22.1921 18.9806C22.1676 18.8616 22.2433 18.7448 22.3637 18.7206C23.5423 18.4761 24.1082 17.6235 24.1126 17.6147C24.1795 17.5133 24.3176 17.4825 24.4201 17.5486C24.5226 17.6147 24.5538 17.7513 24.4869 17.8526C24.4602 17.8945 23.8141 18.8682 22.455 19.1502C22.4394 19.1524 22.4238 19.1546 22.4082 19.1546H22.4104Z" fill="#0B0B16"/>
<path d="M21.6695 16.7947C21.6539 16.7947 21.6361 16.7947 21.6205 16.7881C21.342 16.7242 21.1014 16.5458 20.961 16.299C20.8207 16.0523 20.7939 15.7571 20.8853 15.4883L21.3955 14.0013C21.4356 13.8867 21.5626 13.8251 21.6785 13.8625C21.7943 13.9022 21.8567 14.0277 21.8188 14.1423L21.3086 15.6293C21.2551 15.7813 21.2707 15.9444 21.3509 16.0831C21.4311 16.2241 21.5626 16.3211 21.7208 16.3585C21.8411 16.385 21.9168 16.5039 21.8879 16.6229C21.8634 16.7242 21.772 16.7947 21.6718 16.7947H21.6695Z" fill="#0B0B16"/>
<path d="M25.1466 5.64268C25.1221 5.64268 25.0976 5.63828 25.0731 5.62946C21.9807 4.54117 19.8129 5.47085 19.7906 5.48186C19.6792 5.53033 19.5455 5.48186 19.4965 5.37171C19.4453 5.26156 19.4965 5.13158 19.6079 5.08091C19.7015 5.03906 21.9495 4.06532 25.2224 5.2153C25.3382 5.25715 25.3984 5.38273 25.3583 5.49728C25.3249 5.58761 25.2402 5.64489 25.1489 5.64489L25.1466 5.64268Z" fill="#3272AD"/>
<path d="M10.5868 39.8173C10.5579 39.8173 10.5267 39.8107 10.4977 39.7997C10.3841 39.7512 10.3328 39.6212 10.3818 39.5111L12.0551 35.6778C12.1041 35.5655 12.2355 35.5148 12.3469 35.5633C12.4605 35.6117 12.5118 35.7417 12.4628 35.8519L10.7896 39.6851C10.7539 39.7688 10.6715 39.8173 10.5846 39.8173H10.5868Z" fill="white"/>
<path d="M33.3211 48.385C35.3018 41.9698 37.3626 35.559 39.5037 29.1526C38.9824 28.7737 38.4521 28.3948 37.9174 28.0137C33.7801 28.1392 29.6917 28.2692 25.6546 28.3992C23.9792 28.4543 22.3416 28.8486 20.918 29.5536C22.9543 35.8828 24.4694 42.1835 25.4675 48.4511C28.0653 48.4268 30.6854 48.4048 33.3233 48.3828L33.3211 48.385Z" fill="white"/>
<path d="M25.467 48.6707C25.3578 48.6707 25.2642 48.5914 25.2464 48.4857C24.2549 42.2577 22.7288 35.9108 20.7058 29.6212C20.6724 29.5177 20.7214 29.4053 20.8194 29.3569C22.2609 28.6431 23.9319 28.2355 25.6496 28.1804C29.6867 28.0483 33.7751 27.9205 37.9124 27.7949C37.9614 27.7949 38.0082 27.8081 38.0483 27.8368C38.5853 28.2179 39.1155 28.5968 39.6369 28.9757C39.7148 29.033 39.746 29.1322 39.7171 29.2225C37.5871 35.5936 35.5084 42.0639 33.5367 48.4482C33.5077 48.5407 33.423 48.6024 33.325 48.6046C30.6871 48.6266 28.067 48.6487 25.4692 48.6729L25.467 48.6707ZM21.187 29.6675C23.1677 35.8558 24.6716 42.0969 25.6563 48.2279C28.1383 48.2059 30.6381 48.1838 33.1579 48.164C35.1007 41.8766 37.146 35.5099 39.2425 29.2357C38.7836 28.903 38.3201 28.5704 37.85 28.2377C33.7372 28.3633 29.6756 28.4911 25.663 28.6211C24.0767 28.6739 22.5349 29.0352 21.1892 29.6697L21.187 29.6675Z" fill="#0B0B16"/>
<path d="M40.6988 28.8716C38.7048 35.7582 36.7108 42.6448 34.7189 49.5336C29.3673 50.1791 24.2319 50.8378 19.3125 51.5098C19.7581 44.1803 20.2015 36.8509 20.6471 29.5214C20.4978 29.5126 41.0598 28.5543 40.7011 28.8738L40.6988 28.8716Z" fill="#3272AD"/>
<path d="M5.92821 46.731C4.75184 40.1241 3.49303 33.5151 2.15625 26.8994C2.71993 26.5866 3.29252 26.2738 3.87179 25.9609C7.96458 26.5822 12.0061 27.2012 15.9964 27.8181C17.654 28.0736 19.2314 28.6618 20.5571 29.532C17.7588 35.5705 15.4795 41.6398 13.7194 47.7422C11.1439 47.4073 8.54608 47.0702 5.93044 46.731H5.92821Z" fill="white"/>
<path d="M13.7154 47.9623C13.7154 47.9623 13.6954 47.9623 13.6865 47.9623C11.1109 47.6274 8.51311 47.2904 5.89747 46.9511C5.80166 46.9379 5.72369 46.8652 5.70809 46.7704C4.53617 40.1966 3.26846 33.5259 1.93836 26.9433C1.91831 26.8508 1.96286 26.7538 2.04753 26.7076C2.61343 26.3947 3.18602 26.0797 3.7653 25.7669C3.80763 25.7426 3.85664 25.736 3.90566 25.7426C7.99845 26.3639 12.04 26.9829 16.0303 27.5998C17.728 27.8619 19.3366 28.4678 20.6801 29.349C20.7714 29.4085 20.8048 29.5252 20.7603 29.6244C17.9798 35.6254 15.6827 41.741 13.9338 47.8037C13.907 47.8984 13.8179 47.9645 13.7199 47.9645L13.7154 47.9623ZM6.11581 46.5325C8.61337 46.8564 11.0931 47.178 13.5528 47.4974C15.2839 41.5317 17.5431 35.5174 20.2701 29.6111C19.0136 28.8203 17.5253 28.2761 15.959 28.0338C11.9932 27.4213 7.97617 26.8067 3.91011 26.1877C3.40214 26.4608 2.90084 26.7362 2.404 27.0116C3.71405 33.4951 4.96172 40.0601 6.11581 46.5325Z" fill="#0B0B16"/>
<path d="M1.00148 26.4759C2.1333 33.552 3.26511 40.6281 4.39915 47.702C9.63266 48.9864 14.6478 50.2575 19.4491 51.5154C19.9081 44.186 20.3693 36.8587 20.8282 29.5293C20.9775 29.5381 0.685113 26.1146 1.00371 26.4759H1.00148Z" fill="#3272AD"/>
<path d="M18.0198 51.0627C18.0198 51.0627 18.0131 51.0627 18.0109 51.0627C17.8884 51.0583 17.7926 50.9548 17.797 50.8336L18.6481 29.7331C18.6526 29.612 18.7573 29.5172 18.8798 29.5216C19.0024 29.526 19.0982 29.6296 19.0937 29.7507L18.2426 50.8512C18.2382 50.9702 18.1401 51.0627 18.0198 51.0627Z" fill="#0B0B16"/>
<path d="M20.6375 51.2215C20.6375 51.2215 20.6263 51.2215 20.6196 51.2215C20.4971 51.2127 20.4058 51.1047 20.4147 50.9836L22.1079 29.9337C22.1168 29.8126 22.2282 29.7223 22.3485 29.7311C22.4711 29.7399 22.5624 29.8478 22.5535 29.969L20.8603 51.0188C20.8513 51.1334 20.7533 51.2215 20.6375 51.2215Z" fill="#0B0B16"/>
<path d="M2.13601 34.5526L2.34767 36.119L1.15793 35.2488C0.698969 34.9117 0.37814 34.4249 0.253374 33.8719C0.141975 33.3806 0.289021 33.1031 0.846015 32.6602L3.81368 30.4727L4.05207 31.1974C4.2214 31.7152 4.10777 32.2813 3.74907 32.6955L2.13378 34.5526H2.13601Z" fill="white"/>
<path d="M2.34914 36.3384C2.30235 36.3384 2.25556 36.323 2.21769 36.2944L1.02795 35.4242C0.526654 35.0563 0.174634 34.5209 0.0387275 33.9195C-0.106091 33.2784 0.163494 32.9215 0.709348 32.4875L3.68369 30.2955C3.74162 30.2537 3.81514 30.2405 3.88421 30.2625C3.95328 30.2845 4.00675 30.3374 4.02903 30.4035L4.26742 31.1283C4.46126 31.7143 4.32758 32.3686 3.92209 32.8378L2.37142 34.6201L2.56971 36.0873C2.58085 36.1754 2.53851 36.2613 2.46276 36.3054C2.42712 36.3252 2.38924 36.3362 2.34914 36.3362V36.3384ZM3.69929 30.8331L0.98116 32.8378C0.455359 33.2542 0.390747 33.4591 0.473182 33.8248C0.584581 34.3249 0.876446 34.7677 1.29308 35.0717L2.0595 35.6312L1.91691 34.5826C1.908 34.5209 1.92805 34.457 1.96815 34.4108L3.58343 32.5536C3.88867 32.2011 3.98893 31.7099 3.84411 31.2693L3.70152 30.8353L3.69929 30.8331Z" fill="#0B0B16"/>
<path d="M2.76204 36.6598L3.0138 38.5192L1.60127 37.4859C1.05541 37.0872 0.674429 36.5056 0.527382 35.8513C0.395932 35.2675 0.687797 34.6727 1.23142 34.4127L5.85224 32.1172L6.08172 33.3333C6.19981 33.9633 5.93468 34.6022 5.40219 34.9657L2.75981 36.6598H2.76204Z" fill="white"/>
<path d="M3.01273 38.7402C2.96595 38.7402 2.91916 38.7247 2.88128 38.6961L1.46875 37.6629C0.880561 37.2311 0.468386 36.6054 0.3102 35.9005C0.15647 35.2153 0.495122 34.5214 1.13455 34.2152L5.75314 31.9196C5.81552 31.8888 5.88905 31.8888 5.95143 31.9196C6.01381 31.9505 6.05837 32.0077 6.07174 32.076L6.30122 33.2921C6.4349 34.0059 6.13412 34.7329 5.53034 35.147L3.00159 36.7707L3.23553 38.4912C3.24667 38.5793 3.20434 38.6653 3.12859 38.7093C3.09294 38.7291 3.05506 38.7402 3.01496 38.7402H3.01273ZM5.6863 32.4461L1.32838 34.6117C0.873877 34.8298 0.633256 35.3211 0.742427 35.8057C0.878333 36.4094 1.22813 36.9425 1.73165 37.3104L2.72087 38.033L2.53817 36.6914C2.52703 36.6076 2.56491 36.5239 2.63843 36.4777L5.28081 34.7835C5.73532 34.4729 5.9648 33.9178 5.86231 33.3758L5.6863 32.4483V32.4461Z" fill="#0B0B16"/>
<path d="M3.09017 39.1043L3.34193 40.9637L1.92939 39.9304C1.38354 39.5317 1.00255 38.9501 0.855507 38.2958C0.724057 37.712 1.01592 37.1172 1.55955 36.8572L5.79047 34.7754L6.01995 35.9915C6.13803 36.6215 5.87291 37.2604 5.34042 37.6239L3.09017 39.1043Z" fill="white"/>
<path d="M3.34086 41.1847C3.29407 41.1847 3.24728 41.1692 3.20941 41.1406L1.79687 40.1074C1.20869 39.6756 0.796511 39.0499 0.638325 38.345C0.484595 37.6598 0.823247 36.9659 1.46268 36.6597L5.69137 34.5778C5.75375 34.547 5.82728 34.547 5.88966 34.5778C5.95204 34.6087 5.9966 34.6659 6.00997 34.7342L6.23945 35.9503C6.37313 36.6641 6.07235 37.3911 5.46857 37.8052L3.32972 39.213L3.56365 40.9357C3.57479 41.0238 3.53246 41.1098 3.45671 41.1538C3.42106 41.1736 3.38319 41.1847 3.34309 41.1847H3.34086ZM5.62453 35.1021L1.65651 37.054C1.202 37.2721 0.961381 37.7612 1.07278 38.248C1.20869 38.8517 1.55848 39.3848 2.062 39.7527L3.05122 40.4753L2.86853 39.1337C2.85739 39.0499 2.89526 38.9684 2.96656 38.92L5.21681 37.4395C5.67355 37.1267 5.90303 36.5738 5.80054 36.0296L5.62453 35.0999V35.1021Z" fill="#0B0B16"/>
<path d="M3.40657 41.4294L3.65833 43.2888L2.2458 42.2555C1.69994 41.8568 1.31896 41.2752 1.17191 40.6209C1.04046 40.0371 1.33233 39.4423 1.87595 39.1823L5.55434 37.4199L5.78382 38.636C5.9019 39.2661 5.63677 39.9049 5.10429 40.2684L3.40657 41.4294Z" fill="white"/>
<path d="M3.65726 43.5089C3.61048 43.5089 3.56369 43.4935 3.52581 43.4649L2.11328 42.4317C1.52509 41.9999 1.11292 41.3742 0.954731 40.6693C0.801001 39.9841 1.13965 39.2902 1.77908 38.9839L5.45747 37.2215C5.51985 37.1907 5.59337 37.1929 5.65576 37.2215C5.71814 37.2524 5.7627 37.3097 5.77384 37.3779L6.00332 38.594C6.137 39.3078 5.83622 40.0348 5.23244 40.449L3.64835 41.5328L3.88229 43.2578C3.89343 43.3459 3.8511 43.4318 3.77535 43.4759C3.7397 43.4957 3.70182 43.5067 3.66172 43.5067L3.65726 43.5089ZM5.38617 37.7436L1.97069 39.3805C1.51841 39.5964 1.27779 40.0877 1.38696 40.5723C1.52286 41.1759 1.87266 41.7091 2.37618 42.077L3.3654 42.7996L3.18271 41.4579C3.17157 41.3764 3.20721 41.2949 3.27628 41.2464L4.974 40.0855C5.43296 39.7704 5.66467 39.2175 5.56218 38.6733L5.38617 37.7414V37.7436Z" fill="#0B0B16"/>
<path d="M18.2348 11.9662C18.1858 11.9662 18.139 11.9508 18.0967 11.9199C18.0009 11.845 17.983 11.7062 18.0588 11.6115C18.0944 11.5652 18.9656 10.4902 20.4071 10.6488C20.5296 10.662 20.6165 10.7721 20.6031 10.8911C20.5898 11.0123 20.4762 11.1004 20.3581 11.085C19.1706 10.955 18.4398 11.8428 18.4086 11.8825C18.364 11.9375 18.2994 11.9662 18.2326 11.9662H18.2348Z" fill="#0B0B16"/>
<path d="M43.2438 40.7106L28.8288 38.0449L25.5871 39.153C25.1749 39.294 25.0947 39.8382 25.4512 40.0893C25.6183 40.2083 25.8277 40.2523 26.0305 40.2127L28.5303 39.7192L29.9339 40.0541L24.9298 41.909C24.6669 42.0059 24.5511 42.3122 24.6848 42.5567C24.8051 42.777 25.0279 42.9202 25.2796 42.9422L24.9388 43.1119C24.6692 43.2462 24.5778 43.5811 24.7405 43.83C24.7405 43.83 25.0056 44.2112 25.5381 44.1979C26.2599 44.1803 28.2206 43.4203 28.2206 43.4203L30.3728 44.0922L28.2874 45.3369L27.1979 46.4913C27.0175 46.6807 27.091 46.9914 27.3383 47.0839C28.0757 47.3328 28.3676 47.0597 29.0405 46.6719L29.2722 46.5376L32.5829 45.1937C32.5829 45.1937 36.5576 47.0861 37.9724 46.9693C39.0173 46.8834 39.8818 45.9582 39.8818 45.9582L42.7915 46.9892L43.246 40.7062L43.2438 40.7106Z" fill="white"/>
<path d="M27.8462 47.402C27.6746 47.402 27.4853 47.3689 27.2647 47.2962C27.0731 47.2257 26.935 47.0693 26.8904 46.8799C26.8458 46.6882 26.8993 46.4899 27.0352 46.3467L28.1737 45.1527L29.838 44.1591L28.2316 43.6569C27.8596 43.7978 26.2265 44.4037 25.5469 44.4213C24.8986 44.4411 24.5733 43.9785 24.5599 43.9587C24.4441 43.7824 24.4107 43.5709 24.4641 43.3727C24.5087 43.2074 24.6112 43.0664 24.7515 42.9695C24.6446 42.888 24.5555 42.7845 24.4886 42.6633C24.3951 42.4893 24.3795 42.2866 24.4508 42.1015C24.5198 41.9187 24.6669 41.7733 24.8518 41.7028L29.1763 40.099L28.5257 39.9426L26.075 40.425C25.8143 40.4779 25.5402 40.4184 25.3219 40.2664C25.0902 40.1034 24.9699 39.8258 25.01 39.546C25.0501 39.2662 25.2439 39.0349 25.5135 38.9424L28.8109 37.8145L28.8688 37.8255L43.4799 40.5286L42.992 47.2984L39.9396 46.2168C39.6678 46.4745 38.9036 47.1178 37.9902 47.1927C36.6378 47.3028 33.1911 45.7255 32.574 45.4369L29.3679 46.7389L29.1496 46.8644C29.0671 46.9129 28.9891 46.957 28.9178 47.001C28.548 47.2213 28.2472 47.3998 27.8462 47.3998V47.402ZM28.4277 45.5118L27.3583 46.6441C27.3092 46.6948 27.3182 46.7543 27.3226 46.7763C27.3271 46.7984 27.3471 46.8556 27.414 46.8799C27.9531 47.0605 28.1848 46.9239 28.6884 46.6243C28.7619 46.5803 28.8421 46.5318 28.9268 46.4833L29.1874 46.3357L32.5918 44.9544L32.6809 44.9963C32.721 45.0139 36.6088 46.8578 37.9567 46.7521C38.9059 46.675 39.7124 45.8202 39.7191 45.8114L39.8193 45.7035L42.5909 46.686L43.0098 40.8877L28.8488 38.2683L25.6628 39.3588C25.5491 39.3984 25.4712 39.4909 25.4533 39.6077C25.4355 39.7245 25.4845 39.8368 25.5826 39.9051C25.6984 39.9866 25.8477 40.0197 25.9881 39.991L28.5346 39.4887L30.6913 40.0043L25.0078 42.1125C24.9409 42.1368 24.8919 42.1874 24.8652 42.2513C24.8407 42.3174 24.8451 42.3879 24.8785 42.4496C24.9632 42.6038 25.1192 42.7052 25.2952 42.7206L26.0839 42.7867L25.0367 43.3066C24.9632 43.3418 24.912 43.4057 24.8897 43.4828C24.8674 43.5599 24.8808 43.6414 24.9253 43.7097C24.9298 43.7141 25.1392 43.9807 25.5313 43.9763C26.0905 43.9609 27.6033 43.4211 28.1381 43.214L28.2116 43.1854L30.9074 44.0292L28.4255 45.5096L28.4277 45.5118Z" fill="#0B0B16"/>
<path d="M30.5287 41.6895L28.0757 41.8899L25.2773 42.9452L30.5287 41.6895Z" fill="white"/>
<path d="M25.3574 43.1494L25.1992 42.7374L28.0577 41.669L30.5085 41.4707L30.5464 41.9091L28.1268 42.1052L25.3574 43.1494Z" fill="#0B0B16"/>
<path d="M43.2542 40.756L42.793 46.995L57.335 51.423C61.626 52.7294 66.1711 50.3171 67.441 46.0587C68.1362 43.7279 67.7173 41.2098 66.307 39.2227L55.8489 24.4956C54.6101 22.7508 52.5871 21.7109 50.4305 21.7109C47.7591 21.7109 45.3485 23.2993 44.3191 25.7381L43.5438 27.5798L43.2519 40.7582L43.2542 40.756Z" fill="white"/>
<path d="M59.7207 51.9998C58.9008 51.9998 58.0787 51.8786 57.2721 51.6319L42.5586 47.1532L43.0331 40.7402L43.4765 40.7732L43.0287 46.8381L57.4014 51.2133C59.4199 51.828 61.5565 51.6231 63.4169 50.6339C65.2772 49.647 66.6319 47.9991 67.229 45.9966C67.9085 43.7165 67.5074 41.2931 66.1261 39.3479L55.668 24.6207C54.4716 22.9354 52.5154 21.9308 50.4323 21.9308C47.8411 21.9308 45.524 23.4597 44.5281 25.8236L43.7528 27.6653L43.3406 27.4957L44.1159 25.6539C45.1809 23.1249 47.6607 21.4902 50.4323 21.4902C52.6602 21.4902 54.7523 22.5653 56.0312 24.3674L66.4893 39.0945C67.9486 41.15 68.3741 43.7121 67.6545 46.12C67.024 48.2371 65.5936 49.9774 63.6263 51.0217C62.4032 51.6716 61.0664 51.9998 59.7185 51.9998H59.7207Z" fill="#0B0B16"/>
<path d="M43.2738 40.4949L43.2148 40.9316L57.9913 42.8812L58.0502 42.4444L43.2738 40.4949Z" fill="#0B0B16"/>
<path d="M55.0091 42.539C54.94 42.539 54.8732 42.5082 54.8286 42.4487L48.6059 34.0486C48.5324 33.9494 48.5546 33.8129 48.6549 33.7402C48.7529 33.6675 48.8933 33.6895 48.9668 33.7886L55.1895 42.1887C55.2631 42.2879 55.2408 42.4245 55.1405 42.4972C55.1004 42.5258 55.0559 42.539 55.0091 42.539Z" fill="#0B0B16"/>
</g>
<defs>
<clipPath id="clip0_25883_42939">
<rect width="68" height="52" fill="white"/>
</clipPath>
</defs>
</svg>
