<svg xmlns="http://www.w3.org/2000/svg"><defs><font id="WorkSans" horiz-adv-x="597"><font-face font-family="Work Sans" ascent="930" descent="-243" alphabetic="0"/><glyph horiz-adv-x="341"/><glyph unicode="!" horiz-adv-x="272" d="M178 660V374l-12-166h-60L94 374v286h84zm-42-540q29 0 47-18t18-47q0-29-18-47t-47-18q-29 0-47 18T71 55q0 29 18 47t47 18z"/><glyph unicode="&quot;" horiz-adv-x="403" d="M339 690l-26-247h-62v247h88zm-169 0l-26-247H82v247h88z"/><glyph unicode="#" horiz-adv-x="639" d="M525 660L415 0h-68l110 660h68zm50-414v-61H20v61h555zM291 660L181 0h-68l110 660h68zm328-184v-61H64v61h555z"/><glyph unicode="$" horiz-adv-x="622" d="M317 1q-69 0-122 19t-91 51-62 72l68 55q19-36 48-64t70-44 94-16q74 0 117 27t44 79q0 31-20 55t-77 38l-150 34q-60 14-96 37t-52 56-16 71q0 52 28 95t82 69 129 26q84 0 145-34t102-102l-65-50q-35 62-80 88t-110 26q-52 0-85-14t-49-39-16-54q0-23 9-42t32-33 66-25l139-31q92-20 128-61t37-103q0-55-30-97t-86-65T317 1zm-38-101v860h69v-860h-69z"/><glyph unicode="%" horiz-adv-x="856" d="M180 0l420 660h76L256 0h-76zm19 670q49 0 84-22t55-64 20-96q0-55-19-96t-55-63-85-23q-48 0-84 22t-55 64-20 96q0 55 19 96t56 63 84 23zm0-63q-28 0-48-14t-30-40-10-65q0-37 10-64t30-41 48-14q29 0 48 14t30 41 10 64q0 38-10 64t-29 41-49 14zm458-253q49 0 84-22t55-64 20-96q0-55-19-96t-55-63-85-23q-48 0-84 22t-55 64-20 96q0 55 19 96t56 63 84 23zm0-63q-28 0-48-14t-30-40-10-65q0-37 10-64t30-41 48-14q29 0 48 14t30 41 10 64q0 38-10 64t-29 41-49 14z"/><glyph unicode="&amp;" horiz-adv-x="623" d="M258-10q-66 0-113 23T73 76t-25 92q0 32 8 60t28 55 51 49 81 43l42 21q38 21 63 39t37 41 13 52q0 35-21 54t-59 20q-43 0-63-23t-21-55q0-19 5-36t21-44 50-69 89-113q57-70 94-112t63-64 48-29 50-7l-20-60q-29 0-54 7t-56 30-73 69-106 123q-54 67-90 113t-57 78-30 58-9 55q0 36 17 70t54 55 93 22q43 0 75-16t50-46 19-71q0-35-11-66t-43-62-94-64l-34-13q-52-24-81-46t-41-49-12-62q0-37 19-64t51-41 72-15q55 0 93 20t70 57l13 12q26 41 40 93t10 116l68-6q4-64-13-126t-56-112l-15-21q-38-45-92-71T258-10z"/><glyph unicode="'" horiz-adv-x="234" d="M170 690l-26-247H82v247h88z"/><glyph unicode="(" horiz-adv-x="350" d="M275 751l46-46q-66-60-105-126t-56-140-17-158q0-83 17-157t56-140 105-127l-46-46Q169-97 115 21T61 281q0 141 54 260t160 210z"/><glyph unicode=")" horiz-adv-x="350" d="M75-189l-46 46Q95-83 134-17t56 140 17 158q0 83-17 157t-56 140T29 705l46 46q106-92 160-210t54-260q0-141-54-260T75-189z"/><glyph unicode="*" horiz-adv-x="572" d="M301 506l79-84 70-98-52-38-72 97-55 101 15 11 15 11zm-30 0l15-11 15-11-55-101-72-97-52 38 70 98 79 84zM72 598l116-36 104-49-6-18-6-18-113 22-114 38 19 61zm247 132V609l-14-114h-38l-14 114v121h66zm181-132l19-61-114-38-113-22-6 18-6 18 104 49 116 36z"/><glyph unicode="+" horiz-adv-x="604" d="M340 564V68h-75v496h75zm205-210v-75H59v75h486z"/><glyph unicode="," horiz-adv-x="266" d="M133 120q24 0 40-12t26-34 9-51q0-33-11-65t-36-59-62-45l-42 39q27 9 47 25t34 36 17 41l-4 2q-4-3-10-5t-18-2q-12 0-24 7T77 17t-9 36q0 18 9 33t23 25 33 9z"/><glyph unicode="-" horiz-adv-x="510" d="M420 303v-83H90v83h330z"/><glyph unicode="." horiz-adv-x="266" d="M133 120q29 0 47-18t18-47q0-29-18-47t-47-18q-29 0-47 18T68 55q0 29 18 47t47 18z"/><glyph unicode="/" horiz-adv-x="437" d="M409 730L103-70H28l306 800h75z"/><glyph unicode="0" horiz-adv-x="622" d="M311-10q-112 0-179 87T65 330q0 166 67 253t179 87q113 0 179-87t67-253q0-166-66-253T311-10zm0 72q53 0 89 30t55 91 19 147q0 87-18 147t-55 90-90 31q-53 0-89-30t-55-91-19-147q0-87 18-147t55-90 90-31z"/><glyph unicode="1" horiz-adv-x="390" d="M208 0v520q0 19 2 41-34-33-79-57t-92-36l-21 73q18 2 45 13t58 29 57 38 40 39h70V0h-80z"/><glyph unicode="2" horiz-adv-x="583" d="M74 0v65q99 73 165 128t107 100 57 85 17 85q0 59-37 95t-103 37q-68 0-109-44t-48-119l-70 42q9 58 37 102t77 69 116 25q51 0 91-15t70-42 44-66 16-84q0-62-30-121t-99-125T188 73v-1q11 1 30 1t39 1 30 1h231V0H74z"/><glyph unicode="3" horiz-adv-x="583" d="M290-10q-88 0-155 41T43 146l80 41q12-37 33-64t55-43 87-15q44 0 74 16t46 43 16 64q0 36-13 60t-43 35-76 12h-24q-13 0-27-3v80q9-1 17-1t16 0q73 0 104 28t31 90q0 52-32 79t-91 27q-63 0-96-27t-52-75l-76 36q16 42 48 74t77 50 101 18q69 0 114-23t67-63 23-86q0-36-10-64t-27-50-40-33-47-17v-2q33-1 58-13t44-32 27-45 10-54q0-58-28-103t-80-70-119-26z"/><glyph unicode="4" horiz-adv-x="611" d="M366 0v173H44v59l301 428h101V242h117v-69H446V0h-80zM129 242h237v247q0 26 1 53t3 53h-2q-12-25-31-56t-35-54L129 242z"/><glyph unicode="5" horiz-adv-x="582" d="M287-10q-88 0-141 40T63 141l78 41q16-52 49-84t99-33q46 0 78 17t51 48 18 76q0 47-16 78t-48 48-76 16q-32 0-59-6t-50-21-38-37l-70 13 39 363h371v-75H186l-26-208-2-9h2q24 25 61 40t90 15q63 0 109-26t73-75 26-112q0-51-17-92t-48-69-73-44-94-15z"/><glyph unicode="6" horiz-adv-x="608" d="M323 670q53 0 92-14t69-45 49-80l-74-35q-15 46-48 72t-93 27q-43 0-76-21t-56-60-34-89-12-110v-6-12h4q11 43 40 69t67 39 74 13q67 0 117-26t77-74 28-114q0-65-28-113t-78-75-121-26q-83 0-140 44T94 154 65 330q0 111 34 186t92 115 132 39zm-4-329q-43 0-75-17t-51-48-18-71q0-38 19-69t51-50 74-19q68 0 106 36t38 102q0 42-17 72t-49 47-78 17z"/><glyph unicode="7" horiz-adv-x="561" d="M40 660h486v-75q-83-88-135-180t-77-193T290 0h-82q0 111 27 217t84 205 139 183l13-20H40v75z"/><glyph unicode="8" horiz-adv-x="616" d="M308 669q64 0 111-21t73-59 26-93q0-51-24-89t-69-59v-1q56-21 89-64t34-105q0-58-30-100t-83-65-127-23q-72 0-126 23T98 78 68 178q0 61 33 104t91 65v1q-43 19-68 57t-26 91q0 54 26 92t73 60 111 21zm0-75q-58 0-92-28t-35-78q0-49 35-77t92-28q57 0 92 28t35 77q0 50-34 78t-93 28zm0-529q49 0 84 14t54 42 19 65q0 38-19 65t-55 42-83 15q-47 0-82-14t-55-42-20-66q0-37 19-64t54-42 84-15z"/><glyph unicode="9" horiz-adv-x="617" d="M297 670q83 0 140-43t86-120 29-177q0-111-29-186T438 29 298-10q-82 0-141 38T69 139l79 42q16-52 52-84t101-32q52 0 86 20t55 59 28 93 9 120v9h-4q-12-45-42-72t-67-40-75-12q-65 0-115 25t-78 72-28 109q0 68 27 117t78 77 122 28zm1-77q-70 0-107-38t-37-108q0-59 39-93t105-35q43 0 75 17t51 48 18 71q0 42-18 73t-50 48-76 17z"/><glyph unicode=":" horiz-adv-x="296" d="M148 510q29 0 47-18t18-47q0-29-18-47t-47-18q-29 0-47 18t-18 47q0 29 18 47t47 18zm0-390q29 0 47-18t18-47q0-29-18-47t-47-18q-29 0-47 18T83 55q0 29 18 47t47 18z"/><glyph unicode=";" horiz-adv-x="296" d="M147 120q24 0 40-12t26-34 9-51q0-33-11-65t-36-59-62-45l-42 39q27 9 47 25t34 36 17 41l-4 2q-4-3-10-5t-18-2q-12 0-24 7T91 17t-9 36q0 18 9 33t23 25 33 9zm1 390q29 0 47-18t18-47q0-29-18-47t-47-18q-29 0-47 18t-18 47q0 29 18 47t47 18z"/><glyph unicode="&lt;" horiz-adv-x="604" d="M547 28L71 253v93l476 225v-82L135 301l412-189V28z"/><glyph unicode="=" horiz-adv-x="604" d="M540 441v-75H64v75h476zm0-200v-75H64v75h476z"/><glyph unicode="&gt;" horiz-adv-x="604" d="M57 571l476-225v-93L57 28v82l412 188L57 487v84z"/><glyph unicode="?" horiz-adv-x="542" d="M273 670q64 0 113-20t78-59 28-91q0-58-25-97t-68-61-95-27V208h-83v150q67 10 108 26t60 42 19 64q0 47-35 76t-106 29q-66 0-107-36t-50-100l-71 41q11 51 42 89t80 60 112 21zm-12-550q29 0 47-18t18-47q0-29-18-47t-47-18q-29 0-47 18t-18 47q0 29 18 47t47 18z"/><glyph unicode="@" horiz-adv-x="958" d="M484-195q-94 0-171 30T181-80 96 52 66 223q0 97 32 177t92 138 139 90 176 32q94 0 167-30t123-85 77-124 26-148q0-65-16-117t-46-88-65-56-76-20q-54 0-79 28t-22 71q-22-42-66-67T437-1q-52 0-91 25t-62 69-22 103q0 56 17 104t47 85 73 57 91 21q39 0 70-13t52-38 29-59l24 101h71l-76-326q-2-10-3-18t-2-17q0-28 14-36t33-9q36 0 67 25t50 75 20 125q0 70-23 130t-66 104-105 69-137 25q-83 0-151-26t-119-76-77-120-28-156q0-84 26-150t75-113 112-71 138-25q85 0 134 21t82 47l35-49q-27-21-60-38t-80-29-111-11zM460 60q42 0 77 27t55 75 21 107q0 40-14 69t-41 46-63 17q-36 0-65-15t-51-44-34-65-12-80q0-44 15-74t43-47 69-16z"/><glyph unicode="A" horiz-adv-x="660" d="M26 0l257 660h95L634 0h-85L361 492l-31 92h-2l-29-89L110 0H26zm126 183v75h353v-75H152z"/><glyph unicode="B" horiz-adv-x="653" d="M108 0v660h235q117 0 171-49t54-133q0-50-29-90t-82-52v-1q59-11 93-53t35-97q0-84-63-134T342 0H108zm80 75h173q71 0 105 29t35 81q0 53-34 81t-106 29H188V75zm0 295h156q140 0 140 108 0 107-140 107H188V370z"/><glyph unicode="C" horiz-adv-x="686" d="M640 169q-21-56-60-96t-91-62-115-21q-94 0-162 41T106 149 68 330q0 105 37 181t106 117 161 42q64 0 114-17t85-52 57-85l-79-37q-22 57-63 86t-108 30q-67 0-118-31t-79-91-29-143q0-83 27-142t77-91 118-32q66 0 115 33t71 101l80-30z"/><glyph unicode="D" horiz-adv-x="721" d="M321 660q155 0 243-85t89-245q0-159-88-244T321 0H108v660h213zm8-585q113 0 176 67t64 188q0 120-63 187t-177 68H188V75h141z"/><glyph unicode="E" horiz-adv-x="638" d="M108 0v660h463v-75H188V372h298v-75H188V75h398V0H108z"/><glyph unicode="F" horiz-adv-x="610" d="M570 585H188V372h298v-75H188V0h-80v660h462v-75z"/><glyph unicode="G" horiz-adv-x="724" d="M374-10q-94 0-162 41T106 149 68 330q0 105 39 181t111 117 163 42q98 0 159-37t100-114l-73-40q-22 57-69 86t-117 30q-67 0-118-31t-81-91-30-143q0-83 25-142t76-91 124-32q41 0 76 10t62 32 42 53 15 75v23H362v75h283V0h-63l-4 123 17-3q-26-62-82-96T374-10z"/><glyph unicode="H" horiz-adv-x="734" d="M626 660V0h-80v660h80zm-438 0V0h-80v660h80zm395-288v-75H150v75h433z"/><glyph unicode="I" horiz-adv-x="296" d="M188 660V0h-80v660h80z"/><glyph unicode="J" horiz-adv-x="566" d="M465 660V226q0-111-59-173T241-10q-74 0-122 28T53 97t-6 121l74 15q-11-85 15-126t102-42q85 0 116 46t31 135v414h80z"/><glyph unicode="K" horiz-adv-x="656" d="M625 660L337 365l-12-13-177-181v108l372 381h105zm-437 0V0h-80v660h80zm157-244L628 0h-96L279 371l66 45z"/><glyph unicode="L" horiz-adv-x="598" d="M188 75h378V0H108v660h80V75z"/><glyph unicode="M" horiz-adv-x="854" d="M746 660V0h-76v415l9 174h-1L461 0h-68L176 589h-1l9-174V0h-76v660h123l145-401 50-165h2l51 164 144 402h123z"/><glyph unicode="N" horiz-adv-x="734" d="M626 660V0h-99L251 442l-70 124h-1l4-100V0h-76v660h99l275-440 71-127h1l-4 101v466h76z"/><glyph unicode="O" horiz-adv-x="748" d="M374 670q94 0 162-41t106-118 38-181q0-105-37-181T537 32 374-10q-94 0-162 41T106 149 68 330q0 105 37 181t106 117 163 42zm0-75q-68 0-118-31t-77-91-27-143q0-83 27-142t77-91 118-32q69 0 118 31t77 91 27 143q0 83-27 142t-76 91-119 32z"/><glyph unicode="P" horiz-adv-x="610" d="M341 660q67 0 116-24t78-70 28-107q0-62-28-107t-77-69-117-25H188V0h-80v660h233zm-12-327q78 0 114 32t36 94q0 62-36 94t-114 32H188V333h141z"/><glyph unicode="Q" horiz-adv-x="748" d="M534-195q-51 0-96 19t-73 65-29 126v19q0 10 2 21l71-2q-1-10-1-18t-1-17q0-57 18-85t47-37 64-10q37 0 68 10t50 27l26-74q-24-21-66-32t-80-12zM374 670q94 0 162-41t106-118 38-181q0-105-37-181T537 32 374-10q-94 0-162 41T106 149 68 330q0 105 37 181t106 117 163 42zm0-75q-68 0-118-31t-77-91-27-143q0-83 27-142t77-91 118-32q69 0 118 31t77 91 27 143q0 83-27 142t-76 91-119 32z"/><glyph unicode="R" horiz-adv-x="665" d="M358 660q101 0 162-52t61-141q0-89-61-138t-163-50l-7-5H188V0h-80v660h250zm-1-311q71 0 105 29t35 89q0 59-34 88t-106 30H188V349h169zm46-16L621 0h-95L336 289l67 44z"/><glyph unicode="S" horiz-adv-x="641" d="M320 670q87 0 150-35t105-105l-67-52q-37 64-83 90t-113 27q-53 0-87-15t-51-39-16-56q0-35 22-61t88-42l143-32q95-21 132-63t38-106q0-56-31-99t-89-68-134-24q-72 0-126 19t-94 53-64 74l70 57q19-38 49-67t72-45 98-16q51 0 88 12t58 37 20 60q0 32-21 57t-79 39l-155 35q-61 14-98 38t-54 58-17 73q0 53 29 97t85 72 132 27z"/><glyph unicode="T" horiz-adv-x="604" d="M572 660v-75H342V0h-80v585H32v75h540z"/><glyph unicode="U" horiz-adv-x="708" d="M613 660V246q0-127-67-191T354-10q-124 0-191 64T95 246v414h80V266q0-103 43-152t136-49q92 0 135 49t44 152v394h80z"/><glyph unicode="V" horiz-adv-x="648" d="M620 660L370 0h-91L28 660h86l168-456 42-131 42 130 168 457h86z"/><glyph unicode="W" horiz-adv-x="961" d="M231 0L36 660h83L282 73l155 587h91L683 71l163 589h79L731 0h-99L515 428l-34 149h-1l-34-149L330 0h-99z"/><glyph unicode="X" horiz-adv-x="601" d="M569 0h-92L298 272 118 0H25l231 336L45 660h94l167-257 169 257h87L348 340 569 0z"/><glyph unicode="Y" horiz-adv-x="572" d="M562 660L326 258V0h-80v258L10 660h95l128-226 53-94 53 94 128 226h95z"/><glyph unicode="Z" horiz-adv-x="630" d="M128 46l-14 29h461V0H56v71l434 543 14-29H66v75h496v-71L128 46z"/><glyph unicode="[" horiz-adv-x="348" d="M315 660H162V-98h153v-70H87v898h228v-70z"/><glyph unicode="\" horiz-adv-x="437" d="M28 730h75L409-70h-75L28 730z"/><glyph unicode="]" horiz-adv-x="348" d="M33-98h153v758H33v70h228v-898H33v70z"/><glyph unicode="^" horiz-adv-x="560" d="M27 355l215 375h76l215-375h-81L280 662 108 355H27z"/><glyph unicode="_" horiz-adv-x="539" d="M539-97v-75H0v75h539z"/><glyph unicode="`" horiz-adv-x="500" d="M256 750l76-167h-65l-98 167h87z"/><glyph unicode="a" horiz-adv-x="566" d="M385 323q0 56-30 86t-85 31q-52 0-88-22t-53-73l-65 40q20 56 74 90t134 35q54 0 98-18t69-56 26-97V97q0-36 38-36 19 0 37 5l-4-63Q516-7 484-7q-29 0-52 11t-36 33-13 57v10l20-3q-12-39-41-63T297 2t-71-12q-44 0-82 15T84 50t-23 76q0 56 37 92t105 50l198 39v-66l-161-33q-49-10-73-28t-24-50q0-31 24-50t70-20q29 0 55 7t48 23 33 39 12 56v138z"/><glyph unicode="b" horiz-adv-x="627" d="M338-10q-42 0-78 15t-62 42-39 61l11 14-7-122H93v730h80V387l-10 15q20 47 67 77t109 31q62 0 114-31t83-89 31-140q0-81-31-139t-84-90-114-31zm-8 70q74 0 115 52t42 138q0 86-41 138t-115 52q-47 0-82-24t-56-67-20-101q0-57 19-99t55-66 83-23z"/><glyph unicode="c" horiz-adv-x="560" d="M300 510q52 0 91-16t69-46 47-71l-76-36q-16 48-48 73t-85 26q-50 0-86-22t-55-65-19-103q0-59 19-102t55-65 86-23q39 0 67 12t47 35 26 56l74-26q-17-46-46-79T395 8t-95-18q-70 0-125 31t-86 89-31 140q0 81 31 139t86 90 125 31z"/><glyph unicode="d" horiz-adv-x="627" d="M288-10q-62 0-114 31t-83 89-31 140q0 83 33 141t87 88 116 31q62 0 107-32t61-85l-10-7v344h80V0h-70l-7 121 11 6q-7-44-33-74T370 6t-82-16zm8 70q48 0 83 24t55 68 20 105q0 57-19 98t-54 63-81 22q-76 0-118-52t-42-138q0-86 41-138t115-52z"/><glyph unicode="e" horiz-adv-x="577" d="M302-10q-71 0-126 31t-87 89-31 140q0 81 31 139t85 90 123 31q70 0 119-30t76-81 26-116q0-17-1-31t-3-25H110v71h369l-41-8q0 72-39 111t-104 39q-49 0-84-22t-55-65-20-103q0-59 20-102t56-65 88-23q55 0 89 21t56 57l63-37q-19-34-48-59T391 4t-89-14z"/><glyph unicode="f" horiz-adv-x="393" d="M296 735q26 0 49-6t36-17l-21-65q-12 8-26 11t-31 4q-43 0-67-20t-24-66V0h-80v584q0 33 10 61t30 48 52 31 72 11zm83-235v-69H32v69h347z"/><glyph unicode="g" horiz-adv-x="532" d="M514 592l18-71h-7q-49 0-75-19t-27-63l-49 25q0 39 18 68t49 44 68 16h5zM362 64q71 0 111-32t40-87q0-49-32-85t-87-55-123-20q-118 0-176 40T36-79q0 40 26 71t90 36l-7-15q-34 9-57 30t-24 63q0 41 30 70t91 37l53-27h-10q-49-5-69-24t-21-43q0-28 20-41t58-14h146zm-92-212q58 0 95 12t56 31 18 41q0 27-21 43T340-5H186q-32 0-54-16t-22-46q0-37 42-59t118-22zm-7 658q60 0 106-21t73-60 26-88q0-49-26-87t-72-60-107-22q-99 0-152 47T58 341q0 50 26 88t73 59 106 22zm0-65q-52 0-87-28t-35-76q0-46 35-75t87-29q52 0 87 29t35 75q0 47-35 75t-87 29z"/><glyph unicode="h" horiz-adv-x="619" d="M93 0v730h80V425q26 45 69 65t94 20q54 0 98-20t70-63 27-107V0h-80v292q0 83-35 115t-88 33q-36 0-72-17t-59-55-24-103V0H93z"/><glyph unicode="i" horiz-adv-x="266" d="M133 596q-27 0-43 16t-17 44q0 27 16 43t44 17q27 0 43-16t17-44q0-27-16-43t-44-17zm40-96V0H93v500h80z"/><glyph unicode="j" horiz-adv-x="266" d="M133 596q-27 0-43 16t-17 44q0 27 16 43t44 17q27 0 43-16t17-44q0-27-16-43t-44-17zm40-96V-51q0-62-24-98t-59-51-69-15q-31 0-57 9t-43 24l17 76q14-13 35-22t47-9q32 0 52 21t21 73v543h80z"/><glyph unicode="k" horiz-adv-x="567" d="M532 500L316 284l-19-19-164-164v100l298 299h101zM173 730V0H93v730h80zm150-405L544 0h-97L256 280l67 45z"/><glyph unicode="l" horiz-adv-x="306" d="M169 730V127q0-38 14-52t45-15q20 0 33 3t35 11L283 4q-16-7-35-10t-39-4q-61 0-90 33T89 124v606h80z"/><glyph unicode="m" horiz-adv-x="953" d="M93 0v500h70l5-78q27 46 70 67t90 21q53 0 100-24t72-74q16 34 45 55t63 32 66 11q48 0 91-20t72-62 28-108V0h-80v312q0 68-34 98t-84 30q-39 0-73-19t-54-56-21-91V0h-80v312q0 68-34 98t-84 30q-33 0-67-17t-58-56-23-100V0H93z"/><glyph unicode="n" horiz-adv-x="619" d="M93 0v500h70l7-112-13 11q16 40 43 64t62 36 74 11q54 0 98-20t70-63 27-107V0h-80v292q0 83-35 115t-88 33q-36 0-72-17t-59-55-24-102V0H93z"/><glyph unicode="o" horiz-adv-x="600" d="M300 510q71 0 125-31t86-89 31-140q0-81-31-139t-85-90-126-31q-70 0-125 31t-86 89-31 140q0 81 31 139t86 90 125 31zm0-69q-51 0-87-23t-55-65-20-103q0-59 19-102t56-66 87-23q51 0 87 23t55 66 20 102q0 60-19 102t-56 66-87 23z"/><glyph unicode="p" horiz-adv-x="627" d="M93-210v710h70l7-122-11 14q13 35 39 61t63 42 80 15q61 0 112-31t83-89 31-140q0-81-31-139t-84-90-114-31q-62 0-108 30t-67 78l10 15v-323H93zM330 60q74 0 115 52t42 138q0 86-40 138t-114 52q-48 0-84-23t-56-66-20-101q0-57 19-100t55-66 83-24z"/><glyph unicode="q" horiz-adv-x="627" d="M454-210v347l14-10q-7-44-33-74T370 6t-82-16q-62 0-114 31t-83 89-31 140q0 83 33 141t87 88 116 31q42 0 78-15t61-44 34-68h-12l7 117h70v-710h-80zM296 60q47 0 82 23t56 67 20 103q0 60-19 101t-55 64-82 22q-74 0-116-52t-42-138q0-86 41-138t115-52z"/><glyph unicode="r" horiz-adv-x="408" d="M93 0v500h65l11-82q21 46 61 69t99 23q13 0 28-2t27-8l-14-73q-11 4-24 6t-37 2q-31 0-62-18t-53-54-21-93V0H93z"/><glyph unicode="s" horiz-adv-x="527" d="M273-10q-73 0-134 31t-95 88l68 49q22-46 64-72t103-26q53 0 83 20t30 54q0 21-13 38t-52 26l-120 25q-73 15-104 50t-32 87q0 41 23 75t67 54 103 21q74 0 125-29t76-82l-67-44q-17 44-55 64t-79 21q-36 0-61-10t-39-27-14-40q0-22 15-40t56-27l125-26q70-14 98-46t28-78q0-47-25-82T377 9 273-10z"/><glyph unicode="t" horiz-adv-x="419" d="M211 642V138q0-37 21-55t54-18q29 0 50 10t38 27l28-67q-23-21-54-33t-73-12q-38 0-71 13t-52 43-21 78v496l80 22zm182-142v-69H31v69h362z"/><glyph unicode="u" horiz-adv-x="617" d="M274-10q-48 0-90 18t-69 58-27 106v328h80V193q0-76 33-104t93-29q28 0 55 9t48 30 34 53 13 76v272h80V0h-70l-5 76q-26-45-70-65T274-10z"/><glyph unicode="v" horiz-adv-x="520" d="M424 500h84L300 0h-80L12 500h91L261 81l163 419z"/><glyph unicode="w" horiz-adv-x="836" d="M720 500h89L635 0h-80L414 398 281 0h-80L27 500h89L242 93l136 407h80L594 93l126 407z"/><glyph unicode="x" horiz-adv-x="533" d="M141 500l149-209 5-7L500 0h-98L247 217l-9 11L41 500h100zm356 0L299 233h-5L122 0H29l218 287h6l150 213h94z"/><glyph unicode="y" horiz-adv-x="516" d="M504 500L269-84q-19-49-41-77t-50-41-64-13q-34 0-62 9T1-180l22 70q20-18 42-26t45-9q26 0 49 16t42 65l26 65-50 119L18 500h91l125-326 31-89 36 99 117 316h86z"/><glyph unicode="z" horiz-adv-x="534" d="M57 0v61l262 307 63 65-89-2H60v69h411v-61L209 132l-62-65 97 2h235V0H57z"/><glyph unicode="{" horiz-adv-x="351" d="M304-189q-59 0-95 14t-52 43-17 67v207q0 56-25 80t-87 24v70q61 0 86 24t26 80v207q0 40 16 67t53 42 95 15v-65q-49 0-69-13t-20-40V413q0-54-29-87t-85-45q56-12 85-45t29-87V-71q0-27 20-40t69-13v-65z"/><glyph unicode="|" horiz-adv-x="243" d="M156 730v-898H87v898h69z"/><glyph unicode="}" horiz-adv-x="351" d="M47 751q59 0 95-14t52-43 17-67V420q0-56 25-80t87-24v-70q-61 0-86-24t-26-80V-65q0-40-16-67t-53-42-95-15v65q49 0 69 13t20 40v220q0 54 29 87t85 45q-56 12-85 45t-29 87v220q0 27-20 40t-69 13v65z"/><glyph unicode="~" horiz-adv-x="540" d="M497 384q-6-73-38-111t-92-38q-34 0-59 11t-44 26-39 26-44 11q-26 0-41-20t-21-54H43q6 74 38 111t93 38q33 0 58-11t45-26 39-26 43-11q26 0 41 20t21 54h76z"/><glyph horiz-adv-x="341"/><glyph unicode="¡" horiz-adv-x="264" d="M90-160v286l12 166h60l12-166v-286H90zm42 540q-29 0-47 18t-18 47q0 29 18 47t47 18q29 0 47-18t18-47q0-29-18-47t-47-18z"/><glyph unicode="¢" horiz-adv-x="567" d="M310-10q-71 0-126 31t-86 89-32 140q0 81 31 139t87 90 126 31q52 0 91-16t68-46 46-71l-76-36q-16 51-49 77t-82 27q-72 0-119-51t-48-144q0-62 22-105t59-67 86-23q37 0 64 12t47 36 29 60l72-25q-16-46-45-79T405 8t-95-18zm-40-90v700h67v-700h-67z"/><glyph unicode="£" horiz-adv-x="620" d="M80 278v65h387v-65H80zm74-288q-51 0-80 24T44 76q0 24 14 44t41 32 67 13q40 0 69-11t54-27 46-34 46-28 55-11q43 0 62 23t20 76h65q0-53-16-89T521 9t-74-19q-37 0-67 11t-58 29-53 34-52 29-54 12q-24 0-35-7t-11-22q0-16 13-24t34-8q41 0 60 17t24 45 6 57q0 41-14 74t-43 82q-19 33-31 59t-17 49-5 48q0 60 28 104t75 67 106 24q79 0 128-38t71-118l-69-38q-14 57-43 89t-89 32q-61 0-97-31t-36-91q0-21 3-38t11-38 24-50q28-52 44-97t16-85q0-30-7-61t-26-57-50-43-79-16z"/><glyph unicode="¤" horiz-adv-x="665" d="M333 539q61 0 108-27t75-74 27-109q0-61-27-108t-74-75-109-28q-61 0-108 27t-75 75-28 109q0 61 27 108t75 75 109 27zm0-72q-57 0-94-39t-37-99q0-61 37-100t94-39q56 0 93 39t37 100q0 60-37 99t-93 39zM121 591l119-117-51-50L70 540l51 51zm66-355l50-51L121 66l-51 51 117 119zm289-3l119-116-51-51-119 116 51 51zm68 358l51-51-116-119-51 51 116 119z"/><glyph unicode="¥" horiz-adv-x="620" d="M275 0v107H83v55h192v75H83v60h129l44-4L34 660h93l134-243 48-99h2l48 100 134 242h93L364 293l44 4h130v-60H345v-75h193v-55H345V0h-70z"/><glyph unicode="¦" horiz-adv-x="243" d="M156 730V367H87v363h69zm0-535v-363H87v363h69z"/><glyph unicode="§" horiz-adv-x="598" d="M417 138l-49 30q40 1 67 11t42 30 15 44q0 29-20 52t-84 35l-144 25q-53 10-86 30t-47 49-15 65q0 47 26 83t75 57 112 21q70 0 124-25t88-74l-62-48q-28 42-65 60t-88 18q-64 0-99-24t-36-62q0-19 7-35t26-27 55-18l141-24q66-11 102-31t51-47 15-61q0-32-15-61t-48-49-88-24zM284-110q-88 0-143 29T58-8l62 51q21-38 61-62t108-24q67 0 104 25t37 68q0 25-17 43t-55 25l-169 33q-55 11-90 30t-51 48-17 66q0 32 16 58t44 43 69 21l35-25q-27-7-47-18t-31-27-11-38q0-29 23-53t83-36l157-28q73-13 104-50t31-86q0-47-26-85t-76-59-118-22z"/><glyph unicode="¨" horiz-adv-x="500" d="M153 696q26 0 41-15t16-42q0-25-15-41t-42-16q-25 0-41 16t-16 41q0 26 16 41t41 16zm194 0q26 0 41-15t16-42q0-25-15-41t-42-16q-25 0-41 16t-16 41q0 26 16 41t41 16z"/><glyph unicode="©" horiz-adv-x="820" d="M410-10q-102 0-179 45T111 157 68 330q0 97 43 173t120 122 179 45q102 0 179-45t120-121 43-174q0-96-43-173T589 35 410-10zm0 65q81 0 142 36t95 99 34 140q0 77-34 139t-95 99-142 37q-80 0-141-36t-96-99-34-140q0-77 34-139t95-99 142-37zm7 88q-85 0-133 49t-49 136q0 86 48 135t134 50q59 0 98-25t58-70l-58-29q-13 32-37 48t-62 16q-53 0-83-33t-31-92q0-59 30-92t84-33q40 0 66 16t40 51l55-22q-19-49-59-77t-101-28z"/><glyph unicode="ª" horiz-adv-x="382" d="M139 327q-52 0-82 24t-30 65q0 39 24 62t86 34l116 21v-45l-94-19q-36-7-49-17t-13-31q0-19 14-29t39-11q20 0 41 6t36 24 15 49v85q0 31-18 48t-49 18q-31 0-57-14t-42-50l-49 29q14 38 51 63t94 26q65 0 101-29t37-89V407q0-18 9-24t22-7q16 0 24 4l-5-44q-8-4-18-6t-21-3q-32 0-50 18t-19 54v15l10-11q-9-21-26-38t-42-28-55-10zM26 201v53h320v-53H26z"/><glyph unicode="«" horiz-adv-x="493" d="M264 461L136 265 264 69h-87L51 265l126 196h87zm177 0L313 265 441 69h-87L228 265l126 196h87z"/><glyph unicode="¬" horiz-adv-x="604" d="M545 319V131h-80v188h80zm0 35v-75H59v75h486z"/><glyph unicode="­" horiz-adv-x="510" d="M420 303v-83H90v83h330z"/><glyph unicode="®" horiz-adv-x="820" d="M410-10q-102 0-179 45T111 157 68 330q0 97 43 173t120 122 179 45q102 0 179-44t120-122 43-174q0-96-43-173T589 35 410-10zm83 153L393 293l55 23 121-173h-76zm-83-88q81 0 142 36t95 99 34 140q0 77-34 139t-95 99-142 37q-80 0-141-36t-96-99-34-140q0-77 34-139t95-99 142-37zm-141 88v370h152q42 0 73-14t49-41 18-63q0-55-39-86t-101-32h-85V143h-67zm67 185h84q36 0 55 16t19 51q0 34-19 50t-55 17h-84V328z"/><glyph unicode="¯" horiz-adv-x="500" d="M414 663v-67H86v67h328z"/><glyph unicode="°" horiz-adv-x="460" d="M230 340q-49 0-87 21t-61 59-22 85q0 48 22 85t60 59 88 21q50 0 88-21t60-58 22-86q0-48-22-85t-60-58-88-22zm0 65q44 0 72 28t28 72q0 44-28 72t-72 28q-43 0-71-28t-29-72q0-43 28-71t72-29z"/><glyph unicode="±" horiz-adv-x="604" d="M340 640V154h-75v486h75zm205-206v-75H59v75h486zm0-359V0H59v75h486z"/><glyph unicode="²" horiz-adv-x="365" d="M39 333v48q23 17 46 33t46 34q48 38 75 64t37 48 11 44q0 32-19 52t-58 21q-39 0-61-24t-25-69l-63 22q4 61 45 95t107 34q49 0 81-18t49-47 17-62q0-29-15-58t-48-61-82-66q-13-9-25-17t-27-18v-1q9 1 31 2t33 1h142v-57H39z"/><glyph unicode="³" horiz-adv-x="362" d="M181 735q66 0 102-30t36-78q0-30-12-51t-31-31-36-12v-1q20 0 40-10t34-31 14-51q0-34-19-59t-53-40-78-14q-61 0-99 23t-55 73l67 30q6-34 27-51t59-17q35 0 56 17t22 48q0 32-22 44t-63 12h-8q-4 0-9-1v52q4-1 7-1t7 0q38 0 58 15t20 45q0 30-18 45t-50 16q-31 0-50-15t-26-45l-65 23q13 49 52 72t93 23z"/><glyph unicode="´" horiz-adv-x="600" d="M295 750h87l-98-167h-65l76 167z"/><glyph unicode="µ" horiz-adv-x="622" d="M93-210v710h80V194q0-70 33-102t93-32q40 0 74 17t55 57 21 103v263h80V0h-65l-7 81q-25-45-68-68t-94-23q-38 0-70 12t-52 39v-251H93z"/><glyph unicode="¶" horiz-adv-x="657" d="M294-100v291q-76 0-133 29t-88 83-32 122q0 71 34 124t96 82 144 29h251v-760h-70v693H367v-693h-73zm0 358v335q-57 0-96-20t-60-59-21-89q0-52 20-89t60-58 97-20z"/><glyph unicode="·" horiz-adv-x="226" d="M113 420q29 0 47-18t18-47q0-29-18-47t-47-18q-29 0-47 18t-18 47q0 29 18 47t47 18z"/><glyph unicode="¸" horiz-adv-x="500" d="M207 4l42 25q59-19 84-51t25-77q0-48-34-82t-87-34q-31 0-54 8t-41 21l19 58q14-9 29-16t38-7q28 0 46 18t18 52q0 26-19 45T207 4z"/><glyph unicode="¹" horiz-adv-x="242" d="M127 730h62V333h-70v284q0 19 2 39-22-21-51-37t-60-21v60q18 4 41 15t45 26 31 31z"/><glyph unicode="º" horiz-adv-x="360" d="M180 327q-70 0-113 45T23 496q0 80 43 124t114 45q70 0 113-44t44-125q0-79-43-124t-114-45zM36 201v53h288v-53H36zm144 181q44 0 65 30t22 84q0 54-21 84t-66 31q-44 0-65-30t-22-85q0-54 21-84t66-30z"/><glyph unicode="»" horiz-adv-x="493" d="M229 69l128 196-128 196h87l126-196L316 69h-87zM52 69l128 196L52 461h87l126-196L139 69H52z"/><glyph unicode="¼" horiz-adv-x="788" d="M127 921h62V524h-70v284q0 19 2 39-22-21-51-37t-60-21v60q18 4 41 15t45 26 31 31zM88 0l477 660h79L167 0H88zm680 145V95h-71V-4h-59v99H439v37l182 261h76V145h71zm-261 0h131v114q0 19 1 38t2 38h-3q-6-11-15-26t-17-28l-99-136z"/><glyph unicode="½" horiz-adv-x="855" d="M127 921h62V524h-70v284q0 19 2 39-22-21-51-37t-60-21v60q18 4 41 15t45 26 31 31zM88 0l477 660h79L167 0H88zm441-4v48q23 17 46 33t46 34q48 38 75 64t37 48 11 44q0 32-19 52t-58 21q-39 0-61-24t-25-69l-63 22q4 61 45 95t107 34q49 0 81-18t49-47 17-62q0-29-15-58t-48-61-82-66q-13-9-25-17t-27-18v-1q9 1 31 2t33 1h142V-4H529z"/><glyph unicode="¾" horiz-adv-x="908" d="M181 926q66 0 102-30t36-78q0-30-12-51t-31-31-36-12v-1q20 0 40-10t34-31 14-51q0-34-19-59t-53-40-78-14q-61 0-99 23t-55 73l67 30q6-34 27-51t59-17q35 0 56 17t22 48q0 32-22 44t-63 12h-8q-4 0-9-1v52q4-1 7-1t7 0q38 0 58 15t20 45q0 30-18 45t-50 16q-31 0-50-15t-26-45l-65 23q13 49 52 72t93 23zM208 0l477 660h79L287 0h-79zm680 145V95h-71V-4h-59v99H559v37l182 261h76V145h71zm-261 0h131v114q0 19 1 38t2 38h-3q-6-11-15-26t-17-28l-99-136z"/><glyph unicode="¿" horiz-adv-x="537" d="M266-170q-64 0-113 20T75-91 47 0q0 58 25 97t68 61 95 27v107h83V142q-67-10-108-26t-60-42-19-64q0-47 35-76t106-29q66 0 107 36t50 100l71-41q-11-51-42-89t-80-60-112-21zm12 550q-29 0-47 18t-18 47q0 29 18 47t47 18q29 0 47-18t18-47q0-29-18-47t-47-18z"/><glyph unicode="À" horiz-adv-x="660" d="M26 0l257 660h95L634 0h-85L361 492l-31 92h-2l-29-89L110 0H26zm126 183v75h353v-75H152zm150 719l66-159h-64l-86 159h84z"/><glyph unicode="Á" horiz-adv-x="660" d="M26 0l257 660h95L634 0h-85L361 492l-31 92h-2l-29-89L110 0H26zm126 183v75h353v-75H152zm201 719h84l-86-159h-64l66 159z"/><glyph unicode="Â" horiz-adv-x="660" d="M26 0l257 660h95L634 0h-85L361 492l-31 92h-2l-29-89L110 0H26zm126 183v75h353v-75H152zm332 560h-74l-80 107-80-107h-74l110 159h88l110-159z"/><glyph unicode="Ã" horiz-adv-x="660" d="M26 0l257 660h95L634 0h-85L361 492l-31 92h-2l-29-89L110 0H26zm126 183v75h353v-75H152zm358 694q-3-44-16-74t-37-45-59-15q-28 0-47 10t-34 24-27 23-30 11q-22 0-33-18t-16-51h-63q5 66 32 100t81 34q27 0 46-10t34-24 28-23 28-11q23 0 34 18t16 51h63z"/><glyph unicode="Ä" horiz-adv-x="660" d="M26 0l257 660h95L634 0h-85L361 492l-31 92h-2l-29-89L110 0H26zm126 183v75h353v-75H152zm81 673q26 0 41-15t16-42q0-25-15-41t-42-16q-25 0-41 16t-16 41q0 26 16 41t41 16zm194 0q26 0 41-15t16-42q0-25-15-41t-42-16q-25 0-41 16t-16 41q0 26 16 41t41 16z"/><glyph unicode="Å" horiz-adv-x="660" d="M26 0l257 660h95L634 0h-85L361 492l-31 92h-2l-29-89L110 0H26zm126 183v75h353v-75H152zm176 664q56 0 90-32t35-86q0-53-34-86t-91-33q-56 0-91 33t-35 86q0 53 35 85t91 33zm0-49q-31 0-51-19t-20-50q0-30 20-49t51-20q31 0 51 19t20 50q0 30-20 49t-51 20z"/><glyph unicode="Æ" horiz-adv-x="954" d="M531 75h371V0H451v213H215L92 0H6l386 660h495v-75H531V372h271v-75H531V75zM259 288h192v297h-20L259 288z"/><glyph unicode="Ç" horiz-adv-x="686" d="M640 169q-21-56-60-96t-91-62-115-21q-94 0-162 41T106 149 68 330q0 105 37 181t106 117 161 42q64 0 114-17t85-52 57-85l-79-37q-22 57-63 86t-108 30q-67 0-118-31t-79-91-29-143q0-83 27-142t77-91 118-32q66 0 115 33t71 101l80-30zM317 4l42 25q59-19 84-51t25-77q0-48-34-82t-87-34q-31 0-54 8t-41 21l19 58q14-9 29-16t38-7q28 0 46 18t18 52q0 26-19 45T317 4z"/><glyph unicode="È" horiz-adv-x="638" d="M108 0v660h463v-75H188V372h298v-75H188V75h398V0H108zm209 902l66-159h-64l-86 159h84z"/><glyph unicode="É" horiz-adv-x="638" d="M108 0v660h463v-75H188V372h298v-75H188V75h398V0H108zm255 902h84l-86-159h-64l66 159z"/><glyph unicode="Ê" horiz-adv-x="638" d="M108 0v660h463v-75H188V372h298v-75H188V75h398V0H108zm386 743h-74l-80 107-80-107h-74l110 159h88l110-159z"/><glyph unicode="Ë" horiz-adv-x="638" d="M108 0v660h463v-75H188V372h298v-75H188V75h398V0H108zm135 856q26 0 41-15t16-42q0-25-15-41t-42-16q-25 0-41 16t-16 41q0 26 16 41t41 16zm194 0q26 0 41-15t16-42q0-25-15-41t-42-16q-25 0-41 16t-16 41q0 26 16 41t41 16z"/><glyph unicode="Ì" horiz-adv-x="296" d="M188 660V0h-80v660h80zm-73 242l66-159h-64L31 902h84z"/><glyph unicode="Í" horiz-adv-x="296" d="M188 660V0h-80v660h80zm-7 242h84l-86-159h-64l66 159z"/><glyph unicode="Î" horiz-adv-x="296" d="M188 660V0h-80v660h80zm114 83h-74l-80 107-80-107H-6l110 159h88l110-159z"/><glyph unicode="Ï" horiz-adv-x="296" d="M62 856q26 0 41-15t16-42q0-25-15-41t-42-16q-25 0-41 16T5 799q0 26 16 41t41 16zm172 0q26 0 41-15t16-42q0-25-15-41t-42-16q-25 0-41 16t-16 41q0 26 16 41t41 16zm-46-196V0h-80v660h80z"/><glyph unicode="Ð" horiz-adv-x="737" d="M26 296v75h375v-75H26zm311 364q155 0 243-85t89-245q0-159-88-244T337 0H124v660h213zm8-585q113 0 176 67t64 188q0 120-63 187t-177 68H204V75h141z"/><glyph unicode="Ñ" horiz-adv-x="734" d="M626 660V0h-99L251 442l-70 124h-1l4-100V0h-76v660h99l275-440 71-127h1l-4 101v466h76zm-75 217q-3-44-16-74t-37-45-59-15q-28 0-47 10t-34 24-27 23-30 11q-22 0-33-18t-16-51h-63q5 66 32 100t81 34q27 0 46-10t34-24 28-23 28-11q23 0 34 18t16 51h63z"/><glyph unicode="Ò" horiz-adv-x="748" d="M374 670q94 0 162-41t106-118 38-181q0-105-37-181T537 32 374-10q-94 0-162 41T106 149 68 330q0 105 37 181t106 117 163 42zm0-75q-68 0-118-31t-77-91-27-143q0-83 27-142t77-91 118-32q69 0 118 31t77 91 27 143q0 83-27 142t-76 91-119 32zm-33 307l66-159h-64l-86 159h84z"/><glyph unicode="Ó" horiz-adv-x="748" d="M374 670q94 0 162-41t106-118 38-181q0-105-37-181T537 32 374-10q-94 0-162 41T106 149 68 330q0 105 37 181t106 117 163 42zm0-75q-68 0-118-31t-77-91-27-143q0-83 27-142t77-91 118-32q69 0 118 31t77 91 27 143q0 83-27 142t-76 91-119 32zm23 307h84l-86-159h-64l66 159z"/><glyph unicode="Ô" horiz-adv-x="748" d="M374 670q94 0 162-41t106-118 38-181q0-105-37-181T537 32 374-10q-94 0-162 41T106 149 68 330q0 105 37 181t106 117 163 42zm0-75q-68 0-118-31t-77-91-27-143q0-83 27-142t77-91 118-32q69 0 118 31t77 91 27 143q0 83-27 142t-76 91-119 32zm154 148h-74l-80 107-80-107h-74l110 159h88l110-159z"/><glyph unicode="Õ" horiz-adv-x="748" d="M374 670q94 0 162-41t106-118 38-181q0-105-37-181T537 32 374-10q-94 0-162 41T106 149 68 330q0 105 37 181t106 117 163 42zm0-75q-68 0-118-31t-77-91-27-143q0-83 27-142t77-91 118-32q69 0 118 31t77 91 27 143q0 83-27 142t-76 91-119 32zm180 282q-3-44-16-74t-37-45-59-15q-28 0-47 10t-34 24-27 23-30 11q-22 0-33-18t-16-51h-63q5 66 32 100t81 34q27 0 46-10t34-24 28-23 28-11q23 0 34 18t16 51h63z"/><glyph unicode="Ö" horiz-adv-x="748" d="M374 670q94 0 162-41t106-118 38-181q0-105-37-181T537 32 374-10q-94 0-162 41T106 149 68 330q0 105 37 181t106 117 163 42zm0-75q-68 0-118-31t-77-91-27-143q0-83 27-142t77-91 118-32q69 0 118 31t77 91 27 143q0 83-27 142t-76 91-119 32zm-97 261q26 0 41-15t16-42q0-25-15-41t-42-16q-25 0-41 16t-16 41q0 26 16 41t41 16zm194 0q26 0 41-15t16-42q0-25-15-41t-42-16q-25 0-41 16t-16 41q0 26 16 41t41 16z"/><glyph unicode="×" horiz-adv-x="604" d="M469 97l53 53-388 388-53-53L469 97zm-335 0l388 388-53 53L81 150l53-53z"/><glyph unicode="Ø" horiz-adv-x="748" d="M229 63l-46 37 335 480 46-36L229 63zM88-37l95 137 46-37-70-100H88zm476 581l-46 36 72 103h71l-97-139zM374 670q94 0 162-41t106-118 38-181q0-105-37-181T537 32 374-10q-94 0-162 41T106 149 68 330q0 105 37 181t106 117 163 42zm0-75q-68 0-118-31t-77-91-27-143q0-83 27-142t77-91 118-32q69 0 118 31t77 91 27 143q0 83-27 142t-76 91-119 32z"/><glyph unicode="Ù" horiz-adv-x="708" d="M613 660V246q0-127-67-191T354-10q-124 0-191 64T95 246v414h80V266q0-103 43-152t136-49q92 0 135 49t44 152v394h80zM331 877l66-159h-64l-86 159h84z"/><glyph unicode="Ú" horiz-adv-x="708" d="M613 660V246q0-127-67-191T354-10q-124 0-191 64T95 246v414h80V266q0-103 43-152t136-49q92 0 135 49t44 152v394h80zM377 877h84l-86-159h-64l66 159z"/><glyph unicode="Û" horiz-adv-x="708" d="M613 660V246q0-127-67-191T354-10q-124 0-191 64T95 246v414h80V266q0-103 43-152t136-49q92 0 135 49t44 152v394h80zm-105 58h-74l-80 107-80-107h-74l110 159h88l110-159z"/><glyph unicode="Ü" horiz-adv-x="708" d="M613 660V246q0-127-67-191T354-10q-124 0-191 64T95 246v414h80V266q0-103 43-152t136-49q92 0 135 49t44 152v394h80zM257 831q26 0 41-15t16-42q0-25-15-41t-42-16q-25 0-41 16t-16 41q0 26 16 41t41 16zm194 0q26 0 41-15t16-42q0-25-15-41t-42-16q-25 0-41 16t-16 41q0 26 16 41t41 16z"/><glyph unicode="Ý" horiz-adv-x="572" d="M562 660L326 258V0h-80v258L10 660h95l128-226 53-94 53 94 128 226h95zM309 882h84l-86-159h-64l66 159z"/><glyph unicode="Þ" horiz-adv-x="627" d="M327 542q123 0 184-53t62-152q0-98-61-151t-185-54H148v75h187q154 0 154 130 0 66-38 98t-116 32H148v75h179zM188 660V0h-80v660h80z"/><glyph unicode="ß" horiz-adv-x="617" d="M383 387q65 0 103-27t56-69 18-87q0-58-21-106t-65-78-111-30q-48 0-81 11t-48 22l23 68q18-11 41-19t63-9q57 0 89 40t33 103q0 70-38 106t-116 37h-59v71h49q65 0 99 37t34 89q0 59-37 86t-95 28q-84 0-115-47t-32-140V0H93v497q0 69 21 122t73 85 141 31q70 0 115-25t68-64 23-84q0-39-16-77t-50-65-85-31v-2z"/><glyph unicode="à" horiz-adv-x="566" d="M385 323q0 56-30 86t-85 31q-52 0-88-22t-53-73l-65 40q20 56 74 90t134 35q54 0 98-18t69-56 26-97V97q0-36 38-36 19 0 37 5l-4-63Q516-7 484-7q-29 0-52 11t-36 33-13 57v10l20-3q-12-39-41-63T297 2t-71-12q-44 0-82 15T84 50t-23 76q0 56 37 92t105 50l198 39v-66l-161-33q-49-10-73-28t-24-50q0-31 24-50t70-20q29 0 55 7t48 23 33 39 12 56v138zM242 750l76-167h-65l-98 167h87z"/><glyph unicode="á" horiz-adv-x="566" d="M385 323q0 56-30 86t-85 31q-52 0-88-22t-53-73l-65 40q20 56 74 90t134 35q54 0 98-18t69-56 26-97V97q0-36 38-36 19 0 37 5l-4-63Q516-7 484-7q-29 0-52 11t-36 33-13 57v10l20-3q-12-39-41-63T297 2t-71-12q-44 0-82 15T84 50t-23 76q0 56 37 92t105 50l198 39v-66l-161-33q-49-10-73-28t-24-50q0-31 24-50t70-20q29 0 55 7t48 23 33 39 12 56v138zm-82 427h87l-98-167h-65l76 167z"/><glyph unicode="â" horiz-adv-x="566" d="M385 323q0 56-30 86t-85 31q-52 0-88-22t-53-73l-65 40q20 56 74 90t134 35q54 0 98-18t69-56 26-97V97q0-36 38-36 19 0 37 5l-4-63Q516-7 484-7q-29 0-52 11t-36 33-13 57v10l20-3q-12-39-41-63T297 2t-71-12q-44 0-82 15T84 50t-23 76q0 56 37 92t105 50l198 39v-66l-161-33q-49-10-73-28t-24-50q0-31 24-50t70-20q29 0 55 7t48 23 33 39 12 56v138zm50 253h-73l-86 115-86-115h-73l114 167h90l114-167z"/><glyph unicode="ã" horiz-adv-x="566" d="M385 323q0 56-30 86t-85 31q-52 0-88-22t-53-73l-65 40q20 56 74 90t134 35q54 0 98-18t69-56 26-97V97q0-36 38-36 19 0 37 5l-4-63Q516-7 484-7q-29 0-52 11t-36 33-13 57v10l20-3q-12-39-41-63T297 2t-71-12q-44 0-82 15T84 50t-23 76q0 56 37 92t105 50l198 39v-66l-161-33q-49-10-73-28t-24-50q0-31 24-50t70-20q29 0 55 7t48 23 33 39 12 56v138zm71 394q-3-44-16-74t-37-45-59-15q-28 0-47 10t-34 24-27 23-30 11q-22 0-33-18t-16-51H94q5 66 32 100t81 34q27 0 46-10t34-24 28-23 28-11q23 0 34 18t16 51h63z"/><glyph unicode="ä" horiz-adv-x="566" d="M385 323q0 56-30 86t-85 31q-52 0-88-22t-53-73l-65 40q20 56 74 90t134 35q54 0 98-18t69-56 26-97V97q0-36 38-36 19 0 37 5l-4-63Q516-7 484-7q-29 0-52 11t-36 33-13 57v10l20-3q-12-39-41-63T297 2t-71-12q-44 0-82 15T84 50t-23 76q0 56 37 92t105 50l198 39v-66l-161-33q-49-10-73-28t-24-50q0-31 24-50t70-20q29 0 55 7t48 23 33 39 12 56v138zM179 696q26 0 41-15t16-42q0-25-15-41t-42-16q-25 0-41 16t-16 41q0 26 16 41t41 16zm194 0q26 0 41-15t16-42q0-25-15-41t-42-16q-25 0-41 16t-16 41q0 26 16 41t41 16z"/><glyph unicode="å" horiz-adv-x="566" d="M385 323q0 56-30 86t-85 31q-52 0-88-22t-53-73l-65 40q20 56 74 90t134 35q54 0 98-18t69-56 26-97V97q0-36 38-36 19 0 37 5l-4-63Q516-7 484-7q-29 0-52 11t-36 33-13 57v10l20-3q-12-39-41-63T297 2t-71-12q-44 0-82 15T84 50t-23 76q0 56 37 92t105 50l198 39v-66l-161-33q-49-10-73-28t-24-50q0-31 24-50t70-20q29 0 55 7t48 23 33 39 12 56v138zM273 812q56 0 90-32t35-86q0-53-34-86t-91-33q-56 0-91 33t-35 86q0 53 35 85t91 33zm0-49q-31 0-51-19t-20-50q0-30 20-49t51-20q31 0 51 19t20 50q0 30-20 49t-51 20z"/><glyph unicode="æ" horiz-adv-x="895" d="M230-10q-46 0-84 15T84 50t-23 76q0 56 36 92t102 49l186 37v19q0 56-32 86t-84 31q-47 0-83-22t-57-73l-65 40q16 38 44 66t69 43 90 16q66 0 115-27t67-89l-24 3q19 36 48 61t68 38 81 14q67 0 114-30t74-81 26-116q0-17-1-31t-3-25H466q5-79 49-123t110-44q50 0 83 21t55 57l63-37q-19-34-48-59T710 4t-83-14q-75 0-131 35t-83 105l25 7q-4-34-23-61t-49-46-65-30-71-10zm7 70q29 0 55 7t48 23 33 39 12 56v52l-145-29q-49-10-73-28t-24-50q0-31 24-50t70-20zm232 238h287q-1 46-19 77t-48 48-69 17q-61 0-100-37t-51-105z"/><glyph unicode="ç" horiz-adv-x="560" d="M300 510q52 0 91-16t69-46 47-71l-76-36q-16 48-48 73t-85 26q-50 0-86-22t-55-65-19-103q0-59 19-102t55-65 86-23q39 0 67 12t47 35 26 56l74-26q-17-46-46-79T395 8t-95-18q-70 0-125 31t-86 89-31 140q0 81 31 139t86 90 125 31zM244 4l42 25q59-19 84-51t25-77q0-48-34-82t-87-34q-31 0-54 8t-41 21l19 58q14-9 29-16t38-7q28 0 46 18t18 52q0 26-19 45T244 4z"/><glyph unicode="è" horiz-adv-x="577" d="M302-10q-71 0-126 31t-87 89-31 140q0 81 31 139t85 90 123 31q70 0 119-30t76-81 26-116q0-17-1-31t-3-25H110v71h369l-41-8q0 72-39 111t-104 39q-49 0-84-22t-55-65-20-103q0-59 20-102t56-65 88-23q55 0 89 21t56 57l63-37q-19-34-48-59T391 4t-89-14zm-45 760l76-167h-65l-98 167h87z"/><glyph unicode="é" horiz-adv-x="577" d="M302-10q-71 0-126 31t-87 89-31 140q0 81 31 139t85 90 123 31q70 0 119-30t76-81 26-116q0-17-1-31t-3-25H110v71h369l-41-8q0 72-39 111t-104 39q-49 0-84-22t-55-65-20-103q0-59 20-102t56-65 88-23q55 0 89 21t56 57l63-37q-19-34-48-59T391 4t-89-14zm16 760h87l-98-167h-65l76 167z"/><glyph unicode="ê" horiz-adv-x="577" d="M302-10q-71 0-126 31t-87 89-31 140q0 81 31 139t85 90 123 31q70 0 119-30t76-81 26-116q0-17-1-31t-3-25H110v71h369l-41-8q0 72-39 111t-104 39q-49 0-84-22t-55-65-20-103q0-59 20-102t56-65 88-23q55 0 89 21t56 57l63-37q-19-34-48-59T391 4t-89-14zm148 586h-73l-86 115-86-115h-73l114 167h90l114-167z"/><glyph unicode="ë" horiz-adv-x="577" d="M302-10q-71 0-126 31t-87 89-31 140q0 81 31 139t85 90 123 31q70 0 119-30t76-81 26-116q0-17-1-31t-3-25H110v71h369l-41-8q0 72-39 111t-104 39q-49 0-84-22t-55-65-20-103q0-59 20-102t56-65 88-23q55 0 89 21t56 57l63-37q-19-34-48-59T391 4t-89-14zM194 696q26 0 41-15t16-42q0-25-15-41t-42-16q-25 0-41 16t-16 41q0 26 16 41t41 16zm194 0q26 0 41-15t16-42q0-25-15-41t-42-16q-25 0-41 16t-16 41q0 26 16 41t41 16z"/><glyph unicode="ì" horiz-adv-x="266" d="M173 500V0H93v500h80zM99 750l76-167h-65L12 750h87z"/><glyph unicode="í" horiz-adv-x="266" d="M173 500V0H93v500h80zm-13 250h87l-98-167H84l76 167z"/><glyph unicode="î" horiz-adv-x="266" d="M173 500V0H93v500h80zm119 76h-73l-86 115-86-115h-73L88 743h90l114-167z"/><glyph unicode="ï" horiz-adv-x="266" d="M213 582q-26 0-42 16t-16 41q0 26 16 41t42 16q26 0 41-15t16-42q0-25-15-41t-42-16zm-160 0q-25 0-41 16t-16 41q0 26 16 41t41 16q26 0 42-15t16-42q0-25-16-41t-42-16zm120-82V0H93v500h80z"/><glyph unicode="ð" horiz-adv-x="620" d="M298-10q-72 0-125 29t-82 86-29 133q0 77 31 132t84 85 119 30q62 0 106-21t71-59l-8-7q-12 55-33 102t-52 87-74 76-101 67h111q59-34 102-79t71-100 43-121 14-142q0-87-27-154T438 28 298-10zm4 70q53 0 90 25t56 65 20 88q0 55-19 94t-56 61-86 22q-50 0-86-21t-56-61-20-95q0-84 42-131t115-47zm-95 473l-15 61 200 44 36-48-221-57zm221 57l-36 48 143 40 17-59-124-29z"/><glyph unicode="ñ" horiz-adv-x="619" d="M93 0v500h70l7-112-13 11q16 40 43 64t62 36 74 11q54 0 98-20t70-63 27-107V0h-80v292q0 83-35 115t-88 33q-36 0-72-17t-59-55-24-102V0H93zm405 717q-3-44-16-74t-37-45-59-15q-28 0-47 10t-34 24-27 23-30 11q-22 0-33-18t-16-51h-63q5 66 32 100t81 34q27 0 46-10t34-24 28-23 28-11q23 0 34 18t16 51h63z"/><glyph unicode="ò" horiz-adv-x="600" d="M300 510q71 0 125-31t86-89 31-140q0-81-31-139t-85-90-126-31q-70 0-125 31t-86 89-31 140q0 81 31 139t86 90 125 31zm0-69q-51 0-87-23t-55-65-20-103q0-59 19-102t56-66 87-23q51 0 87 23t55 66 20 102q0 60-19 102t-56 66-87 23zm-34 309l76-167h-65l-98 167h87z"/><glyph unicode="ó" horiz-adv-x="600" d="M300 510q71 0 125-31t86-89 31-140q0-81-31-139t-85-90-126-31q-70 0-125 31t-86 89-31 140q0 81 31 139t86 90 125 31zm0-69q-51 0-87-23t-55-65-20-103q0-59 19-102t56-66 87-23q51 0 87 23t55 66 20 102q0 60-19 102t-56 66-87 23zm27 309h87l-98-167h-65l76 167z"/><glyph unicode="ô" horiz-adv-x="600" d="M300 510q71 0 125-31t86-89 31-140q0-81-31-139t-85-90-126-31q-70 0-125 31t-86 89-31 140q0 81 31 139t86 90 125 31zm0-69q-51 0-87-23t-55-65-20-103q0-59 19-102t56-66 87-23q51 0 87 23t55 66 20 102q0 60-19 102t-56 66-87 23zm159 135h-73l-86 115-86-115h-73l114 167h90l114-167z"/><glyph unicode="õ" horiz-adv-x="600" d="M300 510q71 0 125-31t86-89 31-140q0-81-31-139t-85-90-126-31q-70 0-125 31t-86 89-31 140q0 81 31 139t86 90 125 31zm0-69q-51 0-87-23t-55-65-20-103q0-59 19-102t56-66 87-23q51 0 87 23t55 66 20 102q0 60-19 102t-56 66-87 23zm180 276q-3-44-16-74t-37-45-59-15q-28 0-47 10t-34 24-27 23-30 11q-22 0-33-18t-16-51h-63q5 66 32 100t81 34q27 0 46-10t34-24 28-23 28-11q23 0 34 18t16 51h63z"/><glyph unicode="ö" horiz-adv-x="600" d="M300 510q71 0 125-31t86-89 31-140q0-81-31-139t-85-90-126-31q-70 0-125 31t-86 89-31 140q0 81 31 139t86 90 125 31zm0-69q-51 0-87-23t-55-65-20-103q0-59 19-102t56-66 87-23q51 0 87 23t55 66 20 102q0 60-19 102t-56 66-87 23zm-97 255q26 0 41-15t16-42q0-25-15-41t-42-16q-25 0-41 16t-16 41q0 26 16 41t41 16zm194 0q26 0 41-15t16-42q0-25-15-41t-42-16q-25 0-41 16t-16 41q0 26 16 41t41 16z"/><glyph unicode="÷" horiz-adv-x="604" d="M545 354v-75H59v75h486zM302 185q29 0 47-18t18-47q0-29-18-47t-47-18q-29 0-47 18t-18 47q0 29 18 47t47 18zm0 391q29 0 47-18t18-47q0-29-18-47t-47-18q-29 0-47 18t-18 47q0 29 18 47t47 18z"/><glyph unicode="ø" horiz-adv-x="600" d="M300 510q71 0 125-31t86-89 31-140q0-81-31-139t-85-90-126-31q-70 0-125 31t-86 89-31 140q0 81 31 139t86 90 125 31zm0-69q-51 0-87-23t-55-65-20-103q0-59 19-102t56-66 87-23q51 0 87 23t55 66 20 102q0 60-19 102t-56 66-87 23zm11-471l423 560h67L378-30h-67z"/><glyph unicode="ù" horiz-adv-x="617" d="M274-10q-48 0-90 18t-69 58-27 106v328h80V193q0-76 33-104t93-29q28 0 55 9t48 30 34 53 13 76v272h80V0h-70l-5 76q-26-45-70-65T274-10zm-2 750l76-167h-65l-98 167h87z"/><glyph unicode="ú" horiz-adv-x="617" d="M274-10q-48 0-90 18t-69 58-27 106v328h80V193q0-76 33-104t93-29q28 0 55 9t48 30 34 53 13 76v272h80V0h-70l-5 76q-26-45-70-65T274-10zm59 750h87l-98-167h-65l76 167z"/><glyph unicode="û" horiz-adv-x="617" d="M274-10q-48 0-90 18t-69 58-27 106v328h80V193q0-76 33-104t93-29q28 0 55 9t48 30 34 53 13 76v272h80V0h-70l-5 76q-26-45-70-65T274-10zm191 576h-73l-86 115-86-115h-73l114 167h90l114-167z"/><glyph unicode="ü" horiz-adv-x="617" d="M274-10q-48 0-90 18t-69 58-27 106v328h80V193q0-76 33-104t93-29q28 0 55 9t48 30 34 53 13 76v272h80V0h-70l-5 76q-26-45-70-65T274-10zm-65 696q26 0 41-15t16-42q0-25-15-41t-42-16q-25 0-41 16t-16 41q0 26 16 41t41 16zm194 0q26 0 41-15t16-42q0-25-15-41t-42-16q-25 0-41 16t-16 41q0 26 16 41t41 16z"/><glyph unicode="ý" horiz-adv-x="516" d="M504 500L269-84q-19-49-41-77t-50-41-64-13q-34 0-62 9T1-180l22 70q20-18 42-26t45-9q26 0 49 16t42 65l26 65-50 119L18 500h91l125-326 31-89 36 99 117 316h86zM286 740h87l-98-167h-65l76 167z"/><glyph unicode="þ" horiz-adv-x="627" d="M93-210v940h80V378l-10 24q20 47 67 77t109 31q62 0 114-31t83-89 31-140q0-81-31-139t-84-90-114-31q-62 0-108 30t-67 78l10 15v-323H93zM330 60q74 0 115 52t42 138q0 86-40 138t-114 52q-48 0-84-23t-56-66-20-101q0-57 19-100t55-66 83-24z"/><glyph unicode="ÿ" horiz-adv-x="516" d="M504 500L269-84q-19-49-41-77t-50-41-64-13q-34 0-62 9T1-180l22 70q20-18 42-26t45-9q26 0 49 16t42 65l26 65-50 119L18 500h91l125-326 31-89 36 99 117 316h86zM162 686q26 0 41-15t16-42q0-25-15-41t-42-16q-25 0-41 16t-16 41q0 26 16 41t41 16zm194 0q26 0 41-15t16-42q0-25-15-41t-42-16q-25 0-41 16t-16 41q0 26 16 41t41 16z"/><glyph unicode="–" horiz-adv-x="664" d="M582 299v-75H82v75h500z"/><glyph unicode="—" horiz-adv-x="1014" d="M932 299v-75H82v75h850z"/><glyph unicode="‘" horiz-adv-x="255" d="M128 434q-24 0-40 12t-26 34-9 51q0 33 11 65t36 59 62 45l42-39q-27-9-47-25t-34-36-17-41l4-2q4 3 10 5t18 2q12 0 24-7t22-20 9-36q0-18-9-33t-23-25-33-9z"/><glyph unicode="’" horiz-adv-x="255" d="M131 700q24 0 40-12t26-34 9-51q0-33-11-65t-36-59-62-45l-42 39q27 9 47 25t34 36 17 41l-4 2q-4-3-10-5t-18-2q-12 0-24 7t-22 20-9 36q0 18 9 33t23 25 33 9z"/><glyph unicode="‚" horiz-adv-x="255" d="M387 120q24 0 40-12t26-34 9-51q0-33-11-65t-36-59-62-45l-42 39q27 9 47 25t34 36 17 41l-4 2q-4-3-10-5t-18-2q-12 0-24 7t-22 20-9 36q0 18 9 33t23 25 33 9z"/><glyph unicode="“" horiz-adv-x="443" d="M128 434q-24 0-40 12t-26 34-9 51q0 33 11 65t36 59 62 45l42-39q-27-9-47-25t-34-36-17-41l4-2q4 3 10 5t18 2q12 0 24-7t22-20 9-36q0-18-9-33t-23-25-33-9zm188 0q-24 0-40 12t-26 34-9 51q0 33 11 65t36 59 62 45l42-39q-27-9-47-25t-34-36-17-41l4-2q4 3 10 5t18 2q12 0 24-7t22-20 9-36q0-18-9-33t-23-25-33-9z"/><glyph unicode="”" horiz-adv-x="443" d="M131 700q24 0 40-12t26-34 9-51q0-33-11-65t-36-59-62-45l-42 39q27 9 47 25t34 36 17 41l-4 2q-4-3-10-5t-18-2q-12 0-24 7t-22 20-9 36q0 18 9 33t23 25 33 9zm188 0q24 0 40-12t26-34 9-51q0-33-11-65t-36-59-62-45l-42 39q27 9 47 25t34 36 17 41l-4 2q-4-3-10-5t-18-2q-12 0-24 7t-22 20-9 36q0 18 9 33t23 25 33 9z"/><glyph unicode="„" horiz-adv-x="443" d="M387 120q24 0 40-12t26-34 9-51q0-33-11-65t-36-59-62-45l-42 39q27 9 47 25t34 36 17 41l-4 2q-4-3-10-5t-18-2q-12 0-24 7t-22 20-9 36q0 18 9 33t23 25 33 9zm-68 0q24 0 40-12t26-34 9-51q0-33-11-65t-36-59-62-45l-42 39q27 9 47 25t34 36 17 41l-4 2q-4-3-10-5t-18-2q-12 0-24 7t-22 20-9 36q0 18 9 33t23 25 33 9z"/><glyph unicode="•" horiz-adv-x="430" d="M215 216q-54 0-89 34t-36 87q0 53 35 87t90 34q55 0 90-34t35-87q0-52-35-86t-90-35z"/><glyph unicode="‹" horiz-adv-x="316" d="M264 461L136 265 264 69h-87L51 265l126 196h87z"/><glyph unicode="›" horiz-adv-x="316" d="M52 69l128 196L52 461h87l126-196L139 69H52z"/></font>
</defs>
</svg>
