<svg xmlns="http://www.w3.org/2000/svg"><defs><font id="WorkSans" horiz-adv-x="597"><font-face font-family="Work Sans Medium" ascent="930" descent="-243" alphabetic="0"/><glyph horiz-adv-x="325"/><glyph unicode="!" horiz-adv-x="281" d="M196 660V396l-14-186H98L84 396v264h112zm-56-528q34 0 54-19t21-52q0-32-20-51T140-9q-33 0-53 19T66 61q0 32 20 51t54 20z"/><glyph unicode="&quot;" horiz-adv-x="416" d="M359 686l-27-256h-78v256h105zm-178 0l-27-256H76v256h105z"/><glyph unicode="#" horiz-adv-x="654" d="M539 660L430 0h-82l109 660h82zm49-410v-73H22v73h566zM302 660L193 0h-83l109 660h83zm330-176v-74H65v74h567z"/><glyph unicode="$" horiz-adv-x="628" d="M320 1q-68 0-122 17t-95 48-67 69l71 72q21-35 53-61t74-42 92-15q68 0 107 23t40 71q0 27-20 48t-72 34l-146 34q-58 13-95 36t-56 56-18 74q0 55 29 99t86 70 135 27q85 0 149-32t106-96l-68-66q-37 57-84 82t-112 25q-48 0-78-12t-46-34-15-48q0-21 8-38t32-30 65-22l130-29q93-21 132-62t39-105q0-59-32-102t-89-67T320 1zm-42-97v852h80V-96h-80z"/><glyph unicode="%" horiz-adv-x="880" d="M178 0l432 660h92L271 0h-93zm26 670q51 0 88-23t58-64 21-97q0-55-20-96t-58-65-89-23q-50 0-88 23t-58 64-21 97q0 56 20 97t59 64 88 23zm0-78q-25 0-43-12t-27-36-9-58q0-33 9-57t27-36 43-12q26 0 44 12t27 36 9 57q0 34-9 57t-27 36-44 13zm472-234q51 0 88-23t58-64 21-97q0-56-20-97t-58-64-89-23q-50 0-88 23t-58 64-21 97q0 55 20 96t59 65 88 23zm0-79q-25 0-43-12t-27-35-9-58q0-33 9-57t27-36 43-13q26 0 44 12t27 37 9 57q0 33-9 57t-27 36-44 12z"/><glyph unicode="&amp;" horiz-adv-x="630" d="M258-10q-67 0-115 22T68 75t-27 94q0 31 8 59t28 55 54 49 85 40l39 17q40 23 64 42t36 40 12 49q0 33-20 51t-53 18q-39 0-58-21t-20-52q0-18 5-35t22-42 49-65 87-107q54-65 90-105t63-61 48-27 51-6l-18-78q-32 0-59 6t-59 29-74 66-105 117q-58 68-96 114t-60 79-31 59-9 57q0 37 19 72t57 58 101 23q50 0 85-18t54-49 19-73q0-38-14-71t-49-63-101-59l-33-14q-46-23-72-44t-37-44-11-57q0-34 17-58t48-38 67-13q53 0 90 18t69 52l14 15q24 38 37 86t9 109l83-5q2-64-16-124t-57-108l-20-22q-36-46-91-73T258-10z"/><glyph unicode="'" horiz-adv-x="239" d="M181 686l-27-256H76v256h105z"/><glyph unicode="(" horiz-adv-x="362" d="M283 747l56-56q-63-57-101-121t-55-135-17-157q0-83 17-155t55-136 101-121l-56-56Q174-102 119 15T63 278q0 146 55 264t165 205z"/><glyph unicode=")" horiz-adv-x="362" d="M79-190l-56 56Q86-77 124-13t55 135 17 157q0 83-17 155t-55 136T23 691l56 56q109-88 164-205t56-263q0-146-55-264T79-190z"/><glyph unicode="*" horiz-adv-x="577" d="M307 505l81-82 74-102-66-48-74 102-53 102 19 14 19 14zm-38 0l19-14 19-14-53-102-73-102-66 48 74 102 80 82zM73 603l120-39 103-51-8-22-7-23-113 20-119 38 24 77zm257 127l-1-126-17-113h-48l-16 113-1 126h83zm174-127l24-77-119-38-113-20-8 23-7 22 103 51 120 39z"/><glyph unicode="+" horiz-adv-x="604" d="M349 572V66h-93v506h93zm199-208v-89H56v89h492z"/><glyph unicode="," horiz-adv-x="273" d="M136 135q28 0 46-13t29-37 10-54q0-37-14-71t-40-63-64-47l-50 43q27 10 48 26t35 36 21 41l-4 2q-5-3-11-5t-19-2q-14 0-28 7T70 21 60 60q0 22 10 39t28 26 38 10z"/><glyph unicode="-" horiz-adv-x="515" d="M428 313v-99H87v99h341z"/><glyph unicode="." horiz-adv-x="273" d="M137 135q34 0 54-19t21-53q0-33-20-53t-55-20q-35 0-55 20T61 63q0 33 20 52t56 20z"/><glyph unicode="/" horiz-adv-x="446" d="M422 725L124-70H24l298 795h100z"/><glyph unicode="0" horiz-adv-x="628" d="M314-10q-119 0-186 86T60 330q0 167 67 253t187 87q120 0 187-86t68-254q0-167-67-253T314-10zm0 91q48 0 80 27t49 83 17 139q0 83-16 138t-49 83-81 28q-48 0-80-27t-49-83-16-139q0-83 16-138t48-83 81-28z"/><glyph unicode="1" horiz-adv-x="402" d="M203 0v494q0 21 2 46-34-33-77-56t-90-34l-20 93q21 3 49 14t58 28 55 36 39 39h90V0H203z"/><glyph unicode="2" horiz-adv-x="587" d="M70 0v78q95 68 159 120t104 96 56 83 18 81q0 53-33 86t-92 33q-62 0-98-41t-42-114l-93 43q7 63 37 109t81 71 120 25q56 0 98-16t72-44 44-67 16-81q0-63-31-121t-98-120T212 90v-2q12 2 33 2t42 1 34 1h208V0H70z"/><glyph unicode="3" horiz-adv-x="586" d="M293-10q-93 0-161 41T38 148l104 49q9-36 28-62t50-39 77-14q39 0 66 14t41 39 15 57q0 33-12 55t-39 32-68 10h-24q-12 0-27-3v90q9-1 17-1t17-1q65 0 93 26t28 81q0 47-28 72t-82 25q-55 0-85-25t-47-74l-98 41q14 46 47 80t81 52 107 19q71 0 118-23t71-63 24-89q0-38-11-66t-29-49-40-32-44-15v-2q29-1 53-11t44-29 31-45 11-57q0-60-30-105t-82-70-122-25z"/><glyph unicode="4" horiz-adv-x="622" d="M366 0v165H44v73q2 5 6 12t11 16l275 394h131V248h112v-83H467V0H366zM144 248h222v233q0 24 1 49t3 51h-2q-11-24-28-52t-33-50L151 257q-2-2-3-4t-4-5z"/><glyph unicode="5" horiz-adv-x="582" d="M287-10q-88 0-144 38T53 138l100 52q15-48 45-78t91-31q42 0 71 15t46 44 16 69q0 42-15 70t-43 42-70 15q-29 0-54-6t-45-18-35-33l-88 17 40 364h384v-92H197l-24-186-2-11h2q23 25 59 39t87 14q64 0 110-26t72-74 26-109q0-54-18-96t-51-71-76-43-95-15z"/><glyph unicode="6" horiz-adv-x="611" d="M329 670q53 0 94-14t71-46 51-81l-94-45q-14 43-44 68t-85 25q-39 0-69-19t-51-53-32-81-11-101v-6-12l4-2q11 40 39 64t65 37 71 12q66 0 115-25t76-73 28-112q0-66-29-114t-80-75-124-27q-84 0-143 42T91 150 60 328q0 113 35 189t97 114 137 39zm-7-343q-38 0-67-15t-45-43-17-63q0-35 17-63t47-44 65-17q61 0 95 33t34 91q0 37-15 64t-43 42-71 15z"/><glyph unicode="7" horiz-adv-x="575" d="M38 660h503v-89q-83-86-134-176t-73-188T311 0H203q0 110 27 214t84 200 143 180l20-27H38v93z"/><glyph unicode="8" horiz-adv-x="619" d="M310 669q67 0 116-21t77-61 27-94q0-51-24-89t-72-59v-1q57-21 90-62t34-103q0-59-30-101t-86-65-132-23q-76 0-131 23T92 78 61 179q0 60 33 102t92 63v1q-45 19-71 57t-26 91q0 55 27 94t77 60 117 22zm0-90q-53 0-84-26t-32-71q0-45 32-70t84-26q52 0 83 25t32 71q0 45-31 71t-84 26zm0-499q44 0 75 13t48 38 17 58q0 35-17 59t-49 38-74 13q-42 0-74-13t-49-37-18-60q0-33 17-58t49-38 75-13z"/><glyph unicode="9" horiz-adv-x="617" d="M296 670q85 0 143-42t88-118 30-179q0-114-31-189T437 28 297-10q-84 0-144 37T63 138l101 47q14-47 46-75t89-28q46 0 77 18t49 52 27 82 8 108v11h-4q-11-40-39-65t-65-36-72-12q-64 0-113 25t-78 72-28 109q0 69 28 119t81 77 126 28zm1-94q-63 0-96-34t-34-95q0-54 35-84t95-31q38 0 67 15t45 43 17 63q0 38-16 65t-46 43-67 15z"/><glyph unicode=":" horiz-adv-x="298" d="M149 510q34 0 54-19t21-53q0-33-20-53t-55-20q-35 0-55 20t-21 53q0 33 20 52t56 20zm0-375q34 0 54-19t21-53q0-33-20-53t-55-20q-35 0-55 20T73 63q0 33 20 52t56 20z"/><glyph unicode=";" horiz-adv-x="298" d="M147 135q28 0 46-13t29-37 10-54q0-37-14-71t-40-63-64-47l-50 43q27 10 48 26t35 36 21 41l-4 2q-5-3-11-5t-19-2q-14 0-28 7T81 21 71 60q0 22 10 39t28 26 38 10zm2 374q34 0 54-19t21-53q0-33-20-53t-55-20q-35 0-55 20t-21 53q0 33 20 52t56 20z"/><glyph unicode="&lt;" horiz-adv-x="604" d="M549 21L68 244v109l481 223V470L153 300l396-172V21z"/><glyph unicode="=" horiz-adv-x="604" d="M540 454v-88H64v88h476zm0-205v-88H64v88h476z"/><glyph unicode="&gt;" horiz-adv-x="604" d="M55 576l481-223V244L55 21v106l396 170L55 469v107z"/><glyph unicode="?" horiz-adv-x="562" d="M283 670q67 0 119-20t82-60 30-94q0-59-25-98t-69-60-95-27l-3-101H219v151q66 8 105 23t58 39 18 59q0 43-30 68t-94 26q-59 0-96-33t-44-92l-99 45q11 52 43 91t83 61 120 22zm-13-538q34 0 54-19t21-52q0-32-20-51T270-9q-33 0-53 19t-21 51q0 32 20 51t54 20z"/><glyph unicode="@" horiz-adv-x="950" d="M479-192q-94 0-171 29T176-80 90 52 59 225q0 97 32 177t92 138 140 90 177 32q92 0 165-30t124-83 78-123 27-150q0-69-17-122t-48-89-67-54-76-19q-58 0-87 30t-25 77q-22-45-65-71T417 2q-49 0-87 24t-59 68-22 103q0 54 16 102t47 86 71 58 91 21q36 0 65-12t50-37 29-59l23 99h94l-73-314q-2-11-3-20t-2-18q0-27 14-36t33-10q33 0 61 23t47 72 18 122q0 71-23 130t-66 103-103 67-136 24q-82 0-149-26t-117-75-77-118-28-154q0-84 27-149t75-111 111-70 137-24q80 0 128 20t82 45l35-53q-27-20-60-37t-79-27-108-11zM454 77q38 0 69 26t49 71 19 97q0 35-13 61t-36 40-54 15q-33 0-59-15t-46-41-29-61-11-72q0-38 13-65t37-42 61-14z"/><glyph unicode="A" horiz-adv-x="665" d="M20 0l249 660h128L646 0H533L363 472l-30 95h-3l-28-93L130 0H20zm133 173v87h357v-87H153z"/><glyph unicode="B" horiz-adv-x="662" d="M98 0v660h260q119 0 174-48t55-133q0-52-30-92t-88-52v-1q64-10 99-52t36-99q0-85-62-134T362 0H98zm105 89h164q63 0 94 26t32 73q0 47-31 73t-95 26H203V89zm0 287h147q126 0 126 97t-126 97H203V376z"/><glyph unicode="C" horiz-adv-x="684" d="M645 175q-20-60-60-101t-94-63-119-21q-95 0-165 41T99 148 61 330q0 106 38 182t108 117 164 41q65 0 117-18t90-54 57-90l-101-45q-20 59-58 86t-99 28q-61 0-107-29t-71-84-26-134q0-78 24-133t69-85 108-29q61 0 105 31t64 95l102-34z"/><glyph unicode="D" horiz-adv-x="720" d="M331 660q155 0 241-85t87-245q0-159-86-244T331 0H98v660h233zm0-569q105 0 160 62t56 177q0 114-55 176t-161 63H205V91h126z"/><glyph unicode="E" horiz-adv-x="636" d="M98 0v660h478v-92H205V378h290v-90H205V92h385V0H98z"/><glyph unicode="F" horiz-adv-x="611" d="M575 568H205V376h290v-92H205V0H98v660h477v-92z"/><glyph unicode="G" horiz-adv-x="724" d="M366-10q-93 0-161 41T99 147 61 330q0 105 39 181t112 117 167 42q103 0 166-38t102-118l-99-47q-19 55-62 82t-106 28q-62 0-108-29t-73-84-26-134q0-79 23-134t69-85 115-29q37 0 69 9t56 28 37 47 14 68v19H364v87h287V0h-80l-6 133 20-10q-24-63-79-98T366-10z"/><glyph unicode="H" horiz-adv-x="736" d="M639 660V0H531v660h108zm-434 0V0H98v660h107zm380-280v-92H152v92h433z"/><glyph unicode="I" horiz-adv-x="303" d="M205 660V0H98v660h107z"/><glyph unicode="J" horiz-adv-x="582" d="M493 660V234q0-115-63-179T253-10q-81 0-132 30t-71 84-7 127l103 19q-12-86 13-126t94-41q75 0 103 43t29 128v406h108z"/><glyph unicode="K" horiz-adv-x="667" d="M639 660L345 342l-12-1-171-184-10 117 356 386h131zm-434 0V0H98v660h107zm162-236L645 0H519L282 364l85 60z"/><glyph unicode="L" horiz-adv-x="599" d="M205 92h364V0H98v660h107V92z"/><glyph unicode="M" horiz-adv-x="871" d="M773 660V0h-99v382l8 182h-1L480 0h-89L190 564h-1l8-182V0H98v660h159l133-382 46-157h2l47 157 132 382h156z"/><glyph unicode="N" horiz-adv-x="736" d="M639 660V0H512L257 416l-64 117h-1l4-107V0H98v660h126l254-415 65-119h1l-4 108v426h99z"/><glyph unicode="O" horiz-adv-x="745" d="M372 670q96 0 166-41t108-117 38-182q0-106-38-182T538 31 372-10q-95 0-165 41T99 148 61 330q0 106 38 182t108 117 165 41zm0-93q-62 0-106-29t-69-84-24-134q0-78 24-133t68-85 107-29q63 0 107 29t69 84 24 134q0 79-24 134t-68 84-108 29z"/><glyph unicode="P" horiz-adv-x="627" d="M352 660q71 0 122-25t81-71 29-111q0-64-29-110t-80-72-123-25H205V0H98v660h254zm-17-322q71 0 104 29t34 86q0 57-33 86t-105 30H205V338h130z"/><glyph unicode="Q" horiz-adv-x="745" d="M535-198q-56 0-102 20t-75 65T329 7q0 12 2 26t7 27l79 6q-3-14-5-25t-2-22q0-52 17-78t46-35 63-9q39 0 69 10t50 26l26-87q-24-21-66-32t-80-12zM372 670q96 0 166-41t108-117 38-182q0-106-38-182T538 31 372-10q-95 0-165 41T99 148 61 330q0 106 38 182t108 117 165 41zm0-93q-62 0-106-29t-69-84-24-134q0-78 24-133t68-85 107-29q63 0 107 29t69 84 24 134q0 79-24 134t-68 84-108 29z"/><glyph unicode="R" horiz-adv-x="672" d="M367 660q106 0 168-53t63-143q0-93-62-143t-169-51l-10-6H204V0H98v660h269zm-8-307q65 0 96 26t32 82q0 54-31 81t-97 27H204V353h155zm63-22L637 0H514L330 289l92 42z"/><glyph unicode="S" horiz-adv-x="642" d="M323 670q89 0 154-33t110-99l-72-69q-38 58-85 83t-113 26q-48 0-79-13t-45-34-15-49q0-31 21-54t81-36l134-30q96-21 136-64t40-109q0-61-33-106t-91-69-138-24q-70 0-126 18t-98 49-69 71l74 74q21-35 53-62t74-43 95-15q46 0 79 11t51 32 18 52q0 29-19 51t-73 34l-145 33q-60 13-99 37t-58 58-19 78q0 56 30 101t89 73 138 28z"/><glyph unicode="T" horiz-adv-x="619" d="M589 660v-92H363V0H256v568H30v92h559z"/><glyph unicode="U" horiz-adv-x="709" d="M624 660V253q0-131-69-197T354-10q-130 0-199 66T85 253v407h107V266q0-93 40-138t122-45q83 0 123 45t40 138v394h107z"/><glyph unicode="V" horiz-adv-x="659" d="M637 660L392 0H267L22 660h114l154-439 40-131 40 130 154 440h113z"/><glyph unicode="W" horiz-adv-x="972" d="M222 0L28 660h113L289 93l144 567h110L688 92l147 568h109L751 0H625L520 396l-33 152h-1l-33-152L349 0H222z"/><glyph unicode="X" horiz-adv-x="620" d="M595 0H469L306 254 144 0H21l229 335L39 660h126l151-240 153 240h117L372 339 595 0z"/><glyph unicode="Y" d="M588 660L352 253V0H245v253L10 660h119l118-213 52-98 52 98 117 213h120z"/><glyph unicode="Z" horiz-adv-x="631" d="M141 54l-19 37h461V0H50v87l430 519 19-37H59v91h512v-87L141 54z"/><glyph unicode="[" horiz-adv-x="361" d="M330 640H183V-83h147v-85H86v893h244v-85z"/><glyph unicode="\" horiz-adv-x="446" d="M24 725h100L422-70H322L24 725z"/><glyph unicode="]" horiz-adv-x="361" d="M31-83h147v723H31v85h244v-893H31v85z"/><glyph unicode="^" horiz-adv-x="576" d="M26 355l214 373h96l213-373H448L288 647 128 355H26z"/><glyph unicode="_" horiz-adv-x="539" d="M539-88v-93H0v93h539z"/><glyph unicode="`" horiz-adv-x="500" d="M268 746l73-168h-82l-99 168h108z"/><glyph unicode="a" horiz-adv-x="570" d="M372 321q0 50-27 77t-76 28q-45 0-77-21t-47-68l-90 38q19 61 74 98t144 37q60 0 106-19t72-59 27-100V109q0-37 37-37 18 0 35 5l-6-74Q521-8 486-8q-32 0-57 11t-40 35-15 59v7l22 1q-9-39-37-64T294 3t-75-13q-47 0-84 15T76 50t-22 76q0 56 36 92t104 49l194 38-1-75-141-29q-42-8-63-23t-21-44q0-28 21-44t58-17q25 0 48 6t43 19 29 35 11 52v136z"/><glyph unicode="b" horiz-adv-x="627" d="M351-10q-44 0-80 17t-62 47-37 69l13 17-8-140H83v725h107V374l-12 17q19 52 65 85t111 34q60 0 110-31t80-89 29-141q0-81-29-139t-80-89-113-31zm-23 86q65 0 101 46t37 128q0 81-36 127t-101 46q-42 0-73-21t-48-61-18-93q0-53 17-91t48-60 73-21z"/><glyph unicode="c" horiz-adv-x="562" d="M299 510q60 0 102-17t72-50 44-73l-101-40q-13 46-41 70t-75 25q-45 0-77-20t-48-60-17-96q0-56 17-95t49-59 76-20q34 0 59 11t41 33 23 53l97-33q-14-45-43-78T403 9 302-10q-74 0-131 31t-88 89-32 140q0 81 31 139t88 90 129 31z"/><glyph unicode="d" horiz-adv-x="627" d="M275-10q-62 0-112 31t-80 89-29 139q0 84 31 142t83 88 114 31q64 0 108-35t59-91l-12-11v352h107V0h-95l-8 136 14-1q-7-45-33-77T358 8t-83-18zm23 86q43 0 74 22t48 62 17 96q0 52-17 89t-47 58-71 20q-67 0-104-46t-37-127q0-81 36-127t101-47z"/><glyph unicode="e" horiz-adv-x="578" d="M303-10q-75 0-132 31t-88 89-32 140q0 81 31 139t88 90 127 31q73 0 124-30t78-82 27-118q0-18-1-34t-3-28H120v82h355l-53-16q0 68-34 104t-93 37q-43 0-75-20t-49-59-17-97q0-56 18-95t51-59 78-20q50 0 81 19t49 53l85-40q-18-36-48-62T395 4t-92-14z"/><glyph unicode="f" horiz-adv-x="400" d="M295 732q31 0 56-6t39-18l-20-77q-11 7-25 10t-32 4q-41 0-64-19t-24-62v-73l3-27V0H121v572q0 38 11 68t35 50 55 31 73 11zm92-232v-84H27v84h360z"/><glyph unicode="g" horiz-adv-x="540" d="M523 605l17-84h-6q-3 0-6 1-48 0-73-20t-25-60l-52 24q0 40 17 71t48 50 72 18h8zM365 78q76 0 118-33t42-93q0-52-33-89t-89-58-130-20q-123 0-182 38T32-82q0 40 28 70t97 34l-6-16q-42 9-67 32t-26 67q0 43 33 73t93 35l56-27h-12q-46-4-65-21t-19-38q0-25 18-37t53-12h150zm-92-213q55 0 90 10t53 27 18 37q0 23-18 37t-67 14H188q-28 0-47-14t-19-40q0-33 40-52t111-19zm-4 645q66 0 114-21t75-59 27-89q0-51-26-89t-75-59-115-21q-104 0-159 46T54 341q0 51 27 89t75 59 113 21zm0-75q-46 0-76-25t-31-69q0-43 30-69t77-26q47 0 77 26t31 69q0 43-30 68t-78 26z"/><glyph unicode="h" horiz-adv-x="619" d="M83 0v725h107V420q25 47 67 68t95 22q53 0 95-20t68-62 25-104V0H433v290q0 74-30 103t-77 29q-32 0-63-15t-52-50-21-93V0H83z"/><glyph unicode="i" horiz-adv-x="274" d="M137 584q-35 0-53 17t-19 50q0 32 18 49t54 17q34 0 52-17t19-49q0-32-18-49t-53-18zm53-84V0H83v500h107z"/><glyph unicode="j" horiz-adv-x="274" d="M137 584q-35 0-53 17t-19 50q0 32 18 49t54 17q34 0 52-17t19-49q0-32-18-49t-53-18zm53-84V-44q0-64-23-101t-61-54-80-16q-34 0-62 9t-47 24l18 86q14-12 33-20t44-8q32 0 51 20t20 70v534h107z"/><glyph unicode="k" horiz-adv-x="583" d="M555 500L332 272l-23-16L152 93l-1 122 277 285h127zM190 725V0H83v725h107zm155-393L567 0H443L265 271l80 61z"/><glyph unicode="l" horiz-adv-x="312" d="M187 725V140q0-37 13-51t43-14q18 0 30 2t32 10L293 7q-17-8-39-12t-44-5q-67 0-98 34T80 131v594h107z"/><glyph unicode="m" horiz-adv-x="949" d="M83 0v500h95l5-84q26 48 69 71t93 23q54 0 99-24t69-74q16 33 44 55t62 32 67 11q48 0 90-20t68-61 26-105V0H763v307q0 61-29 88t-74 27q-35 0-64-17t-48-50-18-83V0H423v307q0 61-29 88t-74 27q-30 0-60-16t-50-50-20-90V0H83z"/><glyph unicode="n" horiz-adv-x="619" d="M83 0v500h95l7-130-14 14q14 43 40 71t63 42 78 13q53 0 95-20t68-62 25-104V0H433v291q0 74-30 102t-77 29q-33 0-64-15t-51-50-21-91V0H83z"/><glyph unicode="o" horiz-adv-x="600" d="M300 510q73 0 129-31t87-89 32-140q0-81-31-139t-88-90-129-31q-73 0-129 31t-88 89-32 140q0 81 32 139t88 90 129 31zm0-84q-45 0-76-20t-49-60-17-96q0-56 17-95t48-60 77-21q45 0 76 20t48 60 17 96q0 57-17 96t-48 59-76 21z"/><glyph unicode="p" horiz-adv-x="627" d="M83-210v710h95l8-140-14 17q12 39 37 69t62 47 83 17q61 0 111-31t79-88 29-140q0-82-29-140t-80-90-113-31q-64 0-109 33t-64 86l12 17v-336H83zM328 77q65 0 101 46t37 127q0 81-36 127t-100 47q-42 0-73-21t-49-60-18-93q0-53 17-92t48-60 73-21z"/><glyph unicode="q" horiz-adv-x="627" d="M437-210v356l15-14q-7-44-32-76T357 7t-82-17q-62 0-112 31t-79 89-30 141q0 82 31 140t83 88 114 31q44 0 80-17t61-49 33-75l-15-5 8 136h95v-710H437zM298 77q42 0 73 21t48 60 18 94q0 56-17 94t-48 58-72 20q-65 0-102-46t-37-128q0-81 36-127t101-46z"/><glyph unicode="r" horiz-adv-x="414" d="M83 0v500h91l10-90q20 49 59 74t98 26q15 0 30-2t25-8l-15-94q-11 4-24 6t-37 3q-31 0-61-16t-49-50-20-84V0H83z"/><glyph unicode="s" horiz-adv-x="529" d="M273-10q-75 0-137 29t-98 82l74 64q22-41 63-65t100-25q46 0 73 16t27 45q0 19-12 33t-48 23l-105 22q-80 16-114 51t-34 91q0 41 24 76t70 56 112 22q75 0 128-26t81-76l-74-62q-19 40-56 59t-77 20q-32 0-55-8t-35-22-12-33q0-20 15-35t54-23l114-24q72-14 101-47t30-82q0-48-25-84t-72-57-112-20z"/><glyph unicode="t" horiz-adv-x="424" d="M229 647V150q0-37 19-54t53-17q27 0 47 8t37 24l24-78q-23-20-56-31t-75-12q-43 0-79 14t-56 45-21 83v485l107 30zm172-147v-84H26v84h375z"/><glyph unicode="u" horiz-adv-x="618" d="M261-10q-49 0-90 18t-67 58-25 104v330h107V197q0-68 29-93t81-26q25 0 48 8t43 27 29 48 11 68v271h107V0h-94l-5 81q-26-47-70-69T261-10z"/><glyph unicode="v" horiz-adv-x="532" d="M412 500h112L325 0H208L8 500h117L267 93l145 407z"/><glyph unicode="w" horiz-adv-x="855" d="M719 500h116L667 0H550L424 371 305 0H188L21 500h115l114-395 124 395h107l124-395 114 395z"/><glyph unicode="x" horiz-adv-x="550" d="M161 500l141-214 20-3L525 0H398L251 220l-23 8L32 500h129zm361 0L326 232l-22 1L144 0H22l213 285 21-2 143 217h123z"/><glyph unicode="y" horiz-adv-x="530" d="M522 500L303-59q-22-58-47-92t-59-49-77-15q-36 0-66 9T0-180l26 83q19-16 40-24t47-8q27 0 48 14t39 58l22 54-53 124L13 500h120l111-314 29-94 33 103 105 305h111z"/><glyph unicode="z" horiz-adv-x="529" d="M51 0v74l242 282 61 62-87-2H53v84h419v-74L230 144l-60-62 95 2h216V0H51z"/><glyph unicode="{" horiz-adv-x="372" d="M331-190q-67 0-108 15t-60 46-19 77v185q0 56-25 80t-87 24v82q61 0 86 24t26 80v186q0 46 18 76t60 46 109 16v-78q-51 0-72-15t-22-47V408q0-53-27-85t-82-45q54-12 81-44t28-85V-50q0-32 21-47t73-15v-78z"/><glyph unicode="|" horiz-adv-x="266" d="M180 725v-893H86v893h94z"/><glyph unicode="}" horiz-adv-x="372" d="M41 747q67 0 108-15t60-46 19-77V424q0-56 25-80t87-24v-82q-61 0-86-24t-26-80V-52q0-46-18-76t-60-46-109-16v78q51 0 72 15t22 47v199q0 53 27 85t82 45q-54 12-81 44t-28 85v199q0 32-21 47t-73 15v78z"/><glyph unicode="~" horiz-adv-x="557" d="M514 396q-6-79-40-120t-99-42q-34 0-59 10t-44 25-37 25-41 11q-25 0-39-18t-19-52H43q6 81 40 122t100 41q34 0 58-10t44-25 38-25 40-11q25 0 39 18t19 51h93z"/><glyph horiz-adv-x="325"/><glyph unicode="¡" horiz-adv-x="274" d="M82-160v264l14 186h84l14-186v-264H82zm56 528q-34 0-54 19t-21 52q0 32 20 51t55 19q33 0 53-19t21-51q0-32-20-51t-54-20z"/><glyph unicode="¢" horiz-adv-x="570" d="M311-10q-75 0-131 31t-89 89-32 140q0 81 32 139t88 90 130 31q59 0 101-17t71-49 43-74l-91-39q-14 50-45 76t-78 26q-67 0-110-47t-44-137q0-60 20-100t55-61 79-21q35 0 61 11t43 35 26 57l88-30q-14-46-43-79T412 9 311-10zm-45-90v700h78v-700h-78z"/><glyph unicode="£" horiz-adv-x="620" d="M72 275v70h400v-70H72zm81-285q-51 0-82 24T40 78q0 26 15 46t42 32 67 12q41 0 71-9t54-25 45-30 45-25 53-10q41 0 59 22t18 72l78-3q2-54-14-92t-48-58-76-20q-38 0-69 11t-59 29-53 35-52 30-55 12q-23 0-33-7t-11-22q0-15 12-23t33-8q36 0 53 16t23 42 6 57q0 42-14 76t-45 83q-19 32-31 58t-17 49-5 47q0 59 28 103t77 68 113 24q83 0 135-40t73-122l-89-42q-14 56-41 86t-82 30q-54 0-86-28t-33-81q0-19 3-36t12-36 24-49q26-49 41-92t15-83q0-33-8-65t-29-61-52-44-80-17z"/><glyph unicode="¤" horiz-adv-x="659" d="M330 538q62 0 109-26t75-74 27-109q0-61-27-108t-74-75-110-27q-61 0-109 27t-75 74-28 109q0 61 27 108t76 74 109 27zm0-86q-51 0-84-34t-33-89q0-54 33-89t84-35q51 0 83 35t33 89q0 54-32 88t-84 35zM125 598l123-125-61-60L60 533l65 65zm61-351l59-61L125 59l-65 65 126 123zm287-4l126-119-65-65-121 124 60 60zm61 355l65-65-123-122-61 61 119 126z"/><glyph unicode="¥" horiz-adv-x="634" d="M268 0v111H76v56h192v73H76v59h126l48-4L30 660h118l121-229 47-100h2l47 101 122 228h117L383 295l49 4h127v-59H366v-73h193v-56H366V0h-98z"/><glyph unicode="¦" horiz-adv-x="266" d="M180 725V357H86v368h94zm0-525v-368H86v368h94z"/><glyph unicode="§" horiz-adv-x="605" d="M419 126l-52 46q39 2 66 12t41 27 14 40q0 28-20 48t-76 31l-152 27q-51 9-84 29t-48 51-15 65q0 50 27 88t76 59 117 21q73 0 127-25t90-73l-70-58q-28 40-65 57t-87 18q-60 0-92-21t-32-56q0-17 7-31t27-25 56-18l129-22q66-11 104-31t54-48 16-63q0-38-17-69t-52-52-89-27zM290-110q-87 0-145 28T56-9l70 60q22-37 64-59t104-23q61 0 96 21t35 60q0 23-17 39t-57 23l-163 33q-55 11-90 30t-52 49-17 69q0 37 17 65t49 45 74 24l40-41q-29-8-49-18t-32-25-11-35q0-27 22-48t77-32l157-28q75-14 108-51t33-90q0-49-27-87t-77-60-120-22z"/><glyph unicode="¨" horiz-adv-x="500" d="M149 700q30 0 47-17t18-46q0-28-17-45t-48-18q-29 0-47 17t-18 46q0 29 18 46t47 17zm202 0q30 0 47-17t18-46q0-28-17-45t-48-18q-30 0-47 17t-18 46q0 29 17 46t48 17z"/><glyph unicode="©" horiz-adv-x="806" d="M403-10q-102 0-179 44T104 156 60 330q0 98 43 174t121 121 179 45q101 0 178-44t121-121 44-175q0-97-43-174T582 35 403-10zm0 71q80 0 140 35t93 96 33 138q0 76-33 137t-93 97-140 35q-79 0-139-35t-94-96-34-138q0-76 33-137t94-97 140-35zm6 81q-86 0-135 50t-49 136q0 87 49 137t135 50q62 0 102-27t59-73l-70-34q-12 29-34 43t-56 14q-47 0-74-28t-28-82q0-52 27-81t75-29q36 0 60 14t36 47l67-29q-20-53-60-80t-104-28z"/><glyph unicode="ª" horiz-adv-x="399" d="M140 321q-53 0-83 24t-30 65q0 41 25 63t87 35l114 21v-47l-84-18q-33-6-45-16t-12-30q0-18 13-27t35-10q18 0 37 6t31 22 13 43v88q0 29-16 45t-45 16q-28 0-51-13t-37-48l-64 28q12 42 51 69t101 27q70 0 108-30t38-93V409q0-18 8-24t22-7q16 0 23 4l-6-51q-9-5-20-7t-24-3q-35 0-55 19t-21 56v16l12-9q-7-22-24-41t-43-30-58-11zM28 186v64h334v-64H28z"/><glyph unicode="«" horiz-adv-x="521" d="M277 461L151 265 277 69H172L46 265l126 196h105zm197 0L348 265 474 69H369L243 265l126 196h105z"/><glyph unicode="¬" horiz-adv-x="604" d="M545 317V121h-97v196h97zm0 47v-89H59v89h486z"/><glyph unicode="­" horiz-adv-x="515" d="M428 313v-99H87v99h341z"/><glyph unicode="®" horiz-adv-x="806" d="M403-10q-102 0-179 44T104 156 60 330q0 98 43 174t121 121 179 45q101 0 178-44t121-121 44-175q0-97-43-174T582 35 403-10zm72 156l-93 148 65 23 117-171h-89zm-72-85q80 0 140 35t93 96 33 138q0 76-33 137t-93 97-140 35q-79 0-139-35t-94-96-34-138q0-76 33-137t94-97 140-35zm-143 85v368h159q41 0 71-15t48-41 18-63q0-55-39-86t-102-32h-78V146h-77zm77 187h74q32 0 49 14t18 46q0 31-17 45t-50 15h-74V333z"/><glyph unicode="¯" horiz-adv-x="500" d="M419 666v-78H81v78h338z"/><glyph unicode="°" horiz-adv-x="471" d="M235 327q-52 0-93 22t-63 60-23 90q0 50 22 89t64 60 93 22q54 0 94-21t63-61 23-89q0-51-23-89t-63-61-94-22zm0 79q42 0 68 26t26 67q0 41-26 67t-68 26q-40 0-66-26t-27-67q0-40 26-66t67-27z"/><glyph unicode="±" horiz-adv-x="604" d="M347 644V163h-89v481h89zm201-197v-88H56v88h492zm0-360V0H56v87h492z"/><glyph unicode="²" horiz-adv-x="373" d="M36 333v57q23 16 46 31t45 31q46 35 73 60t37 47 11 42q0 29-17 47t-51 18q-35 0-55-23t-21-65l-80 23q4 63 46 98t113 36q54 0 88-18t50-48 17-62q0-28-14-55t-43-56-73-60q-14-10-29-18t-31-18v-1q11 1 35 2t37 1h126v-69H36z"/><glyph unicode="³" horiz-adv-x="367" d="M185 735q68 0 105-30t37-79q0-29-11-50t-31-31-38-12v-2q23 0 43-10t33-29 13-50q0-35-20-61t-56-40-81-14q-65 0-104 25t-55 74l81 32q5-32 24-48t54-16q31 0 50 16t19 43q0 28-20 39t-56 11h-8q-4 0-9-1v56q4-1 7-1t7 0q34 0 52 13t18 41q0 27-16 41t-44 14q-29 0-47-14t-23-43l-78 26q12 51 54 75t100 25z"/><glyph unicode="´" horiz-adv-x="582" d="M274 746h108l-99-168h-82l73 168z"/><glyph unicode="µ" horiz-adv-x="622" d="M83-210v710h107V198q0-63 29-91t81-29q36 0 65 16t48 51 19 92v263h107V0h-91l-7 84q-23-47-64-70t-92-24q-33 0-61 10t-47 33l13 18v-261H83z"/><glyph unicode="¶" horiz-adv-x="684" d="M295-100v287q-76 0-133 29t-90 82-33 125q0 73 34 126t97 82 146 29h285v-760h-91v674H388v-674h-93zm-1 373v301q-52 0-88-18t-54-53-19-80q0-47 18-80t55-52 88-18z"/><glyph unicode="·" horiz-adv-x="240" d="M121 427q34 0 54-19t21-53q0-33-20-53t-55-20q-35 0-55 20t-21 53q0 33 20 52t56 20z"/><glyph unicode="¸" horiz-adv-x="500" d="M198 6l42 25q65-16 93-48t29-79q0-51-35-85t-92-34q-33 0-56 8t-41 21l22 65q13-9 28-15t37-7q27 0 44 17t18 49q0 26-19 44T198 6z"/><glyph unicode="¹" horiz-adv-x="259" d="M134 730h75V333h-86v273q0 19 2 37-22-20-51-35t-61-20v73q19 3 43 14t46 25 32 30z"/><glyph unicode="º" horiz-adv-x="379" d="M189 321q-73 0-118 45T25 492q0 82 45 127t119 45q74 0 119-45t46-127q0-80-45-125t-120-46zM36 186v64h307v-64H36zm153 198q40 0 59 28t19 80q0 53-19 81t-59 29q-39 0-58-28t-19-82q0-52 19-80t58-28z"/><glyph unicode="»" horiz-adv-x="521" d="M244 69l126 196-126 196h105l126-196L349 69H244zM47 69l126 196L47 461h105l126-196L152 69H47z"/><glyph unicode="¼" horiz-adv-x="813" d="M134 921h75V524h-86v273q0 19 2 37-22-20-51-35t-61-20v73q19 3 43 14t46 25 32 30zM99 0l477 660h91L191 0H99zm696 150V91h-68V-4h-74v95H454v43l176 259h97V150h68zm-262 0h120v103q0 20 1 39t2 39h-3q-5-12-14-28t-17-28l-89-125z"/><glyph unicode="½" horiz-adv-x="881" d="M134 921h75V524h-86v273q0 19 2 37-22-20-51-35t-61-20v73q19 3 43 14t46 25 32 30zM99 0l477 660h91L191 0H99zm445-4v57q23 16 46 31t45 31q46 35 73 60t37 47 11 42q0 29-17 47t-51 18q-35 0-55-23t-21-65l-80 23q4 63 46 98t113 36q54 0 88-18t50-48 17-62q0-28-14-55t-43-56-73-60q-14-10-29-18t-31-18v-1q11 1 35 2t37 1h126V-4H544z"/><glyph unicode="¾" horiz-adv-x="922" d="M185 926q68 0 105-30t37-79q0-29-11-50t-31-31-38-12v-2q23 0 43-10t33-29 13-50q0-35-20-61t-56-40-81-14q-65 0-104 25t-55 74l81 32q5-32 24-48t54-16q31 0 50 16t19 43q0 28-20 39t-56 11h-8q-4 0-9-1v56q4-1 7-1t7 0q34 0 52 13t18 41q0 27-16 41t-44 14q-29 0-47-14t-23-43l-78 26q12 51 54 75t100 25zM207 0l477 660h91L299 0h-92zm697 150V91h-68V-4h-74v95H563v43l176 259h97V150h68zm-262 0h120v103q0 20 1 39t2 39h-3q-5-12-14-28t-17-28l-89-125z"/><glyph unicode="¿" horiz-adv-x="558" d="M276-170q-67 0-119 20T75-90 45 4q0 59 25 98t69 60 95 27l3 101h103V139q-66-8-105-23t-58-39-18-59q0-43 30-68t94-26q59 0 96 33t44 92l99-45q-11-52-43-91t-83-61-120-22zm13 538q-34 0-54 19t-21 52q0 32 20 51t55 19q33 0 53-19t21-51q0-32-20-51t-54-20z"/><glyph unicode="À" horiz-adv-x="665" d="M20 0l249 660h128L646 0H533L363 472l-30 95h-3l-28-93L130 0H20zm133 173v87h357v-87H153zm162 724l65-160h-82l-87 160h104z"/><glyph unicode="Á" horiz-adv-x="665" d="M20 0l249 660h128L646 0H533L363 472l-30 95h-3l-28-93L130 0H20zm133 173v87h357v-87H153zm193 724h104l-87-160h-82l65 160z"/><glyph unicode="Â" horiz-adv-x="665" d="M20 0l249 660h128L646 0H533L363 472l-30 95h-3l-28-93L130 0H20zm133 173v87h357v-87H153zm343 564h-87l-76 102-76-102h-87l107 160h112l107-160z"/><glyph unicode="Ã" horiz-adv-x="665" d="M20 0l249 660h128L646 0H533L363 472l-30 95h-3l-28-93L130 0H20zm133 173v87h357v-87H153zm365 704q-2-47-16-78t-39-47-60-16q-28 0-47 10t-34 22-28 23-29 10q-21 0-31-17t-15-49h-73q4 71 34 106t84 36q27 0 46-10t34-22 27-23 28-10q21 0 31 17t16 48h72z"/><glyph unicode="Ä" horiz-adv-x="665" d="M20 0l249 660h128L646 0H533L363 472l-30 95h-3l-28-93L130 0H20zm133 173v87h357v-87H153zm79 687q30 0 47-17t18-46q0-28-17-45t-48-18q-29 0-47 17t-18 46q0 29 18 46t47 17zm202 0q30 0 47-17t18-46q0-28-17-45t-48-18q-30 0-47 17t-18 46q0 29 17 46t48 17z"/><glyph unicode="Å" horiz-adv-x="665" d="M20 0l249 660h128L646 0H533L363 472l-30 95h-3l-28-93L130 0H20zm133 173v87h357v-87H153zm179 672q58 0 93-33t36-87q0-54-35-87t-94-34q-59 0-95 33t-36 88q0 54 36 87t95 33zm0-56q-29 0-47-18t-19-46q0-28 18-46t48-18q29 0 47 18t18 46q0 28-18 46t-47 18z"/><glyph unicode="Æ" horiz-adv-x="945" d="M546 90h353V0H442v208H224L115 0H3l355 660h527v-90H546V378h258v-89H546V90zM266 294h176v277h-26L266 294z"/><glyph unicode="Ç" horiz-adv-x="684" d="M645 175q-20-60-60-101t-94-63-119-21q-95 0-165 41T99 148 61 330q0 106 38 182t108 117 164 41q65 0 117-18t90-54 57-90l-101-45q-20 59-58 86t-99 28q-61 0-107-29t-71-84-26-134q0-78 24-133t69-85 108-29q61 0 105 31t64 95l102-34zM306 6l42 25q65-16 93-48t29-79q0-51-35-85t-92-34q-33 0-56 8t-41 21l22 65q13-9 28-15t37-7q27 0 44 17t18 49q0 26-19 44T306 6z"/><glyph unicode="È" horiz-adv-x="636" d="M98 0v660h478v-92H205V378h290v-90H205V92h385V0H98zm226 897l65-160h-82l-87 160h104z"/><glyph unicode="É" horiz-adv-x="636" d="M98 0v660h478v-92H205V378h290v-90H205V92h385V0H98zm250 897h104l-87-160h-82l65 160z"/><glyph unicode="Ê" horiz-adv-x="636" d="M98 0v660h478v-92H205V378h290v-90H205V92h385V0H98zm402 737h-87l-76 102-76-102h-87l107 160h112l107-160z"/><glyph unicode="Ë" horiz-adv-x="636" d="M98 0v660h478v-92H205V378h290v-90H205V92h385V0H98zm138 860q30 0 47-17t18-46q0-28-17-45t-48-18q-29 0-47 17t-18 46q0 29 18 46t47 17zm202 0q30 0 47-17t18-46q0-28-17-45t-48-18q-30 0-47 17t-18 46q0 29 17 46t48 17z"/><glyph unicode="Ì" horiz-adv-x="303" d="M205 660V0H98v660h107zm-75 237l65-160h-82L26 897h104z"/><glyph unicode="Í" horiz-adv-x="303" d="M205 660V0H98v660h107zm-33 237h104l-87-160h-82l65 160z"/><glyph unicode="Î" horiz-adv-x="303" d="M205 660V0H98v660h107zm109 77h-87l-76 102-76-102h-87L95 897h112l107-160z"/><glyph unicode="Ï" horiz-adv-x="303" d="M60 860q30 0 47-17t18-46q0-28-17-45t-48-18q-29 0-46 17t-18 46q0 29 17 46t47 17zm182 0q30 0 47-17t18-46q0-28-17-45t-48-18q-29 0-47 17t-18 46q0 29 18 46t47 17zm-37-200V0H98v660h107z"/><glyph unicode="Ð" horiz-adv-x="738" d="M22 288v89h378v-89H22zm327 372q155 0 241-85t87-245q0-159-86-244T349 0H116v660h233zm0-569q105 0 161 62t56 177q0 114-56 176t-161 63H223V91h126z"/><glyph unicode="Ñ" horiz-adv-x="736" d="M639 660V0H512L257 416l-64 117h-1l4-107V0H98v660h126l254-415 65-119h1l-4 108v426h99zm-83 217q-2-47-16-78t-39-47-60-16q-28 0-47 10t-34 22-28 23-29 10q-21 0-31-17t-15-49h-73q4 71 34 106t84 36q27 0 46-10t34-22 27-23 28-10q21 0 31 17t16 48h72z"/><glyph unicode="Ò" horiz-adv-x="745" d="M372 670q96 0 166-41t108-117 38-182q0-106-38-182T538 31 372-10q-95 0-165 41T99 148 61 330q0 106 38 182t108 117 165 41zm0-93q-62 0-106-29t-69-84-24-134q0-78 24-133t68-85 107-29q63 0 107 29t69 84 24 134q0 79-24 134t-68 84-108 29zm-21 320l65-160h-82l-87 160h104z"/><glyph unicode="Ó" horiz-adv-x="745" d="M372 670q96 0 166-41t108-117 38-182q0-106-38-182T538 31 372-10q-95 0-165 41T99 148 61 330q0 106 38 182t108 117 165 41zm0-93q-62 0-106-29t-69-84-24-134q0-78 24-133t68-85 107-29q63 0 107 29t69 84 24 134q0 79-24 134t-68 84-108 29zm13 320h104l-87-160h-82l65 160z"/><glyph unicode="Ô" horiz-adv-x="745" d="M372 670q96 0 166-41t108-117 38-182q0-106-38-182T538 31 372-10q-95 0-165 41T99 148 61 330q0 106 38 182t108 117 165 41zm0-93q-62 0-106-29t-69-84-24-134q0-78 24-133t68-85 107-29q63 0 107 29t69 84 24 134q0 79-24 134t-68 84-108 29zm163 160h-87l-76 102-76-102h-87l107 160h112l107-160z"/><glyph unicode="Õ" horiz-adv-x="745" d="M372 670q96 0 166-41t108-117 38-182q0-106-38-182T538 31 372-10q-95 0-165 41T99 148 61 330q0 106 38 182t108 117 165 41zm0-93q-62 0-106-29t-69-84-24-134q0-78 24-133t68-85 107-29q63 0 107 29t69 84 24 134q0 79-24 134t-68 84-108 29zm185 300q-2-47-16-78t-39-47-60-16q-28 0-47 10t-34 22-28 23-29 10q-21 0-31-17t-15-49h-73q4 71 34 106t84 36q27 0 46-10t34-22 27-23 28-10q21 0 31 17t16 48h72z"/><glyph unicode="Ö" horiz-adv-x="745" d="M372 670q96 0 166-41t108-117 38-182q0-106-38-182T538 31 372-10q-95 0-165 41T99 148 61 330q0 106 38 182t108 117 165 41zm0-93q-62 0-106-29t-69-84-24-134q0-78 24-133t68-85 107-29q63 0 107 29t69 84 24 134q0 79-24 134t-68 84-108 29zM271 860q30 0 47-17t18-46q0-28-17-45t-48-18q-29 0-47 17t-18 46q0 29 18 46t47 17zm202 0q30 0 47-17t18-46q0-28-17-45t-48-18q-30 0-47 17t-18 46q0 29 17 46t48 17z"/><glyph unicode="×" horiz-adv-x="604" d="M466 91l64 65-392 393-65-65L466 91zm-328 0l392 393-64 65L73 156l65-65z"/><glyph unicode="Ø" horiz-adv-x="745" d="M236 78l-47 38 315 447 48-36L236 78zM80-34l104 145 48-38-78-107H80zm479 569l-48 37 81 110h73L559 535zM372 670q96 0 166-41t108-117 38-182q0-106-38-182T538 31 372-10q-95 0-165 41T99 148 61 330q0 106 38 182t108 117 165 41zm0-93q-62 0-106-29t-69-84-24-134q0-78 24-133t68-85 107-29q63 0 107 29t69 84 24 134q0 79-24 134t-68 84-108 29z"/><glyph unicode="Ù" horiz-adv-x="709" d="M624 660V253q0-131-69-197T354-10q-130 0-199 66T85 253v407h107V266q0-93 40-138t122-45q83 0 123 45t40 138v394h107zM341 876l65-160h-82l-87 160h104z"/><glyph unicode="Ú" horiz-adv-x="709" d="M624 660V253q0-131-69-197T354-10q-130 0-199 66T85 253v407h107V266q0-93 40-138t122-45q83 0 123 45t40 138v394h107zM367 876h104l-87-160h-82l65 160z"/><glyph unicode="Û" horiz-adv-x="709" d="M624 660V253q0-131-69-197T354-10q-130 0-199 66T85 253v407h107V266q0-93 40-138t122-45q83 0 123 45t40 138v394h107zm-107 56h-87l-76 102-76-102h-87l107 160h112l107-160z"/><glyph unicode="Ü" horiz-adv-x="709" d="M624 660V253q0-131-69-197T354-10q-130 0-199 66T85 253v407h107V266q0-93 40-138t122-45q83 0 123 45t40 138v394h107zM253 839q30 0 47-17t18-46q0-28-17-45t-48-18q-29 0-47 17t-18 46q0 29 18 46t47 17zm202 0q30 0 47-17t18-46q0-28-17-45t-48-18q-30 0-47 17t-18 46q0 29 17 46t48 17z"/><glyph unicode="Ý" d="M588 660L352 253V0H245v253L10 660h119l118-213 52-98 52 98 117 213h120zM312 881h104l-87-160h-82l65 160z"/><glyph unicode="Þ" horiz-adv-x="641" d="M341 547q124 0 187-54t64-156q0-101-63-155t-188-55H151v91h190q140 0 140 119 0 61-35 90t-105 29H151v91h190zM205 660V0H98v660h107z"/><glyph unicode="ß" horiz-adv-x="626" d="M399 379q63 0 101-25t57-67 19-88q0-57-22-104t-66-76-113-29q-47 0-81 10t-49 23l24 81q17-11 38-18t57-8q51 0 80 36t30 92q0 63-35 95t-104 33h-58l5 85h43q60 0 90 34t31 82q0 54-34 79t-86 26q-77 0-106-43t-30-132V0H83v486q0 72 23 127t79 86 148 31q74 0 122-25t73-65 25-88q0-40-17-78t-52-63-85-30v-2z"/><glyph unicode="à" horiz-adv-x="570" d="M372 321q0 50-27 77t-76 28q-45 0-77-21t-47-68l-90 38q19 61 74 98t144 37q60 0 106-19t72-59 27-100V109q0-37 37-37 18 0 35 5l-6-74Q521-8 486-8q-32 0-57 11t-40 35-15 59v7l22 1q-9-39-37-64T294 3t-75-13q-47 0-84 15T76 50t-22 76q0 56 36 92t104 49l194 38-1-75-141-29q-42-8-63-23t-21-44q0-28 21-44t58-17q25 0 48 6t43 19 29 35 11 52v136zM252 746l73-168h-82l-99 168h108z"/><glyph unicode="á" horiz-adv-x="570" d="M372 321q0 50-27 77t-76 28q-45 0-77-21t-47-68l-90 38q19 61 74 98t144 37q60 0 106-19t72-59 27-100V109q0-37 37-37 18 0 35 5l-6-74Q521-8 486-8q-32 0-57 11t-40 35-15 59v7l22 1q-9-39-37-64T294 3t-75-13q-47 0-84 15T76 50t-22 76q0 56 36 92t104 49l194 38-1-75-141-29q-42-8-63-23t-21-44q0-28 21-44t58-17q25 0 48 6t43 19 29 35 11 52v136zm-80 425h108l-99-168h-82l73 168z"/><glyph unicode="â" horiz-adv-x="570" d="M372 321q0 50-27 77t-76 28q-45 0-77-21t-47-68l-90 38q19 61 74 98t144 37q60 0 106-19t72-59 27-100V109q0-37 37-37 18 0 35 5l-6-74Q521-8 486-8q-32 0-57 11t-40 35-15 59v7l22 1q-9-39-37-64T294 3t-75-13q-47 0-84 15T76 50t-22 76q0 56 36 92t104 49l194 38-1-75-141-29q-42-8-63-23t-21-44q0-28 21-44t58-17q25 0 48 6t43 19 29 35 11 52v136zm73 250h-88l-81 107-81-107h-88l113 169h112l113-169z"/><glyph unicode="ã" horiz-adv-x="570" d="M372 321q0 50-27 77t-76 28q-45 0-77-21t-47-68l-90 38q19 61 74 98t144 37q60 0 106-19t72-59 27-100V109q0-37 37-37 18 0 35 5l-6-74Q521-8 486-8q-32 0-57 11t-40 35-15 59v7l22 1q-9-39-37-64T294 3t-75-13q-47 0-84 15T76 50t-22 76q0 56 36 92t104 49l194 38-1-75-141-29q-42-8-63-23t-21-44q0-28 21-44t58-17q25 0 48 6t43 19 29 35 11 52v136zm89 396q-2-47-16-78t-39-47-60-16q-28 0-47 10t-34 22-28 23-29 10q-21 0-31-17t-15-49H89q4 71 34 106t84 36q27 0 46-10t34-22 27-23 28-10q21 0 31 17t16 48h72z"/><glyph unicode="ä" horiz-adv-x="570" d="M372 321q0 50-27 77t-76 28q-45 0-77-21t-47-68l-90 38q19 61 74 98t144 37q60 0 106-19t72-59 27-100V109q0-37 37-37 18 0 35 5l-6-74Q521-8 486-8q-32 0-57 11t-40 35-15 59v7l22 1q-9-39-37-64T294 3t-75-13q-47 0-84 15T76 50t-22 76q0 56 36 92t104 49l194 38-1-75-141-29q-42-8-63-23t-21-44q0-28 21-44t58-17q25 0 48 6t43 19 29 35 11 52v136zM175 700q30 0 47-17t18-46q0-28-17-45t-48-18q-29 0-47 17t-18 46q0 29 18 46t47 17zm202 0q30 0 47-17t18-46q0-28-17-45t-48-18q-30 0-47 17t-18 46q0 29 17 46t48 17z"/><glyph unicode="å" horiz-adv-x="570" d="M372 321q0 50-27 77t-76 28q-45 0-77-21t-47-68l-90 38q19 61 74 98t144 37q60 0 106-19t72-59 27-100V109q0-37 37-37 18 0 35 5l-6-74Q521-8 486-8q-32 0-57 11t-40 35-15 59v7l22 1q-9-39-37-64T294 3t-75-13q-47 0-84 15T76 50t-22 76q0 56 36 92t104 49l194 38-1-75-141-29q-42-8-63-23t-21-44q0-28 21-44t58-17q25 0 48 6t43 19 29 35 11 52v136zm-98 488q58 0 93-33t36-87q0-54-35-87t-94-34q-59 0-95 33t-36 88q0 54 36 87t95 33zm0-56q-29 0-47-18t-19-46q0-28 18-46t48-18q29 0 47 18t18 46q0 28-18 46t-47 18z"/><glyph unicode="æ" horiz-adv-x="891" d="M224-10q-49 0-87 15T76 50t-23 76q0 56 36 91t102 49l181 36v19q0 50-28 77t-75 28q-42 0-74-21t-50-68l-88 38q11 40 40 70t73 48 97 17q69 0 119-27t69-88l-33 2q19 36 48 61t68 38 82 14q69 0 118-30t75-82 26-118q0-17-1-32t-3-30H478q3-70 44-106t101-37q45 0 74 19t48 53l85-40q-18-36-48-62T712 4t-87-14q-79 0-136 37t-81 108l28 3q-4-33-23-60t-48-47-65-30-76-11zm19 83q25 0 48 6t42 20 28 34 11 50v44l-126-26q-43-8-63-23t-20-44q0-26 20-43t60-18zm237 227h255q-1 40-17 68t-42 42-61 15q-55 0-90-32t-45-93z"/><glyph unicode="ç" horiz-adv-x="562" d="M299 510q60 0 102-17t72-50 44-73l-101-40q-13 46-41 70t-75 25q-45 0-77-20t-48-60-17-96q0-56 17-95t49-59 76-20q34 0 59 11t41 33 23 53l97-33q-14-45-43-78T403 9 302-10q-74 0-131 31t-88 89-32 140q0 81 31 139t88 90 129 31zM237 6l42 25q65-16 93-48t29-79q0-51-35-85t-92-34q-33 0-56 8t-41 21l22 65q13-9 28-15t37-7q27 0 44 17t18 49q0 26-19 44T237 6z"/><glyph unicode="è" horiz-adv-x="578" d="M303-10q-75 0-132 31t-88 89-32 140q0 81 31 139t88 90 127 31q73 0 124-30t78-82 27-118q0-18-1-34t-3-28H120v82h355l-53-16q0 68-34 104t-93 37q-43 0-75-20t-49-59-17-97q0-56 18-95t51-59 78-20q50 0 81 19t49 53l85-40q-18-36-48-62T395 4t-92-14zm-35 756l73-168h-82l-99 168h108z"/><glyph unicode="é" horiz-adv-x="578" d="M303-10q-75 0-132 31t-88 89-32 140q0 81 31 139t88 90 127 31q73 0 124-30t78-82 27-118q0-18-1-34t-3-28H120v82h355l-53-16q0 68-34 104t-93 37q-43 0-75-20t-49-59-17-97q0-56 18-95t51-59 78-20q50 0 81 19t49 53l85-40q-18-36-48-62T395 4t-92-14zm5 756h108l-99-168h-82l73 168z"/><glyph unicode="ê" horiz-adv-x="578" d="M303-10q-75 0-132 31t-88 89-32 140q0 81 31 139t88 90 127 31q73 0 124-30t78-82 27-118q0-18-1-34t-3-28H120v82h355l-53-16q0 68-34 104t-93 37q-43 0-75-20t-49-59-17-97q0-56 18-95t51-59 78-20q50 0 81 19t49 53l85-40q-18-36-48-62T395 4t-92-14zm158 581h-88l-81 107-81-107h-88l113 169h112l113-169z"/><glyph unicode="ë" horiz-adv-x="578" d="M303-10q-75 0-132 31t-88 89-32 140q0 81 31 139t88 90 127 31q73 0 124-30t78-82 27-118q0-18-1-34t-3-28H120v82h355l-53-16q0 68-34 104t-93 37q-43 0-75-20t-49-59-17-97q0-56 18-95t51-59 78-20q50 0 81 19t49 53l85-40q-18-36-48-62T395 4t-92-14zM191 700q30 0 47-17t18-46q0-28-17-45t-48-18q-29 0-47 17t-18 46q0 29 18 46t47 17zm202 0q30 0 47-17t18-46q0-28-17-45t-48-18q-30 0-47 17t-18 46q0 29 17 46t48 17z"/><glyph unicode="ì" horiz-adv-x="274" d="M190 500V0H83v500h107zm-77 246l73-168h-82L5 746h108z"/><glyph unicode="í" horiz-adv-x="274" d="M190 500V0H83v500h107zm-37 246h108l-99-168H80l73 168z"/><glyph unicode="î" horiz-adv-x="274" d="M190 500V0H83v500h107zm116 71h-88l-81 107-81-107h-88L81 740h112l113-169z"/><glyph unicode="ï" horiz-adv-x="274" d="M222 574q-30 0-47 17t-18 46q0 30 17 47t48 17q30 0 47-17t17-47q0-29-17-46t-47-17zm-170 0q-29 0-46 17t-18 46q0 30 17 47t47 17q30 0 47-17t18-47q0-29-17-46t-48-17zm138-74V0H83v500h107z"/><glyph unicode="ð" horiz-adv-x="615" d="M298-10q-75 0-129 29t-83 86-30 134q0 78 31 134t84 85 120 30q64 0 106-24t66-66l-8-6q-10 56-30 103t-52 87-75 77-102 69h124q55-31 97-74t73-97 45-121 16-144q0-90-29-158T437 28 298-10zm5 85q47 0 79 22t49 60 17 82q0 54-17 90t-48 56-76 20q-44 0-76-19t-49-56-17-91q0-79 37-121t101-43zM203 535l-15 61 193 41 34-50-212-52zm222 54l-32 50 148 38 16-59-132-29z"/><glyph unicode="ñ" horiz-adv-x="619" d="M83 0v500h95l7-130-14 14q14 43 40 71t63 42 78 13q53 0 95-20t68-62 25-104V0H433v291q0 74-30 102t-77 29q-33 0-64-15t-51-50-21-91V0H83zm418 717q-2-47-16-78t-39-47-60-16q-28 0-47 10t-34 22-28 23-29 10q-21 0-31-17t-15-49h-73q4 71 34 106t84 36q27 0 46-10t34-22 27-23 28-10q21 0 31 17t16 48h72z"/><glyph unicode="ò" horiz-adv-x="600" d="M300 510q73 0 129-31t87-89 32-140q0-81-31-139t-88-90-129-31q-73 0-129 31t-88 89-32 140q0 81 32 139t88 90 129 31zm0-84q-45 0-76-20t-49-60-17-96q0-56 17-95t48-60 77-21q45 0 76 20t48 60 17 96q0 57-17 96t-48 59-76 21zm-24 320l73-168h-82l-99 168h108z"/><glyph unicode="ó" horiz-adv-x="600" d="M300 510q73 0 129-31t87-89 32-140q0-81-31-139t-88-90-129-31q-73 0-129 31t-88 89-32 140q0 81 32 139t88 90 129 31zm0-84q-45 0-76-20t-49-60-17-96q0-56 17-95t48-60 77-21q45 0 76 20t48 60 17 96q0 57-17 96t-48 59-76 21zm16 320h108l-99-168h-82l73 168z"/><glyph unicode="ô" horiz-adv-x="600" d="M300 510q73 0 129-31t87-89 32-140q0-81-31-139t-88-90-129-31q-73 0-129 31t-88 89-32 140q0 81 32 139t88 90 129 31zm0-84q-45 0-76-20t-49-60-17-96q0-56 17-95t48-60 77-21q45 0 76 20t48 60 17 96q0 57-17 96t-48 59-76 21zm169 145h-88l-81 107-81-107h-88l113 169h112l113-169z"/><glyph unicode="õ" horiz-adv-x="600" d="M300 510q73 0 129-31t87-89 32-140q0-81-31-139t-88-90-129-31q-73 0-129 31t-88 89-32 140q0 81 32 139t88 90 129 31zm0-84q-45 0-76-20t-49-60-17-96q0-56 17-95t48-60 77-21q45 0 76 20t48 60 17 96q0 57-17 96t-48 59-76 21zm185 291q-2-47-16-78t-39-47-60-16q-28 0-47 10t-34 22-28 23-29 10q-21 0-31-17t-15-49h-73q4 71 34 106t84 36q27 0 46-10t34-22 27-23 28-10q21 0 31 17t16 48h72z"/><glyph unicode="ö" horiz-adv-x="600" d="M300 510q73 0 129-31t87-89 32-140q0-81-31-139t-88-90-129-31q-73 0-129 31t-88 89-32 140q0 81 32 139t88 90 129 31zm0-84q-45 0-76-20t-49-60-17-96q0-56 17-95t48-60 77-21q45 0 76 20t48 60 17 96q0 57-17 96t-48 59-76 21zM199 700q30 0 47-17t18-46q0-28-17-45t-48-18q-29 0-47 17t-18 46q0 29 18 46t47 17zm202 0q30 0 47-17t18-46q0-28-17-45t-48-18q-30 0-47 17t-18 46q0 29 17 46t48 17z"/><glyph unicode="÷" horiz-adv-x="610" d="M551 364v-89H59v89h492zM305 187q32 0 51-19t19-51q0-32-19-51t-51-19q-32 0-51 19t-20 51q0 31 19 50t52 20zm0 402q32 0 51-19t19-51q0-31-19-50t-51-19q-32 0-51 19t-20 50q0 32 19 51t52 19z"/><glyph unicode="ø" horiz-adv-x="600" d="M300 510q73 0 129-31t87-89 32-140q0-81-31-139t-88-90-129-31q-73 0-129 31t-88 89-32 140q0 81 32 139t88 90 129 31zm0-84q-45 0-76-20t-49-60-17-96q0-56 17-95t48-60 77-21q45 0 76 20t48 60 17 96q0 57-17 96t-48 59-76 21zm8-454l429 556h67L375-28h-67z"/><glyph unicode="ù" horiz-adv-x="618" d="M261-10q-49 0-90 18t-67 58-25 104v330h107V197q0-68 29-93t81-26q25 0 48 8t43 27 29 48 11 68v271h107V0h-94l-5 81q-26-47-70-69T261-10zm21 748l73-168h-82l-99 168h108z"/><glyph unicode="ú" horiz-adv-x="618" d="M261-10q-49 0-90 18t-67 58-25 104v330h107V197q0-68 29-93t81-26q25 0 48 8t43 27 29 48 11 68v271h107V0h-94l-5 81q-26-47-70-69T261-10zm61 748h108l-99-168h-82l73 168z"/><glyph unicode="û" horiz-adv-x="618" d="M261-10q-49 0-90 18t-67 58-25 104v330h107V197q0-68 29-93t81-26q25 0 48 8t43 27 29 48 11 68v271h107V0h-94l-5 81q-26-47-70-69T261-10zm214 573h-88l-81 107-81-107h-88l113 169h112l113-169z"/><glyph unicode="ü" horiz-adv-x="618" d="M261-10q-49 0-90 18t-67 58-25 104v330h107V197q0-68 29-93t81-26q25 0 48 8t43 27 29 48 11 68v271h107V0h-94l-5 81q-26-47-70-69T261-10zm-56 702q30 0 47-17t18-46q0-28-17-45t-48-18q-29 0-47 17t-18 46q0 29 18 46t47 17zm202 0q30 0 47-17t18-46q0-28-17-45t-48-18q-30 0-47 17t-18 46q0 29 17 46t48 17z"/><glyph unicode="ý" horiz-adv-x="530" d="M522 500L303-59q-22-58-47-92t-59-49-77-15q-36 0-66 9T0-180l26 83q19-16 40-24t47-8q27 0 48 14t39 58l22 54-53 124L13 500h120l111-314 29-94 33 103 105 305h111zM287 738h108l-99-168h-82l73 168z"/><glyph unicode="þ" horiz-adv-x="627" d="M83-210v935h107V373l-12 18q19 52 65 85t111 34q60 0 110-31t80-89 29-141q0-80-29-138t-80-90-113-31q-64 0-109 33t-64 86l12 17v-336H83zM328 77q65 0 101 46t37 127q0 81-36 127t-100 47q-42 0-73-21t-49-60-18-93q0-53 17-92t48-60 73-21z"/><glyph unicode="ÿ" horiz-adv-x="530" d="M522 500L303-59q-22-58-47-92t-59-49-77-15q-36 0-66 9T0-180l26 83q19-16 40-24t47-8q27 0 48 14t39 58l22 54-53 124L13 500h120l111-314 29-94 33 103 105 305h111zM170 692q30 0 47-17t18-46q0-28-17-45t-48-18q-29 0-47 17t-18 46q0 29 18 46t47 17zm202 0q30 0 47-17t18-46q0-28-17-45t-48-18q-30 0-47 17t-18 46q0 29 17 46t48 17z"/><glyph unicode="–" horiz-adv-x="672" d="M592 310v-93H81v93h511z"/><glyph unicode="—" horiz-adv-x="1011" d="M931 310v-93H81v93h850z"/><glyph unicode="‘" horiz-adv-x="267" d="M134 413q-28 0-46 13t-29 37-10 54q0 37 14 71t40 63 64 47l50-43q-27-10-48-26t-35-36-21-41l4-2q5 3 11 5t19 2q14 0 28-7t25-23 10-39q0-22-10-39t-28-26-38-10z"/><glyph unicode="’" horiz-adv-x="267" d="M137 696q28 0 46-13t29-37 10-54q0-37-14-71t-40-63-64-47l-50 43q27 10 48 26t35 36 21 41l-4 2q-5-3-11-5t-19-2q-14 0-28 7t-25 23-10 39q0 22 10 39t28 26 38 10z"/><glyph unicode="‚" horiz-adv-x="264" d="M390 135q28 0 46-13t29-37 10-54q0-37-14-71t-40-63-64-47l-50 43q27 10 48 26t35 36 21 41l-4 2q-5-3-11-5t-19-2q-14 0-28 7t-25 23-10 39q0 22 10 39t28 26 38 10z"/><glyph unicode="“" horiz-adv-x="472" d="M134 413q-28 0-46 13t-29 37-10 54q0 37 14 71t40 63 64 47l50-43q-27-10-48-26t-35-36-21-41l4-2q5 3 11 5t19 2q14 0 28-7t25-23 10-39q0-22-10-39t-28-26-38-10zm205 0q-28 0-46 13t-29 37-10 54q0 37 14 71t40 63 64 47l50-43q-27-10-48-26t-35-36-21-41l4-2q5 3 11 5t19 2q14 0 28-7t25-23 10-39q0-22-10-39t-28-26-38-10z"/><glyph unicode="”" horiz-adv-x="472" d="M137 696q28 0 46-13t29-37 10-54q0-37-14-71t-40-63-64-47l-50 43q27 10 48 26t35 36 21 41l-4 2q-5-3-11-5t-19-2q-14 0-28 7t-25 23-10 39q0 22 10 39t28 26 38 10zm205 0q28 0 46-13t29-37 10-54q0-37-14-71t-40-63-64-47l-50 43q27 10 48 26t35 36 21 41l-4 2q-5-3-11-5t-19-2q-14 0-28 7t-25 23-10 39q0 22 10 39t28 26 38 10z"/><glyph unicode="„" horiz-adv-x="468" d="M390 135q28 0 46-13t29-37 10-54q0-37-14-71t-40-63-64-47l-50 43q27 10 48 26t35 36 21 41l-4 2q-5-3-11-5t-19-2q-14 0-28 7t-25 23-10 39q0 22 10 39t28 26 38 10zm-52 0q28 0 46-13t29-37 10-54q0-37-14-71t-40-63-64-47l-50 43q27 10 48 26t35 36 21 41l-4 2q-5-3-11-5t-19-2q-14 0-28 7t-25 23-10 39q0 22 10 39t28 26 38 10z"/><glyph unicode="•" horiz-adv-x="430" d="M215 206q-59 0-96 36t-38 94q0 58 37 93t97 36q60 0 97-35t37-94q0-57-37-93t-97-37z"/><glyph unicode="‹" horiz-adv-x="324" d="M277 461L151 265 277 69H172L46 265l126 196h105z"/><glyph unicode="›" horiz-adv-x="324" d="M47 69l126 196L47 461h105l126-196L152 69H47z"/></font>
</defs>
</svg>
