<svg width="20" height="20" fill="none" xmlns="http://www.w3.org/2000/svg"><path fill-rule="evenodd" clip-rule="evenodd" d="M10 18.125a8.125 8.125 0 100-16.25 8.125 8.125 0 000 16.25zM10 20c5.523 0 10-4.477 10-10S15.523 0 10 0 0 4.477 0 10s4.477 10 10 10z" fill="#B34000"/><path d="M9.103 5.29c0-.26.085-.48.255-.66a.874.874 0 01.645-.255c.26 0 .475.085.645.255.17.18.255.4.255.66v6.195c0 .26-.085.475-.255.645a.85.85 0 01-.645.27.85.85 0 01-.645-.27.874.874 0 01-.255-.645V5.29zm.915 8.085c.34 0 .58.055.72.165.14.11.21.305.21.585v.285c0 .28-.075.475-.225.585-.15.11-.39.165-.72.165-.35 0-.595-.055-.735-.165-.14-.11-.21-.305-.21-.585v-.285c0-.29.075-.49.225-.6.14-.1.385-.15.735-.15z" fill="#B34000"/></svg>
