<svg width="20" height="20" viewBox="0 0 20 20" fill="none" xmlns="http://www.w3.org/2000/svg">
<path fill-rule="evenodd" clip-rule="evenodd" d="M10 1.875C5.51269 1.875 1.875 5.51269 1.875 10C1.875 14.4873 5.51269 18.125 10 18.125C14.4873 18.125 18.125 14.4873 18.125 10C18.125 5.51269 14.4873 1.875 10 1.875ZM10 2.78158e-06C4.47715 3.2644e-06 5.50298e-07 4.47716 1.03312e-06 10C1.51594e-06 15.5228 4.47715 20 10 20C15.5228 20 20 15.5228 20 10C20 4.47715 15.5228 2.29875e-06 10 2.78158e-06Z" fill="#CE0500"/>
<path d="M9.09738 5.755C9.09738 5.495 9.18238 5.275 9.35238 5.095C9.52238 4.925 9.73738 4.84 9.99738 4.84C10.2574 4.84 10.4724 4.925 10.6424 5.095C10.8124 5.275 10.8974 5.495 10.8974 5.755L10.8974 11.95C10.8974 12.21 10.8124 12.425 10.6424 12.595C10.4724 12.775 10.2574 12.865 9.99738 12.865C9.73738 12.865 9.52238 12.775 9.35238 12.595C9.18238 12.425 9.09738 12.21 9.09738 11.95L9.09738 5.755ZM10.0124 13.84C10.3524 13.84 10.5924 13.895 10.7324 14.005C10.8724 14.115 10.9424 14.31 10.9424 14.59L10.9424 14.875C10.9424 15.155 10.8674 15.35 10.7174 15.46C10.5674 15.57 10.3274 15.625 9.99738 15.625C9.64738 15.625 9.40238 15.57 9.26238 15.46C9.12238 15.35 9.05238 15.155 9.05238 14.875L9.05238 14.59C9.05238 14.3 9.12738 14.1 9.27738 13.99C9.41738 13.89 9.66238 13.84 10.0124 13.84Z" fill="#CE0500"/>
</svg>
