<svg width="26" height="26" viewBox="0 0 26 26" fill="none" xmlns="http://www.w3.org/2000/svg">
<circle cx="13" cy="13" r="13" transform="rotate(180 13 13)" fill="#000091"/>
<path d="M12.6828 8.34937C13.1058 7.9263 13.1058 7.24037 12.6828 6.8173C12.2597 6.39423 11.5738 6.39423 11.1507 6.8173L5.73497 12.233C5.53838 12.4292 5.41675 12.7004 5.41675 13C5.41675 13.2932 5.53323 13.5592 5.72245 13.7543C5.72628 13.7582 5.73015 13.7621 5.73405 13.766L11.1507 19.1827C11.5738 19.6058 12.2597 19.6058 12.6828 19.1827C13.1058 18.7596 13.1058 18.0737 12.6828 17.6506L9.11548 14.0833L19.2292 14.0833C19.8276 14.0833 20.3126 13.5983 20.3126 13C20.3126 12.4017 19.8276 11.9167 19.2292 11.9167L9.11548 11.9167L12.6828 8.34937Z" fill="white"/>
</svg>
