<svg width="18" height="18" viewBox="0 0 18 18" fill="none" xmlns="http://www.w3.org/2000/svg">
<circle cx="9" cy="9" r="9" fill="#FFE9E9"/>
<path d="M9.00979 10.906C8.69246 10.906 8.51979 10.7287 8.49179 10.374L8.08579 5.222C8.06712 4.93267 8.14179 4.69 8.30979 4.494C8.48712 4.298 8.71579 4.2 8.99579 4.2C9.27579 4.2 9.50446 4.298 9.68179 4.494C9.85912 4.69 9.93379 4.93267 9.90579 5.222L9.51379 10.374C9.48579 10.7287 9.31779 10.906 9.00979 10.906ZM8.91179 14C8.64112 14 8.43112 13.93 8.28179 13.79C8.14179 13.6407 8.07179 13.4307 8.07179 13.16V12.922C8.07179 12.6513 8.14179 12.446 8.28179 12.306C8.43112 12.1567 8.64112 12.082 8.91179 12.082H9.09379C9.36446 12.082 9.56979 12.1567 9.70979 12.306C9.85912 12.446 9.93379 12.6513 9.93379 12.922V13.16C9.93379 13.4307 9.85912 13.6407 9.70979 13.79C9.56979 13.93 9.36446 14 9.09379 14H8.91179Z" fill="#CE0500"/>
</svg>
