<svg width="20" height="20" viewBox="0 0 20 20" fill="none" xmlns="http://www.w3.org/2000/svg">
<path fill-rule="evenodd" clip-rule="evenodd" d="M18.125 10C18.125 14.4873 14.4873 18.125 10 18.125C5.51269 18.125 1.875 14.4873 1.875 10C1.875 5.51269 5.51269 1.875 10 1.875C14.4873 1.875 18.125 5.51268 18.125 10ZM20 10C20 15.5228 15.5228 20 10 20C4.47716 20 3.42329e-06 15.5228 1.03312e-06 10C5.50298e-07 4.47715 4.47715 -5.50299e-07 10 -1.03312e-06C15.5228 -3.42329e-06 20 4.47715 20 10ZM10.6476 14.905C10.8176 14.725 10.9026 14.505 10.9026 14.245L10.9026 8.05C10.9026 7.79 10.8176 7.575 10.6476 7.405C10.4776 7.225 10.2626 7.135 10.0026 7.135C9.74262 7.135 9.52762 7.225 9.35762 7.405C9.18762 7.575 9.10262 7.79 9.10262 8.05L9.10262 14.245C9.10262 14.505 9.18762 14.725 9.35762 14.905C9.52762 15.075 9.74262 15.16 10.0026 15.16C10.2626 15.16 10.4776 15.075 10.6476 14.905ZM9.26762 5.995C9.40762 6.105 9.64762 6.16 9.98762 6.16C10.3376 6.16 10.5826 6.11 10.7226 6.01C10.8726 5.9 10.9476 5.7 10.9476 5.41L10.9476 5.125C10.9476 4.845 10.8776 4.65 10.7376 4.54C10.5976 4.43 10.3526 4.375 10.0026 4.375C9.67262 4.375 9.43262 4.43 9.28262 4.54C9.13262 4.65 9.05762 4.845 9.05762 5.125L9.05762 5.41C9.05762 5.69 9.12762 5.885 9.26762 5.995Z" fill="#FBF9FA"/>
</svg>
