<svg width="23" height="23" fill="none" xmlns="http://www.w3.org/2000/svg"><circle cx="11.5" cy="11.5" r="11.5" fill="#0063CB"/><path d="M9.68 12.29c0-.261.085-.477.256-.648a.853.853 0 01.648-.271c.663 0 1.195-.156 1.597-.468.402-.31.603-.793.603-1.446 0-.502-.181-.92-.543-1.25-.361-.332-.814-.498-1.356-.498-.553 0-1.04.186-1.462.557-.24.221-.492.332-.753.332a.798.798 0 01-.513-.18c-.26-.202-.391-.438-.391-.71 0-.23.095-.441.286-.632a3.771 3.771 0 011.266-.859 3.937 3.937 0 011.567-.316c.683 0 1.306.155 1.869.467.562.311 1.01.743 1.34 1.296.332.542.498 1.14.498 1.793 0 .964-.276 1.728-.829 2.29-.553.563-1.286.915-2.2 1.055-.05.02-.075.045-.075.076v.557a.93.93 0 01-.256.663.879.879 0 01-.648.256.878.878 0 01-.648-.256.93.93 0 01-.257-.663V12.29zm.828 4.762c-.291 0-.517-.076-.678-.226-.15-.161-.226-.387-.226-.678v-.257c0-.291.075-.512.226-.663.16-.16.387-.24.678-.24h.196c.291 0 .512.08.663.24.16.151.241.372.241.663v.257c0 .29-.08.517-.24.678-.152.15-.373.226-.664.226h-.196z" fill="#FBF9FA"/></svg>
