<svg class="icone-anonyme" viewBox="0 0 26 26" fill="none" xmlns="http://www.w3.org/2000/svg">
  <title>Anonymisée</title>
  <path fill-rule="evenodd" clip-rule="evenodd" d="M13 26C20.1797 26 26 20.1797 26 13C26 5.8203 20.1797 0 13 0C5.8203 0 0 5.8203 0 13C0 20.1797 5.8203 26 13 26ZM7.75 10.174C7.75 7.27448 9.54087 5.17397 11.75 5.17397C11.976 5.17397 12.1547 5.33814 12.3449 5.51287C12.5612 5.71159 12.7924 5.92397 13.125 5.92397C13.4576 5.92397 13.6888 5.6408 13.9051 5.37583C14.0953 5.14287 14.274 4.92397 14.5 4.92397C16.7091 4.92397 18.5 7.27448 18.5 10.174H7.75ZM5 12.5653C5 12.0131 5.44772 11.5653 6 11.5653H20C20.5523 11.5653 21 12.0131 21 12.5653C21 13.1176 20.5523 13.5653 20 13.5653H6C5.44772 13.5653 5 13.1176 5 12.5653ZM10 20.3262C11.2426 20.3262 12.25 19.3188 12.25 18.0762C12.25 17.719 12.1668 17.3813 12.0187 17.0813C12.319 16.8487 12.6514 16.7012 13 16.7012C13.3486 16.7012 13.681 16.8487 13.9813 17.0813C13.8332 17.3813 13.75 17.719 13.75 18.0762C13.75 19.3188 14.7574 20.3262 16 20.3262C17.2426 20.3262 18.25 19.3188 18.25 18.0762C18.25 16.8335 17.2426 15.8262 16 15.8262C15.3847 15.8262 14.8271 16.0731 14.4209 16.4734C14.0346 16.1792 13.5541 15.9512 13 15.9512C12.4459 15.9512 11.9654 16.1792 11.5791 16.4734C11.1729 16.0731 10.6153 15.8262 10 15.8262C8.75736 15.8262 7.75 16.8335 7.75 18.0762C7.75 19.3188 8.75736 20.3262 10 20.3262Z"/>
</svg>
