<svg width="80" height="72" viewBox="0 0 80 72" fill="none" xmlns="http://www.w3.org/2000/svg">
<path d="M37.1609 26.9893C37.1609 26.1554 37.4298 25.4498 37.9675 24.8725C38.5052 24.3273 39.1853 24.0547 40.0077 24.0547C40.8301 24.0547 41.5102 24.3273 42.0479 24.8725C42.5857 25.4498 42.8545 26.1554 42.8545 26.9893L42.8545 46.8578C42.8545 47.6916 42.5857 48.3812 42.0479 48.9264C41.5102 49.5037 40.8301 49.7923 40.0077 49.7923C39.1853 49.7923 38.5052 49.5037 37.9675 48.9264C37.4298 48.3812 37.1609 47.6916 37.1609 46.8578L37.1609 26.9893ZM40.0552 52.9193C41.1306 52.9193 41.8898 53.0957 42.3326 53.4485C42.7755 53.8013 42.9969 54.4267 42.9969 55.3247V56.2388C42.9969 57.1368 42.7597 57.7622 42.2852 58.115C41.8107 58.4678 41.0516 58.6442 40.0077 58.6442C38.9006 58.6442 38.1257 58.4678 37.6828 58.115C37.24 57.7622 37.0186 57.1368 37.0186 56.2388L37.0186 55.3247C37.0186 54.3947 37.2558 53.7532 37.7303 53.4004C38.1731 53.0797 38.9481 52.9193 40.0552 52.9193Z" fill="#B34000"/>
<path fill-rule="evenodd" clip-rule="evenodd" d="M74.9268 63.6L42.0545 6C41.1414 4.4 38.8586 4.4 37.9455 6L5.07316 63.6C4.16005 65.2 5.30144 67.2 7.12769 67.2H72.8723C74.6986 67.2 75.84 65.2 74.9268 63.6ZM46.1636 3.6C43.4242 -1.2 36.5758 -1.2 33.8364 3.6L0.964123 61.2C-1.77524 66 1.64897 72 7.12769 72H72.8723C78.351 72 81.7752 66 79.0359 61.2L46.1636 3.6Z" fill="#B34000"/>
</svg>
