<svg xmlns="http://www.w3.org/2000/svg" fill="none" height="64" width="64"><circle fill="#FB926B" r="32" cy="32" cx="32"/><path stroke-width="3" stroke="#fff" d="M12.189 56.405c.528-1.836 1.321-3.313 2.377-4.32 1.024-.975 2.374-1.585 4.221-1.585h26.426c1.847 0 3.197.61 4.221 1.586 1.056 1.006 1.848 2.483 2.377 4.319"/><circle stroke-width="3" stroke="#fff" r="14.5" cy="31" cx="32"/><path fill="#fff" d="M22 29.5a1.5 1.5 0 000 3v-3zm20 3a1.5 1.5 0 000-3v3zM37 31l-1.342.67.415.83H37V31zm-10 0l1.342-.67-.415-.83H27V31zm3 6l-1.342.67a1.5 1.5 0 002.765-.196L30 37zm4-12l1.342-.67a1.5 1.5 0 00-2.765.196L34 25zm3 7.5h5v-3h-5v3zm-15 0h5v-3h-5v3zm3.658-.83l3 6 2.684-1.34-3-6-2.684 1.34zm5.765 5.804l4-12-2.846-.948-4 12 2.846.948zm1.235-11.803l3 6 2.684-1.342-3-6-2.684 1.342z"/></svg>
