<svg width="96" height="96" fill="none" xmlns="http://www.w3.org/2000/svg">
  <rect width="96" height="96" rx="48"/>
  <path d="M40.98 51.795c0-1.218.4-2.226 1.2-3.022.8-.843 1.813-1.265 3.037-1.265 1.93 0 3.672-.281 5.225-.843 1.554-.61 2.778-1.57 3.672-2.881.942-1.312 1.412-3.045 1.412-5.2 0-1.593-.4-2.998-1.2-4.216-.753-1.218-1.812-2.179-3.178-2.882-1.318-.702-2.824-1.054-4.519-1.054-1.318 0-2.565.235-3.742.703a11.77 11.77 0 0 0-3.107 1.897c-.754.656-1.672 1.148-2.754 1.476-1.036.281-2.095.023-3.178-.773-1.13-.843-1.742-1.85-1.836-3.021-.094-1.172.353-2.25 1.342-3.233a17.674 17.674 0 0 1 5.931-4.005C41.592 22.492 44.04 22 46.63 22c3.248 0 6.167.75 8.756 2.249 2.636 1.452 4.731 3.42 6.285 5.902 1.553 2.483 2.33 5.294 2.33 8.433 0 2.342-.353 4.427-1.06 6.254a13.468 13.468 0 0 1-3.036 4.638c-1.27 1.264-2.777 2.295-4.519 3.092-1.694.75-3.554 1.288-5.578 1.616l-.283.14c-.047.047-.07.117-.07.211v2.6c0 1.218-.4 2.249-1.2 3.092-.801.796-1.813 1.195-3.037 1.195s-2.236-.399-3.036-1.195c-.8-.843-1.2-1.874-1.2-3.092v-5.34ZM44.864 74c-1.365 0-2.424-.351-3.178-1.054-.706-.75-1.059-1.804-1.059-3.162v-1.195c0-1.358.353-2.389 1.06-3.092.753-.75 1.812-1.124 3.177-1.124h.918c1.365 0 2.4.375 3.107 1.124.753.703 1.13 1.734 1.13 3.092v1.195c0 1.358-.377 2.412-1.13 3.162-.706.703-1.742 1.054-3.107 1.054h-.918Z" fill="#FBF9FA"/>
</svg>
