<svg width="64" height="64" fill="none" xmlns="http://www.w3.org/2000/svg"><circle cx="32" cy="32" r="32" fill="#000091"/><rect x="9" y="36" width="8" height="8" rx="2" transform="rotate(-90 9 36)" fill="#fff"/><rect x="28" y="36" width="8" height="8" rx="2" transform="rotate(-90 28 36)" fill="#fff"/><path fill-rule="evenodd" clip-rule="evenodd" d="M39.902 31.95A7.95 7.95 0 1124 31.952a7.95 7.95 0 0115.902 0zm-1.266 8.675a10.903 10.903 0 01-6.685 2.277C25.903 42.902 21 37.999 21 31.95 21 25.903 25.903 21 31.95 21 38 21 42.903 25.903 42.903 31.95c0 2.518-.85 4.837-2.277 6.686.158.072.306.173.436.303l7 7a1.5 1.5 0 01-2.122 2.122l-7-7a1.495 1.495 0 01-.303-.436z" fill="#fff"/><circle cx="51" cy="32" r="4" transform="rotate(-90 51 32)" fill="#fff"/></svg>