<svg width="8" height="8" viewBox="0 0 8 8" fill="none" xmlns="http://www.w3.org/2000/svg">
<path fill-rule="evenodd" clip-rule="evenodd" d="M0.535755 6.1211C0.145231 6.51162 0.145231 7.14479 0.535755 7.53531C0.926279 7.92584 1.55944 7.92584 1.94997 7.53531L4.07129 5.41399L6.19261 7.53531C6.58313 7.92584 7.2163 7.92584 7.60682 7.53531C7.99735 7.14479 7.99735 6.51162 7.60682 6.1211L5.4855 3.99978L7.60682 1.87846C7.99735 1.48793 7.99735 0.854769 7.60682 0.464244C7.2163 0.0737202 6.58313 0.0737199 6.19261 0.464245L4.07129 2.58556L1.94997 0.464245C1.55944 0.0737205 0.926279 0.0737205 0.535755 0.464245C0.145231 0.854769 0.145231 1.48793 0.535755 1.87846L2.65708 3.99978L0.535755 6.1211Z" fill="#3558A2"/>
</svg>
