<svg width="23" height="15" viewBox="0 0 23 15" fill="none" xmlns="http://www.w3.org/2000/svg">
<path fill-rule="evenodd" clip-rule="evenodd" d="M16.3406 2.29289C16.7334 1.90237 17.3702 1.90237 17.7629 2.29289L23 7.5L17.7629 12.7071C17.3702 13.0976 16.7334 13.0976 16.3406 12.7071C15.9478 12.3166 15.9478 11.6834 16.3406 11.2929L19.1496 8.5H9.00575C8.45029 8.5 8 8.05228 8 7.5C8 6.94772 8.45029 6.5 9.00575 6.5H19.1496L16.3406 3.70711C15.9478 3.31658 15.9478 2.68342 16.3406 2.29289Z" fill="#000091"/>
<path d="M12.4003 10C11.4899 11.7808 9.63734 13 7.5 13C4.46243 13 2 10.5376 2 7.5C2 4.46243 4.46243 2 7.5 2C9.63734 2 11.4899 3.21916 12.4003 5H14.5732C13.5436 2.08702 10.7655 0 7.5 0C3.35786 0 0 3.35786 0 7.5C0 11.6421 3.35786 15 7.5 15C10.7655 15 13.5436 12.913 14.5732 10H12.4003Z" fill="#000091"/>
</svg>
