<svg width="300" height="233" viewBox="0 0 300 233" fill="none" xmlns="http://www.w3.org/2000/svg">
<g clip-path="url(#clip0_22284_2764)">
<path d="M41.6182 29.0547C41.9421 29.809 51.9315 29.7288 52.3892 30.3999C55.9165 35.5855 43.2009 57.6489 46.7289 62.8412L47.2204 63.4262C46.0696 62.8963 39.5993 57.9755 36.0795 55.8666C34.6543 54.3025 33.0114 52.9512 31.2012 51.8544L41.6182 29.0547Z" fill="#161616"/>
<path d="M34.3633 71.5548C35.4657 70.8373 36.7234 70.3929 38.0321 70.2583C39.3408 70.1237 40.6628 70.3029 41.8883 70.781C43.1138 71.2591 44.2076 72.0223 45.0787 73.0072C45.9499 73.9922 46.5734 75.1706 46.8975 76.4445L62.079 115.963L88.1722 101.163C88.2868 99.4612 88.9378 97.8399 90.0317 96.5311C91.1256 95.2223 92.6063 94.2932 94.2614 93.8772C95.9165 93.4612 97.661 93.5796 99.2446 94.2154C100.828 94.8512 102.17 95.9717 103.076 97.4163C103.983 98.8609 104.409 100.555 104.292 102.256C104.175 103.958 103.522 105.578 102.427 106.886C101.331 108.193 99.8493 109.12 98.1937 109.534C96.5381 109.948 94.7938 109.828 93.211 109.19C87.716 115.05 63.8932 139.074 54.0306 129.687C45.7408 121.797 33.7774 91.218 30.8975 80.6586C30.4362 78.97 30.5232 77.1788 31.146 75.5429C31.7688 73.9069 32.8952 72.5107 34.3629 71.5552L34.3633 71.5548Z" fill="#E4794A"/>
<path d="M39.2065 50.9113L26.2637 50.5391V69.239H41.1407L39.2065 50.9113Z" fill="#E4794A"/>
<path d="M62.8672 131.34L58.0767 152.973L23.0473 156.139L19.8281 137.301L62.8672 131.34Z" fill="#E4794A"/>
<path d="M9.36106 186.814C9.37718 187.124 9.3963 187.431 9.41879 187.741C9.75616 192.223 10.1389 197.393 10.555 203.059C11.2109 212.049 11.9419 222.286 12.683 232.997H86.1572L71.907 190.204C71.907 190.204 66.1534 187.039 69.0825 181.722C72.0115 176.406 66.2479 180.643 66.1961 173.049C66.1444 165.456 60.9778 157.378 60.9778 157.378L60.1292 145.883L59.646 145.893L21.4114 146.529L20.7138 146.542L19.5394 156.412C12.4084 164.888 8.76983 175.757 9.36106 186.814Z" fill="#161616"/>
<path d="M41.0045 61.0707L23.5688 60.1719L15.472 72.9571C15.472 72.9571 0.234783 75.5038 1.29073 93.4431C2.34669 111.382 19.8301 127.124 19.8301 127.124L20.3792 128.27L20.2128 130.351L19.8286 138.439C19.6244 138.765 19.516 139.143 19.5157 139.528C19.5154 139.913 19.6232 140.29 19.8268 140.617C20.0304 140.944 20.3217 141.208 20.6676 141.378C21.0135 141.548 21.4002 141.617 21.7838 141.579C47.5506 137.48 48.4161 144.379 62.5487 137.549V135.183C63.2174 132.749 62.4287 122.783 60.0747 119.299C60.0747 119.299 71.5364 102.094 58.3785 89.1354L53.0991 80.1654L47.1899 72.9627L41.0045 61.0707Z" fill="#6A6AF4"/>
<path d="M36.6647 53.5226C45.7961 53.5226 53.1986 46.1268 53.1986 37.0035C53.1986 27.8802 45.7961 20.4844 36.6647 20.4844C27.5333 20.4844 20.1309 27.8802 20.1309 37.0035C20.1309 46.1268 27.5333 53.5226 36.6647 53.5226Z" fill="#E4794A"/>
<path d="M26.538 62.6699C26.538 62.6699 28.3017 63.9808 29.1245 64.5598C29.7464 62.9621 34.0995 67.83 35.2503 68.36L34.7588 67.775C31.2315 62.5827 40.3598 53.0254 36.8321 47.8399C35.8425 46.3871 40.3126 34.9064 43.7189 34.3884C46.748 33.9311 46.6202 34.8052 49.5553 35.4445C49.8601 34.1745 50.3332 32.9507 50.9621 31.8057C50.7946 33.0815 50.8332 34.3758 51.0764 35.6393C52.12 35.6797 52.9409 35.0153 54.052 34.8457C61.1408 33.763 60.4203 26.1022 58.4478 23.6743C56.4686 21.253 49.8986 20.5283 46.8691 19.7396C46.5932 19.4707 45.9672 19.6389 45.691 19.3831C39.8857 14.0747 32.1214 13.1957 25.1338 15.5484C17.6826 18.0577 13.0367 22.9136 10.6523 30.3998L9.96854 36.3921C9.35491 38.3182 10.1267 47.2811 10.6523 49.2335C12.6941 56.8211 26.538 62.6699 26.538 62.6699Z" fill="#161616"/>
<path d="M0 139.062L0.651114 88.414C0.685058 86.2683 1.56204 84.2219 3.09281 82.7164C4.62357 81.211 6.68539 80.3672 8.83333 80.3672C9.94453 80.3672 11.0441 80.5933 12.065 81.0318C13.0858 81.4702 14.0066 82.1118 14.7712 82.9174C15.5359 83.7229 16.1282 84.6757 16.5123 85.7175C16.8963 86.7593 17.064 87.8683 17.005 88.9769L14.7147 141.569L14.6712 173.584C16.0213 174.156 17.1623 175.13 17.9394 176.372C18.7165 177.615 19.0918 179.066 19.0146 180.529C18.9373 181.992 18.4111 183.396 17.5074 184.55C16.6038 185.704 15.3665 186.552 13.9637 186.979C12.5609 187.405 11.0606 187.39 9.66665 186.936C8.27268 186.481 7.05262 185.608 6.17223 184.437C5.29184 183.265 4.7938 181.851 4.74579 180.387C4.69778 178.922 5.10213 177.479 5.90388 176.252L0 139.062Z" fill="#E4794A"/>
<path d="M298.454 11.0655L117.201 32.8499C117.18 32.8525 117.158 32.8488 117.139 32.8394C117.119 32.8295 117.102 32.815 117.089 32.7971C117.074 32.7768 117.063 32.754 117.055 32.7297C117.047 32.7017 117.043 32.6727 117.043 32.6436C117.043 32.6134 117.047 32.5834 117.055 32.5544C117.063 32.5279 117.075 32.5027 117.09 32.4795C117.103 32.4585 117.12 32.4401 117.14 32.4252C117.158 32.4117 117.179 32.4031 117.202 32.4001L298.454 10.3164C298.511 10.3091 298.568 10.312 298.624 10.325C298.674 10.3368 298.722 10.3585 298.764 10.3887C298.803 10.4171 298.835 10.4539 298.858 10.4966C298.881 10.5401 298.892 10.5886 298.892 10.6378C298.892 10.6896 298.88 10.7408 298.858 10.7876C298.835 10.8364 298.803 10.8807 298.764 10.9183C298.723 10.958 298.676 10.9909 298.624 11.0157C298.571 11.0415 298.513 11.0584 298.454 11.0655Z" fill="#CACACA"/>
<path d="M299.469 145.448L117.849 126.977C117.828 126.975 117.808 126.966 117.791 126.953C117.774 126.939 117.76 126.921 117.751 126.901C117.741 126.877 117.735 126.852 117.733 126.826C117.731 126.797 117.734 126.768 117.74 126.739C117.747 126.71 117.758 126.682 117.772 126.655C117.785 126.631 117.802 126.608 117.822 126.589C117.84 126.571 117.86 126.557 117.883 126.547C117.904 126.538 117.926 126.534 117.949 126.536L299.634 144.714C299.692 144.719 299.747 144.735 299.799 144.76C299.845 144.782 299.887 144.814 299.921 144.852C299.953 144.889 299.977 144.932 299.989 144.978C300.002 145.026 300.003 145.076 299.992 145.124C299.98 145.174 299.957 145.222 299.925 145.263C299.892 145.306 299.851 145.342 299.805 145.37C299.756 145.4 299.703 145.422 299.647 145.434C299.589 145.449 299.529 145.453 299.469 145.448Z" fill="#CACACA"/>
<path d="M120.8 24.1941C121.036 24.1578 121.278 24.1904 121.495 24.2881C121.719 24.3918 121.915 24.5479 122.066 24.7432C122.239 24.9664 122.37 25.2193 122.452 25.4896C122.548 25.802 122.596 26.1272 122.593 26.454C122.594 26.7935 122.546 27.1314 122.452 27.4577C122.366 27.7601 122.236 28.0483 122.066 28.3131C121.915 28.5515 121.722 28.7604 121.495 28.9295C121.292 29.0822 121.052 29.1812 120.8 29.2175C120.564 29.2496 120.324 29.2129 120.108 29.1119C119.887 29.0048 119.694 28.8466 119.546 28.6505C119.376 28.4278 119.248 28.1763 119.168 27.9082C119.074 27.5994 119.027 27.2782 119.029 26.9554C119.029 26.6199 119.076 26.286 119.168 25.9634C119.252 25.6638 119.38 25.3779 119.546 25.1147C119.695 24.8761 119.885 24.6662 120.108 24.4949C120.31 24.3393 120.548 24.2363 120.8 24.1953V24.1941Z" fill="#6A6AF4"/>
<path d="M127.098 23.2498C127.345 23.2118 127.597 23.2444 127.826 23.3438C128.06 23.4476 128.266 23.6063 128.426 23.8064C128.606 24.0332 128.743 24.2916 128.83 24.5685C128.93 24.8875 128.98 25.2202 128.977 25.5546C128.977 25.9024 128.926 26.2484 128.827 26.5819C128.737 26.8918 128.601 27.1867 128.424 27.4568C128.265 27.7019 128.063 27.9162 127.827 28.089C127.613 28.2471 127.363 28.3501 127.099 28.3886C126.853 28.4222 126.602 28.3854 126.376 28.2826C126.145 28.1745 125.943 28.0133 125.787 27.8122C125.61 27.5858 125.476 27.3289 125.391 27.0542C125.293 26.7389 125.244 26.4105 125.246 26.0804C125.246 25.7372 125.295 25.3958 125.391 25.0662C125.479 24.7584 125.613 24.4651 125.786 24.1959C125.943 23.9502 126.142 23.7345 126.375 23.5592C126.587 23.3985 126.836 23.292 127.099 23.2491L127.098 23.2498Z" fill="#242424"/>
<path d="M133.691 22.2629C133.949 22.2227 134.213 22.2549 134.454 22.3558C134.697 22.461 134.912 22.6231 135.079 22.8284C135.268 23.059 135.412 23.3231 135.503 23.607C135.609 23.9327 135.661 24.273 135.659 24.6152C135.659 24.9714 135.606 25.3256 135.503 25.6665C135.408 25.9857 135.265 26.2887 135.079 26.5653C134.912 26.8177 134.7 27.0376 134.454 27.2144C134.228 27.3767 133.966 27.4821 133.691 27.5215C133.433 27.5568 133.171 27.5201 132.933 27.4155C132.692 27.3067 132.481 27.1426 132.316 26.9365C132.132 26.7059 131.992 26.4432 131.904 26.1616C131.802 25.8399 131.751 25.5043 131.754 25.1669C131.753 24.8148 131.804 24.4645 131.904 24.1269C131.997 23.8112 132.136 23.5109 132.316 23.2359C132.481 22.9832 132.69 22.7622 132.933 22.5831C133.157 22.4174 133.417 22.3076 133.691 22.2629Z" fill="#242424"/>
<path d="M288.685 1.48062L277.633 3.07718C277.53 3.09278 277.424 3.08884 277.323 3.06557C277.231 3.04447 277.144 3.00441 277.069 2.94798C276.997 2.89442 276.939 2.82509 276.899 2.74536C276.857 2.66201 276.835 2.57002 276.836 2.47684C276.837 2.37766 276.858 2.2797 276.899 2.18921C276.94 2.09582 276.998 2.01041 277.069 1.93678C277.143 1.86006 277.228 1.79569 277.323 1.74616C277.419 1.69477 277.524 1.6602 277.633 1.64391L288.685 0.0106492C288.793 -0.0062064 288.904 -0.0030296 289.011 0.0200155C289.108 0.0405035 289.199 0.0805292 289.279 0.137612C289.356 0.192849 289.419 0.265994 289.462 0.350785C289.505 0.435576 289.526 0.529489 289.525 0.624483C289.524 0.726792 289.502 0.827784 289.459 0.920725C289.415 1.01799 289.354 1.10673 289.279 1.18288C289.119 1.34513 288.91 1.45094 288.685 1.48437L288.685 1.48062Z" fill="#242424"/>
<path d="M288.685 4.23714L277.633 5.76592C277.529 5.78089 277.424 5.77631 277.323 5.75243C277.231 5.73114 277.145 5.6911 277.069 5.63483C276.997 5.5808 276.939 5.51111 276.899 5.4311C276.856 5.34668 276.835 5.2535 276.836 5.1592C276.837 5.06014 276.858 4.9623 276.899 4.87194C276.94 4.77888 276.998 4.69383 277.069 4.62064C277.143 4.54499 277.228 4.48176 277.323 4.43339C277.42 4.38258 277.524 4.34865 277.633 4.33302L288.685 2.76754C288.793 2.75142 288.904 2.75536 289.011 2.77915C289.108 2.80046 289.199 2.84124 289.279 2.89899C289.354 2.95367 289.416 3.02507 289.459 3.1076C289.503 3.19337 289.526 3.28844 289.525 3.38475C289.524 3.48697 289.502 3.58784 289.459 3.68061C289.414 3.77684 289.353 3.86445 289.278 3.9394C289.118 4.10147 288.909 4.20671 288.683 4.23901L288.685 4.23714Z" fill="#242424"/>
<path d="M288.685 6.99347L277.633 8.45183C277.529 8.46617 277.424 8.46097 277.323 8.43647C277.231 8.41438 277.144 8.37358 277.069 8.31663C276.996 8.26121 276.937 8.18948 276.896 8.10716C276.856 8.02484 276.835 7.93421 276.836 7.84249C276.836 7.74358 276.858 7.64586 276.898 7.55562C276.94 7.46275 276.998 7.37793 277.069 7.30506C277.142 7.22932 277.228 7.16608 277.322 7.11781C277.419 7.06766 277.524 7.03448 277.633 7.01969L288.684 5.52462C288.793 5.50912 288.904 5.51368 289.011 5.5381C289.108 5.56006 289.199 5.60148 289.279 5.65982C289.354 5.71495 289.416 5.78671 289.459 5.86955C289.503 5.95543 289.526 6.05063 289.525 6.14706C289.524 6.24917 289.502 6.34993 289.459 6.44256C289.414 6.53885 289.353 6.62648 289.278 6.70135C289.117 6.86179 288.909 6.96509 288.683 6.99534L288.685 6.99347Z" fill="#242424"/>
<path d="M236.141 32.4471L289.526 27.9297V59.7234L236.141 60.4193V32.4471Z" fill="#6A6AF4"/>
<path d="M277.742 74.0972L246.038 73.4676C245.672 73.4604 245.323 73.3129 245.063 73.0556C244.938 72.9324 244.838 72.7863 244.768 72.6253C244.697 72.4605 244.66 72.2828 244.66 72.1032C244.66 71.9251 244.697 71.7489 244.768 71.5857C244.838 71.4271 244.938 71.2839 245.063 71.1643C245.19 71.0433 245.338 70.948 245.501 70.8834C245.672 70.8158 245.855 70.7825 246.039 70.7853L277.744 71.2025C277.959 71.205 278.172 71.2464 278.372 71.3246C278.561 71.3985 278.736 71.5062 278.886 71.6426C279.031 71.7734 279.15 71.9316 279.234 72.1081C279.318 72.2854 279.361 72.479 279.361 72.6751C279.361 72.8696 279.318 73.0615 279.234 73.2369C279.15 73.4106 279.032 73.5654 278.886 73.6919C278.735 73.8231 278.561 73.9247 278.372 73.9916C278.17 74.0635 277.957 74.0979 277.744 74.093L277.742 74.0972Z" fill="#E4E4E4"/>
<path d="M272.295 69.0981L250.831 68.918C250.642 68.9163 250.455 68.8782 250.28 68.8056C250.113 68.737 249.961 68.6373 249.831 68.512C249.703 68.3889 249.6 68.2421 249.528 68.0798C249.456 67.9139 249.418 67.7347 249.418 67.5535C249.418 67.3722 249.456 67.193 249.528 67.0271C249.6 66.8656 249.703 66.7198 249.831 66.5979C249.961 66.4738 250.113 66.3756 250.28 66.3087C250.455 66.2383 250.643 66.2025 250.831 66.2031L272.295 66.2406C272.504 66.2402 272.712 66.2783 272.907 66.3529C273.092 66.4238 273.262 66.5281 273.409 66.6608C273.55 66.7893 273.665 66.9446 273.746 67.1177C273.828 67.2923 273.87 67.4827 273.87 67.6755C273.87 67.8683 273.828 68.0588 273.746 68.2334C273.665 68.4054 273.55 68.5595 273.409 68.6865C273.262 68.8179 273.092 68.9206 272.907 68.9895C272.711 69.0625 272.504 69.0989 272.295 69.0966V69.0981Z" fill="#E4E4E4"/>
<path d="M236.141 83.3125L289.526 85.7442V117.538L236.141 111.284V83.3125Z" fill="#6A6AF4"/>
<path d="M277.742 130.377L246.037 125.621C245.848 125.591 245.666 125.528 245.499 125.433C245.335 125.341 245.187 125.222 245.061 125.081C244.937 124.942 244.837 124.784 244.766 124.612C244.696 124.443 244.659 124.261 244.658 124.077C244.657 123.903 244.694 123.73 244.766 123.572C244.835 123.424 244.936 123.294 245.061 123.19C245.189 123.084 245.339 123.007 245.499 122.965C245.675 122.919 245.858 122.91 246.037 122.937L277.742 127.481C277.961 127.513 278.174 127.582 278.37 127.685C278.561 127.785 278.735 127.915 278.884 128.07C279.029 128.219 279.147 128.392 279.232 128.582C279.315 128.765 279.358 128.964 279.359 129.165C279.361 129.355 279.317 129.542 279.232 129.712C279.149 129.873 279.03 130.014 278.884 130.122C278.731 130.234 278.556 130.314 278.37 130.355C278.164 130.401 277.951 130.408 277.742 130.375V130.377Z" fill="#E4E4E4"/>
<path d="M272.295 124.669L250.831 121.695C250.638 121.668 250.452 121.606 250.28 121.512C250.112 121.421 249.96 121.301 249.831 121.159C249.704 121.021 249.601 120.862 249.528 120.689C249.456 120.518 249.417 120.334 249.416 120.148C249.415 119.971 249.454 119.796 249.528 119.636C249.599 119.486 249.702 119.352 249.831 119.246C249.962 119.138 250.116 119.06 250.28 119.016C250.46 118.968 250.647 118.956 250.831 118.982L272.295 121.813C272.509 121.841 272.716 121.907 272.907 122.006C273.094 122.102 273.263 122.229 273.409 122.38C273.55 122.526 273.664 122.696 273.746 122.881C273.827 123.062 273.869 123.257 273.87 123.455C273.872 123.643 273.829 123.828 273.746 123.996C273.666 124.157 273.551 124.296 273.409 124.405C273.26 124.519 273.089 124.599 272.907 124.643C272.707 124.691 272.499 124.7 272.295 124.671V124.669Z" fill="#E4E4E4"/>
<path d="M205.13 111.525L121.195 100.788C120.967 100.755 120.75 100.666 120.565 100.528C120.362 100.376 120.188 100.189 120.053 99.9757C119.901 99.739 119.785 99.4813 119.708 99.2109C119.624 98.9186 119.582 98.6161 119.582 98.3121V45.3526C119.582 45.0501 119.624 44.7491 119.708 44.4586C119.784 44.1929 119.901 43.9403 120.053 43.7096C120.188 43.5022 120.362 43.3227 120.565 43.1807C120.751 43.0505 120.968 42.9709 121.195 42.9497L205.13 36.0833C205.489 36.0524 205.851 36.1006 206.19 36.2245C206.529 36.3484 206.836 36.545 207.091 36.8005C207.35 37.0589 207.554 37.3668 207.691 37.7057C207.838 38.0713 207.913 38.462 207.912 38.8562V108.879C207.914 109.27 207.839 109.657 207.691 110.019C207.555 110.35 207.35 110.65 207.091 110.897C206.839 111.137 206.537 111.317 206.207 111.426C205.86 111.539 205.492 111.572 205.13 111.525Z" fill="white"/>
<path d="M171.942 72.4734C171.717 72.1809 171.463 71.9115 171.185 71.6693C170.919 71.4388 170.63 71.237 170.322 71.0675C170.026 70.904 169.711 70.7747 169.385 70.6821C169.065 70.5911 168.735 70.5388 168.402 70.5263C168.073 70.514 167.744 70.5417 167.421 70.6087C167.1 70.6758 166.788 70.7804 166.491 70.9203C166.188 71.0628 165.902 71.2387 165.638 71.4446C165.363 71.6599 165.112 71.9034 164.888 72.1711L142.304 99.1363C142.043 99.4559 141.708 99.7078 141.329 99.8707C140.982 100.016 140.603 100.069 140.229 100.025C139.838 99.9764 139.464 99.8379 139.136 99.6205C138.76 99.3705 138.435 99.0503 138.181 98.6775L135.189 94.3803C134.845 93.871 134.404 93.4345 133.89 93.0957C133.452 92.8066 132.951 92.6268 132.429 92.5714C131.933 92.5239 131.433 92.6082 130.98 92.8159C130.484 93.0498 130.052 93.3988 129.719 93.8339L124.307 100.697L199.97 110.241V108.898L171.942 72.4734Z" fill="#6A6AF4"/>
<path d="M205.13 112.538L121.195 101.565C120.889 101.52 120.599 101.4 120.351 101.214C120.08 101.011 119.847 100.76 119.666 100.473C119.464 100.156 119.309 99.8108 119.206 99.4489C119.094 99.058 119.037 98.6533 119.037 98.2467V45.3935C119.037 44.9895 119.094 44.5874 119.206 44.1992C119.308 43.8437 119.463 43.5056 119.666 43.1966C119.847 42.9186 120.079 42.6777 120.351 42.4869C120.6 42.3118 120.891 42.2043 121.194 42.175L205.129 35.0715C205.612 35.0288 206.097 35.0923 206.553 35.2577C207.008 35.423 207.421 35.6861 207.763 36.0284C208.111 36.3749 208.385 36.788 208.57 37.243C208.768 37.7342 208.869 38.2592 208.867 38.789V108.994C208.87 109.519 208.769 110.04 208.57 110.526C208.387 110.971 208.112 111.372 207.763 111.704C207.424 112.025 207.018 112.266 206.574 112.411C206.108 112.561 205.614 112.604 205.129 112.539L205.13 112.538ZM121.195 43.7292C121.046 43.7423 120.902 43.794 120.779 43.879C120.645 43.9726 120.531 44.0909 120.442 44.2277C120.341 44.3798 120.264 44.5464 120.214 44.7217C120.158 44.9134 120.13 45.1122 120.13 45.3119V98.377C120.13 98.5778 120.158 98.7776 120.213 98.9706C120.264 99.1493 120.341 99.3195 120.441 99.4758C120.53 99.6174 120.645 99.7415 120.779 99.8417C120.901 99.9325 121.044 99.9911 121.194 100.012L205.129 110.511C205.368 110.542 205.61 110.519 205.839 110.445C206.057 110.372 206.255 110.253 206.421 110.094C206.591 109.931 206.725 109.734 206.815 109.516C206.911 109.278 206.961 109.024 206.96 108.767V38.929C206.961 38.6696 206.911 38.4125 206.815 38.1718C206.725 37.9486 206.591 37.7457 206.421 37.5752C206.253 37.4064 206.051 37.2764 205.828 37.1942C205.605 37.1119 205.367 37.0795 205.13 37.0991L121.195 43.7292Z" fill="#CBCBCB"/>
<path d="M137.661 65.9617C140.337 65.9617 142.506 63.7947 142.506 61.1215C142.506 58.4483 140.337 56.2812 137.661 56.2812C134.985 56.2812 132.816 58.4483 132.816 61.1215C132.816 63.7947 134.985 65.9617 137.661 65.9617Z" fill="#2F2E41"/>
</g>
<defs>
<clipPath id="clip0_22284_2764">
<rect width="300" height="233" fill="white"/>
</clipPath>
</defs>
</svg>
