<svg width="166" height="166" fill="none" xmlns="http://www.w3.org/2000/svg"><path fill-rule="evenodd" clip-rule="evenodd" d="M37.225 56.637c0-24.441 20.631-44.465 45.128-44.465 24.496 0 45.127 20.024 45.127 44.465 0 11.191-3.491 21.084-9.712 29.023l-35.415 42.718-15.391-18.564a6.085 6.085 0 00-8.57-.801 6.085 6.085 0 00-.8 8.569l20.075 24.216a6.085 6.085 0 009.371 0l25.25-30.456a29.607 29.607 0 001.37 3.137c2.337 4.461 5.489 7.967 9.455 10.517 3.965 2.478 8.392 3.718 13.278 3.718 3.329 0 6.48-.709 9.455-2.125 3.045-1.487 5.453-3.258 7.224-5.311.07 1.841.672 3.363 1.805 4.567 1.204 1.204 2.727 1.806 4.568 1.806 1.842 0 3.364-.602 4.568-1.806 1.204-1.274 1.806-2.832 1.806-4.674V76.236c0-1.913-.602-3.47-1.806-4.674-1.204-1.204-2.726-1.806-4.568-1.806-1.841 0-3.364.637-4.568 1.912-1.203 1.204-1.805 2.726-1.805 4.568v.106c-2.054-1.912-4.568-3.47-7.543-4.674a23.571 23.571 0 00-7.266-1.813 62.35 62.35 0 001.391-13.218C139.652 25.24 113.337 0 82.352 0c-30.984 0-57.3 25.241-57.3 56.637a6.086 6.086 0 1012.173 0zm85.25 42.65l.001-.235 4.714-5.686a56.975 56.975 0 007.065-11.499 15.803 15.803 0 013.73-.426c4.603 0 8.357 1.7 11.26 5.1 2.904 3.398 4.356 7.648 4.356 12.747s-1.452 9.348-4.356 12.747c-2.903 3.329-6.657 4.993-11.26 4.993-4.604 0-8.357-1.664-11.261-4.993-2.832-3.399-4.249-7.648-4.249-12.747z" fill="#000091"/><path fill-rule="evenodd" clip-rule="evenodd" d="M52.16 102.05c1.274-1.063 1.947-2.444 2.018-4.143 0-5.028-1.24-9.703-3.718-14.023-2.48-4.32-5.808-7.755-9.986-10.304-4.108-2.55-8.499-3.824-13.173-3.824-4.745 0-9.206 1.239-13.385 3.718-4.178 2.408-7.542 5.913-10.092 10.516C1.274 88.594 0 93.94 0 100.031c0 5.454 1.204 10.376 3.612 14.766 2.408 4.32 5.807 7.72 10.198 10.199 4.462 2.478 9.667 3.718 15.616 3.718 3.4 0 6.763-.567 10.092-1.7 3.328-1.133 5.984-2.514 7.967-4.143 1.983-1.558 2.975-3.293 2.975-5.205 0-1.417-.532-2.656-1.594-3.718-1.062-1.063-2.337-1.594-3.824-1.594-1.133 0-2.337.319-3.612.956-.354.213-1.027.638-2.018 1.275-.921.567-2.196 1.133-3.825 1.7-1.629.495-3.895.743-6.799.743-3.824 0-7.259-1.168-10.304-3.505-3.045-2.408-4.993-5.701-5.843-9.88h35.057c1.7 0 3.187-.531 4.461-1.593zm-39.412-9.03c1.487-7.72 6.338-11.579 14.553-11.579 3.329 0 6.303 1.062 8.924 3.187 2.62 2.124 4.072 4.674 4.355 7.648v.744H12.748z" fill="#000091"/></svg>
