<svg width="108" height="92" viewBox="0 0 108 92" fill="none" xmlns="http://www.w3.org/2000/svg">
<circle cx="18.373" cy="47.9704" r="1.06731" fill="#D9D9D9"/>
<path d="M27.7097 48.9032L53.7537 34.2535C57.3697 32.2195 57.4423 27.039 53.8847 24.9044C52.219 23.9049 50.1451 23.8759 48.452 24.8282L17.0366 42.4994V84.641C17.0366 85.3843 17.8189 85.8678 18.4838 85.5354L21.3059 84.1244L26.0026 88.8211C26.6326 89.4511 27.7097 89.0049 27.7097 88.114V48.9032Z" fill="#1E416A"/>
<path fill-rule="evenodd" clip-rule="evenodd" d="M105.188 33.0281L53.5942 2.27002L2 33.0281L17.4742 42.2532L17.0366 42.4993V44.3206L0.975871 34.746C-0.32529 33.9703 -0.325291 32.0859 0.975871 31.3102L52.5701 0.552125C53.2011 0.175984 53.9874 0.175984 54.6184 0.552126L106.213 31.3102C107.514 32.0859 107.514 33.9703 106.213 34.746L85.6137 47.026V70.3839C85.6136 82.173 71.2781 91.73 53.5944 91.73C42.9578 91.73 33.5326 88.2724 27.7097 82.9511V80.1305C28.9176 81.4517 30.3753 82.6887 32.0628 83.8137C37.4856 87.4289 45.0923 89.73 53.5944 89.73C62.0965 89.73 69.7032 87.4289 75.126 83.8137C80.5628 80.1892 83.6136 75.4016 83.6137 70.3839V48.2183L54.6184 65.5041C53.9874 65.8803 53.2011 65.8803 52.5701 65.5041L27.7097 50.6834V48.9032L28.1828 48.6371L53.5942 63.7862L105.188 33.0281Z" fill="#1E416A"/>
</svg>
