<svg width="64" height="64" fill="none" xmlns="http://www.w3.org/2000/svg">
  <rect x="19.2" y="32" width="12.8" height="12.8" rx="2" transform="rotate(-90 19.2 32)"/>
  <path fill-rule="evenodd" clip-rule="evenodd" d="M41.044 45.673a25.375 25.375 0 0 1-15.558 5.298C11.41 50.971 0 39.561 0 25.486 0 11.41 11.41 0 25.486 0 39.56 0 50.97 11.41 50.97 25.486a25.375 25.375 0 0 1-5.298 15.558c.367.168.711.403 1.014.706l16.29 16.29a3.49 3.49 0 1 1-4.936 4.938L41.75 46.686a3.485 3.485 0 0 1-.706-1.014Zm2.946-20.187c0 10.22-8.285 18.504-18.504 18.504-10.22 0-18.504-8.285-18.504-18.504 0-10.22 8.284-18.504 18.504-18.504S43.99 15.266 43.99 25.486Z"/>
</svg>
