<svg width="9" height="14" viewBox="0 0 9 14" fill="none" xmlns="http://www.w3.org/2000/svg"><path d="M2.313 7.735c0-.316.103-.578.31-.784a1.03 1.03 0 01.783-.329c.8 0 1.444-.188 1.93-.565.486-.377.729-.961.729-1.752 0-.608-.219-1.112-.656-1.514-.437-.401-.983-.602-1.64-.602a2.59 2.59 0 00-1.766.675c-.291.268-.595.402-.91.402a.964.964 0 01-.62-.22C.159 2.804 0 2.519 0 2.19c0-.28.115-.535.346-.766.437-.45.947-.797 1.53-1.04A4.75 4.75 0 013.77 0c.825 0 1.578.189 2.258.566.68.377 1.22.9 1.621 1.568.4.657.601 1.38.601 2.171 0 1.168-.334 2.092-1.002 2.773-.667.681-1.554 1.107-2.659 1.277-.06.025-.09.055-.09.092v.675c0 .316-.104.583-.31.802a1.06 1.06 0 01-.783.31 1.06 1.06 0 01-.783-.31 1.127 1.127 0 01-.31-.802V7.735zM3.315 13.5c-.353 0-.626-.091-.82-.274-.182-.194-.273-.468-.273-.82v-.31c0-.353.09-.621.273-.803.194-.195.467-.292.82-.292h.236c.352 0 .62.097.802.292.194.182.291.45.291.802v.31c0 .353-.097.627-.291.821-.182.183-.45.274-.802.274h-.236z" fill="#FBF9FA"/></svg>
