<svg width="290" height="290" fill="none" xmlns="http://www.w3.org/2000/svg">
  <mask id="a" style="mask-type:alpha" maskUnits="userSpaceOnUse" x="0" y="0" width="290" height="290">
    <circle cx="145" cy="145" r="145" fill="#D9D9D9"/>
  </mask>
  <g mask="url(#a)">
    <path d="M0 214.953s56.151-10.587 145.214-10.587c89.062 0 144.786-12.852 144.786-12.852V291H0v-76.047Z" fill="#666666"/>
    <path fill-rule="evenodd" clip-rule="evenodd" d="M0 158.181v60.753s36.117 13.972 85 16.32c22.557 1.083 43.355 4.165 63.635 7.17 23.667 3.506 46.631 6.909 70.865 6.909 45 0 70.5 13.155 70.5 13.155V140.125l-246.878 6.758H18.895C3.265 151.495 0 158.181 0 158.181Z" fill="#FB926B"/>
    <path d="M290 29.018h-43.122L0 20.764v182.055s7.779-15.281 56.792-14.938c49.013.343 93.268-17.409 154.591-21.006C272.706 163.279 290 139.528 290 139.528V29.018Z" fill="#9ADBD0"/>
    <path d="M290-1H0v60.774S7.779 49.193 56.792 49.43c49.013.237 93.268-15.257 154.591-17.747 61.323-2.49 78.617 4.39 78.617 4.39V-1Z" fill="#C1C1FB"/>
    <path fill-rule="evenodd" clip-rule="evenodd" d="M61.435 145.083c-.84.702-2.392 1.852-4.219 2.515-2.76 1.002-5.554.678-5.554.678s-2.67-.593-5.626.481c-1.925.698-3.387 1.891-4.173 2.638l6.725 18.522c.237.653.959.991 1.612.754l16.952-6.155a1.26 1.26 0 0 0 .754-1.612l-6.47-17.821Zm-21.684-3.191a3.354 3.354 0 0 0-2.008 4.298l8.874 24.443a3.356 3.356 0 0 0 4.299 2.009l16.952-6.155a3.355 3.355 0 0 0 2.009-4.299l-8.874-24.442a3.355 3.355 0 0 0-4.3-2.009l-16.952 6.155Zm6.91 12.885a1.048 1.048 0 1 0 .715 1.971l12.616-4.58a1.049 1.049 0 0 0-.716-1.971l-12.616 4.58Zm1.145 3.154a1.048 1.048 0 1 0 .716 1.971l8.673-3.149a1.048 1.048 0 1 0-.716-1.971l-8.673 3.149Zm.518 4.497a1.048 1.048 0 0 1 .628-1.343l6.701-2.434a1.05 1.05 0 0 1 .716 1.971l-6.702 2.434a1.05 1.05 0 0 1-1.343-.628Zm1.629 1.416a1.05 1.05 0 0 0 .715 1.972l6.702-2.434a1.048 1.048 0 1 0-.715-1.971l-6.702 2.433Zm-47.122-4.242c-.695-.124-1.905-.413-2.989-1.038-1.639-.946-2.638-2.46-2.638-2.46s-.814-1.562-2.57-2.576c-1.143-.66-2.338-.887-3.033-.964l-6.35 10.997a.811.811 0 0 0 .298 1.108l10.065 5.812a.812.812 0 0 0 1.108-.297l6.11-10.582Zm-7.416-12.021a2.162 2.162 0 0 0-2.954.791l-8.38 14.514a2.163 2.163 0 0 0 .792 2.954l10.066 5.811a2.163 2.163 0 0 0 2.954-.791l8.379-14.514a2.163 2.163 0 0 0-.791-2.954l-10.066-5.811Zm-3.492 8.751a.676.676 0 0 0-.676 1.171l7.491 4.324a.675.675 0 1 0 .676-1.17l-7.49-4.325Zm-1.083 1.873a.675.675 0 1 0-.676 1.17l5.15 2.974a.677.677 0 0 0 .676-1.171l-5.15-2.973Zm-2.002 2.12a.675.675 0 0 1 .923-.247l3.98 2.297a.676.676 0 0 1-.677 1.171l-3.98-2.298a.676.676 0 0 1-.246-.923Zm-.025 1.392a.675.675 0 1 0-.675 1.17l3.98 2.298a.676.676 0 0 0 .675-1.171l-3.98-2.297Zm167.774-21.713c-1.393.327-3.878.762-6.399.468-3.81-.444-6.885-2.458-6.885-2.458s-2.772-2.254-6.854-2.73c-2.658-.31-5.064.228-6.419.641l-2.983 25.571a1.644 1.644 0 0 0 1.443 1.823l23.404 2.73a1.644 1.644 0 0 0 1.823-1.443l2.87-24.602Zm-23.463-16.418a4.384 4.384 0 0 0-4.862 3.847l-3.936 33.745a4.385 4.385 0 0 0 3.846 4.863l23.405 2.729a4.383 4.383 0 0 0 4.862-3.846l3.936-33.746a4.384 4.384 0 0 0-3.847-4.862l-23.404-2.73Zm.531 19.095a1.37 1.37 0 0 0-.317 2.722l17.417 2.031a1.37 1.37 0 1 0 .318-2.721l-17.418-2.032Zm-.507 4.355a1.37 1.37 0 1 0-.318 2.721l11.975 1.397a1.37 1.37 0 0 0 .317-2.722l-11.974-1.396Zm-2.027 5.556a1.37 1.37 0 0 1 1.519-1.202l9.253 1.079a1.37 1.37 0 0 1-.317 2.722l-9.253-1.08a1.368 1.368 0 0 1-1.202-1.519Zm1.074 2.608a1.37 1.37 0 1 0-.317 2.721l9.253 1.08a1.37 1.37 0 0 0 .317-2.722l-9.253-1.079Zm147.35-21.844c-2.392.68-6.67 1.633-11.068 1.324-6.647-.467-12.145-3.716-12.145-3.716s-4.99-3.69-12.112-4.19c-4.638-.326-8.771.8-11.09 1.625l-3.133 44.616a2.857 2.857 0 0 0 2.649 3.049l40.835 2.867a2.855 2.855 0 0 0 3.049-2.649l3.015-42.926Zm-42.031-26.617a7.615 7.615 0 0 0-8.13 7.064l-4.135 58.878a7.616 7.616 0 0 0 7.064 8.131l40.835 2.867a7.616 7.616 0 0 0 8.131-7.063l4.134-58.879a7.616 7.616 0 0 0-7.064-8.131l-40.835-2.867Zm2.448 33.096a2.38 2.38 0 0 0-.333 4.749l30.389 2.134a2.381 2.381 0 0 0 .333-4.749l-30.389-2.134Zm-.533 7.597a2.38 2.38 0 0 0-.334 4.749l20.893 1.467a2.38 2.38 0 1 0 .333-4.748l-20.892-1.468Zm-3.075 9.805a2.38 2.38 0 0 1 2.541-2.207l16.144 1.133a2.38 2.38 0 0 1-.333 4.749l-16.145-1.134a2.38 2.38 0 0 1-2.207-2.541Zm2.073 4.44a2.381 2.381 0 0 0-.333 4.749l16.144 1.133a2.38 2.38 0 1 0 .333-4.748l-16.144-1.134Z" fill="#fff"/>
    <path fill-rule="evenodd" clip-rule="evenodd" d="M167.71 179.145a41.629 41.629 0 0 1-25.525 8.693c-23.093 0-41.813-18.72-41.813-41.813 0-23.092 18.72-41.812 41.813-41.812 23.092 0 41.812 18.72 41.812 41.812a41.635 41.635 0 0 1-8.692 25.526 5.733 5.733 0 0 1 1.662 1.157l26.728 26.728a5.728 5.728 0 0 1-8.1 8.099l-26.727-26.727a5.708 5.708 0 0 1-1.158-1.663Zm4.833-33.12c0 16.767-13.592 30.358-30.358 30.358-16.767 0-30.358-13.591-30.358-30.358 0-16.766 13.591-30.358 30.358-30.358 16.766 0 30.358 13.592 30.358 30.358Z" fill="#FBF9FA"/>
  </g>
</svg>
