
<svg width="32" height="32" viewBox="0 0 32 32" fill="none" xmlns="http://www.w3.org/2000/svg">
<circle cx="16" cy="16" r="16" fill="#000091"/>
<path d="M17.1968 22.78C17.1968 23.1267 17.0835 23.42 16.8568 23.66C16.6301 23.8867 16.3435 24 15.9968 24C15.6501 24 15.3635 23.8867 15.1368 23.66C14.9101 23.42 14.7968 23.1267 14.7968 22.78V14.52C14.7968 14.1733 14.9101 13.8867 15.1368 13.66C15.3635 13.42 15.6501 13.3 15.9968 13.3C16.3435 13.3 16.6301 13.42 16.8568 13.66C17.0835 13.8867 17.1968 14.1733 17.1968 14.52V22.78ZM15.9768 12C15.5235 12 15.2035 11.9267 15.0168 11.78C14.8301 11.6333 14.7368 11.3733 14.7368 11V10.62C14.7368 10.2333 14.8368 9.97333 15.0368 9.84C15.2501 9.69333 15.5701 9.62 15.9968 9.62C16.4635 9.62 16.7901 9.69333 16.9768 9.84C17.1635 9.98666 17.2568 10.2467 17.2568 10.62V11C17.2568 11.3867 17.1568 11.6533 16.9568 11.8C16.7568 11.9333 16.4301 12 15.9768 12Z" fill="white"/>
</svg>
