<svg width="210" height="6" viewBox="0 0 210 6" fill="none" xmlns="http://www.w3.org/2000/svg">
<path d="M0 3C0 1.34315 1.34315 0 3 0H70V6H3C1.34315 6 0 4.65685 0 3V3Z" fill="#D6DAEC"/>
<path d="M140 0H207C208.657 0 210 1.34315 210 3V3C210 4.65685 208.657 6 207 6H140V0Z" fill="#1E416A"/>
<rect x="70" width="70" height="6" fill="#7B83B0"/>
<rect x="33" y="1" width="4" height="4" rx="2" fill="white"/>
<rect x="138" y="1" width="4" height="4" rx="2" fill="white"/>
<rect x="173" y="1" width="4" height="4" rx="2" fill="white"/>
<rect x="68" y="1" width="4" height="4" rx="2" fill="white"/>
<rect x="103" y="1" width="4" height="4" rx="2" fill="white"/>
</svg>
