<svg width="345" height="11" fill="none" xmlns="http://www.w3.org/2000/svg">
  <path d="M0 5.5A5.5 5.5 0 0 1 5.5 0H117v11H5.5A5.5 5.5 0 0 1 0 5.5Z" fill="#FDDFD8"/>
  <path d="M229 0h110.5a5.5 5.5 0 1 1 0 11H229V0Z" fill="#FB926B"/>
  <path fill="#FCC0B0" d="M117 0h112v11H117z"/>
  <rect x="58" y="3" width="6" height="6" rx="3" fill="#fff"/>
  <rect x="226" y="3" width="6" height="6" rx="3" fill="#fff"/>
  <rect x="282" y="3" width="6" height="6" rx="3" fill="#fff"/>
  <rect x="114" y="3" width="6" height="6" rx="3" fill="#fff"/>
  <rect x="170" y="3" width="6" height="6" rx="3" fill="#fff"/>
</svg>
