<svg width="24" height="24" viewBox="0 0 24 24" fill="none" xmlns="http://www.w3.org/2000/svg">
<path d="M24 12C24 18.6274 18.6274 24 12 24C5.37258 24 0 18.6274 0 12C0 5.37258 5.37258 0 12 0C18.6274 0 24 5.37258 24 12Z" fill="#000091"/>
<path fill-rule="evenodd" clip-rule="evenodd" d="M10.9458 11.6528L8.18426 14.3343C7.30304 15.19 7.30304 16.5773 8.18426 17.433C9.06547 18.2887 10.4942 18.2887 11.3754 17.433L14.1369 14.7515C15.0181 13.8958 15.0181 12.5085 14.1369 11.6528C13.2557 10.7971 11.827 10.7971 10.9458 11.6528ZM7.10813 13.2893C5.63258 14.7221 5.63258 17.0452 7.10813 18.478C8.58367 19.9108 10.976 19.9108 12.4516 18.478L15.2131 15.7965C16.6886 14.3636 16.6886 12.0406 15.2131 10.6078C13.7375 9.175 11.3452 9.175 9.86962 10.6078L7.10813 13.2893Z" fill="#FBF9FA"/>
<path fill-rule="evenodd" clip-rule="evenodd" d="M12.6263 6.61957L9.8648 9.30107C8.98358 10.1568 8.98358 11.5441 9.8648 12.3998C10.746 13.2555 12.1747 13.2555 13.056 12.3998L15.8175 9.71829C16.6987 8.8626 16.6987 7.47525 15.8175 6.61956C14.9362 5.76387 13.5075 5.76387 12.6263 6.61957ZM8.78867 8.25611C7.31312 9.68892 7.31312 12.012 8.78867 13.4448C10.2642 14.8776 12.6565 14.8776 14.1321 13.4448L16.8936 10.7633C18.3691 9.33045 18.3691 7.00741 16.8936 5.5746C15.418 4.1418 13.0257 4.1418 11.5502 5.57461L8.78867 8.25611Z" fill="#FBF9FA"/>
</svg>
