<svg width="16" height="16" fill="none" xmlns="http://www.w3.org/2000/svg"><circle cx="8" cy="8" r="8" fill="#6E84FE"/><path fill-rule="evenodd" clip-rule="evenodd" d="M7.297 7.769l-1.84 1.787a1.431 1.431 0 000 2.066c.587.57 1.54.57 2.127 0l1.84-1.787a1.431 1.431 0 000-2.066 1.536 1.536 0 00-2.127 0zM4.74 8.859a2.396 2.396 0 000 3.46 2.572 2.572 0 003.562 0l1.841-1.788a2.396 2.396 0 000-3.459 2.572 2.572 0 00-3.562 0L4.739 8.86z" fill="#FBF9FA"/><path fill-rule="evenodd" clip-rule="evenodd" d="M8.418 4.413L6.577 6.201a1.431 1.431 0 000 2.066c.587.57 1.54.57 2.127 0l1.841-1.788a1.431 1.431 0 000-2.066 1.536 1.536 0 00-2.127 0zM5.859 5.504a2.396 2.396 0 000 3.46 2.572 2.572 0 003.562 0l1.841-1.788a2.396 2.396 0 000-3.46 2.572 2.572 0 00-3.562 0L5.86 5.504z" fill="#FBF9FA"/></svg>