<svg width="48" height="48" fill="none" xmlns="http://www.w3.org/2000/svg"><circle cx="24" cy="24" r="24" fill="#000091"/><path fill-rule="evenodd" clip-rule="evenodd" d="M12.75 14.805v17.14l11.25 2.5 11.25-2.5v-17.14l-10.436 2.32a3.752 3.752 0 01-1.628 0l-10.436-2.32zm10.925.123a1.5 1.5 0 00.65 0l11.35-2.522A1.5 1.5 0 0137.5 13.87v18.677a1.5 1.5 0 01-1.175 1.464l-12 2.667a1.5 1.5 0 01-.65 0l-12-2.667a1.5 1.5 0 01-1.175-1.464V13.87a1.5 1.5 0 011.825-1.464l11.35 2.522z" fill="#fff"/><path fill-rule="evenodd" clip-rule="evenodd" d="M34.091 17.727a1.125 1.125 0 01-.818 1.364l-6 1.5a1.125 1.125 0 11-.546-2.182l6-1.5a1.125 1.125 0 011.364.818zM34.091 21.477a1.125 1.125 0 01-.818 1.364l-6 1.5a1.125 1.125 0 11-.546-2.182l6-1.5a1.125 1.125 0 011.364.818zM31.091 25.977a1.125 1.125 0 01-.818 1.364l-3 .75a1.125 1.125 0 11-.546-2.182l3-.75a1.125 1.125 0 011.364.818zM16.5 19.22v5.24l3 .571v-5.24l-3-.572zm-.47-2.38a1.5 1.5 0 00-1.78 1.473v6.767a1.5 1.5 0 001.22 1.474l4.5.857a1.5 1.5 0 001.78-1.474V19.17a1.5 1.5 0 00-1.22-1.474l-4.5-.857z" fill="#fff"/></svg>