<svg width="139" height="115" viewBox="0 0 139 115" fill="none" xmlns="http://www.w3.org/2000/svg">
<path d="M44.7428 11.917H11.9316V23.8341H44.7428V11.917Z" fill="white"/>
<path fill-rule="evenodd" clip-rule="evenodd" d="M25.4963 22.4284C25.6243 22.3005 25.7536 22.1631 25.8821 22.0253C26.1117 21.7525 26.3629 21.4964 26.6313 21.2587C26.709 21.1884 26.7909 21.123 26.8768 21.0629C26.8881 21.0517 26.8938 21.0348 26.8994 21.0179C26.905 21.001 26.9107 20.9841 26.9219 20.9729C26.8656 20.9954 26.8205 21.0292 26.7754 21.0629C26.7303 21.0967 26.6852 21.1305 26.6288 21.153C26.6063 21.153 26.5837 21.1305 26.6063 21.108L26.8472 20.9275C26.8422 20.9278 26.837 20.9278 26.8317 20.9278C26.8092 20.9278 26.8092 20.9053 26.8092 20.8828C26.5185 20.8381 26.2945 21.037 26.0928 21.216L26.0877 21.2206C26.0576 21.2356 26.0276 21.2206 26.0042 21.2089C25.9925 21.203 25.9825 21.198 25.975 21.198C25.7978 21.2571 25.6453 21.3656 25.4917 21.4749C25.3521 21.5743 25.2116 21.6742 25.0507 21.7385V21.6935C24.9946 21.7121 24.9392 21.7371 24.8836 21.7621C24.8051 21.7975 24.7263 21.833 24.6448 21.8511C24.4922 21.8849 24.3524 21.8806 24.2157 21.8764C24.1707 21.875 24.1258 21.8736 24.0811 21.8736C23.8054 21.9071 23.5317 21.9558 23.2613 22.0194L23.2495 22.0223L23.2442 22.0236L23.2378 22.0253C23.0915 22.0647 22.9505 22.1214 22.8177 22.1943C22.8124 22.1971 22.8073 22.2001 22.8023 22.2032C22.7911 22.2173 22.78 22.2308 22.7696 22.2422C22.7271 22.2965 22.6746 22.3422 22.615 22.3769C22.517 22.4267 22.4316 22.5028 22.3467 22.5782C22.3117 22.6094 22.2768 22.6405 22.2411 22.6696C22.2305 22.6769 22.2179 22.6809 22.205 22.681C22.1678 22.7166 22.1308 22.7524 22.0938 22.7881C22.0104 22.8686 21.9269 22.9494 21.8419 23.0281C21.8204 23.0381 21.7963 23.0409 21.7731 23.0364C21.7793 23.0271 21.7837 23.02 21.788 23.0129C21.807 22.9811 21.8262 22.9494 21.8457 22.9179C21.8676 22.8827 21.8898 22.8478 21.9126 22.8133C21.9433 22.7667 21.975 22.7207 22.0086 22.6762C22.0164 22.6678 22.0161 22.6547 22.0078 22.6467C21.9993 22.6386 21.988 22.6344 21.9763 22.6349C22.0916 22.5271 22.2185 22.4325 22.3547 22.3528C22.3397 22.3542 22.3178 22.3421 22.3292 22.3263C22.3376 22.3146 22.3449 22.3025 22.3522 22.2903C22.3574 22.2818 22.3625 22.2733 22.3681 22.2649C22.3707 22.2582 22.373 22.2515 22.3753 22.2448C22.3718 22.241 22.3683 22.2374 22.3648 22.2337L22.3583 22.2271C22.3211 22.2491 22.2857 22.2738 22.2523 22.301C22.236 22.3157 22.2207 22.3351 22.2051 22.3549C22.1691 22.4006 22.1313 22.4486 22.0743 22.448C22.0627 22.4478 22.0512 22.4461 22.0401 22.4431C22.0318 22.4419 22.0237 22.4392 22.0164 22.435L22.0193 22.4298L22.0227 22.4235L22.026 22.4177L22.0367 22.3983L22.0425 22.3879L22.0474 22.3789L22.0561 22.3633C22.0615 22.3537 22.0666 22.3444 22.0721 22.3347L22.0766 22.3268L22.0791 22.3226L22.0839 22.3144C22.0906 22.3027 22.0974 22.2912 22.1042 22.2797L22.113 22.2647L22.1269 22.2408L22.1368 22.2238L22.1439 22.2116L22.1509 22.1998C22.1555 22.1925 22.1563 22.1833 22.1529 22.1753C22.1495 22.1673 22.1425 22.1614 22.1339 22.1596C22.1759 22.1049 22.2284 22.0592 22.2883 22.0252H22.2815C22.3409 21.9953 22.4004 21.961 22.4598 21.9267C22.4866 21.9112 22.5137 21.8956 22.5404 21.8805C22.5488 21.8734 22.5569 21.8663 22.5651 21.8592L22.5777 21.8483C22.4508 21.8912 22.3302 21.9507 22.2188 22.0251C22.2055 22.0304 22.1928 22.0373 22.1811 22.0457C22.1599 22.0503 22.138 22.0422 22.1248 22.0251C22.1212 22.0204 22.1193 22.0145 22.1194 22.0086C22.1326 21.9824 22.161 21.9637 22.1914 21.9439C22.2132 21.9296 22.2359 21.9147 22.2547 21.896C22.2772 21.896 22.2997 21.896 22.2997 21.9185C22.7475 21.5691 23.2992 21.4886 23.8529 21.4079C24.1915 21.3586 24.5309 21.309 24.8475 21.1978L25.0504 21.0628C25.1084 21.0396 25.1604 20.9985 25.2156 20.955C25.2678 20.9138 25.3228 20.8704 25.3885 20.8375C25.5707 20.7126 25.7057 20.5303 25.7718 20.3197C25.7694 20.3026 25.7615 20.2867 25.7493 20.2746C25.4659 20.5797 25.13 20.8315 24.7573 21.0177C24.4159 21.1964 24.051 21.2228 23.6881 21.249C23.5477 21.2591 23.4076 21.2692 23.2692 21.2882C23.2918 21.2432 23.3369 21.2432 23.382 21.2432C23.382 21.1897 23.4102 21.1644 23.4443 21.1339C23.4533 21.1259 23.4627 21.1175 23.4722 21.1081H23.5399C23.5511 21.1081 23.5567 21.0968 23.5623 21.0855C23.568 21.0743 23.5736 21.063 23.5849 21.063C23.63 21.063 23.6977 21.0405 23.6751 21.0405C23.6407 20.9947 23.589 21.0128 23.5315 21.033C23.4759 21.0524 23.4149 21.0737 23.3595 21.0405C23.3812 21.0187 23.3872 20.9917 23.3927 20.967C23.3985 20.9407 23.4037 20.917 23.4271 20.9054H23.5173C23.522 20.8713 23.5378 20.8396 23.5624 20.8153C23.7632 20.6949 23.9562 20.5904 24.1459 20.4877C24.2756 20.4174 24.4038 20.348 24.532 20.2748C24.5058 20.2748 24.483 20.2849 24.4609 20.2948C24.426 20.3103 24.3931 20.325 24.3517 20.2974C24.3742 20.2974 24.3742 20.2805 24.3742 20.2636C24.3742 20.2467 24.3742 20.2298 24.3968 20.2298C24.5387 20.1912 24.6658 20.1304 24.7951 20.0685C24.8917 20.0223 24.9896 19.9756 25.0957 19.9371C25.0648 19.9371 25.0364 19.9451 25.009 19.9528C24.9564 19.9675 24.9069 19.9815 24.8477 19.9371C24.8626 19.9296 24.8752 19.9196 24.8877 19.9096C24.9127 19.8895 24.9378 19.8695 24.9829 19.8695V19.8019C24.9829 19.7794 25.0055 19.7794 25.0281 19.7794C25.0109 19.777 24.9951 19.7692 24.9829 19.7569C24.9946 19.7337 25.0183 19.7284 25.0447 19.7226C25.0693 19.7171 25.0964 19.7111 25.1182 19.6894C25.0957 19.6894 25.0506 19.6894 25.0506 19.6669C25.1182 19.5768 25.2309 19.5542 25.3437 19.5317C25.3324 19.5092 25.3098 19.5092 25.2901 19.5092C25.2704 19.5092 25.2534 19.5092 25.2534 19.4867C25.2534 19.4641 25.276 19.4641 25.2985 19.4641H25.2534C25.2185 19.4467 25.2242 19.4157 25.2285 19.3922C25.2298 19.3853 25.2309 19.3791 25.2309 19.3741C25.3211 19.269 25.3512 19.1439 25.3812 19.0188C25.3962 18.9562 25.4112 18.8937 25.4338 18.8336C25.4112 18.8336 25.3887 18.8336 25.3887 18.8111C25.1699 19.0516 24.8234 19.1435 24.4941 19.2309L24.4644 19.2387H24.3517C24.2268 19.2877 24.0866 19.2795 23.9683 19.2162C23.9137 19.1889 23.8757 19.1534 23.8342 19.1147C23.8071 19.0894 23.7785 19.0627 23.7429 19.036C23.5666 18.9236 23.3774 18.8328 23.1792 18.7656C22.6194 18.5828 22.0319 18.499 21.4432 18.518C21.6053 18.4297 21.7783 18.3942 21.9533 18.3582C22.0462 18.3392 22.1397 18.32 22.2324 18.2928C22.2884 18.2763 22.344 18.2593 22.3992 18.2425C22.7221 18.144 23.0357 18.0483 23.3821 18.0675C23.3363 18.0523 23.2801 18.0577 23.2276 18.0628C23.2026 18.0652 23.1785 18.0675 23.1567 18.0675C22.9028 18.0494 22.6488 18.1042 22.383 18.1615C22.3185 18.1754 22.2532 18.1895 22.187 18.2027C22.0744 18.2252 21.9674 18.259 21.8604 18.2927C21.7533 18.3265 21.6461 18.3603 21.5333 18.3828C21.4813 18.4001 21.4393 18.4307 21.3983 18.4606C21.3327 18.5084 21.2697 18.5543 21.1725 18.5404V18.4729C21.398 18.2024 21.6685 17.9324 22.0292 17.9099C22.3722 17.8528 22.6991 17.8923 23.0371 17.933C23.099 17.9405 23.1614 17.948 23.2242 17.955C23.5133 17.9857 23.7995 18.0383 24.0805 18.1126C24.1425 18.1126 24.1772 18.167 24.2109 18.2197C24.2385 18.263 24.2654 18.3052 24.3061 18.3153C24.3602 18.3333 24.4143 18.3369 24.4684 18.3405C24.5496 18.3459 24.6308 18.3513 24.7118 18.4053C24.7118 18.3903 24.7093 18.3753 24.7068 18.3603C24.7018 18.3303 24.6968 18.3003 24.7118 18.2702C24.7627 18.2193 24.8208 18.2331 24.878 18.2466C24.9221 18.2571 24.9657 18.2673 25.005 18.2477C25.1273 18.1713 25.011 18.0535 24.8954 17.9363C24.8406 17.8808 24.786 17.8255 24.757 17.7748C24.7594 17.7577 24.7672 17.7419 24.7795 17.7297C24.8335 17.777 24.8835 17.8263 24.9331 17.8751C25.049 17.9893 25.1627 18.1013 25.3206 18.1801C25.4333 18.2251 25.7039 18.2928 25.6588 18.1577C25.5798 17.984 25.4453 17.8325 25.3099 17.6798C25.2521 17.6147 25.1941 17.5494 25.1402 17.482V17.3923C25.1072 17.3923 25.0984 17.3802 25.0872 17.365C25.0831 17.3594 25.0787 17.3533 25.0726 17.3473V17.2572C25.0159 17.2289 25.0038 17.1828 24.9914 17.1357C24.984 17.1078 24.9766 17.0797 24.9599 17.0546C24.9222 16.9918 24.9195 16.9151 24.9167 16.8361C24.9145 16.7733 24.9122 16.709 24.8922 16.6492C24.8515 16.5243 24.8214 16.3963 24.802 16.2664C24.7755 16.1162 24.7455 15.9729 24.7162 15.8325C24.6708 15.615 24.6268 15.4044 24.5991 15.1855C24.5644 14.8562 24.7302 14.58 24.9009 14.2956C24.9519 14.2107 25.0034 14.1251 25.0501 14.037C25.2079 13.7666 25.3882 13.4965 25.6813 13.3164C25.7488 13.0467 25.9284 12.8222 26.108 12.5977L26.1095 12.5958C26.2895 12.376 26.5887 12.2422 26.8054 12.1454C27.0009 12.0587 27.2009 11.9824 27.4045 11.917H11.9316V23.8337H22.8895C23.1886 23.6187 23.4873 23.4823 23.8436 23.3196C23.9988 23.2488 24.1648 23.173 24.3465 23.0836C24.3814 23.0664 24.4218 23.0469 24.4662 23.0254L24.4672 23.0249C24.7838 22.8719 25.3043 22.6203 25.4963 22.4284ZM21.9165 20.7927C21.9323 20.7137 22.0146 20.6902 22.0936 20.6675C22.1273 20.6579 22.1603 20.6485 22.1872 20.6351L22.198 20.6295L22.2102 20.623C22.2532 20.6 22.3071 20.5711 22.3451 20.59C22.3706 20.6283 22.4034 20.6376 22.4351 20.6467C22.4595 20.6537 22.4834 20.6606 22.5029 20.6801C22.4215 20.7613 22.3238 20.7693 22.2246 20.7774C22.1588 20.7828 22.0922 20.7883 22.0292 20.8153C22.0183 20.8153 22.0047 20.8166 21.9906 20.8179C21.947 20.8222 21.8994 20.8268 21.9165 20.7927ZM19.2786 19.1263C19.0761 19.5317 18.8345 19.9163 18.5572 20.2748C18.5595 20.2919 18.5674 20.3077 18.5797 20.3199C19.1209 19.7118 19.6168 19.1939 20.3155 18.766C20.3328 18.7574 20.3269 18.7653 20.3181 18.777C20.304 18.796 20.2824 18.8249 20.338 18.811C20.5724 18.757 20.677 18.5591 20.7787 18.3668C20.8041 18.3186 20.8294 18.2707 20.8566 18.2255C20.9614 18.0554 21.1119 17.9462 21.2638 17.8359C21.3733 17.7564 21.4836 17.6763 21.5781 17.5725C21.5811 17.5973 21.5728 17.6221 21.5555 17.6401C21.5735 17.6574 21.5984 17.6657 21.6232 17.6626C21.6625 17.6332 21.706 17.6209 21.7481 17.6089C21.803 17.5933 21.8557 17.5784 21.8939 17.5275C21.707 17.4527 21.4999 17.4447 21.3077 17.5049C20.8342 17.7302 20.4285 18.0905 20.0451 18.4958C19.815 18.7392 19.5717 18.9687 19.2786 19.1263ZM20.3833 18.9237C20.3656 18.9639 20.3334 18.996 20.2932 19.0137C20.2706 19.0137 20.2481 19.0137 20.2481 18.9912C20.2683 18.8967 20.3368 18.8197 20.4285 18.7885C20.451 18.7885 20.451 18.811 20.451 18.8336C20.4395 18.8567 20.4272 18.8692 20.4153 18.8814C20.4041 18.8929 20.3931 18.9041 20.3833 18.9237ZM21.4722 22.308C21.4904 22.2914 21.4707 22.2789 21.4425 22.2732C21.4656 22.2556 21.4845 22.2332 21.4979 22.2075C21.5164 22.1633 21.3972 22.1739 21.3786 22.1867C21.3604 22.2012 21.3441 22.218 21.3302 22.2366C21.3007 22.2683 21.2694 22.2982 21.2365 22.3263C21.2117 22.3489 21.1877 22.3722 21.1636 22.3955C21.1328 22.4254 21.1019 22.4552 21.0698 22.4835C21.0318 22.5168 21.1558 22.5343 21.1825 22.5106C21.2114 22.4851 21.2391 22.4585 21.2667 22.4318C21.2783 22.4313 21.29 22.4298 21.3014 22.4271C21.3662 22.4 21.4244 22.3595 21.4722 22.308ZM21.0884 22.0253L21.0619 22.044C20.9863 22.0973 20.9106 22.1506 20.831 22.1968C20.7595 22.2382 20.6856 22.2722 20.6114 22.3064C20.5855 22.3184 20.5595 22.3303 20.5336 22.3427C20.5329 22.3407 20.5319 22.3389 20.5307 22.3372C20.5221 22.3251 20.506 22.3213 20.4929 22.3281C20.41 22.3753 20.3337 22.4334 20.2662 22.5007C20.2557 22.5106 20.2452 22.5208 20.2347 22.531C20.2205 22.545 20.2098 22.5556 20.1991 22.5663L20.1953 22.5701C20.195 22.5705 20.1948 22.5709 20.1946 22.5712L20.194 22.5722C20.1779 22.5881 20.1625 22.6042 20.1449 22.6249C20.1368 22.637 20.1266 22.6476 20.1148 22.6563C20.1008 22.6656 20.062 22.6654 20.0656 22.6394V22.635L20.064 22.6359C20.0512 22.6426 20.0384 22.6493 20.0256 22.6555C20.0139 22.661 20.0034 22.6671 19.9928 22.6734L19.9904 22.6748C19.9854 22.6729 19.9801 22.6721 19.9748 22.6725C19.9689 22.6726 19.9633 22.6745 19.9586 22.678C19.931 22.6995 19.9037 22.7225 19.8771 22.7466C19.8298 22.7892 19.786 22.8357 19.7463 22.8855L19.7399 22.8938L19.7331 22.9025C19.731 22.9055 19.7283 22.9088 19.726 22.9119L19.7238 22.9146L19.7204 22.9194L19.7139 22.9289L19.7085 22.937C19.7025 22.9432 19.696 22.9463 19.6891 22.9473L19.6853 22.9418C19.6835 22.9392 19.6816 22.9366 19.68 22.9338L19.6763 22.9274L19.6737 22.9229C19.6668 22.9113 19.6605 22.8993 19.6544 22.8869L19.6538 22.8855L19.6512 22.8802L19.6485 22.8743C19.6729 22.8481 19.6964 22.821 19.7192 22.7933L19.7238 22.7878C19.7317 22.7782 19.7394 22.7686 19.7472 22.7589L19.785 22.7107C19.7877 22.707 19.7904 22.7036 19.7931 22.7001L19.7987 22.6929C19.8235 22.6606 19.8472 22.6293 19.8693 22.5978L19.8709 22.5954L19.8749 22.5895C19.8768 22.5868 19.8786 22.584 19.8807 22.5812C19.8914 22.5653 19.9018 22.5492 19.9116 22.5328C19.9203 22.5181 19.9286 22.5031 19.9362 22.4879L19.938 22.4845L19.9404 22.4799C19.941 22.4786 19.9416 22.4772 19.9422 22.4758C19.9428 22.4744 19.9434 22.4729 19.9441 22.4715C19.952 22.4545 19.9592 22.437 19.9655 22.419L19.9675 22.4132L19.9688 22.4095C19.9701 22.4058 19.9714 22.4021 19.9725 22.3984C19.9751 22.3903 19.9774 22.3819 19.9796 22.3735C19.98 22.3717 19.9803 22.3698 19.9809 22.368L19.9828 22.3602C19.9849 22.352 19.987 22.3437 19.9887 22.335C19.9896 22.3298 19.9887 22.3244 19.9859 22.3199C20.0114 22.2763 20.0413 22.2356 20.0753 22.1983C20.0737 22.1993 20.072 22.2003 20.0702 22.2011C20.0684 22.2021 20.0667 22.2031 20.065 22.2042C20.047 22.2157 20.0324 22.2298 20.0178 22.2439C20.0062 22.2552 19.9946 22.2664 19.9813 22.2763C19.9567 22.2946 19.9115 22.2643 19.9405 22.2426C19.9586 22.2282 19.9757 22.2127 19.9918 22.1961C20.0299 22.1517 20.0682 22.1135 20.1093 22.0782L20.1189 22.0713C20.1409 22.0553 20.1603 22.0412 20.1785 22.0254C20.1808 22.0234 20.1829 22.0213 20.1851 22.0193L20.1884 22.0164C20.2038 21.9963 20.2206 21.9773 20.2388 21.9598L20.2397 21.9588C20.2401 21.9583 20.2406 21.9579 20.2411 21.9576C20.373 21.8304 20.56 21.7844 20.7505 21.7376C20.8716 21.7078 20.9941 21.6777 21.1047 21.6261C21.1675 21.6011 21.2373 21.6109 21.3063 21.6207C21.3612 21.6285 21.4155 21.6362 21.4654 21.6261C21.5361 21.6192 21.6072 21.6351 21.6683 21.6713C21.5121 21.7562 21.3648 21.8497 21.2209 21.9412C21.1784 21.9682 21.1362 21.995 21.0941 22.0214L21.0884 22.0253ZM21.4655 20.4099H21.6459C21.6332 20.4353 21.5989 20.4392 21.5755 20.4419C21.5575 20.4439 21.546 20.4452 21.5557 20.4551C21.6235 20.5224 21.7587 20.5 21.8488 20.4549C21.9173 20.4164 21.9963 20.4007 22.0743 20.4099C22.0968 20.4099 22.0968 20.3648 22.0968 20.3424C22.155 20.3609 22.2161 20.3685 22.2771 20.3648C22.8183 20.2522 23.3369 20.1397 23.8328 19.8919C23.3323 19.5074 22.7167 19.3363 22.1124 19.1683C22.009 19.1396 21.9059 19.1109 21.8037 19.0813C21.8262 19.0813 21.8488 19.0888 21.8713 19.0963C21.9164 19.1113 21.9615 19.1263 22.0066 19.0813C21.9453 19.0323 21.8772 19.0233 21.8098 19.0143C21.7533 19.0069 21.6973 18.9995 21.6459 18.9687C21.651 18.9687 21.6572 18.9698 21.664 18.9711C21.6876 18.9754 21.7186 18.9811 21.7361 18.9462C21.6159 18.8862 21.4957 18.8662 21.3755 18.8461C21.3153 18.8361 21.2551 18.826 21.1949 18.811C21.303 18.7916 21.3801 18.6954 21.3753 18.5859C21.3753 18.5634 21.3302 18.5634 21.3077 18.5634C21.0372 18.6985 20.8568 18.9462 20.7441 19.2389C20.8448 19.2964 20.9546 19.2897 21.0619 19.2832C21.1228 19.2795 21.183 19.2758 21.2401 19.284C21.1899 19.334 21.1151 19.3469 21.043 19.3595C21.0177 19.3639 20.9928 19.3682 20.9693 19.3741C20.9001 19.3913 20.834 19.4416 20.8566 19.4866C20.8689 19.5037 20.8872 19.5153 20.9078 19.5192C20.8545 19.5332 20.8059 19.5608 20.7664 19.5992C20.831 19.6475 20.8955 19.6383 20.9599 19.6291C20.9857 19.6254 21.0114 19.6218 21.0372 19.6218C21.0372 19.6518 21.0572 19.6618 21.0773 19.6718C21.0873 19.6768 21.0973 19.6818 21.1049 19.6893C21.0063 19.7252 20.9255 19.7978 20.8794 19.8919C20.8523 19.9595 20.8009 20.0027 20.7495 20.046C20.7152 20.0748 20.6809 20.1036 20.6539 20.1397V20.2072C20.5773 20.2761 20.498 20.3371 20.4198 20.3974C20.2677 20.5147 20.1192 20.6292 20.0001 20.7927C20.0226 20.7927 20.0226 20.8153 20.0226 20.8377C20.0022 20.8683 19.9725 20.8897 19.9441 20.9102C19.9097 20.935 19.8771 20.9584 19.8647 20.9953C19.8647 21.0179 19.8647 21.0404 19.8873 21.0404C20.0291 20.9932 20.1523 20.9151 20.2731 20.8385C20.3829 20.7689 20.4908 20.7005 20.6088 20.6576C20.7052 20.6335 20.7887 20.5902 20.8696 20.5481C20.9402 20.5115 21.0088 20.4759 21.0823 20.4549C21.1386 20.4437 21.2006 20.4268 21.2626 20.4099C21.3246 20.393 21.3866 20.3761 21.443 20.3648C21.443 20.3874 21.443 20.4099 21.4655 20.4099ZM22.5054 22.3949C22.5072 22.3936 22.5089 22.3921 22.5107 22.3907L22.5147 22.3875C22.5474 22.3645 22.5777 22.335 22.6048 22.2999C22.603 22.2993 22.6011 22.2986 22.5993 22.2979C22.5975 22.2972 22.5959 22.2964 22.5942 22.2955C22.5641 22.3263 22.5349 22.3593 22.5054 22.3949ZM26.9034 20.9171L26.8565 20.9521C26.8824 20.9509 26.9034 20.9444 26.9034 20.9171Z" fill="#000091"/>
<path d="M44.7421 11.917H31.9078C31.9505 11.931 31.9914 11.95 32.0296 11.9736C32.1338 12.0294 32.2689 12.1015 32.3534 12.1457C32.5264 12.2253 32.6748 12.3497 32.7833 12.506C32.8284 12.5736 32.8961 12.7087 32.851 12.7988C32.8059 12.9114 32.7833 13.0915 32.6706 13.1366C32.5353 13.2041 32.3549 13.2041 32.1971 13.1816C32.1054 13.1776 32.0144 13.1625 31.9263 13.1366C32.2645 13.2717 32.5801 13.4293 32.8056 13.7446C32.8282 13.7896 32.9183 13.8121 33.0086 13.8121C33.0311 13.8121 33.0311 13.8572 33.0311 13.8797C32.986 13.9248 32.9409 13.9472 32.9634 14.0148H33.0311C33.1438 13.9697 33.1213 13.7444 33.2791 13.8121C33.3942 13.883 33.4337 14.0313 33.3692 14.1499C33.2847 14.2315 33.1942 14.3068 33.0985 14.3751C33.076 14.4252 33.076 14.4826 33.0985 14.5327C33.155 14.6138 33.1934 14.706 33.2112 14.8031C33.2789 14.9607 33.3014 15.1409 33.3691 15.2985C33.4593 15.6363 33.5494 15.9741 33.5269 16.3119C33.5269 16.4921 33.4367 16.6497 33.5043 16.8299C33.5494 17.01 33.6621 17.1451 33.7524 17.3027C33.8424 17.4378 33.9327 17.5279 34.0004 17.6631C34.1355 17.8882 34.3836 18.1134 34.2711 18.3836C34.2035 18.5412 33.9555 18.5188 33.7977 18.6089C33.6624 18.7214 33.7752 18.9015 33.8427 19.0142C33.9555 19.2169 33.7074 19.352 33.5497 19.4195C33.5948 19.487 33.685 19.4645 33.7074 19.5096C33.73 19.6222 33.8427 19.6897 33.7752 19.8023C33.685 19.9374 33.4144 20.005 33.5497 20.2077C33.6399 20.3653 33.5811 20.5404 33.5272 20.7031C33.4595 20.9058 33.2792 20.9958 33.1213 21.0409C32.9824 21.082 32.8357 21.0896 32.6932 21.0634C32.652 21.0385 32.6058 21.023 32.5579 21.0184C32.1746 20.9733 31.7913 20.8607 31.408 20.8607C31.2994 20.8772 31.1933 20.9075 31.0924 20.9507C30.9942 21.0227 30.9029 21.1033 30.8194 21.1919L30.8168 21.1947C30.7998 21.2127 30.7836 21.2309 30.7676 21.2493C30.7578 21.2607 30.7482 21.2723 30.7386 21.2838C30.7321 21.2915 30.7257 21.2993 30.7194 21.3071C30.6539 21.3891 30.5946 21.4759 30.5419 21.5666C30.5385 21.5723 30.5351 21.5781 30.5319 21.5838C30.526 21.5943 30.5203 21.6048 30.5145 21.6153C30.4436 21.7468 30.3864 21.8852 30.3438 22.0285C30.1905 22.5441 30.2575 22.9866 30.3651 23.094C30.3951 23.1239 31.1093 23.3441 31.6068 23.5652C31.7903 23.6422 31.9681 23.732 32.1389 23.8341H44.7421V11.917Z" fill="#E1000F"/>
<path d="M32.671 16.2644C32.7613 16.2869 32.8965 16.2869 32.8965 16.3319C32.8514 16.512 32.5808 16.5571 32.4455 16.7373H32.3781C32.3105 16.7824 32.333 16.8949 32.2654 16.8949C32.1971 16.88 32.1258 16.8879 32.0625 16.9174C32.1527 17.0075 32.2654 17.0752 32.4006 17.0525C32.4394 17.066 32.4662 17.1017 32.4683 17.1427C32.4856 17.1411 32.5017 17.133 32.5134 17.1201C32.536 17.1201 32.5585 17.1201 32.5585 17.1427V17.2328C32.4908 17.3229 32.3781 17.2777 32.2878 17.3003C32.4577 17.3454 32.6364 17.3454 32.8063 17.3003C32.9416 17.2553 32.8063 17.0299 32.8965 16.9174C32.8515 16.9174 32.8965 16.8499 32.8515 16.8499C32.8965 16.8049 32.9416 16.7373 32.9867 16.7148C33.0403 16.7162 33.0911 16.6909 33.122 16.6472C33.122 16.6022 33.0319 16.5797 33.0544 16.5345C33.1896 16.4446 33.3023 16.3094 33.2573 16.1743C33.2347 16.1068 33.0544 16.1068 32.9416 16.0617C32.8288 16.0167 32.6936 16.0617 32.5584 16.0843C32.4456 16.0843 32.3328 16.1518 32.2201 16.1743C32.0666 16.2267 31.9221 16.3026 31.792 16.3995C31.9534 16.3412 32.1193 16.296 32.288 16.2644C32.4231 16.2644 32.5379 16.2311 32.671 16.2644Z" fill="#808080"/>
<path d="M11.9668 38.7305H13.661V32.7481L15.5223 35.8704H16.7155L18.5768 32.7481V38.7305H20.271V30.3885H18.1592L16.1189 33.8922L14.0786 30.3885H11.9668V38.7305ZM22.7809 38.7305H24.4752V30.3885H22.7809V38.7305ZM26.9886 38.7305H28.6829V32.7004L32.4174 38.7305H34.5889V30.3885H32.8946V36.4186L29.1601 30.3885H26.9886V38.7305ZM37.1037 38.7305H38.7979V30.3885H37.1037V38.7305ZM40.5597 37.5745C41.2994 38.4564 42.242 38.9688 43.6499 38.9688C45.189 38.9688 46.406 38.0274 46.4299 36.4543C46.4299 33.5942 42.6357 34.0232 42.6357 32.5098C42.6357 32.0093 43.0295 31.6279 43.626 31.6279C44.2584 31.6279 44.8072 32.045 45.2964 32.6766L46.5373 31.5564C45.8214 30.7103 44.8669 30.1502 43.6141 30.1502C42.0153 30.1502 40.9176 31.2466 40.9176 32.5694C40.9176 35.3937 44.7118 34.9766 44.7118 36.5139C44.7118 37.1098 44.3061 37.4673 43.638 37.4673C42.9579 37.4673 42.2897 37.0859 41.7886 36.4424L40.5597 37.5745ZM47.468 31.9258H50.0452V38.7305H51.7394V31.9258H54.3166V30.3885H47.468V31.9258ZM57.6659 29.6735H59.217L57.8688 28.0647H56.1268L57.6659 29.6735ZM55.9836 38.7305H60.8518V37.3243H57.6779V35.1792H60.3746V33.773H57.6779V31.7947H60.8518V30.3885H55.9836V38.7305ZM62.9995 38.7305H64.6937V35.358H65.5647L67.7959 38.7305H69.7884L67.1754 35.0362C68.0345 34.6429 68.5237 33.8922 68.5237 32.8792C68.5237 31.33 67.3902 30.3885 65.5528 30.3885H62.9995V38.7305ZM65.6482 31.7947C66.3641 31.7947 66.7817 32.2238 66.7817 32.8554C66.7817 33.5346 66.3641 33.9517 65.6482 33.9517H64.6937V31.7947H65.6482ZM71.0406 38.7305H75.9086V37.3243H72.7348V35.1792H75.4313V33.773H72.7348V31.7947H75.9086V30.3885H71.0406V38.7305ZM11.9668 51.2435H15.2479C17.8967 51.2435 19.6864 49.3248 19.6864 47.0725C19.6864 44.8201 17.8967 42.9015 15.2479 42.9015H11.9668V51.2435ZM15.2718 44.4388C16.8228 44.4388 17.9444 45.5828 17.9444 47.0725C17.9444 48.5502 16.8228 49.7061 15.2718 49.7061H13.661V44.4388H15.2718ZM26.4247 48.1212C26.4247 49.2414 25.7804 49.8968 24.7424 49.8968C23.6805 49.8968 23.0481 49.2414 23.0481 48.1212V42.9015H21.3539V47.9782C21.3539 50.1709 22.6425 51.4818 24.7305 51.4818C26.8304 51.4818 28.119 50.1709 28.119 47.9782V42.9015H26.4247V48.1212ZM32.819 44.4388H35.3962V51.2435H37.0904V44.4388H39.6676V42.9015H32.819V44.4388ZM41.3346 51.2435H43.0289V47.8709H43.8999L46.131 51.2435H48.1236L45.5106 47.5492C46.3697 47.1559 46.8588 46.4051 46.8588 45.3922C46.8588 43.8429 45.7254 42.9015 43.8879 42.9015H41.3346V51.2435ZM43.9834 44.3077C44.6993 44.3077 45.1169 44.7367 45.1169 45.3683C45.1169 46.0476 44.6993 46.4647 43.9834 46.4647H43.0289V44.3077H43.9834ZM48.687 51.2435H50.4886L51.288 49.0745H54.6288L55.4282 51.2435H57.2298L54.068 42.9015H51.8488L48.687 51.2435ZM51.813 47.6326L52.9584 44.4984L54.1038 47.6326H51.813ZM56.9144 42.9015L60.0763 51.2435H62.2955L65.4573 42.9015H63.6557L61.1859 49.4201L58.7161 42.9015H56.9144ZM65.1418 51.2435H66.9434L67.7428 49.0745H71.0836L71.883 51.2435H73.6846L70.5228 42.9015H68.3036L65.1418 51.2435ZM68.2678 47.6326L69.4132 44.4984L70.5586 47.6326H68.2678ZM75.1533 51.2435H76.8476V42.9015H75.1533V51.2435ZM79.3609 51.2435H84.2289V49.7061H81.0552V42.9015H79.3609V51.2435ZM86.9218 53.1502L88.3058 49.587H86.5997L85.5139 53.1502H86.9218ZM11.9668 63.7564H15.2479C17.8967 63.7564 19.6864 61.8378 19.6864 59.5854C19.6864 57.3331 17.8967 55.4144 15.2479 55.4144H11.9668V63.7564ZM15.2718 56.9517C16.8228 56.9517 17.9444 58.0958 17.9444 59.5854C17.9444 61.0631 16.8228 62.2191 15.2718 62.2191H13.661V56.9517H15.2718ZM21.4993 63.7564H26.3673V62.3502H23.1935V60.2051H25.89V58.7989H23.1935V56.8207H26.3673V55.4144H21.4993V63.7564ZM31.7905 63.7564H36.6585V62.2191H33.4848V55.4144H31.7905V63.7564ZM37.8833 58.8466L39.2674 55.4144H37.5492L36.4754 58.8466H37.8833ZM40.7651 63.7564H45.6331V62.3502H42.4593V60.2051H45.1558V58.7989H42.4593V56.8207H45.6331V55.4144H40.7651V63.7564ZM47.7808 63.7564H49.4751V57.774L51.3364 60.8963H52.5295L54.3908 57.774V63.7564H56.085V55.4144H53.9732L51.9329 58.9181L49.8927 55.4144H47.7808V63.7564ZM58.595 63.7564H60.2893V60.3839H61.3512C63.1886 60.3839 64.3101 59.4424 64.3101 57.9051C64.3101 56.3559 63.1886 55.4144 61.3512 55.4144H58.595V63.7564ZM61.4228 56.8207C62.1386 56.8207 62.5682 57.2497 62.5682 57.8813C62.5682 58.5606 62.1386 58.9777 61.4228 58.9777H60.2893V56.8207H61.4228ZM65.8904 63.7564H70.7584V62.2191H67.5847V55.4144H65.8904V63.7564ZM75.8477 55.1761C73.2109 55.1761 71.4093 57.202 71.4093 59.5854C71.4093 61.9688 73.2109 63.9947 75.8477 63.9947C78.4726 63.9947 80.2743 61.9688 80.2743 59.5854C80.2743 57.202 78.4726 55.1761 75.8477 55.1761ZM75.8477 62.4098C74.2728 62.4098 73.1513 61.1823 73.1513 59.5854C73.1513 57.9885 74.2728 56.7611 75.8477 56.7611C77.4107 56.7611 78.5323 57.9885 78.5323 59.5854C78.5323 61.1823 77.4107 62.4098 75.8477 62.4098ZM82.0771 63.7564H83.7713V55.4144H82.0771V63.7564ZM11.9668 76.2694H16.8348V74.8631H13.661V72.7181H16.3575V71.3118H13.661V69.3336H16.8348V67.9274H11.9668V76.2694ZM18.2982 69.4647H20.8754V76.2694H22.5696V69.4647H25.1468V67.9274H18.2982V69.4647ZM30.0894 76.2694H33.3705C36.0192 76.2694 37.8089 74.3507 37.8089 72.0984C37.8089 69.846 36.0192 67.9274 33.3705 67.9274H30.0894V76.2694ZM33.3943 69.4647C34.9454 69.4647 36.067 70.6087 36.067 72.0984C36.067 73.5761 34.9454 74.7321 33.3943 74.7321H31.7836V69.4647H33.3943ZM39.6218 76.2694H44.4898V74.8631H41.3161V72.7181H44.0126V71.3118H41.3161V69.3336H44.4898V67.9274H39.6218V76.2694ZM49.9131 76.2694H54.7811V74.7321H51.6073V67.9274H49.9131V76.2694ZM56.0059 71.3595L57.3899 67.9274H55.6718L54.598 71.3595H56.0059ZM58.8877 76.2694H60.5822V67.9274H58.8877V76.2694ZM63.0955 76.2694H64.7898V70.2393L68.5243 76.2694H70.6958V67.9274H69.0015V73.9574L65.267 67.9274H63.0955V76.2694ZM72.4586 75.1134C73.1984 75.9953 74.141 76.5077 75.5489 76.5077C77.088 76.5077 78.305 75.5662 78.3289 73.9932C78.3289 71.1331 74.5347 71.5621 74.5347 70.0486C74.5347 69.5481 74.9284 69.1668 75.525 69.1668C76.1574 69.1668 76.7062 69.5839 77.1954 70.2155L78.4362 69.0953C77.7204 68.2491 76.7659 67.689 75.5131 67.689C73.9143 67.689 72.8166 68.7854 72.8166 70.1082C72.8166 72.9326 76.6107 72.5155 76.6107 74.0528C76.6107 74.6486 76.2051 75.0061 75.5369 75.0061C74.8568 75.0061 74.1887 74.6248 73.6876 73.9813L72.4586 75.1134ZM80.2844 76.2694H85.1524V74.8631H81.9786V72.7181H84.6751V71.3118H81.9786V69.3336H85.1524V67.9274H80.2844V76.2694ZM87.3 76.2694H88.9943V72.8968H89.8653L92.0964 76.2694H94.089L91.476 72.5751C92.335 72.1818 92.8242 71.431 92.8242 70.4181C92.8242 68.8688 91.6908 67.9274 89.8533 67.9274H87.3V76.2694ZM89.9488 69.3336C90.6647 69.3336 91.0823 69.7626 91.0823 70.3942C91.0823 71.0735 90.6647 71.4906 89.9488 71.4906H88.9943V69.3336H89.9488ZM94.1092 69.4647H96.6864V76.2694H98.3807V69.4647H100.958V67.9274H94.1092V69.4647ZM102.625 76.2694H104.319V67.9274H102.625V76.2694ZM110.555 67.689C107.919 67.689 106.117 69.715 106.117 72.0984C106.117 74.4818 107.919 76.5077 110.555 76.5077C113.18 76.5077 114.982 74.4818 114.982 72.0984C114.982 69.715 113.18 67.689 110.555 67.689ZM110.555 74.9227C108.98 74.9227 107.859 73.6953 107.859 72.0984C107.859 70.5015 108.98 69.274 110.555 69.274C112.118 69.274 113.24 70.5015 113.24 72.0984C113.24 73.6953 112.118 74.9227 110.555 74.9227ZM116.785 76.2694H118.479V70.2393L122.213 76.2694H124.385V67.9274H122.691V73.9574L118.956 67.9274H116.785V76.2694Z" fill="#1E1E1E"/>
<path fill-rule="evenodd" clip-rule="evenodd" d="M42.9292 97.5414L41.8196 98.5544H41.5333L42.1895 97.3984H42.9292V97.5414ZM42.1298 101.462H41.8912C41.5929 101.82 41.2589 102.106 40.9367 102.106C40.6026 102.106 40.4356 101.903 40.4356 101.462C40.4356 101.283 40.4595 101.093 40.4952 100.926L42.4401 100.282C42.8219 99.3767 42.3685 98.9834 41.8316 98.9834C40.9128 98.9834 39.8629 100.592 39.8629 101.879C39.8629 102.487 40.1492 102.821 40.6026 102.821C41.1276 102.809 41.6765 102.296 42.1298 101.462ZM41.4617 99.5078C41.7242 99.5078 41.9509 99.7103 41.8316 100.175L40.6265 100.497C40.8174 99.9249 41.1753 99.5078 41.4617 99.5078ZM37.6675 99.5316H38.3118L37.2857 102.344C37.1903 102.582 37.3215 102.821 37.5721 102.821C38.2999 102.821 39.1709 102.201 39.5049 101.319H39.326C39.0635 101.689 38.4908 102.094 38.0613 102.165L39.0038 99.5316H39.9703L40.0896 99.1264H39.147L39.5049 98.1135H39.1351L38.4669 99.1264L37.6675 99.2337V99.5316ZM36.7727 98.9953C36.9039 98.9953 37.0829 99.1383 36.9994 99.4005L35.842 102.201C36.1403 102.153 36.4505 101.867 36.6295 101.605H36.8204C36.546 102.308 35.9255 102.821 35.3886 102.821C35.2574 102.821 35.0665 102.678 35.1619 102.416L36.2358 99.615C35.9375 99.6627 35.6273 99.9487 35.4483 100.211H35.2693C35.5437 99.4958 36.2119 98.9953 36.7727 98.9953ZM37.1068 98.2803C37.3454 98.2803 37.5482 98.0896 37.5482 97.8394C37.5482 97.601 37.3454 97.3984 37.1068 97.3984C36.8562 97.3984 36.6653 97.601 36.6653 97.8394C36.6653 98.0777 36.8681 98.2803 37.1068 98.2803ZM31.8928 100.604C32.1552 100.032 32.0598 99.7699 31.8928 99.7699C31.7496 99.7699 31.5825 99.9249 31.4155 100.211H31.2365C31.511 99.6031 31.8689 98.9953 32.2626 98.9953C32.5967 98.9953 32.716 99.329 32.716 99.6984V100.223C32.7703 100.16 32.8231 100.098 32.8747 100.037C33.3787 99.4464 33.7637 98.9953 34.2074 98.9953C34.5534 98.9953 34.7324 99.2098 34.7324 99.5316C34.7324 99.7223 34.6728 99.9606 34.5415 100.211L33.5512 102.201C33.8495 102.153 34.1597 101.867 34.3387 101.605H34.5177C34.2432 102.32 33.5751 102.821 33.0143 102.821C32.7637 102.821 32.6206 102.559 32.728 102.344L33.8734 100.139C34.0046 99.8891 34.0285 99.7223 33.8256 99.7223C33.5512 99.7223 32.9069 100.175 32.5609 100.592L31.8092 102.57C31.7257 102.773 31.6422 102.821 31.4513 102.821C31.1411 102.821 30.986 102.618 31.1292 102.296L31.8928 100.604ZM31.1172 99.8414C31.2485 99.3886 31.1769 98.9834 30.8309 98.9834C30.3994 98.9834 30.2643 99.2682 29.8461 100.149L29.8167 100.211V99.6865C29.8167 99.3171 29.6974 98.9834 29.3633 98.9834C28.9696 98.9834 28.6116 99.5912 28.3372 100.199H28.5162C28.7071 99.9249 28.8861 99.758 29.0292 99.758C29.1963 99.758 29.2917 100.02 29.0292 100.592L28.2656 102.284C28.1225 102.606 28.2776 102.809 28.5878 102.809C28.7787 102.809 28.8622 102.761 28.9457 102.559L29.6974 100.58C29.9122 100.318 30.1031 100.092 30.3417 99.8414H31.1172ZM27.3469 100.175C27.4662 99.7103 27.2395 99.5078 26.977 99.5078C26.6907 99.5078 26.3328 99.9249 26.1419 100.497L27.3469 100.175ZM27.6452 101.462H27.4066C27.1083 101.82 26.7742 102.106 26.4521 102.106C26.118 102.106 25.951 101.903 25.951 101.462C25.951 101.283 25.9748 101.093 26.0106 100.926L27.9554 100.282C28.3372 99.3767 27.8838 98.9834 27.3469 98.9834C26.4282 98.9834 25.3783 100.592 25.3783 101.879C25.3783 102.487 25.6646 102.821 26.118 102.821C26.643 102.809 27.1918 102.296 27.6452 101.462ZM23.8272 99.5316H23.1829V99.2337L23.9823 99.1264L24.6504 98.1135H25.0203L24.6624 99.1264H25.6049L25.4856 99.5316H24.5192L23.5766 102.165C24.0061 102.094 24.5789 101.689 24.8413 101.319H25.0203C24.6862 102.201 23.8152 102.821 23.0874 102.821C22.8369 102.821 22.7056 102.582 22.8011 102.344L23.8272 99.5316ZM19.7705 101.712C19.7705 100.842 20.737 99.6746 21.2739 99.6746C21.3932 99.6746 21.5125 99.6865 21.608 99.7223L21.0472 101.224C20.725 101.617 20.2239 102.094 19.9853 102.094C19.854 102.094 19.7705 101.975 19.7705 101.712ZM22.4312 98.8047L22.7295 98.8285L21.6915 101.212C21.4409 101.784 21.5483 102.046 21.6915 102.046C21.8346 102.046 22.0136 101.879 22.2045 101.605H22.3835C22.1091 102.213 21.7511 102.821 21.3574 102.821C21.0233 102.821 20.8205 102.463 20.8801 101.82L20.904 101.593L20.839 101.684C20.4117 102.281 20.0249 102.821 19.6274 102.821C19.2813 102.821 19.1024 102.606 19.1024 102.284C19.1024 100.902 20.6176 99.1383 22.0375 99.1383H22.0971L22.4312 98.8047ZM19.6989 99.8414C19.8302 99.3886 19.7586 98.9834 19.4126 98.9834C18.9811 98.9834 18.846 99.2682 18.4278 100.149L18.3984 100.211V99.6865C18.3984 99.3171 18.2791 98.9834 17.945 98.9834C17.5513 98.9834 17.1934 99.5912 16.9189 100.199H17.0979C17.2888 99.9249 17.4678 99.758 17.599 99.758C17.7661 99.758 17.8615 100.02 17.599 100.592L16.8354 102.296C16.6922 102.618 16.8473 102.821 17.1576 102.821C17.3485 102.821 17.432 102.773 17.5155 102.57L18.2672 100.592C18.4819 100.33 18.6728 100.104 18.9115 99.8534H19.6989V99.8414ZM14.7832 102.463L14.7116 102.678H11.9316L12.0032 102.451C12.8623 102.296 13.0055 102.225 13.3634 101.26L14.1389 99.186C14.4849 98.2207 14.4134 98.1492 13.6617 97.9943L13.7333 97.7798H17.3485L17.1337 98.9357H16.8712C16.8712 98.2445 16.7996 98.0658 16.1434 98.0658H15.9764C15.3321 98.0658 15.2486 98.1611 15.0696 98.6616L14.5565 100.056H15.3082C15.8093 100.056 16.0002 99.7461 16.2269 99.3409H16.4894L15.869 101.033H15.6065C15.6661 100.521 15.6661 100.318 15.2008 100.318H14.4492L14.1031 101.271C13.7291 102.264 13.836 102.284 14.7266 102.452C14.7452 102.456 14.764 102.46 14.7832 102.463Z" fill="black"/>
<path fill-rule="evenodd" clip-rule="evenodd" d="M17.1456 88.425L16.036 89.2234V89.2353H15.7497L16.4059 88.282H17.1456V88.425ZM24.901 94.0141L26.6788 89.2949L26.6191 89.2234L25.3902 89.3664V89.5094L25.6288 89.6882C25.8325 89.8467 25.7786 89.9939 25.6095 90.4563L25.5811 90.5343L24.2209 94.1571C24.1135 94.3716 24.2567 94.6338 24.5073 94.6338C25.068 94.6338 25.6646 94.1214 25.939 93.4182H25.7601C25.5692 93.6804 25.1873 93.9664 24.901 94.0141ZM33.0501 90.3794L34.1597 89.3664V89.2234H33.42L32.7637 90.3794H33.0501ZM33.1217 93.2752H33.3603C32.9188 94.1214 32.37 94.6338 31.845 94.6338C31.3916 94.6338 31.1053 94.3001 31.1053 93.6923C31.1053 92.4053 32.1552 90.7965 33.074 90.7965C33.5989 90.7965 34.0643 91.1898 33.6825 92.0955L31.7257 92.739C31.6899 92.9058 31.6661 93.0965 31.6661 93.2752C31.6661 93.7162 31.8331 93.9188 32.1672 93.9188C32.4893 93.9188 32.8234 93.6328 33.1217 93.2752ZM33.062 91.9882C33.1813 91.5354 32.9546 91.3328 32.6922 91.3328C32.4177 91.3328 32.0598 91.7499 31.857 92.31L33.062 91.9882ZM29.5542 91.3566H28.9099V91.0587L29.7093 90.9514L30.3775 89.9385H30.7473L30.3894 90.9514H31.332L31.2127 91.3566H30.2462L29.3037 93.9903C29.7332 93.9188 30.3059 93.5136 30.5684 93.1442H30.7473C30.4133 94.026 29.5423 94.6457 28.8145 94.6457C28.5639 94.6457 28.4327 94.4074 28.5281 94.169L29.5542 91.3566ZM28.2418 91.2136C28.3134 90.9514 28.1463 90.8084 28.0031 90.8084C27.4424 90.8084 26.7742 91.3208 26.4998 92.024H26.6788C26.8577 91.7618 27.1679 91.4758 27.4662 91.4281L26.3924 94.2286C26.297 94.4908 26.4879 94.6338 26.6191 94.6338C27.156 94.6338 27.7764 94.1214 28.0509 93.4182H27.8719C27.6929 93.6804 27.3827 93.9664 27.0844 94.0141L28.2418 91.2136ZM28.7906 89.6644C28.7906 89.9027 28.5878 90.1053 28.3492 90.1053C28.1105 90.1053 27.9077 89.9027 27.9077 89.6644C27.9077 89.426 28.0986 89.2234 28.3492 89.2234C28.5878 89.2234 28.7906 89.426 28.7906 89.6644ZM22.7653 91.4996C22.2284 91.4996 21.2619 92.6675 21.2619 93.5374C21.2619 93.7996 21.3455 93.9188 21.4886 93.9188C21.7153 93.9188 22.2164 93.4421 22.5386 93.0488L23.0994 91.5473C22.992 91.5115 22.8846 91.4996 22.7653 91.4996ZM24.2209 90.6535L23.9226 90.6297L23.5886 90.9633H23.5289C22.1091 90.9633 20.5938 92.7271 20.5938 94.1094C20.5938 94.4312 20.7728 94.6457 21.1188 94.6457C21.5163 94.6457 21.9031 94.1059 22.3305 93.5088L22.3954 93.4182L22.3716 93.6447C22.3119 94.2882 22.5147 94.6457 22.8488 94.6457C23.2425 94.6457 23.6005 94.0379 23.8749 93.4302H23.6959C23.505 93.7043 23.3261 93.8711 23.1829 93.8711C23.0397 93.8711 22.9323 93.6089 23.1829 93.0369L24.2209 90.6535ZM18.2075 94.5146C17.6945 94.7172 17.3365 94.9556 17.3365 95.325C17.3365 95.6706 17.6587 95.8136 18.3268 95.8136C19.2217 95.8136 19.7109 95.5514 19.7109 95.2058C19.7109 95.0509 19.508 94.9794 18.9711 94.8006C18.6251 94.6934 18.3746 94.598 18.2075 94.5146ZM18.8041 93.0488C18.5655 93.0488 18.4819 92.8462 18.4819 92.6317C18.4819 91.9405 18.816 91.0825 19.3529 91.0825C19.5916 91.0825 19.6751 91.2851 19.6751 91.4996C19.6631 92.2027 19.3291 93.0488 18.8041 93.0488ZM19.2575 94.169C19.9137 94.3716 20.3194 94.5265 20.3194 94.9794C20.3194 95.5633 19.2455 96.2545 17.945 96.2426C17.1934 96.2426 16.5491 96.04 16.5491 95.5514C16.5491 95.0866 16.9786 94.7053 18.0285 94.3955C17.8854 94.3001 17.8257 94.1809 17.8257 94.0141C17.8257 93.7281 18.0882 93.5017 18.5416 93.2872C18.1001 93.2276 17.8138 92.8939 17.8138 92.4053C17.8138 91.6545 18.4342 90.7965 19.4126 90.7965C19.6154 90.7965 19.7944 90.8442 19.9376 90.9395H21.0114L20.8921 91.3447H20.2597C20.2955 91.4519 20.3194 91.5711 20.3194 91.7022C20.3194 92.4291 19.7347 93.2633 18.8041 93.311C18.5655 93.4421 18.4461 93.6208 18.4461 93.7638C18.4461 93.9319 18.6413 93.9891 19.0727 94.1148C19.13 94.1315 19.1917 94.1494 19.2575 94.169ZM15.4752 92.1312C15.9406 92.1312 15.9525 92.3338 15.8809 92.8462H16.1434L16.7638 91.154H16.5013C16.2746 91.5592 16.0837 91.869 15.5826 91.869H14.5565L15.0576 90.4747C15.2366 89.9742 15.3201 89.8789 15.9644 89.8789H16.4178C17.074 89.8789 17.1456 90.0576 17.1456 90.7488H17.4081L17.6229 89.5929H13.7333L13.6617 89.8074C14.4134 89.9623 14.4849 90.0338 14.1389 90.9991L13.3634 93.0846C13.0055 94.0499 12.8623 94.1214 11.9913 94.2763L11.9316 94.5027H16.2508L17.0263 93.2752H16.728C16.2269 93.7638 15.7258 94.2167 14.7474 94.2167C13.6713 94.2167 13.6905 94.1643 14.0134 93.2782C14.0341 93.221 14.0562 93.1608 14.0793 93.0965L14.4372 92.1431H15.4752V92.1312Z" fill="black"/>
<path fill-rule="evenodd" clip-rule="evenodd" d="M19.0427 81.9182C19.2813 81.9182 19.4842 81.7157 19.4842 81.4773C19.4842 81.239 19.2813 81.0364 19.0427 81.0364C18.7922 81.0364 18.6013 81.239 18.6013 81.4773C18.6013 81.7276 18.7922 81.9182 19.0427 81.9182ZM20.0807 86.4467C21.0114 86.4587 22.5744 84.7426 22.5744 83.4198C22.5744 82.8478 22.4312 82.6333 22.0255 82.6333C21.5244 82.6333 21.0591 83.1695 20.5938 83.8131L21.596 81.1317L21.5364 81.0483L20.3074 81.1913V81.3343L20.5461 81.5131C20.7538 81.6745 20.6936 81.836 20.5166 82.3103L20.4983 82.3592L19.4126 85.1954C19.3171 85.4338 19.2098 85.7198 19.2098 85.7913C19.2098 86.125 19.6631 86.4467 20.0807 86.4467ZM32.9188 82.2043L34.0285 81.1913V81.0483H33.2887L32.6325 82.2043H32.9188ZM32.9904 85.1001H33.2291C32.7757 85.9462 32.2268 86.4587 31.7019 86.4467C31.2485 86.4467 30.9621 86.125 30.9621 85.5172C30.9621 84.2302 32.0121 82.6214 32.9308 82.6214C33.4558 82.6214 33.9211 83.0146 33.5393 83.9203L31.5945 84.5638C31.5587 84.7307 31.5348 84.9214 31.5348 85.1001C31.5348 85.541 31.7019 85.7436 32.0359 85.7436C32.3581 85.7436 32.6922 85.4576 32.9904 85.1001ZM32.9308 83.8131C33.0501 83.3602 32.8234 83.1576 32.5609 83.1576C32.2746 83.1576 31.9166 83.5747 31.7257 84.1348L32.9308 83.8131ZM29.411 83.1815H28.7667V82.8835L29.5661 82.7763L30.2343 81.7633H30.6042L30.2462 82.7763H31.1888L31.0695 83.1815H30.1031L29.1605 85.8151C29.59 85.7436 30.1627 85.3385 30.4252 84.969H30.6042C30.2701 85.8509 29.3991 86.4706 28.6713 86.4706C28.4207 86.4706 28.2895 86.2322 28.3849 85.9939L29.411 83.1815ZM28.4327 83.4913C28.5639 83.0384 28.4923 82.6333 28.1463 82.6333C27.7148 82.6333 27.5797 82.9181 27.1615 83.7988L27.1322 83.8607V83.3364C27.1322 82.9669 27.0128 82.6333 26.6788 82.6333C26.285 82.6333 25.9271 83.241 25.6527 83.8488H25.8316C26.0225 83.5747 26.2015 83.4079 26.3328 83.4079C26.4998 83.4079 26.5952 83.6701 26.3328 84.2421L25.5692 85.9343C25.426 86.2561 25.5811 86.4587 25.8913 86.4587C26.0822 86.4587 26.1657 86.411 26.2492 86.2084L27.0009 84.2302C27.2157 83.968 27.4066 83.7416 27.6452 83.4913H28.4327ZM24.6504 83.8131C24.7698 83.3602 24.5431 83.1576 24.2806 83.1576C23.9942 83.1576 23.6482 83.5747 23.4454 84.1348L24.6504 83.8131ZM24.9487 85.1001H24.7101C24.4118 85.4576 24.0777 85.7436 23.7556 85.7436C23.4215 85.7436 23.2545 85.541 23.2545 85.1001C23.2545 84.9214 23.2783 84.7307 23.3141 84.5638L25.2589 83.9203C25.6407 83.0146 25.1873 82.6214 24.6504 82.6214C23.7317 82.6214 22.6818 84.2302 22.6818 85.5172C22.6818 86.125 22.9681 86.4467 23.4215 86.4467C23.9465 86.4587 24.4953 85.9462 24.9487 85.1001ZM19.9376 85.553C19.9376 85.7079 20.212 85.8866 20.4029 85.8866C21.1784 85.8866 21.9062 84.4923 21.8943 83.7177C21.8943 83.4555 21.7631 83.3483 21.5841 83.3483C21.2977 83.3483 20.7728 83.7773 20.4387 84.1825L20.1285 85.0167C20.0211 85.2908 19.9376 85.5053 19.9376 85.553ZM18.6848 82.6333C18.8279 82.6333 18.995 82.7763 18.9234 83.0385L17.778 85.839C18.0763 85.7913 18.3865 85.5053 18.5655 85.2431H18.7444C18.47 85.9462 17.8496 86.4587 17.3127 86.4587C17.1695 86.4587 16.9786 86.3157 17.074 86.0535L18.1479 83.253C17.8496 83.3006 17.5394 83.5866 17.3604 83.8488H17.1814C17.4558 83.1457 18.124 82.6333 18.6848 82.6333ZM13.7333 81.3939H16.2985L16.2269 81.6203C15.3559 81.7752 15.2128 81.8467 14.8548 82.812L14.0912 84.9094C13.7213 85.9105 13.8168 86.0296 14.473 86.0296C15.2837 86.0296 15.8154 85.4409 16.2796 84.9273C16.3141 84.8892 16.3482 84.851 16.382 84.8141H16.6803L15.8332 86.3157H11.9316L12.0032 86.1011C12.8623 85.9462 13.0055 85.8747 13.3634 84.9094L14.1389 82.8001C14.4849 81.8348 14.4134 81.7633 13.6617 81.6084L13.7333 81.3939Z" fill="black"/>
</svg>
