<svg xmlns="http://www.w3.org/2000/svg" fill="none" height="90.904" width="112.453">
  <path fill="#fff" d="M32.811 0H0v11.917h32.811z"/>
  <path fill="#000091" d="M13.565 10.511c.128-.127.257-.265.386-.403.23-.273.48-.529.749-.766.077-.07.16-.136.245-.196a.112.112 0 0 0 .023-.045.113.113 0 0 1 .022-.045c-.056.022-.101.056-.146.09a.636.636 0 0 1-.147.09c-.022 0-.045-.023-.022-.045l.24-.18H14.9c-.022 0-.022-.023-.022-.045-.291-.045-.515.154-.717.333l-.005.005c-.03.015-.06 0-.083-.012a.079.079 0 0 0-.03-.011c-.177.06-.33.168-.483.277-.14.1-.28.2-.44.264v-.045c-.057.018-.112.043-.168.068-.079.035-.157.071-.239.09a1.664 1.664 0 0 1-.429.024l-.135-.002a7.65 7.65 0 0 0-.82.145l-.011.003-.005.002-.007.001a1.9 1.9 0 0 0-.435.178.769.769 0 0 1-.033.04.544.544 0 0 1-.155.134c-.098.05-.183.126-.268.201-.035.031-.07.063-.105.092a.065.065 0 0 1-.037.011l-.11.107c-.084.08-.168.161-.253.24a.112.112 0 0 1-.069.008 2.609 2.609 0 0 1 .236-.36.021.021 0 0 0 0-.03.043.043 0 0 0-.032-.011c.115-.108.242-.202.378-.282-.015.001-.037-.01-.025-.027a.509.509 0 0 0 .023-.036l.016-.025.007-.02-.01-.011-.007-.007a.866.866 0 0 0-.106.074.44.44 0 0 0-.047.054c-.036.046-.074.094-.131.093a.14.14 0 0 1-.035-.005.067.067 0 0 1-.023-.008l.003-.005.003-.006.003-.006.011-.02.006-.01.005-.01.008-.015.016-.028.005-.008.002-.004.005-.009.02-.034.01-.015.013-.024.01-.017.007-.012.007-.012a.027.027 0 0 0-.017-.04.516.516 0 0 1 .155-.135h-.007a3.592 3.592 0 0 0 .259-.144l.024-.022.013-.01a1.526 1.526 0 0 0-.359.176.177.177 0 0 0-.038.02.056.056 0 0 1-.056-.02.027.027 0 0 1-.005-.016c.013-.027.041-.045.072-.065a.396.396 0 0 0 .063-.048c.023 0 .045 0 .045.023.448-.35 1-.43 1.553-.511.339-.05.678-.099.995-.21l.203-.135a.677.677 0 0 0 .165-.108 1.01 1.01 0 0 1 .173-.117.986.986 0 0 0 .383-.518.079.079 0 0 0-.022-.045c-.284.305-.62.557-.992.743-.342.178-.707.205-1.07.231-.14.01-.28.02-.418.04.022-.046.067-.046.112-.046 0-.053.029-.079.063-.11a.699.699 0 0 0 .028-.025h.067c.011 0 .017-.011.023-.022.005-.012.011-.023.022-.023.045 0 .113-.022.09-.022-.034-.046-.086-.028-.143-.008-.056.02-.117.04-.172.008a.137.137 0 0 0 .033-.074c.006-.026.011-.05.034-.062h.09a.157.157 0 0 1 .046-.09c.2-.12.394-.225.583-.327.13-.07.258-.14.386-.213a.173.173 0 0 0-.07.02c-.036.015-.068.03-.11.002.023 0 .023-.017.023-.033 0-.017 0-.034.022-.034.142-.039.27-.1.399-.161.096-.047.194-.093.3-.132-.03 0-.06.008-.087.016-.052.015-.102.029-.16-.016a.23.23 0 0 0 .04-.027c.024-.02.05-.04.094-.04v-.068c0-.023.023-.023.046-.023a.079.079 0 0 1-.046-.022c.012-.023.036-.029.062-.034.025-.006.052-.012.074-.034-.023 0-.068 0-.068-.022.068-.09.18-.113.293-.135-.011-.023-.034-.023-.054-.023-.02 0-.036 0-.036-.022 0-.023.022-.023.045-.023h-.045c-.035-.017-.03-.048-.025-.072a.106.106 0 0 0 .002-.018c.09-.105.12-.23.15-.355.016-.063.03-.125.053-.185-.022 0-.045 0-.045-.023-.219.24-.565.332-.895.42l-.03.008h-.112a.458.458 0 0 1-.383-.023c-.055-.027-.093-.063-.134-.101a1.077 1.077 0 0 0-.092-.079 2.604 2.604 0 0 0-.563-.27A5.066 5.066 0 0 0 9.512 6.6a1.79 1.79 0 0 1 .51-.16c.093-.019.186-.038.279-.065l.167-.05c.322-.099.636-.195.982-.175a.392.392 0 0 0-.154-.005.77.77 0 0 1-.07.005c-.255-.019-.509.036-.775.094l-.196.04c-.112.023-.22.057-.326.09a3.095 3.095 0 0 1-.327.09.496.496 0 0 0-.135.079c-.066.047-.129.093-.226.08v-.068c.225-.27.496-.54.857-.563.343-.057.67-.018 1.007.023l.188.022c.289.03.575.083.856.158.062 0 .097.054.13.107.028.043.055.085.095.095.055.018.109.022.163.026.081.005.162.01.243.064a.23.23 0 0 0-.005-.045c-.005-.03-.01-.06.005-.09.051-.05.11-.037.166-.023.044.01.088.02.127 0 .123-.076.006-.193-.11-.31a.914.914 0 0 1-.138-.162.079.079 0 0 1 .023-.045c.054.047.104.096.153.145.116.114.23.226.388.305.113.045.383.113.338-.022-.079-.174-.213-.325-.349-.478a4.551 4.551 0 0 1-.17-.198v-.09c-.032 0-.041-.012-.052-.027l-.015-.018v-.09c-.057-.028-.069-.074-.081-.121-.008-.028-.015-.056-.032-.081a.462.462 0 0 1-.043-.219.66.66 0 0 0-.024-.187 2.36 2.36 0 0 1-.09-.383c-.027-.15-.057-.293-.086-.433a7.71 7.71 0 0 1-.117-.647c-.035-.33.13-.606.301-.89.051-.085.103-.17.15-.259.157-.27.338-.54.63-.72.068-.27.248-.495.427-.72l.002-.001c.18-.22.48-.354.696-.45.195-.087.395-.164.599-.229H0v11.917h10.958c.299-.215.598-.352.954-.514.155-.071.321-.147.503-.236l.12-.059c.317-.153.838-.405 1.03-.597zm-3.58-1.635c.016-.08.098-.103.177-.125a.642.642 0 0 0 .094-.033l.01-.005.013-.007c.043-.023.097-.052.135-.033.025.038.058.048.09.057a.145.145 0 0 1 .067.033c-.081.081-.179.09-.278.097a.612.612 0 0 0-.195.038l-.039.003c-.044.004-.091.009-.074-.025ZM7.347 7.209c-.203.406-.444.79-.721 1.149.002.017.01.033.022.045.541-.608 1.037-1.126 1.736-1.554.017-.009.011 0 .002.011-.014.019-.035.048.02.034.235-.054.34-.252.441-.444a2.87 2.87 0 0 1 .078-.141c.105-.17.255-.28.407-.39.11-.08.22-.16.314-.263a.083.083 0 0 1-.022.067.083.083 0 0 0 .068.023c.039-.03.082-.042.124-.054.055-.016.108-.03.146-.082a.874.874 0 0 0-.586-.022c-.473.225-.88.585-1.262.99-.23.244-.474.474-.767.631Zm1.105-.202a.176.176 0 0 1-.09.09c-.023 0-.046 0-.046-.023a.275.275 0 0 1 .18-.202c.023 0 .023.022.023.045a.155.155 0 0 1-.035.047c-.011.012-.023.023-.032.043ZM9.54 10.39c.018-.017-.002-.03-.03-.035a.197.197 0 0 0 .055-.066c.019-.044-.1-.033-.119-.02a.272.272 0 0 0-.048.05c-.03.031-.061.061-.094.09a1.572 1.572 0 0 0-.073.069c-.03.03-.062.06-.094.088-.038.033.086.05.113.027.029-.026.057-.052.084-.08a.186.186 0 0 0 .035-.004.492.492 0 0 0 .17-.119zm-.384-.283-.027.019a3.145 3.145 0 0 1-.23.153c-.072.041-.146.075-.22.11l-.078.036a.022.022 0 0 0-.003-.006.03.03 0 0 0-.038-.009 1.073 1.073 0 0 0-.258.203 6.884 6.884 0 0 0-.036.035l-.003.004-.001.001v.001a.794.794 0 0 0-.05.053.126.126 0 0 1-.03.031c-.014.01-.053.01-.049-.017v-.004h-.002a1.391 1.391 0 0 1-.07.038l-.003.002a.036.036 0 0 0-.016-.002.028.028 0 0 0-.016.005 1.437 1.437 0 0 0-.212.208l-.007.008-.006.009-.008.009-.002.003-.003.004-.007.01-.005.008a.033.033 0 0 1-.02.01l-.003-.005-.006-.008-.003-.007-.003-.004a.514.514 0 0 1-.02-.036v-.002l-.002-.005-.003-.006c.024-.026.048-.053.07-.08l.005-.006.024-.03.037-.047.009-.01.005-.008c.025-.032.049-.064.07-.095l.002-.003.004-.006.006-.008a1.07 1.07 0 0 0 .056-.093l.001-.003.003-.005.002-.004.001-.004a.577.577 0 0 0 .022-.053l.002-.006.001-.004a.24.24 0 0 0 .011-.036l.001-.005.002-.008a.444.444 0 0 0 .006-.025.02.02 0 0 0-.003-.015.72.72 0 0 1 .085-.119.09.09 0 0 0-.006.003c-.018.012-.032.026-.047.04a.365.365 0 0 1-.036.032c-.025.019-.07-.012-.041-.033a.538.538 0 0 0 .051-.047c.038-.044.077-.082.118-.118l.01-.007.059-.046.007-.006.003-.003a.502.502 0 0 1 .05-.056l.001-.001.001-.001c.132-.128.32-.174.51-.22.121-.03.243-.06.354-.112a.394.394 0 0 1 .202-.005.48.48 0 0 0 .159.005.334.334 0 0 1 .203.045 7.582 7.582 0 0 0-.448.27l-.127.08Zm.377-1.615h.18c-.012.025-.047.03-.07.032-.018.002-.03.003-.02.013.068.067.203.045.293 0a.372.372 0 0 1 .226-.045c.022 0 .022-.045.022-.068.058.019.12.026.18.023.542-.113 1.06-.225 1.556-.473-.5-.385-1.116-.556-1.72-.724a28.771 28.771 0 0 1-.309-.087.22.22 0 0 1 .068.015c.045.015.09.03.135-.015-.061-.049-.13-.058-.197-.067a.408.408 0 0 1-.164-.045c.005 0 .012 0 .018.002.024.004.055.01.073-.025-.12-.06-.24-.08-.361-.1a2.3 2.3 0 0 1-.18-.035.22.22 0 0 0 .18-.225c0-.023-.045-.023-.068-.023-.27.136-.45.383-.563.676.1.057.21.05.317.044.061-.003.121-.007.178.001-.05.05-.124.063-.197.075l-.073.015c-.07.017-.136.068-.113.113a.08.08 0 0 0 .051.032.32.32 0 0 0-.141.08c.064.048.129.04.193.03a.546.546 0 0 1 .078-.007c0 .03.02.04.04.05.01.005.02.01.027.017a.406.406 0 0 0-.225.203c-.027.068-.079.11-.13.154a.58.58 0 0 0-.096.094v.067c-.076.07-.156.13-.234.19-.152.118-.3.232-.42.396.023 0 .023.022.023.045a.286.286 0 0 1-.079.072c-.034.025-.067.048-.079.085 0 .023 0 .045.023.045.141-.047.265-.125.385-.201.11-.07.218-.139.336-.181.097-.024.18-.068.261-.11.07-.037.14-.072.213-.093.056-.011.118-.028.18-.045.062-.017.124-.034.18-.045 0 .022 0 .045.023.045zm1.04 1.985.005-.004.004-.004a.42.42 0 0 0 .09-.087.121.121 0 0 1-.01-.005c-.03.031-.06.064-.09.1zM14.972 9l-.047.035c.026-.001.047-.008.047-.035z" clip-rule="evenodd" fill-rule="evenodd"/>
  <path fill="#E1000F" d="M32.81 0H19.976a.57.57 0 0 1 .122.057l.324.172c.173.08.321.204.43.36.045.068.112.203.067.293-.045.112-.067.292-.18.338-.135.067-.316.067-.474.045a1.136 1.136 0 0 1-.27-.045c.338.135.653.292.879.608.023.045.113.067.203.067.022 0 .022.045.022.068-.045.045-.09.067-.067.135h.067c.113-.045.09-.27.248-.203.116.071.155.22.09.338a2.38 2.38 0 0 1-.27.225.192.192 0 0 0 0 .158.69.69 0 0 1 .113.27c.067.158.09.338.157.495.09.338.18.676.158 1.014 0 .18-.09.338-.022.518.045.18.157.315.248.473.09.135.18.225.248.36.135.225.383.45.27.72-.067.158-.315.136-.473.226-.135.112-.022.293.045.405.113.203-.135.338-.293.406.045.067.135.045.158.09.022.112.135.18.068.292-.09.135-.361.203-.226.406.09.157.031.332-.022.495-.068.203-.248.293-.406.338a.922.922 0 0 1-.428.022.321.321 0 0 0-.136-.045c-.383-.045-.766-.157-1.15-.157a1.297 1.297 0 0 0-.315.09 2 2 0 0 0-.273.24l-.003.004a1.782 1.782 0 0 0-.049.054l-.029.035a2.132 2.132 0 0 0-.207.3l-.017.031a2.15 2.15 0 0 0-.17.413c-.154.516-.087.959.02 1.066.03.03.745.25 1.242.471.184.077.362.167.532.27h12.604z"/>
  <path fill="gray" d="M20.74 4.347c.09.023.225.023.225.068-.045.18-.316.225-.451.405h-.067c-.068.045-.046.158-.113.158A.32.32 0 0 0 20.13 5c.09.09.203.158.338.136a.1.1 0 0 1 .068.09.07.07 0 0 0 .045-.023c.022 0 .045 0 .045.023v.09c-.068.09-.18.045-.27.067.17.045.348.045.518 0 .135-.045 0-.27.09-.383-.045 0 0-.067-.045-.067.045-.045.09-.113.135-.135a.16.16 0 0 0 .135-.068c0-.045-.09-.067-.067-.112.135-.09.248-.226.203-.36-.023-.068-.203-.068-.316-.113-.113-.045-.248 0-.383.022-.113 0-.226.068-.338.09a1.56 1.56 0 0 0-.429.226c.162-.059.328-.104.496-.136.135 0 .25-.033.383 0z"/>
  <path fill="#1E1E1E" d="M.035 26.814H1.73V20.83l1.862 3.122h1.193l1.861-3.122v5.982H8.34V18.47H6.228l-2.04 3.504-2.041-3.504H.035Zm10.814 0h1.695v-8.342h-1.695zm4.208 0h1.694v-6.03l3.735 6.03h2.171v-8.342h-1.694v6.03l-3.735-6.03h-2.171Zm10.115 0h1.694v-8.342h-1.694zm3.456-1.156c.74.881 1.682 1.394 3.09 1.394 1.54 0 2.756-.942 2.78-2.515 0-2.86-3.794-2.43-3.794-3.944 0-.5.394-.882.99-.882.633 0 1.182.417 1.67 1.049l1.242-1.12c-.716-.847-1.67-1.407-2.924-1.407-1.598 0-2.696 1.097-2.696 2.42 0 2.824 3.794 2.407 3.794 3.944 0 .596-.406.953-1.074.953-.68 0-1.348-.381-1.849-1.025zm6.908-5.65h2.578v6.806h1.694v-6.805h2.577v-1.537h-6.849zm10.198-2.251h1.551l-1.348-1.61h-1.742zm-1.682 9.057h4.868v-1.407h-3.174v-2.145h2.697v-1.406h-2.697v-1.978h3.174V18.47h-4.868Zm7.016 0h1.694V23.44h.871l2.231 3.373h1.993l-2.613-3.695c.859-.393 1.348-1.144 1.348-2.157 0-1.549-1.133-2.49-2.97-2.49h-2.554zm2.649-6.936c.716 0 1.133.429 1.133 1.06 0 .68-.417 1.097-1.133 1.097h-.955v-2.157zm5.392 6.936h4.868v-1.407h-3.174v-2.145H63.5v-1.406h-2.697v-1.978h3.174V18.47h-4.868ZM.035 39.327h3.281c2.65 0 4.439-1.92 4.439-4.171 0-2.253-1.79-4.171-4.439-4.171H.036Zm3.305-6.805c1.551 0 2.673 1.144 2.673 2.634 0 1.477-1.122 2.633-2.673 2.633H1.73v-5.267zm11.153 3.682c0 1.12-.644 1.776-1.682 1.776-1.062 0-1.694-.656-1.694-1.776v-5.22H9.422v5.077c0 2.193 1.289 3.504 3.377 3.504 2.1 0 3.388-1.311 3.388-3.504v-5.077h-1.694zm6.394-3.682h2.578v6.805h1.694v-6.805h2.577v-1.537h-6.849zm8.516 6.805h1.694v-3.373h.871l2.231 3.372h1.993l-2.613-3.694c.86-.393 1.348-1.144 1.348-2.157 0-1.55-1.133-2.49-2.97-2.49h-2.554Zm2.649-6.936c.716 0 1.133.429 1.133 1.06 0 .68-.417 1.097-1.133 1.097h-.955V32.39zm4.703 6.935h1.802l.8-2.169h3.34l.8 2.17h1.801l-3.162-8.343h-2.219zm3.126-3.61 1.146-3.135 1.145 3.135zm5.102-4.732 3.162 8.342h2.219l3.162-8.342h-1.802l-2.47 6.52-2.47-6.52zm8.227 8.342h1.802l.8-2.169h3.34l.8 2.17h1.801l-3.162-8.343h-2.219Zm3.126-3.61 1.146-3.135 1.145 3.135zm6.886 3.61h1.694v-8.342h-1.694zm4.207 0h4.868V37.79h-3.173v-6.805h-1.695zm7.561 1.907 1.384-3.563h-1.706l-1.086 3.563zM.035 51.84h3.281c2.65 0 4.439-1.918 4.439-4.17 0-2.253-1.79-4.172-4.439-4.172H.036Zm3.305-6.804c1.551 0 2.673 1.144 2.673 2.633 0 1.478-1.122 2.634-2.673 2.634H1.73v-5.267zm6.228 6.804h4.868v-1.406h-3.174v-2.145h2.696v-1.406h-2.696v-1.978h3.174v-1.407H9.568zm10.29 0h4.869v-1.537h-3.174v-6.805H19.86zm6.094-4.91 1.384-3.432h-1.718l-1.074 3.433zm2.882 4.91h4.868v-1.406h-3.174v-2.145h2.696v-1.406h-2.696v-1.978h3.174v-1.407h-4.868zm7.015 0h1.695v-5.982l1.86 3.122h1.194l1.861-3.122v5.982h1.694v-8.342h-2.111l-2.04 3.504-2.04-3.504h-2.113zm10.814 0h1.695v-3.372h1.062c1.837 0 2.959-.942 2.959-2.479 0-1.55-1.122-2.49-2.96-2.49h-2.756zm2.828-6.935c.716 0 1.146.429 1.146 1.06 0 .68-.43 1.097-1.146 1.097h-1.133v-2.157zm4.468 6.935h4.868v-1.537h-3.174v-6.805H53.96zm9.957-8.58c-2.637 0-4.438 2.026-4.438 4.41 0 2.383 1.801 4.409 4.438 4.409 2.625 0 4.427-2.026 4.427-4.41 0-2.383-1.802-4.409-4.427-4.409zm0 7.234c-1.575 0-2.696-1.228-2.696-2.825 0-1.597 1.121-2.824 2.696-2.824 1.563 0 2.685 1.227 2.685 2.824 0 1.597-1.122 2.825-2.685 2.825zm6.23 1.346h1.694v-8.342h-1.695ZM.035 64.352h4.867v-1.406H1.73v-2.145h2.697v-1.406H1.729v-1.978h3.174V56.01H.035zm6.33-6.804h2.578v6.804h1.694v-6.804h2.577V56.01H6.367Zm11.792 6.804h3.28c2.65 0 4.44-1.918 4.44-4.17 0-2.253-1.79-4.172-4.44-4.172h-3.28zm3.305-6.804c1.55 0 2.672 1.144 2.672 2.633 0 1.478-1.121 2.634-2.672 2.634h-1.611v-5.267zm6.227 6.804h4.868v-1.406h-3.174v-2.145h2.697v-1.406h-2.697v-1.978h3.174V56.01H27.69zm10.291 0h4.868v-1.537h-3.173V56.01H37.98zm6.093-4.91 1.384-3.432H43.74l-1.074 3.433zm2.882 4.91h1.695V56.01h-1.695zm4.208 0h1.694v-6.03l3.735 6.03h2.171V56.01H57.07v6.03l-3.735-6.03h-2.171zm9.363-1.156c.74.882 1.682 1.395 3.09 1.395 1.54 0 2.756-.942 2.78-2.515 0-2.86-3.794-2.43-3.794-3.944 0-.5.394-.882.99-.882.633 0 1.182.417 1.67 1.049l1.242-1.12c-.716-.847-1.67-1.407-2.924-1.407-1.598 0-2.696 1.096-2.696 2.42 0 2.824 3.794 2.406 3.794 3.944 0 .596-.406.953-1.074.953-.68 0-1.348-.381-1.849-1.025zm7.826 1.156h4.868v-1.406h-3.174v-2.145h2.696v-1.406h-2.696v-1.978h3.174V56.01h-4.868zm7.015 0h1.695V60.98h.87l2.232 3.372h1.992l-2.613-3.694c.86-.393 1.349-1.144 1.349-2.157 0-1.55-1.134-2.49-2.971-2.49h-2.554zm2.65-6.935c.715 0 1.133.429 1.133 1.06 0 .68-.418 1.097-1.134 1.097h-.954v-2.157zm4.16.13h2.577v6.805h1.694v-6.804h2.577V56.01h-6.848zm8.515 6.805h1.694V56.01h-1.694zm7.93-8.58c-2.636 0-4.438 2.026-4.438 4.41 0 2.383 1.802 4.409 4.438 4.409 2.625 0 4.427-2.026 4.427-4.41 0-2.383-1.802-4.409-4.427-4.409zm0 7.234c-1.575 0-2.696-1.228-2.696-2.825 0-1.596 1.121-2.824 2.696-2.824 1.563 0 2.685 1.228 2.685 2.824 0 1.597-1.122 2.825-2.685 2.825zm6.23 1.346h1.694v-6.03l3.734 6.03h2.172V56.01h-1.694v6.03l-3.735-6.03h-2.17z"/>
  <path fill="#000" d="m30.998 85.624-1.11 1.013h-.286l.656-1.156h.74zm-.8 3.921h-.238c-.299.358-.633.644-.955.644-.334 0-.501-.203-.501-.644 0-.179.024-.369.06-.536l1.944-.644c.382-.905-.071-1.299-.608-1.299-.919 0-1.969 1.609-1.969 2.896 0 .608.287.942.74.942.525-.012 1.074-.525 1.527-1.359zm-.668-1.954c.263 0 .49.202.37.667l-1.205.322c.19-.572.549-.99.835-.99zm-3.794.024h.644l-1.026 2.812c-.095.238.036.477.287.477.727 0 1.598-.62 1.932-1.502h-.179c-.262.37-.835.775-1.264.846l.942-2.633h.967l.119-.406h-.943l.358-1.013h-.37l-.668 1.013-.8.108zm-.895-.537c.131 0 .31.143.227.405l-1.158 2.801c.299-.048.609-.334.788-.596h.19c-.274.703-.894 1.216-1.431 1.216-.131 0-.322-.143-.227-.405l1.074-2.801c-.298.048-.608.334-.787.596h-.18c.275-.715.943-1.216 1.504-1.216zm.334-.715a.44.44 0 1 0 0-.882.44.44 0 1 0 0 .882zm-5.214 2.324c.263-.572.167-.834 0-.834-.143 0-.31.155-.477.441h-.18c.275-.608.633-1.216 1.027-1.216.334 0 .453.334.453.703v.525l.16-.186c.503-.59.888-1.042 1.332-1.042.346 0 .525.215.525.537 0 .19-.06.429-.191.679l-.99 1.99c.298-.048.608-.334.787-.596h.18c-.275.715-.944 1.216-1.504 1.216a.325.325 0 0 1-.287-.477l1.146-2.205c.131-.25.155-.417-.048-.417-.274 0-.919.453-1.265.87l-.751 1.978c-.084.203-.167.251-.358.251-.31 0-.466-.203-.322-.525zm-.775-.763c.13-.452.06-.858-.287-.858-.431 0-.566.285-.985 1.166l-.029.062v-.525c0-.369-.12-.703-.453-.703-.394 0-.752.608-1.026 1.216h.179c.19-.274.37-.441.513-.441.167 0 .262.262 0 .834l-.764 1.692c-.143.322.012.525.322.525.191 0 .275-.048.358-.25l.752-1.979c.215-.262.406-.488.644-.739zm-3.77.334c.119-.465-.108-.667-.37-.667-.287 0-.645.417-.836.989zm.298 1.287h-.239c-.298.358-.632.644-.955.644-.334 0-.5-.203-.5-.644 0-.179.023-.369.059-.536l1.945-.644c.382-.905-.072-1.299-.609-1.299-.918 0-1.968 1.609-1.968 2.896 0 .608.286.942.74.942.524-.012 1.073-.525 1.527-1.359zm-3.818-1.93h-.645v-.298l.8-.108.668-1.013h.37l-.358 1.013h.942l-.119.406h-.966l-.943 2.633c.43-.071 1.002-.476 1.265-.846h.179c-.334.882-1.205 1.502-1.933 1.502-.25 0-.382-.239-.287-.477zm-4.057 2.18c0-.87.966-2.037 1.503-2.037a1 1 0 0 1 .334.047l-.56 1.502c-.323.393-.824.87-1.062.87-.132 0-.215-.119-.215-.382zm2.66-2.907.299.023-1.038 2.384c-.25.572-.143.834 0 .834s.322-.167.513-.441h.179c-.275.608-.633 1.216-1.026 1.216-.334 0-.537-.358-.478-1.001l.024-.227-.065.091c-.427.597-.814 1.137-1.211 1.137-.346 0-.525-.215-.525-.537 0-1.382 1.515-3.146 2.935-3.146h.06zm-2.732 1.036c.132-.452.06-.858-.286-.858-.432 0-.567.285-.985 1.166l-.03.062v-.525c0-.369-.119-.703-.453-.703-.393 0-.751.608-1.026 1.216h.18c.19-.274.37-.441.5-.441.167 0 .263.262 0 .834l-.763 1.704c-.143.322.012.525.322.525.19 0 .274-.048.358-.251l.752-1.978c.214-.262.405-.488.644-.739h.787Zm-4.915 2.622-.072.215H0l.072-.227c.859-.155 1.002-.226 1.36-1.191l.775-2.074c.346-.965.275-1.037-.477-1.192l.072-.214h3.615l-.215 1.156H4.94c0-.692-.072-.87-.728-.87h-.167c-.644 0-.728.095-.907.596l-.513 1.394h.752c.5 0 .692-.31.918-.715h.263l-.62 1.692h-.263c.06-.512.06-.715-.406-.715h-.751l-.346.953c-.375.993-.268 1.013.623 1.181l.057.011zm2.362-14.038-1.11.798v.012h-.286l.656-.953h.74Zm7.755 5.59 1.778-4.72-.06-.072-1.228.143v.143l.238.18c.204.158.15.305-.02.767l-.027.078-1.36 3.623a.325.325 0 0 0 .286.477c.56 0 1.157-.513 1.431-1.216h-.178c-.191.262-.573.548-.86.596zm8.15-3.636 1.11-1.013v-.143h-.74l-.657 1.156zm.071 2.896h.239c-.442.846-.99 1.359-1.516 1.359-.453 0-.74-.334-.74-.942 0-1.287 1.05-2.896 1.97-2.896.524 0 .99.394.608 1.3l-1.957.643a2.62 2.62 0 0 0-.06.536c0 .441.167.644.502.644.322 0 .656-.286.954-.644zm-.06-1.287c.12-.453-.107-.655-.37-.655-.274 0-.632.417-.835.977zm-3.507-.631h-.645v-.298l.8-.108.668-1.013h.37l-.358 1.013h.942l-.119.406h-.966l-.943 2.633c.43-.071 1.002-.476 1.265-.846h.179c-.334.882-1.205 1.502-1.933 1.502-.25 0-.382-.239-.286-.477zm-1.313-.143c.072-.263-.095-.406-.238-.406-.561 0-1.23.513-1.504 1.216h.18c.178-.262.488-.548.787-.596l-1.074 2.8c-.096.263.095.406.227.406.536 0 1.157-.513 1.431-1.216h-.179c-.179.262-.489.548-.787.596zm.549-1.55a.448.448 0 0 1-.441.441.44.44 0 1 1 0-.882c.238 0 .441.203.441.441zm-6.025 1.836c-.537 0-1.504 1.167-1.504 2.037 0 .263.084.382.227.382.227 0 .728-.477 1.05-.87l.56-1.502a1.03 1.03 0 0 0-.333-.047Zm1.455-.847-.298-.023-.334.333h-.06c-1.42 0-2.935 1.764-2.935 3.146 0 .322.18.537.525.537.398 0 .785-.54 1.212-1.137l.065-.09-.024.226c-.06.643.143 1 .477 1 .394 0 .752-.607 1.026-1.215h-.179c-.19.274-.37.441-.513.441-.143 0-.25-.262 0-.834zm-6.013 3.862c-.513.202-.871.44-.871.81 0 .346.322.489.99.489.895 0 1.384-.263 1.384-.608 0-.155-.203-.227-.74-.405a5.342 5.342 0 0 1-.763-.286Zm.597-1.466c-.24 0-.323-.203-.323-.417 0-.692.334-1.55.871-1.55.239 0 .323.203.323.418-.012.703-.346 1.549-.871 1.549zm.453 1.12c.656.203 1.062.357 1.062.81 0 .584-1.074 1.275-2.375 1.264-.751 0-1.395-.203-1.395-.692 0-.464.429-.846 1.479-1.156a.419.419 0 0 1-.203-.38c0-.287.263-.513.716-.728-.441-.06-.728-.393-.728-.882 0-.75.62-1.609 1.599-1.609.203 0 .382.048.525.143H9.08l-.12.406h-.632c.036.107.06.226.06.357 0 .727-.585 1.561-1.516 1.609-.238.131-.358.31-.358.453 0 .168.196.225.627.35l.185.055zm-3.782-2.038c.465 0 .477.203.405.715h.263l.62-1.692H4.57c-.227.405-.418.715-.919.715H2.625l.501-1.394c.179-.5.263-.596.907-.596h.453c.656 0 .728.179.728.87h.262l.215-1.156h-3.89l-.07.214c.75.155.822.227.476 1.192l-.775 2.086c-.358.965-.501 1.036-1.372 1.191l-.06.227h4.32l.775-1.228h-.299c-.5.489-1.002.942-1.98.942-1.076 0-1.057-.053-.734-.939l.066-.182.358-.953h1.038zm3.567-10.213a.448.448 0 0 0 .442-.44.448.448 0 0 0-.442-.442.44.44 0 0 0-.441.441c0 .25.19.441.441.441zM8.15 74.53c.93.012 2.494-1.704 2.494-3.027 0-.572-.143-.787-.55-.787-.5 0-.965.536-1.43 1.18l1.001-2.681-.06-.084-1.228.143v.143l.239.18c.207.16.147.322-.03.796l-.018.05-1.086 2.835c-.096.239-.203.525-.203.596 0 .334.454.656.871.656zm12.838-4.243 1.11-1.013v-.143h-.74l-.656 1.156zm.072 2.896h.239c-.454.846-1.003 1.359-1.528 1.347-.453 0-.74-.322-.74-.93 0-1.287 1.05-2.896 1.97-2.896.524 0 .99.394.608 1.3l-1.945.643a2.62 2.62 0 0 0-.06.536c0 .441.167.644.501.644.323 0 .657-.286.955-.644zM21 71.896c.12-.453-.107-.655-.37-.655-.286 0-.644.417-.835.977zm-3.52-.632h-.644v-.298l.8-.107.668-1.013h.37l-.358 1.013h.942l-.12.405h-.966l-.942 2.634c.43-.071 1.002-.477 1.265-.846h.179c-.334.882-1.205 1.502-1.933 1.502-.25 0-.382-.239-.287-.477zm-.978.31c.131-.453.06-.858-.286-.858-.432 0-.567.285-.985 1.166l-.03.062v-.525c0-.37-.119-.703-.453-.703-.394 0-.751.608-1.026 1.216h.179c.19-.274.37-.441.501-.441.167 0 .263.262 0 .834l-.763 1.692c-.144.322.012.525.322.525.19 0 .274-.048.358-.25l.751-1.979c.215-.262.406-.488.645-.739zm-3.782.322c.12-.453-.107-.655-.37-.655-.286 0-.632.417-.835.977zm.298 1.287h-.238c-.299.358-.633.644-.955.644-.334 0-.501-.203-.501-.644 0-.179.024-.37.06-.536l1.944-.644c.382-.905-.071-1.299-.608-1.299-.919 0-1.969 1.61-1.969 2.896 0 .608.287.93.74.93.525.012 1.074-.5 1.527-1.347zm-5.011.453c0 .155.274.334.465.334.776 0 1.504-1.395 1.492-2.17 0-.261-.131-.369-.31-.369-.287 0-.812.43-1.146.835l-.31.834c-.107.274-.191.488-.191.536Zm-1.253-2.92c.143 0 .31.143.239.406l-1.146 2.8c.299-.048.609-.334.788-.596h.179c-.275.703-.895 1.216-1.432 1.216-.143 0-.334-.143-.239-.406l1.074-2.8c-.298.048-.608.334-.787.596h-.18c.275-.703.943-1.216 1.504-1.216Zm-4.951-1.24h2.565l-.072.227c-.87.155-1.014.227-1.372 1.192l-.763 2.097c-.37 1.001-.275 1.12.381 1.12.811 0 1.343-.588 1.807-1.102l.102-.113h.299L3.902 74.4H0l.072-.215c.859-.155 1.002-.226 1.36-1.192l.775-2.109c.346-.965.275-1.037-.477-1.192z" clip-rule="evenodd" fill-rule="evenodd"/>
</svg>
