<svg xmlns="http://www.w3.org/2000/svg" fill="#fc5d5d" height="157.81" width="304.03">
  <g data-name="Calque 2">
    <g data-name="Calque 1">
      <path d="M0 95.69Q.29 98 4.21 99.16a2.08 2.08 0 0 0 .89.22h.76a2.31 2.31 0 0 0 2.34-1.47 81.87 81.87 0 0 0 3.66-13.15c.65-3.15 1.26-5.8 1.81-7.93s1-3.83 1.38-5.09a13.38 13.38 0 0 1 7.15-2.95l8-.85a77.55 77.55 0 0 1 4.16 14.9Q36 91.06 41.83 92c.55 0 1.44-.58 2.68-1.7a5.33 5.33 0 0 0 1.93-4.16 10.41 10.41 0 0 0-.76-3.29q-3.34-9.14-6.61-20.45t-6.45-25.15c-.19-1.57-.41-3.18-.68-4.82s-.53-3.25-.79-4.82q-1-5.64-4.39-8.41a4.55 4.55 0 0 0-3-1 2.87 2.87 0 0 0-2.92 1.7q-1.44 3.79-3.05 9.1t-3.5 12.38Q10 57.57 8 63.38c-.15.55-.89 1-2.22 1.33a3.83 3.83 0 0 0-2.46 1.11 1.57 1.57 0 0 0-.5 1.18c0 .47.57 1.13 1.69 2s1.56 1.46 1.57 2.09Q5.8 75 2.4 83.63a30.07 30.07 0 0 0-2.4 11v1.06Zm18.15-34.5q2.45-9.7 5.85-19.66c.42 1.56.82 3.13 1.2 4.69s.79 3.13 1.21 4.69c.42 1.73.76 3.39 1 5s.48 3.19.67 4.76a79.13 79.13 0 0 0-9.9.52Zm42.76 36.15c.26 1.57.91 2.5 1.94 2.8l2.25 1a4.25 4.25 0 0 0 2.14.67A2.47 2.47 0 0 0 69 101q2-1.09 1.93-4.27v-.47a337.97 337.97 0 0 1-.8-18.26c-.05-3-.13-6.35-.13-9.81s-.1-6.91-.12-10.37 0-6.82.12-10.08.28-6.31.55-9.15c.14-1.1.48-1.66 1-1.67.24 0 .44.23.6.7q3 7.85 5.81 15.22t5.49 13.82q2.66 6.44 5 11.76t4.28 8.94q2.56 4.9 6.22 4.84a4.7 4.7 0 0 0 3.22-1.41 4.16 4.16 0 0 0 1.42-3.15 38.34 38.34 0 0 1-.31-4.3c0-1.37 0-2.72-.08-4.06q-.11-6.36.29-14.15t1.17-17.35l2.6-31.78a2.51 2.51 0 0 0-1.56-1.63l-2.25-.55a10.54 10.54 0 0 0-2.49-.31c-2.12 0-3.24.85-3.37 2.42l-3.83 51.25q-2.33-5.27-5-12.29t-5.5-14.75Q80.41 32.06 78 26.32T73.54 17A15.3 15.3 0 0 0 70 14.79a7.23 7.23 0 0 0-2.61-.66q-4.48.07-4.55 2.67l-1.96 31.63Q59.8 67.18 60 79.68c.09 4.87.28 9.46.6 13.78l.3 3.88Zm65.1-7.5c1 1.4 2 2.09 3.1 2.07a3.11 3.11 0 0 0 1.41-.38A51.23 51.23 0 0 0 137 88q3.44-2.18 7.4-5.08L158 72.9a3 3 0 0 0 .67-2 5.52 5.52 0 0 0-.75-2.34 3.65 3.65 0 0 0-3.45-1.83 15.05 15.05 0 0 0-2.18.28 16.73 16.73 0 0 1-2.06.27 26.77 26.77 0 0 0-3.32 2c-1.36.93-3 2.08-5 3.45a47.15 47.15 0 0 1-8.52 5.1l-.06-3.3c-.05-3.14-.06-6.84 0-11.08s.21-9.08.51-14.51q.34-7.43.48-13.27c.09-3.89.1-7.37.05-10.43 0-1-.05-2-.11-2.83s-.09-1.69-.1-2.47q-.76-3.29-5.25-3.21a5.27 5.27 0 0 0-3.86 1.6c.19 1.8.34 3.63.45 5.47s.18 3.79.22 5.83q.15 8.84-1.27 28.43-.57 8.15-.75 14.69c-.12 4.36-.15 8.24-.09 11.61v2.6l2.3 2.9Zm76.28 11.76a2.56 2.56 0 0 0 2.63-1.23 5.31 5.31 0 0 0 1.18-3.44 3.24 3.24 0 0 0-1.94-2.93q-.94-.34-2.49-.84a22 22 0 0 1-2.49-1 17.9 17.9 0 0 1-4.06-2.58q-1.32-1.22-2.64-2.49T189.36 84c-1.2-1.27-2.49-2.72-3.85-4.35q-6.8-10.73-7-20.86a48.91 48.91 0 0 1 .77-10.09 41.31 41.31 0 0 1 2.33-8.12 30.48 30.48 0 0 1 3.39-6.22 28.91 28.91 0 0 1 3.88-4.43 18.8 18.8 0 0 1 6.47-4.24 47.54 47.54 0 0 1 5.46-1.39 4.38 4.38 0 0 0 2.92-1.88 5.69 5.69 0 0 0 .77-3c0-1.42-.32-2.27-.87-2.58a9.91 9.91 0 0 0-6-1.9q-3.78.08-8.67 3.1a49 49 0 0 0-10.57 9.5 39.31 39.31 0 0 0-6.59 11.31 43.38 43.38 0 0 0-2.71 17q.07 3.88.64 9.48a49.87 49.87 0 0 0 2.56 11.33 26.15 26.15 0 0 0 3.89 6.83 53.56 53.56 0 0 0 7 7.6 56.81 56.81 0 0 0 9 6.62 30.8 30.8 0 0 0 9.85 3.89Zm28.39-76.41c-.08 0-.12-.15-.13-.47a4.55 4.55 0 0 1 .1-1.18c0-.78-.14-1.18-.38-1.17a1.38 1.38 0 0 0-.7.36 9.35 9.35 0 0 0-4.5-1.21 4.16 4.16 0 0 0-4 2.3c.09 1 .17 2 .23 3s.09 2 .11 3q.08 4-.36 9.85t-1.23 14q-.81 8.14-1.17 14t-.3 9.9c0 1.57.09 3.09.2 4.54s.24 2.84.43 4.17q.54 4.13 5.61 4.27a4.39 4.39 0 0 0 4.55-3.26c-.1-1-.16-2-.17-3s0-2-.06-3c0-2.75 0-6.15.24-10.2s.53-8.79 1-14.22.78-10.15 1-14.17.28-7.35.24-10c0-1.25-.07-2.47-.13-3.65s-.14-2.32-.23-3.41l-.36-.47Zm14.54 8.9a5.32 5.32 0 0 0 .86 3.33 1.1 1.1 0 0 0 .59.48 2 2 0 0 0-.07.23 2.33 2.33 0 0 0 .45 1.76q6.06 8.45 20.85 10.52a91.07 91.07 0 0 0 11 .76q10.85.22 21.82-8.12a1.49 1.49 0 0 0 .53-1 4.59 4.59 0 0 0-.25-2.15 2 2 0 0 0 1.36-.82 3.45 3.45 0 0 0 .89-1.77 2.38 2.38 0 0 0-.52-1.82q-6.6-8.61-22.33-10.49a98.41 98.41 0 0 0-11.7-.63q-11.51-.06-22.95 8.69a1.48 1.48 0 0 0-.53 1.08Zm31.51 11.58c.4-.29.8-.57 1.2-.91a14.32 14.32 0 0 0 3-4 10.06 10.06 0 0 0 1.07-4.47v-.89a5.14 5.14 0 0 0-.14-.83l-.11-.54a11.32 11.32 0 0 0-.37-2 5.5 5.5 0 0 0-.53-1.17 44.09 44.09 0 0 1 17.74 7.54 36.42 36.42 0 0 1-21.84 7.28ZM269.61 39a9.78 9.78 0 0 1 3.86-8 1.68 1.68 0 0 1 .81-.37 3.42 3.42 0 0 1 1 .32v-.05a2.38 2.38 0 0 1 1.18 1.5v-.06l.32 1.29c.14.47.27.93.37 1.4a5.79 5.79 0 0 1 .17 1.34c0 2.28-1.31 4.52-3.92 6.7-.86.75-1.43 1.12-1.72 1.12a.47.47 0 0 1-.37-.21 7.37 7.37 0 0 1-1.7-4.98Zm-5 .53a9.31 9.31 0 0 0 1.21 4.75 40.2 40.2 0 0 1-15.67-7.8 38.72 38.72 0 0 1 17.43-6.28 9.92 9.92 0 0 0-1 1.77h.05a17.05 17.05 0 0 0-2 7.56ZM243.68 9.26q5.08-7 15.95-8.71 7.23-1.14 18.37.08c1 0 5.07.85 12.29 2.4 1.2.22 2.4.46 3.59.73s2.38.51 3.59.73A11.21 11.21 0 0 1 303.34 8a3 3 0 0 1 .62 1.5 5.16 5.16 0 0 1-.16 2.39c-.24.75-.58 1.16-1 1.23a2.76 2.76 0 0 1-.54-.06Q280.87 6 268.6 6.08a63.91 63.91 0 0 0-8.67.68Q250 8.35 246 14c-.29.4-4-2.45-2.28-4.75ZM10.46 126.81H4.35L3 130.61H.54L6 116.09h2.84l5.47 14.52h-2.48Zm-.7-1.92-1.67-4.66-.66-2.09h-.07l-.61 2L5 124.89ZM26 129.65a2.51 2.51 0 0 1 .92 2.06 2.79 2.79 0 0 1-.73 1.94 4.78 4.78 0 0 1-2 1.25 8.73 8.73 0 0 1-2.89.44 7.84 7.84 0 0 1-3.93-.77 2.31 2.31 0 0 1-1.31-2 1.84 1.84 0 0 1 .52-1.31 2.88 2.88 0 0 1 1.44-.8 3.17 3.17 0 0 1-1.12-.85 1.92 1.92 0 0 1-.42-1.24 2.21 2.21 0 0 1 1.72-2.2 3.34 3.34 0 0 1-1.27-1.26 3.61 3.61 0 0 1-.43-1.76 3.26 3.26 0 0 1 .6-1.94 3.66 3.66 0 0 1 1.68-1.31 6.33 6.33 0 0 1 2.5-.47 6.63 6.63 0 0 1 2.22.36 3.21 3.21 0 0 1 1.11-1.84 3.26 3.26 0 0 1 2.12-.61l.4 1.83a4.19 4.19 0 0 0-1.71.26 1.63 1.63 0 0 0-.89.86 3.54 3.54 0 0 1 1.12 1.23 3.31 3.31 0 0 1 .4 1.63 3.27 3.27 0 0 1-1.31 2.71 5.54 5.54 0 0 1-3.46 1 7.83 7.83 0 0 1-1.83-.2 1.46 1.46 0 0 0-.8.43 1.17 1.17 0 0 0-.26.78.92.92 0 0 0 .37.78 1.57 1.57 0 0 0 1 .28h3.67a4 4 0 0 1 2.57.72Zm-2 3.47q.9-.47.9-1.14a.94.94 0 0 0-.44-.84 2.88 2.88 0 0 0-1.48-.28H20a2.9 2.9 0 0 0-1.48.3 1 1 0 0 0-.5.86 1.27 1.27 0 0 0 .87 1.16 6.4 6.4 0 0 0 2.59.4 5.6 5.6 0 0 0 2.52-.46Zm-4.45-11.49a1.87 1.87 0 0 0-.68 1.48 1.91 1.91 0 0 0 .68 1.51 2.52 2.52 0 0 0 1.7.58 2.49 2.49 0 0 0 1.7-.58 1.9 1.9 0 0 0 .67-1.51 1.86 1.86 0 0 0-.67-1.49 2.76 2.76 0 0 0-3.4 0ZM39.42 126h-8.06a3.57 3.57 0 0 0 1 2.22 3.1 3.1 0 0 0 2.15.75 3.75 3.75 0 0 0 1.8-.38 2.08 2.08 0 0 0 1-1.11l2 .81c-.82 1.7-2.39 2.55-4.73 2.55a5.35 5.35 0 0 1-4-1.51 5.82 5.82 0 0 1-1.58-4.22 5.94 5.94 0 0 1 1.41-4.21 5.18 5.18 0 0 1 4-1.51 4.84 4.84 0 0 1 3.76 1.48 5.56 5.56 0 0 1 1.34 3.91 9.22 9.22 0 0 1-.09 1.22Zm-7.08-4a3.66 3.66 0 0 0-1 2.18h5.96a3.59 3.59 0 0 0-.93-2.16 2.66 2.66 0 0 0-2-.77 2.85 2.85 0 0 0-2.03.75Zm19.47-1.55a3.91 3.91 0 0 1 1.16 3v7.12h-2.36v-6.38c0-1.93-.78-2.9-2.35-2.9a2.91 2.91 0 0 0-2.11.85 3.44 3.44 0 0 0-.88 2.6v5.83h-2.36v-11H45l.11 1.83a3.64 3.64 0 0 1 1.52-1.54 4.66 4.66 0 0 1 2.2-.51 4.26 4.26 0 0 1 2.98 1.1Zm14.8 2.02-2.2.88a2.5 2.5 0 0 0-2.58-2.09 2.75 2.75 0 0 0-2.28 1 4.39 4.39 0 0 0-.82 2.86 4.3 4.3 0 0 0 .82 2.83 3.18 3.18 0 0 0 4.09.44 2.67 2.67 0 0 0 .9-1.58l2.16.73A4.52 4.52 0 0 1 65 130a5.25 5.25 0 0 1-3.1.87 5.37 5.37 0 0 1-4.06-1.51 6.8 6.8 0 0 1 0-8.41 5.31 5.31 0 0 1 4-1.52 4.62 4.62 0 0 1 4.77 3.04ZM79.65 126H71.6a3.52 3.52 0 0 0 1 2.22 3.08 3.08 0 0 0 2.15.75 3.68 3.68 0 0 0 1.79-.38 2 2 0 0 0 1-1.11l2 .81q-1.23 2.55-4.73 2.55a5.39 5.39 0 0 1-4.06-1.51 5.86 5.86 0 0 1-1.46-4.21 5.94 5.94 0 0 1 1.41-4.21 5.18 5.18 0 0 1 4-1.51 4.85 4.85 0 0 1 3.76 1.48 5.61 5.61 0 0 1 1.34 3.91 7.73 7.73 0 0 1-.15 1.21Zm-7.07-4a3.61 3.61 0 0 0-1 2.18h5.94a3.71 3.71 0 0 0-.93-2.16 2.68 2.68 0 0 0-2-.77 2.85 2.85 0 0 0-2.01.75Zm27.08-1.55a3.91 3.91 0 0 1 1.16 3v7.12h-2.36v-6.38c0-1.93-.78-2.9-2.35-2.9a2.91 2.91 0 0 0-2.11.85 3.44 3.44 0 0 0-.88 2.6v5.83h-2.36v-11h2.09l.11 1.83a3.64 3.64 0 0 1 1.52-1.54 4.66 4.66 0 0 1 2.2-.51 4.26 4.26 0 0 1 2.98 1.1Zm15.5 8.55-.15 1.58a3.28 3.28 0 0 1-1.37.26 2.64 2.64 0 0 1-1.5-.37 1.86 1.86 0 0 1-.74-1.25 3.37 3.37 0 0 1-1.5 1.2 5.63 5.63 0 0 1-2.22.42 4.28 4.28 0 0 1-2.6-.74 2.54 2.54 0 0 1-1-2.14 2.74 2.74 0 0 1 1.07-2.19 6.94 6.94 0 0 1 3.22-1.26l2.79-.49v-.59a2.1 2.1 0 0 0-.6-1.59 2.22 2.22 0 0 0-1.64-.59 2.71 2.71 0 0 0-2.84 2l-1.83-1a3.68 3.68 0 0 1 1.62-2.09 5.53 5.53 0 0 1 3-.77 5.34 5.34 0 0 1 3.39 1 3.47 3.47 0 0 1 1.25 2.91v5a.92.92 0 0 0 .19.62.83.83 0 0 0 .63.19 3.69 3.69 0 0 0 .83-.11Zm-4.88-.51a1.73 1.73 0 0 0 .9-1.52v-1.32l-2.4.49a4.29 4.29 0 0 0-1.69.61 1.24 1.24 0 0 0-.55 1.06 1.07 1.07 0 0 0 .43.93 2 2 0 0 0 1.22.32 3.83 3.83 0 0 0 2.09-.58Zm13.72 1.4a4 4 0 0 1-1.29.69 5.12 5.12 0 0 1-1.64.25 3.71 3.71 0 0 1-2.43-.75 3 3 0 0 1-.93-2.37v-6.25h-2.1v-1.85h2.1V117l2.35-.66v3.23h3.85v1.85H120v5.85a1.5 1.5 0 0 0 .43 1.18 1.68 1.68 0 0 0 1.18.39 2.58 2.58 0 0 0 1.78-.71Zm2.63-12.51a1.39 1.39 0 0 1-.42-1.09 1.37 1.37 0 0 1 .42-1.08 1.69 1.69 0 0 1 1.17-.37 1.62 1.62 0 0 1 1.15.37 1.4 1.4 0 0 1 .41 1.08 1.42 1.42 0 0 1-.41 1.09 1.59 1.59 0 0 1-1.15.39 1.65 1.65 0 0 1-1.17-.39Zm2.37 13.23h-2.35v-11H129Zm13-9.7a6.79 6.79 0 0 1 0 8.41 6.12 6.12 0 0 1-8.05 0 6.82 6.82 0 0 1 0-8.41 6.09 6.09 0 0 1 8.05 0Zm-6.32 1.33a5.57 5.57 0 0 0 0 5.75 3.14 3.14 0 0 0 4.61 0 5.45 5.45 0 0 0 0-5.72 3.15 3.15 0 0 0-4.61 0Zm20.11-1.79a3.91 3.91 0 0 1 1.16 3v7.12h-2.36v-6.38c0-1.93-.78-2.9-2.35-2.9a2.91 2.91 0 0 0-2.11.85 3.44 3.44 0 0 0-.88 2.6v5.83h-2.36v-11H149l.11 1.83a3.59 3.59 0 0 1 1.52-1.54 4.66 4.66 0 0 1 2.2-.51 4.26 4.26 0 0 1 2.96 1.1Zm15.5 8.55-.15 1.58a3.28 3.28 0 0 1-1.37.26 2.64 2.64 0 0 1-1.5-.37 1.86 1.86 0 0 1-.74-1.25 3.37 3.37 0 0 1-1.5 1.2 5.63 5.63 0 0 1-2.22.42 4.26 4.26 0 0 1-2.6-.74 2.52 2.52 0 0 1-1-2.14 2.75 2.75 0 0 1 1.08-2.19 7 7 0 0 1 3.21-1.26l2.8-.49v-.59a2.1 2.1 0 0 0-.6-1.59 2.23 2.23 0 0 0-1.65-.59 2.71 2.71 0 0 0-2.83 2l-1.83-1a3.64 3.64 0 0 1 1.62-2.09 5.53 5.53 0 0 1 3-.77 5.34 5.34 0 0 1 3.39 1 3.5 3.5 0 0 1 1.25 2.91v5a.87.87 0 0 0 .19.62.83.83 0 0 0 .63.19 3.69 3.69 0 0 0 .82-.11Zm-4.88-.51a1.73 1.73 0 0 0 .9-1.52v-1.32l-2.4.49a4.29 4.29 0 0 0-1.69.61 1.24 1.24 0 0 0-.55 1.06 1.07 1.07 0 0 0 .43.93 2 2 0 0 0 1.22.32 3.85 3.85 0 0 0 2.09-.58Zm9.85-1.09a2 2 0 0 0 .24 1.14 1.11 1.11 0 0 0 .91.31 3.76 3.76 0 0 0 .71 0 4.24 4.24 0 0 0 .74-.23l-.27 1.89a4 4 0 0 1-1.82.37 2.86 2.86 0 0 1-2.17-.74 3.41 3.41 0 0 1-.69-2.36v-13.12h2.35Zm14.79-1.4H183a3.57 3.57 0 0 0 1 2.22 3.08 3.08 0 0 0 2.15.75 3.75 3.75 0 0 0 1.8-.38 2.08 2.08 0 0 0 1-1.11l1.95.81c-.82 1.7-2.39 2.55-4.73 2.55a5.39 5.39 0 0 1-4.06-1.51 5.86 5.86 0 0 1-1.46-4.21 5.94 5.94 0 0 1 1.41-4.21 5.18 5.18 0 0 1 4-1.51 4.84 4.84 0 0 1 3.76 1.48 5.56 5.56 0 0 1 1.34 3.91 9.22 9.22 0 0 1-.11 1.21Zm-7.05-4a3.66 3.66 0 0 0-1 2.18h5.94A3.65 3.65 0 0 0 188 122a2.66 2.66 0 0 0-2-.77 2.85 2.85 0 0 0-2 .77Z"/>
      <text transform="translate(192.02 130.61)" font-size="22"> </text>
      <path d="M12.18 141.64v16h-2.07l-.13-2a3.81 3.81 0 0 1-1.47 1.59 4.24 4.24 0 0 1-2.23.59 4.46 4.46 0 0 1-3.57-1.51 6.13 6.13 0 0 1-1.31-4.19 6.23 6.23 0 0 1 1.31-4.21 4.45 4.45 0 0 1 3.57-1.53 4.17 4.17 0 0 1 2.14.54 3.64 3.64 0 0 1 1.4 1.46v-6.73ZM9 154.93a4.15 4.15 0 0 0 .81-2.71V152a4.12 4.12 0 0 0-.81-2.7 2.71 2.71 0 0 0-2.2-1 2.69 2.69 0 0 0-2.23 1 4.32 4.32 0 0 0-.81 2.8 4.42 4.42 0 0 0 .81 2.82 2.69 2.69 0 0 0 2.23 1 2.7 2.7 0 0 0 2.2-.99ZM26 153h-8a3.52 3.52 0 0 0 1 2.21 3.06 3.06 0 0 0 2.15.76 3.87 3.87 0 0 0 1.8-.38 2.07 2.07 0 0 0 1-1.12l1.95.82c-.82 1.7-2.39 2.55-4.73 2.55a5.35 5.35 0 0 1-4.05-1.52 5.78 5.78 0 0 1-1.47-4.2 5.92 5.92 0 0 1 1.41-4.21 5.14 5.14 0 0 1 4-1.51 4.83 4.83 0 0 1 3.76 1.47 5.59 5.59 0 0 1 1.34 3.92A7.77 7.77 0 0 1 26 153Zm-7-4a3.64 3.64 0 0 0-1 2.18h5.94A3.54 3.54 0 0 0 23 149a2.66 2.66 0 0 0-2-.77 2.85 2.85 0 0 0-2 .77Zm20.43 5.38a1.94 1.94 0 0 0 .25 1.13 1.08 1.08 0 0 0 .9.32 4.63 4.63 0 0 0 .71-.05 4.14 4.14 0 0 0 .74-.24l-.26 1.9a4.06 4.06 0 0 1-1.83.37 2.84 2.84 0 0 1-2.17-.75 3.38 3.38 0 0 1-.69-2.35v-13.07h2.35Zm15.01-7.79v11h-2.09l-.09-1.78a4.11 4.11 0 0 1-3.92 2 4.16 4.16 0 0 1-2.87-1 3.85 3.85 0 0 1-1.09-3v-7.24h2.36v6.62a3 3 0 0 0 .57 2.06 2.24 2.24 0 0 0 1.69.61 3.07 3.07 0 0 0 2.22-.85 3.38 3.38 0 0 0 .86-2.5v-5.94Zm11.24 10.28a4 4 0 0 1-1.29.69 5.08 5.08 0 0 1-1.64.25 3.66 3.66 0 0 1-2.43-.76 2.92 2.92 0 0 1-.93-2.36v-6.25H57.3v-1.85h2.09V144l2.35-.66v3.23h3.85v1.85h-3.85v5.85a1.53 1.53 0 0 0 .43 1.18 1.74 1.74 0 0 0 1.18.38 2.55 2.55 0 0 0 1.78-.7Zm8.4 0a4 4 0 0 1-1.29.69 5.08 5.08 0 0 1-1.64.25 3.66 3.66 0 0 1-2.43-.76 2.92 2.92 0 0 1-.93-2.36v-6.25H65.7v-1.85h2.09V144l2.35-.66v3.23H74v1.85h-3.86v5.85a1.53 1.53 0 0 0 .43 1.18 1.74 1.74 0 0 0 1.18.38 2.55 2.55 0 0 0 1.78-.7ZM86.49 153h-8a3.46 3.46 0 0 0 1 2.21 3.08 3.08 0 0 0 2.16.76 3.85 3.85 0 0 0 1.79-.38 2 2 0 0 0 1-1.12l2 .82c-.83 1.7-2.4 2.55-4.73 2.55a5.38 5.38 0 0 1-4.06-1.52 5.78 5.78 0 0 1-1.47-4.2 5.92 5.92 0 0 1 1.41-4.21 5.14 5.14 0 0 1 4-1.51 4.82 4.82 0 0 1 3.76 1.47 5.59 5.59 0 0 1 1.35 3.92 7.73 7.73 0 0 1-.21 1.21Zm-7.07-4a3.52 3.52 0 0 0-1 2.18h5.94a3.6 3.6 0 0 0-.94-2.16 2.64 2.64 0 0 0-2-.77 2.83 2.83 0 0 0-2 .75Zm27.79.45-2.2.88a2.49 2.49 0 0 0-2.57-2.09 2.77 2.77 0 0 0-2.29 1 4.49 4.49 0 0 0-.81 2.86 4.39 4.39 0 0 0 .81 2.84 2.79 2.79 0 0 0 2.29 1 2.74 2.74 0 0 0 1.8-.55 2.6 2.6 0 0 0 .9-1.58l2.16.72a4.5 4.5 0 0 1-1.72 2.41 5.23 5.23 0 0 1-3.1.87 5.39 5.39 0 0 1-4.06-1.52 6.79 6.79 0 0 1 0-8.4 5.32 5.32 0 0 1 4-1.52 4.62 4.62 0 0 1 4.79 3.08Zm12.17-1.56a6.81 6.81 0 0 1 0 8.4 6.09 6.09 0 0 1-8 0 6.77 6.77 0 0 1 0-8.4 6.09 6.09 0 0 1 8 0Zm-6.33 1.33a5.55 5.55 0 0 0 0 5.74 3.15 3.15 0 0 0 4.61 0 5.4 5.4 0 0 0 0-5.72 3.15 3.15 0 0 0-4.61 0Zm20.15-1.79a3.89 3.89 0 0 1 1.16 3v7.13H132v-6.38c0-1.94-.79-2.9-2.36-2.9a3 3 0 0 0-2.11.84 3.48 3.48 0 0 0-.88 2.61v5.83h-2.35v-11h2.09l.11 1.83a3.51 3.51 0 0 1 1.51-1.54 4.66 4.66 0 0 1 2.2-.51 4.21 4.21 0 0 1 2.99 1.09Zm12.31 9.44a4 4 0 0 1-1.28.69 5.17 5.17 0 0 1-1.64.25 3.65 3.65 0 0 1-2.43-.76 3 3 0 0 1-.94-2.36v-6.25h-2.09v-1.85h2.09V144l2.36-.66v3.23h3.85v1.85h-3.85v5.85a1.53 1.53 0 0 0 .42 1.18 1.74 1.74 0 0 0 1.18.38 2.53 2.53 0 0 0 1.78-.7Zm9.55-10.28-.37 2.16a2.85 2.85 0 0 0-1.39-.29 2.64 2.64 0 0 0-1.33.37 2.84 2.84 0 0 0-1 1.13 3.63 3.63 0 0 0-.41 1.8v5.83h-2.35v-11h2l.2 2a3.42 3.42 0 0 1 3.47-2.2 2.7 2.7 0 0 1 1.18.2Zm11.68 6.41h-8.06a3.52 3.52 0 0 0 1 2.21 3.08 3.08 0 0 0 2.16.76 3.85 3.85 0 0 0 1.79-.38 2.07 2.07 0 0 0 1-1.12l2 .82c-.83 1.7-2.4 2.55-4.73 2.55a5.36 5.36 0 0 1-4.06-1.52 5.78 5.78 0 0 1-1.47-4.2 5.92 5.92 0 0 1 1.41-4.21 5.14 5.14 0 0 1 4-1.51 4.83 4.83 0 0 1 3.76 1.47 5.59 5.59 0 0 1 1.35 3.92 7.73 7.73 0 0 1-.15 1.21Zm-7.08-4a3.64 3.64 0 0 0-1 2.18h5.94a3.54 3.54 0 0 0-.93-2.16 2.66 2.66 0 0 0-2-.77 2.85 2.85 0 0 0-2.01.75Zm20.47 5.38a1.86 1.86 0 0 0 .25 1.13 1.08 1.08 0 0 0 .9.32 4.63 4.63 0 0 0 .71-.05 4.14 4.14 0 0 0 .74-.24l-.26 1.9a4.06 4.06 0 0 1-1.83.37 2.84 2.84 0 0 1-2.17-.75 3.38 3.38 0 0 1-.69-2.35v-13.07h2.35Zm6.87-11.47a2.69 2.69 0 0 1 .5 1.68 4.32 4.32 0 0 1-.65 2.3 4.37 4.37 0 0 1-2 1.64l-1.14-.95a4.32 4.32 0 0 0 1.52-.93 3 3 0 0 0 .81-1.34l-.09-.06a1 1 0 0 1-.64.17 1.44 1.44 0 0 1-1-.39 1.48 1.48 0 0 1-.42-1.12 1.58 1.58 0 0 1 .48-1.18 1.65 1.65 0 0 1 1.19-.47 1.61 1.61 0 0 1 1.44.65Zm3.75 1.45a1.41 1.41 0 0 1-.42-1.09 1.37 1.37 0 0 1 .42-1.08 1.68 1.68 0 0 1 1.16-.37 1.65 1.65 0 0 1 1.16.37 1.4 1.4 0 0 1 .41 1.08 1.44 1.44 0 0 1-.41 1.09 1.65 1.65 0 0 1-1.16.38 1.69 1.69 0 0 1-1.16-.38Zm2.33 13.23h-2.35v-11h2.35Zm6.42-3.21a1.86 1.86 0 0 0 .25 1.13 1.08 1.08 0 0 0 .9.32 4.83 4.83 0 0 0 .71-.05 4.41 4.41 0 0 0 .74-.24l-.27 1.9a4 4 0 0 1-1.82.37 2.83 2.83 0 0 1-2.17-.75 3.38 3.38 0 0 1-.69-2.35v-13.07h2.35Zm7.33 0a2 2 0 0 0 .24 1.13 1.08 1.08 0 0 0 .9.32 4.87 4.87 0 0 0 .72-.05 4.07 4.07 0 0 0 .73-.24l-.26 1.9a4.06 4.06 0 0 1-1.83.37 2.8 2.8 0 0 1-2.16-.75 3.38 3.38 0 0 1-.7-2.35v-13.07h2.36Zm14.78-1.38h-8.05a3.51 3.51 0 0 0 1 2.21 3.08 3.08 0 0 0 2.16.76 3.8 3.8 0 0 0 1.79-.38 2 2 0 0 0 1-1.12l2 .82q-1.23 2.55-4.73 2.55a5.39 5.39 0 0 1-4.06-1.52 5.82 5.82 0 0 1-1.46-4.2 5.92 5.92 0 0 1 1.41-4.21 5.14 5.14 0 0 1 4-1.51 4.84 4.84 0 0 1 3.76 1.47 5.63 5.63 0 0 1 1.34 3.92 7.73 7.73 0 0 1-.16 1.21Zm-7.07-4a3.58 3.58 0 0 0-1 2.18h5.94a3.66 3.66 0 0 0-.93-2.16 2.68 2.68 0 0 0-2-.77 2.85 2.85 0 0 0-2.01.75Zm17.34 7.87a4.07 4.07 0 0 1-1.29.69 5.12 5.12 0 0 1-1.64.25 3.66 3.66 0 0 1-2.43-.76 3 3 0 0 1-.94-2.36v-6.25h-2.08v-1.85h2.08V144l2.36-.66v3.23h3.85v1.85h-3.85v5.85a1.5 1.5 0 0 0 .43 1.18 1.71 1.71 0 0 0 1.17.38 2.58 2.58 0 0 0 1.79-.7Zm8.55 0a4 4 0 0 1-1.29.69 5.06 5.06 0 0 1-1.63.25 3.67 3.67 0 0 1-2.44-.76 3 3 0 0 1-.93-2.36v-6.25h-2.09v-1.85h2.09V144l2.35-.66v3.23h3.85v1.85h-3.85v5.85a1.53 1.53 0 0 0 .43 1.18 1.74 1.74 0 0 0 1.18.38 2.55 2.55 0 0 0 1.78-.7Zm9.57-10.28-.37 2.16a2.85 2.85 0 0 0-1.39-.29 2.64 2.64 0 0 0-1.33.37 2.93 2.93 0 0 0-1 1.13 3.74 3.74 0 0 0-.4 1.8v5.83h-2.36v-11h2l.19 2a3.44 3.44 0 0 1 3.48-2.2 2.7 2.7 0 0 1 1.18.2Zm2.68-2.23a1.44 1.44 0 0 1-.41-1.09 1.4 1.4 0 0 1 .41-1.08 1.69 1.69 0 0 1 1.17-.37 1.67 1.67 0 0 1 1.16.37 1.4 1.4 0 0 1 .4 1.08 1.43 1.43 0 0 1-.4 1.09 1.67 1.67 0 0 1-1.16.38 1.7 1.7 0 0 1-1.17-.38Zm2.32 13.23h-2.36v-11H255Zm5.18-.35a4 4 0 0 1-1.95-1.74l1.58-1.36a2.7 2.7 0 0 0 1.3 1.38 4.6 4.6 0 0 0 2.11.44 3.47 3.47 0 0 0 1.74-.36 1.09 1.09 0 0 0 .62-1 .94.94 0 0 0-.58-.84 7.19 7.19 0 0 0-2-.61 8.48 8.48 0 0 1-3.44-1.23 2.6 2.6 0 0 1-1-2.18 2.91 2.91 0 0 1 .55-1.68 3.89 3.89 0 0 1 1.6-1.26 7 7 0 0 1 5.4.14 4 4 0 0 1 1.69 1.88l-1.67 1.23a2.85 2.85 0 0 0-1.11-1.42 3.35 3.35 0 0 0-1.81-.45 2.93 2.93 0 0 0-1.64.41 1.12 1.12 0 0 0-.65.93 1.07 1.07 0 0 0 .58.95 7.23 7.23 0 0 0 2.12.63 7.65 7.65 0 0 1 3.3 1.19 2.6 2.6 0 0 1 1 2.16 2.84 2.84 0 0 1-1.27 2.4 6 6 0 0 1-3.53.92 7.19 7.19 0 0 1-2.94-.53Zm26.36-10.42a3.45 3.45 0 0 1 1.46 1.38 4.4 4.4 0 0 1 .55 2.26v7.13h-2.36v-6.75a2.62 2.62 0 0 0-.61-1.92 2.23 2.23 0 0 0-1.65-.61 2.67 2.67 0 0 0-2 .88 3.38 3.38 0 0 0-.82 2.42v6h-2.36v-6.75a2.62 2.62 0 0 0-.61-1.92 2.23 2.23 0 0 0-1.65-.61 2.83 2.83 0 0 0-1.37.36 2.75 2.75 0 0 0-1.12 1.11 4.16 4.16 0 0 0-.41 1.94v5.85h-2.36v-11h2.09l.11 1.83a3.69 3.69 0 0 1 1.5-1.53 4.19 4.19 0 0 1 2.07-.52 4.53 4.53 0 0 1 2.23.56 3.43 3.43 0 0 1 1.48 1.64 3.54 3.54 0 0 1 1.56-1.64 4.67 4.67 0 0 1 2.23-.56 4.53 4.53 0 0 1 2.04.45Zm15.8 6.18h-8a3.46 3.46 0 0 0 1 2.21 3.08 3.08 0 0 0 2.16.76 3.83 3.83 0 0 0 1.79-.38 2 2 0 0 0 1-1.12l2 .82c-.83 1.7-2.4 2.55-4.73 2.55a5.38 5.38 0 0 1-4.06-1.52 5.77 5.77 0 0 1-1.46-4.2 5.92 5.92 0 0 1 1.4-4.21 5.14 5.14 0 0 1 4-1.51 4.82 4.82 0 0 1 3.76 1.47 5.59 5.59 0 0 1 1.35 3.92 7.73 7.73 0 0 1-.21 1.21Zm-7.07-4a3.58 3.58 0 0 0-1 2.18h5.94a3.6 3.6 0 0 0-.94-2.16 2.64 2.64 0 0 0-2-.77 2.83 2.83 0 0 0-2 .75Z"/>
    </g>
  </g>
</svg>
