<svg xmlns="http://www.w3.org/2000/svg" width="128" height="43" viewBox="0 0 128 43" fill="none">
  <g clip-path="url(#clip0_22393_5952)">
    <path d="M0.00749046 40.29C0.0827846 40.9526 0.670079 41.4345 1.76937 41.7507C1.88231 41.811 2.01784 41.8411 2.14584 41.8411H2.46961C2.89878 41.8712 3.29031 41.6227 3.44843 41.2237C4.11855 39.4241 4.63055 37.5719 4.99196 35.6896C5.27055 34.3644 5.51902 33.25 5.75243 32.354C5.98584 31.458 6.18161 30.7427 6.3322 30.2081C7.19055 29.5079 8.23714 29.0712 9.33643 28.9658L12.7096 28.6119C13.5002 30.6373 14.0875 32.738 14.4564 34.8839C14.9233 37.1954 15.9774 38.483 17.6037 38.7465C17.8371 38.7465 18.2136 38.5056 18.7331 38.0312C19.2527 37.602 19.5538 36.9545 19.5463 36.2769C19.5162 35.8025 19.4033 35.3357 19.2226 34.8914C18.2814 32.3239 17.3553 29.4552 16.4367 26.2778C15.9623 24.6364 15.4955 22.9046 14.9684 20.8416C14.592 19.3583 14.1553 17.5587 13.7185 15.6764C13.6433 15.0138 13.5454 14.3361 13.4324 13.6434C13.3195 12.9507 13.2065 12.2731 13.1011 11.618C12.928 10.2552 12.2729 8.99779 11.2489 8.07921C10.895 7.79309 10.4508 7.6425 9.99902 7.65756C9.47949 7.60485 8.98255 7.89097 8.77173 8.37285C8.35761 9.44203 7.92843 10.7145 7.46914 12.1903C7.01737 13.666 6.52796 15.4053 6.0009 17.4006C4.78867 21.9559 3.9002 25.0505 3.33549 26.6769C3.27526 26.9103 2.95902 27.0985 2.40184 27.2416C2.01031 27.2641 1.64137 27.4298 1.37031 27.7084C1.24231 27.8439 1.17455 28.0246 1.18208 28.2053C1.18208 28.4086 1.42302 28.6797 1.88984 29.0336C2.32655 29.3573 2.5449 29.651 2.55243 29.9145C2.26631 31.7366 1.74678 33.5136 1.0089 35.2001C0.376432 36.6684 0.0376081 38.242 -0.00756836 39.8383V40.2825L0.00749046 40.29ZM7.64984 25.7658C8.32749 23.0401 9.14067 20.2844 10.0894 17.4834C10.2625 18.146 10.4357 18.8011 10.5938 19.4561C10.752 20.1112 10.9251 20.7738 11.0983 21.4289C11.279 22.1517 11.4221 22.8519 11.535 23.5296C11.648 24.2072 11.7383 24.8698 11.8211 25.5324C10.4282 25.5173 9.03526 25.5926 7.65737 25.7507M25.6527 40.9677C25.7656 41.6303 26.0367 42.0218 26.4658 42.1423L27.4145 42.5714C27.6856 42.7446 27.9943 42.8425 28.3105 42.8576C28.5967 42.8425 28.8602 42.7145 29.0484 42.4961C29.6508 42.1046 29.967 41.4044 29.8616 40.6966V40.5009C29.7713 39.1757 29.696 37.8806 29.6433 36.6081C29.5905 35.3357 29.5529 34.0707 29.5303 32.8133C29.5077 31.5258 29.4851 30.1479 29.455 28.6947C29.4249 27.2416 29.4098 25.7809 29.4023 24.3277C29.3948 22.8745 29.4098 21.459 29.455 20.0811C29.5002 18.7107 29.5755 17.4232 29.6884 16.2336C29.7487 15.7667 29.8917 15.5333 30.1251 15.5333C30.223 15.5333 30.3058 15.6312 30.3811 15.827C31.2169 18.0256 32.0301 20.1639 32.8282 22.2345C33.6263 24.3051 34.3943 26.2401 35.1397 28.0472C35.8851 29.8543 36.5854 31.5032 37.2404 33.0016C37.8955 34.4924 38.4978 35.7498 39.0475 36.7663C39.7703 38.1441 40.6362 38.8218 41.6677 38.8067C42.1797 38.7917 42.6616 38.5809 43.023 38.2119C43.407 37.8806 43.6254 37.3912 43.6178 36.8867C43.5425 36.2844 43.4974 35.682 43.4898 35.0797C43.4823 34.4999 43.4673 33.9277 43.4597 33.3705C43.4296 31.586 43.4673 29.5983 43.5802 27.4147C43.6931 25.2312 43.8588 22.7917 44.0696 20.1112L45.1764 6.73897C45.0785 6.42274 44.8376 6.16674 44.5214 6.05379L43.5727 5.82038C43.2338 5.73756 42.88 5.69238 42.5261 5.69238C41.6301 5.70744 41.1557 6.04627 41.103 6.70885L39.4917 28.2731C38.8367 26.7973 38.1364 25.0731 37.391 23.1004C36.6456 21.1277 35.8701 19.0571 35.072 16.8886C34.2663 14.6223 33.5209 12.6797 32.8357 11.0684C32.1505 9.45709 31.5256 8.14697 30.976 7.1305C30.5167 6.76156 30.0122 6.45285 29.4701 6.21191C29.1237 6.05379 28.7548 5.95591 28.3708 5.93332C27.1134 5.95591 26.4734 6.33238 26.4508 7.05521L25.6376 20.3672C25.3289 25.6303 25.2084 30.0199 25.2687 33.5286C25.3063 35.5766 25.3891 37.5117 25.5171 39.3338L25.6451 40.9677H25.6527ZM53.0597 37.8129C53.3157 38.3098 53.8127 38.6336 54.3698 38.6863C54.5807 38.6863 54.784 38.626 54.9647 38.5281C55.9134 38.099 56.8244 37.602 57.6978 37.0449C58.6616 36.435 59.7007 35.7197 60.815 34.9065L66.5524 30.69C66.7482 30.4491 66.8461 30.1479 66.8385 29.8392C66.8084 29.4929 66.703 29.154 66.5223 28.8529C66.2287 28.3333 65.664 28.0397 65.0691 28.0849C64.7604 28.0999 64.4517 28.1376 64.1505 28.1978C63.8644 28.258 63.5783 28.2957 63.2847 28.3107C62.7953 28.5592 62.3284 28.8378 61.8842 29.154C61.312 29.5456 60.6193 30.0274 59.7986 30.6072C58.6842 31.4505 57.4795 32.1658 56.2146 32.7531L56.192 31.3601C56.1694 30.035 56.1694 28.4839 56.192 26.6919C56.207 24.8999 56.2823 22.867 56.4103 20.5856C56.5082 18.4999 56.576 16.6401 56.6136 14.9987C56.6513 13.3573 56.6588 11.8966 56.6362 10.6091C56.6287 10.1799 56.6136 9.78085 56.591 9.41944C56.5684 9.05803 56.5534 8.71168 56.5458 8.38038C56.3275 7.46179 55.5971 7.01003 54.3397 7.03262C53.7298 7.02509 53.1426 7.26603 52.7134 7.70274C52.7962 8.46321 52.8564 9.23121 52.9016 10.0067C52.9468 10.7823 52.9769 11.603 52.992 12.4613C53.0371 14.9385 52.8564 18.9291 52.4574 24.4331C52.2993 26.722 52.1938 28.7776 52.1411 30.6147C52.0884 32.4519 52.0809 34.0783 52.1035 35.5013L52.1261 36.5931L53.0898 37.8129H53.0597ZM85.1727 42.7597C85.6169 42.835 86.0536 42.6317 86.2795 42.2401C86.6108 41.8336 86.784 41.3216 86.7764 40.7945C86.7689 40.2599 86.4451 39.7856 85.9633 39.5672C85.6997 39.4693 85.3458 39.3564 84.9167 39.2133C84.5553 39.1004 84.2089 38.9649 83.8701 38.8067C83.2527 38.5206 82.6804 38.1592 82.1609 37.7225C81.792 37.3837 81.423 37.0298 81.0541 36.6759C80.6851 36.322 80.2484 35.8703 79.7364 35.3357C79.232 34.8011 78.6898 34.1912 78.1176 33.506C76.3407 30.9084 75.3242 27.8665 75.1811 24.7267C75.1435 23.3037 75.2489 21.8806 75.5049 20.4801C75.7157 19.3131 76.047 18.1686 76.4913 17.0618C76.8602 16.1432 77.3346 15.2698 77.9143 14.4566C78.3962 13.779 78.9383 13.154 79.5482 12.5893C80.3237 11.8138 81.2498 11.2039 82.2738 10.8049C83.0268 10.5639 83.7948 10.3681 84.5703 10.2176C85.0748 10.1347 85.519 9.84862 85.7976 9.42697C86.0235 9.04297 86.1364 8.59874 86.1214 8.1545C86.1138 7.55968 85.9858 7.19827 85.7524 7.07027C85.0146 6.53568 84.1186 6.24956 83.2075 6.27215C81.8974 6.37756 80.64 6.82932 79.5557 7.57474C77.8842 8.68156 76.3858 10.0293 75.1058 11.5729C73.9237 12.9959 72.9826 14.6072 72.335 16.3314C71.4767 18.6204 71.0927 21.0599 71.1981 23.4994C71.2207 24.5912 71.3035 25.9239 71.4691 27.49C71.6423 29.1164 72.0037 30.7201 72.5458 32.2561C72.9449 33.2952 73.4946 34.259 74.1873 35.1324C75.0607 36.2919 76.047 37.3611 77.1237 38.3324C78.2833 39.3865 79.5482 40.3201 80.896 41.1183C82.176 41.9013 83.5764 42.4585 85.0447 42.7597H85.1953H85.1727ZM97.1218 10.594C97.1218 10.594 97.0691 10.5263 97.0691 10.3983C97.0691 10.2326 97.0767 10.067 97.1068 9.90132C97.1068 9.57003 97.0465 9.40438 96.9487 9.40438C96.8357 9.42697 96.7378 9.47968 96.655 9.55497C96.0752 9.23121 95.4202 9.0505 94.7576 9.04297C94.0574 9.00532 93.3948 9.38179 93.0861 10.0143C93.1237 10.4434 93.1614 10.8651 93.184 11.2792C93.2066 11.6933 93.2216 12.115 93.2291 12.5441C93.2517 13.666 93.199 15.0514 93.0786 16.6929C92.9581 18.3343 92.7849 20.2994 92.559 22.5809C92.3331 24.8698 92.1675 26.8425 92.0696 28.4914C91.9642 30.1479 91.9266 31.5409 91.9416 32.6627C91.9567 33.3253 91.9793 33.9578 92.0244 34.5677C92.0696 35.1776 92.1298 35.7649 92.2051 36.3296C92.3557 37.4816 93.1463 38.0839 94.5694 38.1216C95.4503 38.1818 96.256 37.602 96.4818 36.7512C96.4442 36.322 96.4141 35.9004 96.4065 35.4863C96.399 35.0721 96.3915 34.6505 96.384 34.2213C96.3614 33.0618 96.399 31.6312 96.4818 29.9296C96.5647 28.2279 96.7077 26.2326 96.896 23.9437C97.0842 21.6547 97.2273 19.667 97.3101 17.9804C97.4004 16.2938 97.4305 14.8858 97.408 13.7639C97.4004 13.2369 97.3778 12.7249 97.3553 12.2279C97.3327 11.731 97.295 11.2491 97.2574 10.7898L97.1143 10.5865L97.1218 10.594Z" fill="#31342D"/>
    <path d="M103.236 14.3508C103.198 14.8477 103.326 15.3371 103.605 15.7513C103.657 15.8491 103.748 15.9169 103.853 15.9546C103.846 15.9847 103.823 16.0223 103.823 16.0524C103.785 16.316 103.853 16.5795 104.011 16.7978C105.713 19.1696 108.642 20.6454 112.791 21.2251C114.327 21.4284 115.878 21.5338 117.436 21.5489C120.478 21.6091 123.543 20.4722 126.622 18.1306C126.75 18.0176 126.833 17.8595 126.848 17.6938C126.886 17.3927 126.848 17.084 126.735 16.7978C126.969 16.7677 127.172 16.6473 127.307 16.4515C127.503 16.2482 127.639 15.9847 127.684 15.7061C127.721 15.435 127.639 15.1564 127.465 14.9456C125.606 12.5287 122.473 11.0454 118.061 10.5033C116.427 10.315 114.778 10.2322 113.129 10.2397C109.899 10.2247 106.677 11.4444 103.469 13.899C103.334 14.012 103.251 14.1776 103.243 14.3508M116.51 19.2298C116.676 19.1094 116.849 18.9889 117.015 18.8458C117.534 18.364 117.963 17.7993 118.28 17.1668C118.573 16.5795 118.731 15.9395 118.731 15.2844C118.731 15.1489 118.731 15.0209 118.716 14.908C118.709 14.7875 118.686 14.6746 118.656 14.5541V14.5315L118.611 14.3056C118.581 14.027 118.528 13.7484 118.453 13.4849C118.4 13.3117 118.325 13.1461 118.227 12.988C120.922 13.4849 123.467 14.5691 125.696 16.1578C123.046 18.1456 119.816 19.2223 116.503 19.2223M113.506 16.3988C113.468 15.0736 114.071 13.8087 115.132 13.0106C115.23 12.9277 115.343 12.875 115.471 12.8524C115.622 12.875 115.765 12.9202 115.9 12.988V12.9654C116.149 13.0934 116.329 13.3268 116.397 13.5978V13.5753L116.533 14.1174C116.593 14.3131 116.646 14.5089 116.691 14.7047C116.736 14.8929 116.759 15.0811 116.759 15.2694C116.661 16.4138 116.058 17.4454 115.11 18.0929C114.748 18.4091 114.507 18.5673 114.387 18.5673C114.319 18.5673 114.266 18.5296 114.229 18.4769C113.747 17.8971 113.483 17.1593 113.506 16.3988ZM111.405 16.6247C111.39 17.3249 111.571 18.0176 111.917 18.6275C109.5 18.0327 107.249 16.9108 105.321 15.3447C107.52 13.884 110.035 12.9729 112.663 12.7018C112.497 12.9353 112.361 13.1837 112.249 13.4473H112.271C111.744 14.4261 111.45 15.5178 111.413 16.6322" fill="#31342D"/>
    <path d="M102.596 3.90052C104.019 1.94288 106.263 0.723112 109.312 0.2337C111.872 -0.0900642 114.47 -0.0750054 117.03 0.263818C117.436 0.286406 119.168 0.6177 122.202 1.27276C122.707 1.36311 123.211 1.46852 123.716 1.58147C124.213 1.69441 124.717 1.79982 125.229 1.89017C126.193 2.10852 127.059 2.62052 127.714 3.35841C127.857 3.53911 127.947 3.75747 127.977 3.99088C128.038 4.3297 128.015 4.66852 127.91 4.99982C127.812 5.31605 127.669 5.48923 127.48 5.51935C127.405 5.51935 127.33 5.50429 127.255 5.48923C121.261 3.50147 116.54 2.53017 113.099 2.56029C111.88 2.57535 110.66 2.67323 109.448 2.84641C106.647 3.29064 104.689 4.30711 103.567 5.89582C103.447 6.06899 101.903 4.86429 102.611 3.89299" fill="#31342D"/>
  </g>
  <defs>
    <clipPath id="clip0_22393_5952">
      <rect width="128" height="42.8725" fill="white"/>
    </clipPath>
  </defs>
</svg>