<svg width="12" height="12" viewBox="0 0 12 12" fill="none" xmlns="http://www.w3.org/2000/svg">
<path fill-rule="evenodd" clip-rule="evenodd" d="M7.69574 8.56372C6.88869 9.18662 5.87691 9.55716 4.77858 9.55716C2.13944 9.55716 0 7.41772 0 4.77858C0 2.13944 2.13944 0 4.77858 0C7.41772 0 9.55716 2.13944 9.55716 4.77858C9.55716 5.87691 9.18662 6.88869 8.56372 7.69574C8.63256 7.72728 8.69706 7.77139 8.75374 7.82808L11.8083 10.8826C12.0639 11.1382 12.0639 11.5527 11.8083 11.8083C11.5527 12.0639 11.1382 12.0639 10.8826 11.8083L7.82808 8.75374C7.77139 8.69706 7.72728 8.63256 7.69574 8.56372ZM8.24807 4.77858C8.24807 6.69473 6.69473 8.24807 4.77858 8.24807C2.86243 8.24807 1.30909 6.69473 1.30909 4.77858C1.30909 2.86243 2.86243 1.30909 4.77858 1.30909C6.69473 1.30909 8.24807 2.86243 8.24807 4.77858Z" fill="#7B83B0"/>
</svg>
