<svg width="48" height="48" viewBox="0 0 48 48" fill="none" xmlns="http://www.w3.org/2000/svg">
<path d="M15.848 12.4C15.976 12.4 16.08 12.4427 16.16 12.528C16.24 12.6133 16.28 12.72 16.28 12.848V17.512C16.28 17.6507 16.232 17.768 16.136 17.864C16.0453 17.9547 15.9307 18 15.792 18C15.7173 18 15.6427 17.9893 15.568 17.968C15.4987 17.9413 15.448 17.9067 15.416 17.864L12.48 14.136V17.552C12.48 17.68 12.4373 17.7867 12.352 17.872C12.272 17.9573 12.1653 18 12.032 18C11.904 18 11.8 17.9573 11.72 17.872C11.64 17.7867 11.6 17.68 11.6 17.552V12.888C11.6 12.7493 11.6453 12.6347 11.736 12.544C11.832 12.448 11.9493 12.4 12.088 12.4C12.168 12.4 12.2453 12.416 12.32 12.448C12.4 12.48 12.4587 12.5227 12.496 12.576L15.408 16.288V12.848C15.408 12.72 15.448 12.6133 15.528 12.528C15.6133 12.4427 15.72 12.4 15.848 12.4ZM18.3068 17.512C18.3068 17.6507 18.2615 17.768 18.1708 17.864C18.0801 17.9547 17.9655 18 17.8268 18C17.6881 18 17.5735 17.9547 17.4828 17.864C17.3921 17.768 17.3468 17.6507 17.3468 17.512V14.208C17.3468 14.0693 17.3921 13.9547 17.4828 13.864C17.5735 13.768 17.6881 13.72 17.8268 13.72C17.9655 13.72 18.0801 13.768 18.1708 13.864C18.2615 13.9547 18.3068 14.0693 18.3068 14.208V17.512ZM17.8188 13.2C17.6375 13.2 17.5095 13.1707 17.4348 13.112C17.3601 13.0533 17.3228 12.9493 17.3228 12.8V12.648C17.3228 12.4987 17.3628 12.3947 17.4428 12.336C17.5228 12.2773 17.6508 12.248 17.8268 12.248C18.0135 12.248 18.1441 12.2773 18.2188 12.336C18.2935 12.3947 18.3308 12.4987 18.3308 12.648V12.8C18.3308 12.9547 18.2908 13.0613 18.2108 13.12C18.1361 13.1733 18.0055 13.2 17.8188 13.2ZM22.5814 13.728C22.7094 13.728 22.8161 13.7707 22.9014 13.856C22.9868 13.936 23.0294 14.0373 23.0294 14.16C23.0294 14.224 23.0081 14.304 22.9654 14.4L21.4694 17.696C21.4321 17.7867 21.3761 17.8587 21.3014 17.912C21.2321 17.9653 21.1521 17.9947 21.0614 18L20.9894 18.008C20.8988 18.008 20.8134 17.9813 20.7334 17.928C20.6588 17.8693 20.6001 17.792 20.5574 17.696L19.0694 14.4C19.0321 14.3147 19.0134 14.2293 19.0134 14.144C19.0134 14.0373 19.0588 13.9413 19.1494 13.856C19.2401 13.7653 19.3521 13.72 19.4854 13.72C19.5868 13.72 19.6801 13.7467 19.7654 13.8C19.8508 13.8533 19.9148 13.928 19.9574 14.024L21.0614 16.552L22.1574 14.032C22.2001 13.9307 22.2588 13.8533 22.3334 13.8C22.4081 13.7467 22.4908 13.7227 22.5814 13.728ZM27.5866 15.76C27.5812 15.888 27.5306 15.992 27.4346 16.072C27.3386 16.152 27.2266 16.192 27.0986 16.192H24.4586C24.5226 16.5067 24.6692 16.7547 24.8986 16.936C25.1279 17.112 25.3866 17.2 25.6746 17.2C25.8932 17.2 26.0639 17.1813 26.1866 17.144C26.3092 17.1013 26.4052 17.0587 26.4746 17.016C26.5492 16.968 26.5999 16.936 26.6266 16.92C26.7226 16.872 26.8132 16.848 26.8986 16.848C27.0106 16.848 27.1066 16.888 27.1866 16.968C27.2666 17.048 27.3066 17.1413 27.3066 17.248C27.3066 17.392 27.2319 17.5227 27.0826 17.64C26.9332 17.7627 26.7332 17.8667 26.4826 17.952C26.2319 18.0373 25.9786 18.08 25.7226 18.08C25.2746 18.08 24.8826 17.9867 24.5466 17.8C24.2159 17.6133 23.9599 17.3573 23.7786 17.032C23.5972 16.7013 23.5066 16.3307 23.5066 15.92C23.5066 15.4613 23.6026 15.0587 23.7946 14.712C23.9866 14.3653 24.2399 14.1013 24.5546 13.92C24.8692 13.7333 25.2052 13.64 25.5626 13.64C25.9146 13.64 26.2452 13.736 26.5546 13.928C26.8692 14.12 27.1199 14.3787 27.3066 14.704C27.4932 15.0293 27.5866 15.3813 27.5866 15.76ZM25.5626 14.52C24.9439 14.52 24.5786 14.8107 24.4666 15.392H26.5626V15.336C26.5412 15.112 26.4319 14.92 26.2346 14.76C26.0372 14.6 25.8132 14.52 25.5626 14.52ZM31.8824 13.64C32.0211 13.64 32.1358 13.6853 32.2264 13.776C32.3171 13.8667 32.3624 13.984 32.3624 14.128V17.512C32.3624 17.6507 32.3171 17.768 32.2264 17.864C32.1358 17.9547 32.0211 18 31.8824 18C31.7438 18 31.6291 17.9547 31.5384 17.864C31.4531 17.7733 31.4078 17.6587 31.4024 17.52C31.2691 17.6747 31.0878 17.808 30.8584 17.92C30.6344 18.0267 30.3971 18.08 30.1464 18.08C29.7784 18.08 29.4451 17.9867 29.1464 17.8C28.8478 17.608 28.6104 17.344 28.4344 17.008C28.2638 16.672 28.1784 16.2907 28.1784 15.864C28.1784 15.4373 28.2638 15.056 28.4344 14.72C28.6051 14.3787 28.8371 14.1147 29.1304 13.928C29.4291 13.736 29.7571 13.64 30.1144 13.64C30.3704 13.64 30.6104 13.688 30.8344 13.784C31.0584 13.8747 31.2478 13.992 31.4024 14.136V14.128C31.4024 13.9893 31.4478 13.8747 31.5384 13.784C31.6291 13.688 31.7438 13.64 31.8824 13.64ZM30.2664 17.2C30.6131 17.2 30.8958 17.0747 31.1144 16.824C31.3331 16.568 31.4424 16.248 31.4424 15.864C31.4424 15.48 31.3331 15.16 31.1144 14.904C30.8958 14.648 30.6131 14.52 30.2664 14.52C29.9251 14.52 29.6451 14.648 29.4264 14.904C29.2078 15.16 29.0984 15.48 29.0984 15.864C29.0984 16.248 29.2051 16.568 29.4184 16.824C29.6371 17.0747 29.9198 17.2 30.2664 17.2ZM36.5007 13.72C36.6394 13.72 36.754 13.768 36.8447 13.864C36.9354 13.9547 36.9807 14.0693 36.9807 14.208V16.24C36.9807 16.816 36.8207 17.2667 36.5007 17.592C36.186 17.9173 35.7354 18.08 35.1487 18.08C34.562 18.08 34.1114 17.9173 33.7967 17.592C33.482 17.2667 33.3247 16.816 33.3247 16.24V14.208C33.3247 14.0693 33.37 13.9547 33.4607 13.864C33.5514 13.768 33.666 13.72 33.8047 13.72C33.9434 13.72 34.058 13.768 34.1487 13.864C34.2394 13.9547 34.2847 14.0693 34.2847 14.208V16.24C34.2847 16.5653 34.3567 16.808 34.5007 16.968C34.6447 17.1227 34.8607 17.2 35.1487 17.2C35.442 17.2 35.6607 17.1227 35.8047 16.968C35.9487 16.808 36.0207 16.5653 36.0207 16.24V14.208C36.0207 14.0693 36.066 13.9547 36.1567 13.864C36.2474 13.768 36.362 13.72 36.5007 13.72Z" fill="#6E84FE"/>
<circle cx="24" cy="24" r="22.5" stroke="#6E84FE" stroke-width="3"/>
<path d="M23.201 21.539C23.201 21.819 23.124 22.078 22.97 22.316L18.581 28.595V33.719C18.581 34.083 18.462 34.391 18.224 34.643C17.986 34.881 17.699 35 17.363 35C17.013 35 16.712 34.881 16.46 34.643C16.222 34.391 16.103 34.083 16.103 33.719V28.301L11.735 22.505C11.483 22.169 11.357 21.84 11.357 21.518C11.357 21.154 11.497 20.853 11.777 20.615C12.071 20.363 12.379 20.237 12.701 20.237C13.093 20.237 13.436 20.433 13.73 20.825L17.426 25.928L20.891 20.867C21.185 20.447 21.535 20.237 21.941 20.237C22.277 20.237 22.571 20.363 22.823 20.615C23.075 20.867 23.201 21.175 23.201 21.539ZM32.9598 32.69C33.2958 32.69 33.5758 32.802 33.7998 33.026C34.0238 33.25 34.1358 33.53 34.1358 33.866C34.1358 34.188 34.0238 34.461 33.7998 34.685C33.5758 34.895 33.2958 35 32.9598 35H25.8198C25.4558 35 25.1688 34.888 24.9588 34.664C24.7488 34.44 24.6438 34.153 24.6438 33.803C24.6438 33.453 24.7698 33.145 25.0218 32.879L29.5998 27.986C30.1178 27.426 30.5238 26.866 30.8178 26.306C31.1258 25.732 31.2798 25.207 31.2798 24.731C31.2798 24.101 31.0558 23.555 30.6078 23.093C30.1598 22.631 29.6418 22.4 29.0538 22.4C28.6478 22.4 28.2348 22.54 27.8148 22.82C27.4088 23.086 27.0378 23.443 26.7018 23.891C26.4498 24.227 26.1278 24.395 25.7358 24.395C25.4278 24.395 25.1408 24.276 24.8748 24.038C24.6228 23.8 24.4968 23.534 24.4968 23.24C24.4968 23.03 24.5668 22.82 24.7068 22.61C24.8468 22.386 25.0568 22.134 25.3368 21.854C25.8688 21.322 26.4848 20.895 27.1848 20.573C27.8848 20.251 28.5568 20.09 29.2008 20.09C30.1248 20.09 30.9368 20.286 31.6368 20.678C32.3368 21.07 32.8758 21.609 33.2538 22.295C33.6318 22.981 33.8208 23.758 33.8208 24.626C33.8208 25.48 33.5898 26.362 33.1278 27.272C32.6798 28.168 32.0708 29.029 31.3008 29.855L28.6338 32.69H32.9598Z" fill="#6E84FE"/>
</svg>
