<svg width="48" height="48" fill="none" xmlns="http://www.w3.org/2000/svg"><circle cx="24" cy="24" r="24" fill="#000091"/><path fill-rule="evenodd" clip-rule="evenodd" d="M17.25 13.125a1.125 1.125 0 00-2.25 0V16.5h-3.375a1.125 1.125 0 000 2.25H15v3.375a1.125 1.125 0 002.25 0V18.75h3.375a1.125 1.125 0 000-2.25H17.25v-3.375zM34.352 15.319a1.125 1.125 0 00-1.59-1.592l-2.387 2.387-2.387-2.387a1.125 1.125 0 10-1.59 1.591l2.386 2.387-2.386 2.386a1.125 1.125 0 001.59 1.591l2.387-2.386 2.386 2.386a1.125 1.125 0 101.591-1.59l-2.386-2.387 2.386-2.386zM25.875 27.75a1.125 1.125 0 000 2.25h9a1.125 1.125 0 000-2.25h-9zm0 4.5a1.125 1.125 0 000 2.25h9a1.125 1.125 0 000-2.25h-9zM17.25 27.375a1.125 1.125 0 11-2.25 0 1.125 1.125 0 012.25 0zm-6.75 3.75c0-.621.504-1.125 1.125-1.125h9a1.125 1.125 0 010 2.25h-9a1.125 1.125 0 01-1.125-1.125zM16.125 36a1.125 1.125 0 100-2.25 1.125 1.125 0 000 2.25z" fill="#fff"/></svg>