<svg width="64" height="64" fill="none" xmlns="http://www.w3.org/2000/svg"><circle cx="32" cy="32" r="32" fill="#FB926B"/><circle cx="18" cy="47" r="4" transform="rotate(-90 18 47)" fill="#fff"/><circle cx="18" cy="35" r="4" transform="rotate(-90 18 35)" fill="#fff"/><circle cx="18" cy="23" r="4" transform="rotate(-90 18 23)" fill="#fff"/><rect x="28" y="45" width="8" height="8" rx="2" transform="rotate(-90 28 45)" fill="#fff"/><rect x="28" y="33" width="8" height="8" rx="2" transform="rotate(-90 28 33)" fill="#fff"/><rect x="28" y="21" width="8" height="8" rx="2" transform="rotate(-90 28 21)" fill="#fff"/><path d="M44.466 40.5a1 1 0 011.732 0l4.33 7.5a1 1 0 01-.866 1.5h-8.66a1 1 0 01-.867-1.5l4.33-7.5zM44.466 27a1 1 0 011.732 0l4.33 7.5a1 1 0 01-.866 1.5h-8.66a1 1 0 01-.867-1.5l4.33-7.5zM44.466 13.5a1 1 0 011.732 0l4.33 7.5a1 1 0 01-.866 1.5h-8.66a1 1 0 01-.867-1.5l4.33-7.5z" fill="#fff"/></svg>
