<svg width="600" height="370" viewBox="0 0 600 370" fill="none" xmlns="http://www.w3.org/2000/svg">
<g clip-path="url(#clip0_9073_28313)">
<rect width="600" height="370" fill="white"/>
<rect width="755" height="310" fill="#C1C1FB"/>
<path d="M366.5 287.764C486.5 290.964 632 286.264 706.5 287.764C781 289.264 765.5 311.515 765.5 314.315C765.5 317.115 732.167 373.815 715.5 401.815L-65.4998 406.815L-149 401.815C-139 309.815 -147 296.764 -90.0001 296.764C-33.0003 296.765 216.5 283.764 366.5 287.764Z" fill="#FB926B"/>
<rect x="297" y="81" width="8" height="319" fill="#FBF9FA" stroke="#FBF9FA" stroke-width="2"/>
<path d="M210 78C210 77.1716 210.672 76.5 211.5 76.5H373.342C373.672 76.5 373.993 76.609 374.255 76.8101L391.844 90.3101C392.626 90.9105 392.626 92.0895 391.844 92.6899L374.255 106.19L375.777 108.173L374.255 106.19C373.993 106.391 373.672 106.5 373.342 106.5H211.5C210.672 106.5 210 105.828 210 105V78Z" fill="#C1C1FB" stroke="#1E416A" stroke-width="5"/>
<path d="M342.488 259.118C343.002 259.709 342.666 260.635 341.893 260.761L272.358 272.042C272.064 272.09 271.764 272.004 271.54 271.809L261.513 263.057L260.855 263.81L261.513 263.057C261.151 262.741 261.065 262.211 261.308 261.797L268.054 250.324C268.205 250.067 268.462 249.891 268.756 249.843L338.291 238.562C339.065 238.436 339.676 239.209 339.375 239.932L335.705 248.773C335.269 249.824 335.465 251.032 336.211 251.891L342.488 259.118Z" fill="#FB926B" stroke="#FBF9FA" stroke-width="2"/>
<path d="M355.5 152.76C355.5 154.485 354.048 155.855 352.325 155.754L238.564 149.109C237.693 149.058 236.887 148.63 236.356 147.937L224.424 132.342C223.509 131.147 223.621 129.46 224.685 128.397L236.113 116.976C236.719 116.371 237.554 116.053 238.409 116.103L352.675 122.778C354.261 122.871 355.5 124.184 355.5 125.773L355.5 152.76Z" fill="#C1C1FB" stroke="#FBF9FA" stroke-width="2"/>
<path d="M241.5 197.998C241.5 196.665 242.379 195.492 243.658 195.118L358.709 161.472C359.543 161.228 360.443 161.358 361.174 161.829L372.541 169.142C373.95 170.049 374.344 171.934 373.415 173.328L360.156 193.233C359.764 193.82 359.178 194.251 358.501 194.449L245.342 227.542C243.422 228.104 241.5 226.664 241.5 224.663V197.998Z" fill="#FBF9FA" stroke="#FBF9FA" stroke-width="2"/>
<path d="M219.199 89.4729C219.199 86.2481 222.08 83.6061 225.5 83.6061C228.92 83.6061 231.801 86.2481 231.801 89.4729C231.801 90.9495 231.313 92.2549 230.445 93.3024L225.5 98.9388L223.351 96.4893C223.052 96.1479 222.516 96.1005 222.155 96.3836C221.793 96.6667 221.743 97.1729 222.043 97.5143L224.846 100.709C225.007 100.894 225.247 101 225.5 101C225.753 101 225.993 100.894 226.154 100.709L229.679 96.6909L231.76 94.3192L231.774 94.303C231.774 94.303 233.5 92.7432 233.5 89.4729C233.5 85.3304 229.826 82 225.5 82C221.174 82 217.5 85.3304 217.5 89.4729C217.5 89.9164 217.88 90.2759 218.35 90.2759C218.819 90.2759 219.199 89.9164 219.199 89.4729Z" fill="#1E416A"/>
<path d="M297.699 255.17C297.41 253.399 298.699 251.699 300.512 251.403C302.324 251.106 304.088 252.308 304.377 254.079C304.509 254.891 304.368 255.65 304.002 256.3L301.887 259.824L300.529 258.665C300.339 258.503 300.051 258.523 299.885 258.71C299.719 258.897 299.738 259.179 299.927 259.341L301.699 260.853C301.801 260.94 301.938 260.978 302.072 260.956C302.206 260.934 302.324 260.855 302.393 260.74L303.9 258.228L304.79 256.745L304.796 256.735C304.796 256.735 305.571 255.729 305.278 253.932C304.906 251.657 302.66 250.146 300.367 250.52C298.075 250.895 296.427 253.042 296.798 255.317C296.838 255.561 297.072 255.726 297.321 255.685C297.569 255.644 297.739 255.414 297.699 255.17Z" fill="#FBF9FA"/>
<path d="M249.173 207.503C248.877 204.35 250.901 201.554 253.593 201.301C256.284 201.049 258.793 203.419 259.089 206.572C259.225 208.016 258.961 209.328 258.374 210.416L255 216.293L253.084 214.056C252.817 213.745 252.391 213.738 252.133 214.042C251.875 214.345 251.882 214.844 252.149 215.155L254.648 218.072C254.792 218.24 254.99 218.327 255.189 218.308C255.388 218.289 255.567 218.167 255.677 217.976L258.083 213.786L259.502 211.313L259.512 211.297C259.512 211.297 260.727 209.644 260.427 206.446C260.047 202.396 256.85 199.412 253.445 199.731C250.041 200.051 247.455 203.578 247.835 207.629C247.876 208.062 248.209 208.386 248.578 208.351C248.947 208.316 249.214 207.937 249.173 207.503Z" fill="#1E416A"/>
<path d="M333.968 136.052C334.086 132.887 336.911 130.397 340.149 130.519C343.388 130.64 346.018 133.335 345.899 136.5C345.844 137.949 345.335 139.213 344.474 140.21L339.585 145.565L337.64 143.085C337.369 142.739 336.864 142.674 336.511 142.939C336.159 143.204 336.093 143.699 336.364 144.044L338.9 147.279C339.046 147.466 339.269 147.579 339.509 147.588C339.748 147.597 339.979 147.501 340.139 147.326L343.625 143.508L345.682 141.254L345.696 141.239C345.696 141.239 347.387 139.769 347.508 136.56C347.66 132.495 344.304 129.096 340.208 128.942C336.112 128.789 332.511 131.926 332.359 135.992C332.342 136.427 332.689 136.793 333.134 136.81C333.578 136.827 333.951 136.487 333.968 136.052Z" fill="#FBF9FA"/>
</g>
<defs>
<clipPath id="clip0_9073_28313">
<rect width="600" height="370" fill="white"/>
</clipPath>
</defs>
</svg>
