<svg width="48" height="48" viewBox="0 0 96 96" fill="#FB926B" xmlns="http://www.w3.org/2000/svg">
  <rect width="96" height="96" rx="48"/>
  <path d="M40.9801 51.7946C40.9801 50.5766 41.3803 49.5694 42.1806 48.773C42.9808 47.9297 43.993 47.5081 45.2169 47.5081C47.147 47.5081 48.8888 47.227 50.4423 46.6649C51.9958 46.0559 53.2197 45.0955 54.1142 43.7838C55.0557 42.4721 55.5264 40.7387 55.5264 38.5838C55.5264 36.991 55.1263 35.5856 54.326 34.3676C53.5728 33.1495 52.5136 32.1892 51.1484 31.4865C49.8303 30.7838 48.3239 30.4324 46.6292 30.4324C45.3111 30.4324 44.0636 30.6667 42.8867 31.1351C41.7569 31.6036 40.7212 32.236 39.7797 33.0324C39.0265 33.6883 38.1085 34.1802 37.0258 34.5081C35.9901 34.7892 34.931 34.5315 33.8482 33.7351C32.7184 32.8919 32.1064 31.8847 32.0123 30.7135C31.9181 29.5423 32.3653 28.4649 33.3539 27.4811C35.0486 25.7477 37.0258 24.4126 39.2854 23.4757C41.5921 22.4919 44.04 22 46.6292 22C49.8774 22 52.7961 22.7495 55.3852 24.2486C58.0214 25.7009 60.1163 27.6685 61.6698 30.1514C63.2233 32.6342 64 35.445 64 38.5838C64 40.9261 63.6469 43.0108 62.9408 44.8378C62.2347 46.618 61.2226 48.164 59.9044 49.4757C58.6334 50.7405 57.127 51.7712 55.3852 52.5676C53.6905 53.3171 51.831 53.8559 49.8068 54.1838C49.7126 54.2306 49.6185 54.2775 49.5243 54.3243C49.4772 54.3712 49.4537 54.4414 49.4537 54.5351V57.1351C49.4537 58.3532 49.0536 59.3838 48.2533 60.227C47.453 61.0234 46.4409 61.4216 45.2169 61.4216C43.993 61.4216 42.9808 61.0234 42.1806 60.227C41.3803 59.3838 40.9801 58.3532 40.9801 57.1351V51.7946ZM44.8639 74C43.4987 74 42.4395 73.6486 41.6863 72.9459C40.9801 72.1964 40.6271 71.1423 40.6271 69.7838V68.5892C40.6271 67.2306 40.9801 66.2 41.6863 65.4973C42.4395 64.7477 43.4987 64.373 44.8639 64.373H45.7818C47.147 64.373 48.1827 64.7477 48.8888 65.4973C49.642 66.2 50.0186 67.2306 50.0186 68.5892V69.7838C50.0186 71.1423 49.642 72.1964 48.8888 72.9459C48.1827 73.6486 47.147 74 45.7818 74H44.8639Z" fill="#FBF9FA"/>
</svg>
