<svg width="67" height="84" viewBox="0 0 67 84" fill="none" xmlns="http://www.w3.org/2000/svg">
<path d="M7.03618 32.911C7.03618 18.7087 18.9619 7.07319 33.1221 7.07319C47.2824 7.07319 59.2081 18.7087 59.2081 32.911C59.2081 39.4142 57.19 45.1631 53.5938 49.7763L33.1221 74.5992L24.2255 63.8116C22.9855 62.3079 20.7676 62.0995 19.2718 63.3461C17.776 64.5928 17.5687 66.8223 18.8088 68.326L30.4138 82.3976C31.0821 83.208 32.0749 83.677 33.1221 83.677C34.1694 83.677 35.1621 83.208 35.8305 82.3976L50.4262 64.6996L59.0405 54.2543C59.0598 54.2308 59.0789 54.2071 59.0976 54.1832C59.0976 54.1832 66.2443 47.3134 66.2443 32.911C66.2443 14.6673 51.0328 0 33.1221 0C15.2115 0 0 14.6673 0 32.911C0 34.8642 1.5751 36.4476 3.51809 36.4476C5.46108 36.4476 7.03618 34.8642 7.03618 32.911Z" fill="#0063CB"/>
</svg>
