<svg width="16" height="20" viewBox="0 0 16 20" fill="none" xmlns="http://www.w3.org/2000/svg">
<path fill-rule="evenodd" clip-rule="evenodd" d="m3.099 12.042-.014-.017c-.849-1.01-1.307-2.386-1.307-4.035 0-3.397 2.844-6.2 6.222-6.2 3.378 0 6.222 2.803 6.222 6.2 0 1.588-.486 2.968-1.336 4.07L8 18.024l-4.9-5.981Zm6.023 7.426 5.15-6.287C15.385 11.75 16 9.971 16 7.99 16 3.577 12.333 0 8 0S0 3.577 0 7.99c0 1.982.555 3.795 1.728 5.191l5.15 6.287c.582.71 1.662.71 2.244 0Zm-1.203-9.212c1.339 0 2.424-1.13 2.424-2.524 0-1.393-1.085-2.523-2.424-2.523S5.495 6.34 5.495 7.732c0 1.394 1.085 2.524 2.424 2.524Z" fill="#7B83B0"/>
</svg>
