<svg width="20" height="20" viewBox="0 0 20 20" fill="none" xmlns="http://www.w3.org/2000/svg">
<path fill-rule="evenodd" clip-rule="evenodd" d="M17.6761 12.2607C17.5144 12.8105 17.2953 13.3357 17.0257 13.8294C17.0923 13.8776 17.1567 13.9304 17.2184 13.9879C18.0266 14.7407 18.0715 16.0062 17.3187 16.8145C17.1566 16.9885 16.9885 17.1566 16.8145 17.3187C16.0062 18.0715 14.7407 18.0266 13.9879 17.2184C13.9304 17.1567 13.8776 17.0923 13.8294 17.0257C13.3357 17.2953 12.8105 17.5144 12.2607 17.6761C12.2737 17.7574 12.2819 17.8404 12.2848 17.9247C12.3236 19.0286 11.4602 19.9549 10.3563 19.9937C10.238 19.9979 10.1192 20 10 20C9.88081 20 9.76203 19.9979 9.64368 19.9937C8.53979 19.9549 7.67637 19.0286 7.71516 17.9247C7.71813 17.8404 7.72628 17.7574 7.7393 17.6761C7.1895 17.5144 6.66429 17.2953 6.17064 17.0257C6.12245 17.0923 6.06962 17.1567 6.01215 17.2184C5.2593 18.0266 3.99377 18.0715 3.1855 17.3187C3.01153 17.1566 2.84335 16.9885 2.68131 16.8145C1.92846 16.0062 1.97338 14.7407 2.78165 13.9879C2.84335 13.9304 2.90772 13.8776 2.97432 13.8294C2.70468 13.3357 2.48555 12.8105 2.32389 12.2607C2.24262 12.2737 2.15965 12.2819 2.07527 12.2848C0.971381 12.3236 0.0450512 11.4602 0.0062536 10.3563C0.00209415 10.238 0 10.1192 0 10C0 9.88081 0.00209415 9.76203 0.0062536 9.64368C0.0450513 8.53979 0.971381 7.67637 2.07527 7.71516C2.15965 7.71813 2.24262 7.72628 2.32389 7.7393C2.48555 7.1895 2.70468 6.66429 2.97432 6.17064C2.90772 6.12245 2.84335 6.06962 2.78165 6.01215C1.97338 5.2593 1.92846 3.99377 2.68131 3.1855C2.84335 3.01153 3.01153 2.84335 3.1855 2.68131C3.99377 1.92846 5.2593 1.97338 6.01215 2.78165C6.06962 2.84335 6.12245 2.90772 6.17063 2.97432C6.66429 2.70468 7.1895 2.48555 7.7393 2.32389C7.72628 2.24262 7.71813 2.15965 7.71516 2.07527C7.67637 0.971381 8.53979 0.0450512 9.64368 0.0062536C9.76203 0.00209415 9.88081 0 10 0C10.1192 0 10.238 0.00209415 10.3563 0.0062536C11.4602 0.0450513 12.3236 0.971381 12.2848 2.07527C12.2819 2.15965 12.2737 2.24262 12.2607 2.32389C12.8105 2.48555 13.3357 2.70468 13.8294 2.97432C13.8776 2.90772 13.9304 2.84335 13.9879 2.78165C14.7407 1.97338 16.0062 1.92846 16.8145 2.68131C16.9885 2.84335 17.1566 3.01153 17.3187 3.1855C18.0715 3.99377 18.0266 5.2593 17.2184 6.01215C17.1567 6.06962 17.0923 6.12245 17.0257 6.17063C17.2953 6.66429 17.5144 7.1895 17.6761 7.7393C17.7574 7.72628 17.8404 7.71813 17.9247 7.71516C19.0286 7.67637 19.9549 8.53979 19.9937 9.64368C19.9979 9.76203 20 9.88081 20 10C20 10.1192 19.9979 10.238 19.9937 10.3563C19.9549 11.4602 19.0286 12.3236 17.9247 12.2848C17.8404 12.2819 17.7574 12.2737 17.6761 12.2607ZM14 10C14 12.2091 12.2091 14 10 14C7.79086 14 6 12.2091 6 10C6 7.79086 7.79086 6 10 6C12.2091 6 14 7.79086 14 10Z" fill="#000091"/>
</svg>
