<svg
   xmlns:dc="http://purl.org/dc/elements/1.1/"
   xmlns:cc="http://creativecommons.org/ns#"
   xmlns:rdf="http://www.w3.org/1999/02/22-rdf-syntax-ns#"
   xmlns:svg="http://www.w3.org/2000/svg"
   xmlns="http://www.w3.org/2000/svg"
   xmlns:sodipodi="http://sodipodi.sourceforge.net/DTD/sodipodi-0.dtd"
   xmlns:inkscape="http://www.inkscape.org/namespaces/inkscape"
   inkscape:version="1.0beta2 (2b71d25, 2019-12-03)"
   sodipodi:docname="socle_clea.svg"
   id="svg32"
   version="1.1"
   fill="none"
   viewBox="0 0 48 97.669571"
   height="97.669571"
   width="48">
  <circle
     id="circle10"
     fill="#6E84FE"
     r="24"
     cy="24"
     cx="24" />
  <path
     id="path12"
     fill="white"
     d="m 12.75,14.805 v 17.1402 l 11.25,2.5 11.25,-2.5 V 14.805 l -10.4365,2.3192 c -0.5358,0.119 -1.0912,0.119 -1.627,0 z m 10.9246,0.1228 c 0.2143,0.0476 0.4365,0.0476 0.6508,0 L 35.6746,12.4057 C 36.6114,12.1975 37.5,12.9104 37.5,13.87 v 18.6768 c 0,0.7031 -0.4883,1.3118 -1.1746,1.4643 l -12,2.6667 c -0.2143,0.0476 -0.4365,0.0476 -0.6508,0 l -12,-2.6667 C 10.9883,33.8586 10.5,33.2499 10.5,32.5468 V 13.87 c 0,-0.9596 0.8886,-1.6725 1.8254,-1.4643 z"
     clip-rule="evenodd"
     fill-rule="evenodd" />
  <path
     id="path14"
     fill="white"
     d="m 34.0914,17.7272 c 0.1507,0.6027 -0.2158,1.2135 -0.8185,1.3642 l -6,1.5 c -0.6028,0.1507 -1.2136,-0.2158 -1.3643,-0.8185 -0.1507,-0.6028 0.2158,-1.2136 0.8186,-1.3643 l 6,-1.5 c 0.6027,-0.1507 1.2135,0.2158 1.3642,0.8186 z"
     clip-rule="evenodd"
     fill-rule="evenodd" />
  <path
     id="path16"
     fill="white"
     d="m 34.0914,21.4772 c 0.1507,0.6027 -0.2158,1.2135 -0.8185,1.3642 l -6,1.5 c -0.6028,0.1507 -1.2136,-0.2158 -1.3643,-0.8185 -0.1507,-0.6028 0.2158,-1.2136 0.8186,-1.3643 l 6,-1.5 c 0.6027,-0.1507 1.2135,0.2158 1.3642,0.8186 z"
     clip-rule="evenodd"
     fill-rule="evenodd" />
  <path
     id="path18"
     fill="white"
     d="m 31.0914,25.9772 c 0.1507,0.6027 -0.2158,1.2135 -0.8185,1.3642 l -3,0.75 c -0.6028,0.1507 -1.2136,-0.2158 -1.3643,-0.8185 -0.1507,-0.6028 0.2158,-1.2136 0.8186,-1.3643 l 3,-0.75 c 0.6027,-0.1507 1.2135,0.2158 1.3642,0.8186 z"
     clip-rule="evenodd"
     fill-rule="evenodd" />
  <path
     id="path20"
     fill="white"
     d="m 16.5,19.2191 v 5.2405 l 3,0.5714 V 19.7905 Z M 16.0307,16.8392 C 15.1063,16.6632 14.25,17.3718 14.25,18.3127 v 6.7675 c 0,0.7202 0.5119,1.3388 1.2193,1.4735 l 4.5,0.8572 c 0.9244,0.176 1.7807,-0.5326 1.7807,-1.4735 v -6.7675 c 0,-0.7202 -0.5119,-1.3388 -1.2193,-1.4735 z"
     clip-rule="evenodd"
     fill-rule="evenodd" />
  <circle
     id="circle22"
     fill="#6E84FE"
     r="24"
     cy="73.669571"
     cx="24" />
  <path
     id="path24"
     fill="white"
     d="m 17.25,62.794565 c 0,-0.6213 -0.5037,-1.125 -1.125,-1.125 -0.6213,0 -1.125,0.5037 -1.125,1.125 v 3.375 h -3.375 c -0.6213,0 -1.125,0.5037 -1.125,1.125 0,0.6213 0.5037,1.125 1.125,1.125 H 15 v 3.375 c 0,0.6213 0.5037,1.125 1.125,1.125 0.6213,0 1.125,-0.5037 1.125,-1.125 v -3.375 h 3.375 c 0.6213,0 1.125,-0.5037 1.125,-1.125 0,-0.6213 -0.5037,-1.125 -1.125,-1.125 H 17.25 Z"
     clip-rule="evenodd"
     fill-rule="evenodd" />
  <path
     id="path26"
     fill="white"
     d="m 34.3525,64.988065 c 0.4393,-0.4394 0.4393,-1.1517 0,-1.591 -0.4394,-0.4394 -1.1517,-0.4394 -1.591,0 l -2.3865,2.3865 -2.3865,-2.3865 c -0.4393,-0.4394 -1.1516,-0.4394 -1.591,0 -0.4393,0.4393 -0.4393,1.1516 0,1.591 l 2.3865,2.3865 -2.3865,2.3864 c -0.4393,0.4394 -0.4393,1.1517 0,1.591 0.4394,0.4394 1.1517,0.4394 1.591,0 l 2.3865,-2.3865 2.3865,2.3865 c 0.4393,0.4394 1.1516,0.4394 1.591,0 0.4393,-0.4393 0.4393,-1.1516 0,-1.591 l -2.3865,-2.3864 z"
     clip-rule="evenodd"
     fill-rule="evenodd" />
  <path
     id="path28"
     fill="white"
     d="m 25.875,77.419565 c -0.6213,0 -1.125,0.5037 -1.125,1.125 0,0.6213 0.5037,1.125 1.125,1.125 h 9 c 0.6213,0 1.125,-0.5037 1.125,-1.125 0,-0.6213 -0.5037,-1.125 -1.125,-1.125 z m 0,4.5 c -0.6213,0 -1.125,0.5037 -1.125,1.125 0,0.6213 0.5037,1.125 1.125,1.125 h 9 c 0.6213,0 1.125,-0.5037 1.125,-1.125 0,-0.6213 -0.5037,-1.125 -1.125,-1.125 z"
     clip-rule="evenodd"
     fill-rule="evenodd" />
  <path
     id="path30"
     fill="white"
     d="m 17.25,77.044565 c 0,0.6213 -0.5037,1.125 -1.125,1.125 -0.6213,0 -1.125,-0.5037 -1.125,-1.125 0,-0.6213 0.5037,-1.125 1.125,-1.125 0.6213,0 1.125,0.5037 1.125,1.125 z m -6.75,3.75 c 0,-0.6213 0.5037,-1.125 1.125,-1.125 h 9 c 0.6213,0 1.125,0.5037 1.125,1.125 0,0.6213 -0.5037,1.125 -1.125,1.125 h -9 c -0.6213,0 -1.125,-0.5037 -1.125,-1.125 z m 5.625,4.875 c 0.6213,0 1.125,-0.5037 1.125,-1.125 0,-0.6213 -0.5037,-1.125 -1.125,-1.125 -0.6213,0 -1.125,0.5037 -1.125,1.125 0,0.6213 0.5037,1.125 1.125,1.125 z"
     clip-rule="evenodd"
     fill-rule="evenodd" />
</svg>
