<svg width="111" height="150" viewBox="0 0 111 150" fill="none" xmlns="http://www.w3.org/2000/svg">
<mask id="mask0" mask-type="alpha" maskUnits="userSpaceOnUse" x="0" y="0" width="111" height="150">
<rect width="111" height="150" rx="8" fill="#C4C4C4"/>
</mask>
<g mask="url(#mask0)">
<path d="M-1.16028 98.855C-1.16028 98.855 20.9445 91.1733 56.0049 91.1733C91.0654 91.1733 113.002 81.8472 113.002 81.8472V154.036H-1.16028V98.855Z" fill="#1E416A"/>
<path fill-rule="evenodd" clip-rule="evenodd" d="M-1.19543 82.4652C-1.18035 82.4226 1.91521 73.752 21.1697 73.9468C31.0199 74.0465 40.3822 70.7721 50.3989 67.2689C60.0101 63.9074 70.2239 60.3352 82.0493 59.3309C106.199 57.2799 113.01 62.9468 113.01 62.9468V54.1132L113.01 54.1132L113.01 139.445C113.01 139.445 109.946 130.72 90.6445 130.915C80.7942 131.015 71.432 127.736 61.4153 124.228C51.804 120.862 41.5903 117.286 29.7649 116.28C5.61523 114.226 -1.19543 103.306 -1.19543 103.306L-1.19543 82.4652Z" fill="#FDAF54"/>
<path d="M113.001 12.442H96.0258L-1.16073 8.47403V95.9955C-1.16073 95.9955 1.90145 88.6493 21.196 88.814C40.4906 88.9787 57.9123 80.4448 82.0528 78.7157C106.193 76.9866 113.001 65.5687 113.001 65.5687L113.001 12.442Z" fill="#9ADBD0"/>
<path d="M113.001 -4.62225H96.0258H-1.16073V45.2075C-1.16073 45.2075 1.90144 36.5321 21.196 36.7265C40.4906 36.921 57.9123 24.217 82.0528 22.175C106.193 20.1331 113.001 25.775 113.001 25.775L113.001 -4.62225Z" fill="#6E84FE"/>
<path d="M61.8556 73.3978C62.9262 74.1977 62.9262 75.8023 61.8556 76.6022L54.4471 82.1375C53.1282 83.123 51.25 82.1818 51.25 80.5354L51.25 69.4646C51.25 67.8182 53.1282 66.877 54.4471 67.8625L61.8556 73.3978Z" fill="#FBF9FA"/>
<rect x="16" y="52" width="79" height="44" rx="4" stroke="#FBF9FA" stroke-width="2"/>
</g>
</svg>
