<svg width="111" height="150" fill="none" xmlns="http://www.w3.org/2000/svg">
  <mask id="a" style="mask-type:alpha" maskUnits="userSpaceOnUse" x="0" y="0" width="111" height="150">
    <rect width="111" height="150" rx="8" fill="#C4C4C4"/>
  </mask>
  <g mask="url(#a)">
    <path d="M114.002 28.442H97.026L-.16 24.474V167.78s3.062-7.346 22.357-7.182c19.294.165 36.716-8.369 60.856-10.098 24.141-1.729 30.949-13.147 30.949-13.147V28.442Z" fill="#FB926B"/>
    <path d="m-.713 66.672.554 87.365h114.162v-23.028C114.003 126 109 115.5 95.5 113c-6.883-1.275-31.5-5-39.5-9-21.913-10.957-21.5-25.5-32.5-30.5-14.11-6.414-23.66-6-24.213-6.828Z" fill="#000091"/>
    <path d="M114.002-4.622H-.16v57.83s3.062-8.676 22.357-8.481c19.294.194 36.716-12.51 60.856-14.552 24.141-2.042 30.949 3.6 30.949 3.6V-4.622Z" fill="#ECECFE"/>
    <path fill-rule="evenodd" clip-rule="evenodd" d="M55 41a3 3 0 0 1 3-3h18a3 3 0 0 1 3 3v1h2a3 3 0 0 1 3 3v1h2a3 3 0 0 1 3 3v39a3 3 0 0 1-3 3H36a3 3 0 0 1-3-3v-1h-2a3 3 0 0 1-3-3v-1h-2a3 3 0 0 1-3-3V46a3 3 0 0 1 3-3h28a1 1 0 0 0 1-1v-1ZM28 81V50a3 3 0 0 1 3-3h28a1 1 0 0 0 1-1v-1a3 3 0 0 1 3-3h14v-1a1 1 0 0 0-1-1H58a1 1 0 0 0-1 1v1a3 3 0 0 1-3 3H26a1 1 0 0 0-1 1v34a1 1 0 0 0 1 1h2Zm5-27v31h-2a1 1 0 0 1-1-1V50a1 1 0 0 1 1-1h28a3 3 0 0 0 3-3v-1a1 1 0 0 1 1-1h18a1 1 0 0 1 1 1v1H68a3 3 0 0 0-3 3v1a1 1 0 0 1-1 1H36a3 3 0 0 0-3 3Zm35-6a1 1 0 0 0-1 1v1a3 3 0 0 1-3 3H36a1 1 0 0 0-1 1v34a1 1 0 0 0 1 1h50a1 1 0 0 0 1-1V49a1 1 0 0 0-1-1H68Z" fill="#FBF9FA"/>
    <path d="M18.143 127.469c.374 0 .73.114 1.067.341.337.22.609.521.814.902.206.374.308.785.308 1.232 0 .44-.102.851-.308 1.232a2.518 2.518 0 0 1-.814.913c-.337.22-.693.33-1.067.33H16.23v2.079a.678.678 0 0 1-.176.484.604.604 0 0 1-.462.187.59.59 0 0 1-.45-.187.702.702 0 0 1-.177-.484v-6.358a.658.658 0 0 1 .671-.671h2.508Zm0 3.696c.14 0 .275-.059.407-.176.14-.117.25-.268.33-.451.088-.191.132-.389.132-.594 0-.205-.044-.4-.132-.583a1.11 1.11 0 0 0-.33-.451.612.612 0 0 0-.407-.176H16.23v2.431h1.914Zm6.75-3.696c.688 0 1.279.172 1.77.517.499.337.877.799 1.133 1.386.264.579.396 1.228.396 1.947 0 .719-.132 1.371-.396 1.958a3.246 3.246 0 0 1-1.133 1.386c-.491.337-1.082.506-1.77.506h-2.63a.677.677 0 0 1-.484-.187.678.678 0 0 1-.187-.484v-6.358a.658.658 0 0 1 .671-.671h2.63Zm-.11 6.435c.66 0 1.154-.242 1.484-.726.33-.491.495-1.111.495-1.859s-.169-1.364-.506-1.848c-.33-.491-.821-.737-1.474-.737h-1.815v5.17h1.815Zm6.047-5.17v1.936h2.376a.64.64 0 0 1 .473.187.588.588 0 0 1 .198.462.576.576 0 0 1-.198.429.64.64 0 0 1-.473.187H30.83v2.563a.64.64 0 0 1-.209.484.664.664 0 0 1-.473.187.706.706 0 0 1-.506-.187.655.655 0 0 1-.187-.484v-6.358a.658.658 0 0 1 .671-.671h3.575a.64.64 0 0 1 .473.187.588.588 0 0 1 .198.462.576.576 0 0 1-.198.429.64.64 0 0 1-.473.187h-2.87Z" fill="#FBF9FA"/>
    <rect x="10.077" y="123.807" width="28.073" height="15.116" rx="4" stroke="#FBF9FA" stroke-width="2"/>
  </g>
</svg>
