<svg width="111" height="150" fill="none" xmlns="http://www.w3.org/2000/svg">
  <mask id="a" style="mask-type:alpha" maskUnits="userSpaceOnUse" x="0" y="0" width="111" height="150">
    <rect width="111" height="150" rx="8" fill="#C4C4C4"/>
  </mask>
  <g mask="url(#a)">
    <path d="M114.002 28.442H97.026L-.16 24.474V167.78s3.062-7.346 22.357-7.182c19.294.165 36.716-8.369 60.856-10.098 24.141-1.729 30.949-13.147 30.949-13.147V28.443Z" fill="#FB926B"/>
    <path d="m-.713 66.672.554 87.364h114.162v-23.027C114.003 126 109 115.5 95.5 113c-6.883-1.275-31.5-5-39.5-9-21.913-10.957-21.5-25.5-32.5-30.5-14.11-6.414-23.66-6-24.213-6.828Z" fill="#000091"/>
    <path d="M114.002-4.622H-.16v57.83s3.062-8.676 22.357-8.481c19.294.194 36.716-12.51 60.856-14.552 24.141-2.042 30.949 3.6 30.949 3.6V-4.622Z" fill="#ECECFE"/>
    <path stroke="#FBF9FA" stroke-width="2" stroke-linecap="round" d="M56 56h28M11 13h9m-9 4h9m-9 4h9m36 47h28M22 80h62M22 92h62m-62 12h43"/>
    <rect x="20" y="42" width="30" height="27" rx="2" fill="#fff"/>
    <path d="M21.326 129.115c.176 0 .323.066.44.198a.656.656 0 0 1 .187.484c0 .066-.015.15-.044.253l-1.683 4.532a.616.616 0 0 1-.242.319.643.643 0 0 1-.363.11l-.088-.011c-.25-.015-.436-.154-.561-.418l-.935-2.706-.891 2.706c-.125.264-.312.403-.561.418l-.088.011a.697.697 0 0 1-.374-.11.636.636 0 0 1-.231-.319l-1.683-4.532a.734.734 0 0 1-.044-.253.69.69 0 0 1 .176-.473.62.62 0 0 1 .484-.209.63.63 0 0 1 .374.11c.11.066.187.169.231.308l1.188 3.223.869-2.354c.117-.271.319-.407.605-.407.154 0 .271.033.352.099a.728.728 0 0 1 .22.308l.847 2.299 1.177-3.168a.529.529 0 0 1 .231-.308.72.72 0 0 1 .407-.11Zm8.443 0c.176 0 .323.066.44.198a.655.655 0 0 1 .187.484c0 .066-.014.15-.044.253l-1.683 4.532a.615.615 0 0 1-.242.319.643.643 0 0 1-.363.11l-.088-.011c-.249-.015-.436-.154-.56-.418l-.936-2.706-.89 2.706c-.125.264-.312.403-.562.418l-.088.011a.697.697 0 0 1-.374-.11.636.636 0 0 1-.23-.319l-1.684-4.532a.737.737 0 0 1 .132-.726.62.62 0 0 1 .484-.209c.147 0 .272.037.374.11.11.066.187.169.231.308l1.188 3.223.87-2.354c.117-.271.318-.407.604-.407.154 0 .272.033.352.099a.727.727 0 0 1 .22.308l.847 2.299 1.177-3.168a.529.529 0 0 1 .231-.308.72.72 0 0 1 .407-.11Zm8.444 0c.176 0 .322.066.44.198a.656.656 0 0 1 .187.484c0 .066-.015.15-.044.253l-1.683 4.532a.616.616 0 0 1-.242.319.643.643 0 0 1-.363.11L36.42 135c-.25-.015-.437-.154-.561-.418l-.935-2.706-.891 2.706c-.125.264-.312.403-.561.418l-.088.011a.697.697 0 0 1-.374-.11.636.636 0 0 1-.231-.319l-1.683-4.532a.734.734 0 0 1-.044-.253c0-.183.058-.341.176-.473a.62.62 0 0 1 .484-.209.63.63 0 0 1 .374.11c.11.066.187.169.23.308l1.189 3.223.869-2.354c.117-.271.319-.407.605-.407.154 0 .271.033.352.099a.728.728 0 0 1 .22.308l.847 2.299 1.177-3.168a.529.529 0 0 1 .23-.308.72.72 0 0 1 .408-.11Z" fill="#FBF9FA"/>
    <rect x="10" y="124" width="32" height="15" rx="4" stroke="#FBF9FA" stroke-width="2"/>
  </g>
</svg>
