<svg width="90" height="122" fill="none" xmlns="http://www.w3.org/2000/svg">
  <mask id="a" style="mask-type:luminance" maskUnits="userSpaceOnUse" x="0" y="0" width="90" height="122">
    <path d="M0 6.507C0 2.913 2.904 0 6.486 0h77.027C87.096 0 90 2.913 90 6.507v108.986c0 3.594-2.904 6.507-6.487 6.507H6.486C2.904 122 0 119.087 0 115.493V6.507Z" fill="#fff"/>
  </mask>
  <g mask="url(#a)">
    <path d="M91.623 23.946H77.859l-78.8-3.227v116.555s2.483-5.974 18.127-5.841c15.645.134 29.77-6.807 49.343-8.213 19.574-1.406 25.094-10.693 25.094-10.693v-88.58Z" fill="#FB926B"/>
    <path d="m-1.389 55.04.45 71.056h92.563v-18.729c0-4.074-4.056-12.614-15.002-14.647-5.581-1.037-25.54-4.067-32.027-7.32-17.768-8.912-17.433-20.74-26.352-24.807C6.803 55.377-.94 55.713-1.389 55.04Z" fill="#000091"/>
    <path d="M91.623-2.946H-.941v47.035s2.483-7.056 18.127-6.898c15.645.158 29.77-10.175 49.343-11.835 19.574-1.661 25.094 2.928 25.094 2.928v-31.23Z" fill="#ECECFE"/>
    <path d="M14.71 103.675c.304 0 .592.092.866.277.274.179.494.424.66.734.166.304.25.638.25 1.002 0 .358-.084.692-.25 1.002a2.03 2.03 0 0 1-.66.742 1.555 1.555 0 0 1-.865.269h-1.552v1.691a.55.55 0 0 1-.143.393.488.488 0 0 1-.374.152.477.477 0 0 1-.366-.152.57.57 0 0 1-.143-.393v-5.171a.53.53 0 0 1 .544-.546h2.034Zm0 3.006a.497.497 0 0 0 .33-.143 1 1 0 0 0 .268-.367 1.133 1.133 0 0 0 0-.957.903.903 0 0 0-.267-.367.492.492 0 0 0-.33-.143h-1.552v1.977h1.552Zm5.473-3.006c.559 0 1.038.14 1.436.42.404.275.71.65.919 1.128.214.471.32.999.32 1.583 0 .585-.106 1.115-.32 1.593a2.634 2.634 0 0 1-.92 1.127c-.397.274-.876.411-1.435.411h-2.132a.547.547 0 0 1-.392-.152.55.55 0 0 1-.152-.393v-5.171a.53.53 0 0 1 .544-.546h2.132Zm-.09 5.234c.536 0 .937-.197 1.205-.591.267-.399.401-.903.401-1.512 0-.608-.137-1.109-.41-1.503-.268-.4-.666-.599-1.195-.599h-1.472v4.205h1.472Zm4.905-4.205v1.574h1.926a.52.52 0 0 1 .384.152.48.48 0 0 1 .16.376.468.468 0 0 1-.16.349.52.52 0 0 1-.384.152h-1.926v2.085a.52.52 0 0 1-.17.393.535.535 0 0 1-.383.152.57.57 0 0 1-.41-.152.531.531 0 0 1-.152-.393v-5.171a.53.53 0 0 1 .544-.546h2.899a.52.52 0 0 1 .383.152.48.48 0 0 1 .16.376.47.47 0 0 1-.16.349.52.52 0 0 1-.383.152h-2.328Z" fill="#FBF9FA"/>
    <path fill-rule="evenodd" clip-rule="evenodd" d="M7.36 103.949a4.06 4.06 0 0 1 4.054-4.066h16.275a4.06 4.06 0 0 1 4.054 4.066v5.788a4.06 4.06 0 0 1-4.054 4.067H11.414a4.06 4.06 0 0 1-4.054-4.067v-5.788Zm4.054-2.44a2.437 2.437 0 0 0-2.433 2.44v5.788a2.436 2.436 0 0 0 2.433 2.44h16.275a2.436 2.436 0 0 0 2.432-2.44v-5.788a2.437 2.437 0 0 0-2.432-2.44H11.414Zm5.613-82.802c0-.45.363-.814.81-.814h50.27c.449 0 .812.364.812.814a.812.812 0 0 1-.811.813h-50.27a.812.812 0 0 1-.811-.813Zm0 9.76c0-.45.363-.814.81-.814h50.27c.449 0 .812.364.812.814a.812.812 0 0 1-.811.813h-50.27a.812.812 0 0 1-.811-.813Zm0 9.76c0-.45.363-.814.81-.814h50.27a.813.813 0 0 1 .001 1.627h-50.27a.812.812 0 0 1-.811-.813Zm0 9.76c0-.45.363-.814.81-.814h50.27c.449 0 .812.364.812.814a.812.812 0 0 1-.811.813h-50.27a.812.812 0 0 1-.811-.813Zm0 9.76c0-.45.363-.814.81-.814h34.866c.447 0 .81.364.81.814a.812.812 0 0 1-.81.813H17.837a.812.812 0 0 1-.811-.813Z" fill="#FBF9FA"/>
  </g>
</svg>
