<svg width="111" height="150" fill="none" xmlns="http://www.w3.org/2000/svg">
  <mask id="a" style="mask-type:alpha" maskUnits="userSpaceOnUse" x="0" y="0" width="111" height="150">
    <rect width="111" height="150" rx="8" fill="#C4C4C4"/>
  </mask>
  <g mask="url(#a)">
    <path d="M113.002 28.442H96.026L-1.16 24.474V167.78s3.062-7.346 22.357-7.182c19.294.165 36.716-8.369 60.856-10.098 24.141-1.729 30.949-13.147 30.949-13.147V28.442Z" fill="#FB926B"/>
    <path d="m-1.713 66.672.554 87.365h114.162v-23.028C113.003 126 108 115.5 94.5 113c-6.883-1.275-31.5-5-39.5-9-21.913-10.957-21.5-25.5-32.5-30.5-14.11-6.414-23.66-6-24.213-6.828Z" fill="#000091"/>
    <path d="M113.002-4.622H-1.16v57.83s3.062-8.676 22.357-8.481c19.294.194 36.716-12.51 60.856-14.552 24.141-2.042 30.949 3.6 30.949 3.6V-4.622Z" fill="#ECECFE"/>
    <path d="M61.856 73.398a2 2 0 0 1 0 3.204l-7.409 5.535c-1.319.986-3.197.045-3.197-1.602v-11.07c0-1.647 1.878-2.588 3.197-1.603l7.409 5.536Z" fill="#FBF9FA"/>
    <rect x="16" y="52" width="79" height="44" rx="4" stroke="#FBF9FA" stroke-width="2"/>
  </g>
</svg>
