<svg width="111" height="150" fill="none" xml:space="preserve" xmlns="http://www.w3.org/2000/svg">
  <mask id="a" mask-type="alpha" maskUnits="userSpaceOnUse" x="0" y="0" width="111" height="150">
    <rect width="111" height="150" rx="8" fill="#C4C4C4"/>
  </mask>
  <g mask="url(#a)">
    <path d="M-1.16 98.855s22.105-7.682 57.165-7.682 56.997-9.326 56.997-9.326v72.189H-1.16V98.855Z" fill="#666666"/>
    <path fill-rule="evenodd" clip-rule="evenodd" d="M-1.195 82.465c.015-.042 3.11-8.713 22.365-8.518 9.85.1 19.212-3.175 29.229-6.678 9.611-3.362 19.825-6.934 31.65-7.938 24.15-2.051 30.961 3.616 30.961 3.616v-8.834 85.332s-3.064-8.725-22.366-8.53c-9.85.1-19.212-3.179-29.229-6.687-9.611-3.366-19.825-6.942-31.65-7.948-24.15-2.054-30.96-12.974-30.96-12.974v-20.84Z" fill="#FDAF54"/>
    <path d="M113.001 12.442H96.026L-1.161 8.474v87.522s3.062-7.347 22.357-7.182c19.295.165 36.716-8.37 60.857-10.098C106.193 76.986 113 65.569 113 65.569V12.442Z" fill="#9ADBD0"/>
    <path d="M113.001-4.622H-1.161v49.83s3.062-8.676 22.357-8.481c19.295.194 36.716-12.51 60.857-14.552 24.14-2.042 30.948 3.6 30.948 3.6V-4.622Z" fill="#C1C1FB"/>
  </g>
  <g class="style-scope yt-icon">
    <g class="style-scope yt-icon">
      <path d="M84.735 54.838c-.694-2.417-2.73-4.317-5.32-4.964-4.69-1.173-23.508-1.173-23.508-1.173s-18.817 0-23.507 1.173c-2.59.647-4.627 2.547-5.32 4.964-1.258 4.376-1.258 13.513-1.258 13.513s0 9.137 1.258 13.513c.693 2.417 2.73 4.317 5.32 4.963 4.69 1.174 23.507 1.174 23.507 1.174s18.817 0 23.508-1.174c2.59-.646 4.626-2.546 5.32-4.963 1.258-4.376 1.258-13.513 1.258-13.513s-.005-9.137-1.258-13.513z" class="style-scope yt-icon" fill="red"/>
      <path d="m49.884 76.772 15.633-8.42-15.633-8.42Z" class="style-scope yt-icon" fill="#FBF9FA"/>
    </g>
    <g class="style-scope yt-icon" fill="#FBF9FA">
      <g class="style-scope yt-icon">
        <path d="m10.361 134.606-3.245-11.72h2.831l1.138 5.313c.29 1.309.502 2.425.64 3.348h.083c.095-.662.31-1.77.64-3.329l1.178-5.332h2.831l-3.286 11.72v5.623H10.36v-5.623zm6.948 5.251c-.571-.385-.978-.985-1.22-1.799-.241-.813-.362-1.894-.362-3.245v-1.84c0-1.363.138-2.46.414-3.285.276-.825.706-1.43 1.291-1.808.586-.378 1.354-.569 2.306-.569.937 0 1.687.193 2.253.578.564.386.978.99 1.24 1.809.261.82.392 1.912.392 3.276v1.839c0 1.351-.128 2.436-.383 3.255-.254.82-.668 1.42-1.24 1.798-.57.379-1.346.57-2.324.57-1.009.001-1.796-.194-2.367-.58zm3.202-1.984c.157-.414.238-1.088.238-2.025v-3.947c0-.91-.078-1.575-.238-1.994-.16-.421-.438-.63-.837-.63-.386 0-.66.209-.816.63-.16.421-.238 1.085-.238 1.994v3.947c0 .937.076 1.613.228 2.025.152.414.426.62.826.62.4 0 .678-.206.837-.62zm12.322 2.358h-2.232l-.247-1.551h-.062c-.607 1.17-1.515 1.756-2.729 1.756-.84 0-1.46-.276-1.86-.826-.4-.552-.6-1.413-.6-2.584v-9.467h2.853v9.3c0 .567.062.969.185 1.21.124.24.331.36.621.36.248 0 .486-.075.714-.228a1.42 1.42 0 0 0 .507-.578v-10.066h2.85z" class="style-scope yt-icon"/>
        <path d="M40.582 125.182h-2.83v15.048H34.96v-15.048h-2.83v-2.294h8.453z" class="style-scope yt-icon"/>
        <path d="M47.463 140.231h-2.232l-.247-1.551h-.062c-.607 1.17-1.516 1.756-2.729 1.756-.84 0-1.46-.276-1.86-.826-.4-.552-.6-1.413-.6-2.584v-9.467h2.853v9.3c0 .567.061.969.185 1.21.124.24.33.36.621.36.248 0 .486-.075.714-.228.228-.152.395-.345.507-.578v-10.066h2.85zm9.441-10.647c-.174-.8-.452-1.378-.838-1.737-.385-.36-.916-.538-1.591-.538-.524 0-1.014.148-1.468.445a3.02 3.02 0 0 0-1.054 1.168h-.022v-6.676h-2.748v17.982h2.356l.29-1.199h.062c.221.428.552.764.992 1.014.44.247.93.371 1.468.371.964 0 1.675-.445 2.13-1.332.454-.89.682-2.277.682-4.166v-2.006c0-1.416-.088-2.527-.26-3.326zm-2.615 5.17c0 .923-.038 1.646-.114 2.17-.076.523-.202.897-.383 1.115a.882.882 0 0 1-.723.331 1.31 1.31 0 0 1-.652-.166c-.2-.11-.362-.276-.486-.495v-7.193c.095-.345.262-.625.498-.847.233-.221.49-.33.763-.33a.77.77 0 0 1 .671.34c.16.228.27.609.331 1.147.062.537.093 1.301.093 2.293v1.635zm6.921.73c0 .814.024 1.423.072 1.83.047.407.147.702.3.89.152.185.385.278.701.278.426 0 .721-.167.878-.497.16-.331.245-.883.26-1.654l2.46.145c.014.11.021.262.021.455 0 1.17-.321 2.046-.961 2.624-.64.578-1.547.868-2.717.868-1.406 0-2.391-.44-2.955-1.322-.566-.883-.847-2.246-.847-4.093v-2.212c0-1.901.292-3.29.878-4.166.585-.876 1.587-1.314 3.007-1.314.978 0 1.73.179 2.253.538.524.36.892.916 1.106 1.675.215.759.322 1.806.322 3.143v2.17H61.21Zm.362-5.972c-.145.179-.24.471-.29.878-.048.407-.072 1.023-.072 1.851v.91h2.087v-.91c0-.813-.029-1.43-.083-1.85-.055-.422-.155-.717-.3-.89-.145-.172-.37-.26-.671-.26-.305.002-.528.093-.671.271Z" class="style-scope yt-icon"/>
      </g>
    </g>
  </g>
</svg>
