<svg width="111" height="150" viewBox="0 0 111 150" fill="none" xmlns="http://www.w3.org/2000/svg">
<mask id="mask0" mask-type="alpha" maskUnits="userSpaceOnUse" x="0" y="0" width="111" height="150">
<rect width="111" height="150" rx="8" fill="#C4C4C4"/>
</mask>
<g mask="url(#mask0)">
<path d="M-1.16028 98.855C-1.16028 98.855 20.9445 91.1733 56.0049 91.1733C91.0654 91.1733 113.002 81.8472 113.002 81.8472V154.036H-1.16028V98.855Z" fill="#666666"/>
<path fill-rule="evenodd" clip-rule="evenodd" d="M-1.19543 82.4652C-1.18035 82.4226 1.91521 73.752 21.1697 73.9468C31.0199 74.0465 40.3822 70.7721 50.3989 67.2689C60.0101 63.9074 70.2239 60.3352 82.0493 59.3309C106.199 57.2799 113.01 62.9468 113.01 62.9468V54.1132L113.01 54.1132L113.01 139.445C113.01 139.445 109.946 130.72 90.6445 130.915C80.7942 131.015 71.432 127.736 61.4153 124.228C51.804 120.862 41.5903 117.286 29.7649 116.28C5.61523 114.226 -1.19543 103.306 -1.19543 103.306L-1.19543 82.4652Z" fill="#FB926B"/>
<path d="M113.001 12.442H96.0258L-1.16073 8.47403V95.9955C-1.16073 95.9955 1.90145 88.6493 21.196 88.814C40.4906 88.9787 57.9123 80.4448 82.0528 78.7157C106.193 76.9866 113.001 65.5687 113.001 65.5687L113.001 12.442Z" fill="#9ADBD0"/>
<path d="M113.001 -4.62225H96.0258H-1.16073V45.2075C-1.16073 45.2075 1.90144 36.5321 21.196 36.7265C40.4906 36.921 57.9123 24.217 82.0528 22.175C106.193 20.1331 113.001 25.775 113.001 25.775L113.001 -4.62225Z" fill="#C1C1FB"/>
<path d="M18.1434 127.469C18.5174 127.469 18.8731 127.583 19.2104 127.81C19.5478 128.03 19.8191 128.331 20.0244 128.712C20.2298 129.086 20.3324 129.497 20.3324 129.944C20.3324 130.384 20.2298 130.795 20.0244 131.176C19.8191 131.557 19.5478 131.862 19.2104 132.089C18.8731 132.309 18.5174 132.419 18.1434 132.419H16.2294V134.498C16.2294 134.696 16.1708 134.857 16.0534 134.982C15.9361 135.107 15.7821 135.169 15.5914 135.169C15.4081 135.169 15.2578 135.107 15.1404 134.982C15.0231 134.85 14.9644 134.689 14.9644 134.498V128.14C14.9644 127.949 15.0268 127.792 15.1514 127.667C15.2834 127.535 15.4448 127.469 15.6354 127.469H18.1434ZM18.1434 131.165C18.2828 131.165 18.4184 131.106 18.5504 130.989C18.6898 130.872 18.7998 130.721 18.8804 130.538C18.9684 130.347 19.0124 130.149 19.0124 129.944C19.0124 129.739 18.9684 129.544 18.8804 129.361C18.7998 129.17 18.6898 129.02 18.5504 128.91C18.4184 128.793 18.2828 128.734 18.1434 128.734H16.2294V131.165H18.1434ZM24.8924 127.469C25.5817 127.469 26.172 127.641 26.6634 127.986C27.162 128.323 27.5397 128.785 27.7964 129.372C28.0604 129.951 28.1924 130.6 28.1924 131.319C28.1924 132.038 28.0604 132.69 27.7964 133.277C27.5397 133.856 27.162 134.318 26.6634 134.663C26.172 135 25.5817 135.169 24.8924 135.169H22.2634C22.0727 135.169 21.9114 135.107 21.7794 134.982C21.6547 134.85 21.5924 134.689 21.5924 134.498V128.14C21.5924 127.949 21.6547 127.792 21.7794 127.667C21.9114 127.535 22.0727 127.469 22.2634 127.469H24.8924ZM24.7824 133.904C25.4424 133.904 25.9374 133.662 26.2674 133.178C26.5974 132.687 26.7624 132.067 26.7624 131.319C26.7624 130.571 26.5937 129.955 26.2564 129.471C25.9264 128.98 25.435 128.734 24.7824 128.734H22.9674V133.904H24.7824ZM30.8307 128.734V130.67H33.2067C33.3973 130.67 33.555 130.732 33.6797 130.857C33.8117 130.974 33.8777 131.128 33.8777 131.319C33.8777 131.48 33.8117 131.623 33.6797 131.748C33.555 131.873 33.3973 131.935 33.2067 131.935H30.8307V134.498C30.8307 134.689 30.761 134.85 30.6217 134.982C30.4897 135.107 30.332 135.169 30.1487 135.169C29.9433 135.169 29.7747 135.107 29.6427 134.982C29.518 134.857 29.4557 134.696 29.4557 134.498V128.14C29.4557 127.949 29.518 127.792 29.6427 127.667C29.7747 127.535 29.936 127.469 30.1267 127.469H33.7017C33.8923 127.469 34.05 127.531 34.1747 127.656C34.3067 127.773 34.3727 127.927 34.3727 128.118C34.3727 128.279 34.3067 128.422 34.1747 128.547C34.05 128.672 33.8923 128.734 33.7017 128.734H30.8307Z" fill="#FBF9FA"/>
<rect x="10.0773" y="123.807" width="28.0725" height="15.1159" rx="4" stroke="#FBF9FA" stroke-width="2"/>
<line x1="22" y1="23" x2="84" y2="23" stroke="#FBF9FA" stroke-width="2" stroke-linecap="round"/>
<line x1="22" y1="35" x2="84" y2="35" stroke="#FBF9FA" stroke-width="2" stroke-linecap="round"/>
<line x1="22" y1="47" x2="84" y2="47" stroke="#FBF9FA" stroke-width="2" stroke-linecap="round"/>
<line x1="22" y1="59" x2="84" y2="59" stroke="#FBF9FA" stroke-width="2" stroke-linecap="round"/>
<line x1="22" y1="71" x2="65" y2="71" stroke="#FBF9FA" stroke-width="2" stroke-linecap="round"/>
</g>
</svg>
