<svg width="290" height="776" viewBox="0 0 290 776" fill="none" xmlns="http://www.w3.org/2000/svg">
<path d="M0 488.581C0 488.581 56.1514 452.22 145.214 452.22C234.276 452.22 290 408.076 290 408.076V776H0V488.581Z" fill="#1E416A"/>
<path fill-rule="evenodd" clip-rule="evenodd" d="M0 380.966L0 555.826C0 555.826 36.1172 596.039 85 602.796C107.557 605.913 128.355 614.783 148.635 623.432C172.302 633.525 195.266 643.319 219.5 643.319C264.5 643.319 290 681.181 290 681.181L290 329L43.1224 348.451H18.8952C3.26533 361.723 0 380.966 0 380.966Z" fill="#FDAF54"/>
<path d="M289.979 80.6347H246.873L0.0884477 61.8845V475.456C0.0884477 475.456 7.8642 440.742 56.8588 441.52C105.853 442.298 150.092 401.972 211.392 393.802C272.692 385.631 289.979 331.678 289.979 331.678L289.979 80.6347Z" fill="#9ADBD0"/>
<path d="M290 0H246.878H6.35784e-07V157.114C6.35784e-07 157.114 7.77866 129.761 56.7917 130.374C105.805 130.987 150.06 90.9309 211.383 84.4925C272.706 78.0542 290 95.8433 290 95.8433L290 0Z" fill="#6E84FE"/>
</svg>
