<svg width="290" height="792" fill="none" xmlns="http://www.w3.org/2000/svg">
  <path d="M0 521.706s56.151-61.293 145.214-61.293C234.276 460.413 290 386 290 386v576H0V521.706Z" fill="#000091"/>
  <path fill-rule="evenodd" clip-rule="evenodd" d="M177.666 221h105.502c4.89 3.446 6.832 6.298 6.832 6.298V720.5s-25.5-32.252-70.5-32.252c-24.234 0-47.198-8.343-70.865-16.941-20.28-7.367-41.078-14.922-63.635-17.578-48.883-5.756-85-40.011-85-40.011V314.767s7.779-39.05 56.792-38.174c25.012.446 48.786-14.227 74.221-29.926 14.798-9.134 30.159-18.615 46.653-25.667Z" fill="#FB926B"/>
  <path d="M289.979-82.218h-43.106L.088-100v591.352s7.776-32.92 56.77-32.182c48.995.738 93.234-37.506 154.534-45.254 61.3-7.749 78.587-58.916 78.587-58.916V-82.218Z" fill="#ECECFE"/>
</svg>
