<svg width="290" height="776" viewBox="0 0 290 776" fill="none" xmlns="http://www.w3.org/2000/svg">
<path d="M0 488.581C0 488.581 56.1514 452.22 145.214 452.22C234.276 452.22 290 408.076 290 408.076V776H0V488.581Z" fill="#1E416A"/>
<path fill-rule="evenodd" clip-rule="evenodd" d="M0 380.966L0 555.826C0 555.826 36.1172 596.039 85 602.796C107.557 605.913 128.355 614.783 148.635 623.432C172.302 633.525 195.266 643.319 219.5 643.319C264.5 643.319 290 681.181 290 681.181L290 329L43.1224 348.451H18.8952C3.26533 361.723 0 380.966 0 380.966Z" fill="#FDAF54"/>
<path d="M289.979 80.6347H246.873L0.0884477 61.8845V475.456C0.0884477 475.456 7.8642 440.742 56.8588 441.52C105.853 442.298 150.092 401.972 211.392 393.802C272.692 385.631 289.979 331.678 289.979 331.678L289.979 80.6347Z" fill="#9ADBD0"/>
<path d="M290 0H246.878H6.35784e-07V157.114C6.35784e-07 157.114 7.77866 129.761 56.7917 130.374C105.805 130.987 150.06 90.9309 211.383 84.4925C272.706 78.0542 290 95.8433 290 95.8433L290 0Z" fill="#6E84FE"/>
<path fill-rule="evenodd" clip-rule="evenodd" d="M144.116 39.1395C130.179 39.1395 118.453 50.467 118.453 64.2757C118.453 66.2472 116.849 67.8454 114.869 67.8454C112.89 67.8454 111.285 66.2472 111.285 64.2757C111.285 46.3767 126.37 32 144.116 32C161.863 32 176.947 46.3767 176.947 64.2757C176.947 66.8504 176.68 69.3483 176.163 71.7466C177.999 71.7834 179.725 72.1446 181.343 72.8305C183.052 73.5149 184.496 74.4006 185.676 75.4876V75.4272C185.676 74.3805 186.022 73.5149 186.714 72.8305C187.405 72.1058 188.28 71.7435 189.338 71.7435C190.396 71.7435 191.271 72.0857 191.962 72.7701C192.654 73.4545 193 74.3402 193 75.4272V100.972C193 102.018 192.654 102.904 191.962 103.629C191.271 104.313 190.396 104.655 189.338 104.655C188.28 104.655 187.405 104.313 186.714 103.629C186.063 102.944 185.717 102.079 185.676 101.032C184.659 102.2 183.275 103.206 181.526 104.052C179.817 104.857 178.006 105.259 176.094 105.259C173.286 105.259 170.743 104.555 168.465 103.146C166.186 101.696 164.375 99.7035 163.033 97.1672C162.612 96.3469 162.259 95.4908 161.974 94.5988L146.873 112.711C146.192 113.528 145.182 114 144.116 114C143.05 114 142.04 113.528 141.359 112.711L129.894 98.9594C128.629 97.4427 128.839 95.1921 130.361 93.9326C131.884 92.673 134.144 92.8815 135.408 94.3983L144.116 104.843L164.258 80.6835C167.794 76.1961 169.779 70.6042 169.779 64.2757C169.779 50.467 158.053 39.1395 144.116 39.1395ZM169.803 85.208L168.163 87.1755C168.12 87.6151 168.098 88.0672 168.098 88.5316C168.098 91.4303 168.912 93.8458 170.54 95.7783C172.208 97.6704 174.365 98.6165 177.009 98.6165C179.654 98.6165 181.811 97.6704 183.479 95.7783C185.147 93.8458 185.981 91.4303 185.981 88.5316C185.981 85.6329 185.147 83.2174 183.479 81.2849C181.811 79.3525 179.654 78.3863 177.009 78.3863C175.8 78.3863 174.692 78.5945 173.685 79.011C172.644 81.1858 171.365 83.2353 169.861 85.1363C169.842 85.1604 169.823 85.1843 169.803 85.208ZM126.967 90.1017C127.7 89.4978 128.086 88.7128 128.127 87.7465C128.127 84.8881 127.415 82.231 125.991 79.7752C124.567 77.3194 122.654 75.3668 120.254 73.9175C117.894 72.4682 115.371 71.7435 112.686 71.7435C109.959 71.7435 107.396 72.448 104.995 73.8571C102.595 75.2259 100.662 77.2188 99.1972 79.8356C97.7324 82.4525 97 85.492 97 88.9543C97 92.0543 97.6917 94.8523 99.0751 97.3484C100.459 99.8042 102.412 101.737 104.934 103.146C107.498 104.555 110.488 105.259 113.906 105.259C115.859 105.259 117.792 104.937 119.704 104.293C121.617 103.649 123.143 102.864 124.282 101.938C125.421 101.052 125.991 100.066 125.991 98.9789C125.991 98.1737 125.686 97.4691 125.075 96.8653C124.465 96.2614 123.732 95.9594 122.878 95.9594C122.227 95.9594 121.535 96.1406 120.803 96.5029C120.599 96.6237 120.213 96.8653 119.643 97.2276C119.114 97.5497 118.382 97.8717 117.446 98.1938C116.51 98.4756 115.208 98.6165 113.54 98.6165C111.343 98.6165 109.369 97.9523 107.62 96.6237C105.87 95.2549 104.751 93.3828 104.263 91.0075H124.404C125.38 91.0075 126.235 90.7056 126.967 90.1017ZM104.324 84.9687C105.178 80.5804 107.966 78.3863 112.686 78.3863C114.598 78.3863 116.307 78.9902 117.812 80.1979C119.318 81.4057 120.152 82.855 120.315 84.5459V84.9687H104.324Z" fill="#FBF9FA"/>
</svg>
