<svg width="67" height="122" viewBox="0 0 67 122" fill="none" xmlns="http://www.w3.org/2000/svg">
<path d="M8.77506 7.87676C9.60706 7.87676 10.3831 8.11676 11.1031 8.59676C11.8391 9.07676 12.4311 9.72476 12.8791 10.5408C13.3271 11.3568 13.5511 12.2688 13.5511 13.2768C13.5511 14.2688 13.3271 15.1728 12.8791 15.9888C12.4311 16.8048 11.8391 17.4608 11.1031 17.9568C10.3831 18.4368 9.60706 18.6768 8.77506 18.6768H4.35906L4.59906 18.2448V23.2128C4.59906 23.6288 4.47106 23.9808 4.21506 24.2688C3.95906 24.5408 3.62306 24.6768 3.20706 24.6768C2.80706 24.6768 2.47906 24.5408 2.22306 24.2688C1.96706 23.9808 1.83906 23.6288 1.83906 23.2128V9.34076C1.83906 8.92476 1.97506 8.58076 2.24706 8.30876C2.53506 8.02076 2.88706 7.87676 3.30306 7.87676H8.77506ZM8.77506 15.9408C9.07906 15.9408 9.37506 15.8128 9.66306 15.5568C9.95106 15.3008 10.1911 14.9728 10.3831 14.5728C10.5751 14.1568 10.6711 13.7248 10.6711 13.2768C10.6711 12.8128 10.5751 12.3808 10.3831 11.9808C10.1911 11.5808 9.95106 11.2608 9.66306 11.0208C9.37506 10.7648 9.07906 10.6368 8.77506 10.6368H4.31106L4.59906 10.2048V16.3248L4.33506 15.9408H8.77506ZM17.5 24.6768C17.084 24.6768 16.74 24.5408 16.468 24.2688C16.196 23.9808 16.06 23.6288 16.06 23.2128V13.3008C16.06 12.8848 16.196 12.5408 16.468 12.2688C16.74 11.9808 17.084 11.8368 17.5 11.8368C17.916 11.8368 18.26 11.9808 18.532 12.2688C18.804 12.5408 18.94 12.8848 18.94 13.3008V15.5568L18.772 13.9488C18.948 13.5648 19.172 13.2288 19.444 12.9408C19.732 12.6368 20.052 12.3888 20.404 12.1968C20.756 11.9888 21.132 11.8368 21.532 11.7408C21.932 11.6448 22.332 11.5968 22.732 11.5968C23.212 11.5968 23.612 11.7328 23.932 12.0048C24.268 12.2768 24.436 12.5968 24.436 12.9648C24.436 13.4928 24.3 13.8768 24.028 14.1168C23.756 14.3408 23.46 14.4528 23.14 14.4528C22.836 14.4528 22.556 14.3968 22.3 14.2848C22.06 14.1728 21.78 14.1168 21.46 14.1168C21.172 14.1168 20.876 14.1888 20.572 14.3328C20.284 14.4608 20.012 14.6688 19.756 14.9568C19.516 15.2448 19.316 15.6048 19.156 16.0368C19.012 16.4528 18.94 16.9488 18.94 17.5248V23.2128C18.94 23.6288 18.804 23.9808 18.532 24.2688C18.26 24.5408 17.916 24.6768 17.5 24.6768ZM38.3832 18.2688C38.3832 19.5808 38.0872 20.7408 37.4952 21.7488C36.9192 22.7408 36.1352 23.5168 35.1432 24.0768C34.1672 24.6368 33.0712 24.9168 31.8552 24.9168C30.6392 24.9168 29.5352 24.6368 28.5432 24.0768C27.5672 23.5168 26.7832 22.7408 26.1912 21.7488C25.6152 20.7408 25.3272 19.5808 25.3272 18.2688C25.3272 16.9568 25.6152 15.8048 26.1912 14.8128C26.7832 13.8048 27.5672 13.0208 28.5432 12.4608C29.5352 11.8848 30.6392 11.5968 31.8552 11.5968C33.0712 11.5968 34.1672 11.8848 35.1432 12.4608C36.1352 13.0208 36.9192 13.8048 37.4952 14.8128C38.0872 15.8048 38.3832 16.9568 38.3832 18.2688ZM35.5032 18.2688C35.5032 17.4528 35.3352 16.7488 34.9992 16.1568C34.6792 15.5488 34.2392 15.0768 33.6792 14.7408C33.1352 14.4048 32.5272 14.2368 31.8552 14.2368C31.1832 14.2368 30.5672 14.4048 30.0072 14.7408C29.4632 15.0768 29.0232 15.5488 28.6872 16.1568C28.3672 16.7488 28.2072 17.4528 28.2072 18.2688C28.2072 19.0688 28.3672 19.7728 28.6872 20.3808C29.0232 20.9728 29.4632 21.4368 30.0072 21.7728C30.5672 22.1088 31.1832 22.2768 31.8552 22.2768C32.5272 22.2768 33.1352 22.1088 33.6792 21.7728C34.2392 21.4368 34.6792 20.9728 34.9992 20.3808C35.3352 19.7728 35.5032 19.0688 35.5032 18.2688ZM47.5038 6.91676C47.8558 6.91676 48.1998 6.96476 48.5358 7.06076C48.8718 7.15676 49.1518 7.31676 49.3758 7.54076C49.5998 7.74876 49.7118 8.02876 49.7118 8.38076C49.7118 8.78076 49.5918 9.10076 49.3518 9.34076C49.1278 9.56476 48.8638 9.67676 48.5598 9.67676C48.4158 9.67676 48.1998 9.64476 47.9118 9.58076C47.6238 9.50076 47.3438 9.46076 47.0718 9.46076C46.6718 9.46076 46.3598 9.54876 46.1358 9.72476C45.9278 9.90076 45.7838 10.1088 45.7038 10.3488C45.6238 10.5728 45.5838 10.7728 45.5838 10.9488V23.2128C45.5838 23.6288 45.4478 23.9808 45.1758 24.2688C44.9038 24.5408 44.5598 24.6768 44.1438 24.6768C43.7278 24.6768 43.3838 24.5408 43.1118 24.2688C42.8398 23.9808 42.7038 23.6288 42.7038 23.2128V10.9728C42.7038 9.83676 43.1038 8.87676 43.9038 8.09276C44.7038 7.30876 45.9038 6.91676 47.5038 6.91676ZM47.7678 12.0768C48.1518 12.0768 48.4718 12.2048 48.7278 12.4608C48.9838 12.7008 49.1118 13.0128 49.1118 13.3968C49.1118 13.7808 48.9838 14.1008 48.7278 14.3568C48.4718 14.5968 48.1518 14.7168 47.7678 14.7168H41.4078C41.0238 14.7168 40.7038 14.5968 40.4478 14.3568C40.1918 14.1008 40.0638 13.7808 40.0638 13.3968C40.0638 13.0128 40.1918 12.7008 40.4478 12.4608C40.7038 12.2048 41.0238 12.0768 41.4078 12.0768H47.7678ZM54.1038 23.2128C54.1038 23.6288 53.9678 23.9808 53.6958 24.2688C53.4238 24.5408 53.0798 24.6768 52.6638 24.6768C52.2478 24.6768 51.9038 24.5408 51.6318 24.2688C51.3598 23.9808 51.2238 23.6288 51.2238 23.2128V13.3008C51.2238 12.8848 51.3598 12.5408 51.6318 12.2688C51.9038 11.9808 52.2478 11.8368 52.6638 11.8368C53.0798 11.8368 53.4238 11.9808 53.6958 12.2688C53.9678 12.5408 54.1038 12.8848 54.1038 13.3008V23.2128ZM52.6398 10.2768C52.0958 10.2768 51.7118 10.1888 51.4878 10.0128C51.2638 9.83676 51.1518 9.52476 51.1518 9.07676V8.62076C51.1518 8.15676 51.2718 7.84476 51.5118 7.68476C51.7678 7.50876 52.1518 7.42076 52.6638 7.42076C53.2238 7.42076 53.6158 7.50876 53.8398 7.68476C54.0638 7.86076 54.1758 8.17276 54.1758 8.62076V9.07676C54.1758 9.54076 54.0558 9.86076 53.8158 10.0368C53.5758 10.1968 53.1838 10.2768 52.6398 10.2768ZM60.1722 23.2128C60.1722 23.6288 60.0282 23.9808 59.7402 24.2688C59.4682 24.5408 59.1242 24.6768 58.7082 24.6768C58.3082 24.6768 57.9722 24.5408 57.7002 24.2688C57.4282 23.9808 57.2922 23.6288 57.2922 23.2128V8.38076C57.2922 7.96476 57.4282 7.62076 57.7002 7.34876C57.9882 7.06076 58.3402 6.91676 58.7562 6.91676C59.1722 6.91676 59.5082 7.06076 59.7642 7.34876C60.0362 7.62076 60.1722 7.96476 60.1722 8.38076V23.2128Z" fill="#18753C"/>
<path d="M7.03618 70.5877C7.03618 56.3854 18.9619 44.7499 33.1221 44.7499C47.2824 44.7499 59.2081 56.3854 59.2081 70.5877C59.2081 77.091 57.19 82.8398 53.5938 87.4531L33.1221 112.276L24.2255 101.488C22.9855 99.9847 20.7676 99.7763 19.2718 101.023C17.776 102.27 17.5687 104.499 18.8088 106.003L30.4138 120.074C31.0821 120.885 32.0749 121.354 33.1221 121.354C34.1694 121.354 35.1621 120.885 35.8305 120.074L50.4262 102.376L59.0405 91.931C59.0598 91.9076 59.0789 91.8839 59.0976 91.86C59.0976 91.86 66.2443 84.9902 66.2443 70.5877C66.2443 52.344 51.0328 37.6768 33.1221 37.6768C15.2115 37.6768 0 52.344 0 70.5877C0 72.541 1.5751 74.1243 3.51809 74.1243C5.46108 74.1243 7.03618 72.541 7.03618 70.5877Z" fill="#18753C"/>
<path d="M19.56 94.3232C18.8933 94.3232 18.3333 94.0966 17.88 93.6432C17.4267 93.1632 17.2 92.5766 17.2 91.8832V73.0832L18.04 73.2832L10.32 82.8432L10.12 82.3232H24.28C24.92 82.3232 25.4533 82.5366 25.88 82.9632C26.3067 83.3899 26.52 83.9232 26.52 84.5632C26.52 85.1766 26.3067 85.6966 25.88 86.1232C25.4533 86.5232 24.92 86.7232 24.28 86.7232H6.8C6.24 86.7232 5.69333 86.4966 5.16 86.0432C4.65333 85.5899 4.4 85.0299 4.4 84.3632C4.4 83.7766 4.6 83.2432 5 82.7632L17.64 67.2832C17.8533 66.9899 18.1333 66.7632 18.48 66.6032C18.8267 66.4166 19.2133 66.3232 19.64 66.3232C20.3333 66.3232 20.8933 66.5632 21.32 67.0432C21.7733 67.4966 22 68.0699 22 68.7632V91.8832C22 92.5766 21.76 93.1632 21.28 93.6432C20.8267 94.0966 20.2533 94.3232 19.56 94.3232Z" fill="#18753C"/>
<path d="M45.304 69.6992C44.92 69.6992 44.6 69.5712 44.344 69.3152C44.088 69.0592 43.96 68.7392 43.96 68.3552C43.96 67.9712 44.088 67.6592 44.344 67.4192C44.6 67.1792 44.92 67.0592 45.304 67.0592H55.072C55.456 67.0592 55.776 67.1872 56.032 67.4432C56.288 67.6832 56.416 67.9952 56.416 68.3792C56.416 68.7632 56.288 69.0832 56.032 69.3392C55.776 69.5792 55.456 69.6992 55.072 69.6992H45.304ZM50.152 74.3792C49.704 74.3792 49.328 74.2352 49.024 73.9472C48.736 73.6592 48.592 73.2912 48.592 72.8432V63.4832C48.592 63.0352 48.744 62.6672 49.048 62.3792C49.352 62.0912 49.728 61.9472 50.176 61.9472C50.64 61.9472 51.008 62.0912 51.28 62.3792C51.568 62.6672 51.712 63.0352 51.712 63.4832V72.8432C51.712 73.2912 51.568 73.6592 51.28 73.9472C50.992 74.2352 50.616 74.3792 50.152 74.3792Z" fill="#18753C"/>
<path d="M29.448 72.2768C29.96 72.2768 30.408 72.4688 30.792 72.8528C31.1973 73.2154 31.4 73.6741 31.4 74.2288V92.7248C31.4 93.2794 31.1973 93.7488 30.792 94.1328C30.3867 94.4954 29.9173 94.6768 29.384 94.6768C28.7867 94.6768 28.3067 94.4954 27.944 94.1328C27.5813 93.7488 27.4 93.2794 27.4 92.7248V74.2288C27.4 73.6741 27.592 73.2154 27.976 72.8528C28.36 72.4688 28.8507 72.2768 29.448 72.2768ZM43.624 72.2768C44.2213 72.2768 44.7013 72.4688 45.064 72.8528C45.4267 73.2154 45.608 73.6741 45.608 74.2288V92.7248C45.608 93.2794 45.416 93.7488 45.032 94.1328C44.6693 94.4954 44.1787 94.6768 43.56 94.6768C43.048 94.6768 42.5893 94.4954 42.184 94.1328C41.8 93.7488 41.608 93.2794 41.608 92.7248V74.2288C41.608 73.6741 41.8107 73.2154 42.216 72.8528C42.6213 72.4688 43.0907 72.2768 43.624 72.2768ZM29.352 81.5888H43.624V85.2688H29.352V81.5888Z" fill="#18753C"/>
</svg>
