<svg width="67" height="85" viewBox="0 0 67 85" fill="none" xmlns="http://www.w3.org/2000/svg">
<path d="M7.03618 33.2645C7.03618 19.0622 18.9619 7.4267 33.1221 7.4267C47.2824 7.4267 59.2081 19.0622 59.2081 33.2645C59.2081 39.7677 57.19 45.5166 53.5938 50.1298L33.1221 74.9527L24.2255 64.1651C22.9855 62.6615 20.7676 62.4531 19.2718 63.6997C17.776 64.9463 17.5687 67.1758 18.8088 68.6795L30.4138 82.7511C31.0821 83.5615 32.0749 84.0305 33.1221 84.0305C34.1694 84.0305 35.1621 83.5615 35.8305 82.7511L50.4262 65.0531L59.0405 54.6078C59.0598 54.5844 59.0789 54.5607 59.0976 54.5367C59.0976 54.5367 66.2443 47.6669 66.2443 33.2645C66.2443 15.0208 51.0328 0.353516 33.1221 0.353516C15.2115 0.353516 0 15.0208 0 33.2645C0 35.2177 1.5751 36.8011 3.51809 36.8011C5.46108 36.8011 7.03618 35.2177 7.03618 33.2645Z" fill="#FBF9FA"/>
<path d="M25.264 45.7265C25.546 45.7265 25.8437 45.7735 26.157 45.8675C26.5017 45.9615 26.8777 46.1495 27.285 46.4315C27.8177 46.8388 28.4443 47.1992 29.165 47.5125C29.917 47.8258 30.7787 47.9825 31.75 47.9825C32.7213 47.9825 33.63 47.7475 34.476 47.2775C35.3533 46.7762 36.074 46.0868 36.638 45.2095C37.202 44.3008 37.484 43.2198 37.484 41.9665C37.484 40.7758 37.2333 39.7888 36.732 39.0055C36.262 38.2222 35.6197 37.6268 34.805 37.2195C34.0217 36.8122 33.1757 36.6085 32.267 36.6085C31.5777 36.6085 30.998 36.6712 30.528 36.7965C30.0893 36.9218 29.6507 37.0628 29.212 37.2195C28.8047 37.3448 28.319 37.4075 27.755 37.4075C27.0343 37.4075 26.4703 37.1568 26.063 36.6555C25.687 36.1542 25.499 35.5588 25.499 34.8695C25.499 34.4308 25.5773 34.0392 25.734 33.6945C25.922 33.3498 26.1883 32.9738 26.533 32.5665L34.805 23.7775L36.074 24.8585H24.512C23.76 24.8585 23.1333 24.6078 22.632 24.1065C22.1307 23.6052 21.88 22.9785 21.88 22.2265C21.88 21.5058 22.1307 20.9105 22.632 20.4405C23.1333 19.9392 23.76 19.6885 24.512 19.6885H38.894C39.8653 19.6885 40.586 19.9548 41.056 20.4875C41.5573 21.0202 41.808 21.6938 41.808 22.5085C41.808 22.9158 41.6983 23.3232 41.479 23.7305C41.2597 24.1065 40.9933 24.4512 40.68 24.7645L32.361 33.6945L31.092 32.0965C31.4367 31.9398 31.9067 31.7988 32.502 31.6735C33.1287 31.5482 33.6457 31.4855 34.053 31.4855C35.9017 31.4855 37.4997 31.9712 38.847 32.9425C40.2257 33.8825 41.2753 35.1202 41.996 36.6555C42.748 38.1595 43.124 39.7888 43.124 41.5435C43.124 43.8622 42.607 45.8675 41.573 47.5595C40.539 49.2515 39.082 50.5518 37.202 51.4605C35.322 52.3692 33.1287 52.8235 30.622 52.8235C29.4627 52.8235 28.319 52.6825 27.191 52.4005C26.063 52.1185 25.0917 51.7425 24.277 51.2725C23.5877 50.8965 23.1177 50.4892 22.867 50.0505C22.6477 49.5805 22.538 49.1418 22.538 48.7345C22.538 48.0138 22.7887 47.3402 23.29 46.7135C23.8227 46.0555 24.4807 45.7265 25.264 45.7265Z" fill="#FBF9FA"/>
</svg>
