<svg width="67" height="122" viewBox="0 0 67 122" fill="none" xmlns="http://www.w3.org/2000/svg">
<path d="M10.8971 7.87676C11.7291 7.87676 12.5051 8.11676 13.2251 8.59676C13.9611 9.07676 14.5531 9.72476 15.0011 10.5408C15.4491 11.3568 15.6731 12.2688 15.6731 13.2768C15.6731 14.2688 15.4491 15.1728 15.0011 15.9888C14.5531 16.8048 13.9611 17.4608 13.2251 17.9568C12.5051 18.4368 11.7291 18.6768 10.8971 18.6768H6.48113L6.72113 18.2448V23.2128C6.72113 23.6288 6.59313 23.9808 6.33713 24.2688C6.08113 24.5408 5.74513 24.6768 5.32913 24.6768C4.92913 24.6768 4.60113 24.5408 4.34513 24.2688C4.08913 23.9808 3.96113 23.6288 3.96113 23.2128V9.34076C3.96113 8.92476 4.09713 8.58076 4.36913 8.30876C4.65713 8.02076 5.00913 7.87676 5.42513 7.87676H10.8971ZM10.8971 15.9408C11.2011 15.9408 11.4971 15.8128 11.7851 15.5568C12.0731 15.3008 12.3131 14.9728 12.5051 14.5728C12.6971 14.1568 12.7931 13.7248 12.7931 13.2768C12.7931 12.8128 12.6971 12.3808 12.5051 11.9808C12.3131 11.5808 12.0731 11.2608 11.7851 11.0208C11.4971 10.7648 11.2011 10.6368 10.8971 10.6368H6.43313L6.72113 10.2048V16.3248L6.45713 15.9408H10.8971ZM19.6221 24.6768C19.2061 24.6768 18.8621 24.5408 18.5901 24.2688C18.3181 23.9808 18.1821 23.6288 18.1821 23.2128V13.3008C18.1821 12.8848 18.3181 12.5408 18.5901 12.2688C18.8621 11.9808 19.2061 11.8368 19.6221 11.8368C20.0381 11.8368 20.3821 11.9808 20.6541 12.2688C20.9261 12.5408 21.0621 12.8848 21.0621 13.3008V15.5568L20.8941 13.9488C21.0701 13.5648 21.2941 13.2288 21.5661 12.9408C21.8541 12.6368 22.1741 12.3888 22.5261 12.1968C22.8781 11.9888 23.2541 11.8368 23.6541 11.7408C24.0541 11.6448 24.4541 11.5968 24.8541 11.5968C25.3341 11.5968 25.7341 11.7328 26.0541 12.0048C26.3901 12.2768 26.5581 12.5968 26.5581 12.9648C26.5581 13.4928 26.4221 13.8768 26.1501 14.1168C25.8781 14.3408 25.5821 14.4528 25.2621 14.4528C24.9581 14.4528 24.6781 14.3968 24.4221 14.2848C24.1821 14.1728 23.9021 14.1168 23.5821 14.1168C23.2941 14.1168 22.9981 14.1888 22.6941 14.3328C22.4061 14.4608 22.1341 14.6688 21.8781 14.9568C21.6381 15.2448 21.4381 15.6048 21.2781 16.0368C21.1341 16.4528 21.0621 16.9488 21.0621 17.5248V23.2128C21.0621 23.6288 20.9261 23.9808 20.6541 24.2688C20.3821 24.5408 20.0381 24.6768 19.6221 24.6768ZM40.5053 18.2688C40.5053 19.5808 40.2093 20.7408 39.6173 21.7488C39.0413 22.7408 38.2573 23.5168 37.2653 24.0768C36.2893 24.6368 35.1933 24.9168 33.9773 24.9168C32.7613 24.9168 31.6573 24.6368 30.6653 24.0768C29.6893 23.5168 28.9053 22.7408 28.3133 21.7488C27.7373 20.7408 27.4493 19.5808 27.4493 18.2688C27.4493 16.9568 27.7373 15.8048 28.3133 14.8128C28.9053 13.8048 29.6893 13.0208 30.6653 12.4608C31.6573 11.8848 32.7613 11.5968 33.9773 11.5968C35.1933 11.5968 36.2893 11.8848 37.2653 12.4608C38.2573 13.0208 39.0413 13.8048 39.6173 14.8128C40.2093 15.8048 40.5053 16.9568 40.5053 18.2688ZM37.6253 18.2688C37.6253 17.4528 37.4573 16.7488 37.1213 16.1568C36.8013 15.5488 36.3613 15.0768 35.8013 14.7408C35.2573 14.4048 34.6493 14.2368 33.9773 14.2368C33.3053 14.2368 32.6893 14.4048 32.1293 14.7408C31.5853 15.0768 31.1453 15.5488 30.8093 16.1568C30.4893 16.7488 30.3293 17.4528 30.3293 18.2688C30.3293 19.0688 30.4893 19.7728 30.8093 20.3808C31.1453 20.9728 31.5853 21.4368 32.1293 21.7728C32.6893 22.1088 33.3053 22.2768 33.9773 22.2768C34.6493 22.2768 35.2573 22.1088 35.8013 21.7728C36.3613 21.4368 36.8013 20.9728 37.1213 20.3808C37.4573 19.7728 37.6253 19.0688 37.6253 18.2688ZM49.6258 6.91676C49.9778 6.91676 50.3218 6.96476 50.6578 7.06076C50.9938 7.15676 51.2738 7.31676 51.4978 7.54076C51.7218 7.74876 51.8338 8.02876 51.8338 8.38076C51.8338 8.78076 51.7138 9.10076 51.4738 9.34076C51.2498 9.56476 50.9858 9.67676 50.6818 9.67676C50.5378 9.67676 50.3218 9.64476 50.0338 9.58076C49.7458 9.50076 49.4658 9.46076 49.1938 9.46076C48.7938 9.46076 48.4818 9.54876 48.2578 9.72476C48.0498 9.90076 47.9058 10.1088 47.8258 10.3488C47.7458 10.5728 47.7058 10.7728 47.7058 10.9488V23.2128C47.7058 23.6288 47.5698 23.9808 47.2978 24.2688C47.0258 24.5408 46.6818 24.6768 46.2658 24.6768C45.8498 24.6768 45.5058 24.5408 45.2338 24.2688C44.9618 23.9808 44.8258 23.6288 44.8258 23.2128V10.9728C44.8258 9.83676 45.2258 8.87676 46.0258 8.09276C46.8258 7.30876 48.0258 6.91676 49.6258 6.91676ZM49.8898 12.0768C50.2738 12.0768 50.5938 12.2048 50.8498 12.4608C51.1058 12.7008 51.2338 13.0128 51.2338 13.3968C51.2338 13.7808 51.1058 14.1008 50.8498 14.3568C50.5938 14.5968 50.2738 14.7168 49.8898 14.7168H43.5298C43.1458 14.7168 42.8258 14.5968 42.5698 14.3568C42.3138 14.1008 42.1858 13.7808 42.1858 13.3968C42.1858 13.0128 42.3138 12.7008 42.5698 12.4608C42.8258 12.2048 43.1458 12.0768 43.5298 12.0768H49.8898ZM56.2258 23.2128C56.2258 23.6288 56.0898 23.9808 55.8178 24.2688C55.5458 24.5408 55.2018 24.6768 54.7858 24.6768C54.3698 24.6768 54.0258 24.5408 53.7538 24.2688C53.4818 23.9808 53.3458 23.6288 53.3458 23.2128V13.3008C53.3458 12.8848 53.4818 12.5408 53.7538 12.2688C54.0258 11.9808 54.3698 11.8368 54.7858 11.8368C55.2018 11.8368 55.5458 11.9808 55.8178 12.2688C56.0898 12.5408 56.2258 12.8848 56.2258 13.3008V23.2128ZM54.7618 10.2768C54.2178 10.2768 53.8338 10.1888 53.6098 10.0128C53.3858 9.83676 53.2738 9.52476 53.2738 9.07676V8.62076C53.2738 8.15676 53.3938 7.84476 53.6338 7.68476C53.8898 7.50876 54.2738 7.42076 54.7858 7.42076C55.3458 7.42076 55.7378 7.50876 55.9618 7.68476C56.1858 7.86076 56.2978 8.17276 56.2978 8.62076V9.07676C56.2978 9.54076 56.1778 9.86076 55.9378 10.0368C55.6978 10.1968 55.3058 10.2768 54.7618 10.2768ZM62.2943 23.2128C62.2943 23.6288 62.1503 23.9808 61.8623 24.2688C61.5903 24.5408 61.2463 24.6768 60.8303 24.6768C60.4303 24.6768 60.0943 24.5408 59.8223 24.2688C59.5503 23.9808 59.4143 23.6288 59.4143 23.2128V8.38076C59.4143 7.96476 59.5503 7.62076 59.8223 7.34876C60.1103 7.06076 60.4623 6.91676 60.8783 6.91676C61.2943 6.91676 61.6303 7.06076 61.8863 7.34876C62.1583 7.62076 62.2943 7.96476 62.2943 8.38076V23.2128Z" fill="#1E416A"/>
<path d="M7.03618 70.5877C7.03618 56.3854 18.9619 44.7499 33.1221 44.7499C47.2824 44.7499 59.2081 56.3854 59.2081 70.5877C59.2081 77.091 57.19 82.8398 53.5938 87.4531L33.1221 112.276L24.2255 101.488C22.9855 99.9847 20.7676 99.7763 19.2718 101.023C17.776 102.27 17.5687 104.499 18.8088 106.003L30.4138 120.074C31.0821 120.885 32.0749 121.354 33.1221 121.354C34.1694 121.354 35.1621 120.885 35.8305 120.074L50.4262 102.376L59.0405 91.931C59.0598 91.9076 59.0789 91.8839 59.0976 91.86C59.0976 91.86 66.2443 84.9902 66.2443 70.5877C66.2443 52.344 51.0328 37.6768 33.1221 37.6768C15.2115 37.6768 0 52.344 0 70.5877C0 72.541 1.5751 74.1243 3.51809 74.1243C5.46108 74.1243 7.03618 72.541 7.03618 70.5877Z" fill="#1E416A"/>
<path d="M33.3589 90.6768C32.4815 90.6768 31.7609 90.4104 31.1969 89.8778C30.6329 89.3138 30.3509 88.6244 30.3509 87.8098V64.1218L31.0089 65.1558L27.5779 67.6938C27.1392 68.0384 26.5909 68.2108 25.9329 68.2108C25.1809 68.2108 24.5229 67.9288 23.9589 67.3648C23.3949 66.8008 23.1129 66.1271 23.1129 65.3438C23.1129 64.3411 23.5985 63.5264 24.5699 62.8998L31.3379 58.3878C31.6512 58.1684 31.9959 58.0118 32.3719 57.9178C32.7792 57.8238 33.1552 57.7768 33.4999 57.7768C34.4085 57.7768 35.1292 58.0588 35.6619 58.6228C36.1945 59.1554 36.4609 59.8291 36.4609 60.6438V87.8098C36.4609 88.6244 36.1632 89.3138 35.5679 89.8778C35.0039 90.4104 34.2675 90.6768 33.3589 90.6768Z" fill="#1E416A"/>
</svg>
