<svg width="67" height="85" viewBox="0 0 67 85" fill="none" xmlns="http://www.w3.org/2000/svg">
<path d="M30.604 25.1558L20.452 49.0318C20.2327 49.6271 19.888 50.0971 19.418 50.4418C18.9793 50.7551 18.4937 50.9118 17.961 50.9118C17.115 50.9118 16.4883 50.6768 16.081 50.2068C15.6737 49.7368 15.47 49.1571 15.47 48.4678C15.47 48.1858 15.517 47.8881 15.611 47.5748L27.314 19.4688C27.5647 18.8421 27.9407 18.3564 28.442 18.0118C28.9747 17.6671 29.5387 17.5261 30.134 17.5888C30.698 17.5888 31.215 17.7611 31.685 18.1058C32.1863 18.4191 32.5467 18.8734 32.766 19.4688L44.328 47.0108C44.4847 47.4181 44.563 47.7941 44.563 48.1388C44.563 48.9848 44.281 49.6584 43.717 50.1598C43.1843 50.6611 42.589 50.9118 41.931 50.9118C41.367 50.9118 40.85 50.7394 40.38 50.3948C39.9413 50.0501 39.5967 49.5801 39.346 48.9848L29.241 25.4378L30.604 25.1558ZM21.909 43.2978L24.494 37.8928H37.184L38.077 43.2978H21.909Z" fill="white"/>
<path d="M7.03618 33.5877C7.03618 19.3854 18.9619 7.74994 33.1221 7.74994C47.2824 7.74994 59.2081 19.3854 59.2081 33.5877C59.2081 40.091 57.19 45.8398 53.5938 50.4531L33.1221 75.276L24.2255 64.4884C22.9855 62.9847 20.7676 62.7763 19.2718 64.0229C17.776 65.2695 17.5687 67.499 18.8088 69.0027L30.4138 83.0743C31.0821 83.8848 32.0749 84.3538 33.1221 84.3538C34.1694 84.3538 35.1621 83.8848 35.8305 83.0743L50.4262 65.3764L59.0405 54.931C59.0598 54.9076 59.0789 54.8839 59.0976 54.86C59.0976 54.86 66.2443 47.9902 66.2443 33.5877C66.2443 15.344 51.0328 0.676758 33.1221 0.676758C15.2115 0.676758 0 15.344 0 33.5877C0 35.541 1.5751 37.1243 3.51809 37.1243C5.46108 37.1243 7.03618 35.541 7.03618 33.5877Z" fill="#FBF9FA"/>
</svg>
