<svg width="67" height="85" viewBox="0 0 67 85" fill="none" xmlns="http://www.w3.org/2000/svg">
<path d="M7.03618 33.5877C7.03618 19.3854 18.9619 7.74994 33.1221 7.74994C47.2824 7.74994 59.2081 19.3854 59.2081 33.5877C59.2081 40.091 57.19 45.8398 53.5938 50.4531L33.1221 75.276L24.2255 64.4884C22.9855 62.9847 20.7676 62.7763 19.2718 64.0229C17.776 65.2695 17.5687 67.499 18.8088 69.0027L30.4138 83.0743C31.0821 83.8848 32.0749 84.3538 33.1221 84.3538C34.1694 84.3538 35.1621 83.8848 35.8305 83.0743L50.4262 65.3764L59.0405 54.931C59.0598 54.9076 59.0789 54.8839 59.0976 54.86C59.0976 54.86 66.2443 47.9902 66.2443 33.5877C66.2443 15.344 51.0328 0.676758 33.1221 0.676758C15.2115 0.676758 0 15.344 0 33.5877C0 35.541 1.5751 37.1243 3.51809 37.1243C5.46108 37.1243 7.03618 35.541 7.03618 33.5877Z" fill="#1E416A"/>
<path d="M40.526 47.5068C41.278 47.5068 41.9047 47.7574 42.406 48.2588C42.9073 48.7601 43.158 49.3868 43.158 50.1388C43.158 50.8594 42.9073 51.4704 42.406 51.9718C41.9047 52.4418 41.278 52.6768 40.526 52.6768H24.546C23.7313 52.6768 23.089 52.4261 22.619 51.9248C22.149 51.4234 21.914 50.7811 21.914 49.9978C21.914 49.2144 22.196 48.5251 22.76 47.9298L33.006 36.9788C34.1653 35.7254 35.074 34.4408 35.732 33.1248C36.4213 31.8088 36.766 30.6651 36.766 29.6938C36.766 28.1271 36.3117 26.8738 35.403 25.9338C34.4943 24.9624 33.288 24.4768 31.784 24.4768C31.1887 24.4768 30.5777 24.6178 29.951 24.8998C29.3243 25.1818 28.7133 25.5734 28.118 26.0748C27.554 26.5761 27.0213 27.1558 26.52 27.8138C26.144 28.3151 25.768 28.6284 25.392 28.7538C25.016 28.8791 24.6713 28.9418 24.358 28.9418C23.6687 28.9418 23.0263 28.6911 22.431 28.1898C21.867 27.6571 21.585 27.0461 21.585 26.3568C21.585 25.8241 21.7573 25.3071 22.102 24.8058C22.478 24.3044 22.9323 23.7874 23.465 23.2548C24.2483 22.4714 25.1257 21.7821 26.097 21.1868C27.0683 20.5914 28.071 20.1371 29.105 19.8238C30.139 19.4791 31.1417 19.3068 32.113 19.3068C34.2123 19.3068 36.0297 19.7298 37.565 20.5758C39.1317 21.3904 40.338 22.5654 41.184 24.1008C42.03 25.6048 42.453 27.3908 42.453 29.4588C42.453 31.1821 41.936 33.1091 40.902 35.2398C39.8993 37.3391 38.5363 39.3131 36.813 41.1618L30.468 47.9298L29.951 47.5068H40.526Z" fill="#1E416A"/>
</svg>
