<svg width="67" height="122" viewBox="0 0 67 122" fill="none" xmlns="http://www.w3.org/2000/svg">
<path d="M8.77506 7.87676C9.60706 7.87676 10.3831 8.11676 11.1031 8.59676C11.8391 9.07676 12.4311 9.72476 12.8791 10.5408C13.3271 11.3568 13.5511 12.2688 13.5511 13.2768C13.5511 14.2688 13.3271 15.1728 12.8791 15.9888C12.4311 16.8048 11.8391 17.4608 11.1031 17.9568C10.3831 18.4368 9.60706 18.6768 8.77506 18.6768H4.35906L4.59906 18.2448V23.2128C4.59906 23.6288 4.47106 23.9808 4.21506 24.2688C3.95906 24.5408 3.62306 24.6768 3.20706 24.6768C2.80706 24.6768 2.47906 24.5408 2.22306 24.2688C1.96706 23.9808 1.83906 23.6288 1.83906 23.2128V9.34076C1.83906 8.92476 1.97506 8.58076 2.24706 8.30876C2.53506 8.02076 2.88706 7.87676 3.30306 7.87676H8.77506ZM8.77506 15.9408C9.07906 15.9408 9.37506 15.8128 9.66306 15.5568C9.95106 15.3008 10.1911 14.9728 10.3831 14.5728C10.5751 14.1568 10.6711 13.7248 10.6711 13.2768C10.6711 12.8128 10.5751 12.3808 10.3831 11.9808C10.1911 11.5808 9.95106 11.2608 9.66306 11.0208C9.37506 10.7648 9.07906 10.6368 8.77506 10.6368H4.31106L4.59906 10.2048V16.3248L4.33506 15.9408H8.77506ZM17.5 24.6768C17.084 24.6768 16.74 24.5408 16.468 24.2688C16.196 23.9808 16.06 23.6288 16.06 23.2128V13.3008C16.06 12.8848 16.196 12.5408 16.468 12.2688C16.74 11.9808 17.084 11.8368 17.5 11.8368C17.916 11.8368 18.26 11.9808 18.532 12.2688C18.804 12.5408 18.94 12.8848 18.94 13.3008V15.5568L18.772 13.9488C18.948 13.5648 19.172 13.2288 19.444 12.9408C19.732 12.6368 20.052 12.3888 20.404 12.1968C20.756 11.9888 21.132 11.8368 21.532 11.7408C21.932 11.6448 22.332 11.5968 22.732 11.5968C23.212 11.5968 23.612 11.7328 23.932 12.0048C24.268 12.2768 24.436 12.5968 24.436 12.9648C24.436 13.4928 24.3 13.8768 24.028 14.1168C23.756 14.3408 23.46 14.4528 23.14 14.4528C22.836 14.4528 22.556 14.3968 22.3 14.2848C22.06 14.1728 21.78 14.1168 21.46 14.1168C21.172 14.1168 20.876 14.1888 20.572 14.3328C20.284 14.4608 20.012 14.6688 19.756 14.9568C19.516 15.2448 19.316 15.6048 19.156 16.0368C19.012 16.4528 18.94 16.9488 18.94 17.5248V23.2128C18.94 23.6288 18.804 23.9808 18.532 24.2688C18.26 24.5408 17.916 24.6768 17.5 24.6768ZM38.3832 18.2688C38.3832 19.5808 38.0872 20.7408 37.4952 21.7488C36.9192 22.7408 36.1352 23.5168 35.1432 24.0768C34.1672 24.6368 33.0712 24.9168 31.8552 24.9168C30.6392 24.9168 29.5352 24.6368 28.5432 24.0768C27.5672 23.5168 26.7832 22.7408 26.1912 21.7488C25.6152 20.7408 25.3272 19.5808 25.3272 18.2688C25.3272 16.9568 25.6152 15.8048 26.1912 14.8128C26.7832 13.8048 27.5672 13.0208 28.5432 12.4608C29.5352 11.8848 30.6392 11.5968 31.8552 11.5968C33.0712 11.5968 34.1672 11.8848 35.1432 12.4608C36.1352 13.0208 36.9192 13.8048 37.4952 14.8128C38.0872 15.8048 38.3832 16.9568 38.3832 18.2688ZM35.5032 18.2688C35.5032 17.4528 35.3352 16.7488 34.9992 16.1568C34.6792 15.5488 34.2392 15.0768 33.6792 14.7408C33.1352 14.4048 32.5272 14.2368 31.8552 14.2368C31.1832 14.2368 30.5672 14.4048 30.0072 14.7408C29.4632 15.0768 29.0232 15.5488 28.6872 16.1568C28.3672 16.7488 28.2072 17.4528 28.2072 18.2688C28.2072 19.0688 28.3672 19.7728 28.6872 20.3808C29.0232 20.9728 29.4632 21.4368 30.0072 21.7728C30.5672 22.1088 31.1832 22.2768 31.8552 22.2768C32.5272 22.2768 33.1352 22.1088 33.6792 21.7728C34.2392 21.4368 34.6792 20.9728 34.9992 20.3808C35.3352 19.7728 35.5032 19.0688 35.5032 18.2688ZM47.5038 6.91676C47.8558 6.91676 48.1998 6.96476 48.5358 7.06076C48.8718 7.15676 49.1518 7.31676 49.3758 7.54076C49.5998 7.74876 49.7118 8.02876 49.7118 8.38076C49.7118 8.78076 49.5918 9.10076 49.3518 9.34076C49.1278 9.56476 48.8638 9.67676 48.5598 9.67676C48.4158 9.67676 48.1998 9.64476 47.9118 9.58076C47.6238 9.50076 47.3438 9.46076 47.0718 9.46076C46.6718 9.46076 46.3598 9.54876 46.1358 9.72476C45.9278 9.90076 45.7838 10.1088 45.7038 10.3488C45.6238 10.5728 45.5838 10.7728 45.5838 10.9488V23.2128C45.5838 23.6288 45.4478 23.9808 45.1758 24.2688C44.9038 24.5408 44.5598 24.6768 44.1438 24.6768C43.7278 24.6768 43.3838 24.5408 43.1118 24.2688C42.8398 23.9808 42.7038 23.6288 42.7038 23.2128V10.9728C42.7038 9.83676 43.1038 8.87676 43.9038 8.09276C44.7038 7.30876 45.9038 6.91676 47.5038 6.91676ZM47.7678 12.0768C48.1518 12.0768 48.4718 12.2048 48.7278 12.4608C48.9838 12.7008 49.1118 13.0128 49.1118 13.3968C49.1118 13.7808 48.9838 14.1008 48.7278 14.3568C48.4718 14.5968 48.1518 14.7168 47.7678 14.7168H41.4078C41.0238 14.7168 40.7038 14.5968 40.4478 14.3568C40.1918 14.1008 40.0638 13.7808 40.0638 13.3968C40.0638 13.0128 40.1918 12.7008 40.4478 12.4608C40.7038 12.2048 41.0238 12.0768 41.4078 12.0768H47.7678ZM54.1038 23.2128C54.1038 23.6288 53.9678 23.9808 53.6958 24.2688C53.4238 24.5408 53.0798 24.6768 52.6638 24.6768C52.2478 24.6768 51.9038 24.5408 51.6318 24.2688C51.3598 23.9808 51.2238 23.6288 51.2238 23.2128V13.3008C51.2238 12.8848 51.3598 12.5408 51.6318 12.2688C51.9038 11.9808 52.2478 11.8368 52.6638 11.8368C53.0798 11.8368 53.4238 11.9808 53.6958 12.2688C53.9678 12.5408 54.1038 12.8848 54.1038 13.3008V23.2128ZM52.6398 10.2768C52.0958 10.2768 51.7118 10.1888 51.4878 10.0128C51.2638 9.83676 51.1518 9.52476 51.1518 9.07676V8.62076C51.1518 8.15676 51.2718 7.84476 51.5118 7.68476C51.7678 7.50876 52.1518 7.42076 52.6638 7.42076C53.2238 7.42076 53.6158 7.50876 53.8398 7.68476C54.0638 7.86076 54.1758 8.17276 54.1758 8.62076V9.07676C54.1758 9.54076 54.0558 9.86076 53.8158 10.0368C53.5758 10.1968 53.1838 10.2768 52.6398 10.2768ZM60.1722 23.2128C60.1722 23.6288 60.0282 23.9808 59.7402 24.2688C59.4682 24.5408 59.1242 24.6768 58.7082 24.6768C58.3082 24.6768 57.9722 24.5408 57.7002 24.2688C57.4282 23.9808 57.2922 23.6288 57.2922 23.2128V8.38076C57.2922 7.96476 57.4282 7.62076 57.7002 7.34876C57.9882 7.06076 58.3402 6.91676 58.7562 6.91676C59.1722 6.91676 59.5082 7.06076 59.7642 7.34876C60.0362 7.62076 60.1722 7.96476 60.1722 8.38076V23.2128Z" fill="#18753C"/>
<path d="M7.03618 70.5877C7.03618 56.3854 18.9619 44.7499 33.1221 44.7499C47.2824 44.7499 59.2081 56.3854 59.2081 70.5877C59.2081 77.091 57.19 82.8398 53.5938 87.4531L33.1221 112.276L24.2255 101.488C22.9855 99.9847 20.7676 99.7763 19.2718 101.023C17.776 102.27 17.5687 104.499 18.8088 106.003L30.4138 120.074C31.0821 120.885 32.0749 121.354 33.1221 121.354C34.1694 121.354 35.1621 120.885 35.8305 120.074L50.4262 102.376L59.0405 91.931C59.0598 91.9076 59.0789 91.8839 59.0976 91.86C59.0976 91.86 66.2443 84.9902 66.2443 70.5877C66.2443 52.344 51.0328 37.6768 33.1221 37.6768C15.2115 37.6768 0 52.344 0 70.5877C0 72.541 1.5751 74.1243 3.51809 74.1243C5.46108 74.1243 7.03618 72.541 7.03618 70.5877Z" fill="#18753C"/>
<path d="M22.56 89.6768C21.8933 89.6768 21.3333 89.4501 20.88 88.9968C20.4267 88.5168 20.2 87.9301 20.2 87.2368V68.4368L21.04 68.6368L13.32 78.1968L13.12 77.6768H27.28C27.92 77.6768 28.4533 77.8901 28.88 78.3168C29.3067 78.7434 29.52 79.2768 29.52 79.9168C29.52 80.5301 29.3067 81.0501 28.88 81.4768C28.4533 81.8768 27.92 82.0768 27.28 82.0768H9.8C9.24 82.0768 8.69333 81.8501 8.16 81.3968C7.65333 80.9434 7.4 80.3834 7.4 79.7168C7.4 79.1301 7.6 78.5968 8 78.1168L20.64 62.6368C20.8533 62.3434 21.1333 62.1168 21.48 61.9568C21.8267 61.7701 22.2133 61.6768 22.64 61.6768C23.3333 61.6768 23.8933 61.9168 24.32 62.3968C24.7733 62.8501 25 63.4234 25 64.1168V87.2368C25 87.9301 24.76 88.5168 24.28 88.9968C23.8267 89.4501 23.2533 89.6768 22.56 89.6768Z" fill="#18753C"/>
<path d="M34.448 67.2768C34.96 67.2768 35.408 67.4688 35.792 67.8528C36.1973 68.2154 36.4 68.6741 36.4 69.2288V87.7248C36.4 88.2794 36.1973 88.7488 35.792 89.1328C35.3867 89.4954 34.9173 89.6768 34.384 89.6768C33.7867 89.6768 33.3067 89.4954 32.944 89.1328C32.5813 88.7488 32.4 88.2794 32.4 87.7248V69.2288C32.4 68.6741 32.592 68.2154 32.976 67.8528C33.36 67.4688 33.8507 67.2768 34.448 67.2768ZM48.624 67.2768C49.2213 67.2768 49.7013 67.4688 50.064 67.8528C50.4267 68.2154 50.608 68.6741 50.608 69.2288V87.7248C50.608 88.2794 50.416 88.7488 50.032 89.1328C49.6693 89.4954 49.1787 89.6768 48.56 89.6768C48.048 89.6768 47.5893 89.4954 47.184 89.1328C46.8 88.7488 46.608 88.2794 46.608 87.7248V69.2288C46.608 68.6741 46.8107 68.2154 47.216 67.8528C47.6213 67.4688 48.0907 67.2768 48.624 67.2768ZM34.352 76.5888H48.624V80.2688H34.352V76.5888Z" fill="#18753C"/>
</svg>
