<svg width="67" height="85" viewBox="0 0 67 85" fill="none" xmlns="http://www.w3.org/2000/svg">
<path d="M7.03618 33.2645C7.03618 19.0622 18.9619 7.4267 33.1221 7.4267C47.2824 7.4267 59.2081 19.0622 59.2081 33.2645C59.2081 39.7677 57.19 45.5166 53.5938 50.1298L33.1221 74.9527L24.2255 64.1651C22.9855 62.6615 20.7676 62.4531 19.2718 63.6997C17.776 64.9463 17.5687 67.1758 18.8088 68.6795L30.4138 82.7511C31.0821 83.5615 32.0749 84.0305 33.1221 84.0305C34.1694 84.0305 35.1621 83.5615 35.8305 82.7511L50.4262 65.0531L59.0405 54.6078C59.0598 54.5844 59.0789 54.5607 59.0976 54.5367C59.0976 54.5367 66.2443 47.6669 66.2443 33.2645C66.2443 15.0208 51.0328 0.353516 33.1221 0.353516C15.2115 0.353516 0 15.0208 0 33.2645C0 35.2177 1.5751 36.8011 3.51809 36.8011C5.46108 36.8011 7.03618 35.2177 7.03618 33.2645Z" fill="#1E416A"/>
<path d="M22.56 52.3535C21.8933 52.3535 21.3333 52.1268 20.88 51.6735C20.4267 51.1935 20.2 50.6068 20.2 49.9135V31.1135L21.04 31.3135L13.32 40.8735L13.12 40.3535H27.28C27.92 40.3535 28.4533 40.5668 28.88 40.9935C29.3067 41.4202 29.52 41.9535 29.52 42.5935C29.52 43.2068 29.3067 43.7268 28.88 44.1535C28.4533 44.5535 27.92 44.7535 27.28 44.7535H9.8C9.24 44.7535 8.69333 44.5268 8.16 44.0735C7.65333 43.6202 7.4 43.0602 7.4 42.3935C7.4 41.8068 7.6 41.2735 8 40.7935L20.64 25.3135C20.8533 25.0202 21.1333 24.7935 21.48 24.6335C21.8267 24.4468 22.2133 24.3535 22.64 24.3535C23.3333 24.3535 23.8933 24.5935 24.32 25.0735C24.7733 25.5268 25 26.1002 25 26.7935V49.9135C25 50.6068 24.76 51.1935 24.28 51.6735C23.8267 52.1268 23.2533 52.3535 22.56 52.3535Z" fill="#1E416A"/>
<path d="M34.448 29.9535C34.96 29.9535 35.408 30.1455 35.792 30.5295C36.1973 30.8922 36.4 31.3508 36.4 31.9055V50.4015C36.4 50.9562 36.1973 51.4255 35.792 51.8095C35.3867 52.1722 34.9173 52.3535 34.384 52.3535C33.7867 52.3535 33.3067 52.1722 32.944 51.8095C32.5813 51.4255 32.4 50.9562 32.4 50.4015V31.9055C32.4 31.3508 32.592 30.8922 32.976 30.5295C33.36 30.1455 33.8507 29.9535 34.448 29.9535ZM48.624 29.9535C49.2213 29.9535 49.7013 30.1455 50.064 30.5295C50.4267 30.8922 50.608 31.3508 50.608 31.9055V50.4015C50.608 50.9562 50.416 51.4255 50.032 51.8095C49.6693 52.1722 49.1787 52.3535 48.56 52.3535C48.048 52.3535 47.5893 52.1722 47.184 51.8095C46.8 51.4255 46.608 50.9562 46.608 50.4015V31.9055C46.608 31.3508 46.8107 30.8922 47.216 30.5295C47.6213 30.1455 48.0907 29.9535 48.624 29.9535ZM34.352 39.2655H48.624V42.9455H34.352V39.2655Z" fill="#1E416A"/>
</svg>
