<svg width="67" height="85" viewBox="0 0 67 85" fill="none" xmlns="http://www.w3.org/2000/svg">
<path d="M7.03618 33.2645C7.03618 19.0622 18.9619 7.4267 33.1221 7.4267C47.2824 7.4267 59.2081 19.0622 59.2081 33.2645C59.2081 39.7677 57.19 45.5166 53.5938 50.1298L33.1221 74.9527L24.2255 64.1651C22.9855 62.6615 20.7676 62.4531 19.2718 63.6997C17.776 64.9463 17.5687 67.1758 18.8088 68.6795L30.4138 82.7511C31.0821 83.5615 32.0749 84.0305 33.1221 84.0305C34.1694 84.0305 35.1621 83.5615 35.8305 82.7511L50.4262 65.0531L59.0405 54.6078C59.0598 54.5844 59.0789 54.5607 59.0976 54.5367C59.0976 54.5367 66.2443 47.6669 66.2443 33.2645C66.2443 15.0208 51.0328 0.353516 33.1221 0.353516C15.2115 0.353516 0 15.0208 0 33.2645C0 35.2177 1.5751 36.8011 3.51809 36.8011C5.46108 36.8011 7.03618 35.2177 7.03618 33.2645Z" fill="#FBF9FA"/>
<path d="M36.283 52.3535C35.4997 52.3535 34.8417 52.0872 34.309 51.5545C33.7763 50.9905 33.51 50.3012 33.51 49.4865V27.3965L34.497 27.6315L25.426 38.8645L25.191 38.2535H41.829C42.581 38.2535 43.2077 38.5042 43.709 39.0055C44.2103 39.5068 44.461 40.1335 44.461 40.8855C44.461 41.6062 44.2103 42.2172 43.709 42.7185C43.2077 43.1885 42.581 43.4235 41.829 43.4235H21.29C20.632 43.4235 19.9897 43.1572 19.363 42.6245C18.7677 42.0918 18.47 41.4338 18.47 40.6505C18.47 39.9612 18.705 39.3345 19.175 38.7705L34.027 20.5815C34.2777 20.2368 34.6067 19.9705 35.014 19.7825C35.4213 19.5632 35.8757 19.4535 36.377 19.4535C37.1917 19.4535 37.8497 19.7355 38.351 20.2995C38.8837 20.8322 39.15 21.5058 39.15 22.3205V49.4865C39.15 50.3012 38.868 50.9905 38.304 51.5545C37.7713 52.0872 37.0977 52.3535 36.283 52.3535Z" fill="#FBF9FA"/>
</svg>
