<svg width="67" height="85" viewBox="0 0 67 85" fill="none" xmlns="http://www.w3.org/2000/svg">
<path d="M7.03618 33.2645C7.03618 19.0622 18.9619 7.4267 33.1221 7.4267C47.2824 7.4267 59.2081 19.0622 59.2081 33.2645C59.2081 39.7677 57.19 45.5166 53.5938 50.1298L33.1221 74.9527L24.2255 64.1651C22.9855 62.6615 20.7676 62.4531 19.2718 63.6997C17.776 64.9463 17.5687 67.1758 18.8088 68.6795L30.4138 82.7511C31.0821 83.5615 32.0749 84.0305 33.1221 84.0305C34.1694 84.0305 35.1621 83.5615 35.8305 82.7511L50.4262 65.0531L59.0405 54.6078C59.0598 54.5844 59.0789 54.5607 59.0976 54.5367C59.0976 54.5367 66.2443 47.6669 66.2443 33.2645C66.2443 15.0208 51.0328 0.353516 33.1221 0.353516C15.2115 0.353516 0 15.0208 0 33.2645C0 35.2177 1.5751 36.8011 3.51809 36.8011C5.46108 36.8011 7.03618 35.2177 7.03618 33.2645Z" fill="#FBF9FA"/>
<path d="M33.3589 53.3535C32.4815 53.3535 31.7609 53.0872 31.1969 52.5545C30.6329 51.9905 30.3509 51.3012 30.3509 50.4865V26.7985L31.0089 27.8325L27.5779 30.3705C27.1392 30.7152 26.5909 30.8875 25.9329 30.8875C25.1809 30.8875 24.5229 30.6055 23.9589 30.0415C23.3949 29.4775 23.1129 28.8038 23.1129 28.0205C23.1129 27.0178 23.5985 26.2032 24.5699 25.5765L31.3379 21.0645C31.6512 20.8452 31.9959 20.6885 32.3719 20.5945C32.7792 20.5005 33.1552 20.4535 33.4999 20.4535C34.4085 20.4535 35.1292 20.7355 35.6619 21.2995C36.1945 21.8322 36.4609 22.5058 36.4609 23.3205V50.4865C36.4609 51.3012 36.1632 51.9905 35.5679 52.5545C35.0039 53.0872 34.2675 53.3535 33.3589 53.3535Z" fill="#FBF9FA"/>
</svg>
