<svg width="67" height="85" viewBox="0 0 67 85" fill="none" xmlns="http://www.w3.org/2000/svg">
<path d="M7.03618 33.2645C7.03618 19.0622 18.9619 7.4267 33.1221 7.4267C47.2824 7.4267 59.2081 19.0622 59.2081 33.2645C59.2081 39.7677 57.19 45.5166 53.5938 50.1298L33.1221 74.9527L24.2255 64.1651C22.9855 62.6615 20.7676 62.4531 19.2718 63.6997C17.776 64.9463 17.5687 67.1758 18.8088 68.6795L30.4138 82.7511C31.0821 83.5615 32.0749 84.0305 33.1221 84.0305C34.1694 84.0305 35.1621 83.5615 35.8305 82.7511L50.4262 65.0531L59.0405 54.6078C59.0598 54.5844 59.0789 54.5607 59.0976 54.5367C59.0976 54.5367 66.2443 47.6669 66.2443 33.2645C66.2443 15.0208 51.0328 0.353516 33.1221 0.353516C15.2115 0.353516 0 15.0208 0 33.2645C0 35.2177 1.5751 36.8011 3.51809 36.8011C5.46108 36.8011 7.03618 35.2177 7.03618 33.2645Z" fill="#1E416A"/>
<path d="M19.56 57C18.8933 57 18.3333 56.7733 17.88 56.32C17.4267 55.84 17.2 55.2533 17.2 54.56V35.76L18.04 35.96L10.32 45.52L10.12 45H24.28C24.92 45 25.4533 45.2133 25.88 45.64C26.3067 46.0667 26.52 46.6 26.52 47.24C26.52 47.8533 26.3067 48.3733 25.88 48.8C25.4533 49.2 24.92 49.4 24.28 49.4H6.8C6.24 49.4 5.69333 49.1733 5.16 48.72C4.65333 48.2667 4.4 47.7067 4.4 47.04C4.4 46.4533 4.6 45.92 5 45.44L17.64 29.96C17.8533 29.6667 18.1333 29.44 18.48 29.28C18.8267 29.0933 19.2133 29 19.64 29C20.3333 29 20.8933 29.24 21.32 29.72C21.7733 30.1733 22 30.7467 22 31.44V54.56C22 55.2533 21.76 55.84 21.28 56.32C20.8267 56.7733 20.2533 57 19.56 57Z" fill="#1E416A"/>
<path d="M45.304 32.376C44.92 32.376 44.6 32.248 44.344 31.992C44.088 31.736 43.96 31.416 43.96 31.032C43.96 30.648 44.088 30.336 44.344 30.096C44.6 29.856 44.92 29.736 45.304 29.736H55.072C55.456 29.736 55.776 29.864 56.032 30.12C56.288 30.36 56.416 30.672 56.416 31.056C56.416 31.44 56.288 31.76 56.032 32.016C55.776 32.256 55.456 32.376 55.072 32.376H45.304ZM50.152 37.056C49.704 37.056 49.328 36.912 49.024 36.624C48.736 36.336 48.592 35.968 48.592 35.52V26.16C48.592 25.712 48.744 25.344 49.048 25.056C49.352 24.768 49.728 24.624 50.176 24.624C50.64 24.624 51.008 24.768 51.28 25.056C51.568 25.344 51.712 25.712 51.712 26.16V35.52C51.712 35.968 51.568 36.336 51.28 36.624C50.992 36.912 50.616 37.056 50.152 37.056Z" fill="#1E416A"/>
<path d="M29.448 34.9535C29.96 34.9535 30.408 35.1455 30.792 35.5295C31.1973 35.8922 31.4 36.3508 31.4 36.9055V55.4015C31.4 55.9562 31.1973 56.4255 30.792 56.8095C30.3867 57.1722 29.9173 57.3535 29.384 57.3535C28.7867 57.3535 28.3067 57.1722 27.944 56.8095C27.5813 56.4255 27.4 55.9562 27.4 55.4015V36.9055C27.4 36.3508 27.592 35.8922 27.976 35.5295C28.36 35.1455 28.8507 34.9535 29.448 34.9535ZM43.624 34.9535C44.2213 34.9535 44.7013 35.1455 45.064 35.5295C45.4267 35.8922 45.608 36.3508 45.608 36.9055V55.4015C45.608 55.9562 45.416 56.4255 45.032 56.8095C44.6693 57.1722 44.1787 57.3535 43.56 57.3535C43.048 57.3535 42.5893 57.1722 42.184 56.8095C41.8 56.4255 41.608 55.9562 41.608 55.4015V36.9055C41.608 36.3508 41.8107 35.8922 42.216 35.5295C42.6213 35.1455 43.0907 34.9535 43.624 34.9535ZM29.352 44.2655H43.624V47.9455H29.352V44.2655Z" fill="#1E416A"/>
</svg>
