<svg width="67" height="85" viewBox="0 0 67 85" fill="none" xmlns="http://www.w3.org/2000/svg">
<path d="M7.03618 33.2645C7.03618 19.0622 18.9619 7.4267 33.1221 7.4267C47.2824 7.4267 59.2081 19.0622 59.2081 33.2645C59.2081 39.7677 57.19 45.5166 53.5938 50.1298L33.1221 74.9527L24.2255 64.1651C22.9855 62.6615 20.7676 62.4531 19.2718 63.6997C17.776 64.9463 17.5687 67.1758 18.8088 68.6795L30.4138 82.7511C31.0821 83.5615 32.0749 84.0305 33.1221 84.0305C34.1694 84.0305 35.1621 83.5615 35.8305 82.7511L50.4262 65.0531L59.0405 54.6078C59.0598 54.5844 59.0789 54.5607 59.0976 54.5367C59.0976 54.5367 66.2443 47.6669 66.2443 33.2645C66.2443 15.0208 51.0328 0.353516 33.1221 0.353516C15.2115 0.353516 0 15.0208 0 33.2645C0 35.2177 1.5751 36.8011 3.51809 36.8011C5.46108 36.8011 7.03618 35.2177 7.03618 33.2645Z" fill="#FBF9FA"/>
<path d="M40.526 47.1835C41.278 47.1835 41.9047 47.4342 42.406 47.9355C42.9073 48.4368 43.158 49.0635 43.158 49.8155C43.158 50.5362 42.9073 51.1472 42.406 51.6485C41.9047 52.1185 41.278 52.3535 40.526 52.3535H24.546C23.7313 52.3535 23.089 52.1028 22.619 51.6015C22.149 51.1002 21.914 50.4578 21.914 49.6745C21.914 48.8912 22.196 48.2018 22.76 47.6065L33.006 36.6555C34.1653 35.4022 35.074 34.1175 35.732 32.8015C36.4213 31.4855 36.766 30.3418 36.766 29.3705C36.766 27.8038 36.3117 26.5505 35.403 25.6105C34.4943 24.6392 33.288 24.1535 31.784 24.1535C31.1887 24.1535 30.5777 24.2945 29.951 24.5765C29.3243 24.8585 28.7133 25.2502 28.118 25.7515C27.554 26.2528 27.0213 26.8325 26.52 27.4905C26.144 27.9918 25.768 28.3052 25.392 28.4305C25.016 28.5558 24.6713 28.6185 24.358 28.6185C23.6687 28.6185 23.0263 28.3678 22.431 27.8665C21.867 27.3338 21.585 26.7228 21.585 26.0335C21.585 25.5008 21.7573 24.9838 22.102 24.4825C22.478 23.9812 22.9323 23.4642 23.465 22.9315C24.2483 22.1482 25.1257 21.4588 26.097 20.8635C27.0683 20.2682 28.071 19.8138 29.105 19.5005C30.139 19.1558 31.1417 18.9835 32.113 18.9835C34.2123 18.9835 36.0297 19.4065 37.565 20.2525C39.1317 21.0672 40.338 22.2422 41.184 23.7775C42.03 25.2815 42.453 27.0675 42.453 29.1355C42.453 30.8588 41.936 32.7858 40.902 34.9165C39.8993 37.0158 38.5363 38.9898 36.813 40.8385L30.468 47.6065L29.951 47.1835H40.526Z" fill="#FBF9FA"/>
</svg>
