<svg width="67" height="85" viewBox="0 0 67 85" fill="none" xmlns="http://www.w3.org/2000/svg">
<path d="M7.03618 33.265C7.03618 19.0627 18.9619 7.42719 33.1221 7.42719C47.2824 7.42719 59.2081 19.0627 59.2081 33.265C59.2081 39.7682 57.19 45.5171 53.5938 50.1303L33.1221 74.9532L24.2255 64.1656C22.9855 62.6619 20.7676 62.4535 19.2718 63.7002C17.776 64.9468 17.5687 67.1763 18.8088 68.68L30.4138 82.7516C31.0821 83.562 32.0749 84.031 33.1221 84.031C34.1694 84.031 35.1621 83.562 35.8305 82.7516L50.4262 65.0536L59.0405 54.6083C59.0598 54.5849 59.0789 54.5611 59.0976 54.5372C59.0976 54.5372 66.2443 47.6674 66.2443 33.265C66.2443 15.0213 51.0328 0.354004 33.1221 0.354004C15.2115 0.354004 0 15.0213 0 33.265C0 35.2182 1.5751 36.8016 3.51809 36.8016C5.46108 36.8016 7.03618 35.2182 7.03618 33.265Z" fill="#1E416A"/>
<path d="M15.56 59C14.8933 59 14.3333 58.7733 13.88 58.32C13.4267 57.84 13.2 57.2533 13.2 56.56V37.76L14.04 37.96L6.32 47.52L6.12 47H20.28C20.92 47 21.4533 47.2133 21.88 47.64C22.3067 48.0667 22.52 48.6 22.52 49.24C22.52 49.8533 22.3067 50.3733 21.88 50.8C21.4533 51.2 20.92 51.4 20.28 51.4H2.8C2.24 51.4 1.69333 51.1733 1.16 50.72C0.653333 50.2667 0.4 49.7067 0.4 49.04C0.4 48.4533 0.6 47.92 1 47.44L13.64 31.96C13.8533 31.6667 14.1333 31.44 14.48 31.28C14.8267 31.0933 15.2133 31 15.64 31C16.3333 31 16.8933 31.24 17.32 31.72C17.7733 32.1733 18 32.7467 18 33.44V56.56C18 57.2533 17.76 57.84 17.28 58.32C16.8267 58.7733 16.2533 59 15.56 59Z" fill="#1E416A"/>
<path d="M41.536 34.584C41.28 34.584 41.0667 34.4987 40.896 34.328C40.7253 34.1573 40.64 33.944 40.64 33.688C40.64 33.432 40.7253 33.224 40.896 33.064C41.0667 32.904 41.28 32.824 41.536 32.824H48.048C48.304 32.824 48.5173 32.9093 48.688 33.08C48.8587 33.24 48.944 33.448 48.944 33.704C48.944 33.96 48.8587 34.1733 48.688 34.344C48.5173 34.504 48.304 34.584 48.048 34.584H41.536ZM44.768 37.704C44.4693 37.704 44.2187 37.608 44.016 37.416C43.824 37.224 43.728 36.9787 43.728 36.68V30.44C43.728 30.1413 43.8293 29.896 44.032 29.704C44.2347 29.512 44.4853 29.416 44.784 29.416C45.0933 29.416 45.3387 29.512 45.52 29.704C45.712 29.896 45.808 30.1413 45.808 30.44V36.68C45.808 36.9787 45.712 37.224 45.52 37.416C45.328 37.608 45.0773 37.704 44.768 37.704Z" fill="#1E416A"/>
<path d="M50.536 34.584C50.28 34.584 50.0667 34.4987 49.896 34.328C49.7253 34.1573 49.64 33.944 49.64 33.688C49.64 33.432 49.7253 33.224 49.896 33.064C50.0667 32.904 50.28 32.824 50.536 32.824H57.048C57.304 32.824 57.5173 32.9093 57.688 33.08C57.8587 33.24 57.944 33.448 57.944 33.704C57.944 33.96 57.8587 34.1733 57.688 34.344C57.5173 34.504 57.304 34.584 57.048 34.584H50.536ZM53.768 37.704C53.4693 37.704 53.2187 37.608 53.016 37.416C52.824 37.224 52.728 36.9787 52.728 36.68V30.44C52.728 30.1413 52.8293 29.896 53.032 29.704C53.2347 29.512 53.4853 29.416 53.784 29.416C54.0933 29.416 54.3387 29.512 54.52 29.704C54.712 29.896 54.808 30.1413 54.808 30.44V36.68C54.808 36.9787 54.712 37.224 54.52 37.416C54.328 37.608 54.0773 37.704 53.768 37.704Z" fill="#1E416A"/>
<path d="M25.448 35.9535C25.96 35.9535 26.408 36.1455 26.792 36.5295C27.1973 36.8922 27.4 37.3508 27.4 37.9055V56.4015C27.4 56.9562 27.1973 57.4255 26.792 57.8095C26.3867 58.1722 25.9173 58.3535 25.384 58.3535C24.7867 58.3535 24.3067 58.1722 23.944 57.8095C23.5813 57.4255 23.4 56.9562 23.4 56.4015V37.9055C23.4 37.3508 23.592 36.8922 23.976 36.5295C24.36 36.1455 24.8507 35.9535 25.448 35.9535ZM39.624 35.9535C40.2213 35.9535 40.7013 36.1455 41.064 36.5295C41.4267 36.8922 41.608 37.3508 41.608 37.9055V56.4015C41.608 56.9562 41.416 57.4255 41.032 57.8095C40.6693 58.1722 40.1787 58.3535 39.56 58.3535C39.048 58.3535 38.5893 58.1722 38.184 57.8095C37.8 57.4255 37.608 56.9562 37.608 56.4015V37.9055C37.608 37.3508 37.8107 36.8922 38.216 36.5295C38.6213 36.1455 39.0907 35.9535 39.624 35.9535ZM25.352 45.2655H39.624V48.9455H25.352V45.2655Z" fill="#1E416A"/>
</svg>
