<svg width="67" height="85" viewBox="0 0 67 85" fill="none" xmlns="http://www.w3.org/2000/svg">
<path d="M7.03618 33.5877C7.03618 19.3854 18.9619 7.74994 33.1221 7.74994C47.2824 7.74994 59.2081 19.3854 59.2081 33.5877C59.2081 40.091 57.19 45.8398 53.5938 50.4531L33.1221 75.276L24.2255 64.4884C22.9855 62.9847 20.7676 62.7763 19.2718 64.0229C17.776 65.2695 17.5687 67.499 18.8088 69.0027L30.4138 83.0743C31.0821 83.8848 32.0749 84.3538 33.1221 84.3538C34.1694 84.3538 35.1621 83.8848 35.8305 83.0743L50.4262 65.3764L59.0405 54.931C59.0598 54.9076 59.0789 54.8839 59.0976 54.86C59.0976 54.86 66.2443 47.9902 66.2443 33.5877C66.2443 15.344 51.0328 0.676758 33.1221 0.676758C15.2115 0.676758 0 15.344 0 33.5877C0 35.541 1.5751 37.1243 3.51809 37.1243C5.46108 37.1243 7.03618 35.541 7.03618 33.5877Z" fill="#1E416A"/>
<path d="M33.3589 53.6768C32.4815 53.6768 31.7609 53.4104 31.1969 52.8778C30.6329 52.3138 30.3509 51.6244 30.3509 50.8098V27.1218L31.0089 28.1558L27.5779 30.6938C27.1392 31.0384 26.5909 31.2108 25.9329 31.2108C25.1809 31.2108 24.5229 30.9288 23.9589 30.3648C23.3949 29.8008 23.1129 29.1271 23.1129 28.3438C23.1129 27.3411 23.5985 26.5264 24.5699 25.8998L31.3379 21.3878C31.6512 21.1684 31.9959 21.0118 32.3719 20.9178C32.7792 20.8238 33.1552 20.7768 33.4999 20.7768C34.4085 20.7768 35.1292 21.0588 35.6619 21.6228C36.1945 22.1554 36.4609 22.8291 36.4609 23.6438V50.8098C36.4609 51.6244 36.1632 52.3138 35.5679 52.8778C35.0039 53.4104 34.2675 53.6768 33.3589 53.6768Z" fill="#1E416A"/>
</svg>
