<svg width="64" height="65" viewBox="0 0 64 65" fill="none" xmlns="http://www.w3.org/2000/svg">
<path fill-rule="evenodd" clip-rule="evenodd" d="M13.6 6.42489C13.1589 6.42489 12.8 6.06601 12.8 5.62489C12.8 5.18373 13.1589 4.82489 13.6 4.82489C14.0411 4.82489 14.4 5.18373 14.4 5.62489C14.4 6.06601 14.0411 6.42489 13.6 6.42489Z" fill="#ECECFE"/>
<path fill-rule="evenodd" clip-rule="evenodd" d="M16.8 60.8249C16.3589 60.8249 16 60.466 16 60.0249C16 59.5837 16.3589 59.2249 16.8 59.2249C17.2411 59.2249 17.6 59.5837 17.6 60.0249C17.6 60.466 17.2411 60.8249 16.8 60.8249Z" fill="#ECECFE"/>
<path fill-rule="evenodd" clip-rule="evenodd" d="M50.4 59.2249C49.9589 59.2249 49.6 58.866 49.6 58.4249C49.6 57.9837 49.9589 57.6249 50.4 57.6249C50.8411 57.6249 51.2 57.9837 51.2 58.4249C51.2 58.866 50.8411 59.2249 50.4 59.2249Z" fill="#ECECFE"/>
<path fill-rule="evenodd" clip-rule="evenodd" d="M52 8.02487C51.5589 8.02487 51.2 7.66599 51.2 7.22487C51.2 6.78371 51.5589 6.42487 52 6.42487C52.4411 6.42487 52.8 6.78371 52.8 7.22487C52.8 7.66599 52.4411 8.02487 52 8.02487Z" fill="#ECECFE"/>
<path fill-rule="evenodd" clip-rule="evenodd" d="M32.8 64.0249C32.3589 64.0249 32 63.666 32 63.2249C32 62.7838 32.3589 62.4249 32.8 62.4249C33.2411 62.4249 33.6 62.7838 33.6 63.2249C33.6 63.666 33.2411 64.0249 32.8 64.0249Z" fill="#ECECFE"/>
<path fill-rule="evenodd" clip-rule="evenodd" d="M24 16.0249C24 14.6994 25.0745 13.6249 26.4 13.6249C27.7255 13.6249 28.8 14.6994 28.8 16.0249C28.8 17.3504 27.7255 18.4249 26.4 18.4249C25.0745 18.4249 24 17.3504 24 16.0249ZM27.2 16.0249C27.2 15.5831 26.8418 15.2249 26.4 15.2249C25.9582 15.2249 25.6 15.5831 25.6 16.0249C25.6 16.4667 25.9582 16.8249 26.4 16.8249C26.8418 16.8249 27.2 16.4667 27.2 16.0249Z" fill="#E1000F"/>
<path d="M26.4 16.8249C26.8103 16.8249 27.1484 17.1337 27.1946 17.5316L27.2 17.6249V20.8249C27.2 21.2667 26.8418 21.6249 26.4 21.6249C25.9897 21.6249 25.6516 21.316 25.6054 20.9182L25.6 20.8249V17.6249C25.6 17.183 25.9582 16.8249 26.4 16.8249Z" fill="#E1000F"/>
<path fill-rule="evenodd" clip-rule="evenodd" d="M41.6 35.2249C41.6 33.8994 42.6745 32.8249 44 32.8249C45.3255 32.8249 46.4 33.8994 46.4 35.2249C46.4 36.5504 45.3255 37.6249 44 37.6249C42.6745 37.6249 41.6 36.5504 41.6 35.2249ZM44.8 35.2249C44.8 34.783 44.4418 34.4249 44 34.4249C43.5582 34.4249 43.2 34.783 43.2 35.2249C43.2 35.6667 43.5582 36.0249 44 36.0249C44.4418 36.0249 44.8 35.6667 44.8 35.2249Z" fill="#E1000F"/>
<path d="M44 36.0249C44.4103 36.0249 44.7484 36.3337 44.7946 36.7316L44.8 36.8249V40.0249C44.8 40.4667 44.4418 40.8249 44 40.8249C43.5897 40.8249 43.2516 40.516 43.2054 40.1182L43.2 40.0249V36.8249C43.2 36.383 43.5582 36.0249 44 36.0249Z" fill="#E1000F"/>
<path fill-rule="evenodd" clip-rule="evenodd" d="M18.4 40.0249C18.4 38.6994 19.4745 37.6249 20.8 37.6249C22.1255 37.6249 23.2 38.6994 23.2 40.0249C23.2 41.3504 22.1255 42.4249 20.8 42.4249C19.4745 42.4249 18.4 41.3504 18.4 40.0249ZM21.6 40.0249C21.6 39.583 21.2418 39.2249 20.8 39.2249C20.3582 39.2249 20 39.583 20 40.0249C20 40.4667 20.3582 40.8249 20.8 40.8249C21.2418 40.8249 21.6 40.4667 21.6 40.0249Z" fill="#E1000F"/>
<path d="M20.8 40.8249C21.2103 40.8249 21.5484 41.1337 21.5946 41.5316L21.6 41.6249V44.8249C21.6 45.2667 21.2418 45.6249 20.8 45.6249C20.3897 45.6249 20.0516 45.316 20.0054 44.9182L20 44.8249V41.6249C20 41.183 20.3582 40.8249 20.8 40.8249Z" fill="#E1000F"/>
<path d="M20 15.2249C20.4418 15.2249 20.8 15.583 20.8 16.0249C20.8 16.4351 20.4912 16.7733 20.0933 16.8195L20 16.8249H15.2C14.7582 16.8249 14.4 16.4667 14.4 16.0249C14.4 15.6146 14.7088 15.2765 15.1067 15.2303L15.2 15.2249H20Z" fill="#000091"/>
<path d="M56.8 15.2249C57.2103 15.2249 57.5484 15.5337 57.5946 15.9316L57.6 16.0249V49.6249C57.6 50.0351 57.2912 50.3733 56.8933 50.4195L56.8 50.4249H24.8C24.3582 50.4249 24 50.0667 24 49.6249C24 49.2146 24.3088 48.8765 24.7067 48.8303L24.8 48.8249H56V16.8249H32.8C32.3897 16.8249 32.0516 16.516 32.0054 16.1182L32 16.0249C32 15.6146 32.3088 15.2765 32.7067 15.2303L32.8 15.2249H56.8Z" fill="#000091"/>
<path fill-rule="evenodd" clip-rule="evenodd" d="M13.64 13.7321L11.2133 13.6917L11.0358 13.692C8.50208 13.7431 6.44323 15.7916 6.40065 18.3465L6.39999 44.8249L6.40538 44.9182C6.40893 44.9488 6.41421 44.9789 6.42112 45.0083L6.42479 45.0225L6.41131 45.2223C6.40377 45.3537 6.39999 45.4879 6.39999 45.6249C6.39999 48.4871 7.96411 50.1629 10.8622 50.4217L18.4 50.4249L18.4933 50.4195C18.8912 50.3733 19.2 50.0351 19.2 49.6249C19.2 49.183 18.8418 48.8249 18.4 48.8249H10.9333L10.7423 48.8047C8.86606 48.5774 7.99999 47.5862 7.99999 45.6249C7.99999 43.6116 9.00072 42.6109 11.2664 42.4221L13.6 42.4249L13.741 42.4208C15.0009 42.3478 16 41.303 16 40.0249V16.1318L15.996 15.9924C15.9246 14.7469 14.9029 13.7531 13.64 13.7321ZM8.00719 18.212C8.11873 16.5575 9.50989 15.2635 11.1867 15.2914L13.6133 15.3319L13.7055 15.3387C14.0981 15.3904 14.4 15.7263 14.4 16.1318V40.0249L14.3946 40.1182C14.3484 40.516 14.0103 40.8249 13.6 40.8249H11.2L10.9786 40.8457C9.81138 40.9697 8.85787 41.2972 8.12904 41.8173L7.99999 41.9129L8.00043 18.3732L8.00719 18.212Z" fill="#000091"/>
<path fill-rule="evenodd" clip-rule="evenodd" d="M15.2 32.8249H15.5305C15.9723 32.8249 16.3305 33.183 16.3305 33.6249C16.3305 34.0667 15.9723 34.4249 15.5305 34.4249H15.2C14.7582 34.4249 14.4 34.0667 14.4 33.6249C14.4 33.183 14.7582 32.8249 15.2 32.8249ZM20.3305 32.8249H17.9305C17.4887 32.8249 17.1305 33.183 17.1305 33.6249C17.1305 34.0667 17.4887 34.4249 17.9305 34.4249H20.3305C20.7723 34.4249 21.1305 34.0667 21.1305 33.6249C21.1305 33.183 20.7723 32.8249 20.3305 32.8249ZM25.4554 33.1661L25.6449 33.4368C25.8983 33.7988 25.8102 34.2976 25.4483 34.551C25.0863 34.8044 24.5875 34.7164 24.3341 34.3544L22.7305 34.4249C22.2887 34.4249 21.9305 34.0667 21.9305 33.6249C21.9305 33.183 22.2887 32.8249 22.7305 32.8249H24.8C25.061 32.8249 25.3057 32.9522 25.4554 33.1661ZM28.3975 37.3692L27.0212 35.403C26.7678 35.041 26.269 34.953 25.9071 35.2064C25.5451 35.4598 25.4571 35.9586 25.7104 36.3205L27.0868 38.2867C27.3401 38.6487 27.8389 38.7367 28.2009 38.4833C28.5629 38.2299 28.6509 37.7311 28.3975 37.3692ZM29.7738 39.3353L31.1501 41.3015C31.4035 41.6634 31.3155 42.1623 30.9535 42.4156C30.5916 42.669 30.0927 42.581 29.8394 42.219L28.4631 40.2529C28.2097 39.8909 28.2977 39.3921 28.6597 39.1387C29.0216 38.8853 29.5205 38.9734 29.7738 39.3353ZM33.9028 45.2338L32.5264 43.2676C32.2731 42.9057 31.7743 42.8176 31.4123 43.071C31.0503 43.3244 30.9623 43.8232 31.2157 44.1852L32.592 46.1513C32.8454 46.5133 33.3442 46.6013 33.7061 46.3479C34.0681 46.0946 34.1561 45.5957 33.9028 45.2338ZM36.6554 49.1661L35.2791 47.1999C35.0257 46.838 34.5269 46.75 34.1649 47.0033C33.803 47.2567 33.7149 47.7555 33.9683 48.1175L35.3446 50.0836C35.598 50.4456 36.0968 50.5336 36.4588 50.2803C36.8207 50.0269 36.9087 49.5281 36.6554 49.1661Z" fill="#000091"/>
<path fill-rule="evenodd" clip-rule="evenodd" d="M33.2695 34.4249C33.7113 34.4249 34.0695 34.0667 34.0695 33.6249C34.0695 33.183 33.7113 32.8249 33.2695 32.8249H31.2C30.5528 32.8249 30.1735 33.5534 30.5446 34.0836L30.7341 34.3544C30.9875 34.7164 31.4863 34.8044 31.8483 34.551C32.2102 34.2976 33.2695 34.4249 33.2695 34.4249ZM33.4212 35.403L34.7975 37.3692C35.0509 37.7311 34.9629 38.2299 34.6009 38.4833C34.2389 38.7367 33.7401 38.6487 33.4867 38.2867L32.1104 36.3205C31.8571 35.9586 31.9451 35.4598 32.3071 35.2064C32.669 34.953 33.1678 35.041 33.4212 35.403ZM37.5501 41.3015L36.1738 39.3353C35.9205 38.9734 35.4216 38.8853 35.0597 39.1387C34.6977 39.3921 34.6097 39.8909 34.8631 40.2529L36.2394 42.219C36.4927 42.581 36.9916 42.669 37.3535 42.4156C37.7155 42.1623 37.8035 41.6634 37.5501 41.3015ZM38.9264 43.2676L40.3028 45.2338C40.5561 45.5957 40.4681 46.0946 40.1061 46.3479C39.7442 46.6013 39.2454 46.5133 38.992 46.1513L37.6157 44.1852C37.3623 43.8232 37.4503 43.3244 37.8123 43.071C38.1743 42.8176 38.6731 42.9057 38.9264 43.2676ZM41.6791 47.1999L43.0554 49.1661C43.3088 49.5281 43.2207 50.0269 42.8588 50.2803C42.4968 50.5336 41.998 50.4456 41.7446 50.0836L40.3683 48.1175C40.1149 47.7555 40.203 47.2567 40.5649 47.0033C40.9269 46.75 41.4257 46.838 41.6791 47.1999ZM38.0695 34.4249H35.6695C35.2277 34.4249 34.8695 34.0667 34.8695 33.6249C34.8695 33.183 35.2277 32.8249 35.6695 32.8249H38.0695C38.5113 32.8249 38.8695 33.183 38.8695 33.6249C38.8695 34.0667 38.5113 34.4249 38.0695 34.4249Z" fill="#000091"/>
<path fill-rule="evenodd" clip-rule="evenodd" d="M52.8 34.4249H50.4C49.9582 34.4249 49.6 34.0667 49.6 33.6249C49.6 33.183 49.9582 32.8249 50.4 32.8249H52.8C53.2418 32.8249 53.6 33.183 53.6 33.6249C53.6 34.0667 53.2418 34.4249 52.8 34.4249ZM56.8 34.4249H55.2C54.7582 34.4249 54.4 34.0667 54.4 33.6249C54.4 33.183 54.7582 32.8249 55.2 32.8249H56.8C57.2418 32.8249 57.6 33.183 57.6 33.6249C57.6 34.0667 57.2418 34.4249 56.8 34.4249Z" fill="#000091"/>
<path fill-rule="evenodd" clip-rule="evenodd" d="M40 16.0249V17.6249C40 18.0667 39.6418 18.4249 39.2 18.4249C38.7582 18.4249 38.4 18.0667 38.4 17.6249V16.0249C38.4 15.583 38.7582 15.2249 39.2 15.2249C39.6418 15.2249 40 15.583 40 16.0249ZM40 22.4249V20.0249C40 19.583 39.6418 19.2249 39.2 19.2249C38.7582 19.2249 38.4 19.583 38.4 20.0249V22.4249C38.4 22.8667 38.7582 23.2249 39.2 23.2249C39.6418 23.2249 40 22.8667 40 22.4249ZM40 24.8249V27.2249C40 27.6667 39.6418 28.0249 39.2 28.0249C38.7582 28.0249 38.4 27.6667 38.4 27.2249V24.8249C38.4 24.383 38.7582 24.0249 39.2 24.0249C39.6418 24.0249 40 24.383 40 24.8249ZM17.6 28.0249H15.2C14.7582 28.0249 14.4 27.6667 14.4 27.2249C14.4 26.783 14.7582 26.4249 15.2 26.4249H17.6C18.0418 26.4249 18.4 26.783 18.4 27.2249C18.4 27.6667 18.0418 28.0249 17.6 28.0249ZM22.4 28.0249H20C19.5582 28.0249 19.2 27.6667 19.2 27.2249C19.2 26.783 19.5582 26.4249 20 26.4249H22.4C22.8418 26.4249 23.2 26.783 23.2 27.2249C23.2 27.6667 22.8418 28.0249 22.4 28.0249ZM24.8 28.0249H27.2C27.6418 28.0249 28 27.6667 28 27.2249C28 26.783 27.6418 26.4249 27.2 26.4249H24.8C24.3582 26.4249 24 26.783 24 27.2249C24 27.6667 24.3582 28.0249 24.8 28.0249ZM32 28.0249H29.6C29.1582 28.0249 28.8 27.6667 28.8 27.2249C28.8 26.783 29.1582 26.4249 29.6 26.4249H32C32.4418 26.4249 32.8 26.783 32.8 27.2249C32.8 27.6667 32.4418 28.0249 32 28.0249ZM34.4 28.0249H36.8C37.2418 28.0249 37.6 27.6667 37.6 27.2249C37.6 26.783 37.2418 26.4249 36.8 26.4249H34.4C33.9582 26.4249 33.6 26.783 33.6 27.2249C33.6 27.6667 33.9582 28.0249 34.4 28.0249Z" fill="#000091"/>
<path fill-rule="evenodd" clip-rule="evenodd" d="M36.8 21.6249H34.4C33.9582 21.6249 33.6 21.2667 33.6 20.8249C33.6 20.383 33.9582 20.0249 34.4 20.0249H36.8C37.2418 20.0249 37.6 20.383 37.6 20.8249C37.6 21.2667 37.2418 21.6249 36.8 21.6249ZM33.6 21.6249V24.0249C33.6 24.4667 33.2418 24.8249 32.8 24.8249C32.3582 24.8249 32 24.4667 32 24.0249V21.6249C32 21.183 32.3582 20.8249 32.8 20.8249C33.2418 20.8249 33.6 21.183 33.6 21.6249Z" fill="#000091"/>
<path fill-rule="evenodd" clip-rule="evenodd" d="M57.6 18.4249C57.6 18.8667 57.2418 19.2249 56.8 19.2249C56.3582 19.2249 56 18.8667 56 18.4249V16.8249C56.4418 16.8249 56.8 16.4667 56.8 16.0249C56.8 15.7288 56.6391 15.4702 56.4 15.3319C56.5177 15.2638 56.6543 15.2249 56.8 15.2249C57.2418 15.2249 57.6 15.583 57.6 16.0249V18.4249ZM56.4 15.3319C56.2823 15.2638 56.1457 15.2249 56 15.2249H53.6C53.1582 15.2249 52.8 15.583 52.8 16.0249C52.8 16.4667 53.1582 16.8249 53.6 16.8249H56V16.0249C56 15.7288 56.1609 15.4702 56.4 15.3319ZM57.6 23.2249C57.6 23.6667 57.2418 24.0249 56.8 24.0249C56.3582 24.0249 56 23.6667 56 23.2249V20.8249C56 20.383 56.3582 20.0249 56.8 20.0249C57.2418 20.0249 57.6 20.383 57.6 20.8249V23.2249ZM55.2 27.2249C55.2 27.6667 55.5582 28.0249 56 28.0249H56.8C57.2418 28.0249 57.6 27.6667 57.6 27.2249V25.6249C57.6 25.183 57.2418 24.8249 56.8 24.8249C56.3582 24.8249 56 25.183 56 25.6249V26.4249C55.5582 26.4249 55.2 26.783 55.2 27.2249ZM51.2 28.0249C50.7582 28.0249 50.4 27.6667 50.4 27.2249C50.4 26.783 50.7582 26.4249 51.2 26.4249H53.6C54.0418 26.4249 54.4 26.783 54.4 27.2249C54.4 27.6667 54.0418 28.0249 53.6 28.0249H51.2ZM47.2 25.6249C46.7582 25.6249 46.4 25.983 46.4 26.4249V27.2249C46.4 27.6667 46.7582 28.0249 47.2 28.0249H48.8C49.2418 28.0249 49.6 27.6667 49.6 27.2249C49.6 26.783 49.2418 26.4249 48.8 26.4249H48C48 25.983 47.6418 25.6249 47.2 25.6249ZM46.4 21.6249C46.4 21.183 46.7582 20.8249 47.2 20.8249C47.6418 20.8249 48 21.183 48 21.6249V24.0249C48 24.4667 47.6418 24.8249 47.2 24.8249C46.7582 24.8249 46.4 24.4667 46.4 24.0249V21.6249ZM47.2 16.0249C46.7582 16.0249 46.4 16.383 46.4 16.8249V19.2249C46.4 19.6667 46.7582 20.0249 47.2 20.0249C47.6418 20.0249 48 19.6667 48 19.2249V16.8249C48 16.383 47.6418 16.0249 47.2 16.0249ZM51.2 15.2249C51.6418 15.2249 52 15.583 52 16.0249C52 16.4667 51.6418 16.8249 51.2 16.8249H48.8C48.3582 16.8249 48 16.4667 48 16.0249C48 15.583 48.3582 15.2249 48.8 15.2249H51.2Z" fill="#000091"/>
</svg>
