<svg width="64" height="65" viewBox="0 0 64 65" fill="none" xmlns="http://www.w3.org/2000/svg">
<path fill-rule="evenodd" clip-rule="evenodd" d="M61.6 19.2249C61.1589 19.2249 60.8 18.8661 60.8 18.4249C60.8 17.9838 61.1589 17.6249 61.6 17.6249C62.0411 17.6249 62.4 17.9838 62.4 18.4249C62.4 18.8661 62.0411 19.2249 61.6 19.2249Z" fill="#ECECFE"/>
<path fill-rule="evenodd" clip-rule="evenodd" d="M23.2 64.0249C22.7589 64.0249 22.4 63.666 22.4 63.2249C22.4 62.7838 22.7589 62.4249 23.2 62.4249C23.6411 62.4249 24 62.7838 24 63.2249C24 63.666 23.6411 64.0249 23.2 64.0249Z" fill="#ECECFE"/>
<path fill-rule="evenodd" clip-rule="evenodd" d="M12 8.02493C11.5589 8.02493 11.2 7.66605 11.2 7.22493C11.2 6.78377 11.5589 6.42493 12 6.42493C12.4411 6.42493 12.8 6.78377 12.8 7.22493C12.8 7.66605 12.4411 8.02493 12 8.02493Z" fill="#ECECFE"/>
<g clip-path="url(#clip0_15369_10328)">
<path d="M49.6 57.6249C44.2979 57.6249 40 53.327 40 48.0249C40 42.7228 44.2979 38.4249 49.6 38.4249C54.9021 38.4249 59.2 42.7228 59.2 48.0249C59.2 53.327 54.9021 57.6249 49.6 57.6249ZM49.6 55.7049C51.6369 55.7049 53.5903 54.8958 55.0306 53.4555C56.4709 52.0152 57.28 50.0618 57.28 48.0249C57.28 45.9881 56.4709 44.0346 55.0306 42.5943C53.5903 41.1541 51.6369 40.3449 49.6 40.3449C47.5631 40.3449 45.6097 41.1541 44.1694 42.5943C42.7291 44.0346 41.92 45.9881 41.92 48.0249C41.92 50.0618 42.7291 52.0152 44.1694 53.4555C45.6097 54.8958 47.5631 55.7049 49.6 55.7049V55.7049ZM50.56 48.0249H54.4V49.9449H48.64V43.2249H50.56V48.0249Z" fill="#E1000F"/>
</g>
<path d="M18.4 8.0249C18.8103 8.0249 19.1484 8.33373 19.1946 8.73161L19.2 8.8249V11.2249H44.8V8.8249C44.8 8.38307 45.1582 8.0249 45.6 8.0249C46.0103 8.0249 46.3484 8.33373 46.3946 8.73161L46.4 8.8249V11.2249H52C54.151 11.2249 55.9055 12.9227 55.9963 15.0514L56 15.2249V36.0249C56 36.4667 55.6418 36.8249 55.2 36.8249C54.7897 36.8249 54.4516 36.5161 54.4054 36.1182L54.4 36.0249V22.4249H50.4C49.9582 22.4249 49.6 22.0667 49.6 21.6249C49.6 21.2146 49.9088 20.8765 50.3067 20.8303L50.4 20.8249H54.4V15.2249C54.4 13.9468 53.4009 12.902 52.141 12.829L52 12.8249H46.4V15.2249C46.4 15.6667 46.0418 16.0249 45.6 16.0249C45.1897 16.0249 44.8516 15.7161 44.8054 15.3182L44.8 15.2249V12.8249H19.2V15.2249C19.2 15.6667 18.8418 16.0249 18.4 16.0249C17.9897 16.0249 17.6516 15.7161 17.6054 15.3182L17.6 15.2249V12.8249H12C10.7219 12.8249 9.67707 13.824 9.60407 15.0839L9.6 15.2249V20.8249H17.6V20.0249C17.6 19.5831 17.9582 19.2249 18.4 19.2249C18.8103 19.2249 19.1484 19.5337 19.1946 19.9316L19.2 20.0249V20.8249H45.6C46.0418 20.8249 46.4 21.1831 46.4 21.6249C46.4 22.0352 46.0912 22.3733 45.6933 22.4195L45.6 22.4249H19.2V23.2249C19.2 23.6667 18.8418 24.0249 18.4 24.0249C17.9897 24.0249 17.6516 23.7161 17.6054 23.3182L17.6 23.2249V22.4249H9.6V48.8249C9.6 50.103 10.5991 51.1478 11.859 51.2208L12 51.2249H34.4C34.8418 51.2249 35.2 51.5831 35.2 52.0249C35.2 52.4352 34.8912 52.7733 34.4933 52.8195L34.4 52.8249H12C9.849 52.8249 8.09455 51.1271 8.0037 48.9984L8 48.8249V15.2249C8 13.0739 9.69785 11.3194 11.8265 11.2286L12 11.2249H17.6V8.8249C17.6 8.38307 17.9582 8.0249 18.4 8.0249Z" fill="#000091"/>
<path d="M37.6 51.2249C37.1582 51.2249 36.8 51.5831 36.8 52.0249C36.8 52.4667 37.1582 52.8249 37.6 52.8249C38.0418 52.8249 38.4 52.4667 38.4 52.0249C38.4 51.5831 38.0418 51.2249 37.6 51.2249Z" fill="#000091"/>
<path fill-rule="evenodd" clip-rule="evenodd" d="M24 29.6249C24 28.2994 22.9255 27.2249 21.6 27.2249H16.8C15.4745 27.2249 14.4 28.2994 14.4 29.6249V32.8249C14.4 34.1504 15.4745 35.2249 16.8 35.2249H21.6C22.9255 35.2249 24 34.1504 24 32.8249V29.6249ZM16 29.6249C16 29.1831 16.3582 28.8249 16.8 28.8249H21.6C22.0418 28.8249 22.4 29.1831 22.4 29.6249V32.8249C22.4 33.2667 22.0418 33.6249 21.6 33.6249H16.8C16.3582 33.6249 16 33.2667 16 32.8249V29.6249Z" fill="#000091"/>
<path fill-rule="evenodd" clip-rule="evenodd" d="M47.2 27.2249C48.5255 27.2249 49.6 28.2994 49.6 29.6249V32.8249C49.6 34.1504 48.5255 35.2249 47.2 35.2249H42.4C41.0745 35.2249 40 34.1504 40 32.8249V29.6249C40 28.2994 41.0745 27.2249 42.4 27.2249H47.2ZM42.4 28.8249C41.9582 28.8249 41.6 29.1831 41.6 29.6249V32.8249C41.6 33.2667 41.9582 33.6249 42.4 33.6249H47.2C47.6418 33.6249 48 33.2667 48 32.8249V29.6249C48 29.1831 47.6418 28.8249 47.2 28.8249H42.4Z" fill="#000091"/>
<path fill-rule="evenodd" clip-rule="evenodd" d="M34.4 27.2249H29.6C28.2745 27.2249 27.2 28.2994 27.2 29.6249V32.8249C27.2 34.1504 28.2745 35.2249 29.6 35.2249H34.4C35.7255 35.2249 36.8 34.1504 36.8 32.8249V29.6249C36.8 28.2994 35.7255 27.2249 34.4 27.2249ZM29.6 28.8249H34.4C34.8418 28.8249 35.2 29.1831 35.2 29.6249V32.8249C35.2 33.2667 34.8418 33.6249 34.4 33.6249H29.6C29.1582 33.6249 28.8 33.2667 28.8 32.8249V29.6249C28.8 29.1831 29.1582 28.8249 29.6 28.8249Z" fill="#000091"/>
<path fill-rule="evenodd" clip-rule="evenodd" d="M21.6 38.4249C22.9255 38.4249 24 39.4994 24 40.8249V44.0249C24 45.3504 22.9255 46.4249 21.6 46.4249H16.8C15.4745 46.4249 14.4 45.3504 14.4 44.0249V40.8249C14.4 39.4994 15.4745 38.4249 16.8 38.4249H21.6ZM16.8 40.0249C16.3582 40.0249 16 40.3831 16 40.8249V44.0249C16 44.4667 16.3582 44.8249 16.8 44.8249H21.6C22.0418 44.8249 22.4 44.4667 22.4 44.0249V40.8249C22.4 40.3831 22.0418 40.0249 21.6 40.0249H16.8Z" fill="#000091"/>
<path fill-rule="evenodd" clip-rule="evenodd" d="M34.4 38.4249H29.6C28.2745 38.4249 27.2 39.4994 27.2 40.8249V44.0249C27.2 45.3504 28.2745 46.4249 29.6 46.4249H34.4C35.7255 46.4249 36.8 45.3504 36.8 44.0249V40.8249C36.8 39.4994 35.7255 38.4249 34.4 38.4249ZM29.6 40.0249H34.4C34.8418 40.0249 35.2 40.3831 35.2 40.8249V44.0249C35.2 44.4667 34.8418 44.8249 34.4 44.8249H29.6C29.1582 44.8249 28.8 44.4667 28.8 44.0249V40.8249C28.8 40.3831 29.1582 40.0249 29.6 40.0249Z" fill="#000091"/>
<defs>
<clipPath id="clip0_15369_10328">
<rect width="19.2" height="19.2" fill="white" transform="translate(40 38.4249)"/>
</clipPath>
</defs>
</svg>
