<svg width="64" height="65" viewBox="0 0 64 65" fill="none" xmlns="http://www.w3.org/2000/svg">
<path fill-rule="evenodd" clip-rule="evenodd" d="M12.8 5.6296C12.3589 5.6296 12 5.27072 12 4.8296C12 4.38844 12.3589 4.0296 12.8 4.0296C13.2411 4.0296 13.6 4.38844 13.6 4.8296C13.6 5.27072 13.2411 5.6296 12.8 5.6296Z" fill="#ECECFE"/>
<path fill-rule="evenodd" clip-rule="evenodd" d="M16 60.0296C15.5589 60.0296 15.2 59.6707 15.2 59.2296C15.2 58.7884 15.5589 58.4296 16 58.4296C16.4411 58.4296 16.8 58.7884 16.8 59.2296C16.8 59.6707 16.4411 60.0296 16 60.0296Z" fill="#ECECFE"/>
<path fill-rule="evenodd" clip-rule="evenodd" d="M49.6 58.4296C49.1589 58.4296 48.8 58.0707 48.8 57.6296C48.8 57.1884 49.1589 56.8296 49.6 56.8296C50.0411 56.8296 50.4 57.1884 50.4 57.6296C50.4 58.0707 50.0411 58.4296 49.6 58.4296Z" fill="#ECECFE"/>
<path fill-rule="evenodd" clip-rule="evenodd" d="M51.2 7.22961C50.7589 7.22961 50.4 6.87073 50.4 6.42961C50.4 5.98845 50.7589 5.62961 51.2 5.62961C51.6411 5.62961 52 5.98845 52 6.42961C52 6.87073 51.6411 7.22961 51.2 7.22961Z" fill="#ECECFE"/>
<path fill-rule="evenodd" clip-rule="evenodd" d="M32 63.2296C31.5589 63.2296 31.2 62.8707 31.2 62.4296C31.2 61.9885 31.5589 61.6296 32 61.6296C32.4411 61.6296 32.8 61.9885 32.8 62.4296C32.8 62.8707 32.4411 63.2296 32 63.2296Z" fill="#ECECFE"/>
<path d="M39.056 31.9496C39 31.9496 38.944 31.9496 38.88 31.9416C38.2 31.8696 37.648 31.3896 37.488 30.7176C37.248 29.7016 36.728 28.7736 35.992 28.0376C35.256 27.3016 34.328 26.7816 33.312 26.5416C32.88 26.4376 32.616 26.0056 32.72 25.5736C32.824 25.1416 33.256 24.8776 33.688 24.9816C34.992 25.2936 36.176 25.9576 37.128 26.9096C38.08 27.8616 38.744 29.0456 39.056 30.3496L43.872 20.1656L37.336 23.2616C36.936 23.4536 36.464 23.2776 36.272 22.8776C36.08 22.4776 36.256 21.9976 36.656 21.8136L45.216 17.7576C45.52 17.6136 45.888 17.6776 46.12 17.9176C46.36 18.1576 46.424 18.5176 46.28 18.8296L40.496 31.0376C40.224 31.5976 39.672 31.9416 39.056 31.9496Z" fill="#E1000F"/>
<path d="M32.04 50.4296C31.08 50.4296 30.12 50.3576 29.152 50.2056C28.712 50.1336 28.416 49.7256 28.488 49.2936C28.56 48.8536 28.968 48.5656 29.4 48.6296C33.832 49.3256 38.272 48.2536 41.896 45.6056C42.256 45.3416 42.752 45.4216 43.016 45.7816C43.28 46.1416 43.2 46.6376 42.84 46.9016C39.656 49.2216 35.904 50.4296 32.04 50.4296Z" fill="#E1000F"/>
<path d="M32 55.2296C19.208 55.2296 8.80002 44.8216 8.80002 32.0296C8.80002 19.2376 19.208 8.82959 32 8.82959C44.792 8.82959 55.2 19.2376 55.2 32.0296C55.2 36.2216 54.064 40.3336 51.928 43.9176C51.704 44.2936 51.208 44.4216 50.832 44.1976C50.456 43.9736 50.328 43.4776 50.552 43.1016C52.544 39.7656 53.6 35.9336 53.6 32.0296C53.6 20.1176 43.912 10.4296 32 10.4296C20.088 10.4296 10.4 20.1176 10.4 32.0296C10.4 43.9416 20.088 53.6296 32 53.6296C37.768 53.6296 43.192 51.3816 47.272 47.3016C47.584 46.9896 48.088 46.9896 48.4 47.3016C48.712 47.6136 48.712 48.1176 48.4 48.4296C44.024 52.8136 38.2 55.2296 32 55.2296Z" fill="#000091"/>
<path d="M6.40001 32.8296C5.96001 32.8296 5.60001 32.4696 5.60001 32.0296C5.60001 27.5256 6.75201 23.0776 8.94401 19.1656C9.16001 18.7816 9.64801 18.6456 10.032 18.8536C10.416 19.0696 10.552 19.5576 10.344 19.9416C8.28801 23.6216 7.20001 27.7976 7.20001 32.0296C7.20001 32.4696 6.84001 32.8296 6.40001 32.8296Z" fill="#000091"/>
<path d="M32 36.0776C29.768 36.0776 27.952 34.2616 27.952 32.0296C27.952 29.7976 29.768 27.9816 32 27.9816C34.232 27.9816 36.048 29.7976 36.048 32.0296C36.048 34.2616 34.232 36.0776 32 36.0776ZM32 29.5816C30.648 29.5816 29.552 30.6776 29.552 32.0296C29.552 33.3816 30.648 34.4776 32 34.4776C33.352 34.4776 34.448 33.3816 34.448 32.0296C34.448 30.6776 33.352 29.5816 32 29.5816Z" fill="#000091"/>
<path d="M18.448 46.3816C18.24 46.3816 18.032 46.3016 17.88 46.1496C17.64 45.9096 17.576 45.5496 17.72 45.2456L23.504 33.0376C23.8 32.4136 24.432 32.0616 25.112 32.1336C25.792 32.2056 26.344 32.6856 26.504 33.3576C26.744 34.3736 27.264 35.3016 28 36.0376C28.736 36.7736 29.664 37.2936 30.68 37.5336C31.112 37.6376 31.376 38.0696 31.272 38.5016C31.168 38.9336 30.736 39.1976 30.304 39.0936C29 38.7816 27.816 38.1176 26.864 37.1656C25.912 36.2136 25.248 35.0296 24.944 33.7256L20.128 43.9096L27.04 40.6376C27.44 40.4536 27.92 40.6216 28.104 41.0216C28.296 41.4216 28.12 41.8936 27.72 42.0856L18.784 46.3176C18.688 46.3496 18.568 46.3816 18.448 46.3816Z" fill="#000091"/>
</svg>
