<svg width="64" height="65" viewBox="0 0 64 65" fill="none" xmlns="http://www.w3.org/2000/svg">
<path fill-rule="evenodd" clip-rule="evenodd" d="M8.00001 6.42489C7.55889 6.42489 7.20001 6.06601 7.20001 5.62489C7.20001 5.18373 7.55889 4.82489 8.00001 4.82489C8.44113 4.82489 8.80001 5.18373 8.80001 5.62489C8.80001 6.06601 8.44113 6.42489 8.00001 6.42489Z" fill="#ECECFE"/>
<path fill-rule="evenodd" clip-rule="evenodd" d="M12.8 56.8249C12.3589 56.8249 12 56.466 12 56.0249C12 55.5837 12.3589 55.2249 12.8 55.2249C13.2411 55.2249 13.6 55.5837 13.6 56.0249C13.6 56.466 13.2411 56.8249 12.8 56.8249Z" fill="#ECECFE"/>
<path fill-rule="evenodd" clip-rule="evenodd" d="M54.4 44.8249C53.9589 44.8249 53.6 44.466 53.6 44.0249C53.6 43.5837 53.9589 43.2249 54.4 43.2249C54.8411 43.2249 55.2 43.5837 55.2 44.0249C55.2 44.466 54.8411 44.8249 54.4 44.8249Z" fill="#ECECFE"/>
<path fill-rule="evenodd" clip-rule="evenodd" d="M56 6.42489C55.5589 6.42489 55.2 6.06601 55.2 5.62489C55.2 5.18373 55.5589 4.82489 56 4.82489C56.4411 4.82489 56.8 5.18373 56.8 5.62489C56.8 6.06601 56.4411 6.42489 56 6.42489Z" fill="#ECECFE"/>
<path fill-rule="evenodd" clip-rule="evenodd" d="M32.4 27.2249C30.8536 27.2249 29.6 28.4785 29.6 30.0249C29.6 31.5713 30.8536 32.8249 32.4 32.8249C33.9464 32.8249 35.2 31.5713 35.2 30.0249C35.2 28.4785 33.9464 27.2249 32.4 27.2249ZM28 30.0249C28 27.5949 29.9699 25.6249 32.4 25.6249C34.83 25.6249 36.8 27.5949 36.8 30.0249C36.8 32.455 34.83 34.4249 32.4 34.4249C29.9699 34.4249 28 32.455 28 30.0249Z" fill="#E1000F"/>
<path fill-rule="evenodd" clip-rule="evenodd" d="M28.4 45.6249C28.4 45.1831 28.7582 44.8249 29.2 44.8249H30C30.4418 44.8249 30.8 45.1831 30.8 45.6249C30.8 46.0667 30.4418 46.4249 30 46.4249H29.2C28.7582 46.4249 28.4 46.0667 28.4 45.6249Z" fill="#E1000F"/>
<path fill-rule="evenodd" clip-rule="evenodd" d="M30.4473 20.5539C30.5616 20.2365 30.8626 20.0249 31.2 20.0249H33.6C33.9373 20.0249 34.2384 20.2365 34.3527 20.5539L34.9584 22.2363L36.0636 22.7387L37.6422 21.9494C37.9502 21.7954 38.3222 21.8557 38.5657 22.0992L40.3257 23.8592C40.5692 24.1027 40.6295 24.4747 40.4755 24.7827L39.6746 26.3846L40.1243 27.5338L41.8353 28.0603C42.1709 28.1636 42.4 28.4737 42.4 28.8249V31.3049C42.4 31.6459 42.1839 31.9494 41.8617 32.0609L40.1235 32.6626L39.6779 33.7518L40.4755 35.3471C40.6326 35.6613 40.5664 36.0411 40.3124 36.2836L38.5524 37.9636C38.3154 38.1898 37.9645 38.2486 37.6667 38.1122L36.0619 37.3766L34.9522 37.8306L34.3527 39.4959C34.2384 39.8133 33.9373 40.0249 33.6 40.0249H31.2C30.8626 40.0249 30.5616 39.8133 30.4473 39.4959L29.8478 37.8306L28.7381 37.3766L27.1333 38.1122C26.8355 38.2486 26.4846 38.1898 26.2476 37.9636L24.4876 36.2836C24.2336 36.0411 24.1674 35.6613 24.3245 35.3471L25.1221 33.7518L24.6765 32.6626L22.9383 32.0609C22.6161 31.9494 22.4 31.6459 22.4 31.3049V28.8249C22.4 28.4737 22.6291 28.1636 22.9647 28.0603L24.6757 27.5338L25.1254 26.3846L24.3245 24.7827C24.1705 24.4747 24.2308 24.1027 24.4743 23.8592L26.2343 22.0992C26.4778 21.8557 26.8498 21.7954 27.1578 21.9494L28.7364 22.7387L29.8416 22.2363L30.4473 20.5539ZM31.7623 21.6249L31.2327 23.0959C31.1596 23.299 31.0075 23.4639 30.811 23.5532L29.051 24.3532C28.8313 24.4531 28.5781 24.4484 28.3622 24.3404L26.958 23.6383L26.0134 24.5829L26.7155 25.9871C26.8168 26.1896 26.8275 26.4256 26.745 26.6364L26.025 28.4764C25.9361 28.7036 25.7484 28.8778 25.5153 28.9495L24 29.4158V30.7353L25.5417 31.2689C25.759 31.3441 25.9334 31.5092 26.0204 31.722L26.7404 33.482C26.8278 33.6955 26.8187 33.9363 26.7155 34.1427L26.0198 35.5342L26.9599 36.4316L28.3867 35.7777C28.5878 35.6855 28.8181 35.6807 29.0229 35.7645L30.7829 36.4845C30.9925 36.5702 31.156 36.7408 31.2327 36.9539L31.7623 38.4249H33.0377L33.5673 36.9539C33.644 36.7408 33.8075 36.5702 34.0171 36.4845L35.7771 35.7645C35.9819 35.6807 36.2122 35.6855 36.4133 35.7777L37.8401 36.4316L38.7802 35.5342L38.0845 34.1427C37.9813 33.9363 37.9722 33.6955 38.0596 33.482L38.7796 31.722C38.8666 31.5092 39.041 31.3441 39.2583 31.2689L40.8 30.7353V29.4158L39.2847 28.9495C39.0516 28.8778 38.8639 28.7036 38.775 28.4764L38.055 26.6364C37.9725 26.4256 37.9832 26.1896 38.0845 25.9871L38.7866 24.5829L37.842 23.6383L36.4378 24.3404C36.2218 24.4484 35.9687 24.4531 35.749 24.3532L33.989 23.5532C33.7925 23.4639 33.6404 23.299 33.5673 23.0959L33.0377 21.6249H31.7623Z" fill="#E1000F"/>
<path fill-rule="evenodd" clip-rule="evenodd" d="M31.6 45.6249C31.6 45.1831 31.9582 44.8249 32.4 44.8249H38C38.4418 44.8249 38.8 45.1831 38.8 45.6249C38.8 46.0667 38.4418 46.4249 38 46.4249H32.4C31.9582 46.4249 31.6 46.0667 31.6 45.6249Z" fill="#000091"/>
<path fill-rule="evenodd" clip-rule="evenodd" d="M36.2085 51.6526C36.6351 51.7677 36.8875 52.2069 36.7723 52.6334C36.2473 54.5779 34.8408 56.4249 32.56 56.4249C30.287 56.4249 28.488 54.6826 28.0195 52.6005C27.9225 52.1695 28.1933 51.7414 28.6244 51.6444C29.0554 51.5474 29.4835 51.8182 29.5805 52.2493C29.912 53.7227 31.153 54.8249 32.56 54.8249C33.7992 54.8249 34.7927 53.8275 35.2276 52.2164C35.3428 51.7898 35.782 51.5374 36.2085 51.6526Z" fill="#000091"/>
<path fill-rule="evenodd" clip-rule="evenodd" d="M32.4 8.0249C32.8418 8.0249 33.2 8.38307 33.2 8.8249V12.8249C33.2 13.2667 32.8418 13.6249 32.4 13.6249C31.9582 13.6249 31.6 13.2667 31.6 12.8249V8.8249C31.6 8.38307 31.9582 8.0249 32.4 8.0249Z" fill="#000091"/>
<path fill-rule="evenodd" clip-rule="evenodd" d="M10.4 30.4249C10.4 29.9831 10.7582 29.6249 11.2 29.6249H15.2C15.6418 29.6249 16 29.9831 16 30.4249C16 30.8667 15.6418 31.2249 15.2 31.2249H11.2C10.7582 31.2249 10.4 30.8667 10.4 30.4249Z" fill="#000091"/>
<path fill-rule="evenodd" clip-rule="evenodd" d="M13.7403 22.9203C13.9085 22.5118 14.3761 22.3169 14.7846 22.4852L16.1446 23.0452C16.5531 23.2134 16.748 23.681 16.5797 24.0895C16.4115 24.4981 15.9439 24.6929 15.5354 24.5246L14.1754 23.9646C13.7669 23.7964 13.572 23.3289 13.7403 22.9203Z" fill="#000091"/>
<path fill-rule="evenodd" clip-rule="evenodd" d="M24.4422 11.8694C24.8374 11.6718 25.3179 11.832 25.5155 12.2271L26.3155 13.8271C26.5131 14.2223 26.3529 14.7029 25.9578 14.9005C25.5626 15.098 25.082 14.9379 24.8845 14.5427L24.0845 12.9427C23.8869 12.5475 24.047 12.067 24.4422 11.8694Z" fill="#000091"/>
<path fill-rule="evenodd" clip-rule="evenodd" d="M16.2343 14.0192C16.5467 13.7068 17.0533 13.7068 17.3657 14.0192L20.5657 17.2192C20.8781 17.5316 20.8781 18.0382 20.5657 18.3506C20.2533 18.663 19.7467 18.663 19.4343 18.3506L16.2343 15.1506C15.9219 14.8382 15.9219 14.3316 16.2343 14.0192Z" fill="#000091"/>
<path fill-rule="evenodd" clip-rule="evenodd" d="M48.8 30.4249C48.8 29.9831 49.1582 29.6249 49.6 29.6249H53.6C54.0418 29.6249 54.4 29.9831 54.4 30.4249C54.4 30.8667 54.0418 31.2249 53.6 31.2249H49.6C49.1582 31.2249 48.8 30.8667 48.8 30.4249Z" fill="#000091"/>
<path fill-rule="evenodd" clip-rule="evenodd" d="M51.0597 22.9203C51.228 23.3289 51.0332 23.7964 50.6246 23.9646L49.2646 24.5246C48.8561 24.6929 48.3885 24.4981 48.2203 24.0895C48.052 23.681 48.2469 23.2134 48.6554 23.0452L50.0154 22.4852C50.424 22.3169 50.8915 22.5118 51.0597 22.9203Z" fill="#000091"/>
<path fill-rule="evenodd" clip-rule="evenodd" d="M40.3578 11.8694C40.7529 12.067 40.9131 12.5475 40.7155 12.9427L39.9155 14.5427C39.7179 14.9379 39.2374 15.098 38.8422 14.9005C38.447 14.7029 38.2869 14.2223 38.4845 13.8271L39.2845 12.2271C39.482 11.832 39.9626 11.6718 40.3578 11.8694Z" fill="#000091"/>
<path fill-rule="evenodd" clip-rule="evenodd" d="M48.5657 14.0192C48.8781 14.3316 48.8781 14.8382 48.5657 15.1506L45.3657 18.3506C45.0533 18.663 44.5467 18.663 44.2343 18.3506C43.9219 18.0382 43.9219 17.5316 44.2343 17.2192L47.4343 14.0192C47.7467 13.7068 48.2533 13.7068 48.5657 14.0192Z" fill="#000091"/>
<path fill-rule="evenodd" clip-rule="evenodd" d="M43.0457 39.0592C43.3581 39.3716 43.3581 39.8782 43.0457 40.1906C42.9517 40.2846 42.8557 40.3817 42.7577 40.481C41.9847 41.2636 41.0806 42.179 39.9578 42.7404C39.5626 42.938 39.082 42.7779 38.8845 42.3827C38.6869 41.9875 38.847 41.507 39.2422 41.3094C40.1124 40.8743 40.8214 40.1598 41.6216 39.3534C41.7177 39.2566 41.8151 39.1584 41.9143 39.0592C42.2267 38.7468 42.7333 38.7468 43.0457 39.0592Z" fill="#000091"/>
<path fill-rule="evenodd" clip-rule="evenodd" d="M32.4 16.8249C25.0818 16.8249 19.2 22.7067 19.2 30.0249C19.2 34.7682 21.7595 38.9201 25.5415 41.265C25.9171 41.4978 26.0327 41.9909 25.7999 42.3665C25.5671 42.742 25.074 42.8576 24.6984 42.6248C20.4805 40.0097 17.6 35.3616 17.6 30.0249C17.6 21.8231 24.1982 15.2249 32.4 15.2249C40.6018 15.2249 47.2 21.8231 47.2 30.0249C47.2 32.4768 46.6073 34.7679 45.5034 36.8059C45.293 37.1944 44.8075 37.3388 44.419 37.1283C44.0305 36.9179 43.8861 36.4324 44.0966 36.0439C45.0726 34.2419 45.6 32.213 45.6 30.0249C45.6 22.7067 39.7182 16.8249 32.4 16.8249Z" fill="#000091"/>
<path fill-rule="evenodd" clip-rule="evenodd" d="M24.5725 41.5287C24.8465 41.1821 25.3496 41.1233 25.6962 41.3974C26.0087 41.6445 26.2311 41.992 26.3936 42.3343C26.5608 42.6865 26.6923 43.0927 26.7944 43.5185C26.9985 44.3704 27.1016 45.3743 27.1016 46.3449H25.5016C25.5016 45.4755 25.4081 44.5994 25.2384 43.8913C25.1535 43.5371 25.054 43.2433 24.9482 43.0205C24.8378 42.7879 24.7454 42.6854 24.7038 42.6524C24.3572 42.3784 24.2984 41.8753 24.5725 41.5287ZM39.2984 46.3449V49.9449C39.2984 50.4694 39.0909 51.2289 38.7141 51.8634C38.341 52.4915 37.6568 53.2249 36.6098 53.2249H28.1902C27.1432 53.2249 26.4589 52.4915 26.0859 51.8634C25.7091 51.2289 25.5016 50.4694 25.5016 49.9449V46.3449H27.1016V49.9449C27.1016 50.1404 27.2089 50.6209 27.4616 51.0464C27.7181 51.4783 27.9781 51.6249 28.1902 51.6249H36.6098C36.8219 51.6249 37.0819 51.4783 37.3384 51.0464C37.5911 50.6209 37.6984 50.1404 37.6984 49.9449V46.3452L39.2984 46.3449ZM39.2984 46.3449C39.2984 45.4755 39.3919 44.5994 39.5616 43.8913C39.6464 43.5371 39.746 43.2433 39.8518 43.0205C39.9622 42.7879 40.0546 42.6854 40.0962 42.6524C40.4428 42.3784 40.5016 41.8753 40.2275 41.5287C39.9535 41.1821 39.4504 41.1233 39.1038 41.3974C38.7913 41.6445 38.5689 41.9919 38.4064 42.3343C38.2392 42.6865 38.1076 43.0927 38.0056 43.5185C37.8015 44.3704 37.6984 45.3746 37.6984 46.3452L39.2984 46.3449Z" fill="#000091"/>
</svg>
