<svg width="64" height="65" viewBox="0 0 64 65" fill="none" xmlns="http://www.w3.org/2000/svg">
<path fill-rule="evenodd" clip-rule="evenodd" d="M47.2 60.8249C46.7589 60.8249 46.4 60.466 46.4 60.0249C46.4 59.5837 46.7589 59.2249 47.2 59.2249C47.6411 59.2249 48 59.5837 48 60.0249C48 60.466 47.6411 60.8249 47.2 60.8249Z" fill="#ECECFE"/>
<path fill-rule="evenodd" clip-rule="evenodd" d="M53.6 9.6249C53.1589 9.6249 52.8 9.26602 52.8 8.8249C52.8 8.38374 53.1589 8.0249 53.6 8.0249C54.0411 8.0249 54.4 8.38374 54.4 8.8249C54.4 9.26602 54.0411 9.6249 53.6 9.6249Z" fill="#ECECFE"/>
<path fill-rule="evenodd" clip-rule="evenodd" d="M7.19999 12.8249C6.75887 12.8249 6.39999 12.466 6.39999 12.0249C6.39999 11.5837 6.75887 11.2249 7.19999 11.2249C7.64111 11.2249 7.99999 11.5837 7.99999 12.0249C7.99999 12.466 7.64111 12.8249 7.19999 12.8249Z" fill="#ECECFE"/>
<path d="M29.6 18.4249C29.6 17.9831 29.2418 17.6249 28.8 17.6249H19.2L19.1067 17.6303C18.7088 17.6765 18.4 18.0146 18.4 18.4249C18.4 18.8667 18.7582 19.2249 19.2 19.2249H28.8L28.8933 19.2195C29.2912 19.1733 29.6 18.8351 29.6 18.4249Z" fill="#E1000F"/>
<path d="M31.2 32.0249C30.3163 32.0249 29.6 32.7412 29.6 33.6249C29.6 35.6145 30.4069 36.8249 32 36.8249C32.4418 36.8249 32.8 36.4667 32.8 36.0249C32.8 35.583 32.4418 35.2249 32 35.2249L31.9247 35.2222C31.8292 35.2151 31.7434 35.1938 31.6671 35.1556C32.3229 34.9558 32.8 34.346 32.8 33.6249C32.8 32.7412 32.0836 32.0249 31.2 32.0249Z" fill="#E1000F"/>
<path d="M34.4 33.6249C34.4 32.7412 35.1163 32.0249 36 32.0249C36.8836 32.0249 37.6 32.7412 37.6 33.6249C37.6 34.346 37.1229 34.9558 36.4671 35.1556C36.5434 35.1938 36.6292 35.2151 36.7247 35.2222L36.8 35.2249C37.2418 35.2249 37.6 35.583 37.6 36.0249C37.6 36.4667 37.2418 36.8249 36.8 36.8249C35.2069 36.8249 34.4 35.6145 34.4 33.6249Z" fill="#E1000F"/>
<path d="M27.2 20.8249C27.6418 20.8249 28 21.183 28 21.6249C28 22.0351 27.6912 22.3733 27.2933 22.4195L27.2 22.4249H19.2C18.7582 22.4249 18.4 22.0667 18.4 21.6249C18.4 21.2146 18.7088 20.8765 19.1067 20.8303L19.2 20.8249H27.2Z" fill="#E1000F"/>
<path d="M24.8 24.8249C24.8 24.383 24.4418 24.0249 24 24.0249H19.2L19.1067 24.0303C18.7088 24.0765 18.4 24.4146 18.4 24.8249C18.4 25.2667 18.7582 25.6249 19.2 25.6249H24L24.0933 25.6195C24.4912 25.5733 24.8 25.2351 24.8 24.8249Z" fill="#E1000F"/>
<path d="M44.8 40.0249C45.2418 40.0249 45.6 40.383 45.6 40.8249C45.6 41.2351 45.2912 41.5733 44.8933 41.6195L44.8 41.6249H30.4C29.9582 41.6249 29.6 41.2667 29.6 40.8249C29.6 40.4146 29.9088 40.0765 30.3067 40.0303L30.4 40.0249H44.8Z" fill="#E1000F"/>
<path d="M42.4 44.0249C42.4 43.583 42.0418 43.2249 41.6 43.2249H30.4L30.3067 43.2303C29.9088 43.2765 29.6 43.6146 29.6 44.0249C29.6 44.4667 29.9582 44.8249 30.4 44.8249H41.6L41.6933 44.8195C42.0912 44.7733 42.4 44.4351 42.4 44.0249Z" fill="#E1000F"/>
<path d="M25.6 9.62488C31.0832 9.62488 35.4303 12.8706 37.5423 18.1266C37.707 18.5366 37.5082 19.0025 37.0983 19.1672C36.6883 19.3319 36.2224 19.1331 36.0577 18.7232C34.1791 14.0478 30.3981 11.2249 25.6 11.2249C18.9726 11.2249 13.6 16.5975 13.6 23.2249C13.6 25.7975 14.4106 28.2459 15.8926 30.2809C16.0805 30.5389 16.0953 30.8806 15.939 31.1514L15.8806 31.2389L12.8216 35.2249H17.6C18.0103 35.2249 18.3484 35.5337 18.3946 35.9316L18.4 36.0249C18.4 36.4352 18.0912 36.7733 17.6933 36.8195L17.6 36.8249H11.2C10.5669 36.8249 10.1962 36.1317 10.515 35.611L10.5653 35.5379L14.256 30.7273L14.2108 30.6604C12.8406 28.5663 12.0689 26.1281 12.0044 23.5739L12 23.2249C12 15.7138 18.0889 9.62488 25.6 9.62488Z" fill="#000091"/>
<path d="M37.6 22.4249C46.4365 22.4249 53.6 29.5883 53.6 38.4249C53.6 40.9294 53.0235 43.3532 51.931 45.5474C51.734 45.9429 51.2538 46.1039 50.8583 45.907C50.4627 45.71 50.3018 45.2298 50.4987 44.8343C51.4815 42.8604 52 40.6805 52 38.4249C52 30.472 45.5529 24.0249 37.6 24.0249C29.6471 24.0249 23.2 30.472 23.2 38.4249C23.2 46.2894 29.5046 52.6814 37.3355 52.8225L37.6 52.8249H51.3048L48.9343 49.2686C48.7068 48.9273 48.7762 48.4746 49.0816 48.2155L49.1562 48.1592C49.4976 47.9317 49.9503 48.0011 50.2094 48.3065L50.2656 48.3811L53.4656 53.1811C53.8032 53.6875 53.4736 54.3575 52.8895 54.4201L52.8 54.4249H37.6C28.7634 54.4249 21.6 47.2614 21.6 38.4249C21.6 29.5883 28.7634 22.4249 37.6 22.4249Z" fill="#000091"/>
<path d="M44 15.2249C44 15.666 44.3589 16.0249 44.8 16.0249C45.2411 16.0249 45.6 15.666 45.6 15.2249C45.6 14.7837 45.2411 14.4249 44.8 14.4249C44.3589 14.4249 44 14.7837 44 15.2249Z" fill="#000091"/>
<path d="M48 16.0249C47.5589 16.0249 47.2 15.666 47.2 15.2249C47.2 14.7837 47.5589 14.4249 48 14.4249C48.4411 14.4249 48.8 14.7837 48.8 15.2249C48.8 15.666 48.4411 16.0249 48 16.0249Z" fill="#000091"/>
<path d="M50.4 15.2249C50.4 15.666 50.7589 16.0249 51.2 16.0249C51.6411 16.0249 52 15.666 52 15.2249C52 14.7837 51.6411 14.4249 51.2 14.4249C50.7589 14.4249 50.4 14.7837 50.4 15.2249Z" fill="#000091"/>
<path fill-rule="evenodd" clip-rule="evenodd" d="M54.4 11.2249H41.6C41.1582 11.2249 40.8 11.5831 40.8 12.0249V18.4249L40.8054 18.5182C40.8516 18.916 41.1897 19.2249 41.6 19.2249H47.668L50.6343 22.1906L50.702 22.2515C51.2116 22.6628 52 22.3066 52 21.6249V19.2249H54.4C54.8418 19.2249 55.2 18.8667 55.2 18.4249V12.0249C55.2 11.5831 54.8418 11.2249 54.4 11.2249ZM53.6 12.8249V17.6249H51.2L51.1067 17.6303C50.7088 17.6765 50.4 18.0146 50.4 18.4249V19.6929L48.5657 17.8592L48.4864 17.7897C48.3476 17.6834 48.1768 17.6249 48 17.6249H42.4V12.8249H53.6Z" fill="#000091"/>
<path d="M12.8 46.4249C13.2418 46.4249 13.6 46.7831 13.6 47.2249C13.6 47.6352 13.2912 47.9733 12.8933 48.0195L12.8 48.0249H9.59999C9.15816 48.0249 8.79999 47.6667 8.79999 47.2249C8.79999 46.8146 9.10882 46.4765 9.50669 46.4303L9.59999 46.4249H12.8Z" fill="#000091"/>
<path d="M15.2 47.2249C15.2 47.666 15.5589 48.0249 16 48.0249C16.4411 48.0249 16.8 47.666 16.8 47.2249C16.8 46.7837 16.4411 46.4249 16 46.4249C15.5589 46.4249 15.2 46.7837 15.2 47.2249Z" fill="#000091"/>
<path d="M19.2 48.0249C18.7589 48.0249 18.4 47.666 18.4 47.2249C18.4 46.7837 18.7589 46.4249 19.2 46.4249C19.6411 46.4249 20 46.7837 20 47.2249C20 47.666 19.6411 48.0249 19.2 48.0249Z" fill="#000091"/>
</svg>
