<svg width="1792" height="1024" viewBox="0 0 1792 1024" fill="none" xmlns="http://www.w3.org/2000/svg">
<path d="M72.0714 845C6.64286 691.909 6.64286 691.909 72.0714 538.818C137.5 385.727 137.5 385.727 202.929 538.818C268.357 691.909 268.357 691.909 202.929 845H72.0714Z" fill="transparent"/>
<path class="bonne-reponse" d="M288.214 690C239.929 600.545 239.929 600.545 288.214 511.091C336.5 421.636 336.5 421.636 384.786 511.091C433.071 600.545 433.071 600.545 384.786 690H288.214Z" fill="transparent"/>
<path class="bonne-reponse" d="M549.214 868C504.929 740 504.929 740 549.214 612C593.5 484 593.5 484 637.786 612C682.071 740 682.071 740 637.786 868H549.214Z" fill="transparent"/>
</svg>
