<svg xmlns="http://www.w3.org/2000/svg" width="150" height="120" fill="none"><path fill="#30342d" fill-rule="evenodd" d="M74.471 39.767c-8.327 0-15.334 6.768-15.334 15.02a2.14 2.14 0 0 1-2.142 2.133 2.14 2.14 0 0 1-2.141-2.134c0-10.695 9.014-19.286 19.617-19.286 10.605 0 19.619 8.59 19.619 19.286 0 1.54-.16 3.032-.469 4.465a8.3 8.3 0 0 1 3.095.647q1.532.615 2.59 1.588v-.036q0-.938.62-1.552.62-.65 1.568-.65t1.568.614.62 1.588v15.264q0 .94-.62 1.588-.62.613-1.568.613t-1.568-.613q-.584-.614-.62-1.552-.911 1.046-2.48 1.804a7.5 7.5 0 0 1-3.246.722q-2.516 0-4.559-1.263-2.041-1.3-3.245-3.572a10 10 0 0 1-.634-1.535L76.12 83.728a2.145 2.145 0 0 1-3.295 0l-6.85-8.216a2.127 2.127 0 0 1 .279-3.004 2.15 2.15 0 0 1 3.016.28l5.202 6.24 12.036-14.437c2.114-2.68 3.3-6.022 3.3-9.804 0-8.252-7.007-15.02-15.336-15.02zm15.35 27.527-.98 1.175a8 8 0 0 0-.038.811q0 2.6 1.458 4.33 1.496 1.697 3.866 1.697t3.866-1.697q1.495-1.73 1.495-4.33 0-2.597-1.495-4.33-1.495-1.732-3.866-1.732-1.084 0-1.986.374a19.4 19.4 0 0 1-2.32 3.702M64.224 70.22q.658-.54.693-1.408a9.33 9.33 0 0 0-1.276-4.763 9.7 9.7 0 0 0-3.428-3.5q-2.115-1.3-4.523-1.3-2.443 0-4.595 1.263-2.152 1.228-3.465 3.573-1.311 2.345-1.312 5.45 0 2.778 1.24 5.015 1.24 2.201 3.5 3.464 2.3 1.263 5.362 1.263 1.75 0 3.465-.578 1.713-.577 2.735-1.407 1.02-.793 1.021-1.768 0-.72-.547-1.263a1.8 1.8 0 0 0-1.313-.54q-.584 0-1.24.324-.182.108-.693.433-.474.288-1.313.578-.84.251-2.334.252a5.7 5.7 0 0 1-3.537-1.19q-1.57-1.228-2.006-3.357h12.034q.877 0 1.532-.54m-13.53-3.068q.766-3.934 4.996-3.934 1.715 0 3.064 1.083 1.35 1.082 1.495 2.598v.252z" clip-rule="evenodd" style="stroke-width:.663946"/></svg>