<svg xmlns="http://www.w3.org/2000/svg" fill="none" height="73.8" width="86.4"><path fill="#161616" d="M42.404 6.426c-12.543 0-23.096 10.194-23.096 22.622a3.22 3.22 0 01-3.226 3.213 3.22 3.22 0 01-3.225-3.213C12.857 12.939 26.433 0 42.404 0c15.972 0 29.548 12.939 29.548 29.048 0 2.317-.24 4.566-.706 6.724 1.653.033 3.207.358 4.662.975 1.538.617 2.838 1.414 3.9 2.392v-.055c0-.942.312-1.72.934-2.337.623-.652 1.41-.978 2.362-.978.952 0 1.74.308 2.362.924.623.616.934 1.413.934 2.391v22.99c0 .943-.311 1.74-.934 2.392-.622.616-1.41.924-2.362.924-.952 0-1.74-.308-2.362-.924-.586-.616-.897-1.395-.934-2.337-.915 1.05-2.16 1.956-3.735 2.717a11.33 11.33 0 01-4.889 1.087c-2.526 0-4.815-.634-6.866-1.902-2.05-1.304-3.68-3.098-4.888-5.38a15.14 15.14 0 01-.954-2.312l-13.59 16.3a3.23 3.23 0 01-4.963 0L29.605 60.264a3.204 3.204 0 01.42-4.524 3.235 3.235 0 014.543.42l7.836 9.4 18.128-21.744c3.183-4.038 4.969-9.071 4.969-14.767 0-12.428-10.553-22.622-23.097-22.622zm23.119 41.461l-1.476 1.77c-.039.397-.058.803-.058 1.221 0 2.61.732 4.783 2.197 6.522 1.501 1.703 3.442 2.555 5.822 2.555s4.322-.852 5.823-2.555c1.501-1.739 2.252-3.913 2.252-6.522 0-2.608-.75-4.782-2.252-6.521-1.501-1.74-3.442-2.61-5.823-2.61-1.088 0-2.085.188-2.991.563a29.21 29.21 0 01-3.494 5.577zM26.97 52.292c.66-.544 1.008-1.25 1.044-2.12 0-2.573-.64-4.964-1.922-7.174s-3.003-3.968-5.164-5.272c-2.124-1.305-4.394-1.957-6.811-1.957-2.454 0-4.76.634-6.921 1.902-2.16 1.232-3.9 3.026-5.219 5.381C.66 45.407 0 48.142 0 51.259c0 2.79.623 5.308 1.868 7.555 1.245 2.21 3.002 3.949 5.273 5.217 2.307 1.268 4.998 1.902 8.075 1.902 1.757 0 3.497-.29 5.218-.87 1.72-.579 3.094-1.286 4.12-2.119 1.025-.797 1.538-1.685 1.538-2.663 0-.725-.275-1.359-.824-1.902a2.711 2.711 0 00-1.978-.816c-.586 0-1.208.164-1.867.49-.184.108-.531.326-1.044.652-.476.29-1.135.58-1.978.87-.842.253-2.014.38-3.515.38a8.587 8.587 0 01-5.328-1.794c-1.575-1.232-2.582-2.916-3.021-5.054h18.126c.88 0 1.648-.272 2.307-.815zm-20.378-4.62c.769-3.95 3.277-5.924 7.525-5.924 1.721 0 3.26.543 4.614 1.63 1.355 1.087 2.106 2.392 2.252 3.913v.38z" clip-rule="evenodd" fill-rule="evenodd"/></svg>
