<svg xmlns="http://www.w3.org/2000/svg" id="Calque_1" width="150" height="120" data-name="Calque 1" version="1.1"><defs id="defs1"><style id="style1">.cls-1{fill:#30342d}</style></defs><g id="g6" transform="translate(-4.395 -7.75)scale(1.0586)"><path id="path1" d="M24.081 58.583q-2.006-1.236-4.268-1.236a8.5 8.5 0 0 0-4.32 1.183q-2.023 1.185-3.258 3.413T11 67.12q0 2.641 1.165 4.748a8.4 8.4 0 0 0 3.31 3.31q2.143 1.2 5.023 1.199 1.646-.001 3.258-.549 1.611-.55 2.57-1.337.96-.754.96-1.681 0-.687-.513-1.2a1.68 1.68 0 0 0-1.236-.514q-.55 0-1.165.31-.17.103-.634.393-.464.292-1.252.549-.788.256-2.195.257a5.27 5.27 0 0 1-3.326-1.15q-1.473-1.148-1.886-3.17h11.316q.822 0 1.44-.515.617-.515.65-1.337 0-2.435-1.198-4.527a9.25 9.25 0 0 0-3.206-3.327zm.018 6.274h-8.984q.72-3.737 4.698-3.738 1.611 0 2.88 1.029 1.27 1.027 1.406 2.468v.239z" class="cls-1" style="stroke-width:.227499"/><path id="path2" d="M81.24 57.347q-.892 0-1.474.601-.583.599-.582 1.492v.035c-.665-.617-1.474-1.127-2.435-1.527q-1.44-.6-3.084-.6-2.298-.001-4.2 1.217t-3 3.394q-1.098 2.177-1.097 4.92-.001 2.744 1.114 4.903 1.113 2.16 3.035 3.379t4.286 1.217a7 7 0 0 0 3.07-.703c.964-.464 1.728-1.026 2.3-1.681v.318a2.066 2.066 0 1 0 4.128 0V59.438q0-.925-.582-1.508-.583-.584-1.474-.583zm-3.292 13.63q-1.406 1.628-3.635 1.629-2.229 0-3.617-1.63-1.389-1.628-1.388-4.096c0-1.645.469-3.02 1.406-4.116q1.405-1.646 3.599-1.647c1.463 0 2.698.548 3.635 1.647q1.406 1.645 1.406 4.116t-1.406 4.097" class="cls-1" style="stroke-width:.227499"/><path id="path3" d="M100.546 58.565q-1.922-1.219-4.286-1.218a6.6 6.6 0 0 0-3.087.772q-1.475.771-2.298 1.8v-.48q.001-.893-.583-1.493-.583-.6-1.474-.6-.89 0-1.474.6-.583.599-.582 1.492V80.8q0 .925.582 1.509.584.583 1.474.582.89 0 1.474-.6t.583-1.493v-6.72q.959.96 2.418 1.629a7.35 7.35 0 0 0 3.103.668q2.298.001 4.2-1.217t3-3.394q1.098-2.177 1.097-4.92.001-2.744-1.115-4.903-1.115-2.16-3.034-3.379zM99.345 70.96q-1.407 1.645-3.602 1.645c-1.462 0-2.698-.548-3.635-1.645q-1.406-1.645-1.406-4.115t1.406-4.098q1.405-1.628 3.635-1.629 2.23 0 3.618 1.63 1.388 1.628 1.387 4.097 0 2.466-1.406 4.115z" class="cls-1" style="stroke-width:.227499"/><path id="path4" d="M118.966 57.93q-.703-.584-1.73-.583-1.68 0-3.156.738a5.2 5.2 0 0 0-2.264 2.143v-.79q0-.892-.582-1.492-.584-.6-1.474-.6-.891 0-1.475.6-.583.599-.582 1.492v14.847q0 .893.582 1.492.584.6 1.475.6.89 0 1.474-.6.583-.599.582-1.492v-8.47q0-1.544.532-2.657.532-1.114 1.354-1.663.822-.55 1.715-.549.411 0 .772.103.359.102.464.136.651.241 1.165.242a1.8 1.8 0 0 0 1.303-.533q.549-.531.548-1.595 0-.787-.703-1.371z" class="cls-1" style="stroke-width:.227499"/><path id="path5" d="M137.765 61.959a8.85 8.85 0 0 0-3.379-3.394q-2.142-1.219-4.716-1.218c-1.715 0-3.314.405-4.732 1.218q-2.125 1.217-3.36 3.394t-1.235 4.92q0 2.745 1.235 4.921 1.235 2.178 3.36 3.379 2.126 1.2 4.732 1.199c1.738 0 3.285-.4 4.716-1.2a8.7 8.7 0 0 0 3.379-3.378Q139 69.624 139 66.88q0-2.745-1.235-4.921m-3.583 7.903q-.704 1.304-1.886 2.023-1.184.72-2.623.719-1.44 0-2.624-.72-1.183-.72-1.885-2.022-.704-1.303-.703-2.982 0-1.68.703-3.001.702-1.32 1.885-2.04a4.95 4.95 0 0 1 2.624-.722q1.439 0 2.623.721 1.183.72 1.886 2.04.702 1.322.703 3.002 0 1.678-.703 2.982" class="cls-1" style="stroke-width:.227499"/><path id="path6" d="M68.93 47.083a2.064 2.064 0 1 0-3.321-2.453l-7.337 9.937a8.83 8.83 0 0 0-4.702-1.35H43.348a2.066 2.066 0 1 0 0 4.13H53.57c.807 0 1.57.205 2.238.562l-9.512 12.884-6.643-9.378a2.064 2.064 0 1 0-3.369 2.387l8.293 11.707a2.06 2.06 0 0 0 1.665.871h.02c.656 0 1.272-.312 1.661-.837l10.365-14.04c.025.199.043.401.043.606v13.209a4.765 4.765 0 0 1-4.76 4.759h-14.57a4.765 4.765 0 0 1-4.76-4.76V70.42a2.066 2.066 0 1 0-4.131 0v4.898c0 4.902 3.988 8.89 8.89 8.89h14.572c4.902 0 8.89-3.988 8.89-8.89V62.109a8.8 8.8 0 0 0-1.258-4.552l7.73-10.47z" class="cls-1" style="stroke-width:.227499"/></g></svg>