<?xml version="1.0" encoding="UTF-8"?>
<svg id="Calque_1" data-name="Calque 1" xmlns="http://www.w3.org/2000/svg" viewBox="0 0 716.39 331.37">
  <defs>
    <style>
      .cls-1 {
        fill: #30342d;
      }
    </style>
  </defs>
  <path class="cls-1" d="M134.39,141.88c-5.88-3.62-12.13-5.43-18.76-5.43s-13.06,1.73-18.99,5.2c-5.93,3.47-10.7,8.47-14.32,15-3.62,6.53-5.43,14.12-5.43,22.76,0,7.74,1.71,14.7,5.12,20.87,3.42,6.18,8.26,11.03,14.55,14.55,6.28,3.52,13.64,5.27,22.08,5.27,4.82,0,9.6-.81,14.32-2.41,4.72-1.61,8.49-3.57,11.3-5.88,2.81-2.21,4.22-4.67,4.22-7.39,0-2.01-.75-3.77-2.26-5.27-1.51-1.51-3.32-2.26-5.43-2.26-1.61,0-3.32.45-5.12,1.36-.5.3-1.43.88-2.79,1.73-1.36.85-3.19,1.66-5.5,2.41-2.31.75-5.53,1.13-9.65,1.13-5.43,0-10.3-1.68-14.62-5.05-4.32-3.37-7.08-8.01-8.29-13.94h49.74c2.41,0,4.52-.75,6.33-2.26,1.81-1.51,2.76-3.47,2.86-5.88,0-7.13-1.76-13.77-5.27-19.9-3.52-6.13-8.22-11-14.09-14.62ZM134.47,169.46h-39.49c2.11-10.95,8.99-16.43,20.65-16.43,4.72,0,8.94,1.51,12.66,4.52,3.72,3.01,5.78,6.63,6.18,10.85v1.05Z"/>
  <path class="cls-1" d="M385.64,136.45c-2.62,0-4.77.88-6.48,2.64-1.71,1.76-2.56,3.94-2.56,6.56v.15c-2.92-2.71-6.48-4.95-10.7-6.71-4.22-1.76-8.74-2.64-13.56-2.64-6.73,0-12.89,1.78-18.46,5.35-5.58,3.57-9.97,8.54-13.19,14.92-3.22,6.38-4.82,13.59-4.82,21.63s1.63,15.22,4.9,21.55c3.26,6.33,7.71,11.28,13.34,14.85,5.63,3.57,11.91,5.35,18.84,5.35,4.72,0,9.22-1.03,13.49-3.09,4.24-2.04,7.6-4.51,10.11-7.39v1.4c0,5.01,4.06,9.08,9.08,9.08s9.07-4.06,9.07-9.08v-65.38c0-2.71-.85-4.92-2.56-6.63-1.71-1.71-3.87-2.56-6.48-2.56ZM371.17,196.36c-4.12,4.77-9.45,7.16-15.98,7.16s-11.83-2.39-15.9-7.16c-4.07-4.77-6.1-10.78-6.1-18.01s2.06-13.27,6.18-18.09c4.12-4.82,9.39-7.24,15.82-7.24s11.86,2.41,15.98,7.24c4.12,4.82,6.18,10.85,6.18,18.09s-2.06,13.24-6.18,18.01Z"/>
  <path class="cls-1" d="M470.5,141.8c-5.63-3.57-11.91-5.35-18.84-5.35-4.72,0-9.25,1.13-13.57,3.39-4.32,2.26-7.69,4.9-10.1,7.91v-2.11c0-2.61-.85-4.8-2.56-6.56-1.71-1.76-3.87-2.64-6.48-2.64s-4.77.88-6.48,2.64c-1.71,1.76-2.56,3.94-2.56,6.56v93.9c0,2.71.85,4.92,2.56,6.63,1.71,1.71,3.87,2.56,6.48,2.56s4.77-.88,6.48-2.64c1.71-1.76,2.56-3.94,2.56-6.56v-29.54c2.81,2.81,6.35,5.2,10.63,7.16,4.27,1.96,8.82,2.94,13.64,2.94,6.73,0,12.89-1.78,18.46-5.35,5.58-3.57,9.97-8.54,13.19-14.92,3.22-6.38,4.82-13.59,4.82-21.63s-1.63-15.22-4.9-21.55c-3.27-6.33-7.71-11.28-13.34-14.85ZM465.22,196.29c-4.12,4.82-9.4,7.23-15.83,7.23s-11.86-2.41-15.98-7.23c-4.12-4.82-6.18-10.85-6.18-18.09s2.06-13.24,6.18-18.01c4.12-4.77,9.44-7.16,15.98-7.16s11.83,2.39,15.9,7.16c4.07,4.77,6.1,10.78,6.1,18.01s-2.06,13.26-6.18,18.09Z"/>
  <path class="cls-1" d="M551.47,139.01c-2.06-1.71-4.6-2.56-7.61-2.56-4.92,0-9.55,1.08-13.87,3.24-4.32,2.16-7.64,5.3-9.95,9.42v-3.47c0-2.61-.85-4.8-2.56-6.56-1.71-1.76-3.87-2.64-6.48-2.64s-4.77.88-6.48,2.64c-1.71,1.76-2.56,3.94-2.56,6.56v65.26c0,2.62.85,4.8,2.56,6.56,1.71,1.76,3.87,2.64,6.48,2.64s4.77-.88,6.48-2.64c1.71-1.76,2.56-3.94,2.56-6.56v-37.23c0-4.52.78-8.42,2.34-11.68,1.56-3.26,3.54-5.7,5.95-7.31,2.41-1.61,4.92-2.41,7.54-2.41,1.2,0,2.34.15,3.39.45,1.06.3,1.73.5,2.04.6,1.91.7,3.62,1.06,5.12,1.06,2.21,0,4.12-.78,5.73-2.34,1.61-1.56,2.41-3.89,2.41-7.01,0-2.31-1.03-4.32-3.09-6.03Z"/>
  <path class="cls-1" d="M634.1,156.72c-3.62-6.38-8.57-11.35-14.85-14.92-6.28-3.57-13.19-5.35-20.73-5.35s-14.57,1.78-20.8,5.35c-6.23,3.57-11.15,8.54-14.77,14.92-3.62,6.38-5.43,13.59-5.43,21.63s1.81,15.25,5.43,21.63c3.62,6.38,8.54,11.33,14.77,14.85,6.23,3.52,13.16,5.27,20.8,5.27s14.44-1.76,20.73-5.27c6.28-3.52,11.23-8.46,14.85-14.85,3.62-6.38,5.43-13.59,5.43-21.63s-1.81-15.25-5.43-21.63ZM618.35,191.46c-2.06,3.82-4.82,6.78-8.29,8.89-3.47,2.11-7.31,3.16-11.53,3.16s-8.06-1.05-11.53-3.16c-3.47-2.11-6.23-5.07-8.29-8.89-2.06-3.82-3.09-8.19-3.09-13.11s1.03-9.32,3.09-13.19c2.06-3.87,4.82-6.86,8.29-8.97,3.47-2.11,7.31-3.17,11.53-3.17s8.06,1.06,11.53,3.17c3.47,2.11,6.23,5.1,8.29,8.97,2.06,3.87,3.09,8.27,3.09,13.19s-1.03,9.29-3.09,13.11Z"/>
  <path class="cls-1" d="M331.53,91.33c2.98-4.03,2.12-9.71-1.91-12.69-4.03-2.98-9.71-2.12-12.69,1.91l-32.25,43.68c-6-3.76-13.09-5.94-20.67-5.94h-44.93c-5.01,0-9.08,4.06-9.08,9.08s4.06,9.08,9.08,9.08h44.93c3.55,0,6.9.9,9.84,2.47l-41.81,56.63-29.2-41.22c-2.9-4.09-8.56-5.06-12.65-2.16-4.09,2.9-5.06,8.56-2.16,12.65l36.45,51.46c1.68,2.38,4.4,3.8,7.32,3.83.03,0,.06,0,.09,0,2.88,0,5.59-1.37,7.3-3.68l45.56-61.71c.11.87.19,1.76.19,2.66v58.06c0,11.54-9.39,20.92-20.92,20.92h-64.05c-11.54,0-20.92-9.39-20.92-20.92v-21.53c0-5.01-4.06-9.08-9.08-9.08s-9.08,4.06-9.08,9.08v21.53c0,21.55,17.53,39.08,39.08,39.08h64.05c21.55,0,39.08-17.53,39.08-39.08v-58.06c0-7.31-2.02-14.15-5.53-20.01l33.98-46.02Z"/>
</svg>